G04 #@! TF.FileFunction,Legend,Top*
%FSLAX46Y46*%
G04 Gerber Fmt 4.6, Leading zero omitted, Abs format (unit mm)*
G04 Created by KiCad (PCBNEW (2016-05-05 BZR 6775)-product) date 2016 June 06, Monday 00:12:01*
%MOMM*%
%LPD*%
G01*
G04 APERTURE LIST*
%ADD10C,0.020000*%
%ADD11C,0.010000*%
%ADD12C,0.100000*%
%ADD13C,0.070000*%
%ADD14C,3.200000*%
%ADD15R,0.700000X0.700000*%
%ADD16C,1.100000*%
%ADD17R,1.000000X1.000000*%
%ADD18C,1.800000*%
%ADD19R,1.680000X1.680000*%
%ADD20R,0.840000X0.410000*%
%ADD21R,0.410000X0.840000*%
%ADD22C,1.800000*%
%ADD23C,0.200000*%
G04 APERTURE END LIST*
D10*
D11*
G36*
X80899689Y-76909732D02*
X80985819Y-76933871D01*
X81069457Y-76973538D01*
X81152637Y-77029332D01*
X81165685Y-77039514D01*
X81235085Y-77104602D01*
X81289851Y-77178114D01*
X81330309Y-77260580D01*
X81355559Y-77346611D01*
X81359568Y-77366759D01*
X81362615Y-77386361D01*
X81364486Y-77406583D01*
X81364965Y-77428588D01*
X81363836Y-77453540D01*
X81360883Y-77482604D01*
X81355892Y-77516943D01*
X81348647Y-77557723D01*
X81338932Y-77606108D01*
X81326531Y-77663261D01*
X81311229Y-77730346D01*
X81292810Y-77808529D01*
X81271060Y-77898973D01*
X81245761Y-78002843D01*
X81216700Y-78121302D01*
X81198212Y-78196431D01*
X81047045Y-78795183D01*
X80889252Y-79390813D01*
X80725824Y-79979739D01*
X80557750Y-80558375D01*
X80423468Y-81002196D01*
X80389368Y-81112429D01*
X80359455Y-81207815D01*
X80333136Y-81289744D01*
X80309818Y-81359608D01*
X80288907Y-81418797D01*
X80269811Y-81468704D01*
X80251936Y-81510718D01*
X80234689Y-81546231D01*
X80217476Y-81576634D01*
X80199706Y-81603318D01*
X80180784Y-81627674D01*
X80160117Y-81651094D01*
X80137112Y-81674968D01*
X80136192Y-81675895D01*
X80098295Y-81712234D01*
X80065043Y-81739303D01*
X80030785Y-81761274D01*
X79996141Y-81779305D01*
X79904895Y-81814576D01*
X79809531Y-81834594D01*
X79712888Y-81839006D01*
X79617803Y-81827455D01*
X79615268Y-81826915D01*
X79515435Y-81797363D01*
X79424945Y-81753819D01*
X79344107Y-81696457D01*
X79289321Y-81643732D01*
X79272110Y-81623513D01*
X79253766Y-81598905D01*
X79233671Y-81568780D01*
X79211208Y-81532010D01*
X79185761Y-81487466D01*
X79156713Y-81434022D01*
X79123447Y-81370548D01*
X79085346Y-81295916D01*
X79041793Y-81208999D01*
X78992171Y-81108668D01*
X78952387Y-81027588D01*
X78797475Y-80708193D01*
X78650772Y-80399699D01*
X78510893Y-80099060D01*
X78376453Y-79803231D01*
X78246068Y-79509165D01*
X78118354Y-79213817D01*
X77993765Y-78918552D01*
X77946403Y-78804363D01*
X77899405Y-78689890D01*
X77853279Y-78576428D01*
X77808527Y-78465277D01*
X77765656Y-78357735D01*
X77725171Y-78255098D01*
X77687577Y-78158666D01*
X77653379Y-78069735D01*
X77623083Y-77989604D01*
X77597193Y-77919571D01*
X77576214Y-77860933D01*
X77560653Y-77814989D01*
X77551014Y-77783036D01*
X77549609Y-77777471D01*
X77537770Y-77692213D01*
X77541561Y-77606711D01*
X77559802Y-77522695D01*
X77591309Y-77441894D01*
X77634902Y-77366037D01*
X77689398Y-77296854D01*
X77753617Y-77236075D01*
X77826375Y-77185427D01*
X77906492Y-77146642D01*
X77992785Y-77121448D01*
X77998674Y-77120305D01*
X78089294Y-77110670D01*
X78179922Y-77115077D01*
X78266806Y-77133050D01*
X78346191Y-77164111D01*
X78347082Y-77164561D01*
X78397257Y-77197011D01*
X78448349Y-77242766D01*
X78497660Y-77298596D01*
X78542490Y-77361267D01*
X78580143Y-77427549D01*
X78596238Y-77462968D01*
X78634987Y-77556037D01*
X78674784Y-77649981D01*
X78716370Y-77746462D01*
X78760489Y-77847144D01*
X78807883Y-77953689D01*
X78859296Y-78067761D01*
X78915470Y-78191024D01*
X78977149Y-78325139D01*
X79045075Y-78471770D01*
X79090253Y-78568841D01*
X79125943Y-78644998D01*
X79164175Y-78725841D01*
X79204288Y-78810026D01*
X79245622Y-78896209D01*
X79287515Y-78983046D01*
X79329307Y-79069194D01*
X79370335Y-79153307D01*
X79409940Y-79234042D01*
X79447461Y-79310056D01*
X79482236Y-79380004D01*
X79513604Y-79442542D01*
X79540904Y-79496325D01*
X79563476Y-79540012D01*
X79580658Y-79572256D01*
X79591790Y-79591714D01*
X79596016Y-79597198D01*
X79601934Y-79589727D01*
X79610569Y-79570068D01*
X79620126Y-79542347D01*
X79620828Y-79540067D01*
X79672896Y-79369033D01*
X79721053Y-79210077D01*
X79765954Y-79060927D01*
X79808257Y-78919314D01*
X79848617Y-78782964D01*
X79887692Y-78649607D01*
X79926137Y-78516972D01*
X79964609Y-78382786D01*
X80003766Y-78244779D01*
X80044262Y-78100680D01*
X80086755Y-77948216D01*
X80131901Y-77785116D01*
X80180356Y-77609110D01*
X80207318Y-77510860D01*
X80232158Y-77421352D01*
X80253774Y-77346416D01*
X80272938Y-77284174D01*
X80290419Y-77232748D01*
X80306990Y-77190262D01*
X80323422Y-77154836D01*
X80340485Y-77124593D01*
X80358951Y-77097656D01*
X80379590Y-77072147D01*
X80394174Y-77055835D01*
X80448387Y-77004412D01*
X80506586Y-76964893D01*
X80571900Y-76935801D01*
X80647455Y-76915656D01*
X80711812Y-76905638D01*
X80809031Y-76900521D01*
X80899689Y-76909732D01*
X80899689Y-76909732D01*
G37*
X80899689Y-76909732D02*
X80985819Y-76933871D01*
X81069457Y-76973538D01*
X81152637Y-77029332D01*
X81165685Y-77039514D01*
X81235085Y-77104602D01*
X81289851Y-77178114D01*
X81330309Y-77260580D01*
X81355559Y-77346611D01*
X81359568Y-77366759D01*
X81362615Y-77386361D01*
X81364486Y-77406583D01*
X81364965Y-77428588D01*
X81363836Y-77453540D01*
X81360883Y-77482604D01*
X81355892Y-77516943D01*
X81348647Y-77557723D01*
X81338932Y-77606108D01*
X81326531Y-77663261D01*
X81311229Y-77730346D01*
X81292810Y-77808529D01*
X81271060Y-77898973D01*
X81245761Y-78002843D01*
X81216700Y-78121302D01*
X81198212Y-78196431D01*
X81047045Y-78795183D01*
X80889252Y-79390813D01*
X80725824Y-79979739D01*
X80557750Y-80558375D01*
X80423468Y-81002196D01*
X80389368Y-81112429D01*
X80359455Y-81207815D01*
X80333136Y-81289744D01*
X80309818Y-81359608D01*
X80288907Y-81418797D01*
X80269811Y-81468704D01*
X80251936Y-81510718D01*
X80234689Y-81546231D01*
X80217476Y-81576634D01*
X80199706Y-81603318D01*
X80180784Y-81627674D01*
X80160117Y-81651094D01*
X80137112Y-81674968D01*
X80136192Y-81675895D01*
X80098295Y-81712234D01*
X80065043Y-81739303D01*
X80030785Y-81761274D01*
X79996141Y-81779305D01*
X79904895Y-81814576D01*
X79809531Y-81834594D01*
X79712888Y-81839006D01*
X79617803Y-81827455D01*
X79615268Y-81826915D01*
X79515435Y-81797363D01*
X79424945Y-81753819D01*
X79344107Y-81696457D01*
X79289321Y-81643732D01*
X79272110Y-81623513D01*
X79253766Y-81598905D01*
X79233671Y-81568780D01*
X79211208Y-81532010D01*
X79185761Y-81487466D01*
X79156713Y-81434022D01*
X79123447Y-81370548D01*
X79085346Y-81295916D01*
X79041793Y-81208999D01*
X78992171Y-81108668D01*
X78952387Y-81027588D01*
X78797475Y-80708193D01*
X78650772Y-80399699D01*
X78510893Y-80099060D01*
X78376453Y-79803231D01*
X78246068Y-79509165D01*
X78118354Y-79213817D01*
X77993765Y-78918552D01*
X77946403Y-78804363D01*
X77899405Y-78689890D01*
X77853279Y-78576428D01*
X77808527Y-78465277D01*
X77765656Y-78357735D01*
X77725171Y-78255098D01*
X77687577Y-78158666D01*
X77653379Y-78069735D01*
X77623083Y-77989604D01*
X77597193Y-77919571D01*
X77576214Y-77860933D01*
X77560653Y-77814989D01*
X77551014Y-77783036D01*
X77549609Y-77777471D01*
X77537770Y-77692213D01*
X77541561Y-77606711D01*
X77559802Y-77522695D01*
X77591309Y-77441894D01*
X77634902Y-77366037D01*
X77689398Y-77296854D01*
X77753617Y-77236075D01*
X77826375Y-77185427D01*
X77906492Y-77146642D01*
X77992785Y-77121448D01*
X77998674Y-77120305D01*
X78089294Y-77110670D01*
X78179922Y-77115077D01*
X78266806Y-77133050D01*
X78346191Y-77164111D01*
X78347082Y-77164561D01*
X78397257Y-77197011D01*
X78448349Y-77242766D01*
X78497660Y-77298596D01*
X78542490Y-77361267D01*
X78580143Y-77427549D01*
X78596238Y-77462968D01*
X78634987Y-77556037D01*
X78674784Y-77649981D01*
X78716370Y-77746462D01*
X78760489Y-77847144D01*
X78807883Y-77953689D01*
X78859296Y-78067761D01*
X78915470Y-78191024D01*
X78977149Y-78325139D01*
X79045075Y-78471770D01*
X79090253Y-78568841D01*
X79125943Y-78644998D01*
X79164175Y-78725841D01*
X79204288Y-78810026D01*
X79245622Y-78896209D01*
X79287515Y-78983046D01*
X79329307Y-79069194D01*
X79370335Y-79153307D01*
X79409940Y-79234042D01*
X79447461Y-79310056D01*
X79482236Y-79380004D01*
X79513604Y-79442542D01*
X79540904Y-79496325D01*
X79563476Y-79540012D01*
X79580658Y-79572256D01*
X79591790Y-79591714D01*
X79596016Y-79597198D01*
X79601934Y-79589727D01*
X79610569Y-79570068D01*
X79620126Y-79542347D01*
X79620828Y-79540067D01*
X79672896Y-79369033D01*
X79721053Y-79210077D01*
X79765954Y-79060927D01*
X79808257Y-78919314D01*
X79848617Y-78782964D01*
X79887692Y-78649607D01*
X79926137Y-78516972D01*
X79964609Y-78382786D01*
X80003766Y-78244779D01*
X80044262Y-78100680D01*
X80086755Y-77948216D01*
X80131901Y-77785116D01*
X80180356Y-77609110D01*
X80207318Y-77510860D01*
X80232158Y-77421352D01*
X80253774Y-77346416D01*
X80272938Y-77284174D01*
X80290419Y-77232748D01*
X80306990Y-77190262D01*
X80323422Y-77154836D01*
X80340485Y-77124593D01*
X80358951Y-77097656D01*
X80379590Y-77072147D01*
X80394174Y-77055835D01*
X80448387Y-77004412D01*
X80506586Y-76964893D01*
X80571900Y-76935801D01*
X80647455Y-76915656D01*
X80711812Y-76905638D01*
X80809031Y-76900521D01*
X80899689Y-76909732D01*
G36*
X73749755Y-76874440D02*
X73858916Y-76888164D01*
X73956292Y-76913949D01*
X74042115Y-76951935D01*
X74116619Y-77002264D01*
X74180036Y-77065075D01*
X74232600Y-77140508D01*
X74252044Y-77177109D01*
X74280894Y-77242458D01*
X74299599Y-77301965D01*
X74309219Y-77361435D01*
X74310819Y-77426670D01*
X74307592Y-77480567D01*
X74305080Y-77508894D01*
X74301830Y-77543378D01*
X74297765Y-77584746D01*
X74292804Y-77633726D01*
X74286871Y-77691044D01*
X74279887Y-77757426D01*
X74271773Y-77833601D01*
X74262451Y-77920294D01*
X74251842Y-78018233D01*
X74239869Y-78128145D01*
X74226453Y-78250756D01*
X74211516Y-78386794D01*
X74194978Y-78536984D01*
X74176763Y-78702055D01*
X74156790Y-78882733D01*
X74142353Y-79013192D01*
X74126677Y-79154893D01*
X74112786Y-79280803D01*
X74100586Y-79391953D01*
X74089979Y-79489375D01*
X74080871Y-79574101D01*
X74073168Y-79647162D01*
X74066772Y-79709591D01*
X74061589Y-79762418D01*
X74057523Y-79806677D01*
X74054479Y-79843397D01*
X74052362Y-79873612D01*
X74051076Y-79898352D01*
X74050526Y-79918650D01*
X74050616Y-79935536D01*
X74051252Y-79950044D01*
X74052336Y-79963204D01*
X74053518Y-79973913D01*
X74074416Y-80079694D01*
X74110615Y-80180319D01*
X74160986Y-80274705D01*
X74224401Y-80361770D01*
X74299730Y-80440434D01*
X74385846Y-80509613D01*
X74481618Y-80568226D01*
X74585919Y-80615192D01*
X74697619Y-80649427D01*
X74773949Y-80664387D01*
X74814241Y-80668446D01*
X74867371Y-80670552D01*
X74929352Y-80670596D01*
X74968617Y-80669606D01*
X75070436Y-80662869D01*
X75160031Y-80649462D01*
X75241171Y-80628271D01*
X75317624Y-80598180D01*
X75393156Y-80558076D01*
X75435574Y-80531411D01*
X75534226Y-80456643D01*
X75620560Y-80371003D01*
X75693781Y-80275585D01*
X75753098Y-80171480D01*
X75797719Y-80059779D01*
X75811063Y-80014024D01*
X75813999Y-80000979D01*
X75817013Y-79983547D01*
X75820162Y-79960954D01*
X75823504Y-79932426D01*
X75827096Y-79897188D01*
X75830994Y-79854466D01*
X75835256Y-79803485D01*
X75839939Y-79743470D01*
X75845100Y-79673648D01*
X75850795Y-79593243D01*
X75857082Y-79501481D01*
X75864018Y-79397587D01*
X75871660Y-79280788D01*
X75880065Y-79150308D01*
X75889290Y-79005372D01*
X75899391Y-78845208D01*
X75910427Y-78669039D01*
X75912218Y-78640368D01*
X75922268Y-78479304D01*
X75931336Y-78334217D01*
X75939513Y-78204194D01*
X75946893Y-78088318D01*
X75953569Y-77985674D01*
X75959633Y-77895348D01*
X75965177Y-77816423D01*
X75970295Y-77747984D01*
X75975080Y-77689117D01*
X75979622Y-77638905D01*
X75984017Y-77596434D01*
X75988356Y-77560788D01*
X75992731Y-77531052D01*
X75997236Y-77506311D01*
X76001963Y-77485648D01*
X76007006Y-77468150D01*
X76012455Y-77452900D01*
X76018406Y-77438984D01*
X76024949Y-77425486D01*
X76032178Y-77411491D01*
X76037736Y-77400830D01*
X76085924Y-77325423D01*
X76147144Y-77257949D01*
X76218590Y-77200728D01*
X76297451Y-77156080D01*
X76364572Y-77130802D01*
X76399851Y-77123880D01*
X76447022Y-77119413D01*
X76501225Y-77117413D01*
X76557603Y-77117891D01*
X76611297Y-77120859D01*
X76657447Y-77126330D01*
X76676285Y-77130034D01*
X76759270Y-77158144D01*
X76836016Y-77201331D01*
X76905151Y-77258457D01*
X76965304Y-77328386D01*
X77015102Y-77409981D01*
X77015781Y-77411323D01*
X77023586Y-77426658D01*
X77030527Y-77440633D01*
X77036636Y-77454276D01*
X77041948Y-77468614D01*
X77046498Y-77484676D01*
X77050319Y-77503490D01*
X77053447Y-77526083D01*
X77055914Y-77553484D01*
X77057757Y-77586721D01*
X77059008Y-77626821D01*
X77059703Y-77674813D01*
X77059876Y-77731725D01*
X77059560Y-77798584D01*
X77058791Y-77876418D01*
X77057602Y-77966257D01*
X77056028Y-78069127D01*
X77054104Y-78186056D01*
X77051862Y-78318074D01*
X77049896Y-78433419D01*
X77046078Y-78654885D01*
X77042434Y-78859791D01*
X77038956Y-79048503D01*
X77035634Y-79221388D01*
X77032459Y-79378812D01*
X77029424Y-79521143D01*
X77026518Y-79648745D01*
X77023734Y-79761987D01*
X77021062Y-79861234D01*
X77018494Y-79946854D01*
X77016020Y-80019212D01*
X77013633Y-80078674D01*
X77011322Y-80125609D01*
X77009080Y-80160381D01*
X77008037Y-80172739D01*
X76992627Y-80278914D01*
X76966283Y-80392942D01*
X76930379Y-80511059D01*
X76886292Y-80629500D01*
X76835396Y-80744498D01*
X76779067Y-80852288D01*
X76731377Y-80930253D01*
X76625163Y-81075976D01*
X76506074Y-81211008D01*
X76374884Y-81334675D01*
X76232366Y-81446298D01*
X76079293Y-81545203D01*
X75947184Y-81615976D01*
X75801255Y-81681105D01*
X75655088Y-81733232D01*
X75505471Y-81773172D01*
X75349196Y-81801741D01*
X75183052Y-81819756D01*
X75132612Y-81823121D01*
X75084053Y-81825819D01*
X75040496Y-81828014D01*
X75005143Y-81829561D01*
X74981196Y-81830317D01*
X74972849Y-81830292D01*
X74958324Y-81829378D01*
X74930655Y-81827676D01*
X74893598Y-81825416D01*
X74850907Y-81822828D01*
X74843491Y-81822380D01*
X74644879Y-81803182D01*
X74454070Y-81770146D01*
X74271822Y-81723460D01*
X74098888Y-81663312D01*
X73962277Y-81602962D01*
X73826520Y-81531126D01*
X73703104Y-81453587D01*
X73587638Y-81367222D01*
X73475734Y-81268902D01*
X73427826Y-81222379D01*
X73303723Y-81087204D01*
X73193954Y-80943808D01*
X73098880Y-80792858D01*
X73018860Y-80635018D01*
X72954254Y-80470955D01*
X72905424Y-80301332D01*
X72889542Y-80227754D01*
X72882385Y-80189943D01*
X72876870Y-80157060D01*
X72872778Y-80125974D01*
X72869895Y-80093558D01*
X72868004Y-80056681D01*
X72866887Y-80012216D01*
X72866329Y-79957033D01*
X72866115Y-79889200D01*
X72865999Y-79855835D01*
X72865839Y-79826179D01*
X72865751Y-79799239D01*
X72865852Y-79774022D01*
X72866256Y-79749534D01*
X72867080Y-79724783D01*
X72868440Y-79698775D01*
X72870452Y-79670518D01*
X72873232Y-79639018D01*
X72876895Y-79603282D01*
X72881558Y-79562317D01*
X72887337Y-79515129D01*
X72894347Y-79460727D01*
X72902705Y-79398115D01*
X72912526Y-79326303D01*
X72923927Y-79244295D01*
X72937023Y-79151099D01*
X72951931Y-79045723D01*
X72968765Y-78927172D01*
X72987643Y-78794454D01*
X73008680Y-78646576D01*
X73022739Y-78547681D01*
X73047316Y-78374705D01*
X73069644Y-78217653D01*
X73089871Y-78075689D01*
X73108144Y-77947979D01*
X73124610Y-77833689D01*
X73139417Y-77731984D01*
X73152714Y-77642031D01*
X73164646Y-77562994D01*
X73175363Y-77494040D01*
X73185011Y-77434335D01*
X73193739Y-77383043D01*
X73201693Y-77339331D01*
X73209021Y-77302363D01*
X73215871Y-77271307D01*
X73222391Y-77245328D01*
X73228727Y-77223590D01*
X73235028Y-77205261D01*
X73241441Y-77189505D01*
X73248114Y-77175488D01*
X73255195Y-77162377D01*
X73262830Y-77149336D01*
X73271168Y-77135531D01*
X73273086Y-77132349D01*
X73327345Y-77057405D01*
X73392232Y-76993773D01*
X73465805Y-76942504D01*
X73546123Y-76904647D01*
X73631244Y-76881255D01*
X73719227Y-76873377D01*
X73749755Y-76874440D01*
X73749755Y-76874440D01*
G37*
X73749755Y-76874440D02*
X73858916Y-76888164D01*
X73956292Y-76913949D01*
X74042115Y-76951935D01*
X74116619Y-77002264D01*
X74180036Y-77065075D01*
X74232600Y-77140508D01*
X74252044Y-77177109D01*
X74280894Y-77242458D01*
X74299599Y-77301965D01*
X74309219Y-77361435D01*
X74310819Y-77426670D01*
X74307592Y-77480567D01*
X74305080Y-77508894D01*
X74301830Y-77543378D01*
X74297765Y-77584746D01*
X74292804Y-77633726D01*
X74286871Y-77691044D01*
X74279887Y-77757426D01*
X74271773Y-77833601D01*
X74262451Y-77920294D01*
X74251842Y-78018233D01*
X74239869Y-78128145D01*
X74226453Y-78250756D01*
X74211516Y-78386794D01*
X74194978Y-78536984D01*
X74176763Y-78702055D01*
X74156790Y-78882733D01*
X74142353Y-79013192D01*
X74126677Y-79154893D01*
X74112786Y-79280803D01*
X74100586Y-79391953D01*
X74089979Y-79489375D01*
X74080871Y-79574101D01*
X74073168Y-79647162D01*
X74066772Y-79709591D01*
X74061589Y-79762418D01*
X74057523Y-79806677D01*
X74054479Y-79843397D01*
X74052362Y-79873612D01*
X74051076Y-79898352D01*
X74050526Y-79918650D01*
X74050616Y-79935536D01*
X74051252Y-79950044D01*
X74052336Y-79963204D01*
X74053518Y-79973913D01*
X74074416Y-80079694D01*
X74110615Y-80180319D01*
X74160986Y-80274705D01*
X74224401Y-80361770D01*
X74299730Y-80440434D01*
X74385846Y-80509613D01*
X74481618Y-80568226D01*
X74585919Y-80615192D01*
X74697619Y-80649427D01*
X74773949Y-80664387D01*
X74814241Y-80668446D01*
X74867371Y-80670552D01*
X74929352Y-80670596D01*
X74968617Y-80669606D01*
X75070436Y-80662869D01*
X75160031Y-80649462D01*
X75241171Y-80628271D01*
X75317624Y-80598180D01*
X75393156Y-80558076D01*
X75435574Y-80531411D01*
X75534226Y-80456643D01*
X75620560Y-80371003D01*
X75693781Y-80275585D01*
X75753098Y-80171480D01*
X75797719Y-80059779D01*
X75811063Y-80014024D01*
X75813999Y-80000979D01*
X75817013Y-79983547D01*
X75820162Y-79960954D01*
X75823504Y-79932426D01*
X75827096Y-79897188D01*
X75830994Y-79854466D01*
X75835256Y-79803485D01*
X75839939Y-79743470D01*
X75845100Y-79673648D01*
X75850795Y-79593243D01*
X75857082Y-79501481D01*
X75864018Y-79397587D01*
X75871660Y-79280788D01*
X75880065Y-79150308D01*
X75889290Y-79005372D01*
X75899391Y-78845208D01*
X75910427Y-78669039D01*
X75912218Y-78640368D01*
X75922268Y-78479304D01*
X75931336Y-78334217D01*
X75939513Y-78204194D01*
X75946893Y-78088318D01*
X75953569Y-77985674D01*
X75959633Y-77895348D01*
X75965177Y-77816423D01*
X75970295Y-77747984D01*
X75975080Y-77689117D01*
X75979622Y-77638905D01*
X75984017Y-77596434D01*
X75988356Y-77560788D01*
X75992731Y-77531052D01*
X75997236Y-77506311D01*
X76001963Y-77485648D01*
X76007006Y-77468150D01*
X76012455Y-77452900D01*
X76018406Y-77438984D01*
X76024949Y-77425486D01*
X76032178Y-77411491D01*
X76037736Y-77400830D01*
X76085924Y-77325423D01*
X76147144Y-77257949D01*
X76218590Y-77200728D01*
X76297451Y-77156080D01*
X76364572Y-77130802D01*
X76399851Y-77123880D01*
X76447022Y-77119413D01*
X76501225Y-77117413D01*
X76557603Y-77117891D01*
X76611297Y-77120859D01*
X76657447Y-77126330D01*
X76676285Y-77130034D01*
X76759270Y-77158144D01*
X76836016Y-77201331D01*
X76905151Y-77258457D01*
X76965304Y-77328386D01*
X77015102Y-77409981D01*
X77015781Y-77411323D01*
X77023586Y-77426658D01*
X77030527Y-77440633D01*
X77036636Y-77454276D01*
X77041948Y-77468614D01*
X77046498Y-77484676D01*
X77050319Y-77503490D01*
X77053447Y-77526083D01*
X77055914Y-77553484D01*
X77057757Y-77586721D01*
X77059008Y-77626821D01*
X77059703Y-77674813D01*
X77059876Y-77731725D01*
X77059560Y-77798584D01*
X77058791Y-77876418D01*
X77057602Y-77966257D01*
X77056028Y-78069127D01*
X77054104Y-78186056D01*
X77051862Y-78318074D01*
X77049896Y-78433419D01*
X77046078Y-78654885D01*
X77042434Y-78859791D01*
X77038956Y-79048503D01*
X77035634Y-79221388D01*
X77032459Y-79378812D01*
X77029424Y-79521143D01*
X77026518Y-79648745D01*
X77023734Y-79761987D01*
X77021062Y-79861234D01*
X77018494Y-79946854D01*
X77016020Y-80019212D01*
X77013633Y-80078674D01*
X77011322Y-80125609D01*
X77009080Y-80160381D01*
X77008037Y-80172739D01*
X76992627Y-80278914D01*
X76966283Y-80392942D01*
X76930379Y-80511059D01*
X76886292Y-80629500D01*
X76835396Y-80744498D01*
X76779067Y-80852288D01*
X76731377Y-80930253D01*
X76625163Y-81075976D01*
X76506074Y-81211008D01*
X76374884Y-81334675D01*
X76232366Y-81446298D01*
X76079293Y-81545203D01*
X75947184Y-81615976D01*
X75801255Y-81681105D01*
X75655088Y-81733232D01*
X75505471Y-81773172D01*
X75349196Y-81801741D01*
X75183052Y-81819756D01*
X75132612Y-81823121D01*
X75084053Y-81825819D01*
X75040496Y-81828014D01*
X75005143Y-81829561D01*
X74981196Y-81830317D01*
X74972849Y-81830292D01*
X74958324Y-81829378D01*
X74930655Y-81827676D01*
X74893598Y-81825416D01*
X74850907Y-81822828D01*
X74843491Y-81822380D01*
X74644879Y-81803182D01*
X74454070Y-81770146D01*
X74271822Y-81723460D01*
X74098888Y-81663312D01*
X73962277Y-81602962D01*
X73826520Y-81531126D01*
X73703104Y-81453587D01*
X73587638Y-81367222D01*
X73475734Y-81268902D01*
X73427826Y-81222379D01*
X73303723Y-81087204D01*
X73193954Y-80943808D01*
X73098880Y-80792858D01*
X73018860Y-80635018D01*
X72954254Y-80470955D01*
X72905424Y-80301332D01*
X72889542Y-80227754D01*
X72882385Y-80189943D01*
X72876870Y-80157060D01*
X72872778Y-80125974D01*
X72869895Y-80093558D01*
X72868004Y-80056681D01*
X72866887Y-80012216D01*
X72866329Y-79957033D01*
X72866115Y-79889200D01*
X72865999Y-79855835D01*
X72865839Y-79826179D01*
X72865751Y-79799239D01*
X72865852Y-79774022D01*
X72866256Y-79749534D01*
X72867080Y-79724783D01*
X72868440Y-79698775D01*
X72870452Y-79670518D01*
X72873232Y-79639018D01*
X72876895Y-79603282D01*
X72881558Y-79562317D01*
X72887337Y-79515129D01*
X72894347Y-79460727D01*
X72902705Y-79398115D01*
X72912526Y-79326303D01*
X72923927Y-79244295D01*
X72937023Y-79151099D01*
X72951931Y-79045723D01*
X72968765Y-78927172D01*
X72987643Y-78794454D01*
X73008680Y-78646576D01*
X73022739Y-78547681D01*
X73047316Y-78374705D01*
X73069644Y-78217653D01*
X73089871Y-78075689D01*
X73108144Y-77947979D01*
X73124610Y-77833689D01*
X73139417Y-77731984D01*
X73152714Y-77642031D01*
X73164646Y-77562994D01*
X73175363Y-77494040D01*
X73185011Y-77434335D01*
X73193739Y-77383043D01*
X73201693Y-77339331D01*
X73209021Y-77302363D01*
X73215871Y-77271307D01*
X73222391Y-77245328D01*
X73228727Y-77223590D01*
X73235028Y-77205261D01*
X73241441Y-77189505D01*
X73248114Y-77175488D01*
X73255195Y-77162377D01*
X73262830Y-77149336D01*
X73271168Y-77135531D01*
X73273086Y-77132349D01*
X73327345Y-77057405D01*
X73392232Y-76993773D01*
X73465805Y-76942504D01*
X73546123Y-76904647D01*
X73631244Y-76881255D01*
X73719227Y-76873377D01*
X73749755Y-76874440D01*
G36*
X82868574Y-78570196D02*
X82919953Y-78573991D01*
X82958487Y-78580386D01*
X83039644Y-78608338D01*
X83110747Y-78649567D01*
X83172035Y-78704311D01*
X83223751Y-78772810D01*
X83266134Y-78855302D01*
X83284825Y-78904574D01*
X83292115Y-78928571D01*
X83300525Y-78961180D01*
X83310165Y-79003014D01*
X83321148Y-79054682D01*
X83333583Y-79116798D01*
X83347582Y-79189972D01*
X83363256Y-79274815D01*
X83380715Y-79371940D01*
X83400071Y-79481958D01*
X83421434Y-79605479D01*
X83444916Y-79743117D01*
X83470627Y-79895481D01*
X83498679Y-80063184D01*
X83529181Y-80246837D01*
X83537928Y-80299697D01*
X83557406Y-80417687D01*
X83574209Y-80520322D01*
X83588440Y-80608946D01*
X83600205Y-80684900D01*
X83609610Y-80749527D01*
X83616761Y-80804171D01*
X83621761Y-80850174D01*
X83624718Y-80888879D01*
X83625735Y-80921628D01*
X83624919Y-80949764D01*
X83622375Y-80974631D01*
X83618208Y-80997570D01*
X83612524Y-81019925D01*
X83605427Y-81043038D01*
X83598003Y-81065352D01*
X83560809Y-81150174D01*
X83510118Y-81225424D01*
X83446730Y-81290600D01*
X83371441Y-81345198D01*
X83285050Y-81388715D01*
X83188354Y-81420648D01*
X83082151Y-81440494D01*
X82992343Y-81447287D01*
X82919846Y-81447586D01*
X82863380Y-81443573D01*
X82835762Y-81438794D01*
X82778815Y-81423081D01*
X82722418Y-81402934D01*
X82672039Y-81380526D01*
X82634016Y-81358632D01*
X82586534Y-81319559D01*
X82540002Y-81269961D01*
X82499442Y-81215746D01*
X82472758Y-81169068D01*
X82466514Y-81156080D01*
X82460892Y-81144286D01*
X82455731Y-81132757D01*
X82450873Y-81120564D01*
X82446158Y-81106775D01*
X82441427Y-81090461D01*
X82436521Y-81070692D01*
X82431280Y-81046538D01*
X82425544Y-81017070D01*
X82419156Y-80981357D01*
X82411954Y-80938469D01*
X82403780Y-80887478D01*
X82394475Y-80827451D01*
X82383880Y-80757461D01*
X82371834Y-80676576D01*
X82358178Y-80583868D01*
X82342754Y-80478405D01*
X82325402Y-80359259D01*
X82305963Y-80225499D01*
X82284277Y-80076195D01*
X82277399Y-80028854D01*
X82257769Y-79893683D01*
X82240442Y-79774134D01*
X82225274Y-79669081D01*
X82212122Y-79577395D01*
X82200840Y-79497949D01*
X82191284Y-79429616D01*
X82183312Y-79371269D01*
X82176778Y-79321780D01*
X82171539Y-79280021D01*
X82167451Y-79244865D01*
X82164369Y-79215186D01*
X82162150Y-79189854D01*
X82160649Y-79167744D01*
X82159723Y-79147727D01*
X82159227Y-79128676D01*
X82159017Y-79109464D01*
X82158983Y-79102063D01*
X82162623Y-79024601D01*
X82175002Y-78957557D01*
X82197420Y-78896147D01*
X82231174Y-78835585D01*
X82231351Y-78835311D01*
X82289471Y-78760811D01*
X82360174Y-78697322D01*
X82442831Y-78645277D01*
X82536809Y-78605111D01*
X82590310Y-78588965D01*
X82633456Y-78580536D01*
X82687462Y-78574337D01*
X82747721Y-78570476D01*
X82809627Y-78569060D01*
X82868574Y-78570196D01*
X82868574Y-78570196D01*
G37*
X82868574Y-78570196D02*
X82919953Y-78573991D01*
X82958487Y-78580386D01*
X83039644Y-78608338D01*
X83110747Y-78649567D01*
X83172035Y-78704311D01*
X83223751Y-78772810D01*
X83266134Y-78855302D01*
X83284825Y-78904574D01*
X83292115Y-78928571D01*
X83300525Y-78961180D01*
X83310165Y-79003014D01*
X83321148Y-79054682D01*
X83333583Y-79116798D01*
X83347582Y-79189972D01*
X83363256Y-79274815D01*
X83380715Y-79371940D01*
X83400071Y-79481958D01*
X83421434Y-79605479D01*
X83444916Y-79743117D01*
X83470627Y-79895481D01*
X83498679Y-80063184D01*
X83529181Y-80246837D01*
X83537928Y-80299697D01*
X83557406Y-80417687D01*
X83574209Y-80520322D01*
X83588440Y-80608946D01*
X83600205Y-80684900D01*
X83609610Y-80749527D01*
X83616761Y-80804171D01*
X83621761Y-80850174D01*
X83624718Y-80888879D01*
X83625735Y-80921628D01*
X83624919Y-80949764D01*
X83622375Y-80974631D01*
X83618208Y-80997570D01*
X83612524Y-81019925D01*
X83605427Y-81043038D01*
X83598003Y-81065352D01*
X83560809Y-81150174D01*
X83510118Y-81225424D01*
X83446730Y-81290600D01*
X83371441Y-81345198D01*
X83285050Y-81388715D01*
X83188354Y-81420648D01*
X83082151Y-81440494D01*
X82992343Y-81447287D01*
X82919846Y-81447586D01*
X82863380Y-81443573D01*
X82835762Y-81438794D01*
X82778815Y-81423081D01*
X82722418Y-81402934D01*
X82672039Y-81380526D01*
X82634016Y-81358632D01*
X82586534Y-81319559D01*
X82540002Y-81269961D01*
X82499442Y-81215746D01*
X82472758Y-81169068D01*
X82466514Y-81156080D01*
X82460892Y-81144286D01*
X82455731Y-81132757D01*
X82450873Y-81120564D01*
X82446158Y-81106775D01*
X82441427Y-81090461D01*
X82436521Y-81070692D01*
X82431280Y-81046538D01*
X82425544Y-81017070D01*
X82419156Y-80981357D01*
X82411954Y-80938469D01*
X82403780Y-80887478D01*
X82394475Y-80827451D01*
X82383880Y-80757461D01*
X82371834Y-80676576D01*
X82358178Y-80583868D01*
X82342754Y-80478405D01*
X82325402Y-80359259D01*
X82305963Y-80225499D01*
X82284277Y-80076195D01*
X82277399Y-80028854D01*
X82257769Y-79893683D01*
X82240442Y-79774134D01*
X82225274Y-79669081D01*
X82212122Y-79577395D01*
X82200840Y-79497949D01*
X82191284Y-79429616D01*
X82183312Y-79371269D01*
X82176778Y-79321780D01*
X82171539Y-79280021D01*
X82167451Y-79244865D01*
X82164369Y-79215186D01*
X82162150Y-79189854D01*
X82160649Y-79167744D01*
X82159723Y-79147727D01*
X82159227Y-79128676D01*
X82159017Y-79109464D01*
X82158983Y-79102063D01*
X82162623Y-79024601D01*
X82175002Y-78957557D01*
X82197420Y-78896147D01*
X82231174Y-78835585D01*
X82231351Y-78835311D01*
X82289471Y-78760811D01*
X82360174Y-78697322D01*
X82442831Y-78645277D01*
X82536809Y-78605111D01*
X82590310Y-78588965D01*
X82633456Y-78580536D01*
X82687462Y-78574337D01*
X82747721Y-78570476D01*
X82809627Y-78569060D01*
X82868574Y-78570196D01*
G36*
X69356924Y-76096311D02*
X69365281Y-76097850D01*
X69458741Y-76120224D01*
X69539335Y-76150102D01*
X69610038Y-76189030D01*
X69673830Y-76238555D01*
X69715324Y-76279661D01*
X69769122Y-76348046D01*
X69809743Y-76423683D01*
X69838942Y-76509863D01*
X69839674Y-76512702D01*
X69843781Y-76528213D01*
X69847559Y-76542217D01*
X69850876Y-76555498D01*
X69853599Y-76568840D01*
X69855595Y-76583027D01*
X69856730Y-76598843D01*
X69856873Y-76617073D01*
X69855890Y-76638501D01*
X69853648Y-76663910D01*
X69850015Y-76694085D01*
X69844857Y-76729810D01*
X69838042Y-76771870D01*
X69829436Y-76821047D01*
X69818908Y-76878127D01*
X69806323Y-76943894D01*
X69791549Y-77019131D01*
X69774454Y-77104624D01*
X69754904Y-77201155D01*
X69732766Y-77309509D01*
X69707908Y-77430471D01*
X69680197Y-77564824D01*
X69649499Y-77713352D01*
X69615682Y-77876841D01*
X69578613Y-78056073D01*
X69575842Y-78069474D01*
X69545752Y-78215403D01*
X69517300Y-78354154D01*
X69490653Y-78484884D01*
X69465978Y-78606751D01*
X69443442Y-78718914D01*
X69423210Y-78820530D01*
X69405450Y-78910758D01*
X69390328Y-78988756D01*
X69378011Y-79053682D01*
X69368665Y-79104695D01*
X69362457Y-79140952D01*
X69359553Y-79161612D01*
X69359414Y-79163283D01*
X69360981Y-79263358D01*
X69378499Y-79363616D01*
X69411108Y-79462261D01*
X69457948Y-79557497D01*
X69518158Y-79647527D01*
X69590880Y-79730555D01*
X69661349Y-79793850D01*
X69761701Y-79863792D01*
X69869875Y-79918833D01*
X69985386Y-79958823D01*
X70107745Y-79983608D01*
X70236466Y-79993038D01*
X70296575Y-79992221D01*
X70421482Y-79979525D01*
X70539651Y-79951942D01*
X70650201Y-79910022D01*
X70752254Y-79854314D01*
X70844929Y-79785367D01*
X70927348Y-79703732D01*
X70998631Y-79609959D01*
X71049601Y-79521533D01*
X71057616Y-79505522D01*
X71065021Y-79490254D01*
X71071993Y-79474883D01*
X71078705Y-79458567D01*
X71085333Y-79440460D01*
X71092052Y-79419718D01*
X71099037Y-79395497D01*
X71106464Y-79366952D01*
X71114507Y-79333239D01*
X71123342Y-79293514D01*
X71133144Y-79246932D01*
X71144087Y-79192649D01*
X71156348Y-79129820D01*
X71170101Y-79057602D01*
X71185522Y-78975150D01*
X71202785Y-78881619D01*
X71222066Y-78776165D01*
X71243540Y-78657944D01*
X71267382Y-78526112D01*
X71293767Y-78379824D01*
X71322871Y-78218235D01*
X71342033Y-78111793D01*
X71371138Y-77950159D01*
X71397438Y-77804306D01*
X71421121Y-77673351D01*
X71442378Y-77556416D01*
X71461399Y-77452619D01*
X71478373Y-77361079D01*
X71493490Y-77280917D01*
X71506940Y-77211251D01*
X71518913Y-77151202D01*
X71529598Y-77099887D01*
X71539185Y-77056428D01*
X71547864Y-77019942D01*
X71555824Y-76989551D01*
X71563256Y-76964372D01*
X71570349Y-76943526D01*
X71577292Y-76926132D01*
X71584277Y-76911309D01*
X71591491Y-76898177D01*
X71599126Y-76885856D01*
X71607370Y-76873464D01*
X71609571Y-76870219D01*
X71671352Y-76793599D01*
X71743582Y-76730297D01*
X71826244Y-76680326D01*
X71889175Y-76653690D01*
X71918220Y-76643979D01*
X71944173Y-76637553D01*
X71971933Y-76633763D01*
X72006396Y-76631963D01*
X72052463Y-76631506D01*
X72057054Y-76631508D01*
X72160115Y-76636828D01*
X72251573Y-76653049D01*
X72333349Y-76680886D01*
X72407359Y-76721053D01*
X72475524Y-76774266D01*
X72498195Y-76795944D01*
X72536836Y-76837371D01*
X72566168Y-76875992D01*
X72590990Y-76918356D01*
X72597806Y-76931820D01*
X72623150Y-76991063D01*
X72641802Y-77050927D01*
X72652744Y-77107115D01*
X72654960Y-77155328D01*
X72653703Y-77168074D01*
X72651150Y-77185149D01*
X72646192Y-77217664D01*
X72639031Y-77264334D01*
X72629865Y-77323875D01*
X72618893Y-77395000D01*
X72606316Y-77476424D01*
X72592332Y-77566862D01*
X72577141Y-77665027D01*
X72560942Y-77769636D01*
X72543935Y-77879401D01*
X72526320Y-77993038D01*
X72508295Y-78109261D01*
X72490060Y-78226785D01*
X72471815Y-78344324D01*
X72453760Y-78460593D01*
X72436092Y-78574306D01*
X72419013Y-78684178D01*
X72402721Y-78788924D01*
X72387416Y-78887257D01*
X72373298Y-78977893D01*
X72360565Y-79059546D01*
X72349418Y-79130930D01*
X72340055Y-79190761D01*
X72332676Y-79237751D01*
X72327481Y-79270618D01*
X72327366Y-79271340D01*
X72309395Y-79382959D01*
X72293291Y-79479639D01*
X72278616Y-79563211D01*
X72264932Y-79635506D01*
X72251800Y-79698354D01*
X72238781Y-79753588D01*
X72225437Y-79803036D01*
X72211329Y-79848531D01*
X72196018Y-79891903D01*
X72179067Y-79934984D01*
X72160035Y-79979603D01*
X72154920Y-79991171D01*
X72073020Y-80155748D01*
X71978898Y-80308637D01*
X71872486Y-80449907D01*
X71753717Y-80579630D01*
X71622523Y-80697874D01*
X71478836Y-80804708D01*
X71322590Y-80900204D01*
X71223366Y-80951803D01*
X71139340Y-80991508D01*
X71064297Y-81023714D01*
X70993154Y-81050343D01*
X70920827Y-81073315D01*
X70852163Y-81092030D01*
X70779709Y-81109643D01*
X70714078Y-81123298D01*
X70651022Y-81133518D01*
X70586294Y-81140822D01*
X70515646Y-81145735D01*
X70434832Y-81148777D01*
X70381213Y-81149896D01*
X70323391Y-81150679D01*
X70269967Y-81151093D01*
X70223692Y-81151140D01*
X70187319Y-81150824D01*
X70163598Y-81150149D01*
X70156921Y-81149623D01*
X70137307Y-81147102D01*
X70106215Y-81143332D01*
X70068991Y-81138958D01*
X70051123Y-81136902D01*
X70009004Y-81131337D01*
X69957529Y-81123418D01*
X69903901Y-81114302D01*
X69864918Y-81107045D01*
X69672505Y-81061653D01*
X69489573Y-81002631D01*
X69316449Y-80930221D01*
X69153461Y-80844666D01*
X69000936Y-80746210D01*
X68859201Y-80635094D01*
X68728585Y-80511562D01*
X68609414Y-80375856D01*
X68502015Y-80228219D01*
X68406717Y-80068893D01*
X68370715Y-79999230D01*
X68298410Y-79834634D01*
X68242619Y-79667044D01*
X68203415Y-79496939D01*
X68180874Y-79324801D01*
X68175071Y-79151107D01*
X68186080Y-78976338D01*
X68197747Y-78889740D01*
X68203012Y-78857542D01*
X68208955Y-78823355D01*
X68215791Y-78786211D01*
X68223731Y-78745142D01*
X68232988Y-78699178D01*
X68243776Y-78647351D01*
X68256307Y-78588694D01*
X68270794Y-78522237D01*
X68287449Y-78447012D01*
X68306486Y-78362051D01*
X68328118Y-78266385D01*
X68352556Y-78159045D01*
X68380015Y-78039064D01*
X68410706Y-77905473D01*
X68444843Y-77757303D01*
X68481219Y-77599730D01*
X68519158Y-77435489D01*
X68553499Y-77286886D01*
X68584471Y-77153073D01*
X68612307Y-77033201D01*
X68637238Y-76926419D01*
X68659495Y-76831878D01*
X68679309Y-76748729D01*
X68696912Y-76676122D01*
X68712535Y-76613208D01*
X68726410Y-76559137D01*
X68738767Y-76513060D01*
X68749839Y-76474128D01*
X68759856Y-76441490D01*
X68769050Y-76414297D01*
X68777652Y-76391701D01*
X68785893Y-76372850D01*
X68794005Y-76356897D01*
X68802220Y-76342991D01*
X68810767Y-76330283D01*
X68819880Y-76317923D01*
X68829788Y-76305063D01*
X68835950Y-76297093D01*
X68889528Y-76235858D01*
X68947630Y-76187199D01*
X69015510Y-76146781D01*
X69022311Y-76143383D01*
X69104527Y-76109540D01*
X69185150Y-76090752D01*
X69268006Y-76086511D01*
X69356924Y-76096311D01*
X69356924Y-76096311D01*
G37*
X69356924Y-76096311D02*
X69365281Y-76097850D01*
X69458741Y-76120224D01*
X69539335Y-76150102D01*
X69610038Y-76189030D01*
X69673830Y-76238555D01*
X69715324Y-76279661D01*
X69769122Y-76348046D01*
X69809743Y-76423683D01*
X69838942Y-76509863D01*
X69839674Y-76512702D01*
X69843781Y-76528213D01*
X69847559Y-76542217D01*
X69850876Y-76555498D01*
X69853599Y-76568840D01*
X69855595Y-76583027D01*
X69856730Y-76598843D01*
X69856873Y-76617073D01*
X69855890Y-76638501D01*
X69853648Y-76663910D01*
X69850015Y-76694085D01*
X69844857Y-76729810D01*
X69838042Y-76771870D01*
X69829436Y-76821047D01*
X69818908Y-76878127D01*
X69806323Y-76943894D01*
X69791549Y-77019131D01*
X69774454Y-77104624D01*
X69754904Y-77201155D01*
X69732766Y-77309509D01*
X69707908Y-77430471D01*
X69680197Y-77564824D01*
X69649499Y-77713352D01*
X69615682Y-77876841D01*
X69578613Y-78056073D01*
X69575842Y-78069474D01*
X69545752Y-78215403D01*
X69517300Y-78354154D01*
X69490653Y-78484884D01*
X69465978Y-78606751D01*
X69443442Y-78718914D01*
X69423210Y-78820530D01*
X69405450Y-78910758D01*
X69390328Y-78988756D01*
X69378011Y-79053682D01*
X69368665Y-79104695D01*
X69362457Y-79140952D01*
X69359553Y-79161612D01*
X69359414Y-79163283D01*
X69360981Y-79263358D01*
X69378499Y-79363616D01*
X69411108Y-79462261D01*
X69457948Y-79557497D01*
X69518158Y-79647527D01*
X69590880Y-79730555D01*
X69661349Y-79793850D01*
X69761701Y-79863792D01*
X69869875Y-79918833D01*
X69985386Y-79958823D01*
X70107745Y-79983608D01*
X70236466Y-79993038D01*
X70296575Y-79992221D01*
X70421482Y-79979525D01*
X70539651Y-79951942D01*
X70650201Y-79910022D01*
X70752254Y-79854314D01*
X70844929Y-79785367D01*
X70927348Y-79703732D01*
X70998631Y-79609959D01*
X71049601Y-79521533D01*
X71057616Y-79505522D01*
X71065021Y-79490254D01*
X71071993Y-79474883D01*
X71078705Y-79458567D01*
X71085333Y-79440460D01*
X71092052Y-79419718D01*
X71099037Y-79395497D01*
X71106464Y-79366952D01*
X71114507Y-79333239D01*
X71123342Y-79293514D01*
X71133144Y-79246932D01*
X71144087Y-79192649D01*
X71156348Y-79129820D01*
X71170101Y-79057602D01*
X71185522Y-78975150D01*
X71202785Y-78881619D01*
X71222066Y-78776165D01*
X71243540Y-78657944D01*
X71267382Y-78526112D01*
X71293767Y-78379824D01*
X71322871Y-78218235D01*
X71342033Y-78111793D01*
X71371138Y-77950159D01*
X71397438Y-77804306D01*
X71421121Y-77673351D01*
X71442378Y-77556416D01*
X71461399Y-77452619D01*
X71478373Y-77361079D01*
X71493490Y-77280917D01*
X71506940Y-77211251D01*
X71518913Y-77151202D01*
X71529598Y-77099887D01*
X71539185Y-77056428D01*
X71547864Y-77019942D01*
X71555824Y-76989551D01*
X71563256Y-76964372D01*
X71570349Y-76943526D01*
X71577292Y-76926132D01*
X71584277Y-76911309D01*
X71591491Y-76898177D01*
X71599126Y-76885856D01*
X71607370Y-76873464D01*
X71609571Y-76870219D01*
X71671352Y-76793599D01*
X71743582Y-76730297D01*
X71826244Y-76680326D01*
X71889175Y-76653690D01*
X71918220Y-76643979D01*
X71944173Y-76637553D01*
X71971933Y-76633763D01*
X72006396Y-76631963D01*
X72052463Y-76631506D01*
X72057054Y-76631508D01*
X72160115Y-76636828D01*
X72251573Y-76653049D01*
X72333349Y-76680886D01*
X72407359Y-76721053D01*
X72475524Y-76774266D01*
X72498195Y-76795944D01*
X72536836Y-76837371D01*
X72566168Y-76875992D01*
X72590990Y-76918356D01*
X72597806Y-76931820D01*
X72623150Y-76991063D01*
X72641802Y-77050927D01*
X72652744Y-77107115D01*
X72654960Y-77155328D01*
X72653703Y-77168074D01*
X72651150Y-77185149D01*
X72646192Y-77217664D01*
X72639031Y-77264334D01*
X72629865Y-77323875D01*
X72618893Y-77395000D01*
X72606316Y-77476424D01*
X72592332Y-77566862D01*
X72577141Y-77665027D01*
X72560942Y-77769636D01*
X72543935Y-77879401D01*
X72526320Y-77993038D01*
X72508295Y-78109261D01*
X72490060Y-78226785D01*
X72471815Y-78344324D01*
X72453760Y-78460593D01*
X72436092Y-78574306D01*
X72419013Y-78684178D01*
X72402721Y-78788924D01*
X72387416Y-78887257D01*
X72373298Y-78977893D01*
X72360565Y-79059546D01*
X72349418Y-79130930D01*
X72340055Y-79190761D01*
X72332676Y-79237751D01*
X72327481Y-79270618D01*
X72327366Y-79271340D01*
X72309395Y-79382959D01*
X72293291Y-79479639D01*
X72278616Y-79563211D01*
X72264932Y-79635506D01*
X72251800Y-79698354D01*
X72238781Y-79753588D01*
X72225437Y-79803036D01*
X72211329Y-79848531D01*
X72196018Y-79891903D01*
X72179067Y-79934984D01*
X72160035Y-79979603D01*
X72154920Y-79991171D01*
X72073020Y-80155748D01*
X71978898Y-80308637D01*
X71872486Y-80449907D01*
X71753717Y-80579630D01*
X71622523Y-80697874D01*
X71478836Y-80804708D01*
X71322590Y-80900204D01*
X71223366Y-80951803D01*
X71139340Y-80991508D01*
X71064297Y-81023714D01*
X70993154Y-81050343D01*
X70920827Y-81073315D01*
X70852163Y-81092030D01*
X70779709Y-81109643D01*
X70714078Y-81123298D01*
X70651022Y-81133518D01*
X70586294Y-81140822D01*
X70515646Y-81145735D01*
X70434832Y-81148777D01*
X70381213Y-81149896D01*
X70323391Y-81150679D01*
X70269967Y-81151093D01*
X70223692Y-81151140D01*
X70187319Y-81150824D01*
X70163598Y-81150149D01*
X70156921Y-81149623D01*
X70137307Y-81147102D01*
X70106215Y-81143332D01*
X70068991Y-81138958D01*
X70051123Y-81136902D01*
X70009004Y-81131337D01*
X69957529Y-81123418D01*
X69903901Y-81114302D01*
X69864918Y-81107045D01*
X69672505Y-81061653D01*
X69489573Y-81002631D01*
X69316449Y-80930221D01*
X69153461Y-80844666D01*
X69000936Y-80746210D01*
X68859201Y-80635094D01*
X68728585Y-80511562D01*
X68609414Y-80375856D01*
X68502015Y-80228219D01*
X68406717Y-80068893D01*
X68370715Y-79999230D01*
X68298410Y-79834634D01*
X68242619Y-79667044D01*
X68203415Y-79496939D01*
X68180874Y-79324801D01*
X68175071Y-79151107D01*
X68186080Y-78976338D01*
X68197747Y-78889740D01*
X68203012Y-78857542D01*
X68208955Y-78823355D01*
X68215791Y-78786211D01*
X68223731Y-78745142D01*
X68232988Y-78699178D01*
X68243776Y-78647351D01*
X68256307Y-78588694D01*
X68270794Y-78522237D01*
X68287449Y-78447012D01*
X68306486Y-78362051D01*
X68328118Y-78266385D01*
X68352556Y-78159045D01*
X68380015Y-78039064D01*
X68410706Y-77905473D01*
X68444843Y-77757303D01*
X68481219Y-77599730D01*
X68519158Y-77435489D01*
X68553499Y-77286886D01*
X68584471Y-77153073D01*
X68612307Y-77033201D01*
X68637238Y-76926419D01*
X68659495Y-76831878D01*
X68679309Y-76748729D01*
X68696912Y-76676122D01*
X68712535Y-76613208D01*
X68726410Y-76559137D01*
X68738767Y-76513060D01*
X68749839Y-76474128D01*
X68759856Y-76441490D01*
X68769050Y-76414297D01*
X68777652Y-76391701D01*
X68785893Y-76372850D01*
X68794005Y-76356897D01*
X68802220Y-76342991D01*
X68810767Y-76330283D01*
X68819880Y-76317923D01*
X68829788Y-76305063D01*
X68835950Y-76297093D01*
X68889528Y-76235858D01*
X68947630Y-76187199D01*
X69015510Y-76146781D01*
X69022311Y-76143383D01*
X69104527Y-76109540D01*
X69185150Y-76090752D01*
X69268006Y-76086511D01*
X69356924Y-76096311D01*
G36*
X86945760Y-75344691D02*
X87032478Y-75346517D01*
X87112920Y-75349953D01*
X87183278Y-75354997D01*
X87228497Y-75360018D01*
X87457156Y-75399156D01*
X87677891Y-75453253D01*
X87890709Y-75522312D01*
X88095614Y-75606334D01*
X88292612Y-75705323D01*
X88481708Y-75819280D01*
X88662907Y-75948210D01*
X88836214Y-76092113D01*
X88934399Y-76183683D01*
X89089764Y-76346284D01*
X89231598Y-76518499D01*
X89359522Y-76699589D01*
X89473162Y-76888813D01*
X89572142Y-77085433D01*
X89656085Y-77288706D01*
X89724615Y-77497894D01*
X89777357Y-77712257D01*
X89810969Y-77908661D01*
X89817607Y-77971696D01*
X89822442Y-78047514D01*
X89825471Y-78132065D01*
X89826692Y-78221301D01*
X89826101Y-78311173D01*
X89823696Y-78397631D01*
X89819474Y-78476627D01*
X89813433Y-78544112D01*
X89811417Y-78560377D01*
X89773991Y-78778219D01*
X89720795Y-78990024D01*
X89652004Y-79195445D01*
X89567789Y-79394136D01*
X89468325Y-79585750D01*
X89353783Y-79769941D01*
X89224338Y-79946362D01*
X89080162Y-80114668D01*
X88986022Y-80212241D01*
X88822986Y-80362119D01*
X88649286Y-80499136D01*
X88465743Y-80622866D01*
X88273177Y-80732884D01*
X88072411Y-80828764D01*
X87864263Y-80910081D01*
X87649556Y-80976409D01*
X87429110Y-81027324D01*
X87404587Y-81031957D01*
X87314987Y-81046476D01*
X87215674Y-81059037D01*
X87111194Y-81069298D01*
X87006092Y-81076914D01*
X86904913Y-81081542D01*
X86812203Y-81082839D01*
X86750290Y-81081389D01*
X86521299Y-81063555D01*
X86299892Y-81030712D01*
X86085658Y-80982770D01*
X85878183Y-80919640D01*
X85713469Y-80856754D01*
X85514136Y-80764633D01*
X85324930Y-80659407D01*
X85146319Y-80541661D01*
X84978772Y-80411983D01*
X84822760Y-80270958D01*
X84678749Y-80119173D01*
X84547211Y-79957214D01*
X84428613Y-79785668D01*
X84323424Y-79605120D01*
X84232115Y-79416157D01*
X84155153Y-79219365D01*
X84093008Y-79015332D01*
X84046148Y-78804642D01*
X84038945Y-78763509D01*
X84020820Y-78641401D01*
X84008669Y-78524579D01*
X84002082Y-78406935D01*
X84000650Y-78282359D01*
X84001730Y-78218385D01*
X84542195Y-78218385D01*
X84547358Y-78407966D01*
X84549684Y-78437651D01*
X84574730Y-78636636D01*
X84615156Y-78829545D01*
X84670597Y-79015757D01*
X84740686Y-79194651D01*
X84825059Y-79365606D01*
X84923350Y-79528001D01*
X85035194Y-79681215D01*
X85160227Y-79824627D01*
X85298082Y-79957617D01*
X85448395Y-80079563D01*
X85562048Y-80158818D01*
X85731495Y-80259606D01*
X85907958Y-80345163D01*
X86090749Y-80415330D01*
X86279180Y-80469948D01*
X86472564Y-80508860D01*
X86670211Y-80531906D01*
X86871433Y-80538928D01*
X87075543Y-80529768D01*
X87143330Y-80523176D01*
X87336001Y-80493702D01*
X87527994Y-80448182D01*
X87717026Y-80387422D01*
X87900815Y-80312229D01*
X88077078Y-80223408D01*
X88200512Y-80149900D01*
X88299745Y-80081678D01*
X88402342Y-80002149D01*
X88504392Y-79914807D01*
X88601981Y-79823145D01*
X88691201Y-79730658D01*
X88762417Y-79647981D01*
X88880718Y-79488017D01*
X88984022Y-79320241D01*
X89072241Y-79144852D01*
X89145291Y-78962050D01*
X89203085Y-78772035D01*
X89245537Y-78575004D01*
X89257229Y-78501130D01*
X89261863Y-78456305D01*
X89265176Y-78398284D01*
X89267194Y-78330744D01*
X89267945Y-78257363D01*
X89267456Y-78181816D01*
X89265753Y-78107783D01*
X89262864Y-78038941D01*
X89258816Y-77978966D01*
X89253636Y-77931537D01*
X89252997Y-77927237D01*
X89215442Y-77730659D01*
X89164404Y-77543242D01*
X89099308Y-77363198D01*
X89019579Y-77188738D01*
X89009549Y-77169150D01*
X88911129Y-76997233D01*
X88799237Y-76834978D01*
X88674743Y-76683050D01*
X88538515Y-76542115D01*
X88391420Y-76412839D01*
X88234328Y-76295888D01*
X88068106Y-76191928D01*
X87893624Y-76101624D01*
X87711749Y-76025642D01*
X87523350Y-75964648D01*
X87397774Y-75933348D01*
X87232785Y-75904139D01*
X87060091Y-75886988D01*
X86883949Y-75881975D01*
X86708615Y-75889181D01*
X86538346Y-75908686D01*
X86492580Y-75916287D01*
X86312895Y-75956177D01*
X86134438Y-76011207D01*
X85959566Y-76080282D01*
X85790639Y-76162307D01*
X85630013Y-76256189D01*
X85480048Y-76360832D01*
X85404539Y-76421252D01*
X85355448Y-76464524D01*
X85300302Y-76516506D01*
X85242396Y-76573813D01*
X85185023Y-76633059D01*
X85131479Y-76690859D01*
X85085055Y-76743826D01*
X85055908Y-76779608D01*
X84941360Y-76940006D01*
X84840416Y-77108507D01*
X84753464Y-77283837D01*
X84680894Y-77464723D01*
X84623093Y-77649894D01*
X84580451Y-77838076D01*
X84553355Y-78027997D01*
X84542195Y-78218385D01*
X84001730Y-78218385D01*
X84001860Y-78210689D01*
X84014338Y-77996987D01*
X84041070Y-77790278D01*
X84082535Y-77588634D01*
X84139211Y-77390126D01*
X84211580Y-77192826D01*
X84300119Y-76994807D01*
X84308526Y-76977638D01*
X84405248Y-76795255D01*
X84509510Y-76626064D01*
X84623304Y-76467263D01*
X84748619Y-76316051D01*
X84871288Y-76185752D01*
X85005752Y-76057959D01*
X85141958Y-75943677D01*
X85283526Y-75840289D01*
X85434077Y-75745173D01*
X85597234Y-75655712D01*
X85620367Y-75643954D01*
X85806180Y-75558036D01*
X85993972Y-75486919D01*
X86186459Y-75429775D01*
X86386356Y-75385773D01*
X86551390Y-75359748D01*
X86612335Y-75353506D01*
X86686054Y-75348881D01*
X86768738Y-75345871D01*
X86856577Y-75344475D01*
X86945760Y-75344691D01*
X86945760Y-75344691D01*
G37*
X86945760Y-75344691D02*
X87032478Y-75346517D01*
X87112920Y-75349953D01*
X87183278Y-75354997D01*
X87228497Y-75360018D01*
X87457156Y-75399156D01*
X87677891Y-75453253D01*
X87890709Y-75522312D01*
X88095614Y-75606334D01*
X88292612Y-75705323D01*
X88481708Y-75819280D01*
X88662907Y-75948210D01*
X88836214Y-76092113D01*
X88934399Y-76183683D01*
X89089764Y-76346284D01*
X89231598Y-76518499D01*
X89359522Y-76699589D01*
X89473162Y-76888813D01*
X89572142Y-77085433D01*
X89656085Y-77288706D01*
X89724615Y-77497894D01*
X89777357Y-77712257D01*
X89810969Y-77908661D01*
X89817607Y-77971696D01*
X89822442Y-78047514D01*
X89825471Y-78132065D01*
X89826692Y-78221301D01*
X89826101Y-78311173D01*
X89823696Y-78397631D01*
X89819474Y-78476627D01*
X89813433Y-78544112D01*
X89811417Y-78560377D01*
X89773991Y-78778219D01*
X89720795Y-78990024D01*
X89652004Y-79195445D01*
X89567789Y-79394136D01*
X89468325Y-79585750D01*
X89353783Y-79769941D01*
X89224338Y-79946362D01*
X89080162Y-80114668D01*
X88986022Y-80212241D01*
X88822986Y-80362119D01*
X88649286Y-80499136D01*
X88465743Y-80622866D01*
X88273177Y-80732884D01*
X88072411Y-80828764D01*
X87864263Y-80910081D01*
X87649556Y-80976409D01*
X87429110Y-81027324D01*
X87404587Y-81031957D01*
X87314987Y-81046476D01*
X87215674Y-81059037D01*
X87111194Y-81069298D01*
X87006092Y-81076914D01*
X86904913Y-81081542D01*
X86812203Y-81082839D01*
X86750290Y-81081389D01*
X86521299Y-81063555D01*
X86299892Y-81030712D01*
X86085658Y-80982770D01*
X85878183Y-80919640D01*
X85713469Y-80856754D01*
X85514136Y-80764633D01*
X85324930Y-80659407D01*
X85146319Y-80541661D01*
X84978772Y-80411983D01*
X84822760Y-80270958D01*
X84678749Y-80119173D01*
X84547211Y-79957214D01*
X84428613Y-79785668D01*
X84323424Y-79605120D01*
X84232115Y-79416157D01*
X84155153Y-79219365D01*
X84093008Y-79015332D01*
X84046148Y-78804642D01*
X84038945Y-78763509D01*
X84020820Y-78641401D01*
X84008669Y-78524579D01*
X84002082Y-78406935D01*
X84000650Y-78282359D01*
X84001730Y-78218385D01*
X84542195Y-78218385D01*
X84547358Y-78407966D01*
X84549684Y-78437651D01*
X84574730Y-78636636D01*
X84615156Y-78829545D01*
X84670597Y-79015757D01*
X84740686Y-79194651D01*
X84825059Y-79365606D01*
X84923350Y-79528001D01*
X85035194Y-79681215D01*
X85160227Y-79824627D01*
X85298082Y-79957617D01*
X85448395Y-80079563D01*
X85562048Y-80158818D01*
X85731495Y-80259606D01*
X85907958Y-80345163D01*
X86090749Y-80415330D01*
X86279180Y-80469948D01*
X86472564Y-80508860D01*
X86670211Y-80531906D01*
X86871433Y-80538928D01*
X87075543Y-80529768D01*
X87143330Y-80523176D01*
X87336001Y-80493702D01*
X87527994Y-80448182D01*
X87717026Y-80387422D01*
X87900815Y-80312229D01*
X88077078Y-80223408D01*
X88200512Y-80149900D01*
X88299745Y-80081678D01*
X88402342Y-80002149D01*
X88504392Y-79914807D01*
X88601981Y-79823145D01*
X88691201Y-79730658D01*
X88762417Y-79647981D01*
X88880718Y-79488017D01*
X88984022Y-79320241D01*
X89072241Y-79144852D01*
X89145291Y-78962050D01*
X89203085Y-78772035D01*
X89245537Y-78575004D01*
X89257229Y-78501130D01*
X89261863Y-78456305D01*
X89265176Y-78398284D01*
X89267194Y-78330744D01*
X89267945Y-78257363D01*
X89267456Y-78181816D01*
X89265753Y-78107783D01*
X89262864Y-78038941D01*
X89258816Y-77978966D01*
X89253636Y-77931537D01*
X89252997Y-77927237D01*
X89215442Y-77730659D01*
X89164404Y-77543242D01*
X89099308Y-77363198D01*
X89019579Y-77188738D01*
X89009549Y-77169150D01*
X88911129Y-76997233D01*
X88799237Y-76834978D01*
X88674743Y-76683050D01*
X88538515Y-76542115D01*
X88391420Y-76412839D01*
X88234328Y-76295888D01*
X88068106Y-76191928D01*
X87893624Y-76101624D01*
X87711749Y-76025642D01*
X87523350Y-75964648D01*
X87397774Y-75933348D01*
X87232785Y-75904139D01*
X87060091Y-75886988D01*
X86883949Y-75881975D01*
X86708615Y-75889181D01*
X86538346Y-75908686D01*
X86492580Y-75916287D01*
X86312895Y-75956177D01*
X86134438Y-76011207D01*
X85959566Y-76080282D01*
X85790639Y-76162307D01*
X85630013Y-76256189D01*
X85480048Y-76360832D01*
X85404539Y-76421252D01*
X85355448Y-76464524D01*
X85300302Y-76516506D01*
X85242396Y-76573813D01*
X85185023Y-76633059D01*
X85131479Y-76690859D01*
X85085055Y-76743826D01*
X85055908Y-76779608D01*
X84941360Y-76940006D01*
X84840416Y-77108507D01*
X84753464Y-77283837D01*
X84680894Y-77464723D01*
X84623093Y-77649894D01*
X84580451Y-77838076D01*
X84553355Y-78027997D01*
X84542195Y-78218385D01*
X84001730Y-78218385D01*
X84001860Y-78210689D01*
X84014338Y-77996987D01*
X84041070Y-77790278D01*
X84082535Y-77588634D01*
X84139211Y-77390126D01*
X84211580Y-77192826D01*
X84300119Y-76994807D01*
X84308526Y-76977638D01*
X84405248Y-76795255D01*
X84509510Y-76626064D01*
X84623304Y-76467263D01*
X84748619Y-76316051D01*
X84871288Y-76185752D01*
X85005752Y-76057959D01*
X85141958Y-75943677D01*
X85283526Y-75840289D01*
X85434077Y-75745173D01*
X85597234Y-75655712D01*
X85620367Y-75643954D01*
X85806180Y-75558036D01*
X85993972Y-75486919D01*
X86186459Y-75429775D01*
X86386356Y-75385773D01*
X86551390Y-75359748D01*
X86612335Y-75353506D01*
X86686054Y-75348881D01*
X86768738Y-75345871D01*
X86856577Y-75344475D01*
X86945760Y-75344691D01*
G36*
X67263199Y-75628904D02*
X67368275Y-75633706D01*
X67468613Y-75642489D01*
X67558953Y-75655108D01*
X67562753Y-75655773D01*
X67657257Y-75674014D01*
X67737239Y-75693023D01*
X67805105Y-75713651D01*
X67863261Y-75736745D01*
X67914112Y-75763157D01*
X67960064Y-75793734D01*
X67965784Y-75798044D01*
X68023992Y-75852139D01*
X68075120Y-75918564D01*
X68117311Y-75993557D01*
X68148705Y-76073359D01*
X68167447Y-76154211D01*
X68172085Y-76215554D01*
X68165615Y-76312381D01*
X68147100Y-76405810D01*
X68117573Y-76493846D01*
X68078064Y-76574494D01*
X68029606Y-76645760D01*
X67973229Y-76705650D01*
X67909965Y-76752167D01*
X67888611Y-76763815D01*
X67838312Y-76785956D01*
X67785618Y-76802499D01*
X67728246Y-76813643D01*
X67663915Y-76819587D01*
X67590340Y-76820531D01*
X67505241Y-76816672D01*
X67406335Y-76808211D01*
X67394022Y-76806957D01*
X67335875Y-76801350D01*
X67289911Y-76798053D01*
X67251557Y-76796971D01*
X67216240Y-76798009D01*
X67179387Y-76801073D01*
X67168076Y-76802292D01*
X67039289Y-76823904D01*
X66920082Y-76858723D01*
X66810939Y-76906448D01*
X66712349Y-76966778D01*
X66624797Y-77039412D01*
X66548770Y-77124049D01*
X66484754Y-77220388D01*
X66480869Y-77227321D01*
X66467779Y-77254822D01*
X66452376Y-77293116D01*
X66436786Y-77336661D01*
X66425711Y-77371206D01*
X66416669Y-77402202D01*
X66403709Y-77448132D01*
X66387215Y-77507557D01*
X66367574Y-77579040D01*
X66345171Y-77661145D01*
X66320394Y-77752432D01*
X66293628Y-77851465D01*
X66265258Y-77956806D01*
X66235671Y-78067017D01*
X66205254Y-78180661D01*
X66174391Y-78296300D01*
X66143469Y-78412496D01*
X66112875Y-78527813D01*
X66082993Y-78640812D01*
X66054210Y-78750056D01*
X66026913Y-78854107D01*
X66005605Y-78935712D01*
X65973238Y-79059708D01*
X65944679Y-79168477D01*
X65919585Y-79263204D01*
X65897613Y-79345071D01*
X65878420Y-79415263D01*
X65861662Y-79474963D01*
X65846997Y-79525356D01*
X65834081Y-79567625D01*
X65822572Y-79602955D01*
X65812127Y-79632529D01*
X65802402Y-79657531D01*
X65793055Y-79679145D01*
X65785748Y-79694532D01*
X65735433Y-79778904D01*
X65674386Y-79850498D01*
X65603337Y-79908778D01*
X65523013Y-79953213D01*
X65434143Y-79983267D01*
X65376352Y-79994270D01*
X65343034Y-79998475D01*
X65315058Y-80001246D01*
X65297629Y-80002084D01*
X65295945Y-80001984D01*
X65278980Y-80000426D01*
X65253449Y-79998293D01*
X65243659Y-79997513D01*
X65153980Y-79984997D01*
X65062332Y-79962279D01*
X64974696Y-79931172D01*
X64897051Y-79893485D01*
X64893571Y-79891479D01*
X64851584Y-79863495D01*
X64806209Y-79827347D01*
X64761680Y-79786940D01*
X64722228Y-79746177D01*
X64692087Y-79708961D01*
X64686248Y-79700271D01*
X64657863Y-79644316D01*
X64634717Y-79574977D01*
X64617777Y-79495251D01*
X64615624Y-79481154D01*
X64610749Y-79441625D01*
X64609660Y-79410127D01*
X64612610Y-79378633D01*
X64619853Y-79339115D01*
X64620151Y-79337661D01*
X64624683Y-79319411D01*
X64633789Y-79286125D01*
X64647120Y-79238965D01*
X64664330Y-79179090D01*
X64685071Y-79107662D01*
X64708996Y-79025842D01*
X64735757Y-78934789D01*
X64765006Y-78835666D01*
X64796397Y-78729634D01*
X64829582Y-78617851D01*
X64864213Y-78501481D01*
X64899943Y-78381683D01*
X64936424Y-78259619D01*
X64973310Y-78136449D01*
X65010252Y-78013334D01*
X65046903Y-77891434D01*
X65082916Y-77771912D01*
X65117943Y-77655927D01*
X65151637Y-77544640D01*
X65183650Y-77439213D01*
X65213635Y-77340806D01*
X65241244Y-77250579D01*
X65266130Y-77169695D01*
X65287946Y-77099312D01*
X65306344Y-77040594D01*
X65320976Y-76994699D01*
X65326537Y-76977638D01*
X65386311Y-76822098D01*
X65461759Y-76669805D01*
X65551675Y-76522693D01*
X65654858Y-76382694D01*
X65770102Y-76251741D01*
X65793562Y-76227740D01*
X65855084Y-76167290D01*
X65910373Y-76116447D01*
X65963768Y-76071599D01*
X66019609Y-76029133D01*
X66082235Y-75985437D01*
X66094275Y-75977354D01*
X66251134Y-75880654D01*
X66408291Y-75800239D01*
X66567295Y-75735514D01*
X66729695Y-75685884D01*
X66897040Y-75650751D01*
X66972155Y-75639794D01*
X67059879Y-75631805D01*
X67158647Y-75628222D01*
X67263199Y-75628904D01*
X67263199Y-75628904D01*
G37*
X67263199Y-75628904D02*
X67368275Y-75633706D01*
X67468613Y-75642489D01*
X67558953Y-75655108D01*
X67562753Y-75655773D01*
X67657257Y-75674014D01*
X67737239Y-75693023D01*
X67805105Y-75713651D01*
X67863261Y-75736745D01*
X67914112Y-75763157D01*
X67960064Y-75793734D01*
X67965784Y-75798044D01*
X68023992Y-75852139D01*
X68075120Y-75918564D01*
X68117311Y-75993557D01*
X68148705Y-76073359D01*
X68167447Y-76154211D01*
X68172085Y-76215554D01*
X68165615Y-76312381D01*
X68147100Y-76405810D01*
X68117573Y-76493846D01*
X68078064Y-76574494D01*
X68029606Y-76645760D01*
X67973229Y-76705650D01*
X67909965Y-76752167D01*
X67888611Y-76763815D01*
X67838312Y-76785956D01*
X67785618Y-76802499D01*
X67728246Y-76813643D01*
X67663915Y-76819587D01*
X67590340Y-76820531D01*
X67505241Y-76816672D01*
X67406335Y-76808211D01*
X67394022Y-76806957D01*
X67335875Y-76801350D01*
X67289911Y-76798053D01*
X67251557Y-76796971D01*
X67216240Y-76798009D01*
X67179387Y-76801073D01*
X67168076Y-76802292D01*
X67039289Y-76823904D01*
X66920082Y-76858723D01*
X66810939Y-76906448D01*
X66712349Y-76966778D01*
X66624797Y-77039412D01*
X66548770Y-77124049D01*
X66484754Y-77220388D01*
X66480869Y-77227321D01*
X66467779Y-77254822D01*
X66452376Y-77293116D01*
X66436786Y-77336661D01*
X66425711Y-77371206D01*
X66416669Y-77402202D01*
X66403709Y-77448132D01*
X66387215Y-77507557D01*
X66367574Y-77579040D01*
X66345171Y-77661145D01*
X66320394Y-77752432D01*
X66293628Y-77851465D01*
X66265258Y-77956806D01*
X66235671Y-78067017D01*
X66205254Y-78180661D01*
X66174391Y-78296300D01*
X66143469Y-78412496D01*
X66112875Y-78527813D01*
X66082993Y-78640812D01*
X66054210Y-78750056D01*
X66026913Y-78854107D01*
X66005605Y-78935712D01*
X65973238Y-79059708D01*
X65944679Y-79168477D01*
X65919585Y-79263204D01*
X65897613Y-79345071D01*
X65878420Y-79415263D01*
X65861662Y-79474963D01*
X65846997Y-79525356D01*
X65834081Y-79567625D01*
X65822572Y-79602955D01*
X65812127Y-79632529D01*
X65802402Y-79657531D01*
X65793055Y-79679145D01*
X65785748Y-79694532D01*
X65735433Y-79778904D01*
X65674386Y-79850498D01*
X65603337Y-79908778D01*
X65523013Y-79953213D01*
X65434143Y-79983267D01*
X65376352Y-79994270D01*
X65343034Y-79998475D01*
X65315058Y-80001246D01*
X65297629Y-80002084D01*
X65295945Y-80001984D01*
X65278980Y-80000426D01*
X65253449Y-79998293D01*
X65243659Y-79997513D01*
X65153980Y-79984997D01*
X65062332Y-79962279D01*
X64974696Y-79931172D01*
X64897051Y-79893485D01*
X64893571Y-79891479D01*
X64851584Y-79863495D01*
X64806209Y-79827347D01*
X64761680Y-79786940D01*
X64722228Y-79746177D01*
X64692087Y-79708961D01*
X64686248Y-79700271D01*
X64657863Y-79644316D01*
X64634717Y-79574977D01*
X64617777Y-79495251D01*
X64615624Y-79481154D01*
X64610749Y-79441625D01*
X64609660Y-79410127D01*
X64612610Y-79378633D01*
X64619853Y-79339115D01*
X64620151Y-79337661D01*
X64624683Y-79319411D01*
X64633789Y-79286125D01*
X64647120Y-79238965D01*
X64664330Y-79179090D01*
X64685071Y-79107662D01*
X64708996Y-79025842D01*
X64735757Y-78934789D01*
X64765006Y-78835666D01*
X64796397Y-78729634D01*
X64829582Y-78617851D01*
X64864213Y-78501481D01*
X64899943Y-78381683D01*
X64936424Y-78259619D01*
X64973310Y-78136449D01*
X65010252Y-78013334D01*
X65046903Y-77891434D01*
X65082916Y-77771912D01*
X65117943Y-77655927D01*
X65151637Y-77544640D01*
X65183650Y-77439213D01*
X65213635Y-77340806D01*
X65241244Y-77250579D01*
X65266130Y-77169695D01*
X65287946Y-77099312D01*
X65306344Y-77040594D01*
X65320976Y-76994699D01*
X65326537Y-76977638D01*
X65386311Y-76822098D01*
X65461759Y-76669805D01*
X65551675Y-76522693D01*
X65654858Y-76382694D01*
X65770102Y-76251741D01*
X65793562Y-76227740D01*
X65855084Y-76167290D01*
X65910373Y-76116447D01*
X65963768Y-76071599D01*
X66019609Y-76029133D01*
X66082235Y-75985437D01*
X66094275Y-75977354D01*
X66251134Y-75880654D01*
X66408291Y-75800239D01*
X66567295Y-75735514D01*
X66729695Y-75685884D01*
X66897040Y-75650751D01*
X66972155Y-75639794D01*
X67059879Y-75631805D01*
X67158647Y-75628222D01*
X67263199Y-75628904D01*
G36*
X82509265Y-76655877D02*
X82614095Y-76673481D01*
X82714647Y-76706972D01*
X82809615Y-76755870D01*
X82897693Y-76819694D01*
X82930343Y-76848953D01*
X83004773Y-76930625D01*
X83064972Y-77019698D01*
X83110880Y-77114588D01*
X83142439Y-77213710D01*
X83159590Y-77315480D01*
X83162276Y-77418314D01*
X83150437Y-77520626D01*
X83124015Y-77620832D01*
X83082950Y-77717347D01*
X83027186Y-77808587D01*
X82968482Y-77880487D01*
X82894150Y-77948757D01*
X82809056Y-78005895D01*
X82715866Y-78050947D01*
X82617246Y-78082956D01*
X82515862Y-78100968D01*
X82414379Y-78104025D01*
X82359187Y-78098945D01*
X82253170Y-78076041D01*
X82153778Y-78038274D01*
X82062188Y-77986808D01*
X81979579Y-77922806D01*
X81907127Y-77847432D01*
X81846009Y-77761851D01*
X81797403Y-77667226D01*
X81762487Y-77564721D01*
X81747696Y-77494459D01*
X81741930Y-77436574D01*
X81741009Y-77369982D01*
X81744599Y-77300923D01*
X81752365Y-77235641D01*
X81763975Y-77180377D01*
X81764632Y-77178053D01*
X81802460Y-77075583D01*
X81854433Y-76980535D01*
X81919191Y-76894509D01*
X81995374Y-76819110D01*
X82081625Y-76755939D01*
X82157176Y-76715185D01*
X82225711Y-76687292D01*
X82292388Y-76668734D01*
X82364559Y-76657688D01*
X82401462Y-76654638D01*
X82509265Y-76655877D01*
X82509265Y-76655877D01*
G37*
X82509265Y-76655877D02*
X82614095Y-76673481D01*
X82714647Y-76706972D01*
X82809615Y-76755870D01*
X82897693Y-76819694D01*
X82930343Y-76848953D01*
X83004773Y-76930625D01*
X83064972Y-77019698D01*
X83110880Y-77114588D01*
X83142439Y-77213710D01*
X83159590Y-77315480D01*
X83162276Y-77418314D01*
X83150437Y-77520626D01*
X83124015Y-77620832D01*
X83082950Y-77717347D01*
X83027186Y-77808587D01*
X82968482Y-77880487D01*
X82894150Y-77948757D01*
X82809056Y-78005895D01*
X82715866Y-78050947D01*
X82617246Y-78082956D01*
X82515862Y-78100968D01*
X82414379Y-78104025D01*
X82359187Y-78098945D01*
X82253170Y-78076041D01*
X82153778Y-78038274D01*
X82062188Y-77986808D01*
X81979579Y-77922806D01*
X81907127Y-77847432D01*
X81846009Y-77761851D01*
X81797403Y-77667226D01*
X81762487Y-77564721D01*
X81747696Y-77494459D01*
X81741930Y-77436574D01*
X81741009Y-77369982D01*
X81744599Y-77300923D01*
X81752365Y-77235641D01*
X81763975Y-77180377D01*
X81764632Y-77178053D01*
X81802460Y-77075583D01*
X81854433Y-76980535D01*
X81919191Y-76894509D01*
X81995374Y-76819110D01*
X82081625Y-76755939D01*
X82157176Y-76715185D01*
X82225711Y-76687292D01*
X82292388Y-76668734D01*
X82364559Y-76657688D01*
X82401462Y-76654638D01*
X82509265Y-76655877D01*
G36*
X87451404Y-76624513D02*
X87611944Y-76643094D01*
X87664385Y-76652699D01*
X87817292Y-76691726D01*
X87964288Y-76746515D01*
X88104848Y-76816779D01*
X88238446Y-76902233D01*
X88364558Y-77002590D01*
X88444466Y-77077885D01*
X88550682Y-77196445D01*
X88642576Y-77324004D01*
X88720163Y-77460595D01*
X88783460Y-77606248D01*
X88832484Y-77760993D01*
X88850565Y-77836718D01*
X88857157Y-77869481D01*
X88862084Y-77900286D01*
X88865585Y-77932511D01*
X88867900Y-77969532D01*
X88869269Y-78014728D01*
X88869931Y-78071475D01*
X88870088Y-78111793D01*
X88870009Y-78176966D01*
X88869304Y-78228698D01*
X88867741Y-78270472D01*
X88865085Y-78305769D01*
X88861102Y-78338071D01*
X88855559Y-78370862D01*
X88851175Y-78393261D01*
X88811700Y-78546272D01*
X88756976Y-78692797D01*
X88687731Y-78831954D01*
X88604689Y-78962858D01*
X88508577Y-79084628D01*
X88400120Y-79196380D01*
X88280045Y-79297230D01*
X88149077Y-79386296D01*
X88007941Y-79462694D01*
X87950966Y-79488578D01*
X87821195Y-79536637D01*
X87682286Y-79573625D01*
X87538278Y-79598950D01*
X87393214Y-79612016D01*
X87251136Y-79612230D01*
X87159419Y-79604864D01*
X87004187Y-79578658D01*
X86854592Y-79537320D01*
X86711588Y-79481617D01*
X86576128Y-79412317D01*
X86449166Y-79330188D01*
X86331657Y-79235997D01*
X86224553Y-79130513D01*
X86128808Y-79014502D01*
X86045376Y-78888733D01*
X85975210Y-78753974D01*
X85919265Y-78610991D01*
X85917305Y-78605015D01*
X85903462Y-78561675D01*
X85891244Y-78521904D01*
X85881806Y-78489571D01*
X85876302Y-78468545D01*
X85875716Y-78465727D01*
X85870701Y-78438788D01*
X85919042Y-78433809D01*
X86055471Y-78412248D01*
X86183103Y-78376751D01*
X86301438Y-78327639D01*
X86409979Y-78265233D01*
X86508225Y-78189853D01*
X86595679Y-78101820D01*
X86671841Y-78001454D01*
X86721278Y-77918231D01*
X86766568Y-77822750D01*
X86799078Y-77728917D01*
X86820163Y-77631645D01*
X86831182Y-77525848D01*
X86832348Y-77501973D01*
X86833979Y-77444109D01*
X86833426Y-77398035D01*
X86830440Y-77358722D01*
X86824771Y-77321145D01*
X86822926Y-77311536D01*
X86800163Y-77212728D01*
X86772810Y-77125723D01*
X86738826Y-77045593D01*
X86696169Y-76967407D01*
X86652632Y-76900337D01*
X86599306Y-76823036D01*
X86679393Y-76783543D01*
X86830034Y-76718102D01*
X86982456Y-76669492D01*
X87136759Y-76637699D01*
X87293042Y-76622710D01*
X87451404Y-76624513D01*
X87451404Y-76624513D01*
G37*
X87451404Y-76624513D02*
X87611944Y-76643094D01*
X87664385Y-76652699D01*
X87817292Y-76691726D01*
X87964288Y-76746515D01*
X88104848Y-76816779D01*
X88238446Y-76902233D01*
X88364558Y-77002590D01*
X88444466Y-77077885D01*
X88550682Y-77196445D01*
X88642576Y-77324004D01*
X88720163Y-77460595D01*
X88783460Y-77606248D01*
X88832484Y-77760993D01*
X88850565Y-77836718D01*
X88857157Y-77869481D01*
X88862084Y-77900286D01*
X88865585Y-77932511D01*
X88867900Y-77969532D01*
X88869269Y-78014728D01*
X88869931Y-78071475D01*
X88870088Y-78111793D01*
X88870009Y-78176966D01*
X88869304Y-78228698D01*
X88867741Y-78270472D01*
X88865085Y-78305769D01*
X88861102Y-78338071D01*
X88855559Y-78370862D01*
X88851175Y-78393261D01*
X88811700Y-78546272D01*
X88756976Y-78692797D01*
X88687731Y-78831954D01*
X88604689Y-78962858D01*
X88508577Y-79084628D01*
X88400120Y-79196380D01*
X88280045Y-79297230D01*
X88149077Y-79386296D01*
X88007941Y-79462694D01*
X87950966Y-79488578D01*
X87821195Y-79536637D01*
X87682286Y-79573625D01*
X87538278Y-79598950D01*
X87393214Y-79612016D01*
X87251136Y-79612230D01*
X87159419Y-79604864D01*
X87004187Y-79578658D01*
X86854592Y-79537320D01*
X86711588Y-79481617D01*
X86576128Y-79412317D01*
X86449166Y-79330188D01*
X86331657Y-79235997D01*
X86224553Y-79130513D01*
X86128808Y-79014502D01*
X86045376Y-78888733D01*
X85975210Y-78753974D01*
X85919265Y-78610991D01*
X85917305Y-78605015D01*
X85903462Y-78561675D01*
X85891244Y-78521904D01*
X85881806Y-78489571D01*
X85876302Y-78468545D01*
X85875716Y-78465727D01*
X85870701Y-78438788D01*
X85919042Y-78433809D01*
X86055471Y-78412248D01*
X86183103Y-78376751D01*
X86301438Y-78327639D01*
X86409979Y-78265233D01*
X86508225Y-78189853D01*
X86595679Y-78101820D01*
X86671841Y-78001454D01*
X86721278Y-77918231D01*
X86766568Y-77822750D01*
X86799078Y-77728917D01*
X86820163Y-77631645D01*
X86831182Y-77525848D01*
X86832348Y-77501973D01*
X86833979Y-77444109D01*
X86833426Y-77398035D01*
X86830440Y-77358722D01*
X86824771Y-77321145D01*
X86822926Y-77311536D01*
X86800163Y-77212728D01*
X86772810Y-77125723D01*
X86738826Y-77045593D01*
X86696169Y-76967407D01*
X86652632Y-76900337D01*
X86599306Y-76823036D01*
X86679393Y-76783543D01*
X86830034Y-76718102D01*
X86982456Y-76669492D01*
X87136759Y-76637699D01*
X87293042Y-76622710D01*
X87451404Y-76624513D01*
D12*
X84321907Y-51682436D02*
X84405774Y-51736900D01*
X84594226Y-51263100D02*
X84678093Y-51317564D01*
X69909923Y-51261492D02*
X69825118Y-51314484D01*
X70174882Y-51685516D02*
X70090077Y-51738508D01*
X83097510Y-46527822D02*
X83191480Y-46562024D01*
X83268520Y-46057976D02*
X83362490Y-46092178D01*
X73169080Y-41991272D02*
X73463568Y-41934030D01*
X73016432Y-41205970D02*
X73310920Y-41148728D01*
X75211979Y-41383406D02*
X75311599Y-41374691D01*
X75168401Y-40885309D02*
X75268021Y-40876594D01*
X83054523Y-47613729D02*
X83018686Y-47707087D01*
X83521314Y-47792913D02*
X83485477Y-47886271D01*
X61592022Y-48990000D02*
X61362208Y-48797164D01*
X61077792Y-49602836D02*
X60847978Y-49410000D01*
X80803298Y-41785278D02*
X80785074Y-41883604D01*
X81294926Y-41876396D02*
X81276702Y-41974722D01*
X84875721Y-42921854D02*
X84839071Y-43014896D01*
X85340929Y-43105104D02*
X85304279Y-43198146D01*
X82343001Y-44371459D02*
X82246408Y-44345578D01*
X82213592Y-44854422D02*
X82116999Y-44828541D01*
X84095721Y-44941854D02*
X84059071Y-45034896D01*
X84560929Y-45125104D02*
X84524279Y-45218146D01*
X71225278Y-43623695D02*
X71320908Y-43594458D01*
X71079092Y-43145542D02*
X71174722Y-43116305D01*
X70813503Y-42616378D02*
X71100394Y-42528666D01*
X70579606Y-41851334D02*
X70866497Y-41763622D01*
X79564142Y-41373404D02*
X79663594Y-41383857D01*
X79616406Y-40876143D02*
X79715858Y-40886596D01*
X74733071Y-49964932D02*
X74830885Y-49944141D01*
X74629115Y-49475859D02*
X74726929Y-49455068D01*
X64000000Y-62800000D02*
X64000000Y-62700000D01*
X63500000Y-62800000D02*
X63500000Y-62700000D01*
X62250000Y-62700000D02*
X62250000Y-62800000D01*
X62750000Y-62700000D02*
X62750000Y-62800000D01*
X67531699Y-45791506D02*
X67618301Y-45741506D01*
X67281699Y-45358494D02*
X67368301Y-45308494D01*
X68690337Y-43311658D02*
X68729410Y-43403708D01*
X69150590Y-43116292D02*
X69189663Y-43208342D01*
X77054371Y-41270835D02*
X77154355Y-41269089D01*
X77045645Y-40770911D02*
X77145629Y-40769165D01*
X69831699Y-50241506D02*
X69918301Y-50191506D01*
X69581699Y-49808494D02*
X69668301Y-49758494D01*
X81878541Y-46153001D02*
X81904422Y-46056408D01*
X81395578Y-46023592D02*
X81421459Y-45926999D01*
X70032532Y-47971410D02*
X69632532Y-47278590D01*
X67867468Y-49221410D02*
X67467468Y-48528590D01*
X67125962Y-48263878D02*
G75*
G03X67125962Y-48263878I-100000J0D01*
G01*
X64073700Y-58544697D02*
X64175384Y-58316311D01*
X64653624Y-55519184D02*
X65294056Y-55804323D01*
X65294056Y-55804323D02*
X65192811Y-56031722D01*
X64073992Y-58544630D02*
X63433560Y-58259492D01*
X66783013Y-43463782D02*
X65916987Y-43963782D01*
X67483013Y-44676218D02*
X66616987Y-45176218D01*
X73900000Y-42900000D02*
G75*
G03X73900000Y-42900000I-150000J0D01*
G01*
X74250000Y-42750000D02*
X74450000Y-42750000D01*
X74250000Y-42750000D02*
X74250000Y-42950000D01*
X74250000Y-42750000D02*
X74250000Y-42950000D01*
X80250000Y-42750000D02*
X80250000Y-42950000D01*
X80250000Y-42750000D02*
X80050000Y-42750000D01*
X80250000Y-48750000D02*
X80050000Y-48750000D01*
X80250000Y-48750000D02*
X80250000Y-48550000D01*
X74250000Y-48750000D02*
X74450000Y-48750000D01*
X74250000Y-48550000D02*
X74250000Y-48750000D01*
D13*
X72341785Y-49943283D02*
X71895990Y-49907689D01*
X72529088Y-50406875D02*
X72233136Y-50742154D01*
X81963084Y-50392053D02*
X82241083Y-50742362D01*
X82174393Y-49938899D02*
X82621440Y-49926685D01*
D12*
X61500000Y-52500000D02*
G75*
G03X61500000Y-52500000I-750000J0D01*
G01*
X61746542Y-54637616D02*
X61610383Y-54847284D01*
X61610383Y-54847284D02*
X58255700Y-52668728D01*
X58255700Y-52668728D02*
X58391860Y-52459060D01*
X59753458Y-50362384D02*
X59889617Y-50152716D01*
X59889617Y-50152716D02*
X63244300Y-52331272D01*
X63244300Y-52331272D02*
X63108140Y-52540940D01*
X59250000Y-57250000D02*
G75*
G03X59250000Y-57250000I-750000J0D01*
G01*
X60062620Y-59016555D02*
X59991616Y-59256260D01*
X59991616Y-59256260D02*
X56156338Y-58120199D01*
X56156338Y-58120199D02*
X56227341Y-57880494D01*
X56937380Y-55483445D02*
X57008384Y-55243740D01*
X57008384Y-55243740D02*
X60843662Y-56379801D01*
X60843662Y-56379801D02*
X60772659Y-56619506D01*
X64814559Y-47621620D02*
G75*
G03X64814559Y-47621620I-100001J0D01*
G01*
X82710331Y-43744371D02*
X82758394Y-43758153D01*
X83261606Y-41821847D02*
X83309669Y-41835629D01*
X82227209Y-42617553D02*
X82254773Y-42521427D01*
X83765227Y-43058573D02*
X83792791Y-42962447D01*
%LPC*%
D14*
X66750000Y-52250000D03*
D10*
G36*
X83554573Y-51303360D02*
X83935820Y-50716291D01*
X84522889Y-51097538D01*
X84141642Y-51684607D01*
X83554573Y-51303360D01*
X83554573Y-51303360D01*
G37*
G36*
X84477111Y-51902462D02*
X84858358Y-51315393D01*
X85445427Y-51696640D01*
X85064180Y-52283709D01*
X84477111Y-51902462D01*
X84477111Y-51902462D01*
G37*
G36*
X70577771Y-50726255D02*
X70948715Y-51319889D01*
X70355081Y-51690833D01*
X69984137Y-51097199D01*
X70577771Y-50726255D01*
X70577771Y-50726255D01*
G37*
G36*
X69644919Y-51309167D02*
X70015863Y-51902801D01*
X69422229Y-52273745D01*
X69051285Y-51680111D01*
X69644919Y-51309167D01*
X69644919Y-51309167D01*
G37*
G36*
X82264570Y-46331074D02*
X82503984Y-45673290D01*
X83161768Y-45912704D01*
X82922354Y-46570488D01*
X82264570Y-46331074D01*
X82264570Y-46331074D01*
G37*
G36*
X83298232Y-46707296D02*
X83537646Y-46049512D01*
X84195430Y-46288926D01*
X83956016Y-46946710D01*
X83298232Y-46707296D01*
X83298232Y-46707296D01*
G37*
G36*
X72255615Y-42270703D02*
X72064806Y-41289076D01*
X72850107Y-41136429D01*
X73040916Y-42118056D01*
X72255615Y-42270703D01*
X72255615Y-42270703D01*
G37*
G36*
X73629893Y-42003571D02*
X73439084Y-41021944D01*
X74224385Y-40869297D01*
X74415194Y-41850924D01*
X73629893Y-42003571D01*
X73629893Y-42003571D01*
G37*
G36*
X74373929Y-41557109D02*
X74312920Y-40859772D01*
X75010257Y-40798763D01*
X75071266Y-41496100D01*
X74373929Y-41557109D01*
X74373929Y-41557109D01*
G37*
G36*
X75469743Y-41461237D02*
X75408734Y-40763900D01*
X76106071Y-40702891D01*
X76167080Y-41400228D01*
X75469743Y-41461237D01*
X75469743Y-41461237D01*
G37*
G36*
X83265778Y-46784349D02*
X83919284Y-47035207D01*
X83668426Y-47688713D01*
X83014920Y-47437855D01*
X83265778Y-46784349D01*
X83265778Y-46784349D01*
G37*
G36*
X82871574Y-47811287D02*
X83525080Y-48062145D01*
X83274222Y-48715651D01*
X82620716Y-48464793D01*
X82871574Y-47811287D01*
X82871574Y-47811287D01*
G37*
G36*
X62384043Y-49524044D02*
X61741255Y-50290088D01*
X61128419Y-49775858D01*
X61771207Y-49009814D01*
X62384043Y-49524044D01*
X62384043Y-49524044D01*
G37*
G36*
X61311581Y-48624142D02*
X60668793Y-49390186D01*
X60055957Y-48875956D01*
X60698745Y-48109912D01*
X61311581Y-48624142D01*
X61311581Y-48624142D01*
G37*
G36*
X80859873Y-40931288D02*
X81548152Y-41058853D01*
X81420587Y-41747132D01*
X80732308Y-41619567D01*
X80859873Y-40931288D01*
X80859873Y-40931288D01*
G37*
G36*
X80659413Y-42012868D02*
X81347692Y-42140433D01*
X81220127Y-42828712D01*
X80531848Y-42701147D01*
X80659413Y-42012868D01*
X80659413Y-42012868D01*
G37*
G36*
X85094205Y-42094348D02*
X85745498Y-42350899D01*
X85488947Y-43002192D01*
X84837654Y-42745641D01*
X85094205Y-42094348D01*
X85094205Y-42094348D01*
G37*
G36*
X84691053Y-43117808D02*
X85342346Y-43374359D01*
X85085795Y-44025652D01*
X84434502Y-43769101D01*
X84691053Y-43117808D01*
X84691053Y-43117808D01*
G37*
G36*
X83189920Y-44494863D02*
X83008746Y-45171011D01*
X82332598Y-44989837D01*
X82513772Y-44313689D01*
X83189920Y-44494863D01*
X83189920Y-44494863D01*
G37*
G36*
X82127402Y-44210163D02*
X81946228Y-44886311D01*
X81270080Y-44705137D01*
X81451254Y-44028989D01*
X82127402Y-44210163D01*
X82127402Y-44210163D01*
G37*
G36*
X84314205Y-44114348D02*
X84965498Y-44370899D01*
X84708947Y-45022192D01*
X84057654Y-44765641D01*
X84314205Y-44114348D01*
X84314205Y-44114348D01*
G37*
G36*
X83911053Y-45137808D02*
X84562346Y-45394359D01*
X84305795Y-46045652D01*
X83654502Y-45789101D01*
X83911053Y-45137808D01*
X83911053Y-45137808D01*
G37*
G36*
X70441655Y-43967841D02*
X70236995Y-43298427D01*
X70906409Y-43093767D01*
X71111069Y-43763181D01*
X70441655Y-43967841D01*
X70441655Y-43967841D01*
G37*
G36*
X71493591Y-43646233D02*
X71288931Y-42976819D01*
X71958345Y-42772159D01*
X72163005Y-43441573D01*
X71493591Y-43646233D01*
X71493591Y-43646233D01*
G37*
G36*
X69934251Y-42989761D02*
X69641879Y-42033456D01*
X70406923Y-41799559D01*
X70699295Y-42755864D01*
X69934251Y-42989761D01*
X69934251Y-42989761D01*
G37*
G36*
X71273077Y-42580441D02*
X70980705Y-41624136D01*
X71745749Y-41390239D01*
X72038121Y-42346544D01*
X71273077Y-42580441D01*
X71273077Y-42580441D01*
G37*
G36*
X78708345Y-41384007D02*
X78781515Y-40687841D01*
X79477681Y-40761011D01*
X79404511Y-41457177D01*
X78708345Y-41384007D01*
X78708345Y-41384007D01*
G37*
G36*
X79802319Y-41498989D02*
X79875489Y-40802823D01*
X80571655Y-40875993D01*
X80498485Y-41572159D01*
X79802319Y-41498989D01*
X79802319Y-41498989D01*
G37*
G36*
X73922436Y-50239472D02*
X73776898Y-49554768D01*
X74461602Y-49409230D01*
X74607140Y-50093934D01*
X73922436Y-50239472D01*
X73922436Y-50239472D01*
G37*
G36*
X74998398Y-50010770D02*
X74852860Y-49326066D01*
X75537564Y-49180528D01*
X75683102Y-49865232D01*
X74998398Y-50010770D01*
X74998398Y-50010770D01*
G37*
D15*
X63750000Y-63300000D03*
X63750000Y-62200000D03*
X62500000Y-62200000D03*
X62500000Y-63300000D03*
D10*
G36*
X66845577Y-46303109D02*
X66495577Y-45696891D01*
X67101795Y-45346891D01*
X67451795Y-45953109D01*
X66845577Y-46303109D01*
X66845577Y-46303109D01*
G37*
G36*
X67798205Y-45753109D02*
X67448205Y-45146891D01*
X68054423Y-44796891D01*
X68404423Y-45403109D01*
X67798205Y-45753109D01*
X67798205Y-45753109D01*
G37*
G36*
X68266165Y-42568301D02*
X68910519Y-42294789D01*
X69184031Y-42939143D01*
X68539677Y-43212655D01*
X68266165Y-42568301D01*
X68266165Y-42568301D01*
G37*
G36*
X68695969Y-43580857D02*
X69340323Y-43307345D01*
X69613835Y-43951699D01*
X68969481Y-44225211D01*
X68695969Y-43580857D01*
X68695969Y-43580857D01*
G37*
G36*
X76206246Y-41385654D02*
X76194029Y-40685761D01*
X76893922Y-40673544D01*
X76906139Y-41373437D01*
X76206246Y-41385654D01*
X76206246Y-41385654D01*
G37*
G36*
X77306078Y-41366456D02*
X77293861Y-40666563D01*
X77993754Y-40654346D01*
X78005971Y-41354239D01*
X77306078Y-41366456D01*
X77306078Y-41366456D01*
G37*
G36*
X69145577Y-50753109D02*
X68795577Y-50146891D01*
X69401795Y-49796891D01*
X69751795Y-50403109D01*
X69145577Y-50753109D01*
X69145577Y-50753109D01*
G37*
G36*
X70098205Y-50203109D02*
X69748205Y-49596891D01*
X70354423Y-49246891D01*
X70704423Y-49853109D01*
X70098205Y-50203109D01*
X70098205Y-50203109D01*
G37*
G36*
X81755137Y-46999920D02*
X81078989Y-46818746D01*
X81260163Y-46142598D01*
X81936311Y-46323772D01*
X81755137Y-46999920D01*
X81755137Y-46999920D01*
G37*
G36*
X82039837Y-45937402D02*
X81363689Y-45756228D01*
X81544863Y-45080080D01*
X82221011Y-45261254D01*
X82039837Y-45937402D01*
X82039837Y-45937402D01*
G37*
G36*
X67765301Y-48004452D02*
X67340949Y-48249452D01*
X67020949Y-47695196D01*
X67445301Y-47450196D01*
X67765301Y-48004452D01*
X67765301Y-48004452D01*
G37*
G36*
X68328218Y-47679452D02*
X67903866Y-47924452D01*
X67583866Y-47370196D01*
X68008218Y-47125196D01*
X68328218Y-47679452D01*
X68328218Y-47679452D01*
G37*
G36*
X68891134Y-47354452D02*
X68466782Y-47599452D01*
X68146782Y-47045196D01*
X68571134Y-46800196D01*
X68891134Y-47354452D01*
X68891134Y-47354452D01*
G37*
G36*
X69454051Y-47029452D02*
X69029699Y-47274452D01*
X68709699Y-46720196D01*
X69134051Y-46475196D01*
X69454051Y-47029452D01*
X69454051Y-47029452D01*
G37*
G36*
X70479051Y-48804804D02*
X70054699Y-49049804D01*
X69734699Y-48495548D01*
X70159051Y-48250548D01*
X70479051Y-48804804D01*
X70479051Y-48804804D01*
G37*
G36*
X69916134Y-49129804D02*
X69491782Y-49374804D01*
X69171782Y-48820548D01*
X69596134Y-48575548D01*
X69916134Y-49129804D01*
X69916134Y-49129804D01*
G37*
G36*
X69353218Y-49454804D02*
X68928866Y-49699804D01*
X68608866Y-49145548D01*
X69033218Y-48900548D01*
X69353218Y-49454804D01*
X69353218Y-49454804D01*
G37*
G36*
X68790301Y-49779804D02*
X68365949Y-50024804D01*
X68045949Y-49470548D01*
X68470301Y-49225548D01*
X68790301Y-49779804D01*
X68790301Y-49779804D01*
G37*
G36*
X63308730Y-54974879D02*
X64222367Y-55381656D01*
X63815590Y-56295293D01*
X62901953Y-55888516D01*
X63308730Y-54974879D01*
X63308730Y-54974879D01*
G37*
G36*
X62535930Y-56710615D02*
X63449567Y-57117392D01*
X63042790Y-58031029D01*
X62129153Y-57624252D01*
X62535930Y-56710615D01*
X62535930Y-56710615D01*
G37*
G36*
X64748489Y-56655806D02*
X65662126Y-57062583D01*
X65255349Y-57976220D01*
X64341712Y-57569443D01*
X64748489Y-56655806D01*
X64748489Y-56655806D01*
G37*
D16*
X55710000Y-63385000D03*
D17*
X55710000Y-62115000D03*
X56980000Y-63385000D03*
X56980000Y-62115000D03*
X58250000Y-63385000D03*
X58250000Y-62115000D03*
X59520000Y-63385000D03*
X59520000Y-62115000D03*
X60790000Y-63385000D03*
X60790000Y-62115000D03*
D18*
X58250000Y-54250000D03*
X86500000Y-44000000D03*
D10*
G36*
X67747243Y-42733878D02*
X68597243Y-44206122D01*
X67731217Y-44706122D01*
X66881217Y-43233878D01*
X67747243Y-42733878D01*
X67747243Y-42733878D01*
G37*
G36*
X65668783Y-43933878D02*
X66518783Y-45406122D01*
X65652757Y-45906122D01*
X64802757Y-44433878D01*
X65668783Y-43933878D01*
X65668783Y-43933878D01*
G37*
D19*
X77250000Y-47270000D03*
X78770000Y-45750000D03*
X75730000Y-45750000D03*
X77250000Y-45750000D03*
X77250000Y-44230000D03*
D20*
X74390000Y-43550000D03*
X74390000Y-43950000D03*
X74390000Y-44350000D03*
X74390000Y-44750000D03*
X74390000Y-45150000D03*
X74390000Y-45550000D03*
X74390000Y-45950000D03*
X74390000Y-46350000D03*
X74390000Y-46750000D03*
X74390000Y-47150000D03*
X74390000Y-47550000D03*
X74390000Y-47950000D03*
D21*
X75050000Y-48610000D03*
X75450000Y-48610000D03*
X75850000Y-48610000D03*
X76250000Y-48610000D03*
X76650000Y-48610000D03*
X77050000Y-48610000D03*
X77450000Y-48610000D03*
X77850000Y-48610000D03*
X78250000Y-48610000D03*
X78650000Y-48610000D03*
X79050000Y-48610000D03*
X79450000Y-48610000D03*
D20*
X80110000Y-47950000D03*
X80110000Y-47550000D03*
X80110000Y-47150000D03*
X80110000Y-46750000D03*
X80110000Y-46350000D03*
X80110000Y-45950000D03*
X80110000Y-45550000D03*
X80110000Y-45150000D03*
X80110000Y-44750000D03*
X80110000Y-44350000D03*
X80110000Y-43950000D03*
X80110000Y-43550000D03*
D21*
X79450000Y-42890000D03*
X79050000Y-42890000D03*
X78650000Y-42890000D03*
X78250000Y-42890000D03*
X77850000Y-42890000D03*
X77450000Y-42890000D03*
X77050000Y-42890000D03*
X76650000Y-42890000D03*
X76250000Y-42890000D03*
X75850000Y-42890000D03*
X75450000Y-42890000D03*
X75050000Y-42890000D03*
D19*
X75730000Y-44230000D03*
X78770000Y-44230000D03*
X78770000Y-47270000D03*
X75730000Y-47270000D03*
D10*
G36*
X73105778Y-49364975D02*
X73480385Y-50292159D01*
X72738638Y-50591845D01*
X72364031Y-49664661D01*
X73105778Y-49364975D01*
X73105778Y-49364975D01*
G37*
G36*
X71761362Y-49908155D02*
X72135969Y-50835339D01*
X71394222Y-51135025D01*
X71019615Y-50207841D01*
X71761362Y-49908155D01*
X71761362Y-49908155D01*
G37*
G36*
X81019095Y-50227709D02*
X81441713Y-49321401D01*
X82166759Y-49659495D01*
X81744141Y-50565803D01*
X81019095Y-50227709D01*
X81019095Y-50227709D01*
G37*
G36*
X82333241Y-50840505D02*
X82755859Y-49934197D01*
X83480905Y-50272291D01*
X83058287Y-51178599D01*
X82333241Y-50840505D01*
X82333241Y-50840505D01*
G37*
G36*
X58079282Y-51838742D02*
X59059632Y-50329135D01*
X59898302Y-50873774D01*
X58917952Y-52383381D01*
X58079282Y-51838742D01*
X58079282Y-51838742D01*
G37*
G36*
X61601698Y-54126226D02*
X62582048Y-52616619D01*
X63420718Y-53161258D01*
X62440368Y-54670865D01*
X61601698Y-54126226D01*
X61601698Y-54126226D01*
G37*
G36*
X55751455Y-57374498D02*
X56262683Y-55648623D01*
X57221503Y-55932638D01*
X56710275Y-57658513D01*
X55751455Y-57374498D01*
X55751455Y-57374498D01*
G37*
G36*
X59778497Y-58567362D02*
X60289725Y-56841487D01*
X61248545Y-57125502D01*
X60737317Y-58851377D01*
X59778497Y-58567362D01*
X59778497Y-58567362D01*
G37*
G36*
X64250149Y-47497504D02*
X64601378Y-47874151D01*
X64206447Y-48242430D01*
X63855218Y-47865783D01*
X64250149Y-47497504D01*
X64250149Y-47497504D01*
G37*
G36*
X63909150Y-47131827D02*
X64260379Y-47508474D01*
X63865448Y-47876753D01*
X63514219Y-47500106D01*
X63909150Y-47131827D01*
X63909150Y-47131827D01*
G37*
G36*
X63568151Y-46766150D02*
X63919380Y-47142797D01*
X63524449Y-47511076D01*
X63173220Y-47134429D01*
X63568151Y-46766150D01*
X63568151Y-46766150D01*
G37*
G36*
X63227151Y-46400473D02*
X63578380Y-46777120D01*
X63183449Y-47145399D01*
X62832220Y-46768752D01*
X63227151Y-46400473D01*
X63227151Y-46400473D01*
G37*
G36*
X62448877Y-47109134D02*
X62825524Y-46757905D01*
X63193803Y-47152836D01*
X62817156Y-47504065D01*
X62448877Y-47109134D01*
X62448877Y-47109134D01*
G37*
G36*
X62083200Y-47450133D02*
X62459847Y-47098904D01*
X62828126Y-47493835D01*
X62451479Y-47845064D01*
X62083200Y-47450133D01*
X62083200Y-47450133D01*
G37*
G36*
X62093553Y-47457570D02*
X62444782Y-47834217D01*
X62049851Y-48202496D01*
X61698622Y-47825849D01*
X62093553Y-47457570D01*
X62093553Y-47457570D01*
G37*
G36*
X62434552Y-47823247D02*
X62785781Y-48199894D01*
X62390850Y-48568173D01*
X62039621Y-48191526D01*
X62434552Y-47823247D01*
X62434552Y-47823247D01*
G37*
G36*
X62775551Y-48188924D02*
X63126780Y-48565571D01*
X62731849Y-48933850D01*
X62380620Y-48557203D01*
X62775551Y-48188924D01*
X62775551Y-48188924D01*
G37*
G36*
X63116551Y-48554601D02*
X63467780Y-48931248D01*
X63072849Y-49299527D01*
X62721620Y-48922880D01*
X63116551Y-48554601D01*
X63116551Y-48554601D01*
G37*
G36*
X63106197Y-48547164D02*
X63482844Y-48195935D01*
X63851123Y-48590866D01*
X63474476Y-48942095D01*
X63106197Y-48547164D01*
X63106197Y-48547164D01*
G37*
G36*
X63471874Y-48206165D02*
X63848521Y-47854936D01*
X64216800Y-48249867D01*
X63840153Y-48601096D01*
X63471874Y-48206165D01*
X63471874Y-48206165D01*
G37*
D22*
X71125610Y-52524390D02*
X67024390Y-56625610D01*
X67024390Y-68874390D02*
X71125610Y-72975610D01*
D10*
G36*
X82569327Y-43964013D02*
X81656128Y-43702158D01*
X81945547Y-42692833D01*
X82858746Y-42954688D01*
X82569327Y-43964013D01*
X82569327Y-43964013D01*
G37*
G36*
X83674778Y-44280996D02*
X82761579Y-44019141D01*
X83050998Y-43009816D01*
X83964197Y-43271671D01*
X83674778Y-44280996D01*
X83674778Y-44280996D01*
G37*
G36*
X84074453Y-42887167D02*
X83161254Y-42625312D01*
X83450673Y-41615987D01*
X84363872Y-41877842D01*
X84074453Y-42887167D01*
X84074453Y-42887167D01*
G37*
G36*
X82969002Y-42570184D02*
X82055803Y-42308329D01*
X82345222Y-41299004D01*
X83258421Y-41560859D01*
X82969002Y-42570184D01*
X82969002Y-42570184D01*
G37*
D23*
G36*
X79650000Y-48150000D02*
X74850000Y-48150000D01*
X74850000Y-43350000D01*
X79650000Y-43350000D01*
X79650000Y-48150000D01*
X79650000Y-48150000D01*
G37*
X79650000Y-48150000D02*
X74850000Y-48150000D01*
X74850000Y-43350000D01*
X79650000Y-43350000D01*
X79650000Y-48150000D01*
M02*
