G04 #@! TF.FileFunction,Soldermask,Bot*
%FSLAX46Y46*%
G04 Gerber Fmt 4.6, Leading zero omitted, Abs format (unit mm)*
G04 Created by KiCad (PCBNEW (2016-05-05 BZR 6775)-product) date 2016 June 06, Monday 00:12:01*
%MOMM*%
%LPD*%
G01*
G04 APERTURE LIST*
%ADD10C,0.020000*%
%ADD11C,0.150000*%
%ADD12C,0.200000*%
%ADD13C,0.010000*%
%ADD14C,3.200000*%
%ADD15C,1.200000*%
%ADD16C,1.100000*%
%ADD17R,1.000000X1.000000*%
%ADD18C,1.800000*%
G04 APERTURE END LIST*
D10*
D11*
X74224285Y-43942857D02*
X74095714Y-43980952D01*
X74052857Y-44019047D01*
X74010000Y-44095238D01*
X74010000Y-44209523D01*
X74052857Y-44285714D01*
X74095714Y-44323809D01*
X74181428Y-44361904D01*
X74524285Y-44361904D01*
X74524285Y-43561904D01*
X74224285Y-43561904D01*
X74138571Y-43600000D01*
X74095714Y-43638095D01*
X74052857Y-43714285D01*
X74052857Y-43790476D01*
X74095714Y-43866666D01*
X74138571Y-43904761D01*
X74224285Y-43942857D01*
X74524285Y-43942857D01*
X73710000Y-43561904D02*
X73152857Y-43561904D01*
X73452857Y-43866666D01*
X73324285Y-43866666D01*
X73238571Y-43904761D01*
X73195714Y-43942857D01*
X73152857Y-44019047D01*
X73152857Y-44209523D01*
X73195714Y-44285714D01*
X73238571Y-44323809D01*
X73324285Y-44361904D01*
X73581428Y-44361904D01*
X73667142Y-44323809D01*
X73710000Y-44285714D01*
D12*
X81255000Y-83562857D02*
X81155000Y-82762857D01*
X81183571Y-82991428D02*
X81112142Y-82877142D01*
X81047857Y-82820000D01*
X80926428Y-82762857D01*
X80812142Y-82762857D01*
X79897857Y-82762857D02*
X79997857Y-83562857D01*
X80412142Y-82762857D02*
X80490714Y-83391428D01*
X80447857Y-83505714D01*
X80340714Y-83562857D01*
X80169285Y-83562857D01*
X80047857Y-83505714D01*
X79983571Y-83448571D01*
X78812142Y-82762857D02*
X78912142Y-83562857D01*
X79326428Y-82762857D02*
X79405000Y-83391428D01*
X79362142Y-83505714D01*
X79255000Y-83562857D01*
X79083571Y-83562857D01*
X78962142Y-83505714D01*
X78897857Y-83448571D01*
X78355000Y-82762857D02*
X78169285Y-83562857D01*
X77783571Y-82762857D01*
X77426428Y-83562857D02*
X77326428Y-82762857D01*
X77276428Y-82362857D02*
X77340714Y-82420000D01*
X77290714Y-82477142D01*
X77226428Y-82420000D01*
X77276428Y-82362857D01*
X77290714Y-82477142D01*
X76840714Y-83448571D02*
X76790714Y-83505714D01*
X76855000Y-83562857D01*
X76905000Y-83505714D01*
X76840714Y-83448571D01*
X76855000Y-83562857D01*
X75762142Y-83505714D02*
X75883571Y-83562857D01*
X76112142Y-83562857D01*
X76219285Y-83505714D01*
X76269285Y-83448571D01*
X76312142Y-83334285D01*
X76269285Y-82991428D01*
X76197857Y-82877142D01*
X76133571Y-82820000D01*
X76012142Y-82762857D01*
X75783571Y-82762857D01*
X75676428Y-82820000D01*
X75083571Y-83562857D02*
X75190714Y-83505714D01*
X75240714Y-83448571D01*
X75283571Y-83334285D01*
X75240714Y-82991428D01*
X75169285Y-82877142D01*
X75105000Y-82820000D01*
X74983571Y-82762857D01*
X74812142Y-82762857D01*
X74705000Y-82820000D01*
X74655000Y-82877142D01*
X74612142Y-82991428D01*
X74655000Y-83334285D01*
X74726428Y-83448571D01*
X74790714Y-83505714D01*
X74912142Y-83562857D01*
X75083571Y-83562857D01*
X74169285Y-83562857D02*
X74069285Y-82762857D01*
X74083571Y-82877142D02*
X74019285Y-82820000D01*
X73897857Y-82762857D01*
X73726428Y-82762857D01*
X73619285Y-82820000D01*
X73576428Y-82934285D01*
X73655000Y-83562857D01*
X73576428Y-82934285D02*
X73505000Y-82820000D01*
X73383571Y-82762857D01*
X73212142Y-82762857D01*
X73105000Y-82820000D01*
X73062142Y-82934285D01*
X73140714Y-83562857D01*
D13*
G36*
X77183027Y-77158510D02*
X77121871Y-77158693D01*
X77068569Y-77158997D01*
X77023255Y-77159420D01*
X76986067Y-77159958D01*
X76957138Y-77160612D01*
X76936606Y-77161378D01*
X76924606Y-77162256D01*
X76921412Y-77162902D01*
X76914870Y-77169889D01*
X76909471Y-77181364D01*
X76908784Y-77183704D01*
X76907284Y-77190646D01*
X76904331Y-77205472D01*
X76900061Y-77227451D01*
X76894615Y-77255853D01*
X76888129Y-77289948D01*
X76880744Y-77329007D01*
X76872597Y-77372299D01*
X76863826Y-77419096D01*
X76854571Y-77468667D01*
X76847106Y-77508782D01*
X76836086Y-77568010D01*
X76826517Y-77619231D01*
X76818267Y-77663052D01*
X76811208Y-77700079D01*
X76805208Y-77730921D01*
X76800137Y-77756184D01*
X76795866Y-77776476D01*
X76792265Y-77792403D01*
X76789202Y-77804574D01*
X76786547Y-77813595D01*
X76784172Y-77820074D01*
X76781945Y-77824618D01*
X76779736Y-77827834D01*
X76778384Y-77829359D01*
X76769129Y-77836247D01*
X76753452Y-77844948D01*
X76733228Y-77854482D01*
X76718387Y-77860719D01*
X76703612Y-77866681D01*
X76681904Y-77875489D01*
X76654436Y-77886665D01*
X76622381Y-77899731D01*
X76586908Y-77914210D01*
X76549192Y-77929625D01*
X76510402Y-77945496D01*
X76496758Y-77951083D01*
X76454189Y-77968478D01*
X76418939Y-77982768D01*
X76390244Y-77994227D01*
X76367342Y-78003129D01*
X76349471Y-78009746D01*
X76335867Y-78014352D01*
X76325769Y-78017221D01*
X76318413Y-78018625D01*
X76313037Y-78018839D01*
X76309374Y-78018269D01*
X76303480Y-78015236D01*
X76290983Y-78007623D01*
X76272485Y-77995827D01*
X76248588Y-77980250D01*
X76219894Y-77961291D01*
X76187004Y-77939348D01*
X76150520Y-77914823D01*
X76111045Y-77888114D01*
X76069180Y-77859621D01*
X76028476Y-77831767D01*
X75974199Y-77794594D01*
X75926735Y-77762231D01*
X75885735Y-77734451D01*
X75850849Y-77711023D01*
X75821728Y-77691718D01*
X75798021Y-77676308D01*
X75779379Y-77664563D01*
X75765452Y-77656253D01*
X75755890Y-77651150D01*
X75750344Y-77649024D01*
X75749510Y-77648931D01*
X75746403Y-77649649D01*
X75741912Y-77652068D01*
X75735623Y-77656581D01*
X75727119Y-77663582D01*
X75715984Y-77673468D01*
X75701802Y-77686631D01*
X75684158Y-77703467D01*
X75662636Y-77724369D01*
X75636818Y-77749734D01*
X75606291Y-77779954D01*
X75570636Y-77815425D01*
X75529440Y-77856541D01*
X75507608Y-77878364D01*
X75464263Y-77921731D01*
X75426722Y-77959358D01*
X75394575Y-77991678D01*
X75367416Y-78019125D01*
X75344836Y-78042133D01*
X75326426Y-78061138D01*
X75311780Y-78076572D01*
X75300488Y-78088870D01*
X75292142Y-78098466D01*
X75286335Y-78105795D01*
X75282659Y-78111290D01*
X75280704Y-78115386D01*
X75280064Y-78118517D01*
X75280172Y-78120321D01*
X75282975Y-78126113D01*
X75290388Y-78138492D01*
X75302012Y-78156857D01*
X75317451Y-78180608D01*
X75336308Y-78209145D01*
X75358185Y-78241867D01*
X75382686Y-78278174D01*
X75409412Y-78317465D01*
X75437968Y-78359141D01*
X75443390Y-78367022D01*
X75479606Y-78419620D01*
X75511182Y-78465486D01*
X75538436Y-78505106D01*
X75561684Y-78538971D01*
X75581245Y-78567568D01*
X75597434Y-78591386D01*
X75610570Y-78610912D01*
X75620968Y-78626636D01*
X75628947Y-78639046D01*
X75634823Y-78648630D01*
X75638914Y-78655877D01*
X75641537Y-78661274D01*
X75643008Y-78665311D01*
X75643645Y-78668475D01*
X75643765Y-78671255D01*
X75643685Y-78674139D01*
X75643669Y-78675456D01*
X75641939Y-78682860D01*
X75637009Y-78697343D01*
X75629268Y-78717993D01*
X75619107Y-78743899D01*
X75606915Y-78774150D01*
X75593081Y-78807836D01*
X75577995Y-78844044D01*
X75562047Y-78881865D01*
X75545625Y-78920387D01*
X75529121Y-78958699D01*
X75512924Y-78995891D01*
X75497422Y-79031050D01*
X75483006Y-79063267D01*
X75470065Y-79091630D01*
X75458990Y-79115228D01*
X75450169Y-79133150D01*
X75443992Y-79144485D01*
X75441653Y-79147813D01*
X75437810Y-79151334D01*
X75432870Y-79154538D01*
X75425989Y-79157629D01*
X75416328Y-79160808D01*
X75403044Y-79164278D01*
X75385296Y-79168242D01*
X75362242Y-79172902D01*
X75333041Y-79178460D01*
X75296850Y-79185118D01*
X75255224Y-79192649D01*
X75240130Y-79195389D01*
X75218350Y-79199374D01*
X75191809Y-79204248D01*
X75162432Y-79209660D01*
X75132145Y-79215254D01*
X75126034Y-79216385D01*
X75092634Y-79222562D01*
X75053564Y-79229778D01*
X75011769Y-79237492D01*
X74970193Y-79245158D01*
X74931782Y-79252235D01*
X74922972Y-79253857D01*
X74886408Y-79260676D01*
X74857522Y-79266313D01*
X74835350Y-79271023D01*
X74818930Y-79275061D01*
X74807300Y-79278682D01*
X74799497Y-79282143D01*
X74794559Y-79285697D01*
X74792179Y-79288543D01*
X74791642Y-79293620D01*
X74791151Y-79306616D01*
X74790707Y-79326692D01*
X74790310Y-79353006D01*
X74789962Y-79384721D01*
X74789663Y-79420996D01*
X74789414Y-79460991D01*
X74789216Y-79503867D01*
X74789070Y-79548785D01*
X74788976Y-79594904D01*
X74788935Y-79641385D01*
X74788949Y-79687388D01*
X74789018Y-79732074D01*
X74789143Y-79774603D01*
X74789324Y-79814135D01*
X74789563Y-79849830D01*
X74789860Y-79880850D01*
X74790217Y-79906354D01*
X74790633Y-79925503D01*
X74791110Y-79937457D01*
X74791532Y-79941263D01*
X74797562Y-79949294D01*
X74801855Y-79952389D01*
X74807350Y-79953858D01*
X74820740Y-79956771D01*
X74841307Y-79960987D01*
X74868330Y-79966368D01*
X74901090Y-79972773D01*
X74938870Y-79980063D01*
X74980949Y-79988096D01*
X75026608Y-79996734D01*
X75075128Y-80005836D01*
X75105890Y-80011568D01*
X75155870Y-80020886D01*
X75203479Y-80029815D01*
X75247992Y-80038214D01*
X75288684Y-80045945D01*
X75324828Y-80052869D01*
X75355699Y-80058845D01*
X75380573Y-80063735D01*
X75398722Y-80067399D01*
X75409422Y-80069698D01*
X75411972Y-80070367D01*
X75422784Y-80076725D01*
X75428907Y-80082230D01*
X75431811Y-80087686D01*
X75437635Y-80100546D01*
X75446073Y-80120073D01*
X75456817Y-80145529D01*
X75469561Y-80176176D01*
X75483997Y-80211277D01*
X75499818Y-80250093D01*
X75516719Y-80291887D01*
X75533297Y-80333184D01*
X75554829Y-80387165D01*
X75573190Y-80433541D01*
X75588558Y-80472798D01*
X75601115Y-80505424D01*
X75611041Y-80531904D01*
X75618517Y-80552726D01*
X75623724Y-80568375D01*
X75626842Y-80579338D01*
X75628052Y-80586101D01*
X75627979Y-80588164D01*
X75624929Y-80594518D01*
X75617095Y-80607631D01*
X75604743Y-80627104D01*
X75588140Y-80652542D01*
X75567551Y-80683546D01*
X75543244Y-80719720D01*
X75515485Y-80760666D01*
X75484540Y-80805988D01*
X75450676Y-80855287D01*
X75414159Y-80908167D01*
X75387543Y-80946552D01*
X75361132Y-80984643D01*
X75339343Y-81016255D01*
X75321755Y-81042071D01*
X75307950Y-81062773D01*
X75297505Y-81079044D01*
X75290001Y-81091565D01*
X75285016Y-81101020D01*
X75282132Y-81108091D01*
X75280926Y-81113461D01*
X75280980Y-81117811D01*
X75281205Y-81119154D01*
X75283164Y-81123233D01*
X75288127Y-81130008D01*
X75296432Y-81139829D01*
X75308415Y-81153046D01*
X75324414Y-81170008D01*
X75344765Y-81191065D01*
X75369806Y-81216567D01*
X75399874Y-81246863D01*
X75435305Y-81282303D01*
X75476438Y-81323238D01*
X75510403Y-81356934D01*
X75547518Y-81393649D01*
X75582943Y-81428564D01*
X75616170Y-81461185D01*
X75646690Y-81491020D01*
X75673997Y-81517576D01*
X75697582Y-81540361D01*
X75716937Y-81558883D01*
X75731554Y-81572648D01*
X75740927Y-81581164D01*
X75744446Y-81583930D01*
X75753924Y-81583921D01*
X75761963Y-81581161D01*
X75767293Y-81577800D01*
X75779191Y-81569930D01*
X75797001Y-81557995D01*
X75820067Y-81542440D01*
X75847734Y-81523708D01*
X75879345Y-81502243D01*
X75914244Y-81478490D01*
X75951776Y-81452893D01*
X75991286Y-81425895D01*
X75993138Y-81424629D01*
X76033142Y-81397265D01*
X76071516Y-81371019D01*
X76107559Y-81346369D01*
X76140569Y-81323795D01*
X76169847Y-81303776D01*
X76194692Y-81286790D01*
X76214403Y-81273316D01*
X76228280Y-81263835D01*
X76235586Y-81258848D01*
X76245365Y-81252454D01*
X76254196Y-81247867D01*
X76263066Y-81245354D01*
X76272962Y-81245185D01*
X76284873Y-81247626D01*
X76299785Y-81252947D01*
X76318686Y-81261414D01*
X76342563Y-81273297D01*
X76372405Y-81288863D01*
X76399968Y-81303475D01*
X76428939Y-81318696D01*
X76455780Y-81332465D01*
X76479416Y-81344256D01*
X76498772Y-81353545D01*
X76512775Y-81359807D01*
X76520350Y-81362516D01*
X76520957Y-81362586D01*
X76527992Y-81361656D01*
X76533633Y-81357811D01*
X76539145Y-81349469D01*
X76545790Y-81335047D01*
X76548913Y-81327552D01*
X76553044Y-81317534D01*
X76560352Y-81299854D01*
X76570659Y-81274943D01*
X76583789Y-81243229D01*
X76599562Y-81205140D01*
X76617802Y-81161107D01*
X76638330Y-81111559D01*
X76660969Y-81056924D01*
X76685541Y-80997631D01*
X76711868Y-80934111D01*
X76739772Y-80866792D01*
X76769075Y-80796102D01*
X76799600Y-80722472D01*
X76801112Y-80718827D01*
X76829558Y-80650199D01*
X76854824Y-80589199D01*
X76877094Y-80535370D01*
X76896552Y-80488254D01*
X76913381Y-80447393D01*
X76927766Y-80412329D01*
X76939891Y-80382604D01*
X76949940Y-80357759D01*
X76958096Y-80337338D01*
X76964545Y-80320882D01*
X76969469Y-80307933D01*
X76973052Y-80298034D01*
X76975479Y-80290725D01*
X76976934Y-80285550D01*
X76977601Y-80282050D01*
X76977664Y-80279767D01*
X76977627Y-80279467D01*
X76975879Y-80274518D01*
X76971373Y-80268773D01*
X76963121Y-80261411D01*
X76950134Y-80251613D01*
X76931421Y-80238560D01*
X76914095Y-80226852D01*
X76853300Y-80183788D01*
X76800252Y-80141113D01*
X76754040Y-80097900D01*
X76713753Y-80053221D01*
X76678479Y-80006149D01*
X76647308Y-79955755D01*
X76646681Y-79954638D01*
X76613120Y-79885872D01*
X76587677Y-79814440D01*
X76570376Y-79741022D01*
X76561242Y-79666297D01*
X76560298Y-79590946D01*
X76567568Y-79515649D01*
X76583077Y-79441085D01*
X76606849Y-79367934D01*
X76624488Y-79326300D01*
X76639201Y-79297710D01*
X76658280Y-79265439D01*
X76679993Y-79232090D01*
X76702608Y-79200269D01*
X76724392Y-79172579D01*
X76734248Y-79161298D01*
X76791501Y-79104871D01*
X76853140Y-79055987D01*
X76919028Y-79014729D01*
X76989025Y-78981176D01*
X77062993Y-78955411D01*
X77105740Y-78944494D01*
X77121975Y-78941058D01*
X77136918Y-78938479D01*
X77152253Y-78936637D01*
X77169664Y-78935414D01*
X77190833Y-78934689D01*
X77217446Y-78934344D01*
X77250000Y-78934258D01*
X77283515Y-78934351D01*
X77309954Y-78934709D01*
X77330998Y-78935450D01*
X77348327Y-78936693D01*
X77363623Y-78938558D01*
X77378567Y-78941163D01*
X77393994Y-78944437D01*
X77469608Y-78965700D01*
X77541159Y-78994494D01*
X77608235Y-79030389D01*
X77670424Y-79072953D01*
X77727312Y-79121757D01*
X77778489Y-79176369D01*
X77823540Y-79236360D01*
X77862054Y-79301298D01*
X77893619Y-79370754D01*
X77917822Y-79444295D01*
X77931602Y-79505758D01*
X77935479Y-79534863D01*
X77937999Y-79569715D01*
X77939162Y-79607796D01*
X77938968Y-79646588D01*
X77937418Y-79683576D01*
X77934512Y-79716240D01*
X77931579Y-79735672D01*
X77919346Y-79788785D01*
X77902955Y-79842456D01*
X77883343Y-79894122D01*
X77861444Y-79941223D01*
X77847056Y-79967128D01*
X77813691Y-80017819D01*
X77776052Y-80065264D01*
X77733196Y-80110403D01*
X77684178Y-80154174D01*
X77628054Y-80197517D01*
X77585904Y-80226852D01*
X77562520Y-80242717D01*
X77545565Y-80254745D01*
X77534048Y-80263754D01*
X77526982Y-80270564D01*
X77523375Y-80275995D01*
X77522372Y-80279467D01*
X77522350Y-80281588D01*
X77522901Y-80284849D01*
X77524209Y-80289707D01*
X77526458Y-80296621D01*
X77529832Y-80306048D01*
X77534515Y-80318446D01*
X77540691Y-80334274D01*
X77548544Y-80353989D01*
X77558258Y-80378049D01*
X77570018Y-80406912D01*
X77584006Y-80441036D01*
X77600407Y-80480880D01*
X77619405Y-80526900D01*
X77641183Y-80579556D01*
X77665927Y-80639304D01*
X77693820Y-80706604D01*
X77698888Y-80718827D01*
X77729468Y-80792589D01*
X77758835Y-80863431D01*
X77786811Y-80930924D01*
X77813218Y-80994639D01*
X77837879Y-81054147D01*
X77860616Y-81109018D01*
X77881251Y-81158824D01*
X77899606Y-81203135D01*
X77915504Y-81241522D01*
X77928766Y-81273556D01*
X77939215Y-81298808D01*
X77946673Y-81316848D01*
X77950962Y-81327248D01*
X77951086Y-81327552D01*
X77958503Y-81344732D01*
X77964301Y-81355224D01*
X77969743Y-81360610D01*
X77976093Y-81362473D01*
X77979042Y-81362586D01*
X77985318Y-81360587D01*
X77998220Y-81354939D01*
X78016673Y-81346167D01*
X78039602Y-81334796D01*
X78065935Y-81321351D01*
X78094595Y-81306358D01*
X78100031Y-81303475D01*
X78135396Y-81284838D01*
X78163903Y-81270195D01*
X78186305Y-81259195D01*
X78203350Y-81251490D01*
X78215789Y-81246732D01*
X78224372Y-81244572D01*
X78227171Y-81244354D01*
X78238944Y-81246163D01*
X78252879Y-81252190D01*
X78270950Y-81263311D01*
X78273154Y-81264801D01*
X78282452Y-81271144D01*
X78298192Y-81281901D01*
X78319592Y-81296536D01*
X78345868Y-81314515D01*
X78376237Y-81335300D01*
X78409917Y-81358356D01*
X78446123Y-81383147D01*
X78484074Y-81409138D01*
X78504672Y-81423247D01*
X78552593Y-81456060D01*
X78593802Y-81484245D01*
X78628801Y-81508139D01*
X78658095Y-81528079D01*
X78682186Y-81544400D01*
X78701579Y-81557441D01*
X78716775Y-81567537D01*
X78728280Y-81575024D01*
X78736596Y-81580241D01*
X78742226Y-81583522D01*
X78745674Y-81585206D01*
X78747443Y-81585628D01*
X78747486Y-81585623D01*
X78753173Y-81583915D01*
X78757351Y-81582339D01*
X78762012Y-81578660D01*
X78772236Y-81569370D01*
X78787415Y-81555072D01*
X78806939Y-81536367D01*
X78830201Y-81513860D01*
X78856592Y-81488154D01*
X78885504Y-81459852D01*
X78916327Y-81429557D01*
X78948455Y-81397872D01*
X78981278Y-81365401D01*
X79014187Y-81332746D01*
X79046575Y-81300511D01*
X79077833Y-81269299D01*
X79107352Y-81239714D01*
X79134524Y-81212357D01*
X79158741Y-81187833D01*
X79179394Y-81166745D01*
X79195875Y-81149696D01*
X79207574Y-81137289D01*
X79213885Y-81130127D01*
X79214738Y-81128916D01*
X79218779Y-81117167D01*
X79219041Y-81106993D01*
X79215947Y-81100809D01*
X79208559Y-81088599D01*
X79197616Y-81071506D01*
X79183856Y-81050672D01*
X79168019Y-81027240D01*
X79158469Y-81013337D01*
X79137438Y-80982871D01*
X79113922Y-80948760D01*
X79089785Y-80913709D01*
X79066889Y-80880422D01*
X79047095Y-80851603D01*
X79046907Y-80851329D01*
X79027332Y-80822804D01*
X79004615Y-80789711D01*
X78980577Y-80754701D01*
X78957036Y-80720424D01*
X78935813Y-80689530D01*
X78934657Y-80687848D01*
X78917822Y-80662971D01*
X78902610Y-80639783D01*
X78889769Y-80619476D01*
X78880042Y-80603246D01*
X78874175Y-80592285D01*
X78872829Y-80588792D01*
X78872687Y-80584716D01*
X78873760Y-80578258D01*
X78876264Y-80568825D01*
X78880416Y-80555829D01*
X78886433Y-80538679D01*
X78894532Y-80516784D01*
X78904930Y-80489555D01*
X78917844Y-80456401D01*
X78933491Y-80416731D01*
X78952087Y-80369957D01*
X78966874Y-80332926D01*
X78984427Y-80289127D01*
X79001114Y-80247681D01*
X79016638Y-80209315D01*
X79030700Y-80174757D01*
X79043002Y-80144737D01*
X79053245Y-80119981D01*
X79061131Y-80101219D01*
X79066362Y-80089179D01*
X79068596Y-80084634D01*
X79074918Y-80078832D01*
X79084379Y-80073658D01*
X79098141Y-80068752D01*
X79117363Y-80063754D01*
X79143206Y-80058301D01*
X79168835Y-80053479D01*
X79222176Y-80043736D01*
X79275962Y-80033839D01*
X79329483Y-80023922D01*
X79382033Y-80014121D01*
X79432903Y-80004571D01*
X79481385Y-79995407D01*
X79526772Y-79986765D01*
X79568354Y-79978780D01*
X79605424Y-79971587D01*
X79637274Y-79965321D01*
X79663196Y-79960117D01*
X79682483Y-79956111D01*
X79694425Y-79953439D01*
X79698209Y-79952354D01*
X79706035Y-79945414D01*
X79708467Y-79941263D01*
X79708993Y-79935602D01*
X79709458Y-79922080D01*
X79709862Y-79901539D01*
X79710206Y-79874817D01*
X79710491Y-79842754D01*
X79710718Y-79806190D01*
X79710887Y-79765964D01*
X79711000Y-79722917D01*
X79711057Y-79677888D01*
X79711060Y-79631716D01*
X79711008Y-79585241D01*
X79710903Y-79539303D01*
X79710746Y-79494741D01*
X79710537Y-79452396D01*
X79710278Y-79413106D01*
X79709969Y-79377712D01*
X79709610Y-79347053D01*
X79709204Y-79321968D01*
X79708750Y-79303298D01*
X79708249Y-79291882D01*
X79707820Y-79288543D01*
X79704385Y-79284755D01*
X79698798Y-79281249D01*
X79690098Y-79277772D01*
X79677321Y-79274067D01*
X79659506Y-79269880D01*
X79635690Y-79264955D01*
X79604911Y-79259036D01*
X79577027Y-79253857D01*
X79539874Y-79247014D01*
X79498817Y-79239445D01*
X79456800Y-79231692D01*
X79416768Y-79224299D01*
X79381666Y-79217810D01*
X79373965Y-79216385D01*
X79343728Y-79210797D01*
X79314009Y-79205319D01*
X79286734Y-79200306D01*
X79263828Y-79196112D01*
X79247215Y-79193089D01*
X79244775Y-79192649D01*
X79201165Y-79184757D01*
X79165342Y-79178158D01*
X79136467Y-79172649D01*
X79113697Y-79168029D01*
X79096190Y-79164094D01*
X79083105Y-79160642D01*
X79073600Y-79157472D01*
X79066834Y-79154380D01*
X79061965Y-79151163D01*
X79058333Y-79147813D01*
X79053972Y-79141020D01*
X79046734Y-79127095D01*
X79037007Y-79106943D01*
X79025178Y-79081471D01*
X79011635Y-79051587D01*
X78996767Y-79018196D01*
X78980961Y-78982206D01*
X78964605Y-78944523D01*
X78948088Y-78906054D01*
X78931797Y-78867706D01*
X78916120Y-78830385D01*
X78901444Y-78794999D01*
X78888159Y-78762453D01*
X78876651Y-78733655D01*
X78867310Y-78709511D01*
X78860522Y-78690928D01*
X78856675Y-78678813D01*
X78855937Y-78674743D01*
X78855980Y-78671752D01*
X78856133Y-78668974D01*
X78856717Y-78665921D01*
X78858049Y-78662103D01*
X78860447Y-78657033D01*
X78864228Y-78650223D01*
X78869713Y-78641183D01*
X78877217Y-78629425D01*
X78887060Y-78614462D01*
X78899560Y-78595803D01*
X78915034Y-78572962D01*
X78933802Y-78545450D01*
X78956180Y-78512777D01*
X78982487Y-78474457D01*
X79013042Y-78429999D01*
X79048162Y-78378917D01*
X79056659Y-78366557D01*
X79084513Y-78325901D01*
X79110909Y-78287107D01*
X79135420Y-78250817D01*
X79157620Y-78217676D01*
X79177082Y-78188327D01*
X79193382Y-78163413D01*
X79206092Y-78143579D01*
X79214788Y-78129467D01*
X79219042Y-78121722D01*
X79219385Y-78120755D01*
X79219610Y-78118079D01*
X79218979Y-78114934D01*
X79217081Y-78110883D01*
X79213507Y-78105489D01*
X79207849Y-78098316D01*
X79199696Y-78088925D01*
X79188639Y-78076880D01*
X79174269Y-78061743D01*
X79156177Y-78043078D01*
X79133953Y-78020447D01*
X79107188Y-77993414D01*
X79075473Y-77961541D01*
X79038398Y-77924391D01*
X78995553Y-77881526D01*
X78992454Y-77878427D01*
X78948751Y-77834756D01*
X78910786Y-77796903D01*
X78878131Y-77764464D01*
X78850361Y-77737037D01*
X78827048Y-77714216D01*
X78807765Y-77695599D01*
X78792086Y-77680782D01*
X78779584Y-77669361D01*
X78769831Y-77660934D01*
X78762401Y-77655095D01*
X78756867Y-77651442D01*
X78752802Y-77649572D01*
X78749867Y-77649078D01*
X78745497Y-77650308D01*
X78737727Y-77654108D01*
X78726165Y-77660731D01*
X78710425Y-77670433D01*
X78690115Y-77683469D01*
X78664847Y-77700094D01*
X78634232Y-77720565D01*
X78597881Y-77745135D01*
X78555405Y-77774060D01*
X78506413Y-77807595D01*
X78469638Y-77832848D01*
X78426083Y-77862701D01*
X78384382Y-77891117D01*
X78345132Y-77917700D01*
X78308930Y-77942054D01*
X78276373Y-77963781D01*
X78248058Y-77982485D01*
X78224582Y-77997770D01*
X78206541Y-78009238D01*
X78194534Y-78016494D01*
X78189251Y-78019125D01*
X78184434Y-78019197D01*
X78176848Y-78017779D01*
X78165807Y-78014619D01*
X78150624Y-78009465D01*
X78130612Y-78002067D01*
X78105083Y-77992173D01*
X78073350Y-77979530D01*
X78034727Y-77963888D01*
X78003130Y-77950981D01*
X77964253Y-77935069D01*
X77926036Y-77919448D01*
X77889652Y-77904595D01*
X77856275Y-77890987D01*
X77827075Y-77879103D01*
X77803225Y-77869420D01*
X77785899Y-77862417D01*
X77781612Y-77860695D01*
X77759376Y-77851139D01*
X77740494Y-77841781D01*
X77726833Y-77833598D01*
X77721637Y-77829370D01*
X77719024Y-77826222D01*
X77716534Y-77821998D01*
X77714005Y-77815978D01*
X77711276Y-77807443D01*
X77708186Y-77795672D01*
X77704572Y-77779946D01*
X77700274Y-77759544D01*
X77695129Y-77733746D01*
X77688978Y-77701833D01*
X77681657Y-77663083D01*
X77673005Y-77616778D01*
X77668396Y-77592000D01*
X77660207Y-77547962D01*
X77652381Y-77505928D01*
X77645087Y-77466802D01*
X77638494Y-77431486D01*
X77632770Y-77400882D01*
X77628084Y-77375895D01*
X77624605Y-77357426D01*
X77622502Y-77346380D01*
X77622149Y-77344569D01*
X77619079Y-77328801D01*
X77615261Y-77308847D01*
X77611673Y-77289827D01*
X77607899Y-77269676D01*
X77603342Y-77245386D01*
X77598842Y-77221428D01*
X77597761Y-77215677D01*
X77592739Y-77192973D01*
X77587448Y-77176199D01*
X77582323Y-77166717D01*
X77582031Y-77166410D01*
X77580176Y-77164905D01*
X77577431Y-77163602D01*
X77573196Y-77162486D01*
X77566866Y-77161544D01*
X77557839Y-77160760D01*
X77545513Y-77160121D01*
X77529285Y-77159611D01*
X77508553Y-77159216D01*
X77482714Y-77158921D01*
X77451166Y-77158713D01*
X77413305Y-77158576D01*
X77368530Y-77158496D01*
X77316238Y-77158458D01*
X77255827Y-77158448D01*
X77251901Y-77158448D01*
X77183027Y-77158510D01*
X77183027Y-77158510D01*
G37*
X77183027Y-77158510D02*
X77121871Y-77158693D01*
X77068569Y-77158997D01*
X77023255Y-77159420D01*
X76986067Y-77159958D01*
X76957138Y-77160612D01*
X76936606Y-77161378D01*
X76924606Y-77162256D01*
X76921412Y-77162902D01*
X76914870Y-77169889D01*
X76909471Y-77181364D01*
X76908784Y-77183704D01*
X76907284Y-77190646D01*
X76904331Y-77205472D01*
X76900061Y-77227451D01*
X76894615Y-77255853D01*
X76888129Y-77289948D01*
X76880744Y-77329007D01*
X76872597Y-77372299D01*
X76863826Y-77419096D01*
X76854571Y-77468667D01*
X76847106Y-77508782D01*
X76836086Y-77568010D01*
X76826517Y-77619231D01*
X76818267Y-77663052D01*
X76811208Y-77700079D01*
X76805208Y-77730921D01*
X76800137Y-77756184D01*
X76795866Y-77776476D01*
X76792265Y-77792403D01*
X76789202Y-77804574D01*
X76786547Y-77813595D01*
X76784172Y-77820074D01*
X76781945Y-77824618D01*
X76779736Y-77827834D01*
X76778384Y-77829359D01*
X76769129Y-77836247D01*
X76753452Y-77844948D01*
X76733228Y-77854482D01*
X76718387Y-77860719D01*
X76703612Y-77866681D01*
X76681904Y-77875489D01*
X76654436Y-77886665D01*
X76622381Y-77899731D01*
X76586908Y-77914210D01*
X76549192Y-77929625D01*
X76510402Y-77945496D01*
X76496758Y-77951083D01*
X76454189Y-77968478D01*
X76418939Y-77982768D01*
X76390244Y-77994227D01*
X76367342Y-78003129D01*
X76349471Y-78009746D01*
X76335867Y-78014352D01*
X76325769Y-78017221D01*
X76318413Y-78018625D01*
X76313037Y-78018839D01*
X76309374Y-78018269D01*
X76303480Y-78015236D01*
X76290983Y-78007623D01*
X76272485Y-77995827D01*
X76248588Y-77980250D01*
X76219894Y-77961291D01*
X76187004Y-77939348D01*
X76150520Y-77914823D01*
X76111045Y-77888114D01*
X76069180Y-77859621D01*
X76028476Y-77831767D01*
X75974199Y-77794594D01*
X75926735Y-77762231D01*
X75885735Y-77734451D01*
X75850849Y-77711023D01*
X75821728Y-77691718D01*
X75798021Y-77676308D01*
X75779379Y-77664563D01*
X75765452Y-77656253D01*
X75755890Y-77651150D01*
X75750344Y-77649024D01*
X75749510Y-77648931D01*
X75746403Y-77649649D01*
X75741912Y-77652068D01*
X75735623Y-77656581D01*
X75727119Y-77663582D01*
X75715984Y-77673468D01*
X75701802Y-77686631D01*
X75684158Y-77703467D01*
X75662636Y-77724369D01*
X75636818Y-77749734D01*
X75606291Y-77779954D01*
X75570636Y-77815425D01*
X75529440Y-77856541D01*
X75507608Y-77878364D01*
X75464263Y-77921731D01*
X75426722Y-77959358D01*
X75394575Y-77991678D01*
X75367416Y-78019125D01*
X75344836Y-78042133D01*
X75326426Y-78061138D01*
X75311780Y-78076572D01*
X75300488Y-78088870D01*
X75292142Y-78098466D01*
X75286335Y-78105795D01*
X75282659Y-78111290D01*
X75280704Y-78115386D01*
X75280064Y-78118517D01*
X75280172Y-78120321D01*
X75282975Y-78126113D01*
X75290388Y-78138492D01*
X75302012Y-78156857D01*
X75317451Y-78180608D01*
X75336308Y-78209145D01*
X75358185Y-78241867D01*
X75382686Y-78278174D01*
X75409412Y-78317465D01*
X75437968Y-78359141D01*
X75443390Y-78367022D01*
X75479606Y-78419620D01*
X75511182Y-78465486D01*
X75538436Y-78505106D01*
X75561684Y-78538971D01*
X75581245Y-78567568D01*
X75597434Y-78591386D01*
X75610570Y-78610912D01*
X75620968Y-78626636D01*
X75628947Y-78639046D01*
X75634823Y-78648630D01*
X75638914Y-78655877D01*
X75641537Y-78661274D01*
X75643008Y-78665311D01*
X75643645Y-78668475D01*
X75643765Y-78671255D01*
X75643685Y-78674139D01*
X75643669Y-78675456D01*
X75641939Y-78682860D01*
X75637009Y-78697343D01*
X75629268Y-78717993D01*
X75619107Y-78743899D01*
X75606915Y-78774150D01*
X75593081Y-78807836D01*
X75577995Y-78844044D01*
X75562047Y-78881865D01*
X75545625Y-78920387D01*
X75529121Y-78958699D01*
X75512924Y-78995891D01*
X75497422Y-79031050D01*
X75483006Y-79063267D01*
X75470065Y-79091630D01*
X75458990Y-79115228D01*
X75450169Y-79133150D01*
X75443992Y-79144485D01*
X75441653Y-79147813D01*
X75437810Y-79151334D01*
X75432870Y-79154538D01*
X75425989Y-79157629D01*
X75416328Y-79160808D01*
X75403044Y-79164278D01*
X75385296Y-79168242D01*
X75362242Y-79172902D01*
X75333041Y-79178460D01*
X75296850Y-79185118D01*
X75255224Y-79192649D01*
X75240130Y-79195389D01*
X75218350Y-79199374D01*
X75191809Y-79204248D01*
X75162432Y-79209660D01*
X75132145Y-79215254D01*
X75126034Y-79216385D01*
X75092634Y-79222562D01*
X75053564Y-79229778D01*
X75011769Y-79237492D01*
X74970193Y-79245158D01*
X74931782Y-79252235D01*
X74922972Y-79253857D01*
X74886408Y-79260676D01*
X74857522Y-79266313D01*
X74835350Y-79271023D01*
X74818930Y-79275061D01*
X74807300Y-79278682D01*
X74799497Y-79282143D01*
X74794559Y-79285697D01*
X74792179Y-79288543D01*
X74791642Y-79293620D01*
X74791151Y-79306616D01*
X74790707Y-79326692D01*
X74790310Y-79353006D01*
X74789962Y-79384721D01*
X74789663Y-79420996D01*
X74789414Y-79460991D01*
X74789216Y-79503867D01*
X74789070Y-79548785D01*
X74788976Y-79594904D01*
X74788935Y-79641385D01*
X74788949Y-79687388D01*
X74789018Y-79732074D01*
X74789143Y-79774603D01*
X74789324Y-79814135D01*
X74789563Y-79849830D01*
X74789860Y-79880850D01*
X74790217Y-79906354D01*
X74790633Y-79925503D01*
X74791110Y-79937457D01*
X74791532Y-79941263D01*
X74797562Y-79949294D01*
X74801855Y-79952389D01*
X74807350Y-79953858D01*
X74820740Y-79956771D01*
X74841307Y-79960987D01*
X74868330Y-79966368D01*
X74901090Y-79972773D01*
X74938870Y-79980063D01*
X74980949Y-79988096D01*
X75026608Y-79996734D01*
X75075128Y-80005836D01*
X75105890Y-80011568D01*
X75155870Y-80020886D01*
X75203479Y-80029815D01*
X75247992Y-80038214D01*
X75288684Y-80045945D01*
X75324828Y-80052869D01*
X75355699Y-80058845D01*
X75380573Y-80063735D01*
X75398722Y-80067399D01*
X75409422Y-80069698D01*
X75411972Y-80070367D01*
X75422784Y-80076725D01*
X75428907Y-80082230D01*
X75431811Y-80087686D01*
X75437635Y-80100546D01*
X75446073Y-80120073D01*
X75456817Y-80145529D01*
X75469561Y-80176176D01*
X75483997Y-80211277D01*
X75499818Y-80250093D01*
X75516719Y-80291887D01*
X75533297Y-80333184D01*
X75554829Y-80387165D01*
X75573190Y-80433541D01*
X75588558Y-80472798D01*
X75601115Y-80505424D01*
X75611041Y-80531904D01*
X75618517Y-80552726D01*
X75623724Y-80568375D01*
X75626842Y-80579338D01*
X75628052Y-80586101D01*
X75627979Y-80588164D01*
X75624929Y-80594518D01*
X75617095Y-80607631D01*
X75604743Y-80627104D01*
X75588140Y-80652542D01*
X75567551Y-80683546D01*
X75543244Y-80719720D01*
X75515485Y-80760666D01*
X75484540Y-80805988D01*
X75450676Y-80855287D01*
X75414159Y-80908167D01*
X75387543Y-80946552D01*
X75361132Y-80984643D01*
X75339343Y-81016255D01*
X75321755Y-81042071D01*
X75307950Y-81062773D01*
X75297505Y-81079044D01*
X75290001Y-81091565D01*
X75285016Y-81101020D01*
X75282132Y-81108091D01*
X75280926Y-81113461D01*
X75280980Y-81117811D01*
X75281205Y-81119154D01*
X75283164Y-81123233D01*
X75288127Y-81130008D01*
X75296432Y-81139829D01*
X75308415Y-81153046D01*
X75324414Y-81170008D01*
X75344765Y-81191065D01*
X75369806Y-81216567D01*
X75399874Y-81246863D01*
X75435305Y-81282303D01*
X75476438Y-81323238D01*
X75510403Y-81356934D01*
X75547518Y-81393649D01*
X75582943Y-81428564D01*
X75616170Y-81461185D01*
X75646690Y-81491020D01*
X75673997Y-81517576D01*
X75697582Y-81540361D01*
X75716937Y-81558883D01*
X75731554Y-81572648D01*
X75740927Y-81581164D01*
X75744446Y-81583930D01*
X75753924Y-81583921D01*
X75761963Y-81581161D01*
X75767293Y-81577800D01*
X75779191Y-81569930D01*
X75797001Y-81557995D01*
X75820067Y-81542440D01*
X75847734Y-81523708D01*
X75879345Y-81502243D01*
X75914244Y-81478490D01*
X75951776Y-81452893D01*
X75991286Y-81425895D01*
X75993138Y-81424629D01*
X76033142Y-81397265D01*
X76071516Y-81371019D01*
X76107559Y-81346369D01*
X76140569Y-81323795D01*
X76169847Y-81303776D01*
X76194692Y-81286790D01*
X76214403Y-81273316D01*
X76228280Y-81263835D01*
X76235586Y-81258848D01*
X76245365Y-81252454D01*
X76254196Y-81247867D01*
X76263066Y-81245354D01*
X76272962Y-81245185D01*
X76284873Y-81247626D01*
X76299785Y-81252947D01*
X76318686Y-81261414D01*
X76342563Y-81273297D01*
X76372405Y-81288863D01*
X76399968Y-81303475D01*
X76428939Y-81318696D01*
X76455780Y-81332465D01*
X76479416Y-81344256D01*
X76498772Y-81353545D01*
X76512775Y-81359807D01*
X76520350Y-81362516D01*
X76520957Y-81362586D01*
X76527992Y-81361656D01*
X76533633Y-81357811D01*
X76539145Y-81349469D01*
X76545790Y-81335047D01*
X76548913Y-81327552D01*
X76553044Y-81317534D01*
X76560352Y-81299854D01*
X76570659Y-81274943D01*
X76583789Y-81243229D01*
X76599562Y-81205140D01*
X76617802Y-81161107D01*
X76638330Y-81111559D01*
X76660969Y-81056924D01*
X76685541Y-80997631D01*
X76711868Y-80934111D01*
X76739772Y-80866792D01*
X76769075Y-80796102D01*
X76799600Y-80722472D01*
X76801112Y-80718827D01*
X76829558Y-80650199D01*
X76854824Y-80589199D01*
X76877094Y-80535370D01*
X76896552Y-80488254D01*
X76913381Y-80447393D01*
X76927766Y-80412329D01*
X76939891Y-80382604D01*
X76949940Y-80357759D01*
X76958096Y-80337338D01*
X76964545Y-80320882D01*
X76969469Y-80307933D01*
X76973052Y-80298034D01*
X76975479Y-80290725D01*
X76976934Y-80285550D01*
X76977601Y-80282050D01*
X76977664Y-80279767D01*
X76977627Y-80279467D01*
X76975879Y-80274518D01*
X76971373Y-80268773D01*
X76963121Y-80261411D01*
X76950134Y-80251613D01*
X76931421Y-80238560D01*
X76914095Y-80226852D01*
X76853300Y-80183788D01*
X76800252Y-80141113D01*
X76754040Y-80097900D01*
X76713753Y-80053221D01*
X76678479Y-80006149D01*
X76647308Y-79955755D01*
X76646681Y-79954638D01*
X76613120Y-79885872D01*
X76587677Y-79814440D01*
X76570376Y-79741022D01*
X76561242Y-79666297D01*
X76560298Y-79590946D01*
X76567568Y-79515649D01*
X76583077Y-79441085D01*
X76606849Y-79367934D01*
X76624488Y-79326300D01*
X76639201Y-79297710D01*
X76658280Y-79265439D01*
X76679993Y-79232090D01*
X76702608Y-79200269D01*
X76724392Y-79172579D01*
X76734248Y-79161298D01*
X76791501Y-79104871D01*
X76853140Y-79055987D01*
X76919028Y-79014729D01*
X76989025Y-78981176D01*
X77062993Y-78955411D01*
X77105740Y-78944494D01*
X77121975Y-78941058D01*
X77136918Y-78938479D01*
X77152253Y-78936637D01*
X77169664Y-78935414D01*
X77190833Y-78934689D01*
X77217446Y-78934344D01*
X77250000Y-78934258D01*
X77283515Y-78934351D01*
X77309954Y-78934709D01*
X77330998Y-78935450D01*
X77348327Y-78936693D01*
X77363623Y-78938558D01*
X77378567Y-78941163D01*
X77393994Y-78944437D01*
X77469608Y-78965700D01*
X77541159Y-78994494D01*
X77608235Y-79030389D01*
X77670424Y-79072953D01*
X77727312Y-79121757D01*
X77778489Y-79176369D01*
X77823540Y-79236360D01*
X77862054Y-79301298D01*
X77893619Y-79370754D01*
X77917822Y-79444295D01*
X77931602Y-79505758D01*
X77935479Y-79534863D01*
X77937999Y-79569715D01*
X77939162Y-79607796D01*
X77938968Y-79646588D01*
X77937418Y-79683576D01*
X77934512Y-79716240D01*
X77931579Y-79735672D01*
X77919346Y-79788785D01*
X77902955Y-79842456D01*
X77883343Y-79894122D01*
X77861444Y-79941223D01*
X77847056Y-79967128D01*
X77813691Y-80017819D01*
X77776052Y-80065264D01*
X77733196Y-80110403D01*
X77684178Y-80154174D01*
X77628054Y-80197517D01*
X77585904Y-80226852D01*
X77562520Y-80242717D01*
X77545565Y-80254745D01*
X77534048Y-80263754D01*
X77526982Y-80270564D01*
X77523375Y-80275995D01*
X77522372Y-80279467D01*
X77522350Y-80281588D01*
X77522901Y-80284849D01*
X77524209Y-80289707D01*
X77526458Y-80296621D01*
X77529832Y-80306048D01*
X77534515Y-80318446D01*
X77540691Y-80334274D01*
X77548544Y-80353989D01*
X77558258Y-80378049D01*
X77570018Y-80406912D01*
X77584006Y-80441036D01*
X77600407Y-80480880D01*
X77619405Y-80526900D01*
X77641183Y-80579556D01*
X77665927Y-80639304D01*
X77693820Y-80706604D01*
X77698888Y-80718827D01*
X77729468Y-80792589D01*
X77758835Y-80863431D01*
X77786811Y-80930924D01*
X77813218Y-80994639D01*
X77837879Y-81054147D01*
X77860616Y-81109018D01*
X77881251Y-81158824D01*
X77899606Y-81203135D01*
X77915504Y-81241522D01*
X77928766Y-81273556D01*
X77939215Y-81298808D01*
X77946673Y-81316848D01*
X77950962Y-81327248D01*
X77951086Y-81327552D01*
X77958503Y-81344732D01*
X77964301Y-81355224D01*
X77969743Y-81360610D01*
X77976093Y-81362473D01*
X77979042Y-81362586D01*
X77985318Y-81360587D01*
X77998220Y-81354939D01*
X78016673Y-81346167D01*
X78039602Y-81334796D01*
X78065935Y-81321351D01*
X78094595Y-81306358D01*
X78100031Y-81303475D01*
X78135396Y-81284838D01*
X78163903Y-81270195D01*
X78186305Y-81259195D01*
X78203350Y-81251490D01*
X78215789Y-81246732D01*
X78224372Y-81244572D01*
X78227171Y-81244354D01*
X78238944Y-81246163D01*
X78252879Y-81252190D01*
X78270950Y-81263311D01*
X78273154Y-81264801D01*
X78282452Y-81271144D01*
X78298192Y-81281901D01*
X78319592Y-81296536D01*
X78345868Y-81314515D01*
X78376237Y-81335300D01*
X78409917Y-81358356D01*
X78446123Y-81383147D01*
X78484074Y-81409138D01*
X78504672Y-81423247D01*
X78552593Y-81456060D01*
X78593802Y-81484245D01*
X78628801Y-81508139D01*
X78658095Y-81528079D01*
X78682186Y-81544400D01*
X78701579Y-81557441D01*
X78716775Y-81567537D01*
X78728280Y-81575024D01*
X78736596Y-81580241D01*
X78742226Y-81583522D01*
X78745674Y-81585206D01*
X78747443Y-81585628D01*
X78747486Y-81585623D01*
X78753173Y-81583915D01*
X78757351Y-81582339D01*
X78762012Y-81578660D01*
X78772236Y-81569370D01*
X78787415Y-81555072D01*
X78806939Y-81536367D01*
X78830201Y-81513860D01*
X78856592Y-81488154D01*
X78885504Y-81459852D01*
X78916327Y-81429557D01*
X78948455Y-81397872D01*
X78981278Y-81365401D01*
X79014187Y-81332746D01*
X79046575Y-81300511D01*
X79077833Y-81269299D01*
X79107352Y-81239714D01*
X79134524Y-81212357D01*
X79158741Y-81187833D01*
X79179394Y-81166745D01*
X79195875Y-81149696D01*
X79207574Y-81137289D01*
X79213885Y-81130127D01*
X79214738Y-81128916D01*
X79218779Y-81117167D01*
X79219041Y-81106993D01*
X79215947Y-81100809D01*
X79208559Y-81088599D01*
X79197616Y-81071506D01*
X79183856Y-81050672D01*
X79168019Y-81027240D01*
X79158469Y-81013337D01*
X79137438Y-80982871D01*
X79113922Y-80948760D01*
X79089785Y-80913709D01*
X79066889Y-80880422D01*
X79047095Y-80851603D01*
X79046907Y-80851329D01*
X79027332Y-80822804D01*
X79004615Y-80789711D01*
X78980577Y-80754701D01*
X78957036Y-80720424D01*
X78935813Y-80689530D01*
X78934657Y-80687848D01*
X78917822Y-80662971D01*
X78902610Y-80639783D01*
X78889769Y-80619476D01*
X78880042Y-80603246D01*
X78874175Y-80592285D01*
X78872829Y-80588792D01*
X78872687Y-80584716D01*
X78873760Y-80578258D01*
X78876264Y-80568825D01*
X78880416Y-80555829D01*
X78886433Y-80538679D01*
X78894532Y-80516784D01*
X78904930Y-80489555D01*
X78917844Y-80456401D01*
X78933491Y-80416731D01*
X78952087Y-80369957D01*
X78966874Y-80332926D01*
X78984427Y-80289127D01*
X79001114Y-80247681D01*
X79016638Y-80209315D01*
X79030700Y-80174757D01*
X79043002Y-80144737D01*
X79053245Y-80119981D01*
X79061131Y-80101219D01*
X79066362Y-80089179D01*
X79068596Y-80084634D01*
X79074918Y-80078832D01*
X79084379Y-80073658D01*
X79098141Y-80068752D01*
X79117363Y-80063754D01*
X79143206Y-80058301D01*
X79168835Y-80053479D01*
X79222176Y-80043736D01*
X79275962Y-80033839D01*
X79329483Y-80023922D01*
X79382033Y-80014121D01*
X79432903Y-80004571D01*
X79481385Y-79995407D01*
X79526772Y-79986765D01*
X79568354Y-79978780D01*
X79605424Y-79971587D01*
X79637274Y-79965321D01*
X79663196Y-79960117D01*
X79682483Y-79956111D01*
X79694425Y-79953439D01*
X79698209Y-79952354D01*
X79706035Y-79945414D01*
X79708467Y-79941263D01*
X79708993Y-79935602D01*
X79709458Y-79922080D01*
X79709862Y-79901539D01*
X79710206Y-79874817D01*
X79710491Y-79842754D01*
X79710718Y-79806190D01*
X79710887Y-79765964D01*
X79711000Y-79722917D01*
X79711057Y-79677888D01*
X79711060Y-79631716D01*
X79711008Y-79585241D01*
X79710903Y-79539303D01*
X79710746Y-79494741D01*
X79710537Y-79452396D01*
X79710278Y-79413106D01*
X79709969Y-79377712D01*
X79709610Y-79347053D01*
X79709204Y-79321968D01*
X79708750Y-79303298D01*
X79708249Y-79291882D01*
X79707820Y-79288543D01*
X79704385Y-79284755D01*
X79698798Y-79281249D01*
X79690098Y-79277772D01*
X79677321Y-79274067D01*
X79659506Y-79269880D01*
X79635690Y-79264955D01*
X79604911Y-79259036D01*
X79577027Y-79253857D01*
X79539874Y-79247014D01*
X79498817Y-79239445D01*
X79456800Y-79231692D01*
X79416768Y-79224299D01*
X79381666Y-79217810D01*
X79373965Y-79216385D01*
X79343728Y-79210797D01*
X79314009Y-79205319D01*
X79286734Y-79200306D01*
X79263828Y-79196112D01*
X79247215Y-79193089D01*
X79244775Y-79192649D01*
X79201165Y-79184757D01*
X79165342Y-79178158D01*
X79136467Y-79172649D01*
X79113697Y-79168029D01*
X79096190Y-79164094D01*
X79083105Y-79160642D01*
X79073600Y-79157472D01*
X79066834Y-79154380D01*
X79061965Y-79151163D01*
X79058333Y-79147813D01*
X79053972Y-79141020D01*
X79046734Y-79127095D01*
X79037007Y-79106943D01*
X79025178Y-79081471D01*
X79011635Y-79051587D01*
X78996767Y-79018196D01*
X78980961Y-78982206D01*
X78964605Y-78944523D01*
X78948088Y-78906054D01*
X78931797Y-78867706D01*
X78916120Y-78830385D01*
X78901444Y-78794999D01*
X78888159Y-78762453D01*
X78876651Y-78733655D01*
X78867310Y-78709511D01*
X78860522Y-78690928D01*
X78856675Y-78678813D01*
X78855937Y-78674743D01*
X78855980Y-78671752D01*
X78856133Y-78668974D01*
X78856717Y-78665921D01*
X78858049Y-78662103D01*
X78860447Y-78657033D01*
X78864228Y-78650223D01*
X78869713Y-78641183D01*
X78877217Y-78629425D01*
X78887060Y-78614462D01*
X78899560Y-78595803D01*
X78915034Y-78572962D01*
X78933802Y-78545450D01*
X78956180Y-78512777D01*
X78982487Y-78474457D01*
X79013042Y-78429999D01*
X79048162Y-78378917D01*
X79056659Y-78366557D01*
X79084513Y-78325901D01*
X79110909Y-78287107D01*
X79135420Y-78250817D01*
X79157620Y-78217676D01*
X79177082Y-78188327D01*
X79193382Y-78163413D01*
X79206092Y-78143579D01*
X79214788Y-78129467D01*
X79219042Y-78121722D01*
X79219385Y-78120755D01*
X79219610Y-78118079D01*
X79218979Y-78114934D01*
X79217081Y-78110883D01*
X79213507Y-78105489D01*
X79207849Y-78098316D01*
X79199696Y-78088925D01*
X79188639Y-78076880D01*
X79174269Y-78061743D01*
X79156177Y-78043078D01*
X79133953Y-78020447D01*
X79107188Y-77993414D01*
X79075473Y-77961541D01*
X79038398Y-77924391D01*
X78995553Y-77881526D01*
X78992454Y-77878427D01*
X78948751Y-77834756D01*
X78910786Y-77796903D01*
X78878131Y-77764464D01*
X78850361Y-77737037D01*
X78827048Y-77714216D01*
X78807765Y-77695599D01*
X78792086Y-77680782D01*
X78779584Y-77669361D01*
X78769831Y-77660934D01*
X78762401Y-77655095D01*
X78756867Y-77651442D01*
X78752802Y-77649572D01*
X78749867Y-77649078D01*
X78745497Y-77650308D01*
X78737727Y-77654108D01*
X78726165Y-77660731D01*
X78710425Y-77670433D01*
X78690115Y-77683469D01*
X78664847Y-77700094D01*
X78634232Y-77720565D01*
X78597881Y-77745135D01*
X78555405Y-77774060D01*
X78506413Y-77807595D01*
X78469638Y-77832848D01*
X78426083Y-77862701D01*
X78384382Y-77891117D01*
X78345132Y-77917700D01*
X78308930Y-77942054D01*
X78276373Y-77963781D01*
X78248058Y-77982485D01*
X78224582Y-77997770D01*
X78206541Y-78009238D01*
X78194534Y-78016494D01*
X78189251Y-78019125D01*
X78184434Y-78019197D01*
X78176848Y-78017779D01*
X78165807Y-78014619D01*
X78150624Y-78009465D01*
X78130612Y-78002067D01*
X78105083Y-77992173D01*
X78073350Y-77979530D01*
X78034727Y-77963888D01*
X78003130Y-77950981D01*
X77964253Y-77935069D01*
X77926036Y-77919448D01*
X77889652Y-77904595D01*
X77856275Y-77890987D01*
X77827075Y-77879103D01*
X77803225Y-77869420D01*
X77785899Y-77862417D01*
X77781612Y-77860695D01*
X77759376Y-77851139D01*
X77740494Y-77841781D01*
X77726833Y-77833598D01*
X77721637Y-77829370D01*
X77719024Y-77826222D01*
X77716534Y-77821998D01*
X77714005Y-77815978D01*
X77711276Y-77807443D01*
X77708186Y-77795672D01*
X77704572Y-77779946D01*
X77700274Y-77759544D01*
X77695129Y-77733746D01*
X77688978Y-77701833D01*
X77681657Y-77663083D01*
X77673005Y-77616778D01*
X77668396Y-77592000D01*
X77660207Y-77547962D01*
X77652381Y-77505928D01*
X77645087Y-77466802D01*
X77638494Y-77431486D01*
X77632770Y-77400882D01*
X77628084Y-77375895D01*
X77624605Y-77357426D01*
X77622502Y-77346380D01*
X77622149Y-77344569D01*
X77619079Y-77328801D01*
X77615261Y-77308847D01*
X77611673Y-77289827D01*
X77607899Y-77269676D01*
X77603342Y-77245386D01*
X77598842Y-77221428D01*
X77597761Y-77215677D01*
X77592739Y-77192973D01*
X77587448Y-77176199D01*
X77582323Y-77166717D01*
X77582031Y-77166410D01*
X77580176Y-77164905D01*
X77577431Y-77163602D01*
X77573196Y-77162486D01*
X77566866Y-77161544D01*
X77557839Y-77160760D01*
X77545513Y-77160121D01*
X77529285Y-77159611D01*
X77508553Y-77159216D01*
X77482714Y-77158921D01*
X77451166Y-77158713D01*
X77413305Y-77158576D01*
X77368530Y-77158496D01*
X77316238Y-77158458D01*
X77255827Y-77158448D01*
X77251901Y-77158448D01*
X77183027Y-77158510D01*
G36*
X85712976Y-46180989D02*
X85708539Y-46189080D01*
X85699010Y-46209899D01*
X85683496Y-46245512D01*
X85661107Y-46297982D01*
X85630950Y-46369376D01*
X85606322Y-46427952D01*
X85587674Y-46472075D01*
X85569442Y-46514764D01*
X85562535Y-46530762D01*
X85533688Y-46598588D01*
X85506855Y-46664304D01*
X85483635Y-46723733D01*
X85465624Y-46772701D01*
X85454419Y-46807033D01*
X85451428Y-46821189D01*
X85456570Y-46846187D01*
X85468591Y-46876641D01*
X85479155Y-46899056D01*
X85495703Y-46935409D01*
X85519046Y-46987519D01*
X85549996Y-47057203D01*
X85589366Y-47146282D01*
X85613954Y-47202047D01*
X85627414Y-47232588D01*
X85646135Y-47275054D01*
X85662395Y-47311935D01*
X85683845Y-47355538D01*
X85704231Y-47382670D01*
X85729170Y-47400107D01*
X85739447Y-47404928D01*
X85758571Y-47412084D01*
X85798574Y-47426135D01*
X85857373Y-47446376D01*
X85932880Y-47472102D01*
X86023012Y-47502606D01*
X86125682Y-47537184D01*
X86238806Y-47575131D01*
X86360298Y-47615740D01*
X86488072Y-47658307D01*
X86515809Y-47667529D01*
X86643929Y-47710152D01*
X86765663Y-47750727D01*
X86878999Y-47788581D01*
X86981926Y-47823037D01*
X87072434Y-47853420D01*
X87148511Y-47879056D01*
X87208146Y-47899268D01*
X87249329Y-47913381D01*
X87270049Y-47920719D01*
X87271762Y-47921402D01*
X87295109Y-47930231D01*
X87333480Y-47943302D01*
X87378743Y-47957850D01*
X87380619Y-47958435D01*
X87512737Y-48007059D01*
X87641062Y-48070525D01*
X87673717Y-48089198D01*
X87749101Y-48133381D01*
X87749314Y-48205952D01*
X87745936Y-48258161D01*
X87736387Y-48327587D01*
X87721912Y-48408420D01*
X87703758Y-48494853D01*
X87683169Y-48581076D01*
X87661392Y-48661279D01*
X87639672Y-48729656D01*
X87633229Y-48747320D01*
X87614771Y-48796170D01*
X87599552Y-48836848D01*
X87589632Y-48863826D01*
X87587064Y-48871190D01*
X87569826Y-48917594D01*
X87542562Y-48979927D01*
X87507726Y-49053394D01*
X87467773Y-49133202D01*
X87425157Y-49214556D01*
X87382330Y-49292662D01*
X87341748Y-49362727D01*
X87307164Y-49417995D01*
X87235226Y-49515579D01*
X87152595Y-49608644D01*
X87063555Y-49693330D01*
X86972391Y-49765778D01*
X86883387Y-49822127D01*
X86830286Y-49847650D01*
X86720166Y-49881864D01*
X86596944Y-49900460D01*
X86466126Y-49903278D01*
X86333217Y-49890157D01*
X86219476Y-49865459D01*
X86164571Y-49849730D01*
X86100463Y-49830627D01*
X86032171Y-49809728D01*
X85964714Y-49788612D01*
X85903108Y-49768858D01*
X85852373Y-49752046D01*
X85817528Y-49739754D01*
X85808238Y-49736062D01*
X85780998Y-49725836D01*
X85744159Y-49713765D01*
X85735667Y-49711191D01*
X85714822Y-49705486D01*
X85698484Y-49700403D01*
X85687111Y-49693499D01*
X85681160Y-49682334D01*
X85681085Y-49664465D01*
X85687345Y-49637452D01*
X85700397Y-49598852D01*
X85720696Y-49546225D01*
X85748699Y-49477128D01*
X85784864Y-49389121D01*
X85805158Y-49339682D01*
X85824715Y-49293728D01*
X85842035Y-49256190D01*
X85854377Y-49232887D01*
X85857422Y-49228739D01*
X85876141Y-49225459D01*
X85909327Y-49233020D01*
X85917095Y-49235759D01*
X85952279Y-49248100D01*
X86001022Y-49264272D01*
X86053727Y-49281104D01*
X86062238Y-49283755D01*
X86110274Y-49299062D01*
X86151688Y-49312983D01*
X86179176Y-49323043D01*
X86183190Y-49324744D01*
X86207020Y-49333868D01*
X86245377Y-49346871D01*
X86286000Y-49359712D01*
X86320409Y-49370606D01*
X86373226Y-49387825D01*
X86439965Y-49409881D01*
X86516138Y-49435289D01*
X86597261Y-49462562D01*
X86635933Y-49475640D01*
X86712889Y-49501321D01*
X86782503Y-49523803D01*
X86841424Y-49542064D01*
X86886302Y-49555083D01*
X86913788Y-49561840D01*
X86920666Y-49562420D01*
X86929510Y-49550005D01*
X86945435Y-49518932D01*
X86966643Y-49473047D01*
X86991338Y-49416194D01*
X87009926Y-49371469D01*
X87037192Y-49305084D01*
X87063054Y-49242873D01*
X87085375Y-49189918D01*
X87102020Y-49151302D01*
X87108321Y-49137285D01*
X87127502Y-49093907D01*
X87147212Y-49046071D01*
X87151733Y-49034476D01*
X87166134Y-48999908D01*
X87178725Y-48974681D01*
X87182866Y-48968557D01*
X87191291Y-48945849D01*
X87192372Y-48914115D01*
X87186089Y-48887383D01*
X87182986Y-48882681D01*
X87172168Y-48864369D01*
X87158780Y-48834303D01*
X87156653Y-48828857D01*
X87142464Y-48793459D01*
X87123535Y-48748368D01*
X87111256Y-48720000D01*
X87086366Y-48663453D01*
X87058016Y-48599236D01*
X87028913Y-48533455D01*
X87001760Y-48472217D01*
X86979261Y-48421631D01*
X86965444Y-48390738D01*
X86944299Y-48357609D01*
X86918794Y-48335741D01*
X86914952Y-48333993D01*
X86896806Y-48327580D01*
X86858475Y-48314490D01*
X86802739Y-48295657D01*
X86732374Y-48272013D01*
X86650159Y-48244492D01*
X86558873Y-48214028D01*
X86461381Y-48181584D01*
X86364112Y-48149197D01*
X86273412Y-48118878D01*
X86192007Y-48091549D01*
X86122627Y-48068129D01*
X86068000Y-48049541D01*
X86030853Y-48036705D01*
X86013915Y-48030543D01*
X86013857Y-48030518D01*
X85994555Y-48023470D01*
X85956610Y-48010602D01*
X85904445Y-47993380D01*
X85842485Y-47973268D01*
X85796143Y-47958411D01*
X85729985Y-47937130D01*
X85670560Y-47917681D01*
X85622292Y-47901537D01*
X85589605Y-47890173D01*
X85578428Y-47885880D01*
X85555055Y-47877030D01*
X85516640Y-47864048D01*
X85471336Y-47849684D01*
X85469571Y-47849143D01*
X85424174Y-47834856D01*
X85385350Y-47821963D01*
X85361244Y-47813171D01*
X85360714Y-47812949D01*
X85340800Y-47805536D01*
X85303745Y-47792582D01*
X85255403Y-47776067D01*
X85201625Y-47757967D01*
X85148264Y-47740261D01*
X85101173Y-47724927D01*
X85085694Y-47719993D01*
X85064681Y-47723228D01*
X85056730Y-47735889D01*
X85047540Y-47759839D01*
X85031347Y-47800101D01*
X85010616Y-47850728D01*
X84987811Y-47905771D01*
X84965394Y-47959281D01*
X84945831Y-48005310D01*
X84932166Y-48036619D01*
X84918847Y-48067580D01*
X84899445Y-48114265D01*
X84876751Y-48169897D01*
X84857402Y-48218047D01*
X84835960Y-48270311D01*
X84817058Y-48313636D01*
X84802771Y-48343445D01*
X84795262Y-48355127D01*
X84786764Y-48369056D01*
X84786190Y-48374756D01*
X84781190Y-48395594D01*
X84767508Y-48433144D01*
X84747119Y-48482403D01*
X84722001Y-48538369D01*
X84719082Y-48544619D01*
X84706949Y-48572096D01*
X84689009Y-48614643D01*
X84668370Y-48664844D01*
X84659495Y-48686797D01*
X84637635Y-48740542D01*
X84616165Y-48792264D01*
X84598686Y-48833323D01*
X84593971Y-48844035D01*
X84580215Y-48875727D01*
X84560113Y-48923195D01*
X84536452Y-48979817D01*
X84513862Y-49034476D01*
X84488846Y-49094906D01*
X84464271Y-49153496D01*
X84443138Y-49203132D01*
X84429642Y-49234047D01*
X84410248Y-49279532D01*
X84392182Y-49325346D01*
X84385805Y-49342905D01*
X84373111Y-49374704D01*
X84361664Y-49395670D01*
X84358865Y-49398685D01*
X84349849Y-49412058D01*
X84349867Y-49413862D01*
X84346354Y-49429042D01*
X84336172Y-49457031D01*
X84332757Y-49465392D01*
X84321120Y-49494212D01*
X84314835Y-49511666D01*
X84314476Y-49513357D01*
X84309851Y-49525699D01*
X84297842Y-49553481D01*
X84284238Y-49583676D01*
X84268162Y-49619892D01*
X84257196Y-49646648D01*
X84254000Y-49656737D01*
X84249397Y-49670978D01*
X84237743Y-49699061D01*
X84230651Y-49714965D01*
X84196625Y-49790695D01*
X84172198Y-49848141D01*
X84156328Y-49890742D01*
X84147974Y-49921940D01*
X84146093Y-49945175D01*
X84149645Y-49963886D01*
X84152839Y-49971974D01*
X84187329Y-50049209D01*
X84227047Y-50138838D01*
X84267645Y-50231036D01*
X84283926Y-50268190D01*
X84321669Y-50353887D01*
X84351120Y-50419289D01*
X84373285Y-50466434D01*
X84389170Y-50497359D01*
X84399782Y-50514103D01*
X84406125Y-50518701D01*
X84407311Y-50518054D01*
X84422209Y-50516992D01*
X84428268Y-50520450D01*
X84446526Y-50529405D01*
X84479693Y-50541813D01*
X84508000Y-50551049D01*
X84549253Y-50564265D01*
X84584044Y-50576326D01*
X84598714Y-50582042D01*
X84617651Y-50589047D01*
X84655452Y-50602059D01*
X84707955Y-50619679D01*
X84770994Y-50640509D01*
X84834571Y-50661258D01*
X84916416Y-50687973D01*
X85003742Y-50716746D01*
X85088560Y-50744928D01*
X85162882Y-50769869D01*
X85197428Y-50781600D01*
X85341679Y-50830650D01*
X85468886Y-50873366D01*
X85584749Y-50911656D01*
X85632857Y-50927349D01*
X85723559Y-50956845D01*
X85794624Y-50980027D01*
X85849431Y-50998020D01*
X85891362Y-51011947D01*
X85923799Y-51022935D01*
X85950120Y-51032107D01*
X85973708Y-51040587D01*
X85977571Y-51041997D01*
X86012343Y-51054143D01*
X86063571Y-51071319D01*
X86124628Y-51091332D01*
X86188884Y-51111989D01*
X86195286Y-51114023D01*
X86257003Y-51133618D01*
X86313814Y-51151669D01*
X86359988Y-51166353D01*
X86389793Y-51175849D01*
X86392773Y-51176801D01*
X86419152Y-51183878D01*
X86463669Y-51194385D01*
X86520732Y-51207057D01*
X86584747Y-51220630D01*
X86604440Y-51224681D01*
X86683822Y-51240012D01*
X86749366Y-51250081D01*
X86810612Y-51255829D01*
X86877104Y-51258195D01*
X86945190Y-51258247D01*
X87015934Y-51256527D01*
X87086579Y-51252874D01*
X87149347Y-51247807D01*
X87196459Y-51241846D01*
X87199900Y-51241241D01*
X87256784Y-51229857D01*
X87316843Y-51216280D01*
X87357138Y-51206081D01*
X87398398Y-51194914D01*
X87431813Y-51186017D01*
X87447143Y-51182071D01*
X87499820Y-51165391D01*
X87567123Y-51138258D01*
X87643332Y-51103303D01*
X87722728Y-51063158D01*
X87799591Y-51020455D01*
X87803952Y-51017895D01*
X87901962Y-50951610D01*
X88005025Y-50866332D01*
X88109769Y-50765740D01*
X88212818Y-50653517D01*
X88310799Y-50533342D01*
X88400337Y-50408898D01*
X88478059Y-50283864D01*
X88480092Y-50280285D01*
X88501831Y-50240439D01*
X88528430Y-50189454D01*
X88557865Y-50131473D01*
X88588115Y-50070639D01*
X88617156Y-50011093D01*
X88642965Y-49956980D01*
X88663520Y-49912441D01*
X88676798Y-49881618D01*
X88680857Y-49869132D01*
X88685508Y-49852570D01*
X88697525Y-49821719D01*
X88709610Y-49793811D01*
X88736237Y-49728749D01*
X88765997Y-49646202D01*
X88797004Y-49552351D01*
X88827369Y-49453375D01*
X88855205Y-49355452D01*
X88878623Y-49264763D01*
X88895737Y-49187486D01*
X88897238Y-49179619D01*
X88906272Y-49124792D01*
X88915248Y-49059016D01*
X88923680Y-48987372D01*
X88931082Y-48914938D01*
X88936969Y-48846795D01*
X88940855Y-48788022D01*
X88942256Y-48743699D01*
X88941073Y-48720837D01*
X88934306Y-48676894D01*
X88928740Y-48635333D01*
X88924110Y-48596790D01*
X88918462Y-48549926D01*
X88916360Y-48532524D01*
X88897021Y-48430751D01*
X88861674Y-48314027D01*
X88810003Y-48181382D01*
X88776361Y-48105323D01*
X88758930Y-48066490D01*
X88746386Y-48037027D01*
X88741342Y-48023084D01*
X88741333Y-48022931D01*
X88736665Y-48009573D01*
X88724600Y-47981247D01*
X88712399Y-47954227D01*
X88693852Y-47913190D01*
X88670190Y-47859716D01*
X88645754Y-47803633D01*
X88639306Y-47788666D01*
X88606590Y-47715491D01*
X88571423Y-47641947D01*
X88535962Y-47572079D01*
X88502362Y-47509931D01*
X88472779Y-47459547D01*
X88449370Y-47424971D01*
X88439426Y-47413714D01*
X88428785Y-47401148D01*
X88409386Y-47376168D01*
X88398276Y-47361414D01*
X88314156Y-47264353D01*
X88208390Y-47168559D01*
X88083523Y-47075650D01*
X87942096Y-46987247D01*
X87786652Y-46904967D01*
X87619735Y-46830432D01*
X87483428Y-46778788D01*
X87422744Y-46757393D01*
X87368695Y-46738077D01*
X87326167Y-46722605D01*
X87300044Y-46712741D01*
X87295952Y-46711059D01*
X87273660Y-46702857D01*
X87235151Y-46690106D01*
X87187411Y-46675093D01*
X87168952Y-46669467D01*
X87119562Y-46654083D01*
X87076844Y-46639938D01*
X87047791Y-46629377D01*
X87041952Y-46626870D01*
X87019334Y-46618018D01*
X86980840Y-46604800D01*
X86933792Y-46589706D01*
X86921000Y-46585762D01*
X86884832Y-46574275D01*
X86829622Y-46556169D01*
X86759193Y-46532728D01*
X86677369Y-46505231D01*
X86587971Y-46474959D01*
X86494825Y-46443193D01*
X86467428Y-46433806D01*
X86375408Y-46402314D01*
X86287375Y-46372320D01*
X86206863Y-46345019D01*
X86137408Y-46321605D01*
X86082546Y-46303273D01*
X86045812Y-46291217D01*
X86038047Y-46288749D01*
X85959729Y-46263900D01*
X85887327Y-46240200D01*
X85825003Y-46219063D01*
X85776918Y-46201905D01*
X85747235Y-46190141D01*
X85744756Y-46188992D01*
X85722569Y-46180867D01*
X85712976Y-46180989D01*
X85712976Y-46180989D01*
G37*
X85712976Y-46180989D02*
X85708539Y-46189080D01*
X85699010Y-46209899D01*
X85683496Y-46245512D01*
X85661107Y-46297982D01*
X85630950Y-46369376D01*
X85606322Y-46427952D01*
X85587674Y-46472075D01*
X85569442Y-46514764D01*
X85562535Y-46530762D01*
X85533688Y-46598588D01*
X85506855Y-46664304D01*
X85483635Y-46723733D01*
X85465624Y-46772701D01*
X85454419Y-46807033D01*
X85451428Y-46821189D01*
X85456570Y-46846187D01*
X85468591Y-46876641D01*
X85479155Y-46899056D01*
X85495703Y-46935409D01*
X85519046Y-46987519D01*
X85549996Y-47057203D01*
X85589366Y-47146282D01*
X85613954Y-47202047D01*
X85627414Y-47232588D01*
X85646135Y-47275054D01*
X85662395Y-47311935D01*
X85683845Y-47355538D01*
X85704231Y-47382670D01*
X85729170Y-47400107D01*
X85739447Y-47404928D01*
X85758571Y-47412084D01*
X85798574Y-47426135D01*
X85857373Y-47446376D01*
X85932880Y-47472102D01*
X86023012Y-47502606D01*
X86125682Y-47537184D01*
X86238806Y-47575131D01*
X86360298Y-47615740D01*
X86488072Y-47658307D01*
X86515809Y-47667529D01*
X86643929Y-47710152D01*
X86765663Y-47750727D01*
X86878999Y-47788581D01*
X86981926Y-47823037D01*
X87072434Y-47853420D01*
X87148511Y-47879056D01*
X87208146Y-47899268D01*
X87249329Y-47913381D01*
X87270049Y-47920719D01*
X87271762Y-47921402D01*
X87295109Y-47930231D01*
X87333480Y-47943302D01*
X87378743Y-47957850D01*
X87380619Y-47958435D01*
X87512737Y-48007059D01*
X87641062Y-48070525D01*
X87673717Y-48089198D01*
X87749101Y-48133381D01*
X87749314Y-48205952D01*
X87745936Y-48258161D01*
X87736387Y-48327587D01*
X87721912Y-48408420D01*
X87703758Y-48494853D01*
X87683169Y-48581076D01*
X87661392Y-48661279D01*
X87639672Y-48729656D01*
X87633229Y-48747320D01*
X87614771Y-48796170D01*
X87599552Y-48836848D01*
X87589632Y-48863826D01*
X87587064Y-48871190D01*
X87569826Y-48917594D01*
X87542562Y-48979927D01*
X87507726Y-49053394D01*
X87467773Y-49133202D01*
X87425157Y-49214556D01*
X87382330Y-49292662D01*
X87341748Y-49362727D01*
X87307164Y-49417995D01*
X87235226Y-49515579D01*
X87152595Y-49608644D01*
X87063555Y-49693330D01*
X86972391Y-49765778D01*
X86883387Y-49822127D01*
X86830286Y-49847650D01*
X86720166Y-49881864D01*
X86596944Y-49900460D01*
X86466126Y-49903278D01*
X86333217Y-49890157D01*
X86219476Y-49865459D01*
X86164571Y-49849730D01*
X86100463Y-49830627D01*
X86032171Y-49809728D01*
X85964714Y-49788612D01*
X85903108Y-49768858D01*
X85852373Y-49752046D01*
X85817528Y-49739754D01*
X85808238Y-49736062D01*
X85780998Y-49725836D01*
X85744159Y-49713765D01*
X85735667Y-49711191D01*
X85714822Y-49705486D01*
X85698484Y-49700403D01*
X85687111Y-49693499D01*
X85681160Y-49682334D01*
X85681085Y-49664465D01*
X85687345Y-49637452D01*
X85700397Y-49598852D01*
X85720696Y-49546225D01*
X85748699Y-49477128D01*
X85784864Y-49389121D01*
X85805158Y-49339682D01*
X85824715Y-49293728D01*
X85842035Y-49256190D01*
X85854377Y-49232887D01*
X85857422Y-49228739D01*
X85876141Y-49225459D01*
X85909327Y-49233020D01*
X85917095Y-49235759D01*
X85952279Y-49248100D01*
X86001022Y-49264272D01*
X86053727Y-49281104D01*
X86062238Y-49283755D01*
X86110274Y-49299062D01*
X86151688Y-49312983D01*
X86179176Y-49323043D01*
X86183190Y-49324744D01*
X86207020Y-49333868D01*
X86245377Y-49346871D01*
X86286000Y-49359712D01*
X86320409Y-49370606D01*
X86373226Y-49387825D01*
X86439965Y-49409881D01*
X86516138Y-49435289D01*
X86597261Y-49462562D01*
X86635933Y-49475640D01*
X86712889Y-49501321D01*
X86782503Y-49523803D01*
X86841424Y-49542064D01*
X86886302Y-49555083D01*
X86913788Y-49561840D01*
X86920666Y-49562420D01*
X86929510Y-49550005D01*
X86945435Y-49518932D01*
X86966643Y-49473047D01*
X86991338Y-49416194D01*
X87009926Y-49371469D01*
X87037192Y-49305084D01*
X87063054Y-49242873D01*
X87085375Y-49189918D01*
X87102020Y-49151302D01*
X87108321Y-49137285D01*
X87127502Y-49093907D01*
X87147212Y-49046071D01*
X87151733Y-49034476D01*
X87166134Y-48999908D01*
X87178725Y-48974681D01*
X87182866Y-48968557D01*
X87191291Y-48945849D01*
X87192372Y-48914115D01*
X87186089Y-48887383D01*
X87182986Y-48882681D01*
X87172168Y-48864369D01*
X87158780Y-48834303D01*
X87156653Y-48828857D01*
X87142464Y-48793459D01*
X87123535Y-48748368D01*
X87111256Y-48720000D01*
X87086366Y-48663453D01*
X87058016Y-48599236D01*
X87028913Y-48533455D01*
X87001760Y-48472217D01*
X86979261Y-48421631D01*
X86965444Y-48390738D01*
X86944299Y-48357609D01*
X86918794Y-48335741D01*
X86914952Y-48333993D01*
X86896806Y-48327580D01*
X86858475Y-48314490D01*
X86802739Y-48295657D01*
X86732374Y-48272013D01*
X86650159Y-48244492D01*
X86558873Y-48214028D01*
X86461381Y-48181584D01*
X86364112Y-48149197D01*
X86273412Y-48118878D01*
X86192007Y-48091549D01*
X86122627Y-48068129D01*
X86068000Y-48049541D01*
X86030853Y-48036705D01*
X86013915Y-48030543D01*
X86013857Y-48030518D01*
X85994555Y-48023470D01*
X85956610Y-48010602D01*
X85904445Y-47993380D01*
X85842485Y-47973268D01*
X85796143Y-47958411D01*
X85729985Y-47937130D01*
X85670560Y-47917681D01*
X85622292Y-47901537D01*
X85589605Y-47890173D01*
X85578428Y-47885880D01*
X85555055Y-47877030D01*
X85516640Y-47864048D01*
X85471336Y-47849684D01*
X85469571Y-47849143D01*
X85424174Y-47834856D01*
X85385350Y-47821963D01*
X85361244Y-47813171D01*
X85360714Y-47812949D01*
X85340800Y-47805536D01*
X85303745Y-47792582D01*
X85255403Y-47776067D01*
X85201625Y-47757967D01*
X85148264Y-47740261D01*
X85101173Y-47724927D01*
X85085694Y-47719993D01*
X85064681Y-47723228D01*
X85056730Y-47735889D01*
X85047540Y-47759839D01*
X85031347Y-47800101D01*
X85010616Y-47850728D01*
X84987811Y-47905771D01*
X84965394Y-47959281D01*
X84945831Y-48005310D01*
X84932166Y-48036619D01*
X84918847Y-48067580D01*
X84899445Y-48114265D01*
X84876751Y-48169897D01*
X84857402Y-48218047D01*
X84835960Y-48270311D01*
X84817058Y-48313636D01*
X84802771Y-48343445D01*
X84795262Y-48355127D01*
X84786764Y-48369056D01*
X84786190Y-48374756D01*
X84781190Y-48395594D01*
X84767508Y-48433144D01*
X84747119Y-48482403D01*
X84722001Y-48538369D01*
X84719082Y-48544619D01*
X84706949Y-48572096D01*
X84689009Y-48614643D01*
X84668370Y-48664844D01*
X84659495Y-48686797D01*
X84637635Y-48740542D01*
X84616165Y-48792264D01*
X84598686Y-48833323D01*
X84593971Y-48844035D01*
X84580215Y-48875727D01*
X84560113Y-48923195D01*
X84536452Y-48979817D01*
X84513862Y-49034476D01*
X84488846Y-49094906D01*
X84464271Y-49153496D01*
X84443138Y-49203132D01*
X84429642Y-49234047D01*
X84410248Y-49279532D01*
X84392182Y-49325346D01*
X84385805Y-49342905D01*
X84373111Y-49374704D01*
X84361664Y-49395670D01*
X84358865Y-49398685D01*
X84349849Y-49412058D01*
X84349867Y-49413862D01*
X84346354Y-49429042D01*
X84336172Y-49457031D01*
X84332757Y-49465392D01*
X84321120Y-49494212D01*
X84314835Y-49511666D01*
X84314476Y-49513357D01*
X84309851Y-49525699D01*
X84297842Y-49553481D01*
X84284238Y-49583676D01*
X84268162Y-49619892D01*
X84257196Y-49646648D01*
X84254000Y-49656737D01*
X84249397Y-49670978D01*
X84237743Y-49699061D01*
X84230651Y-49714965D01*
X84196625Y-49790695D01*
X84172198Y-49848141D01*
X84156328Y-49890742D01*
X84147974Y-49921940D01*
X84146093Y-49945175D01*
X84149645Y-49963886D01*
X84152839Y-49971974D01*
X84187329Y-50049209D01*
X84227047Y-50138838D01*
X84267645Y-50231036D01*
X84283926Y-50268190D01*
X84321669Y-50353887D01*
X84351120Y-50419289D01*
X84373285Y-50466434D01*
X84389170Y-50497359D01*
X84399782Y-50514103D01*
X84406125Y-50518701D01*
X84407311Y-50518054D01*
X84422209Y-50516992D01*
X84428268Y-50520450D01*
X84446526Y-50529405D01*
X84479693Y-50541813D01*
X84508000Y-50551049D01*
X84549253Y-50564265D01*
X84584044Y-50576326D01*
X84598714Y-50582042D01*
X84617651Y-50589047D01*
X84655452Y-50602059D01*
X84707955Y-50619679D01*
X84770994Y-50640509D01*
X84834571Y-50661258D01*
X84916416Y-50687973D01*
X85003742Y-50716746D01*
X85088560Y-50744928D01*
X85162882Y-50769869D01*
X85197428Y-50781600D01*
X85341679Y-50830650D01*
X85468886Y-50873366D01*
X85584749Y-50911656D01*
X85632857Y-50927349D01*
X85723559Y-50956845D01*
X85794624Y-50980027D01*
X85849431Y-50998020D01*
X85891362Y-51011947D01*
X85923799Y-51022935D01*
X85950120Y-51032107D01*
X85973708Y-51040587D01*
X85977571Y-51041997D01*
X86012343Y-51054143D01*
X86063571Y-51071319D01*
X86124628Y-51091332D01*
X86188884Y-51111989D01*
X86195286Y-51114023D01*
X86257003Y-51133618D01*
X86313814Y-51151669D01*
X86359988Y-51166353D01*
X86389793Y-51175849D01*
X86392773Y-51176801D01*
X86419152Y-51183878D01*
X86463669Y-51194385D01*
X86520732Y-51207057D01*
X86584747Y-51220630D01*
X86604440Y-51224681D01*
X86683822Y-51240012D01*
X86749366Y-51250081D01*
X86810612Y-51255829D01*
X86877104Y-51258195D01*
X86945190Y-51258247D01*
X87015934Y-51256527D01*
X87086579Y-51252874D01*
X87149347Y-51247807D01*
X87196459Y-51241846D01*
X87199900Y-51241241D01*
X87256784Y-51229857D01*
X87316843Y-51216280D01*
X87357138Y-51206081D01*
X87398398Y-51194914D01*
X87431813Y-51186017D01*
X87447143Y-51182071D01*
X87499820Y-51165391D01*
X87567123Y-51138258D01*
X87643332Y-51103303D01*
X87722728Y-51063158D01*
X87799591Y-51020455D01*
X87803952Y-51017895D01*
X87901962Y-50951610D01*
X88005025Y-50866332D01*
X88109769Y-50765740D01*
X88212818Y-50653517D01*
X88310799Y-50533342D01*
X88400337Y-50408898D01*
X88478059Y-50283864D01*
X88480092Y-50280285D01*
X88501831Y-50240439D01*
X88528430Y-50189454D01*
X88557865Y-50131473D01*
X88588115Y-50070639D01*
X88617156Y-50011093D01*
X88642965Y-49956980D01*
X88663520Y-49912441D01*
X88676798Y-49881618D01*
X88680857Y-49869132D01*
X88685508Y-49852570D01*
X88697525Y-49821719D01*
X88709610Y-49793811D01*
X88736237Y-49728749D01*
X88765997Y-49646202D01*
X88797004Y-49552351D01*
X88827369Y-49453375D01*
X88855205Y-49355452D01*
X88878623Y-49264763D01*
X88895737Y-49187486D01*
X88897238Y-49179619D01*
X88906272Y-49124792D01*
X88915248Y-49059016D01*
X88923680Y-48987372D01*
X88931082Y-48914938D01*
X88936969Y-48846795D01*
X88940855Y-48788022D01*
X88942256Y-48743699D01*
X88941073Y-48720837D01*
X88934306Y-48676894D01*
X88928740Y-48635333D01*
X88924110Y-48596790D01*
X88918462Y-48549926D01*
X88916360Y-48532524D01*
X88897021Y-48430751D01*
X88861674Y-48314027D01*
X88810003Y-48181382D01*
X88776361Y-48105323D01*
X88758930Y-48066490D01*
X88746386Y-48037027D01*
X88741342Y-48023084D01*
X88741333Y-48022931D01*
X88736665Y-48009573D01*
X88724600Y-47981247D01*
X88712399Y-47954227D01*
X88693852Y-47913190D01*
X88670190Y-47859716D01*
X88645754Y-47803633D01*
X88639306Y-47788666D01*
X88606590Y-47715491D01*
X88571423Y-47641947D01*
X88535962Y-47572079D01*
X88502362Y-47509931D01*
X88472779Y-47459547D01*
X88449370Y-47424971D01*
X88439426Y-47413714D01*
X88428785Y-47401148D01*
X88409386Y-47376168D01*
X88398276Y-47361414D01*
X88314156Y-47264353D01*
X88208390Y-47168559D01*
X88083523Y-47075650D01*
X87942096Y-46987247D01*
X87786652Y-46904967D01*
X87619735Y-46830432D01*
X87483428Y-46778788D01*
X87422744Y-46757393D01*
X87368695Y-46738077D01*
X87326167Y-46722605D01*
X87300044Y-46712741D01*
X87295952Y-46711059D01*
X87273660Y-46702857D01*
X87235151Y-46690106D01*
X87187411Y-46675093D01*
X87168952Y-46669467D01*
X87119562Y-46654083D01*
X87076844Y-46639938D01*
X87047791Y-46629377D01*
X87041952Y-46626870D01*
X87019334Y-46618018D01*
X86980840Y-46604800D01*
X86933792Y-46589706D01*
X86921000Y-46585762D01*
X86884832Y-46574275D01*
X86829622Y-46556169D01*
X86759193Y-46532728D01*
X86677369Y-46505231D01*
X86587971Y-46474959D01*
X86494825Y-46443193D01*
X86467428Y-46433806D01*
X86375408Y-46402314D01*
X86287375Y-46372320D01*
X86206863Y-46345019D01*
X86137408Y-46321605D01*
X86082546Y-46303273D01*
X86045812Y-46291217D01*
X86038047Y-46288749D01*
X85959729Y-46263900D01*
X85887327Y-46240200D01*
X85825003Y-46219063D01*
X85776918Y-46201905D01*
X85747235Y-46190141D01*
X85744756Y-46188992D01*
X85722569Y-46180867D01*
X85712976Y-46180989D01*
D14*
X66750000Y-52250000D03*
D15*
X69750000Y-49750000D03*
X72500000Y-45500000D03*
D16*
X55710000Y-63385000D03*
D17*
X55710000Y-62115000D03*
X56980000Y-63385000D03*
X56980000Y-62115000D03*
X58250000Y-63385000D03*
X58250000Y-62115000D03*
X59520000Y-63385000D03*
X59520000Y-62115000D03*
X60790000Y-63385000D03*
X60790000Y-62115000D03*
D15*
X63250000Y-46500000D03*
X68500000Y-43500000D03*
X66250000Y-46750000D03*
X81500000Y-49750000D03*
X72500000Y-49250000D03*
X64250000Y-53750000D03*
X58250000Y-52750000D03*
X58750000Y-56250000D03*
X62500000Y-57250000D03*
X56250000Y-58250000D03*
X62750000Y-61250000D03*
X58750000Y-59750000D03*
X61250000Y-53750000D03*
X61500000Y-49250000D03*
D18*
X71125610Y-52524390D02*
X67024390Y-56625610D01*
X67024390Y-68874390D02*
X71125610Y-72975610D01*
M02*
