G04 #@! TF.FileFunction,Profile,NP*
%FSLAX46Y46*%
G04 Gerber Fmt 4.6, Leading zero omitted, Abs format (unit mm)*
G04 Created by KiCad (PCBNEW (2016-05-05 BZR 6775)-product) date 2016 June 06, Monday 00:12:01*
%MOMM*%
%LPD*%
G01*
G04 APERTURE LIST*
%ADD10C,0.020000*%
%ADD11C,0.050000*%
G04 APERTURE END LIST*
D10*
D11*
X85850000Y-71850000D02*
X85400000Y-72250000D01*
X86450000Y-71250000D02*
X85850000Y-71850000D01*
X86600000Y-71100000D02*
X86450000Y-71250000D01*
X88600000Y-71650000D02*
X88600000Y-72650000D01*
X87400000Y-71650000D02*
X87400000Y-72650000D01*
X87400000Y-52850000D02*
X87400000Y-53850000D01*
X88600000Y-52850000D02*
X88600000Y-53850000D01*
X69350000Y-70650000D02*
X70700000Y-73400000D01*
X66600000Y-69300000D02*
X69350000Y-70650000D01*
X69350000Y-54850000D02*
X70700000Y-52100000D01*
X66600000Y-56200000D02*
X69350000Y-54850000D01*
X88600000Y-59050000D02*
X88600000Y-58750000D01*
X88775000Y-59675000D02*
X88600000Y-59050000D01*
X88950000Y-60425000D02*
X88775000Y-59675000D01*
X89075000Y-61175000D02*
X88950000Y-60425000D01*
X89150000Y-61975000D02*
X89075000Y-61175000D01*
X89175000Y-62750000D02*
X89150000Y-61975000D01*
X89150000Y-63650000D02*
X89175000Y-62750000D01*
X89050000Y-64500000D02*
X89150000Y-63650000D01*
X88950000Y-65100000D02*
X89050000Y-64500000D01*
X88800000Y-65750000D02*
X88950000Y-65100000D01*
X88600000Y-66450000D02*
X88800000Y-65750000D01*
X88600000Y-66750000D02*
X88600000Y-66450000D01*
X89250000Y-45750000D02*
G75*
G03X89250000Y-45750000I-500000J0D01*
G01*
X92250000Y-76250000D02*
G75*
G03X92250000Y-76250000I-500000J0D01*
G01*
X62250000Y-70750000D02*
G75*
G03X62250000Y-70750000I-500000J0D01*
G01*
X91000000Y-68350000D02*
X91000000Y-73650000D01*
X89800000Y-73650000D02*
X89800000Y-67750000D01*
X91000000Y-57150000D02*
X91000000Y-51850000D01*
X89800000Y-51850000D02*
X89800000Y-57750000D01*
X85900000Y-53700000D02*
X85400000Y-53250000D01*
X86450000Y-54300000D02*
X85900000Y-53700000D01*
X86600000Y-54400000D02*
X86450000Y-54300000D01*
X86750000Y-54450000D02*
X86600000Y-54400000D01*
X86800000Y-54450000D02*
X86750000Y-54450000D01*
X86750000Y-71050000D02*
X86600000Y-71100000D01*
X86800000Y-71050000D02*
X86750000Y-71050000D01*
X87400000Y-71650000D02*
G75*
G03X86800000Y-71050000I-600000J0D01*
G01*
X87400000Y-72650000D02*
G75*
G03X88000000Y-73250000I600000J0D01*
G01*
X86800000Y-54450000D02*
G75*
G03X87400000Y-53850000I0J600000D01*
G01*
X88000000Y-52250000D02*
G75*
G03X87400000Y-52850000I0J-600000D01*
G01*
X85250000Y-72350000D02*
X85400000Y-72250000D01*
X88600000Y-66750000D02*
X88600000Y-71650000D01*
X88600000Y-53850000D02*
X88600000Y-58750000D01*
X88600000Y-52850000D02*
G75*
G03X88000000Y-52250000I-600000J0D01*
G01*
X88000000Y-73250000D02*
G75*
G03X88600000Y-72650000I0J600000D01*
G01*
X91750000Y-63850000D02*
X91750000Y-65550000D01*
X92750000Y-65750000D02*
X92750000Y-63850000D01*
X92750000Y-59750000D02*
X92750000Y-61650000D01*
X91750000Y-61650000D02*
X91750000Y-59950000D01*
X92750000Y-63850000D02*
G75*
G03X92250000Y-63350000I-500000J0D01*
G01*
X92250000Y-63350000D02*
G75*
G03X91750000Y-63850000I0J-500000D01*
G01*
X92250000Y-62150000D02*
G75*
G03X92750000Y-61650000I0J500000D01*
G01*
X91750000Y-61650000D02*
G75*
G03X92250000Y-62150000I500000J0D01*
G01*
X90550000Y-59950000D02*
X90550000Y-65550000D01*
X91000000Y-68350000D02*
X91350000Y-68350000D01*
X90400000Y-67150000D02*
X91350000Y-67150000D01*
X90400000Y-58350000D02*
X91350000Y-58350000D01*
X91000000Y-57150000D02*
X91350000Y-57150000D01*
X93950000Y-59750000D02*
X93950000Y-65750000D01*
X93950000Y-59750000D02*
G75*
G03X91350000Y-57150000I-2600000J0D01*
G01*
X91350000Y-68350000D02*
G75*
G03X93950000Y-65750000I0J2600000D01*
G01*
X91350000Y-67150000D02*
G75*
G03X92750000Y-65750000I0J1400000D01*
G01*
X92750000Y-59750000D02*
G75*
G03X91350000Y-58350000I-1400000J0D01*
G01*
X90400000Y-74250000D02*
G75*
G03X91000000Y-73650000I0J600000D01*
G01*
X89800000Y-73650000D02*
G75*
G03X90400000Y-74250000I600000J0D01*
G01*
X90400000Y-67150000D02*
G75*
G03X89800000Y-67750000I0J-600000D01*
G01*
X91000000Y-51850000D02*
G75*
G03X90400000Y-51250000I-600000J0D01*
G01*
X90400000Y-51250000D02*
G75*
G03X89800000Y-51850000I0J-600000D01*
G01*
X89800000Y-57750000D02*
G75*
G03X90400000Y-58350000I600000J0D01*
G01*
X91150000Y-66150000D02*
G75*
G03X91750000Y-65550000I0J600000D01*
G01*
X90550000Y-65550000D02*
G75*
G03X91150000Y-66150000I600000J0D01*
G01*
X91750000Y-59950000D02*
G75*
G03X91150000Y-59350000I-600000J0D01*
G01*
X91150000Y-59350000D02*
G75*
G03X90550000Y-59950000I0J-600000D01*
G01*
X64775000Y-61950000D02*
X64750000Y-62750000D01*
X64825000Y-61375000D02*
X64775000Y-61950000D01*
X64975000Y-60375000D02*
X64825000Y-61375000D01*
X65250000Y-59250000D02*
X64975000Y-60375000D01*
X65500000Y-58475000D02*
X65250000Y-59250000D01*
X65850000Y-57600000D02*
X65500000Y-58475000D01*
X66225000Y-56850000D02*
X65850000Y-57600000D01*
X66600000Y-56200000D02*
X66225000Y-56850000D01*
X71400000Y-51700000D02*
X70700000Y-52100000D01*
X72275000Y-51275000D02*
X71400000Y-51700000D01*
X73325000Y-50875000D02*
X72275000Y-51275000D01*
X74400000Y-50575000D02*
X73325000Y-50875000D01*
X75475000Y-50375000D02*
X74400000Y-50575000D01*
X76475000Y-50275000D02*
X75475000Y-50375000D01*
X77250000Y-50250000D02*
X76475000Y-50275000D01*
X64775000Y-63575000D02*
X64750000Y-62750000D01*
X64875000Y-64525000D02*
X64775000Y-63575000D01*
X65050000Y-65475000D02*
X64875000Y-64525000D01*
X65300000Y-66425000D02*
X65050000Y-65475000D01*
X65650000Y-67425000D02*
X65300000Y-66425000D01*
X66125000Y-68450000D02*
X65650000Y-67425000D01*
X66600000Y-69300000D02*
X66125000Y-68450000D01*
X71475000Y-73850000D02*
X70700000Y-73400000D01*
X72475000Y-74300000D02*
X71475000Y-73850000D01*
X73475000Y-74675000D02*
X72475000Y-74300000D01*
X74525000Y-74950000D02*
X73475000Y-74675000D01*
X75475000Y-75125000D02*
X74525000Y-74950000D01*
X76400000Y-75225000D02*
X75475000Y-75125000D01*
X77250000Y-75250000D02*
X76400000Y-75225000D01*
X84400000Y-73000000D02*
X85250000Y-72350000D01*
X83300000Y-73700000D02*
X84400000Y-73000000D01*
X82050000Y-74300000D02*
X83300000Y-73700000D01*
X80950000Y-74700000D02*
X82050000Y-74300000D01*
X79750000Y-75000000D02*
X80950000Y-74700000D01*
X78450000Y-75200000D02*
X79750000Y-75000000D01*
X77250000Y-75250000D02*
X78450000Y-75200000D01*
X84250000Y-52400000D02*
X85400000Y-53250000D01*
X82900000Y-51600000D02*
X84250000Y-52400000D01*
X81400000Y-50950000D02*
X82900000Y-51600000D01*
X80000000Y-50550000D02*
X81400000Y-50950000D01*
X78450000Y-50300000D02*
X80000000Y-50550000D01*
X77250000Y-50250000D02*
X78450000Y-50300000D01*
X99750000Y-62750000D02*
G75*
G03X99750000Y-62750000I-22500000J0D01*
G01*
M02*
