G04 #@! TF.FileFunction,Paste,Top*
%FSLAX46Y46*%
G04 Gerber Fmt 4.6, Leading zero omitted, Abs format (unit mm)*
G04 Created by KiCad (PCBNEW (2016-05-05 BZR 6775)-product) date 2016 June 06, Monday 00:12:01*
%MOMM*%
%LPD*%
G01*
G04 APERTURE LIST*
%ADD10C,0.020000*%
%ADD11R,0.480000X0.480000*%
%ADD12R,1.020000X1.020000*%
%ADD13R,0.660000X0.230000*%
%ADD14R,0.230000X0.660000*%
G04 APERTURE END LIST*
D10*
G36*
X83706737Y-51271017D02*
X83968163Y-50868455D01*
X84370725Y-51129881D01*
X84109299Y-51532443D01*
X83706737Y-51271017D01*
X83706737Y-51271017D01*
G37*
G36*
X84629275Y-51870119D02*
X84890701Y-51467557D01*
X85293263Y-51728983D01*
X85031837Y-52131545D01*
X84629275Y-51870119D01*
X84629275Y-51870119D01*
G37*
G36*
X70542777Y-50877832D02*
X70797138Y-51284895D01*
X70390075Y-51539256D01*
X70135714Y-51132193D01*
X70542777Y-50877832D01*
X70542777Y-50877832D01*
G37*
G36*
X69609925Y-51460744D02*
X69864286Y-51867807D01*
X69457223Y-52122168D01*
X69202862Y-51715105D01*
X69609925Y-51460744D01*
X69609925Y-51460744D01*
G37*
G36*
X82405558Y-46265330D02*
X82569728Y-45814278D01*
X83020780Y-45978448D01*
X82856610Y-46429500D01*
X82405558Y-46265330D01*
X82405558Y-46265330D01*
G37*
G36*
X83439220Y-46641552D02*
X83603390Y-46190500D01*
X84054442Y-46354670D01*
X83890272Y-46805722D01*
X83439220Y-46641552D01*
X83439220Y-46641552D01*
G37*
G36*
X72342605Y-42141735D02*
X72193774Y-41376066D01*
X72763117Y-41265397D01*
X72911948Y-42031066D01*
X72342605Y-42141735D01*
X72342605Y-42141735D01*
G37*
G36*
X73716883Y-41874603D02*
X73568052Y-41108934D01*
X74137395Y-40998265D01*
X74286226Y-41763934D01*
X73716883Y-41874603D01*
X73716883Y-41874603D01*
G37*
G36*
X74473924Y-41437940D02*
X74432089Y-40959767D01*
X74910262Y-40917932D01*
X74952097Y-41396105D01*
X74473924Y-41437940D01*
X74473924Y-41437940D01*
G37*
G36*
X75569738Y-41342068D02*
X75527903Y-40863895D01*
X76006076Y-40822060D01*
X76047911Y-41300233D01*
X75569738Y-41342068D01*
X75569738Y-41342068D01*
G37*
G36*
X83329051Y-46926463D02*
X83777170Y-47098480D01*
X83605153Y-47546599D01*
X83157034Y-47374582D01*
X83329051Y-46926463D01*
X83329051Y-46926463D01*
G37*
G36*
X82934847Y-47953401D02*
X83382966Y-48125418D01*
X83210949Y-48573537D01*
X82762830Y-48401520D01*
X82934847Y-47953401D01*
X82934847Y-47953401D01*
G37*
G36*
X62229071Y-49537602D02*
X61727697Y-50135117D01*
X61283391Y-49762300D01*
X61784765Y-49164785D01*
X62229071Y-49537602D01*
X62229071Y-49537602D01*
G37*
G36*
X61156609Y-48637700D02*
X60655235Y-49235215D01*
X60210929Y-48862398D01*
X60712303Y-48264883D01*
X61156609Y-48637700D01*
X61156609Y-48637700D01*
G37*
G36*
X80947985Y-41059492D02*
X81419948Y-41146965D01*
X81332475Y-41618928D01*
X80860512Y-41531455D01*
X80947985Y-41059492D01*
X80947985Y-41059492D01*
G37*
G36*
X80747525Y-42141072D02*
X81219488Y-42228545D01*
X81132015Y-42700508D01*
X80660052Y-42613035D01*
X80747525Y-42141072D01*
X80747525Y-42141072D01*
G37*
G36*
X85156236Y-42237009D02*
X85602837Y-42412930D01*
X85426916Y-42859531D01*
X84980315Y-42683610D01*
X85156236Y-42237009D01*
X85156236Y-42237009D01*
G37*
G36*
X84753084Y-43260469D02*
X85199685Y-43436390D01*
X85023764Y-43882991D01*
X84577163Y-43707070D01*
X84753084Y-43260469D01*
X84753084Y-43260469D01*
G37*
G36*
X83055198Y-44572644D02*
X82930965Y-45036289D01*
X82467320Y-44912056D01*
X82591553Y-44448411D01*
X83055198Y-44572644D01*
X83055198Y-44572644D01*
G37*
G36*
X81992680Y-44287944D02*
X81868447Y-44751589D01*
X81404802Y-44627356D01*
X81529035Y-44163711D01*
X81992680Y-44287944D01*
X81992680Y-44287944D01*
G37*
G36*
X84376236Y-44257009D02*
X84822837Y-44432930D01*
X84646916Y-44879531D01*
X84200315Y-44703610D01*
X84376236Y-44257009D01*
X84376236Y-44257009D01*
G37*
G36*
X83973084Y-45280469D02*
X84419685Y-45456390D01*
X84243764Y-45902991D01*
X83797163Y-45727070D01*
X83973084Y-45280469D01*
X83973084Y-45280469D01*
G37*
G36*
X70514688Y-43830486D02*
X70374350Y-43371460D01*
X70833376Y-43231122D01*
X70973714Y-43690148D01*
X70514688Y-43830486D01*
X70514688Y-43830486D01*
G37*
G36*
X71566624Y-43508878D02*
X71426286Y-43049852D01*
X71885312Y-42909514D01*
X72025650Y-43368540D01*
X71566624Y-43508878D01*
X71566624Y-43508878D01*
G37*
G36*
X70007284Y-42852407D02*
X69779234Y-42106489D01*
X70333890Y-41936913D01*
X70561940Y-42682831D01*
X70007284Y-42852407D01*
X70007284Y-42852407D01*
G37*
G36*
X71346110Y-42443087D02*
X71118060Y-41697169D01*
X71672716Y-41527593D01*
X71900766Y-42273511D01*
X71346110Y-42443087D01*
X71346110Y-42443087D01*
G37*
G36*
X78829241Y-41286107D02*
X78879415Y-40808737D01*
X79356785Y-40858911D01*
X79306611Y-41336281D01*
X78829241Y-41286107D01*
X78829241Y-41286107D01*
G37*
G36*
X79923215Y-41401089D02*
X79973389Y-40923719D01*
X80450759Y-40973893D01*
X80400585Y-41451263D01*
X79923215Y-41401089D01*
X79923215Y-41401089D01*
G37*
G36*
X74007162Y-50109005D02*
X73907365Y-49639494D01*
X74376876Y-49539697D01*
X74476673Y-50009208D01*
X74007162Y-50109005D01*
X74007162Y-50109005D01*
G37*
G36*
X75083124Y-49880303D02*
X74983327Y-49410792D01*
X75452838Y-49310995D01*
X75552635Y-49780506D01*
X75083124Y-49880303D01*
X75083124Y-49880303D01*
G37*
D11*
X63750000Y-63300000D03*
X63750000Y-62200000D03*
X62500000Y-62200000D03*
X62500000Y-63300000D03*
D10*
G36*
X66885840Y-46152846D02*
X66645840Y-45737154D01*
X67061532Y-45497154D01*
X67301532Y-45912846D01*
X66885840Y-46152846D01*
X66885840Y-46152846D01*
G37*
G36*
X67838468Y-45602846D02*
X67598468Y-45187154D01*
X68014160Y-44947154D01*
X68254160Y-45362846D01*
X67838468Y-45602846D01*
X67838468Y-45602846D01*
G37*
G36*
X68410401Y-42626576D02*
X68852244Y-42439025D01*
X69039795Y-42880868D01*
X68597952Y-43068419D01*
X68410401Y-42626576D01*
X68410401Y-42626576D01*
G37*
G36*
X68840205Y-43639132D02*
X69282048Y-43451581D01*
X69469599Y-43893424D01*
X69027756Y-44080975D01*
X68840205Y-43639132D01*
X68840205Y-43639132D01*
G37*
G36*
X76314309Y-41273751D02*
X76305932Y-40793824D01*
X76785859Y-40785447D01*
X76794236Y-41265374D01*
X76314309Y-41273751D01*
X76314309Y-41273751D01*
G37*
G36*
X77414141Y-41254553D02*
X77405764Y-40774626D01*
X77885691Y-40766249D01*
X77894068Y-41246176D01*
X77414141Y-41254553D01*
X77414141Y-41254553D01*
G37*
G36*
X69185840Y-50602846D02*
X68945840Y-50187154D01*
X69361532Y-49947154D01*
X69601532Y-50362846D01*
X69185840Y-50602846D01*
X69185840Y-50602846D01*
G37*
G36*
X70138468Y-50052846D02*
X69898468Y-49637154D01*
X70314160Y-49397154D01*
X70554160Y-49812846D01*
X70138468Y-50052846D01*
X70138468Y-50052846D01*
G37*
G36*
X81677356Y-46865198D02*
X81213711Y-46740965D01*
X81337944Y-46277320D01*
X81801589Y-46401553D01*
X81677356Y-46865198D01*
X81677356Y-46865198D01*
G37*
G36*
X81962056Y-45802680D02*
X81498411Y-45678447D01*
X81622644Y-45214802D01*
X82086289Y-45339035D01*
X81962056Y-45802680D01*
X81962056Y-45802680D01*
G37*
G36*
X67656019Y-47975170D02*
X67370231Y-48140170D01*
X67130231Y-47724478D01*
X67416019Y-47559478D01*
X67656019Y-47975170D01*
X67656019Y-47975170D01*
G37*
G36*
X68218936Y-47650170D02*
X67933148Y-47815170D01*
X67693148Y-47399478D01*
X67978936Y-47234478D01*
X68218936Y-47650170D01*
X68218936Y-47650170D01*
G37*
G36*
X68781852Y-47325170D02*
X68496064Y-47490170D01*
X68256064Y-47074478D01*
X68541852Y-46909478D01*
X68781852Y-47325170D01*
X68781852Y-47325170D01*
G37*
G36*
X69344769Y-47000170D02*
X69058981Y-47165170D01*
X68818981Y-46749478D01*
X69104769Y-46584478D01*
X69344769Y-47000170D01*
X69344769Y-47000170D01*
G37*
G36*
X70369769Y-48775522D02*
X70083981Y-48940522D01*
X69843981Y-48524830D01*
X70129769Y-48359830D01*
X70369769Y-48775522D01*
X70369769Y-48775522D01*
G37*
G36*
X69806852Y-49100522D02*
X69521064Y-49265522D01*
X69281064Y-48849830D01*
X69566852Y-48684830D01*
X69806852Y-49100522D01*
X69806852Y-49100522D01*
G37*
G36*
X69243936Y-49425522D02*
X68958148Y-49590522D01*
X68718148Y-49174830D01*
X69003936Y-49009830D01*
X69243936Y-49425522D01*
X69243936Y-49425522D01*
G37*
G36*
X68681019Y-49750522D02*
X68395231Y-49915522D01*
X68155231Y-49499830D01*
X68441019Y-49334830D01*
X68681019Y-49750522D01*
X68681019Y-49750522D01*
G37*
G36*
X63364479Y-55120110D02*
X64077136Y-55437405D01*
X63759841Y-56150062D01*
X63047184Y-55832767D01*
X63364479Y-55120110D01*
X63364479Y-55120110D01*
G37*
G36*
X62591679Y-56855846D02*
X63304336Y-57173141D01*
X62987041Y-57885798D01*
X62274384Y-57568503D01*
X62591679Y-56855846D01*
X62591679Y-56855846D01*
G37*
G36*
X64804238Y-56801037D02*
X65516895Y-57118332D01*
X65199600Y-57830989D01*
X64486943Y-57513694D01*
X64804238Y-56801037D01*
X64804238Y-56801037D01*
G37*
G36*
X67706980Y-42884141D02*
X68446980Y-44165859D01*
X67771480Y-44555859D01*
X67031480Y-43274141D01*
X67706980Y-42884141D01*
X67706980Y-42884141D01*
G37*
G36*
X65628520Y-44084141D02*
X66368520Y-45365859D01*
X65693020Y-45755859D01*
X64953020Y-44474141D01*
X65628520Y-44084141D01*
X65628520Y-44084141D01*
G37*
D12*
X77250000Y-47270000D03*
X78770000Y-45750000D03*
X75730000Y-45750000D03*
X77250000Y-45750000D03*
X77250000Y-44230000D03*
D13*
X74390000Y-43550000D03*
X74390000Y-43950000D03*
X74390000Y-44350000D03*
X74390000Y-44750000D03*
X74390000Y-45150000D03*
X74390000Y-45550000D03*
X74390000Y-45950000D03*
X74390000Y-46350000D03*
X74390000Y-46750000D03*
X74390000Y-47150000D03*
X74390000Y-47550000D03*
X74390000Y-47950000D03*
D14*
X75050000Y-48610000D03*
X75450000Y-48610000D03*
X75850000Y-48610000D03*
X76250000Y-48610000D03*
X76650000Y-48610000D03*
X77050000Y-48610000D03*
X77450000Y-48610000D03*
X77850000Y-48610000D03*
X78250000Y-48610000D03*
X78650000Y-48610000D03*
X79050000Y-48610000D03*
X79450000Y-48610000D03*
D13*
X80110000Y-47950000D03*
X80110000Y-47550000D03*
X80110000Y-47150000D03*
X80110000Y-46750000D03*
X80110000Y-46350000D03*
X80110000Y-45950000D03*
X80110000Y-45550000D03*
X80110000Y-45150000D03*
X80110000Y-44750000D03*
X80110000Y-44350000D03*
X80110000Y-43950000D03*
X80110000Y-43550000D03*
D14*
X79450000Y-42890000D03*
X79050000Y-42890000D03*
X78650000Y-42890000D03*
X78250000Y-42890000D03*
X77850000Y-42890000D03*
X77450000Y-42890000D03*
X77050000Y-42890000D03*
X76650000Y-42890000D03*
X76250000Y-42890000D03*
X75850000Y-42890000D03*
X75450000Y-42890000D03*
X75050000Y-42890000D03*
D12*
X75730000Y-44230000D03*
X78770000Y-44230000D03*
X78770000Y-47270000D03*
X75730000Y-47270000D03*
D10*
G36*
X73044995Y-49508172D02*
X73337188Y-50231376D01*
X72799421Y-50448648D01*
X72507228Y-49725444D01*
X73044995Y-49508172D01*
X73044995Y-49508172D01*
G37*
G36*
X71700579Y-50051352D02*
X71992772Y-50774556D01*
X71455005Y-50991828D01*
X71162812Y-50268624D01*
X71700579Y-50051352D01*
X71700579Y-50051352D01*
G37*
G36*
X81165277Y-50174503D02*
X81494919Y-49467583D01*
X82020577Y-49712701D01*
X81690935Y-50419621D01*
X81165277Y-50174503D01*
X81165277Y-50174503D01*
G37*
G36*
X82479423Y-50787299D02*
X82809065Y-50080379D01*
X83334723Y-50325497D01*
X83005081Y-51032417D01*
X82479423Y-50787299D01*
X82479423Y-50787299D01*
G37*
G36*
X58231446Y-51806399D02*
X59091975Y-50481299D01*
X59746138Y-50906117D01*
X58885609Y-52231217D01*
X58231446Y-51806399D01*
X58231446Y-51806399D01*
G37*
G36*
X61753862Y-54093883D02*
X62614391Y-52768783D01*
X63268554Y-53193601D01*
X62408025Y-54518701D01*
X61753862Y-54093883D01*
X61753862Y-54093883D01*
G37*
G36*
X55888167Y-57300270D02*
X56336911Y-55785334D01*
X57084791Y-56006866D01*
X56636047Y-57521802D01*
X55888167Y-57300270D01*
X55888167Y-57300270D01*
G37*
G36*
X59915209Y-58493134D02*
X60363953Y-56978198D01*
X61111833Y-57199730D01*
X60663089Y-58714666D01*
X59915209Y-58493134D01*
X59915209Y-58493134D01*
G37*
G36*
X64245584Y-47628239D02*
X64470643Y-47869586D01*
X64211012Y-48111695D01*
X63985953Y-47870348D01*
X64245584Y-47628239D01*
X64245584Y-47628239D01*
G37*
G36*
X63904585Y-47262562D02*
X64129644Y-47503909D01*
X63870013Y-47746018D01*
X63644954Y-47504671D01*
X63904585Y-47262562D01*
X63904585Y-47262562D01*
G37*
G36*
X63563586Y-46896885D02*
X63788645Y-47138232D01*
X63529014Y-47380341D01*
X63303955Y-47138994D01*
X63563586Y-46896885D01*
X63563586Y-46896885D01*
G37*
G36*
X63222586Y-46531208D02*
X63447645Y-46772555D01*
X63188014Y-47014664D01*
X62962955Y-46773317D01*
X63222586Y-46531208D01*
X63222586Y-46531208D01*
G37*
G36*
X62579612Y-47113699D02*
X62820959Y-46888640D01*
X63063068Y-47148271D01*
X62821721Y-47373330D01*
X62579612Y-47113699D01*
X62579612Y-47113699D01*
G37*
G36*
X62213935Y-47454698D02*
X62455282Y-47229639D01*
X62697391Y-47489270D01*
X62456044Y-47714329D01*
X62213935Y-47454698D01*
X62213935Y-47454698D01*
G37*
G36*
X62088988Y-47588305D02*
X62314047Y-47829652D01*
X62054416Y-48071761D01*
X61829357Y-47830414D01*
X62088988Y-47588305D01*
X62088988Y-47588305D01*
G37*
G36*
X62429987Y-47953982D02*
X62655046Y-48195329D01*
X62395415Y-48437438D01*
X62170356Y-48196091D01*
X62429987Y-47953982D01*
X62429987Y-47953982D01*
G37*
G36*
X62770986Y-48319659D02*
X62996045Y-48561006D01*
X62736414Y-48803115D01*
X62511355Y-48561768D01*
X62770986Y-48319659D01*
X62770986Y-48319659D01*
G37*
G36*
X63111986Y-48685336D02*
X63337045Y-48926683D01*
X63077414Y-49168792D01*
X62852355Y-48927445D01*
X63111986Y-48685336D01*
X63111986Y-48685336D01*
G37*
G36*
X63236932Y-48551729D02*
X63478279Y-48326670D01*
X63720388Y-48586301D01*
X63479041Y-48811360D01*
X63236932Y-48551729D01*
X63236932Y-48551729D01*
G37*
G36*
X63602609Y-48210730D02*
X63843956Y-47985671D01*
X64086065Y-48245302D01*
X63844718Y-48470361D01*
X63602609Y-48210730D01*
X63602609Y-48210730D01*
G37*
G36*
X82500764Y-43840323D02*
X81779818Y-43633595D01*
X82014110Y-42816523D01*
X82735056Y-43023251D01*
X82500764Y-43840323D01*
X82500764Y-43840323D01*
G37*
G36*
X83606215Y-44157306D02*
X82885269Y-43950578D01*
X83119561Y-43133506D01*
X83840507Y-43340234D01*
X83606215Y-44157306D01*
X83606215Y-44157306D01*
G37*
G36*
X84005890Y-42763477D02*
X83284944Y-42556749D01*
X83519236Y-41739677D01*
X84240182Y-41946405D01*
X84005890Y-42763477D01*
X84005890Y-42763477D01*
G37*
G36*
X82900439Y-42446494D02*
X82179493Y-42239766D01*
X82413785Y-41422694D01*
X83134731Y-41629422D01*
X82900439Y-42446494D01*
X82900439Y-42446494D01*
G37*
M02*
