G04 #@! TF.FileFunction,Soldermask,Top*
%FSLAX46Y46*%
G04 Gerber Fmt 4.6, Leading zero omitted, Abs format (unit mm)*
G04 Created by KiCad (PCBNEW (2016-05-05 BZR 6775)-product) date 2016 June 06, Monday 00:12:01*
%MOMM*%
%LPD*%
G01*
G04 APERTURE LIST*
%ADD10C,0.020000*%
%ADD11C,3.200000*%
%ADD12R,0.700000X0.700000*%
%ADD13C,1.100000*%
%ADD14R,1.000000X1.000000*%
%ADD15C,1.800000*%
%ADD16R,1.680000X1.680000*%
%ADD17R,0.840000X0.410000*%
%ADD18R,0.410000X0.840000*%
%ADD19C,1.800000*%
%ADD20C,0.200000*%
G04 APERTURE END LIST*
D10*
D11*
X66750000Y-52250000D03*
D10*
G36*
X83554573Y-51303360D02*
X83935820Y-50716291D01*
X84522889Y-51097538D01*
X84141642Y-51684607D01*
X83554573Y-51303360D01*
X83554573Y-51303360D01*
G37*
G36*
X84477111Y-51902462D02*
X84858358Y-51315393D01*
X85445427Y-51696640D01*
X85064180Y-52283709D01*
X84477111Y-51902462D01*
X84477111Y-51902462D01*
G37*
G36*
X70577771Y-50726255D02*
X70948715Y-51319889D01*
X70355081Y-51690833D01*
X69984137Y-51097199D01*
X70577771Y-50726255D01*
X70577771Y-50726255D01*
G37*
G36*
X69644919Y-51309167D02*
X70015863Y-51902801D01*
X69422229Y-52273745D01*
X69051285Y-51680111D01*
X69644919Y-51309167D01*
X69644919Y-51309167D01*
G37*
G36*
X82264570Y-46331074D02*
X82503984Y-45673290D01*
X83161768Y-45912704D01*
X82922354Y-46570488D01*
X82264570Y-46331074D01*
X82264570Y-46331074D01*
G37*
G36*
X83298232Y-46707296D02*
X83537646Y-46049512D01*
X84195430Y-46288926D01*
X83956016Y-46946710D01*
X83298232Y-46707296D01*
X83298232Y-46707296D01*
G37*
G36*
X72255615Y-42270703D02*
X72064806Y-41289076D01*
X72850107Y-41136429D01*
X73040916Y-42118056D01*
X72255615Y-42270703D01*
X72255615Y-42270703D01*
G37*
G36*
X73629893Y-42003571D02*
X73439084Y-41021944D01*
X74224385Y-40869297D01*
X74415194Y-41850924D01*
X73629893Y-42003571D01*
X73629893Y-42003571D01*
G37*
G36*
X74373929Y-41557109D02*
X74312920Y-40859772D01*
X75010257Y-40798763D01*
X75071266Y-41496100D01*
X74373929Y-41557109D01*
X74373929Y-41557109D01*
G37*
G36*
X75469743Y-41461237D02*
X75408734Y-40763900D01*
X76106071Y-40702891D01*
X76167080Y-41400228D01*
X75469743Y-41461237D01*
X75469743Y-41461237D01*
G37*
G36*
X83265778Y-46784349D02*
X83919284Y-47035207D01*
X83668426Y-47688713D01*
X83014920Y-47437855D01*
X83265778Y-46784349D01*
X83265778Y-46784349D01*
G37*
G36*
X82871574Y-47811287D02*
X83525080Y-48062145D01*
X83274222Y-48715651D01*
X82620716Y-48464793D01*
X82871574Y-47811287D01*
X82871574Y-47811287D01*
G37*
G36*
X62384043Y-49524044D02*
X61741255Y-50290088D01*
X61128419Y-49775858D01*
X61771207Y-49009814D01*
X62384043Y-49524044D01*
X62384043Y-49524044D01*
G37*
G36*
X61311581Y-48624142D02*
X60668793Y-49390186D01*
X60055957Y-48875956D01*
X60698745Y-48109912D01*
X61311581Y-48624142D01*
X61311581Y-48624142D01*
G37*
G36*
X80859873Y-40931288D02*
X81548152Y-41058853D01*
X81420587Y-41747132D01*
X80732308Y-41619567D01*
X80859873Y-40931288D01*
X80859873Y-40931288D01*
G37*
G36*
X80659413Y-42012868D02*
X81347692Y-42140433D01*
X81220127Y-42828712D01*
X80531848Y-42701147D01*
X80659413Y-42012868D01*
X80659413Y-42012868D01*
G37*
G36*
X85094205Y-42094348D02*
X85745498Y-42350899D01*
X85488947Y-43002192D01*
X84837654Y-42745641D01*
X85094205Y-42094348D01*
X85094205Y-42094348D01*
G37*
G36*
X84691053Y-43117808D02*
X85342346Y-43374359D01*
X85085795Y-44025652D01*
X84434502Y-43769101D01*
X84691053Y-43117808D01*
X84691053Y-43117808D01*
G37*
G36*
X83189920Y-44494863D02*
X83008746Y-45171011D01*
X82332598Y-44989837D01*
X82513772Y-44313689D01*
X83189920Y-44494863D01*
X83189920Y-44494863D01*
G37*
G36*
X82127402Y-44210163D02*
X81946228Y-44886311D01*
X81270080Y-44705137D01*
X81451254Y-44028989D01*
X82127402Y-44210163D01*
X82127402Y-44210163D01*
G37*
G36*
X84314205Y-44114348D02*
X84965498Y-44370899D01*
X84708947Y-45022192D01*
X84057654Y-44765641D01*
X84314205Y-44114348D01*
X84314205Y-44114348D01*
G37*
G36*
X83911053Y-45137808D02*
X84562346Y-45394359D01*
X84305795Y-46045652D01*
X83654502Y-45789101D01*
X83911053Y-45137808D01*
X83911053Y-45137808D01*
G37*
G36*
X70441655Y-43967841D02*
X70236995Y-43298427D01*
X70906409Y-43093767D01*
X71111069Y-43763181D01*
X70441655Y-43967841D01*
X70441655Y-43967841D01*
G37*
G36*
X71493591Y-43646233D02*
X71288931Y-42976819D01*
X71958345Y-42772159D01*
X72163005Y-43441573D01*
X71493591Y-43646233D01*
X71493591Y-43646233D01*
G37*
G36*
X69934251Y-42989761D02*
X69641879Y-42033456D01*
X70406923Y-41799559D01*
X70699295Y-42755864D01*
X69934251Y-42989761D01*
X69934251Y-42989761D01*
G37*
G36*
X71273077Y-42580441D02*
X70980705Y-41624136D01*
X71745749Y-41390239D01*
X72038121Y-42346544D01*
X71273077Y-42580441D01*
X71273077Y-42580441D01*
G37*
G36*
X78708345Y-41384007D02*
X78781515Y-40687841D01*
X79477681Y-40761011D01*
X79404511Y-41457177D01*
X78708345Y-41384007D01*
X78708345Y-41384007D01*
G37*
G36*
X79802319Y-41498989D02*
X79875489Y-40802823D01*
X80571655Y-40875993D01*
X80498485Y-41572159D01*
X79802319Y-41498989D01*
X79802319Y-41498989D01*
G37*
G36*
X73922436Y-50239472D02*
X73776898Y-49554768D01*
X74461602Y-49409230D01*
X74607140Y-50093934D01*
X73922436Y-50239472D01*
X73922436Y-50239472D01*
G37*
G36*
X74998398Y-50010770D02*
X74852860Y-49326066D01*
X75537564Y-49180528D01*
X75683102Y-49865232D01*
X74998398Y-50010770D01*
X74998398Y-50010770D01*
G37*
D12*
X63750000Y-63300000D03*
X63750000Y-62200000D03*
X62500000Y-62200000D03*
X62500000Y-63300000D03*
D10*
G36*
X66845577Y-46303109D02*
X66495577Y-45696891D01*
X67101795Y-45346891D01*
X67451795Y-45953109D01*
X66845577Y-46303109D01*
X66845577Y-46303109D01*
G37*
G36*
X67798205Y-45753109D02*
X67448205Y-45146891D01*
X68054423Y-44796891D01*
X68404423Y-45403109D01*
X67798205Y-45753109D01*
X67798205Y-45753109D01*
G37*
G36*
X68266165Y-42568301D02*
X68910519Y-42294789D01*
X69184031Y-42939143D01*
X68539677Y-43212655D01*
X68266165Y-42568301D01*
X68266165Y-42568301D01*
G37*
G36*
X68695969Y-43580857D02*
X69340323Y-43307345D01*
X69613835Y-43951699D01*
X68969481Y-44225211D01*
X68695969Y-43580857D01*
X68695969Y-43580857D01*
G37*
G36*
X76206246Y-41385654D02*
X76194029Y-40685761D01*
X76893922Y-40673544D01*
X76906139Y-41373437D01*
X76206246Y-41385654D01*
X76206246Y-41385654D01*
G37*
G36*
X77306078Y-41366456D02*
X77293861Y-40666563D01*
X77993754Y-40654346D01*
X78005971Y-41354239D01*
X77306078Y-41366456D01*
X77306078Y-41366456D01*
G37*
G36*
X69145577Y-50753109D02*
X68795577Y-50146891D01*
X69401795Y-49796891D01*
X69751795Y-50403109D01*
X69145577Y-50753109D01*
X69145577Y-50753109D01*
G37*
G36*
X70098205Y-50203109D02*
X69748205Y-49596891D01*
X70354423Y-49246891D01*
X70704423Y-49853109D01*
X70098205Y-50203109D01*
X70098205Y-50203109D01*
G37*
G36*
X81755137Y-46999920D02*
X81078989Y-46818746D01*
X81260163Y-46142598D01*
X81936311Y-46323772D01*
X81755137Y-46999920D01*
X81755137Y-46999920D01*
G37*
G36*
X82039837Y-45937402D02*
X81363689Y-45756228D01*
X81544863Y-45080080D01*
X82221011Y-45261254D01*
X82039837Y-45937402D01*
X82039837Y-45937402D01*
G37*
G36*
X67765301Y-48004452D02*
X67340949Y-48249452D01*
X67020949Y-47695196D01*
X67445301Y-47450196D01*
X67765301Y-48004452D01*
X67765301Y-48004452D01*
G37*
G36*
X68328218Y-47679452D02*
X67903866Y-47924452D01*
X67583866Y-47370196D01*
X68008218Y-47125196D01*
X68328218Y-47679452D01*
X68328218Y-47679452D01*
G37*
G36*
X68891134Y-47354452D02*
X68466782Y-47599452D01*
X68146782Y-47045196D01*
X68571134Y-46800196D01*
X68891134Y-47354452D01*
X68891134Y-47354452D01*
G37*
G36*
X69454051Y-47029452D02*
X69029699Y-47274452D01*
X68709699Y-46720196D01*
X69134051Y-46475196D01*
X69454051Y-47029452D01*
X69454051Y-47029452D01*
G37*
G36*
X70479051Y-48804804D02*
X70054699Y-49049804D01*
X69734699Y-48495548D01*
X70159051Y-48250548D01*
X70479051Y-48804804D01*
X70479051Y-48804804D01*
G37*
G36*
X69916134Y-49129804D02*
X69491782Y-49374804D01*
X69171782Y-48820548D01*
X69596134Y-48575548D01*
X69916134Y-49129804D01*
X69916134Y-49129804D01*
G37*
G36*
X69353218Y-49454804D02*
X68928866Y-49699804D01*
X68608866Y-49145548D01*
X69033218Y-48900548D01*
X69353218Y-49454804D01*
X69353218Y-49454804D01*
G37*
G36*
X68790301Y-49779804D02*
X68365949Y-50024804D01*
X68045949Y-49470548D01*
X68470301Y-49225548D01*
X68790301Y-49779804D01*
X68790301Y-49779804D01*
G37*
G36*
X63308730Y-54974879D02*
X64222367Y-55381656D01*
X63815590Y-56295293D01*
X62901953Y-55888516D01*
X63308730Y-54974879D01*
X63308730Y-54974879D01*
G37*
G36*
X62535930Y-56710615D02*
X63449567Y-57117392D01*
X63042790Y-58031029D01*
X62129153Y-57624252D01*
X62535930Y-56710615D01*
X62535930Y-56710615D01*
G37*
G36*
X64748489Y-56655806D02*
X65662126Y-57062583D01*
X65255349Y-57976220D01*
X64341712Y-57569443D01*
X64748489Y-56655806D01*
X64748489Y-56655806D01*
G37*
D13*
X55710000Y-63385000D03*
D14*
X55710000Y-62115000D03*
X56980000Y-63385000D03*
X56980000Y-62115000D03*
X58250000Y-63385000D03*
X58250000Y-62115000D03*
X59520000Y-63385000D03*
X59520000Y-62115000D03*
X60790000Y-63385000D03*
X60790000Y-62115000D03*
D15*
X58250000Y-54250000D03*
X86500000Y-44000000D03*
D10*
G36*
X67747243Y-42733878D02*
X68597243Y-44206122D01*
X67731217Y-44706122D01*
X66881217Y-43233878D01*
X67747243Y-42733878D01*
X67747243Y-42733878D01*
G37*
G36*
X65668783Y-43933878D02*
X66518783Y-45406122D01*
X65652757Y-45906122D01*
X64802757Y-44433878D01*
X65668783Y-43933878D01*
X65668783Y-43933878D01*
G37*
D16*
X77250000Y-47270000D03*
X78770000Y-45750000D03*
X75730000Y-45750000D03*
X77250000Y-45750000D03*
X77250000Y-44230000D03*
D17*
X74390000Y-43550000D03*
X74390000Y-43950000D03*
X74390000Y-44350000D03*
X74390000Y-44750000D03*
X74390000Y-45150000D03*
X74390000Y-45550000D03*
X74390000Y-45950000D03*
X74390000Y-46350000D03*
X74390000Y-46750000D03*
X74390000Y-47150000D03*
X74390000Y-47550000D03*
X74390000Y-47950000D03*
D18*
X75050000Y-48610000D03*
X75450000Y-48610000D03*
X75850000Y-48610000D03*
X76250000Y-48610000D03*
X76650000Y-48610000D03*
X77050000Y-48610000D03*
X77450000Y-48610000D03*
X77850000Y-48610000D03*
X78250000Y-48610000D03*
X78650000Y-48610000D03*
X79050000Y-48610000D03*
X79450000Y-48610000D03*
D17*
X80110000Y-47950000D03*
X80110000Y-47550000D03*
X80110000Y-47150000D03*
X80110000Y-46750000D03*
X80110000Y-46350000D03*
X80110000Y-45950000D03*
X80110000Y-45550000D03*
X80110000Y-45150000D03*
X80110000Y-44750000D03*
X80110000Y-44350000D03*
X80110000Y-43950000D03*
X80110000Y-43550000D03*
D18*
X79450000Y-42890000D03*
X79050000Y-42890000D03*
X78650000Y-42890000D03*
X78250000Y-42890000D03*
X77850000Y-42890000D03*
X77450000Y-42890000D03*
X77050000Y-42890000D03*
X76650000Y-42890000D03*
X76250000Y-42890000D03*
X75850000Y-42890000D03*
X75450000Y-42890000D03*
X75050000Y-42890000D03*
D16*
X75730000Y-44230000D03*
X78770000Y-44230000D03*
X78770000Y-47270000D03*
X75730000Y-47270000D03*
D10*
G36*
X73105778Y-49364975D02*
X73480385Y-50292159D01*
X72738638Y-50591845D01*
X72364031Y-49664661D01*
X73105778Y-49364975D01*
X73105778Y-49364975D01*
G37*
G36*
X71761362Y-49908155D02*
X72135969Y-50835339D01*
X71394222Y-51135025D01*
X71019615Y-50207841D01*
X71761362Y-49908155D01*
X71761362Y-49908155D01*
G37*
G36*
X81019095Y-50227709D02*
X81441713Y-49321401D01*
X82166759Y-49659495D01*
X81744141Y-50565803D01*
X81019095Y-50227709D01*
X81019095Y-50227709D01*
G37*
G36*
X82333241Y-50840505D02*
X82755859Y-49934197D01*
X83480905Y-50272291D01*
X83058287Y-51178599D01*
X82333241Y-50840505D01*
X82333241Y-50840505D01*
G37*
G36*
X58079282Y-51838742D02*
X59059632Y-50329135D01*
X59898302Y-50873774D01*
X58917952Y-52383381D01*
X58079282Y-51838742D01*
X58079282Y-51838742D01*
G37*
G36*
X61601698Y-54126226D02*
X62582048Y-52616619D01*
X63420718Y-53161258D01*
X62440368Y-54670865D01*
X61601698Y-54126226D01*
X61601698Y-54126226D01*
G37*
G36*
X55751455Y-57374498D02*
X56262683Y-55648623D01*
X57221503Y-55932638D01*
X56710275Y-57658513D01*
X55751455Y-57374498D01*
X55751455Y-57374498D01*
G37*
G36*
X59778497Y-58567362D02*
X60289725Y-56841487D01*
X61248545Y-57125502D01*
X60737317Y-58851377D01*
X59778497Y-58567362D01*
X59778497Y-58567362D01*
G37*
G36*
X64250149Y-47497504D02*
X64601378Y-47874151D01*
X64206447Y-48242430D01*
X63855218Y-47865783D01*
X64250149Y-47497504D01*
X64250149Y-47497504D01*
G37*
G36*
X63909150Y-47131827D02*
X64260379Y-47508474D01*
X63865448Y-47876753D01*
X63514219Y-47500106D01*
X63909150Y-47131827D01*
X63909150Y-47131827D01*
G37*
G36*
X63568151Y-46766150D02*
X63919380Y-47142797D01*
X63524449Y-47511076D01*
X63173220Y-47134429D01*
X63568151Y-46766150D01*
X63568151Y-46766150D01*
G37*
G36*
X63227151Y-46400473D02*
X63578380Y-46777120D01*
X63183449Y-47145399D01*
X62832220Y-46768752D01*
X63227151Y-46400473D01*
X63227151Y-46400473D01*
G37*
G36*
X62448877Y-47109134D02*
X62825524Y-46757905D01*
X63193803Y-47152836D01*
X62817156Y-47504065D01*
X62448877Y-47109134D01*
X62448877Y-47109134D01*
G37*
G36*
X62083200Y-47450133D02*
X62459847Y-47098904D01*
X62828126Y-47493835D01*
X62451479Y-47845064D01*
X62083200Y-47450133D01*
X62083200Y-47450133D01*
G37*
G36*
X62093553Y-47457570D02*
X62444782Y-47834217D01*
X62049851Y-48202496D01*
X61698622Y-47825849D01*
X62093553Y-47457570D01*
X62093553Y-47457570D01*
G37*
G36*
X62434552Y-47823247D02*
X62785781Y-48199894D01*
X62390850Y-48568173D01*
X62039621Y-48191526D01*
X62434552Y-47823247D01*
X62434552Y-47823247D01*
G37*
G36*
X62775551Y-48188924D02*
X63126780Y-48565571D01*
X62731849Y-48933850D01*
X62380620Y-48557203D01*
X62775551Y-48188924D01*
X62775551Y-48188924D01*
G37*
G36*
X63116551Y-48554601D02*
X63467780Y-48931248D01*
X63072849Y-49299527D01*
X62721620Y-48922880D01*
X63116551Y-48554601D01*
X63116551Y-48554601D01*
G37*
G36*
X63106197Y-48547164D02*
X63482844Y-48195935D01*
X63851123Y-48590866D01*
X63474476Y-48942095D01*
X63106197Y-48547164D01*
X63106197Y-48547164D01*
G37*
G36*
X63471874Y-48206165D02*
X63848521Y-47854936D01*
X64216800Y-48249867D01*
X63840153Y-48601096D01*
X63471874Y-48206165D01*
X63471874Y-48206165D01*
G37*
D19*
X71125610Y-52524390D02*
X67024390Y-56625610D01*
X67024390Y-68874390D02*
X71125610Y-72975610D01*
D10*
G36*
X82569327Y-43964013D02*
X81656128Y-43702158D01*
X81945547Y-42692833D01*
X82858746Y-42954688D01*
X82569327Y-43964013D01*
X82569327Y-43964013D01*
G37*
G36*
X83674778Y-44280996D02*
X82761579Y-44019141D01*
X83050998Y-43009816D01*
X83964197Y-43271671D01*
X83674778Y-44280996D01*
X83674778Y-44280996D01*
G37*
G36*
X84074453Y-42887167D02*
X83161254Y-42625312D01*
X83450673Y-41615987D01*
X84363872Y-41877842D01*
X84074453Y-42887167D01*
X84074453Y-42887167D01*
G37*
G36*
X82969002Y-42570184D02*
X82055803Y-42308329D01*
X82345222Y-41299004D01*
X83258421Y-41560859D01*
X82969002Y-42570184D01*
X82969002Y-42570184D01*
G37*
D20*
G36*
X79650000Y-48150000D02*
X74850000Y-48150000D01*
X74850000Y-43350000D01*
X79650000Y-43350000D01*
X79650000Y-48150000D01*
X79650000Y-48150000D01*
G37*
X79650000Y-48150000D02*
X74850000Y-48150000D01*
X74850000Y-43350000D01*
X79650000Y-43350000D01*
X79650000Y-48150000D01*
M02*
