%FSLAX45Y45*%
G04 Gerber Fmt 4.5, Leading zero omitted, Abs format (unit mm)*
G04 Created by KiCad (PCBNEW (2016-05-05 BZR 6775)-product) date 2016 June 06, Monday 00:03:01*
%MOMM*%
%LPD*%
G01*
G04 APERTURE LIST*
%ADD10C,0.127000*%
%ADD11C,0.050000*%
%ADD12C,0.200000*%
%ADD13C,0.300000*%
G04 APERTURE END LIST*
D10*
D11*
X8585000Y-7185000D02*
X8540000Y-7225000D01*
X8645000Y-7125000D02*
X8585000Y-7185000D01*
X8660000Y-7110000D02*
X8645000Y-7125000D01*
X8860000Y-7165000D02*
X8860000Y-7265000D01*
X8740000Y-7165000D02*
X8740000Y-7265000D01*
X8740000Y-5285000D02*
X8740000Y-5385000D01*
X8860000Y-5285000D02*
X8860000Y-5385000D01*
X6935000Y-7065000D02*
X7070000Y-7340000D01*
X6660000Y-6930000D02*
X6935000Y-7065000D01*
X6935000Y-5485000D02*
X7070000Y-5210000D01*
X6660000Y-5620000D02*
X6935000Y-5485000D01*
X8860000Y-5905000D02*
X8860000Y-5875000D01*
X8877500Y-5967500D02*
X8860000Y-5905000D01*
X8895000Y-6042500D02*
X8877500Y-5967500D01*
X8907500Y-6117500D02*
X8895000Y-6042500D01*
X8915000Y-6197500D02*
X8907500Y-6117500D01*
X8917500Y-6275000D02*
X8915000Y-6197500D01*
X8915000Y-6365000D02*
X8917500Y-6275000D01*
X8905000Y-6450000D02*
X8915000Y-6365000D01*
X8895000Y-6510000D02*
X8905000Y-6450000D01*
X8880000Y-6575000D02*
X8895000Y-6510000D01*
X8860000Y-6645000D02*
X8880000Y-6575000D01*
X8860000Y-6675000D02*
X8860000Y-6645000D01*
X8925000Y-4575000D02*
G75*
G03X8925000Y-4575000I-50000J0D01*
G01*
X9225000Y-7625000D02*
G75*
G03X9225000Y-7625000I-50000J0D01*
G01*
X6225000Y-7075000D02*
G75*
G03X6225000Y-7075000I-50000J0D01*
G01*
X9100000Y-6835000D02*
X9100000Y-7365000D01*
X8980000Y-7365000D02*
X8980000Y-6775000D01*
X9100000Y-5715000D02*
X9100000Y-5185000D01*
X8980000Y-5185000D02*
X8980000Y-5775000D01*
X8590000Y-5370000D02*
X8540000Y-5325000D01*
X8645000Y-5430000D02*
X8590000Y-5370000D01*
X8660000Y-5440000D02*
X8645000Y-5430000D01*
X8675000Y-5445000D02*
X8660000Y-5440000D01*
X8680000Y-5445000D02*
X8675000Y-5445000D01*
X8675000Y-7105000D02*
X8660000Y-7110000D01*
X8680000Y-7105000D02*
X8675000Y-7105000D01*
X8740000Y-7165000D02*
G75*
G03X8680000Y-7105000I-60000J0D01*
G01*
X8740000Y-7265000D02*
G75*
G03X8800000Y-7325000I60000J0D01*
G01*
X8680000Y-5445000D02*
G75*
G03X8740000Y-5385000I0J60000D01*
G01*
X8800000Y-5225000D02*
G75*
G03X8740000Y-5285000I0J-60000D01*
G01*
X8525000Y-7235000D02*
X8540000Y-7225000D01*
X8860000Y-6675000D02*
X8860000Y-7165000D01*
X8860000Y-5385000D02*
X8860000Y-5875000D01*
X8860000Y-5285000D02*
G75*
G03X8800000Y-5225000I-60000J0D01*
G01*
X8800000Y-7325000D02*
G75*
G03X8860000Y-7265000I0J60000D01*
G01*
X9175000Y-6385000D02*
X9175000Y-6555000D01*
X9275000Y-6575000D02*
X9275000Y-6385000D01*
X9275000Y-5975000D02*
X9275000Y-6165000D01*
X9175000Y-6165000D02*
X9175000Y-5995000D01*
X9275000Y-6385000D02*
G75*
G03X9225000Y-6335000I-50000J0D01*
G01*
X9225000Y-6335000D02*
G75*
G03X9175000Y-6385000I0J-50000D01*
G01*
X9225000Y-6215000D02*
G75*
G03X9275000Y-6165000I0J50000D01*
G01*
X9175000Y-6165000D02*
G75*
G03X9225000Y-6215000I50000J0D01*
G01*
X9055000Y-5995000D02*
X9055000Y-6555000D01*
X9100000Y-6835000D02*
X9135000Y-6835000D01*
X9040000Y-6715000D02*
X9135000Y-6715000D01*
X9040000Y-5835000D02*
X9135000Y-5835000D01*
X9100000Y-5715000D02*
X9135000Y-5715000D01*
X9395000Y-5975000D02*
X9395000Y-6575000D01*
X9395000Y-5975000D02*
G75*
G03X9135000Y-5715000I-260000J0D01*
G01*
X9135000Y-6835000D02*
G75*
G03X9395000Y-6575000I0J260000D01*
G01*
X9135000Y-6715000D02*
G75*
G03X9275000Y-6575000I0J140000D01*
G01*
X9275000Y-5975000D02*
G75*
G03X9135000Y-5835000I-140000J0D01*
G01*
X9040000Y-7425000D02*
G75*
G03X9100000Y-7365000I0J60000D01*
G01*
X8980000Y-7365000D02*
G75*
G03X9040000Y-7425000I60000J0D01*
G01*
X9040000Y-6715000D02*
G75*
G03X8980000Y-6775000I0J-60000D01*
G01*
X9100000Y-5185000D02*
G75*
G03X9040000Y-5125000I-60000J0D01*
G01*
X9040000Y-5125000D02*
G75*
G03X8980000Y-5185000I0J-60000D01*
G01*
X8980000Y-5775000D02*
G75*
G03X9040000Y-5835000I60000J0D01*
G01*
X9115000Y-6615000D02*
G75*
G03X9175000Y-6555000I0J60000D01*
G01*
X9055000Y-6555000D02*
G75*
G03X9115000Y-6615000I60000J0D01*
G01*
X9175000Y-5995000D02*
G75*
G03X9115000Y-5935000I-60000J0D01*
G01*
X9115000Y-5935000D02*
G75*
G03X9055000Y-5995000I0J-60000D01*
G01*
X6477500Y-6195000D02*
X6475000Y-6275000D01*
X6482500Y-6137500D02*
X6477500Y-6195000D01*
X6497500Y-6037500D02*
X6482500Y-6137500D01*
X6525000Y-5925000D02*
X6497500Y-6037500D01*
X6550000Y-5847500D02*
X6525000Y-5925000D01*
X6585000Y-5760000D02*
X6550000Y-5847500D01*
X6622500Y-5685000D02*
X6585000Y-5760000D01*
X6660000Y-5620000D02*
X6622500Y-5685000D01*
X7140000Y-5170000D02*
X7070000Y-5210000D01*
X7227500Y-5127500D02*
X7140000Y-5170000D01*
X7332500Y-5087500D02*
X7227500Y-5127500D01*
X7440000Y-5057500D02*
X7332500Y-5087500D01*
X7547500Y-5037500D02*
X7440000Y-5057500D01*
X7647500Y-5027500D02*
X7547500Y-5037500D01*
X7725000Y-5025000D02*
X7647500Y-5027500D01*
X6477500Y-6357500D02*
X6475000Y-6275000D01*
X6487500Y-6452500D02*
X6477500Y-6357500D01*
X6505000Y-6547500D02*
X6487500Y-6452500D01*
X6530000Y-6642500D02*
X6505000Y-6547500D01*
X6565000Y-6742500D02*
X6530000Y-6642500D01*
X6612500Y-6845000D02*
X6565000Y-6742500D01*
X6660000Y-6930000D02*
X6612500Y-6845000D01*
X7147500Y-7385000D02*
X7070000Y-7340000D01*
X7247500Y-7430000D02*
X7147500Y-7385000D01*
X7347500Y-7467500D02*
X7247500Y-7430000D01*
X7452500Y-7495000D02*
X7347500Y-7467500D01*
X7547500Y-7512500D02*
X7452500Y-7495000D01*
X7640000Y-7522500D02*
X7547500Y-7512500D01*
X7725000Y-7525000D02*
X7640000Y-7522500D01*
X8440000Y-7300000D02*
X8525000Y-7235000D01*
X8330000Y-7370000D02*
X8440000Y-7300000D01*
X8205000Y-7430000D02*
X8330000Y-7370000D01*
X8095000Y-7470000D02*
X8205000Y-7430000D01*
X7975000Y-7500000D02*
X8095000Y-7470000D01*
X7845000Y-7520000D02*
X7975000Y-7500000D01*
X7725000Y-7525000D02*
X7845000Y-7520000D01*
X8425000Y-5240000D02*
X8540000Y-5325000D01*
X8290000Y-5160000D02*
X8425000Y-5240000D01*
X8140000Y-5095000D02*
X8290000Y-5160000D01*
X8000000Y-5055000D02*
X8140000Y-5095000D01*
X7845000Y-5030000D02*
X8000000Y-5055000D01*
X7725000Y-5025000D02*
X7845000Y-5030000D01*
X9975000Y-6275000D02*
G75*
G03X9975000Y-6275000I-2250000J0D01*
G01*
D12*
D13*
X5758928Y-8993214D02*
X5758928Y-8693214D01*
X5830357Y-8693214D01*
X5873214Y-8707500D01*
X5901786Y-8736072D01*
X5916071Y-8764643D01*
X5930357Y-8821786D01*
X5930357Y-8864643D01*
X5916071Y-8921786D01*
X5901786Y-8950357D01*
X5873214Y-8978929D01*
X5830357Y-8993214D01*
X5758928Y-8993214D01*
X6058928Y-8993214D02*
X6058928Y-8793214D01*
X6058928Y-8850357D02*
X6073214Y-8821786D01*
X6087500Y-8807500D01*
X6116071Y-8793214D01*
X6144643Y-8793214D01*
X6244643Y-8993214D02*
X6244643Y-8793214D01*
X6244643Y-8693214D02*
X6230357Y-8707500D01*
X6244643Y-8721786D01*
X6258928Y-8707500D01*
X6244643Y-8693214D01*
X6244643Y-8721786D01*
X6430357Y-8993214D02*
X6401786Y-8978929D01*
X6387500Y-8950357D01*
X6387500Y-8693214D01*
X6587500Y-8993214D02*
X6558928Y-8978929D01*
X6544643Y-8950357D01*
X6544643Y-8693214D01*
X6930357Y-8993214D02*
X6930357Y-8693214D01*
X7030357Y-8907500D01*
X7130357Y-8693214D01*
X7130357Y-8993214D01*
X7401786Y-8993214D02*
X7401786Y-8836072D01*
X7387500Y-8807500D01*
X7358928Y-8793214D01*
X7301786Y-8793214D01*
X7273214Y-8807500D01*
X7401786Y-8978929D02*
X7373214Y-8993214D01*
X7301786Y-8993214D01*
X7273214Y-8978929D01*
X7258928Y-8950357D01*
X7258928Y-8921786D01*
X7273214Y-8893214D01*
X7301786Y-8878929D01*
X7373214Y-8878929D01*
X7401786Y-8864643D01*
X7544643Y-8793214D02*
X7544643Y-9093214D01*
X7544643Y-8807500D02*
X7573214Y-8793214D01*
X7630357Y-8793214D01*
X7658928Y-8807500D01*
X7673214Y-8821786D01*
X7687500Y-8850357D01*
X7687500Y-8936072D01*
X7673214Y-8964643D01*
X7658928Y-8978929D01*
X7630357Y-8993214D01*
X7573214Y-8993214D01*
X7544643Y-8978929D01*
X7816071Y-8964643D02*
X7830357Y-8978929D01*
X7816071Y-8993214D01*
X7801786Y-8978929D01*
X7816071Y-8964643D01*
X7816071Y-8993214D01*
X7816071Y-8807500D02*
X7830357Y-8821786D01*
X7816071Y-8836072D01*
X7801786Y-8821786D01*
X7816071Y-8807500D01*
X7816071Y-8836072D01*
M02*
