G04 #@! TF.FileFunction,Copper,L2,Inr,Signal*
%FSLAX46Y46*%
G04 Gerber Fmt 4.6, Leading zero omitted, Abs format (unit mm)*
G04 Created by KiCad (PCBNEW (2016-05-05 BZR 6775)-product) date 2016 June 06, Monday 00:12:01*
%MOMM*%
%LPD*%
G01*
G04 APERTURE LIST*
%ADD10C,0.020000*%
%ADD11C,3.000000*%
%ADD12C,0.900000*%
%ADD13R,0.800000X0.800000*%
%ADD14C,0.600000*%
%ADD15C,1.600000*%
%ADD16C,0.200000*%
%ADD17C,0.150000*%
%ADD18C,0.800000*%
G04 APERTURE END LIST*
D10*
D11*
X66750000Y-52250000D03*
D12*
X55710000Y-63385000D03*
D13*
X55710000Y-62115000D03*
X56980000Y-63385000D03*
X56980000Y-62115000D03*
X58250000Y-63385000D03*
X58250000Y-62115000D03*
X59520000Y-63385000D03*
X59520000Y-62115000D03*
X60790000Y-63385000D03*
X60790000Y-62115000D03*
D14*
X75750000Y-44250000D03*
X76750000Y-44250000D03*
X77750000Y-44250000D03*
X78750000Y-44250000D03*
X75750000Y-45250000D03*
X76750000Y-45250000D03*
X77750000Y-45250000D03*
X78750000Y-45250000D03*
X75750000Y-46250000D03*
X76750000Y-46250000D03*
X77750000Y-46250000D03*
X78750000Y-46250000D03*
X75750000Y-47250000D03*
X76750000Y-47250000D03*
X77750000Y-47250000D03*
X78750000Y-47250000D03*
D15*
X71125610Y-52524390D02*
X67024390Y-56625610D01*
X67024390Y-68874390D02*
X71125610Y-72975610D01*
D14*
X59700000Y-54950000D03*
X80080000Y-42030000D03*
X61100000Y-50400000D03*
X69350000Y-51050000D03*
X85720000Y-52380000D03*
X76000000Y-49520000D03*
X63650000Y-57780000D03*
X63200000Y-56510000D03*
X62410000Y-58240000D03*
X72650000Y-42650000D03*
X83700000Y-44780000D03*
X73500000Y-49300000D03*
X84630000Y-42340000D03*
X69800000Y-43300000D03*
X64750000Y-45600000D03*
X60120000Y-49520000D03*
X57010000Y-55290000D03*
X61750000Y-60750000D03*
X81990000Y-48880000D03*
X82300000Y-47960000D03*
X81830000Y-41530000D03*
X81600000Y-42770000D03*
X56500000Y-61000000D03*
X70610000Y-50360000D03*
X66950000Y-45150000D03*
X63970000Y-54790000D03*
X64480000Y-56070000D03*
X78370000Y-41120000D03*
X70750000Y-49160000D03*
X61500000Y-68500000D03*
X62140000Y-64260000D03*
X71520000Y-49590000D03*
X63000000Y-64250000D03*
X77610000Y-49460000D03*
X72230000Y-50130000D03*
X81090000Y-48390000D03*
X60270000Y-60580000D03*
X80420000Y-49510000D03*
X71900000Y-48350000D03*
X78370000Y-49490000D03*
X60550000Y-55250000D03*
X79640000Y-49370000D03*
X59620000Y-59000000D03*
X64840000Y-54540000D03*
X76850000Y-49460000D03*
X66200000Y-48600000D03*
X73450000Y-47100000D03*
X70300000Y-45350000D03*
X64450000Y-48850000D03*
X79200000Y-41870000D03*
X68050000Y-46600000D03*
X64750000Y-52800000D03*
X62900000Y-49800000D03*
X71100000Y-48450000D03*
X78360000Y-41890000D03*
X65050000Y-46900000D03*
X65000000Y-48200000D03*
X68750000Y-46250000D03*
X76440000Y-41820000D03*
X64060000Y-56930000D03*
X82600000Y-49550000D03*
X69650000Y-46300000D03*
X68500000Y-50850000D03*
X73050000Y-46450000D03*
X63900000Y-49650000D03*
D16*
X61750000Y-62500000D02*
X61750000Y-61750000D01*
X60801457Y-64250000D02*
X61250000Y-64250000D01*
X61250000Y-64250000D02*
X61750000Y-63750000D01*
X61750000Y-63750000D02*
X61750000Y-62500000D01*
X56750000Y-61250000D02*
X56500000Y-61000000D01*
X61250000Y-61250000D02*
X56750000Y-61250000D01*
X61750000Y-61750000D02*
X61250000Y-61250000D01*
X60790000Y-63385000D02*
X60801457Y-64250000D01*
X58250000Y-63385000D02*
X58261457Y-64250000D01*
X58650000Y-64250000D02*
X58261457Y-64250000D01*
X58261457Y-64250000D02*
X56980000Y-64250000D01*
X56980000Y-64250000D02*
X56980000Y-63385000D01*
X58650000Y-64250000D02*
X60801457Y-64250000D01*
D17*
X78886911Y-48599841D02*
X80100442Y-48819785D01*
X80100442Y-48819785D02*
X80420000Y-49510000D01*
X75090000Y-48750000D02*
X74580000Y-49610000D01*
X78890000Y-48600000D02*
X78886911Y-48599841D01*
X78886911Y-48599841D02*
X77340000Y-48520000D01*
X77340000Y-48520000D02*
X76210000Y-48600000D01*
X76210000Y-48600000D02*
X75090000Y-48750000D01*
X71900000Y-48350000D02*
X72640000Y-49650000D01*
X73210000Y-49960000D02*
X72640000Y-49650000D01*
X73680000Y-49810000D02*
X73210000Y-49960000D01*
X74580000Y-49610000D02*
X73680000Y-49810000D01*
X76270000Y-48940000D02*
X75550000Y-49020000D01*
X75550000Y-49020000D02*
X74960000Y-49880000D01*
X74960000Y-49880000D02*
X73950000Y-50080000D01*
X73950000Y-50080000D02*
X72860000Y-50430000D01*
X72860000Y-50430000D02*
X70970000Y-51280000D01*
X70970000Y-51280000D02*
X69640000Y-52140000D01*
X69640000Y-52140000D02*
X68530000Y-53040000D01*
X68530000Y-53040000D02*
X67570000Y-54010000D01*
X67570000Y-54010000D02*
X66140000Y-54170000D01*
X66140000Y-54170000D02*
X65920000Y-54420000D01*
X65920000Y-54420000D02*
X64840000Y-54540000D01*
X76850000Y-49460000D02*
X76270000Y-48940000D01*
D18*
X65001803Y-57343072D02*
X64060000Y-56930000D01*
X64210000Y-65930000D02*
X63920000Y-64310000D01*
X66770000Y-71150000D02*
X65860000Y-69830000D01*
X65860000Y-69830000D02*
X64900000Y-68020000D01*
X64900000Y-68020000D02*
X64210000Y-65930000D01*
X69075000Y-70925000D02*
X66770000Y-71150000D01*
X66400000Y-54880000D02*
X69075000Y-54575000D01*
X65930000Y-55580000D02*
X66400000Y-54880000D01*
X65170000Y-56930000D02*
X65930000Y-55580000D01*
X64490000Y-58600000D02*
X65001803Y-57343072D01*
X65001803Y-57343072D02*
X65170000Y-56930000D01*
X64020000Y-60420000D02*
X64490000Y-58600000D01*
X63830000Y-62430000D02*
X64020000Y-60420000D01*
X63920000Y-64310000D02*
X63830000Y-62430000D01*
D16*
G36*
X78744159Y-40899860D02*
X79937617Y-40999315D01*
X81132664Y-41198490D01*
X82476108Y-41447276D01*
X84419499Y-42045242D01*
X84919616Y-42211948D01*
X83843319Y-45054475D01*
X83505423Y-44926484D01*
X83502671Y-44925488D01*
X82692671Y-44645488D01*
X82685997Y-44643438D01*
X81905997Y-44433438D01*
X81901410Y-44432319D01*
X81171410Y-44272319D01*
X81166440Y-44271361D01*
X80506440Y-44161361D01*
X80505758Y-44161249D01*
X79565758Y-44011249D01*
X79546190Y-44010073D01*
X79526768Y-44012736D01*
X79508239Y-44019137D01*
X79491315Y-44029030D01*
X79476647Y-44042035D01*
X79464797Y-44057651D01*
X79456221Y-44075279D01*
X79451249Y-44094242D01*
X79450000Y-44110000D01*
X79450000Y-46650000D01*
X79451921Y-46669509D01*
X79457612Y-46688268D01*
X79466853Y-46705557D01*
X79479289Y-46720711D01*
X79494443Y-46733147D01*
X79511732Y-46742388D01*
X79534897Y-46748853D01*
X80251080Y-46858270D01*
X80976390Y-47027178D01*
X81683373Y-47206413D01*
X82548093Y-47464835D01*
X82883091Y-47590459D01*
X82347545Y-49004850D01*
X82320677Y-49015705D01*
X82222219Y-49080135D01*
X82138150Y-49162461D01*
X82071672Y-49259549D01*
X82025318Y-49367700D01*
X82000854Y-49482795D01*
X81999211Y-49600450D01*
X82020452Y-49716183D01*
X82049973Y-49790745D01*
X81782546Y-50497028D01*
X81036245Y-50206800D01*
X81024254Y-50202986D01*
X80578001Y-50091423D01*
X80582133Y-50090694D01*
X80691835Y-50048143D01*
X80791184Y-49985094D01*
X80876395Y-49903949D01*
X80944221Y-49807799D01*
X80992080Y-49700306D01*
X81018149Y-49585564D01*
X81020026Y-49451167D01*
X80997171Y-49335742D01*
X80952332Y-49226954D01*
X80887216Y-49128948D01*
X80804305Y-49045455D01*
X80706755Y-48979657D01*
X80598283Y-48934060D01*
X80563262Y-48926871D01*
X80440739Y-48662233D01*
X80425364Y-48636072D01*
X80410865Y-48609399D01*
X80406843Y-48604559D01*
X80403656Y-48599136D01*
X80383499Y-48576467D01*
X80364090Y-48553110D01*
X80359202Y-48549141D01*
X80355025Y-48544444D01*
X80330848Y-48526122D01*
X80307271Y-48506980D01*
X80301708Y-48504038D01*
X80296695Y-48500239D01*
X80269403Y-48486953D01*
X80242575Y-48472765D01*
X80236551Y-48470961D01*
X80230890Y-48468205D01*
X80201521Y-48460469D01*
X80172464Y-48451767D01*
X80167319Y-48450797D01*
X80110231Y-48440450D01*
X80489211Y-48440450D01*
X80510452Y-48556183D01*
X80553768Y-48665586D01*
X80617509Y-48764492D01*
X80699247Y-48849134D01*
X80795868Y-48916287D01*
X80903693Y-48963395D01*
X81018614Y-48988662D01*
X81136254Y-48991126D01*
X81252133Y-48970694D01*
X81361835Y-48928143D01*
X81461184Y-48865094D01*
X81546395Y-48783949D01*
X81614221Y-48687799D01*
X81662080Y-48580306D01*
X81688149Y-48465564D01*
X81690026Y-48331167D01*
X81667171Y-48215742D01*
X81622332Y-48106954D01*
X81557216Y-48008948D01*
X81474305Y-47925455D01*
X81376755Y-47859657D01*
X81268283Y-47814060D01*
X81153021Y-47790400D01*
X81035357Y-47789578D01*
X80919775Y-47811627D01*
X80810677Y-47855705D01*
X80712219Y-47920135D01*
X80628150Y-48002461D01*
X80561672Y-48099549D01*
X80515318Y-48207700D01*
X80490854Y-48322795D01*
X80489211Y-48440450D01*
X80110231Y-48440450D01*
X78953788Y-48230852D01*
X78936701Y-48229455D01*
X78914504Y-48225802D01*
X78909277Y-48225496D01*
X78906333Y-48225344D01*
X78906240Y-48225339D01*
X77359329Y-48145498D01*
X77339034Y-48146436D01*
X77318743Y-48145603D01*
X77313517Y-48145936D01*
X76183518Y-48225936D01*
X76174528Y-48227465D01*
X76165416Y-48227660D01*
X76160221Y-48228319D01*
X75040221Y-48378319D01*
X75020774Y-48382890D01*
X75000988Y-48385717D01*
X74985227Y-48391246D01*
X74968976Y-48395066D01*
X74950785Y-48403329D01*
X74931927Y-48409944D01*
X74917545Y-48418426D01*
X74902341Y-48425332D01*
X74886097Y-48436974D01*
X74868887Y-48447124D01*
X74856427Y-48458238D01*
X74842853Y-48467966D01*
X74829178Y-48482542D01*
X74814270Y-48495840D01*
X74804208Y-48509160D01*
X74792779Y-48521342D01*
X74782196Y-48538297D01*
X74770154Y-48554237D01*
X74767452Y-48558721D01*
X74340230Y-49279135D01*
X73598651Y-49443930D01*
X73585033Y-49448389D01*
X73570984Y-49451196D01*
X73565985Y-49452753D01*
X73248513Y-49554074D01*
X72913037Y-49371623D01*
X72457924Y-48572100D01*
X72472080Y-48540306D01*
X72498149Y-48425564D01*
X72500026Y-48291167D01*
X72477171Y-48175742D01*
X72432332Y-48066954D01*
X72367216Y-47968948D01*
X72284305Y-47885455D01*
X72186755Y-47819657D01*
X72078283Y-47774060D01*
X71963021Y-47750400D01*
X71845357Y-47749578D01*
X71729775Y-47771627D01*
X71620677Y-47815705D01*
X71522219Y-47880135D01*
X71443071Y-47957642D01*
X71386755Y-47919657D01*
X71278283Y-47874060D01*
X71163021Y-47850400D01*
X71045357Y-47849578D01*
X70929775Y-47871627D01*
X70820677Y-47915705D01*
X70722219Y-47980135D01*
X70638150Y-48062461D01*
X70571672Y-48159549D01*
X70525318Y-48267700D01*
X70500854Y-48382795D01*
X70499211Y-48500450D01*
X70518643Y-48606326D01*
X70470677Y-48625705D01*
X70372219Y-48690135D01*
X70288150Y-48772461D01*
X70221672Y-48869549D01*
X70175318Y-48977700D01*
X70150854Y-49092795D01*
X70149211Y-49210450D01*
X70170452Y-49326183D01*
X70213768Y-49435586D01*
X70277509Y-49534492D01*
X70359247Y-49619134D01*
X70455868Y-49686287D01*
X70563693Y-49733395D01*
X70678614Y-49758662D01*
X70796254Y-49761126D01*
X70912133Y-49740694D01*
X70935916Y-49731469D01*
X70940452Y-49756183D01*
X70983768Y-49865586D01*
X71047509Y-49964492D01*
X71129247Y-50049134D01*
X71225868Y-50116287D01*
X71333693Y-50163395D01*
X71448614Y-50188662D01*
X71566254Y-50191126D01*
X71629217Y-50180024D01*
X71629211Y-50180450D01*
X71650452Y-50296183D01*
X71693768Y-50405586D01*
X71757509Y-50504492D01*
X71764348Y-50511574D01*
X70816188Y-50937996D01*
X70793842Y-50950802D01*
X70770796Y-50962286D01*
X70766379Y-50965098D01*
X69436379Y-51825098D01*
X69422668Y-51835999D01*
X69407915Y-51845447D01*
X69403825Y-51848716D01*
X68524647Y-52561563D01*
X68482988Y-52300000D01*
X66870713Y-52300000D01*
X66834854Y-52264141D01*
X66764141Y-52334854D01*
X66800000Y-52370713D01*
X66800000Y-53718814D01*
X66700000Y-53730003D01*
X66700000Y-52300000D01*
X65081741Y-52300000D01*
X65036755Y-52269657D01*
X64928283Y-52224060D01*
X64813021Y-52200400D01*
X64695357Y-52199578D01*
X64579775Y-52221627D01*
X64470677Y-52265705D01*
X64372219Y-52330135D01*
X64288150Y-52412461D01*
X64221672Y-52509549D01*
X64175318Y-52617700D01*
X64150854Y-52732795D01*
X64149211Y-52850450D01*
X64170452Y-52966183D01*
X64213768Y-53075586D01*
X64277509Y-53174492D01*
X64359247Y-53259134D01*
X64455868Y-53326287D01*
X64563693Y-53373395D01*
X64678614Y-53398662D01*
X64796254Y-53401126D01*
X64912133Y-53380694D01*
X65021835Y-53338143D01*
X65121184Y-53275094D01*
X65206395Y-53193949D01*
X65209621Y-53189375D01*
X65234536Y-53237319D01*
X65456272Y-53514000D01*
X65727725Y-53742106D01*
X65936544Y-53856863D01*
X65916142Y-53869147D01*
X65908053Y-53876495D01*
X65899034Y-53882667D01*
X65881015Y-53901057D01*
X65861970Y-53918358D01*
X65858483Y-53922264D01*
X65734354Y-54063320D01*
X65264137Y-54115566D01*
X65224305Y-54075455D01*
X65126755Y-54009657D01*
X65018283Y-53964060D01*
X64903021Y-53940400D01*
X64785357Y-53939578D01*
X64669775Y-53961627D01*
X64560677Y-54005705D01*
X64462219Y-54070135D01*
X64378150Y-54152461D01*
X64311672Y-54249549D01*
X64265318Y-54357700D01*
X64240854Y-54472795D01*
X64239211Y-54590450D01*
X64260452Y-54706183D01*
X64303768Y-54815586D01*
X64367509Y-54914492D01*
X64449247Y-54999134D01*
X64545868Y-55066287D01*
X64653693Y-55113395D01*
X64768614Y-55138662D01*
X64886254Y-55141126D01*
X65002133Y-55120694D01*
X65111835Y-55078143D01*
X65211184Y-55015094D01*
X65296395Y-54933949D01*
X65347947Y-54860869D01*
X65587573Y-54834244D01*
X65348845Y-55189796D01*
X65338114Y-55209744D01*
X65324872Y-55228119D01*
X65320018Y-55236602D01*
X64651067Y-56424871D01*
X64341163Y-56288948D01*
X64211295Y-56246545D01*
X64075663Y-56230176D01*
X63939434Y-56240461D01*
X63807799Y-56277011D01*
X63762386Y-56299870D01*
X63732332Y-56226954D01*
X63667216Y-56128948D01*
X63584305Y-56045455D01*
X63486755Y-55979657D01*
X63378283Y-55934060D01*
X63263021Y-55910400D01*
X63145357Y-55909578D01*
X63029775Y-55931627D01*
X62920677Y-55975705D01*
X62822219Y-56040135D01*
X62738150Y-56122461D01*
X62671672Y-56219549D01*
X62625318Y-56327700D01*
X62600854Y-56442795D01*
X62599211Y-56560450D01*
X62620452Y-56676183D01*
X62663768Y-56785586D01*
X62727509Y-56884492D01*
X62809247Y-56969134D01*
X62905868Y-57036287D01*
X63013693Y-57083395D01*
X63128614Y-57108662D01*
X63246254Y-57111126D01*
X63362133Y-57090694D01*
X63379915Y-57083797D01*
X63405266Y-57177636D01*
X63427566Y-57222721D01*
X63370677Y-57245705D01*
X63272219Y-57310135D01*
X63188150Y-57392461D01*
X63121672Y-57489549D01*
X63075318Y-57597700D01*
X63050854Y-57712795D01*
X63049211Y-57830450D01*
X63070452Y-57946183D01*
X63113768Y-58055586D01*
X63177509Y-58154492D01*
X63259247Y-58239134D01*
X63355868Y-58306287D01*
X63463693Y-58353395D01*
X63578614Y-58378662D01*
X63696254Y-58381126D01*
X63812133Y-58360694D01*
X63837244Y-58350954D01*
X63829714Y-58376285D01*
X63814745Y-58415527D01*
X63812235Y-58424973D01*
X63342235Y-60244973D01*
X63334431Y-60294919D01*
X63324094Y-60344400D01*
X63323107Y-60354125D01*
X63133107Y-62364125D01*
X63133263Y-62408956D01*
X63130401Y-62453706D01*
X63130801Y-62463472D01*
X63139731Y-62650000D01*
X61458006Y-62650000D01*
X61468504Y-62630360D01*
X61485659Y-62573810D01*
X61491451Y-62515000D01*
X61491451Y-61715000D01*
X61485659Y-61656190D01*
X61468504Y-61599640D01*
X61440647Y-61547523D01*
X61403158Y-61501842D01*
X61357477Y-61464353D01*
X61305360Y-61436496D01*
X61248810Y-61419341D01*
X61190000Y-61413549D01*
X60390000Y-61413549D01*
X60331190Y-61419341D01*
X60274640Y-61436496D01*
X60222523Y-61464353D01*
X60176842Y-61501842D01*
X60155000Y-61528457D01*
X60133158Y-61501842D01*
X60087477Y-61464353D01*
X60035360Y-61436496D01*
X59978810Y-61419341D01*
X59920000Y-61413549D01*
X59120000Y-61413549D01*
X59061190Y-61419341D01*
X59004640Y-61436496D01*
X58952523Y-61464353D01*
X58906842Y-61501842D01*
X58885000Y-61528457D01*
X58863158Y-61501842D01*
X58817477Y-61464353D01*
X58765360Y-61436496D01*
X58708810Y-61419341D01*
X58650000Y-61413549D01*
X57850000Y-61413549D01*
X57791190Y-61419341D01*
X57734640Y-61436496D01*
X57682523Y-61464353D01*
X57636842Y-61501842D01*
X57615000Y-61528457D01*
X57593158Y-61501842D01*
X57547477Y-61464353D01*
X57495360Y-61436496D01*
X57438810Y-61419341D01*
X57380000Y-61413549D01*
X56580000Y-61413549D01*
X56521190Y-61419341D01*
X56464640Y-61436496D01*
X56412523Y-61464353D01*
X56366842Y-61501842D01*
X56345000Y-61528457D01*
X56323158Y-61501842D01*
X56277477Y-61464353D01*
X56225360Y-61436496D01*
X56168810Y-61419341D01*
X56110000Y-61413549D01*
X55409496Y-61413549D01*
X55444300Y-60630450D01*
X59669211Y-60630450D01*
X59690452Y-60746183D01*
X59733768Y-60855586D01*
X59797509Y-60954492D01*
X59879247Y-61039134D01*
X59975868Y-61106287D01*
X60083693Y-61153395D01*
X60198614Y-61178662D01*
X60316254Y-61181126D01*
X60432133Y-61160694D01*
X60541835Y-61118143D01*
X60641184Y-61055094D01*
X60726395Y-60973949D01*
X60794221Y-60877799D01*
X60842080Y-60770306D01*
X60868149Y-60655564D01*
X60870026Y-60521167D01*
X60847171Y-60405742D01*
X60802332Y-60296954D01*
X60737216Y-60198948D01*
X60654305Y-60115455D01*
X60556755Y-60049657D01*
X60448283Y-60004060D01*
X60333021Y-59980400D01*
X60215357Y-59979578D01*
X60099775Y-60001627D01*
X59990677Y-60045705D01*
X59892219Y-60110135D01*
X59808150Y-60192461D01*
X59741672Y-60289549D01*
X59695318Y-60397700D01*
X59670854Y-60512795D01*
X59669211Y-60630450D01*
X55444300Y-60630450D01*
X55449701Y-60508936D01*
X55646793Y-59050450D01*
X59019211Y-59050450D01*
X59040452Y-59166183D01*
X59083768Y-59275586D01*
X59147509Y-59374492D01*
X59229247Y-59459134D01*
X59325868Y-59526287D01*
X59433693Y-59573395D01*
X59548614Y-59598662D01*
X59666254Y-59601126D01*
X59782133Y-59580694D01*
X59891835Y-59538143D01*
X59991184Y-59475094D01*
X60076395Y-59393949D01*
X60144221Y-59297799D01*
X60192080Y-59190306D01*
X60218149Y-59075564D01*
X60220026Y-58941167D01*
X60197171Y-58825742D01*
X60152332Y-58716954D01*
X60087216Y-58618948D01*
X60004305Y-58535455D01*
X59906755Y-58469657D01*
X59798283Y-58424060D01*
X59683021Y-58400400D01*
X59565357Y-58399578D01*
X59449775Y-58421627D01*
X59340677Y-58465705D01*
X59242219Y-58530135D01*
X59158150Y-58612461D01*
X59091672Y-58709549D01*
X59045318Y-58817700D01*
X59020854Y-58932795D01*
X59019211Y-59050450D01*
X55646793Y-59050450D01*
X55698479Y-58667978D01*
X55785601Y-58290450D01*
X61809211Y-58290450D01*
X61830452Y-58406183D01*
X61873768Y-58515586D01*
X61937509Y-58614492D01*
X62019247Y-58699134D01*
X62115868Y-58766287D01*
X62223693Y-58813395D01*
X62338614Y-58838662D01*
X62456254Y-58841126D01*
X62572133Y-58820694D01*
X62681835Y-58778143D01*
X62781184Y-58715094D01*
X62866395Y-58633949D01*
X62934221Y-58537799D01*
X62982080Y-58430306D01*
X63008149Y-58315564D01*
X63010026Y-58181167D01*
X62987171Y-58065742D01*
X62942332Y-57956954D01*
X62877216Y-57858948D01*
X62794305Y-57775455D01*
X62696755Y-57709657D01*
X62588283Y-57664060D01*
X62473021Y-57640400D01*
X62355357Y-57639578D01*
X62239775Y-57661627D01*
X62130677Y-57705705D01*
X62032219Y-57770135D01*
X61948150Y-57852461D01*
X61881672Y-57949549D01*
X61835318Y-58057700D01*
X61810854Y-58172795D01*
X61809211Y-58290450D01*
X55785601Y-58290450D01*
X55996906Y-57374797D01*
X56445119Y-55781148D01*
X56737881Y-55000450D01*
X59099211Y-55000450D01*
X59120452Y-55116183D01*
X59163768Y-55225586D01*
X59227509Y-55324492D01*
X59309247Y-55409134D01*
X59405868Y-55476287D01*
X59513693Y-55523395D01*
X59628614Y-55548662D01*
X59746254Y-55551126D01*
X59862133Y-55530694D01*
X59971835Y-55488143D01*
X59993500Y-55474394D01*
X60013768Y-55525586D01*
X60077509Y-55624492D01*
X60159247Y-55709134D01*
X60255868Y-55776287D01*
X60363693Y-55823395D01*
X60478614Y-55848662D01*
X60596254Y-55851126D01*
X60712133Y-55830694D01*
X60821835Y-55788143D01*
X60921184Y-55725094D01*
X61006395Y-55643949D01*
X61074221Y-55547799D01*
X61122080Y-55440306D01*
X61148149Y-55325564D01*
X61150026Y-55191167D01*
X61127171Y-55075742D01*
X61082332Y-54966954D01*
X61017216Y-54868948D01*
X60934305Y-54785455D01*
X60836755Y-54719657D01*
X60728283Y-54674060D01*
X60613021Y-54650400D01*
X60495357Y-54649578D01*
X60379775Y-54671627D01*
X60270677Y-54715705D01*
X60256303Y-54725111D01*
X60232332Y-54666954D01*
X60167216Y-54568948D01*
X60084305Y-54485455D01*
X59986755Y-54419657D01*
X59878283Y-54374060D01*
X59763021Y-54350400D01*
X59645357Y-54349578D01*
X59529775Y-54371627D01*
X59420677Y-54415705D01*
X59322219Y-54480135D01*
X59238150Y-54562461D01*
X59171672Y-54659549D01*
X59125318Y-54767700D01*
X59100854Y-54882795D01*
X59099211Y-55000450D01*
X56737881Y-55000450D01*
X56892589Y-54587896D01*
X57489886Y-53243978D01*
X58200349Y-51917779D01*
X64972063Y-51917779D01*
X65017012Y-52200000D01*
X66700000Y-52200000D01*
X66700000Y-52165146D01*
X66764141Y-52165146D01*
X66834854Y-52235859D01*
X66870713Y-52200000D01*
X68482988Y-52200000D01*
X68527937Y-51917779D01*
X68428961Y-51577304D01*
X68353532Y-51432154D01*
X68428614Y-51448662D01*
X68546254Y-51451126D01*
X68662133Y-51430694D01*
X68771835Y-51388143D01*
X68830209Y-51351098D01*
X68877509Y-51424492D01*
X68959247Y-51509134D01*
X69055868Y-51576287D01*
X69163693Y-51623395D01*
X69278614Y-51648662D01*
X69396254Y-51651126D01*
X69512133Y-51630694D01*
X69621835Y-51588143D01*
X69721184Y-51525094D01*
X69806395Y-51443949D01*
X69874221Y-51347799D01*
X69922080Y-51240306D01*
X69948149Y-51125564D01*
X69950026Y-50991167D01*
X69927171Y-50875742D01*
X69882332Y-50766954D01*
X69817216Y-50668948D01*
X69734305Y-50585455D01*
X69636755Y-50519657D01*
X69528283Y-50474060D01*
X69413021Y-50450400D01*
X69295357Y-50449578D01*
X69179775Y-50471627D01*
X69070677Y-50515705D01*
X69020220Y-50548724D01*
X68967216Y-50468948D01*
X68884305Y-50385455D01*
X68786755Y-50319657D01*
X68678283Y-50274060D01*
X68563021Y-50250400D01*
X68445357Y-50249578D01*
X68329775Y-50271627D01*
X68220677Y-50315705D01*
X68122219Y-50380135D01*
X68038150Y-50462461D01*
X67971672Y-50559549D01*
X67925318Y-50667700D01*
X67900854Y-50782795D01*
X67899706Y-50864976D01*
X67772275Y-50757894D01*
X67461537Y-50587128D01*
X67123455Y-50480266D01*
X67082221Y-50472063D01*
X66800000Y-50517012D01*
X66800000Y-52129287D01*
X66764141Y-52165146D01*
X66700000Y-52165146D01*
X66700000Y-50517012D01*
X66417779Y-50472063D01*
X66077304Y-50571039D01*
X65762681Y-50734536D01*
X65486000Y-50956272D01*
X65257894Y-51227725D01*
X65087128Y-51538463D01*
X64980266Y-51876545D01*
X64972063Y-51917779D01*
X58200349Y-51917779D01*
X58236569Y-51850170D01*
X59111393Y-50450450D01*
X60499211Y-50450450D01*
X60520452Y-50566183D01*
X60563768Y-50675586D01*
X60627509Y-50774492D01*
X60709247Y-50859134D01*
X60805868Y-50926287D01*
X60913693Y-50973395D01*
X61028614Y-50998662D01*
X61146254Y-51001126D01*
X61262133Y-50980694D01*
X61371835Y-50938143D01*
X61471184Y-50875094D01*
X61556395Y-50793949D01*
X61624221Y-50697799D01*
X61672080Y-50590306D01*
X61698149Y-50475564D01*
X61700026Y-50341167D01*
X61677171Y-50225742D01*
X61632332Y-50116954D01*
X61567216Y-50018948D01*
X61484305Y-49935455D01*
X61386755Y-49869657D01*
X61341063Y-49850450D01*
X62299211Y-49850450D01*
X62320452Y-49966183D01*
X62363768Y-50075586D01*
X62427509Y-50174492D01*
X62509247Y-50259134D01*
X62605868Y-50326287D01*
X62713693Y-50373395D01*
X62828614Y-50398662D01*
X62946254Y-50401126D01*
X63062133Y-50380694D01*
X63171835Y-50338143D01*
X63271184Y-50275094D01*
X63356395Y-50193949D01*
X63424221Y-50097799D01*
X63447598Y-50045294D01*
X63509247Y-50109134D01*
X63605868Y-50176287D01*
X63713693Y-50223395D01*
X63828614Y-50248662D01*
X63946254Y-50251126D01*
X64062133Y-50230694D01*
X64171835Y-50188143D01*
X64271184Y-50125094D01*
X64356395Y-50043949D01*
X64424221Y-49947799D01*
X64472080Y-49840306D01*
X64498149Y-49725564D01*
X64500026Y-49591167D01*
X64477171Y-49475742D01*
X64466771Y-49450508D01*
X64496254Y-49451126D01*
X64612133Y-49430694D01*
X64721835Y-49388143D01*
X64821184Y-49325094D01*
X64906395Y-49243949D01*
X64974221Y-49147799D01*
X65022080Y-49040306D01*
X65048149Y-48925564D01*
X65049896Y-48800484D01*
X65162133Y-48780694D01*
X65271835Y-48738143D01*
X65371184Y-48675094D01*
X65397062Y-48650450D01*
X65599211Y-48650450D01*
X65620452Y-48766183D01*
X65663768Y-48875586D01*
X65727509Y-48974492D01*
X65809247Y-49059134D01*
X65905868Y-49126287D01*
X66013693Y-49173395D01*
X66128614Y-49198662D01*
X66246254Y-49201126D01*
X66362133Y-49180694D01*
X66471835Y-49138143D01*
X66571184Y-49075094D01*
X66656395Y-48993949D01*
X66724221Y-48897799D01*
X66772080Y-48790306D01*
X66798149Y-48675564D01*
X66800026Y-48541167D01*
X66777171Y-48425742D01*
X66732332Y-48316954D01*
X66667216Y-48218948D01*
X66584305Y-48135455D01*
X66486755Y-48069657D01*
X66378283Y-48024060D01*
X66263021Y-48000400D01*
X66145357Y-47999578D01*
X66029775Y-48021627D01*
X65920677Y-48065705D01*
X65822219Y-48130135D01*
X65738150Y-48212461D01*
X65671672Y-48309549D01*
X65625318Y-48417700D01*
X65600854Y-48532795D01*
X65599211Y-48650450D01*
X65397062Y-48650450D01*
X65456395Y-48593949D01*
X65524221Y-48497799D01*
X65572080Y-48390306D01*
X65598149Y-48275564D01*
X65600026Y-48141167D01*
X65577171Y-48025742D01*
X65532332Y-47916954D01*
X65467216Y-47818948D01*
X65384305Y-47735455D01*
X65286755Y-47669657D01*
X65178283Y-47624060D01*
X65063021Y-47600400D01*
X64945357Y-47599578D01*
X64829775Y-47621627D01*
X64720677Y-47665705D01*
X64622219Y-47730135D01*
X64538150Y-47812461D01*
X64471672Y-47909549D01*
X64425318Y-48017700D01*
X64400854Y-48132795D01*
X64399223Y-48249605D01*
X64395357Y-48249578D01*
X64279775Y-48271627D01*
X64170677Y-48315705D01*
X64072219Y-48380135D01*
X63988150Y-48462461D01*
X63921672Y-48559549D01*
X63875318Y-48667700D01*
X63850854Y-48782795D01*
X63849211Y-48900450D01*
X63870452Y-49016183D01*
X63883780Y-49049846D01*
X63845357Y-49049578D01*
X63729775Y-49071627D01*
X63620677Y-49115705D01*
X63522219Y-49180135D01*
X63438150Y-49262461D01*
X63371672Y-49359549D01*
X63352545Y-49404174D01*
X63284305Y-49335455D01*
X63186755Y-49269657D01*
X63078283Y-49224060D01*
X62963021Y-49200400D01*
X62845357Y-49199578D01*
X62729775Y-49221627D01*
X62620677Y-49265705D01*
X62522219Y-49330135D01*
X62438150Y-49412461D01*
X62371672Y-49509549D01*
X62325318Y-49617700D01*
X62300854Y-49732795D01*
X62299211Y-49850450D01*
X61341063Y-49850450D01*
X61278283Y-49824060D01*
X61163021Y-49800400D01*
X61045357Y-49799578D01*
X60929775Y-49821627D01*
X60820677Y-49865705D01*
X60722219Y-49930135D01*
X60638150Y-50012461D01*
X60571672Y-50109549D01*
X60525318Y-50217700D01*
X60500854Y-50332795D01*
X60499211Y-50450450D01*
X59111393Y-50450450D01*
X59232383Y-50256867D01*
X60177596Y-49013166D01*
X61522473Y-47469048D01*
X62062679Y-46950450D01*
X64449211Y-46950450D01*
X64470452Y-47066183D01*
X64513768Y-47175586D01*
X64577509Y-47274492D01*
X64659247Y-47359134D01*
X64755868Y-47426287D01*
X64863693Y-47473395D01*
X64978614Y-47498662D01*
X65096254Y-47501126D01*
X65212133Y-47480694D01*
X65321835Y-47438143D01*
X65421184Y-47375094D01*
X65506395Y-47293949D01*
X65574221Y-47197799D01*
X65622080Y-47090306D01*
X65648149Y-46975564D01*
X65650026Y-46841167D01*
X65627171Y-46725742D01*
X65596139Y-46650450D01*
X67449211Y-46650450D01*
X67470452Y-46766183D01*
X67513768Y-46875586D01*
X67577509Y-46974492D01*
X67659247Y-47059134D01*
X67755868Y-47126287D01*
X67863693Y-47173395D01*
X67978614Y-47198662D01*
X68096254Y-47201126D01*
X68212133Y-47180694D01*
X68321835Y-47138143D01*
X68421184Y-47075094D01*
X68506395Y-46993949D01*
X68574221Y-46897799D01*
X68603455Y-46832137D01*
X68678614Y-46848662D01*
X68796254Y-46851126D01*
X68912133Y-46830694D01*
X69021835Y-46788143D01*
X69121184Y-46725094D01*
X69176297Y-46672611D01*
X69177509Y-46674492D01*
X69259247Y-46759134D01*
X69355868Y-46826287D01*
X69463693Y-46873395D01*
X69578614Y-46898662D01*
X69696254Y-46901126D01*
X69812133Y-46880694D01*
X69921835Y-46838143D01*
X70021184Y-46775094D01*
X70106395Y-46693949D01*
X70174221Y-46597799D01*
X70217563Y-46500450D01*
X72449211Y-46500450D01*
X72470452Y-46616183D01*
X72513768Y-46725586D01*
X72577509Y-46824492D01*
X72659247Y-46909134D01*
X72755868Y-46976287D01*
X72853773Y-47019061D01*
X72850854Y-47032795D01*
X72849211Y-47150450D01*
X72870452Y-47266183D01*
X72913768Y-47375586D01*
X72977509Y-47474492D01*
X73059247Y-47559134D01*
X73155868Y-47626287D01*
X73263693Y-47673395D01*
X73378614Y-47698662D01*
X73496254Y-47701126D01*
X73612133Y-47680694D01*
X73673319Y-47656961D01*
X75413750Y-47656961D01*
X75437294Y-47765467D01*
X75543865Y-47816569D01*
X75658358Y-47845897D01*
X75776372Y-47852326D01*
X75893374Y-47835608D01*
X76004865Y-47796386D01*
X76062706Y-47765467D01*
X76086250Y-47656961D01*
X76413750Y-47656961D01*
X76437294Y-47765467D01*
X76543865Y-47816569D01*
X76658358Y-47845897D01*
X76776372Y-47852326D01*
X76893374Y-47835608D01*
X77004865Y-47796386D01*
X77062706Y-47765467D01*
X77086250Y-47656961D01*
X77413750Y-47656961D01*
X77437294Y-47765467D01*
X77543865Y-47816569D01*
X77658358Y-47845897D01*
X77776372Y-47852326D01*
X77893374Y-47835608D01*
X78004865Y-47796386D01*
X78062706Y-47765467D01*
X78086250Y-47656961D01*
X78413750Y-47656961D01*
X78437294Y-47765467D01*
X78543865Y-47816569D01*
X78658358Y-47845897D01*
X78776372Y-47852326D01*
X78893374Y-47835608D01*
X79004865Y-47796386D01*
X79062706Y-47765467D01*
X79086250Y-47656961D01*
X78750000Y-47320711D01*
X78413750Y-47656961D01*
X78086250Y-47656961D01*
X77750000Y-47320711D01*
X77413750Y-47656961D01*
X77086250Y-47656961D01*
X76750000Y-47320711D01*
X76413750Y-47656961D01*
X76086250Y-47656961D01*
X75750000Y-47320711D01*
X75413750Y-47656961D01*
X73673319Y-47656961D01*
X73721835Y-47638143D01*
X73821184Y-47575094D01*
X73906395Y-47493949D01*
X73974221Y-47397799D01*
X74022080Y-47290306D01*
X74025245Y-47276372D01*
X75147674Y-47276372D01*
X75164392Y-47393374D01*
X75203614Y-47504865D01*
X75234533Y-47562706D01*
X75343039Y-47586250D01*
X75679289Y-47250000D01*
X75820711Y-47250000D01*
X76156961Y-47586250D01*
X76250000Y-47566062D01*
X76343039Y-47586250D01*
X76679289Y-47250000D01*
X76820711Y-47250000D01*
X77156961Y-47586250D01*
X77250000Y-47566062D01*
X77343039Y-47586250D01*
X77679289Y-47250000D01*
X77820711Y-47250000D01*
X78156961Y-47586250D01*
X78250000Y-47566062D01*
X78343039Y-47586250D01*
X78679289Y-47250000D01*
X78820711Y-47250000D01*
X79156961Y-47586250D01*
X79265467Y-47562706D01*
X79316569Y-47456135D01*
X79345897Y-47341642D01*
X79352326Y-47223628D01*
X79335608Y-47106626D01*
X79296386Y-46995135D01*
X79265467Y-46937294D01*
X79156961Y-46913750D01*
X78820711Y-47250000D01*
X78679289Y-47250000D01*
X78343039Y-46913750D01*
X78250000Y-46933938D01*
X78156961Y-46913750D01*
X77820711Y-47250000D01*
X77679289Y-47250000D01*
X77343039Y-46913750D01*
X77250000Y-46933938D01*
X77156961Y-46913750D01*
X76820711Y-47250000D01*
X76679289Y-47250000D01*
X76343039Y-46913750D01*
X76250000Y-46933938D01*
X76156961Y-46913750D01*
X75820711Y-47250000D01*
X75679289Y-47250000D01*
X75343039Y-46913750D01*
X75234533Y-46937294D01*
X75183431Y-47043865D01*
X75154103Y-47158358D01*
X75147674Y-47276372D01*
X74025245Y-47276372D01*
X74048149Y-47175564D01*
X74050026Y-47041167D01*
X74027171Y-46925742D01*
X73982332Y-46816954D01*
X73917216Y-46718948D01*
X73855662Y-46656961D01*
X75413750Y-46656961D01*
X75433938Y-46750000D01*
X75413750Y-46843039D01*
X75750000Y-47179289D01*
X76086250Y-46843039D01*
X76066062Y-46750000D01*
X76086250Y-46656961D01*
X76413750Y-46656961D01*
X76433938Y-46750000D01*
X76413750Y-46843039D01*
X76750000Y-47179289D01*
X77086250Y-46843039D01*
X77066062Y-46750000D01*
X77086250Y-46656961D01*
X77413750Y-46656961D01*
X77433938Y-46750000D01*
X77413750Y-46843039D01*
X77750000Y-47179289D01*
X78086250Y-46843039D01*
X78066062Y-46750000D01*
X78086250Y-46656961D01*
X78413750Y-46656961D01*
X78433938Y-46750000D01*
X78413750Y-46843039D01*
X78750000Y-47179289D01*
X79086250Y-46843039D01*
X79066062Y-46750000D01*
X79086250Y-46656961D01*
X78750000Y-46320711D01*
X78413750Y-46656961D01*
X78086250Y-46656961D01*
X77750000Y-46320711D01*
X77413750Y-46656961D01*
X77086250Y-46656961D01*
X76750000Y-46320711D01*
X76413750Y-46656961D01*
X76086250Y-46656961D01*
X75750000Y-46320711D01*
X75413750Y-46656961D01*
X73855662Y-46656961D01*
X73834305Y-46635455D01*
X73736755Y-46569657D01*
X73646729Y-46531814D01*
X73648149Y-46525564D01*
X73650026Y-46391167D01*
X73627296Y-46276372D01*
X75147674Y-46276372D01*
X75164392Y-46393374D01*
X75203614Y-46504865D01*
X75234533Y-46562706D01*
X75343039Y-46586250D01*
X75679289Y-46250000D01*
X75820711Y-46250000D01*
X76156961Y-46586250D01*
X76250000Y-46566062D01*
X76343039Y-46586250D01*
X76679289Y-46250000D01*
X76820711Y-46250000D01*
X77156961Y-46586250D01*
X77250000Y-46566062D01*
X77343039Y-46586250D01*
X77679289Y-46250000D01*
X77820711Y-46250000D01*
X78156961Y-46586250D01*
X78250000Y-46566062D01*
X78343039Y-46586250D01*
X78679289Y-46250000D01*
X78820711Y-46250000D01*
X79156961Y-46586250D01*
X79265467Y-46562706D01*
X79316569Y-46456135D01*
X79345897Y-46341642D01*
X79352326Y-46223628D01*
X79335608Y-46106626D01*
X79296386Y-45995135D01*
X79265467Y-45937294D01*
X79156961Y-45913750D01*
X78820711Y-46250000D01*
X78679289Y-46250000D01*
X78343039Y-45913750D01*
X78250000Y-45933938D01*
X78156961Y-45913750D01*
X77820711Y-46250000D01*
X77679289Y-46250000D01*
X77343039Y-45913750D01*
X77250000Y-45933938D01*
X77156961Y-45913750D01*
X76820711Y-46250000D01*
X76679289Y-46250000D01*
X76343039Y-45913750D01*
X76250000Y-45933938D01*
X76156961Y-45913750D01*
X75820711Y-46250000D01*
X75679289Y-46250000D01*
X75343039Y-45913750D01*
X75234533Y-45937294D01*
X75183431Y-46043865D01*
X75154103Y-46158358D01*
X75147674Y-46276372D01*
X73627296Y-46276372D01*
X73627171Y-46275742D01*
X73582332Y-46166954D01*
X73517216Y-46068948D01*
X73434305Y-45985455D01*
X73336755Y-45919657D01*
X73228283Y-45874060D01*
X73113021Y-45850400D01*
X72995357Y-45849578D01*
X72879775Y-45871627D01*
X72770677Y-45915705D01*
X72672219Y-45980135D01*
X72588150Y-46062461D01*
X72521672Y-46159549D01*
X72475318Y-46267700D01*
X72450854Y-46382795D01*
X72449211Y-46500450D01*
X70217563Y-46500450D01*
X70222080Y-46490306D01*
X70248149Y-46375564D01*
X70250026Y-46241167D01*
X70227171Y-46125742D01*
X70182332Y-46016954D01*
X70121279Y-45925063D01*
X70228614Y-45948662D01*
X70346254Y-45951126D01*
X70462133Y-45930694D01*
X70571835Y-45888143D01*
X70671184Y-45825094D01*
X70756395Y-45743949D01*
X70817757Y-45656961D01*
X75413750Y-45656961D01*
X75433938Y-45750000D01*
X75413750Y-45843039D01*
X75750000Y-46179289D01*
X76086250Y-45843039D01*
X76066062Y-45750000D01*
X76086250Y-45656961D01*
X76413750Y-45656961D01*
X76433938Y-45750000D01*
X76413750Y-45843039D01*
X76750000Y-46179289D01*
X77086250Y-45843039D01*
X77066062Y-45750000D01*
X77086250Y-45656961D01*
X77413750Y-45656961D01*
X77433938Y-45750000D01*
X77413750Y-45843039D01*
X77750000Y-46179289D01*
X78086250Y-45843039D01*
X78066062Y-45750000D01*
X78086250Y-45656961D01*
X78413750Y-45656961D01*
X78433938Y-45750000D01*
X78413750Y-45843039D01*
X78750000Y-46179289D01*
X79086250Y-45843039D01*
X79066062Y-45750000D01*
X79086250Y-45656961D01*
X78750000Y-45320711D01*
X78413750Y-45656961D01*
X78086250Y-45656961D01*
X77750000Y-45320711D01*
X77413750Y-45656961D01*
X77086250Y-45656961D01*
X76750000Y-45320711D01*
X76413750Y-45656961D01*
X76086250Y-45656961D01*
X75750000Y-45320711D01*
X75413750Y-45656961D01*
X70817757Y-45656961D01*
X70824221Y-45647799D01*
X70872080Y-45540306D01*
X70898149Y-45425564D01*
X70900026Y-45291167D01*
X70897097Y-45276372D01*
X75147674Y-45276372D01*
X75164392Y-45393374D01*
X75203614Y-45504865D01*
X75234533Y-45562706D01*
X75343039Y-45586250D01*
X75679289Y-45250000D01*
X75820711Y-45250000D01*
X76156961Y-45586250D01*
X76250000Y-45566062D01*
X76343039Y-45586250D01*
X76679289Y-45250000D01*
X76820711Y-45250000D01*
X77156961Y-45586250D01*
X77250000Y-45566062D01*
X77343039Y-45586250D01*
X77679289Y-45250000D01*
X77820711Y-45250000D01*
X78156961Y-45586250D01*
X78250000Y-45566062D01*
X78343039Y-45586250D01*
X78679289Y-45250000D01*
X78820711Y-45250000D01*
X79156961Y-45586250D01*
X79265467Y-45562706D01*
X79316569Y-45456135D01*
X79345897Y-45341642D01*
X79352326Y-45223628D01*
X79335608Y-45106626D01*
X79296386Y-44995135D01*
X79265467Y-44937294D01*
X79156961Y-44913750D01*
X78820711Y-45250000D01*
X78679289Y-45250000D01*
X78343039Y-44913750D01*
X78250000Y-44933938D01*
X78156961Y-44913750D01*
X77820711Y-45250000D01*
X77679289Y-45250000D01*
X77343039Y-44913750D01*
X77250000Y-44933938D01*
X77156961Y-44913750D01*
X76820711Y-45250000D01*
X76679289Y-45250000D01*
X76343039Y-44913750D01*
X76250000Y-44933938D01*
X76156961Y-44913750D01*
X75820711Y-45250000D01*
X75679289Y-45250000D01*
X75343039Y-44913750D01*
X75234533Y-44937294D01*
X75183431Y-45043865D01*
X75154103Y-45158358D01*
X75147674Y-45276372D01*
X70897097Y-45276372D01*
X70877171Y-45175742D01*
X70832332Y-45066954D01*
X70767216Y-44968948D01*
X70684305Y-44885455D01*
X70586755Y-44819657D01*
X70478283Y-44774060D01*
X70363021Y-44750400D01*
X70245357Y-44749578D01*
X70129775Y-44771627D01*
X70020677Y-44815705D01*
X69922219Y-44880135D01*
X69838150Y-44962461D01*
X69771672Y-45059549D01*
X69725318Y-45167700D01*
X69700854Y-45282795D01*
X69699211Y-45400450D01*
X69720452Y-45516183D01*
X69763768Y-45625586D01*
X69827070Y-45723811D01*
X69713021Y-45700400D01*
X69595357Y-45699578D01*
X69479775Y-45721627D01*
X69370677Y-45765705D01*
X69272219Y-45830135D01*
X69223274Y-45878065D01*
X69217216Y-45868948D01*
X69134305Y-45785455D01*
X69036755Y-45719657D01*
X68928283Y-45674060D01*
X68813021Y-45650400D01*
X68695357Y-45649578D01*
X68579775Y-45671627D01*
X68470677Y-45715705D01*
X68372219Y-45780135D01*
X68288150Y-45862461D01*
X68221672Y-45959549D01*
X68196793Y-46017596D01*
X68113021Y-46000400D01*
X67995357Y-45999578D01*
X67879775Y-46021627D01*
X67770677Y-46065705D01*
X67672219Y-46130135D01*
X67588150Y-46212461D01*
X67521672Y-46309549D01*
X67475318Y-46417700D01*
X67450854Y-46532795D01*
X67449211Y-46650450D01*
X65596139Y-46650450D01*
X65582332Y-46616954D01*
X65517216Y-46518948D01*
X65434305Y-46435455D01*
X65336755Y-46369657D01*
X65228283Y-46324060D01*
X65113021Y-46300400D01*
X64995357Y-46299578D01*
X64879775Y-46321627D01*
X64770677Y-46365705D01*
X64672219Y-46430135D01*
X64588150Y-46512461D01*
X64521672Y-46609549D01*
X64475318Y-46717700D01*
X64450854Y-46832795D01*
X64449211Y-46950450D01*
X62062679Y-46950450D01*
X62765993Y-46275269D01*
X64009825Y-45280203D01*
X64907292Y-44656961D01*
X75413750Y-44656961D01*
X75433938Y-44750000D01*
X75413750Y-44843039D01*
X75750000Y-45179289D01*
X76086250Y-44843039D01*
X76066062Y-44750000D01*
X76086250Y-44656961D01*
X76413750Y-44656961D01*
X76433938Y-44750000D01*
X76413750Y-44843039D01*
X76750000Y-45179289D01*
X77086250Y-44843039D01*
X77066062Y-44750000D01*
X77086250Y-44656961D01*
X77413750Y-44656961D01*
X77433938Y-44750000D01*
X77413750Y-44843039D01*
X77750000Y-45179289D01*
X78086250Y-44843039D01*
X78066062Y-44750000D01*
X78086250Y-44656961D01*
X78413750Y-44656961D01*
X78433938Y-44750000D01*
X78413750Y-44843039D01*
X78750000Y-45179289D01*
X79086250Y-44843039D01*
X79066062Y-44750000D01*
X79086250Y-44656961D01*
X78750000Y-44320711D01*
X78413750Y-44656961D01*
X78086250Y-44656961D01*
X77750000Y-44320711D01*
X77413750Y-44656961D01*
X77086250Y-44656961D01*
X76750000Y-44320711D01*
X76413750Y-44656961D01*
X76086250Y-44656961D01*
X75750000Y-44320711D01*
X75413750Y-44656961D01*
X64907292Y-44656961D01*
X65455340Y-44276372D01*
X75147674Y-44276372D01*
X75164392Y-44393374D01*
X75203614Y-44504865D01*
X75234533Y-44562706D01*
X75343039Y-44586250D01*
X75679289Y-44250000D01*
X75820711Y-44250000D01*
X76156961Y-44586250D01*
X76250000Y-44566062D01*
X76343039Y-44586250D01*
X76679289Y-44250000D01*
X76820711Y-44250000D01*
X77156961Y-44586250D01*
X77250000Y-44566062D01*
X77343039Y-44586250D01*
X77679289Y-44250000D01*
X77820711Y-44250000D01*
X78156961Y-44586250D01*
X78250000Y-44566062D01*
X78343039Y-44586250D01*
X78679289Y-44250000D01*
X78820711Y-44250000D01*
X79156961Y-44586250D01*
X79265467Y-44562706D01*
X79316569Y-44456135D01*
X79345897Y-44341642D01*
X79352326Y-44223628D01*
X79335608Y-44106626D01*
X79296386Y-43995135D01*
X79265467Y-43937294D01*
X79156961Y-43913750D01*
X78820711Y-44250000D01*
X78679289Y-44250000D01*
X78343039Y-43913750D01*
X78250000Y-43933938D01*
X78156961Y-43913750D01*
X77820711Y-44250000D01*
X77679289Y-44250000D01*
X77343039Y-43913750D01*
X77250000Y-43933938D01*
X77156961Y-43913750D01*
X76820711Y-44250000D01*
X76679289Y-44250000D01*
X76343039Y-43913750D01*
X76250000Y-43933938D01*
X76156961Y-43913750D01*
X75820711Y-44250000D01*
X75679289Y-44250000D01*
X75343039Y-43913750D01*
X75234533Y-43937294D01*
X75183431Y-44043865D01*
X75154103Y-44158358D01*
X75147674Y-44276372D01*
X65455340Y-44276372D01*
X65802614Y-44035210D01*
X66154927Y-43843039D01*
X75413750Y-43843039D01*
X75750000Y-44179289D01*
X76086250Y-43843039D01*
X76413750Y-43843039D01*
X76750000Y-44179289D01*
X77086250Y-43843039D01*
X77413750Y-43843039D01*
X77750000Y-44179289D01*
X78086250Y-43843039D01*
X78413750Y-43843039D01*
X78750000Y-44179289D01*
X79086250Y-43843039D01*
X79062706Y-43734533D01*
X78956135Y-43683431D01*
X78841642Y-43654103D01*
X78723628Y-43647674D01*
X78606626Y-43664392D01*
X78495135Y-43703614D01*
X78437294Y-43734533D01*
X78413750Y-43843039D01*
X78086250Y-43843039D01*
X78062706Y-43734533D01*
X77956135Y-43683431D01*
X77841642Y-43654103D01*
X77723628Y-43647674D01*
X77606626Y-43664392D01*
X77495135Y-43703614D01*
X77437294Y-43734533D01*
X77413750Y-43843039D01*
X77086250Y-43843039D01*
X77062706Y-43734533D01*
X76956135Y-43683431D01*
X76841642Y-43654103D01*
X76723628Y-43647674D01*
X76606626Y-43664392D01*
X76495135Y-43703614D01*
X76437294Y-43734533D01*
X76413750Y-43843039D01*
X76086250Y-43843039D01*
X76062706Y-43734533D01*
X75956135Y-43683431D01*
X75841642Y-43654103D01*
X75723628Y-43647674D01*
X75606626Y-43664392D01*
X75495135Y-43703614D01*
X75437294Y-43734533D01*
X75413750Y-43843039D01*
X66154927Y-43843039D01*
X67444693Y-43139531D01*
X68410671Y-42700450D01*
X72049211Y-42700450D01*
X72070452Y-42816183D01*
X72113768Y-42925586D01*
X72177509Y-43024492D01*
X72259247Y-43109134D01*
X72355868Y-43176287D01*
X72463693Y-43223395D01*
X72578614Y-43248662D01*
X72696254Y-43251126D01*
X72812133Y-43230694D01*
X72921835Y-43188143D01*
X73021184Y-43125094D01*
X73106395Y-43043949D01*
X73174221Y-42947799D01*
X73222080Y-42840306D01*
X73248149Y-42725564D01*
X73250026Y-42591167D01*
X73227171Y-42475742D01*
X73182332Y-42366954D01*
X73117216Y-42268948D01*
X73034305Y-42185455D01*
X72936755Y-42119657D01*
X72828283Y-42074060D01*
X72713021Y-42050400D01*
X72595357Y-42049578D01*
X72479775Y-42071627D01*
X72370677Y-42115705D01*
X72272219Y-42180135D01*
X72188150Y-42262461D01*
X72121672Y-42359549D01*
X72075318Y-42467700D01*
X72050854Y-42582795D01*
X72049211Y-42700450D01*
X68410671Y-42700450D01*
X69087741Y-42392691D01*
X70533947Y-41870450D01*
X75839211Y-41870450D01*
X75860452Y-41986183D01*
X75903768Y-42095586D01*
X75967509Y-42194492D01*
X76049247Y-42279134D01*
X76145868Y-42346287D01*
X76253693Y-42393395D01*
X76368614Y-42418662D01*
X76486254Y-42421126D01*
X76602133Y-42400694D01*
X76711835Y-42358143D01*
X76811184Y-42295094D01*
X76896395Y-42213949D01*
X76964221Y-42117799D01*
X77012080Y-42010306D01*
X77027951Y-41940450D01*
X77759211Y-41940450D01*
X77780452Y-42056183D01*
X77823768Y-42165586D01*
X77887509Y-42264492D01*
X77969247Y-42349134D01*
X78065868Y-42416287D01*
X78173693Y-42463395D01*
X78288614Y-42488662D01*
X78406254Y-42491126D01*
X78522133Y-42470694D01*
X78631835Y-42428143D01*
X78731184Y-42365094D01*
X78789940Y-42309141D01*
X78809247Y-42329134D01*
X78905868Y-42396287D01*
X79013693Y-42443395D01*
X79128614Y-42468662D01*
X79246254Y-42471126D01*
X79362133Y-42450694D01*
X79471835Y-42408143D01*
X79569797Y-42345974D01*
X79607509Y-42404492D01*
X79689247Y-42489134D01*
X79785868Y-42556287D01*
X79893693Y-42603395D01*
X80008614Y-42628662D01*
X80126254Y-42631126D01*
X80242133Y-42610694D01*
X80351835Y-42568143D01*
X80451184Y-42505094D01*
X80536395Y-42423949D01*
X80604221Y-42327799D01*
X80652080Y-42220306D01*
X80678149Y-42105564D01*
X80680026Y-41971167D01*
X80657171Y-41855742D01*
X80612332Y-41746954D01*
X80547216Y-41648948D01*
X80464305Y-41565455D01*
X80366755Y-41499657D01*
X80258283Y-41454060D01*
X80143021Y-41430400D01*
X80025357Y-41429578D01*
X79909775Y-41451627D01*
X79800677Y-41495705D01*
X79710788Y-41554528D01*
X79667216Y-41488948D01*
X79584305Y-41405455D01*
X79486755Y-41339657D01*
X79378283Y-41294060D01*
X79263021Y-41270400D01*
X79145357Y-41269578D01*
X79029775Y-41291627D01*
X78920677Y-41335705D01*
X78822219Y-41400135D01*
X78769970Y-41451300D01*
X78744305Y-41425455D01*
X78646755Y-41359657D01*
X78538283Y-41314060D01*
X78423021Y-41290400D01*
X78305357Y-41289578D01*
X78189775Y-41311627D01*
X78080677Y-41355705D01*
X77982219Y-41420135D01*
X77898150Y-41502461D01*
X77831672Y-41599549D01*
X77785318Y-41707700D01*
X77760854Y-41822795D01*
X77759211Y-41940450D01*
X77027951Y-41940450D01*
X77038149Y-41895564D01*
X77040026Y-41761167D01*
X77017171Y-41645742D01*
X76972332Y-41536954D01*
X76907216Y-41438948D01*
X76824305Y-41355455D01*
X76726755Y-41289657D01*
X76618283Y-41244060D01*
X76503021Y-41220400D01*
X76385357Y-41219578D01*
X76269775Y-41241627D01*
X76160677Y-41285705D01*
X76062219Y-41350135D01*
X75978150Y-41432461D01*
X75911672Y-41529549D01*
X75865318Y-41637700D01*
X75840854Y-41752795D01*
X75839211Y-41870450D01*
X70533947Y-41870450D01*
X70880024Y-41745478D01*
X72172834Y-41397414D01*
X73666221Y-41098736D01*
X75208417Y-40899743D01*
X76451997Y-40850000D01*
X77248349Y-40850000D01*
X78744159Y-40899860D01*
X78744159Y-40899860D01*
G37*
X78744159Y-40899860D02*
X79937617Y-40999315D01*
X81132664Y-41198490D01*
X82476108Y-41447276D01*
X84419499Y-42045242D01*
X84919616Y-42211948D01*
X83843319Y-45054475D01*
X83505423Y-44926484D01*
X83502671Y-44925488D01*
X82692671Y-44645488D01*
X82685997Y-44643438D01*
X81905997Y-44433438D01*
X81901410Y-44432319D01*
X81171410Y-44272319D01*
X81166440Y-44271361D01*
X80506440Y-44161361D01*
X80505758Y-44161249D01*
X79565758Y-44011249D01*
X79546190Y-44010073D01*
X79526768Y-44012736D01*
X79508239Y-44019137D01*
X79491315Y-44029030D01*
X79476647Y-44042035D01*
X79464797Y-44057651D01*
X79456221Y-44075279D01*
X79451249Y-44094242D01*
X79450000Y-44110000D01*
X79450000Y-46650000D01*
X79451921Y-46669509D01*
X79457612Y-46688268D01*
X79466853Y-46705557D01*
X79479289Y-46720711D01*
X79494443Y-46733147D01*
X79511732Y-46742388D01*
X79534897Y-46748853D01*
X80251080Y-46858270D01*
X80976390Y-47027178D01*
X81683373Y-47206413D01*
X82548093Y-47464835D01*
X82883091Y-47590459D01*
X82347545Y-49004850D01*
X82320677Y-49015705D01*
X82222219Y-49080135D01*
X82138150Y-49162461D01*
X82071672Y-49259549D01*
X82025318Y-49367700D01*
X82000854Y-49482795D01*
X81999211Y-49600450D01*
X82020452Y-49716183D01*
X82049973Y-49790745D01*
X81782546Y-50497028D01*
X81036245Y-50206800D01*
X81024254Y-50202986D01*
X80578001Y-50091423D01*
X80582133Y-50090694D01*
X80691835Y-50048143D01*
X80791184Y-49985094D01*
X80876395Y-49903949D01*
X80944221Y-49807799D01*
X80992080Y-49700306D01*
X81018149Y-49585564D01*
X81020026Y-49451167D01*
X80997171Y-49335742D01*
X80952332Y-49226954D01*
X80887216Y-49128948D01*
X80804305Y-49045455D01*
X80706755Y-48979657D01*
X80598283Y-48934060D01*
X80563262Y-48926871D01*
X80440739Y-48662233D01*
X80425364Y-48636072D01*
X80410865Y-48609399D01*
X80406843Y-48604559D01*
X80403656Y-48599136D01*
X80383499Y-48576467D01*
X80364090Y-48553110D01*
X80359202Y-48549141D01*
X80355025Y-48544444D01*
X80330848Y-48526122D01*
X80307271Y-48506980D01*
X80301708Y-48504038D01*
X80296695Y-48500239D01*
X80269403Y-48486953D01*
X80242575Y-48472765D01*
X80236551Y-48470961D01*
X80230890Y-48468205D01*
X80201521Y-48460469D01*
X80172464Y-48451767D01*
X80167319Y-48450797D01*
X80110231Y-48440450D01*
X80489211Y-48440450D01*
X80510452Y-48556183D01*
X80553768Y-48665586D01*
X80617509Y-48764492D01*
X80699247Y-48849134D01*
X80795868Y-48916287D01*
X80903693Y-48963395D01*
X81018614Y-48988662D01*
X81136254Y-48991126D01*
X81252133Y-48970694D01*
X81361835Y-48928143D01*
X81461184Y-48865094D01*
X81546395Y-48783949D01*
X81614221Y-48687799D01*
X81662080Y-48580306D01*
X81688149Y-48465564D01*
X81690026Y-48331167D01*
X81667171Y-48215742D01*
X81622332Y-48106954D01*
X81557216Y-48008948D01*
X81474305Y-47925455D01*
X81376755Y-47859657D01*
X81268283Y-47814060D01*
X81153021Y-47790400D01*
X81035357Y-47789578D01*
X80919775Y-47811627D01*
X80810677Y-47855705D01*
X80712219Y-47920135D01*
X80628150Y-48002461D01*
X80561672Y-48099549D01*
X80515318Y-48207700D01*
X80490854Y-48322795D01*
X80489211Y-48440450D01*
X80110231Y-48440450D01*
X78953788Y-48230852D01*
X78936701Y-48229455D01*
X78914504Y-48225802D01*
X78909277Y-48225496D01*
X78906333Y-48225344D01*
X78906240Y-48225339D01*
X77359329Y-48145498D01*
X77339034Y-48146436D01*
X77318743Y-48145603D01*
X77313517Y-48145936D01*
X76183518Y-48225936D01*
X76174528Y-48227465D01*
X76165416Y-48227660D01*
X76160221Y-48228319D01*
X75040221Y-48378319D01*
X75020774Y-48382890D01*
X75000988Y-48385717D01*
X74985227Y-48391246D01*
X74968976Y-48395066D01*
X74950785Y-48403329D01*
X74931927Y-48409944D01*
X74917545Y-48418426D01*
X74902341Y-48425332D01*
X74886097Y-48436974D01*
X74868887Y-48447124D01*
X74856427Y-48458238D01*
X74842853Y-48467966D01*
X74829178Y-48482542D01*
X74814270Y-48495840D01*
X74804208Y-48509160D01*
X74792779Y-48521342D01*
X74782196Y-48538297D01*
X74770154Y-48554237D01*
X74767452Y-48558721D01*
X74340230Y-49279135D01*
X73598651Y-49443930D01*
X73585033Y-49448389D01*
X73570984Y-49451196D01*
X73565985Y-49452753D01*
X73248513Y-49554074D01*
X72913037Y-49371623D01*
X72457924Y-48572100D01*
X72472080Y-48540306D01*
X72498149Y-48425564D01*
X72500026Y-48291167D01*
X72477171Y-48175742D01*
X72432332Y-48066954D01*
X72367216Y-47968948D01*
X72284305Y-47885455D01*
X72186755Y-47819657D01*
X72078283Y-47774060D01*
X71963021Y-47750400D01*
X71845357Y-47749578D01*
X71729775Y-47771627D01*
X71620677Y-47815705D01*
X71522219Y-47880135D01*
X71443071Y-47957642D01*
X71386755Y-47919657D01*
X71278283Y-47874060D01*
X71163021Y-47850400D01*
X71045357Y-47849578D01*
X70929775Y-47871627D01*
X70820677Y-47915705D01*
X70722219Y-47980135D01*
X70638150Y-48062461D01*
X70571672Y-48159549D01*
X70525318Y-48267700D01*
X70500854Y-48382795D01*
X70499211Y-48500450D01*
X70518643Y-48606326D01*
X70470677Y-48625705D01*
X70372219Y-48690135D01*
X70288150Y-48772461D01*
X70221672Y-48869549D01*
X70175318Y-48977700D01*
X70150854Y-49092795D01*
X70149211Y-49210450D01*
X70170452Y-49326183D01*
X70213768Y-49435586D01*
X70277509Y-49534492D01*
X70359247Y-49619134D01*
X70455868Y-49686287D01*
X70563693Y-49733395D01*
X70678614Y-49758662D01*
X70796254Y-49761126D01*
X70912133Y-49740694D01*
X70935916Y-49731469D01*
X70940452Y-49756183D01*
X70983768Y-49865586D01*
X71047509Y-49964492D01*
X71129247Y-50049134D01*
X71225868Y-50116287D01*
X71333693Y-50163395D01*
X71448614Y-50188662D01*
X71566254Y-50191126D01*
X71629217Y-50180024D01*
X71629211Y-50180450D01*
X71650452Y-50296183D01*
X71693768Y-50405586D01*
X71757509Y-50504492D01*
X71764348Y-50511574D01*
X70816188Y-50937996D01*
X70793842Y-50950802D01*
X70770796Y-50962286D01*
X70766379Y-50965098D01*
X69436379Y-51825098D01*
X69422668Y-51835999D01*
X69407915Y-51845447D01*
X69403825Y-51848716D01*
X68524647Y-52561563D01*
X68482988Y-52300000D01*
X66870713Y-52300000D01*
X66834854Y-52264141D01*
X66764141Y-52334854D01*
X66800000Y-52370713D01*
X66800000Y-53718814D01*
X66700000Y-53730003D01*
X66700000Y-52300000D01*
X65081741Y-52300000D01*
X65036755Y-52269657D01*
X64928283Y-52224060D01*
X64813021Y-52200400D01*
X64695357Y-52199578D01*
X64579775Y-52221627D01*
X64470677Y-52265705D01*
X64372219Y-52330135D01*
X64288150Y-52412461D01*
X64221672Y-52509549D01*
X64175318Y-52617700D01*
X64150854Y-52732795D01*
X64149211Y-52850450D01*
X64170452Y-52966183D01*
X64213768Y-53075586D01*
X64277509Y-53174492D01*
X64359247Y-53259134D01*
X64455868Y-53326287D01*
X64563693Y-53373395D01*
X64678614Y-53398662D01*
X64796254Y-53401126D01*
X64912133Y-53380694D01*
X65021835Y-53338143D01*
X65121184Y-53275094D01*
X65206395Y-53193949D01*
X65209621Y-53189375D01*
X65234536Y-53237319D01*
X65456272Y-53514000D01*
X65727725Y-53742106D01*
X65936544Y-53856863D01*
X65916142Y-53869147D01*
X65908053Y-53876495D01*
X65899034Y-53882667D01*
X65881015Y-53901057D01*
X65861970Y-53918358D01*
X65858483Y-53922264D01*
X65734354Y-54063320D01*
X65264137Y-54115566D01*
X65224305Y-54075455D01*
X65126755Y-54009657D01*
X65018283Y-53964060D01*
X64903021Y-53940400D01*
X64785357Y-53939578D01*
X64669775Y-53961627D01*
X64560677Y-54005705D01*
X64462219Y-54070135D01*
X64378150Y-54152461D01*
X64311672Y-54249549D01*
X64265318Y-54357700D01*
X64240854Y-54472795D01*
X64239211Y-54590450D01*
X64260452Y-54706183D01*
X64303768Y-54815586D01*
X64367509Y-54914492D01*
X64449247Y-54999134D01*
X64545868Y-55066287D01*
X64653693Y-55113395D01*
X64768614Y-55138662D01*
X64886254Y-55141126D01*
X65002133Y-55120694D01*
X65111835Y-55078143D01*
X65211184Y-55015094D01*
X65296395Y-54933949D01*
X65347947Y-54860869D01*
X65587573Y-54834244D01*
X65348845Y-55189796D01*
X65338114Y-55209744D01*
X65324872Y-55228119D01*
X65320018Y-55236602D01*
X64651067Y-56424871D01*
X64341163Y-56288948D01*
X64211295Y-56246545D01*
X64075663Y-56230176D01*
X63939434Y-56240461D01*
X63807799Y-56277011D01*
X63762386Y-56299870D01*
X63732332Y-56226954D01*
X63667216Y-56128948D01*
X63584305Y-56045455D01*
X63486755Y-55979657D01*
X63378283Y-55934060D01*
X63263021Y-55910400D01*
X63145357Y-55909578D01*
X63029775Y-55931627D01*
X62920677Y-55975705D01*
X62822219Y-56040135D01*
X62738150Y-56122461D01*
X62671672Y-56219549D01*
X62625318Y-56327700D01*
X62600854Y-56442795D01*
X62599211Y-56560450D01*
X62620452Y-56676183D01*
X62663768Y-56785586D01*
X62727509Y-56884492D01*
X62809247Y-56969134D01*
X62905868Y-57036287D01*
X63013693Y-57083395D01*
X63128614Y-57108662D01*
X63246254Y-57111126D01*
X63362133Y-57090694D01*
X63379915Y-57083797D01*
X63405266Y-57177636D01*
X63427566Y-57222721D01*
X63370677Y-57245705D01*
X63272219Y-57310135D01*
X63188150Y-57392461D01*
X63121672Y-57489549D01*
X63075318Y-57597700D01*
X63050854Y-57712795D01*
X63049211Y-57830450D01*
X63070452Y-57946183D01*
X63113768Y-58055586D01*
X63177509Y-58154492D01*
X63259247Y-58239134D01*
X63355868Y-58306287D01*
X63463693Y-58353395D01*
X63578614Y-58378662D01*
X63696254Y-58381126D01*
X63812133Y-58360694D01*
X63837244Y-58350954D01*
X63829714Y-58376285D01*
X63814745Y-58415527D01*
X63812235Y-58424973D01*
X63342235Y-60244973D01*
X63334431Y-60294919D01*
X63324094Y-60344400D01*
X63323107Y-60354125D01*
X63133107Y-62364125D01*
X63133263Y-62408956D01*
X63130401Y-62453706D01*
X63130801Y-62463472D01*
X63139731Y-62650000D01*
X61458006Y-62650000D01*
X61468504Y-62630360D01*
X61485659Y-62573810D01*
X61491451Y-62515000D01*
X61491451Y-61715000D01*
X61485659Y-61656190D01*
X61468504Y-61599640D01*
X61440647Y-61547523D01*
X61403158Y-61501842D01*
X61357477Y-61464353D01*
X61305360Y-61436496D01*
X61248810Y-61419341D01*
X61190000Y-61413549D01*
X60390000Y-61413549D01*
X60331190Y-61419341D01*
X60274640Y-61436496D01*
X60222523Y-61464353D01*
X60176842Y-61501842D01*
X60155000Y-61528457D01*
X60133158Y-61501842D01*
X60087477Y-61464353D01*
X60035360Y-61436496D01*
X59978810Y-61419341D01*
X59920000Y-61413549D01*
X59120000Y-61413549D01*
X59061190Y-61419341D01*
X59004640Y-61436496D01*
X58952523Y-61464353D01*
X58906842Y-61501842D01*
X58885000Y-61528457D01*
X58863158Y-61501842D01*
X58817477Y-61464353D01*
X58765360Y-61436496D01*
X58708810Y-61419341D01*
X58650000Y-61413549D01*
X57850000Y-61413549D01*
X57791190Y-61419341D01*
X57734640Y-61436496D01*
X57682523Y-61464353D01*
X57636842Y-61501842D01*
X57615000Y-61528457D01*
X57593158Y-61501842D01*
X57547477Y-61464353D01*
X57495360Y-61436496D01*
X57438810Y-61419341D01*
X57380000Y-61413549D01*
X56580000Y-61413549D01*
X56521190Y-61419341D01*
X56464640Y-61436496D01*
X56412523Y-61464353D01*
X56366842Y-61501842D01*
X56345000Y-61528457D01*
X56323158Y-61501842D01*
X56277477Y-61464353D01*
X56225360Y-61436496D01*
X56168810Y-61419341D01*
X56110000Y-61413549D01*
X55409496Y-61413549D01*
X55444300Y-60630450D01*
X59669211Y-60630450D01*
X59690452Y-60746183D01*
X59733768Y-60855586D01*
X59797509Y-60954492D01*
X59879247Y-61039134D01*
X59975868Y-61106287D01*
X60083693Y-61153395D01*
X60198614Y-61178662D01*
X60316254Y-61181126D01*
X60432133Y-61160694D01*
X60541835Y-61118143D01*
X60641184Y-61055094D01*
X60726395Y-60973949D01*
X60794221Y-60877799D01*
X60842080Y-60770306D01*
X60868149Y-60655564D01*
X60870026Y-60521167D01*
X60847171Y-60405742D01*
X60802332Y-60296954D01*
X60737216Y-60198948D01*
X60654305Y-60115455D01*
X60556755Y-60049657D01*
X60448283Y-60004060D01*
X60333021Y-59980400D01*
X60215357Y-59979578D01*
X60099775Y-60001627D01*
X59990677Y-60045705D01*
X59892219Y-60110135D01*
X59808150Y-60192461D01*
X59741672Y-60289549D01*
X59695318Y-60397700D01*
X59670854Y-60512795D01*
X59669211Y-60630450D01*
X55444300Y-60630450D01*
X55449701Y-60508936D01*
X55646793Y-59050450D01*
X59019211Y-59050450D01*
X59040452Y-59166183D01*
X59083768Y-59275586D01*
X59147509Y-59374492D01*
X59229247Y-59459134D01*
X59325868Y-59526287D01*
X59433693Y-59573395D01*
X59548614Y-59598662D01*
X59666254Y-59601126D01*
X59782133Y-59580694D01*
X59891835Y-59538143D01*
X59991184Y-59475094D01*
X60076395Y-59393949D01*
X60144221Y-59297799D01*
X60192080Y-59190306D01*
X60218149Y-59075564D01*
X60220026Y-58941167D01*
X60197171Y-58825742D01*
X60152332Y-58716954D01*
X60087216Y-58618948D01*
X60004305Y-58535455D01*
X59906755Y-58469657D01*
X59798283Y-58424060D01*
X59683021Y-58400400D01*
X59565357Y-58399578D01*
X59449775Y-58421627D01*
X59340677Y-58465705D01*
X59242219Y-58530135D01*
X59158150Y-58612461D01*
X59091672Y-58709549D01*
X59045318Y-58817700D01*
X59020854Y-58932795D01*
X59019211Y-59050450D01*
X55646793Y-59050450D01*
X55698479Y-58667978D01*
X55785601Y-58290450D01*
X61809211Y-58290450D01*
X61830452Y-58406183D01*
X61873768Y-58515586D01*
X61937509Y-58614492D01*
X62019247Y-58699134D01*
X62115868Y-58766287D01*
X62223693Y-58813395D01*
X62338614Y-58838662D01*
X62456254Y-58841126D01*
X62572133Y-58820694D01*
X62681835Y-58778143D01*
X62781184Y-58715094D01*
X62866395Y-58633949D01*
X62934221Y-58537799D01*
X62982080Y-58430306D01*
X63008149Y-58315564D01*
X63010026Y-58181167D01*
X62987171Y-58065742D01*
X62942332Y-57956954D01*
X62877216Y-57858948D01*
X62794305Y-57775455D01*
X62696755Y-57709657D01*
X62588283Y-57664060D01*
X62473021Y-57640400D01*
X62355357Y-57639578D01*
X62239775Y-57661627D01*
X62130677Y-57705705D01*
X62032219Y-57770135D01*
X61948150Y-57852461D01*
X61881672Y-57949549D01*
X61835318Y-58057700D01*
X61810854Y-58172795D01*
X61809211Y-58290450D01*
X55785601Y-58290450D01*
X55996906Y-57374797D01*
X56445119Y-55781148D01*
X56737881Y-55000450D01*
X59099211Y-55000450D01*
X59120452Y-55116183D01*
X59163768Y-55225586D01*
X59227509Y-55324492D01*
X59309247Y-55409134D01*
X59405868Y-55476287D01*
X59513693Y-55523395D01*
X59628614Y-55548662D01*
X59746254Y-55551126D01*
X59862133Y-55530694D01*
X59971835Y-55488143D01*
X59993500Y-55474394D01*
X60013768Y-55525586D01*
X60077509Y-55624492D01*
X60159247Y-55709134D01*
X60255868Y-55776287D01*
X60363693Y-55823395D01*
X60478614Y-55848662D01*
X60596254Y-55851126D01*
X60712133Y-55830694D01*
X60821835Y-55788143D01*
X60921184Y-55725094D01*
X61006395Y-55643949D01*
X61074221Y-55547799D01*
X61122080Y-55440306D01*
X61148149Y-55325564D01*
X61150026Y-55191167D01*
X61127171Y-55075742D01*
X61082332Y-54966954D01*
X61017216Y-54868948D01*
X60934305Y-54785455D01*
X60836755Y-54719657D01*
X60728283Y-54674060D01*
X60613021Y-54650400D01*
X60495357Y-54649578D01*
X60379775Y-54671627D01*
X60270677Y-54715705D01*
X60256303Y-54725111D01*
X60232332Y-54666954D01*
X60167216Y-54568948D01*
X60084305Y-54485455D01*
X59986755Y-54419657D01*
X59878283Y-54374060D01*
X59763021Y-54350400D01*
X59645357Y-54349578D01*
X59529775Y-54371627D01*
X59420677Y-54415705D01*
X59322219Y-54480135D01*
X59238150Y-54562461D01*
X59171672Y-54659549D01*
X59125318Y-54767700D01*
X59100854Y-54882795D01*
X59099211Y-55000450D01*
X56737881Y-55000450D01*
X56892589Y-54587896D01*
X57489886Y-53243978D01*
X58200349Y-51917779D01*
X64972063Y-51917779D01*
X65017012Y-52200000D01*
X66700000Y-52200000D01*
X66700000Y-52165146D01*
X66764141Y-52165146D01*
X66834854Y-52235859D01*
X66870713Y-52200000D01*
X68482988Y-52200000D01*
X68527937Y-51917779D01*
X68428961Y-51577304D01*
X68353532Y-51432154D01*
X68428614Y-51448662D01*
X68546254Y-51451126D01*
X68662133Y-51430694D01*
X68771835Y-51388143D01*
X68830209Y-51351098D01*
X68877509Y-51424492D01*
X68959247Y-51509134D01*
X69055868Y-51576287D01*
X69163693Y-51623395D01*
X69278614Y-51648662D01*
X69396254Y-51651126D01*
X69512133Y-51630694D01*
X69621835Y-51588143D01*
X69721184Y-51525094D01*
X69806395Y-51443949D01*
X69874221Y-51347799D01*
X69922080Y-51240306D01*
X69948149Y-51125564D01*
X69950026Y-50991167D01*
X69927171Y-50875742D01*
X69882332Y-50766954D01*
X69817216Y-50668948D01*
X69734305Y-50585455D01*
X69636755Y-50519657D01*
X69528283Y-50474060D01*
X69413021Y-50450400D01*
X69295357Y-50449578D01*
X69179775Y-50471627D01*
X69070677Y-50515705D01*
X69020220Y-50548724D01*
X68967216Y-50468948D01*
X68884305Y-50385455D01*
X68786755Y-50319657D01*
X68678283Y-50274060D01*
X68563021Y-50250400D01*
X68445357Y-50249578D01*
X68329775Y-50271627D01*
X68220677Y-50315705D01*
X68122219Y-50380135D01*
X68038150Y-50462461D01*
X67971672Y-50559549D01*
X67925318Y-50667700D01*
X67900854Y-50782795D01*
X67899706Y-50864976D01*
X67772275Y-50757894D01*
X67461537Y-50587128D01*
X67123455Y-50480266D01*
X67082221Y-50472063D01*
X66800000Y-50517012D01*
X66800000Y-52129287D01*
X66764141Y-52165146D01*
X66700000Y-52165146D01*
X66700000Y-50517012D01*
X66417779Y-50472063D01*
X66077304Y-50571039D01*
X65762681Y-50734536D01*
X65486000Y-50956272D01*
X65257894Y-51227725D01*
X65087128Y-51538463D01*
X64980266Y-51876545D01*
X64972063Y-51917779D01*
X58200349Y-51917779D01*
X58236569Y-51850170D01*
X59111393Y-50450450D01*
X60499211Y-50450450D01*
X60520452Y-50566183D01*
X60563768Y-50675586D01*
X60627509Y-50774492D01*
X60709247Y-50859134D01*
X60805868Y-50926287D01*
X60913693Y-50973395D01*
X61028614Y-50998662D01*
X61146254Y-51001126D01*
X61262133Y-50980694D01*
X61371835Y-50938143D01*
X61471184Y-50875094D01*
X61556395Y-50793949D01*
X61624221Y-50697799D01*
X61672080Y-50590306D01*
X61698149Y-50475564D01*
X61700026Y-50341167D01*
X61677171Y-50225742D01*
X61632332Y-50116954D01*
X61567216Y-50018948D01*
X61484305Y-49935455D01*
X61386755Y-49869657D01*
X61341063Y-49850450D01*
X62299211Y-49850450D01*
X62320452Y-49966183D01*
X62363768Y-50075586D01*
X62427509Y-50174492D01*
X62509247Y-50259134D01*
X62605868Y-50326287D01*
X62713693Y-50373395D01*
X62828614Y-50398662D01*
X62946254Y-50401126D01*
X63062133Y-50380694D01*
X63171835Y-50338143D01*
X63271184Y-50275094D01*
X63356395Y-50193949D01*
X63424221Y-50097799D01*
X63447598Y-50045294D01*
X63509247Y-50109134D01*
X63605868Y-50176287D01*
X63713693Y-50223395D01*
X63828614Y-50248662D01*
X63946254Y-50251126D01*
X64062133Y-50230694D01*
X64171835Y-50188143D01*
X64271184Y-50125094D01*
X64356395Y-50043949D01*
X64424221Y-49947799D01*
X64472080Y-49840306D01*
X64498149Y-49725564D01*
X64500026Y-49591167D01*
X64477171Y-49475742D01*
X64466771Y-49450508D01*
X64496254Y-49451126D01*
X64612133Y-49430694D01*
X64721835Y-49388143D01*
X64821184Y-49325094D01*
X64906395Y-49243949D01*
X64974221Y-49147799D01*
X65022080Y-49040306D01*
X65048149Y-48925564D01*
X65049896Y-48800484D01*
X65162133Y-48780694D01*
X65271835Y-48738143D01*
X65371184Y-48675094D01*
X65397062Y-48650450D01*
X65599211Y-48650450D01*
X65620452Y-48766183D01*
X65663768Y-48875586D01*
X65727509Y-48974492D01*
X65809247Y-49059134D01*
X65905868Y-49126287D01*
X66013693Y-49173395D01*
X66128614Y-49198662D01*
X66246254Y-49201126D01*
X66362133Y-49180694D01*
X66471835Y-49138143D01*
X66571184Y-49075094D01*
X66656395Y-48993949D01*
X66724221Y-48897799D01*
X66772080Y-48790306D01*
X66798149Y-48675564D01*
X66800026Y-48541167D01*
X66777171Y-48425742D01*
X66732332Y-48316954D01*
X66667216Y-48218948D01*
X66584305Y-48135455D01*
X66486755Y-48069657D01*
X66378283Y-48024060D01*
X66263021Y-48000400D01*
X66145357Y-47999578D01*
X66029775Y-48021627D01*
X65920677Y-48065705D01*
X65822219Y-48130135D01*
X65738150Y-48212461D01*
X65671672Y-48309549D01*
X65625318Y-48417700D01*
X65600854Y-48532795D01*
X65599211Y-48650450D01*
X65397062Y-48650450D01*
X65456395Y-48593949D01*
X65524221Y-48497799D01*
X65572080Y-48390306D01*
X65598149Y-48275564D01*
X65600026Y-48141167D01*
X65577171Y-48025742D01*
X65532332Y-47916954D01*
X65467216Y-47818948D01*
X65384305Y-47735455D01*
X65286755Y-47669657D01*
X65178283Y-47624060D01*
X65063021Y-47600400D01*
X64945357Y-47599578D01*
X64829775Y-47621627D01*
X64720677Y-47665705D01*
X64622219Y-47730135D01*
X64538150Y-47812461D01*
X64471672Y-47909549D01*
X64425318Y-48017700D01*
X64400854Y-48132795D01*
X64399223Y-48249605D01*
X64395357Y-48249578D01*
X64279775Y-48271627D01*
X64170677Y-48315705D01*
X64072219Y-48380135D01*
X63988150Y-48462461D01*
X63921672Y-48559549D01*
X63875318Y-48667700D01*
X63850854Y-48782795D01*
X63849211Y-48900450D01*
X63870452Y-49016183D01*
X63883780Y-49049846D01*
X63845357Y-49049578D01*
X63729775Y-49071627D01*
X63620677Y-49115705D01*
X63522219Y-49180135D01*
X63438150Y-49262461D01*
X63371672Y-49359549D01*
X63352545Y-49404174D01*
X63284305Y-49335455D01*
X63186755Y-49269657D01*
X63078283Y-49224060D01*
X62963021Y-49200400D01*
X62845357Y-49199578D01*
X62729775Y-49221627D01*
X62620677Y-49265705D01*
X62522219Y-49330135D01*
X62438150Y-49412461D01*
X62371672Y-49509549D01*
X62325318Y-49617700D01*
X62300854Y-49732795D01*
X62299211Y-49850450D01*
X61341063Y-49850450D01*
X61278283Y-49824060D01*
X61163021Y-49800400D01*
X61045357Y-49799578D01*
X60929775Y-49821627D01*
X60820677Y-49865705D01*
X60722219Y-49930135D01*
X60638150Y-50012461D01*
X60571672Y-50109549D01*
X60525318Y-50217700D01*
X60500854Y-50332795D01*
X60499211Y-50450450D01*
X59111393Y-50450450D01*
X59232383Y-50256867D01*
X60177596Y-49013166D01*
X61522473Y-47469048D01*
X62062679Y-46950450D01*
X64449211Y-46950450D01*
X64470452Y-47066183D01*
X64513768Y-47175586D01*
X64577509Y-47274492D01*
X64659247Y-47359134D01*
X64755868Y-47426287D01*
X64863693Y-47473395D01*
X64978614Y-47498662D01*
X65096254Y-47501126D01*
X65212133Y-47480694D01*
X65321835Y-47438143D01*
X65421184Y-47375094D01*
X65506395Y-47293949D01*
X65574221Y-47197799D01*
X65622080Y-47090306D01*
X65648149Y-46975564D01*
X65650026Y-46841167D01*
X65627171Y-46725742D01*
X65596139Y-46650450D01*
X67449211Y-46650450D01*
X67470452Y-46766183D01*
X67513768Y-46875586D01*
X67577509Y-46974492D01*
X67659247Y-47059134D01*
X67755868Y-47126287D01*
X67863693Y-47173395D01*
X67978614Y-47198662D01*
X68096254Y-47201126D01*
X68212133Y-47180694D01*
X68321835Y-47138143D01*
X68421184Y-47075094D01*
X68506395Y-46993949D01*
X68574221Y-46897799D01*
X68603455Y-46832137D01*
X68678614Y-46848662D01*
X68796254Y-46851126D01*
X68912133Y-46830694D01*
X69021835Y-46788143D01*
X69121184Y-46725094D01*
X69176297Y-46672611D01*
X69177509Y-46674492D01*
X69259247Y-46759134D01*
X69355868Y-46826287D01*
X69463693Y-46873395D01*
X69578614Y-46898662D01*
X69696254Y-46901126D01*
X69812133Y-46880694D01*
X69921835Y-46838143D01*
X70021184Y-46775094D01*
X70106395Y-46693949D01*
X70174221Y-46597799D01*
X70217563Y-46500450D01*
X72449211Y-46500450D01*
X72470452Y-46616183D01*
X72513768Y-46725586D01*
X72577509Y-46824492D01*
X72659247Y-46909134D01*
X72755868Y-46976287D01*
X72853773Y-47019061D01*
X72850854Y-47032795D01*
X72849211Y-47150450D01*
X72870452Y-47266183D01*
X72913768Y-47375586D01*
X72977509Y-47474492D01*
X73059247Y-47559134D01*
X73155868Y-47626287D01*
X73263693Y-47673395D01*
X73378614Y-47698662D01*
X73496254Y-47701126D01*
X73612133Y-47680694D01*
X73673319Y-47656961D01*
X75413750Y-47656961D01*
X75437294Y-47765467D01*
X75543865Y-47816569D01*
X75658358Y-47845897D01*
X75776372Y-47852326D01*
X75893374Y-47835608D01*
X76004865Y-47796386D01*
X76062706Y-47765467D01*
X76086250Y-47656961D01*
X76413750Y-47656961D01*
X76437294Y-47765467D01*
X76543865Y-47816569D01*
X76658358Y-47845897D01*
X76776372Y-47852326D01*
X76893374Y-47835608D01*
X77004865Y-47796386D01*
X77062706Y-47765467D01*
X77086250Y-47656961D01*
X77413750Y-47656961D01*
X77437294Y-47765467D01*
X77543865Y-47816569D01*
X77658358Y-47845897D01*
X77776372Y-47852326D01*
X77893374Y-47835608D01*
X78004865Y-47796386D01*
X78062706Y-47765467D01*
X78086250Y-47656961D01*
X78413750Y-47656961D01*
X78437294Y-47765467D01*
X78543865Y-47816569D01*
X78658358Y-47845897D01*
X78776372Y-47852326D01*
X78893374Y-47835608D01*
X79004865Y-47796386D01*
X79062706Y-47765467D01*
X79086250Y-47656961D01*
X78750000Y-47320711D01*
X78413750Y-47656961D01*
X78086250Y-47656961D01*
X77750000Y-47320711D01*
X77413750Y-47656961D01*
X77086250Y-47656961D01*
X76750000Y-47320711D01*
X76413750Y-47656961D01*
X76086250Y-47656961D01*
X75750000Y-47320711D01*
X75413750Y-47656961D01*
X73673319Y-47656961D01*
X73721835Y-47638143D01*
X73821184Y-47575094D01*
X73906395Y-47493949D01*
X73974221Y-47397799D01*
X74022080Y-47290306D01*
X74025245Y-47276372D01*
X75147674Y-47276372D01*
X75164392Y-47393374D01*
X75203614Y-47504865D01*
X75234533Y-47562706D01*
X75343039Y-47586250D01*
X75679289Y-47250000D01*
X75820711Y-47250000D01*
X76156961Y-47586250D01*
X76250000Y-47566062D01*
X76343039Y-47586250D01*
X76679289Y-47250000D01*
X76820711Y-47250000D01*
X77156961Y-47586250D01*
X77250000Y-47566062D01*
X77343039Y-47586250D01*
X77679289Y-47250000D01*
X77820711Y-47250000D01*
X78156961Y-47586250D01*
X78250000Y-47566062D01*
X78343039Y-47586250D01*
X78679289Y-47250000D01*
X78820711Y-47250000D01*
X79156961Y-47586250D01*
X79265467Y-47562706D01*
X79316569Y-47456135D01*
X79345897Y-47341642D01*
X79352326Y-47223628D01*
X79335608Y-47106626D01*
X79296386Y-46995135D01*
X79265467Y-46937294D01*
X79156961Y-46913750D01*
X78820711Y-47250000D01*
X78679289Y-47250000D01*
X78343039Y-46913750D01*
X78250000Y-46933938D01*
X78156961Y-46913750D01*
X77820711Y-47250000D01*
X77679289Y-47250000D01*
X77343039Y-46913750D01*
X77250000Y-46933938D01*
X77156961Y-46913750D01*
X76820711Y-47250000D01*
X76679289Y-47250000D01*
X76343039Y-46913750D01*
X76250000Y-46933938D01*
X76156961Y-46913750D01*
X75820711Y-47250000D01*
X75679289Y-47250000D01*
X75343039Y-46913750D01*
X75234533Y-46937294D01*
X75183431Y-47043865D01*
X75154103Y-47158358D01*
X75147674Y-47276372D01*
X74025245Y-47276372D01*
X74048149Y-47175564D01*
X74050026Y-47041167D01*
X74027171Y-46925742D01*
X73982332Y-46816954D01*
X73917216Y-46718948D01*
X73855662Y-46656961D01*
X75413750Y-46656961D01*
X75433938Y-46750000D01*
X75413750Y-46843039D01*
X75750000Y-47179289D01*
X76086250Y-46843039D01*
X76066062Y-46750000D01*
X76086250Y-46656961D01*
X76413750Y-46656961D01*
X76433938Y-46750000D01*
X76413750Y-46843039D01*
X76750000Y-47179289D01*
X77086250Y-46843039D01*
X77066062Y-46750000D01*
X77086250Y-46656961D01*
X77413750Y-46656961D01*
X77433938Y-46750000D01*
X77413750Y-46843039D01*
X77750000Y-47179289D01*
X78086250Y-46843039D01*
X78066062Y-46750000D01*
X78086250Y-46656961D01*
X78413750Y-46656961D01*
X78433938Y-46750000D01*
X78413750Y-46843039D01*
X78750000Y-47179289D01*
X79086250Y-46843039D01*
X79066062Y-46750000D01*
X79086250Y-46656961D01*
X78750000Y-46320711D01*
X78413750Y-46656961D01*
X78086250Y-46656961D01*
X77750000Y-46320711D01*
X77413750Y-46656961D01*
X77086250Y-46656961D01*
X76750000Y-46320711D01*
X76413750Y-46656961D01*
X76086250Y-46656961D01*
X75750000Y-46320711D01*
X75413750Y-46656961D01*
X73855662Y-46656961D01*
X73834305Y-46635455D01*
X73736755Y-46569657D01*
X73646729Y-46531814D01*
X73648149Y-46525564D01*
X73650026Y-46391167D01*
X73627296Y-46276372D01*
X75147674Y-46276372D01*
X75164392Y-46393374D01*
X75203614Y-46504865D01*
X75234533Y-46562706D01*
X75343039Y-46586250D01*
X75679289Y-46250000D01*
X75820711Y-46250000D01*
X76156961Y-46586250D01*
X76250000Y-46566062D01*
X76343039Y-46586250D01*
X76679289Y-46250000D01*
X76820711Y-46250000D01*
X77156961Y-46586250D01*
X77250000Y-46566062D01*
X77343039Y-46586250D01*
X77679289Y-46250000D01*
X77820711Y-46250000D01*
X78156961Y-46586250D01*
X78250000Y-46566062D01*
X78343039Y-46586250D01*
X78679289Y-46250000D01*
X78820711Y-46250000D01*
X79156961Y-46586250D01*
X79265467Y-46562706D01*
X79316569Y-46456135D01*
X79345897Y-46341642D01*
X79352326Y-46223628D01*
X79335608Y-46106626D01*
X79296386Y-45995135D01*
X79265467Y-45937294D01*
X79156961Y-45913750D01*
X78820711Y-46250000D01*
X78679289Y-46250000D01*
X78343039Y-45913750D01*
X78250000Y-45933938D01*
X78156961Y-45913750D01*
X77820711Y-46250000D01*
X77679289Y-46250000D01*
X77343039Y-45913750D01*
X77250000Y-45933938D01*
X77156961Y-45913750D01*
X76820711Y-46250000D01*
X76679289Y-46250000D01*
X76343039Y-45913750D01*
X76250000Y-45933938D01*
X76156961Y-45913750D01*
X75820711Y-46250000D01*
X75679289Y-46250000D01*
X75343039Y-45913750D01*
X75234533Y-45937294D01*
X75183431Y-46043865D01*
X75154103Y-46158358D01*
X75147674Y-46276372D01*
X73627296Y-46276372D01*
X73627171Y-46275742D01*
X73582332Y-46166954D01*
X73517216Y-46068948D01*
X73434305Y-45985455D01*
X73336755Y-45919657D01*
X73228283Y-45874060D01*
X73113021Y-45850400D01*
X72995357Y-45849578D01*
X72879775Y-45871627D01*
X72770677Y-45915705D01*
X72672219Y-45980135D01*
X72588150Y-46062461D01*
X72521672Y-46159549D01*
X72475318Y-46267700D01*
X72450854Y-46382795D01*
X72449211Y-46500450D01*
X70217563Y-46500450D01*
X70222080Y-46490306D01*
X70248149Y-46375564D01*
X70250026Y-46241167D01*
X70227171Y-46125742D01*
X70182332Y-46016954D01*
X70121279Y-45925063D01*
X70228614Y-45948662D01*
X70346254Y-45951126D01*
X70462133Y-45930694D01*
X70571835Y-45888143D01*
X70671184Y-45825094D01*
X70756395Y-45743949D01*
X70817757Y-45656961D01*
X75413750Y-45656961D01*
X75433938Y-45750000D01*
X75413750Y-45843039D01*
X75750000Y-46179289D01*
X76086250Y-45843039D01*
X76066062Y-45750000D01*
X76086250Y-45656961D01*
X76413750Y-45656961D01*
X76433938Y-45750000D01*
X76413750Y-45843039D01*
X76750000Y-46179289D01*
X77086250Y-45843039D01*
X77066062Y-45750000D01*
X77086250Y-45656961D01*
X77413750Y-45656961D01*
X77433938Y-45750000D01*
X77413750Y-45843039D01*
X77750000Y-46179289D01*
X78086250Y-45843039D01*
X78066062Y-45750000D01*
X78086250Y-45656961D01*
X78413750Y-45656961D01*
X78433938Y-45750000D01*
X78413750Y-45843039D01*
X78750000Y-46179289D01*
X79086250Y-45843039D01*
X79066062Y-45750000D01*
X79086250Y-45656961D01*
X78750000Y-45320711D01*
X78413750Y-45656961D01*
X78086250Y-45656961D01*
X77750000Y-45320711D01*
X77413750Y-45656961D01*
X77086250Y-45656961D01*
X76750000Y-45320711D01*
X76413750Y-45656961D01*
X76086250Y-45656961D01*
X75750000Y-45320711D01*
X75413750Y-45656961D01*
X70817757Y-45656961D01*
X70824221Y-45647799D01*
X70872080Y-45540306D01*
X70898149Y-45425564D01*
X70900026Y-45291167D01*
X70897097Y-45276372D01*
X75147674Y-45276372D01*
X75164392Y-45393374D01*
X75203614Y-45504865D01*
X75234533Y-45562706D01*
X75343039Y-45586250D01*
X75679289Y-45250000D01*
X75820711Y-45250000D01*
X76156961Y-45586250D01*
X76250000Y-45566062D01*
X76343039Y-45586250D01*
X76679289Y-45250000D01*
X76820711Y-45250000D01*
X77156961Y-45586250D01*
X77250000Y-45566062D01*
X77343039Y-45586250D01*
X77679289Y-45250000D01*
X77820711Y-45250000D01*
X78156961Y-45586250D01*
X78250000Y-45566062D01*
X78343039Y-45586250D01*
X78679289Y-45250000D01*
X78820711Y-45250000D01*
X79156961Y-45586250D01*
X79265467Y-45562706D01*
X79316569Y-45456135D01*
X79345897Y-45341642D01*
X79352326Y-45223628D01*
X79335608Y-45106626D01*
X79296386Y-44995135D01*
X79265467Y-44937294D01*
X79156961Y-44913750D01*
X78820711Y-45250000D01*
X78679289Y-45250000D01*
X78343039Y-44913750D01*
X78250000Y-44933938D01*
X78156961Y-44913750D01*
X77820711Y-45250000D01*
X77679289Y-45250000D01*
X77343039Y-44913750D01*
X77250000Y-44933938D01*
X77156961Y-44913750D01*
X76820711Y-45250000D01*
X76679289Y-45250000D01*
X76343039Y-44913750D01*
X76250000Y-44933938D01*
X76156961Y-44913750D01*
X75820711Y-45250000D01*
X75679289Y-45250000D01*
X75343039Y-44913750D01*
X75234533Y-44937294D01*
X75183431Y-45043865D01*
X75154103Y-45158358D01*
X75147674Y-45276372D01*
X70897097Y-45276372D01*
X70877171Y-45175742D01*
X70832332Y-45066954D01*
X70767216Y-44968948D01*
X70684305Y-44885455D01*
X70586755Y-44819657D01*
X70478283Y-44774060D01*
X70363021Y-44750400D01*
X70245357Y-44749578D01*
X70129775Y-44771627D01*
X70020677Y-44815705D01*
X69922219Y-44880135D01*
X69838150Y-44962461D01*
X69771672Y-45059549D01*
X69725318Y-45167700D01*
X69700854Y-45282795D01*
X69699211Y-45400450D01*
X69720452Y-45516183D01*
X69763768Y-45625586D01*
X69827070Y-45723811D01*
X69713021Y-45700400D01*
X69595357Y-45699578D01*
X69479775Y-45721627D01*
X69370677Y-45765705D01*
X69272219Y-45830135D01*
X69223274Y-45878065D01*
X69217216Y-45868948D01*
X69134305Y-45785455D01*
X69036755Y-45719657D01*
X68928283Y-45674060D01*
X68813021Y-45650400D01*
X68695357Y-45649578D01*
X68579775Y-45671627D01*
X68470677Y-45715705D01*
X68372219Y-45780135D01*
X68288150Y-45862461D01*
X68221672Y-45959549D01*
X68196793Y-46017596D01*
X68113021Y-46000400D01*
X67995357Y-45999578D01*
X67879775Y-46021627D01*
X67770677Y-46065705D01*
X67672219Y-46130135D01*
X67588150Y-46212461D01*
X67521672Y-46309549D01*
X67475318Y-46417700D01*
X67450854Y-46532795D01*
X67449211Y-46650450D01*
X65596139Y-46650450D01*
X65582332Y-46616954D01*
X65517216Y-46518948D01*
X65434305Y-46435455D01*
X65336755Y-46369657D01*
X65228283Y-46324060D01*
X65113021Y-46300400D01*
X64995357Y-46299578D01*
X64879775Y-46321627D01*
X64770677Y-46365705D01*
X64672219Y-46430135D01*
X64588150Y-46512461D01*
X64521672Y-46609549D01*
X64475318Y-46717700D01*
X64450854Y-46832795D01*
X64449211Y-46950450D01*
X62062679Y-46950450D01*
X62765993Y-46275269D01*
X64009825Y-45280203D01*
X64907292Y-44656961D01*
X75413750Y-44656961D01*
X75433938Y-44750000D01*
X75413750Y-44843039D01*
X75750000Y-45179289D01*
X76086250Y-44843039D01*
X76066062Y-44750000D01*
X76086250Y-44656961D01*
X76413750Y-44656961D01*
X76433938Y-44750000D01*
X76413750Y-44843039D01*
X76750000Y-45179289D01*
X77086250Y-44843039D01*
X77066062Y-44750000D01*
X77086250Y-44656961D01*
X77413750Y-44656961D01*
X77433938Y-44750000D01*
X77413750Y-44843039D01*
X77750000Y-45179289D01*
X78086250Y-44843039D01*
X78066062Y-44750000D01*
X78086250Y-44656961D01*
X78413750Y-44656961D01*
X78433938Y-44750000D01*
X78413750Y-44843039D01*
X78750000Y-45179289D01*
X79086250Y-44843039D01*
X79066062Y-44750000D01*
X79086250Y-44656961D01*
X78750000Y-44320711D01*
X78413750Y-44656961D01*
X78086250Y-44656961D01*
X77750000Y-44320711D01*
X77413750Y-44656961D01*
X77086250Y-44656961D01*
X76750000Y-44320711D01*
X76413750Y-44656961D01*
X76086250Y-44656961D01*
X75750000Y-44320711D01*
X75413750Y-44656961D01*
X64907292Y-44656961D01*
X65455340Y-44276372D01*
X75147674Y-44276372D01*
X75164392Y-44393374D01*
X75203614Y-44504865D01*
X75234533Y-44562706D01*
X75343039Y-44586250D01*
X75679289Y-44250000D01*
X75820711Y-44250000D01*
X76156961Y-44586250D01*
X76250000Y-44566062D01*
X76343039Y-44586250D01*
X76679289Y-44250000D01*
X76820711Y-44250000D01*
X77156961Y-44586250D01*
X77250000Y-44566062D01*
X77343039Y-44586250D01*
X77679289Y-44250000D01*
X77820711Y-44250000D01*
X78156961Y-44586250D01*
X78250000Y-44566062D01*
X78343039Y-44586250D01*
X78679289Y-44250000D01*
X78820711Y-44250000D01*
X79156961Y-44586250D01*
X79265467Y-44562706D01*
X79316569Y-44456135D01*
X79345897Y-44341642D01*
X79352326Y-44223628D01*
X79335608Y-44106626D01*
X79296386Y-43995135D01*
X79265467Y-43937294D01*
X79156961Y-43913750D01*
X78820711Y-44250000D01*
X78679289Y-44250000D01*
X78343039Y-43913750D01*
X78250000Y-43933938D01*
X78156961Y-43913750D01*
X77820711Y-44250000D01*
X77679289Y-44250000D01*
X77343039Y-43913750D01*
X77250000Y-43933938D01*
X77156961Y-43913750D01*
X76820711Y-44250000D01*
X76679289Y-44250000D01*
X76343039Y-43913750D01*
X76250000Y-43933938D01*
X76156961Y-43913750D01*
X75820711Y-44250000D01*
X75679289Y-44250000D01*
X75343039Y-43913750D01*
X75234533Y-43937294D01*
X75183431Y-44043865D01*
X75154103Y-44158358D01*
X75147674Y-44276372D01*
X65455340Y-44276372D01*
X65802614Y-44035210D01*
X66154927Y-43843039D01*
X75413750Y-43843039D01*
X75750000Y-44179289D01*
X76086250Y-43843039D01*
X76413750Y-43843039D01*
X76750000Y-44179289D01*
X77086250Y-43843039D01*
X77413750Y-43843039D01*
X77750000Y-44179289D01*
X78086250Y-43843039D01*
X78413750Y-43843039D01*
X78750000Y-44179289D01*
X79086250Y-43843039D01*
X79062706Y-43734533D01*
X78956135Y-43683431D01*
X78841642Y-43654103D01*
X78723628Y-43647674D01*
X78606626Y-43664392D01*
X78495135Y-43703614D01*
X78437294Y-43734533D01*
X78413750Y-43843039D01*
X78086250Y-43843039D01*
X78062706Y-43734533D01*
X77956135Y-43683431D01*
X77841642Y-43654103D01*
X77723628Y-43647674D01*
X77606626Y-43664392D01*
X77495135Y-43703614D01*
X77437294Y-43734533D01*
X77413750Y-43843039D01*
X77086250Y-43843039D01*
X77062706Y-43734533D01*
X76956135Y-43683431D01*
X76841642Y-43654103D01*
X76723628Y-43647674D01*
X76606626Y-43664392D01*
X76495135Y-43703614D01*
X76437294Y-43734533D01*
X76413750Y-43843039D01*
X76086250Y-43843039D01*
X76062706Y-43734533D01*
X75956135Y-43683431D01*
X75841642Y-43654103D01*
X75723628Y-43647674D01*
X75606626Y-43664392D01*
X75495135Y-43703614D01*
X75437294Y-43734533D01*
X75413750Y-43843039D01*
X66154927Y-43843039D01*
X67444693Y-43139531D01*
X68410671Y-42700450D01*
X72049211Y-42700450D01*
X72070452Y-42816183D01*
X72113768Y-42925586D01*
X72177509Y-43024492D01*
X72259247Y-43109134D01*
X72355868Y-43176287D01*
X72463693Y-43223395D01*
X72578614Y-43248662D01*
X72696254Y-43251126D01*
X72812133Y-43230694D01*
X72921835Y-43188143D01*
X73021184Y-43125094D01*
X73106395Y-43043949D01*
X73174221Y-42947799D01*
X73222080Y-42840306D01*
X73248149Y-42725564D01*
X73250026Y-42591167D01*
X73227171Y-42475742D01*
X73182332Y-42366954D01*
X73117216Y-42268948D01*
X73034305Y-42185455D01*
X72936755Y-42119657D01*
X72828283Y-42074060D01*
X72713021Y-42050400D01*
X72595357Y-42049578D01*
X72479775Y-42071627D01*
X72370677Y-42115705D01*
X72272219Y-42180135D01*
X72188150Y-42262461D01*
X72121672Y-42359549D01*
X72075318Y-42467700D01*
X72050854Y-42582795D01*
X72049211Y-42700450D01*
X68410671Y-42700450D01*
X69087741Y-42392691D01*
X70533947Y-41870450D01*
X75839211Y-41870450D01*
X75860452Y-41986183D01*
X75903768Y-42095586D01*
X75967509Y-42194492D01*
X76049247Y-42279134D01*
X76145868Y-42346287D01*
X76253693Y-42393395D01*
X76368614Y-42418662D01*
X76486254Y-42421126D01*
X76602133Y-42400694D01*
X76711835Y-42358143D01*
X76811184Y-42295094D01*
X76896395Y-42213949D01*
X76964221Y-42117799D01*
X77012080Y-42010306D01*
X77027951Y-41940450D01*
X77759211Y-41940450D01*
X77780452Y-42056183D01*
X77823768Y-42165586D01*
X77887509Y-42264492D01*
X77969247Y-42349134D01*
X78065868Y-42416287D01*
X78173693Y-42463395D01*
X78288614Y-42488662D01*
X78406254Y-42491126D01*
X78522133Y-42470694D01*
X78631835Y-42428143D01*
X78731184Y-42365094D01*
X78789940Y-42309141D01*
X78809247Y-42329134D01*
X78905868Y-42396287D01*
X79013693Y-42443395D01*
X79128614Y-42468662D01*
X79246254Y-42471126D01*
X79362133Y-42450694D01*
X79471835Y-42408143D01*
X79569797Y-42345974D01*
X79607509Y-42404492D01*
X79689247Y-42489134D01*
X79785868Y-42556287D01*
X79893693Y-42603395D01*
X80008614Y-42628662D01*
X80126254Y-42631126D01*
X80242133Y-42610694D01*
X80351835Y-42568143D01*
X80451184Y-42505094D01*
X80536395Y-42423949D01*
X80604221Y-42327799D01*
X80652080Y-42220306D01*
X80678149Y-42105564D01*
X80680026Y-41971167D01*
X80657171Y-41855742D01*
X80612332Y-41746954D01*
X80547216Y-41648948D01*
X80464305Y-41565455D01*
X80366755Y-41499657D01*
X80258283Y-41454060D01*
X80143021Y-41430400D01*
X80025357Y-41429578D01*
X79909775Y-41451627D01*
X79800677Y-41495705D01*
X79710788Y-41554528D01*
X79667216Y-41488948D01*
X79584305Y-41405455D01*
X79486755Y-41339657D01*
X79378283Y-41294060D01*
X79263021Y-41270400D01*
X79145357Y-41269578D01*
X79029775Y-41291627D01*
X78920677Y-41335705D01*
X78822219Y-41400135D01*
X78769970Y-41451300D01*
X78744305Y-41425455D01*
X78646755Y-41359657D01*
X78538283Y-41314060D01*
X78423021Y-41290400D01*
X78305357Y-41289578D01*
X78189775Y-41311627D01*
X78080677Y-41355705D01*
X77982219Y-41420135D01*
X77898150Y-41502461D01*
X77831672Y-41599549D01*
X77785318Y-41707700D01*
X77760854Y-41822795D01*
X77759211Y-41940450D01*
X77027951Y-41940450D01*
X77038149Y-41895564D01*
X77040026Y-41761167D01*
X77017171Y-41645742D01*
X76972332Y-41536954D01*
X76907216Y-41438948D01*
X76824305Y-41355455D01*
X76726755Y-41289657D01*
X76618283Y-41244060D01*
X76503021Y-41220400D01*
X76385357Y-41219578D01*
X76269775Y-41241627D01*
X76160677Y-41285705D01*
X76062219Y-41350135D01*
X75978150Y-41432461D01*
X75911672Y-41529549D01*
X75865318Y-41637700D01*
X75840854Y-41752795D01*
X75839211Y-41870450D01*
X70533947Y-41870450D01*
X70880024Y-41745478D01*
X72172834Y-41397414D01*
X73666221Y-41098736D01*
X75208417Y-40899743D01*
X76451997Y-40850000D01*
X77248349Y-40850000D01*
X78744159Y-40899860D01*
M02*
