G04 #@! TF.FileFunction,Copper,L3,Inr,Signal*
%FSLAX46Y46*%
G04 Gerber Fmt 4.6, Leading zero omitted, Abs format (unit mm)*
G04 Created by KiCad (PCBNEW (2016-05-05 BZR 6775)-product) date 2016 June 06, Monday 00:12:01*
%MOMM*%
%LPD*%
G01*
G04 APERTURE LIST*
%ADD10C,0.020000*%
%ADD11C,3.000000*%
%ADD12C,0.900000*%
%ADD13R,0.800000X0.800000*%
%ADD14C,0.600000*%
%ADD15C,1.600000*%
%ADD16C,0.200000*%
%ADD17C,0.150000*%
G04 APERTURE END LIST*
D10*
D11*
X66750000Y-52250000D03*
D12*
X55710000Y-63385000D03*
D13*
X55710000Y-62115000D03*
X56980000Y-63385000D03*
X56980000Y-62115000D03*
X58250000Y-63385000D03*
X58250000Y-62115000D03*
X59520000Y-63385000D03*
X59520000Y-62115000D03*
X60790000Y-63385000D03*
X60790000Y-62115000D03*
D14*
X75750000Y-44250000D03*
X76750000Y-44250000D03*
X77750000Y-44250000D03*
X78750000Y-44250000D03*
X75750000Y-45250000D03*
X76750000Y-45250000D03*
X77750000Y-45250000D03*
X78750000Y-45250000D03*
X75750000Y-46250000D03*
X76750000Y-46250000D03*
X77750000Y-46250000D03*
X78750000Y-46250000D03*
X75750000Y-47250000D03*
X76750000Y-47250000D03*
X77750000Y-47250000D03*
X78750000Y-47250000D03*
D15*
X71125610Y-52524390D02*
X67024390Y-56625610D01*
X67024390Y-68874390D02*
X71125610Y-72975610D01*
D14*
X59700000Y-54950000D03*
X80080000Y-42030000D03*
X61100000Y-50400000D03*
X69350000Y-51050000D03*
X85720000Y-52380000D03*
X76000000Y-49520000D03*
X63650000Y-57780000D03*
X63200000Y-56510000D03*
X62410000Y-58240000D03*
X72650000Y-42650000D03*
X83700000Y-44780000D03*
X73500000Y-49300000D03*
X84630000Y-42340000D03*
X69800000Y-43300000D03*
X64750000Y-45600000D03*
X60120000Y-49520000D03*
X57010000Y-55290000D03*
X61750000Y-60750000D03*
X81990000Y-48880000D03*
X82300000Y-47960000D03*
X81830000Y-41530000D03*
X81600000Y-42770000D03*
X56500000Y-61000000D03*
X70610000Y-50360000D03*
X66950000Y-45150000D03*
X63970000Y-54790000D03*
X64480000Y-56070000D03*
X78370000Y-41120000D03*
X70750000Y-49160000D03*
X61500000Y-68500000D03*
X62140000Y-64260000D03*
X71520000Y-49590000D03*
X63000000Y-64250000D03*
X77610000Y-49460000D03*
X72230000Y-50130000D03*
X81090000Y-48390000D03*
X60270000Y-60580000D03*
X80420000Y-49510000D03*
X71900000Y-48350000D03*
X78370000Y-49490000D03*
X60550000Y-55250000D03*
X79640000Y-49370000D03*
X59620000Y-59000000D03*
X64840000Y-54540000D03*
X76850000Y-49460000D03*
X66200000Y-48600000D03*
X73450000Y-47100000D03*
X70300000Y-45350000D03*
X64450000Y-48850000D03*
X79200000Y-41870000D03*
X68050000Y-46600000D03*
X64750000Y-52800000D03*
X62900000Y-49800000D03*
X71100000Y-48450000D03*
X78360000Y-41890000D03*
X65050000Y-46900000D03*
X65000000Y-48200000D03*
X68750000Y-46250000D03*
X76440000Y-41820000D03*
X64060000Y-56930000D03*
X82600000Y-49550000D03*
X69650000Y-46300000D03*
X68500000Y-50850000D03*
X73050000Y-46450000D03*
X63900000Y-49650000D03*
D16*
X85720000Y-52380000D02*
X85340000Y-52440000D01*
X82940000Y-50930000D02*
X81620000Y-50390000D01*
X84300000Y-51690000D02*
X82940000Y-50930000D01*
X85340000Y-52440000D02*
X84300000Y-51690000D01*
X55710000Y-63385000D02*
X55720000Y-64250000D01*
X61750000Y-63750000D02*
X61750000Y-62500000D01*
X61250000Y-64250000D02*
X61750000Y-63750000D01*
X55720000Y-64250000D02*
X61250000Y-64250000D01*
X64211379Y-59242168D02*
X63950000Y-60350000D01*
D17*
X71140000Y-50700000D02*
X71520000Y-49590000D01*
D16*
X65210000Y-57590000D02*
X65820000Y-56360000D01*
X65820000Y-56360000D02*
X66640000Y-55090000D01*
X66640000Y-55090000D02*
X66950000Y-54750000D01*
X66950000Y-54750000D02*
X68032696Y-53550866D01*
X68032696Y-53550866D02*
X69250000Y-52450000D01*
X69450000Y-51750000D02*
X69250000Y-52450000D01*
X64712986Y-59016642D02*
X64211379Y-59242168D01*
X64712986Y-59016642D02*
X65210000Y-57590000D01*
D17*
X69450000Y-51750000D02*
X71140000Y-50700000D01*
D16*
X63750000Y-63550000D02*
X63000000Y-64250000D01*
X63750000Y-61950000D02*
X63750000Y-63550000D01*
X63950000Y-60350000D02*
X63750000Y-61950000D01*
D17*
X66420709Y-46899522D02*
X65450000Y-47600000D01*
X70600000Y-46000000D02*
X70200000Y-46750000D01*
X70200000Y-46750000D02*
X68250000Y-47650000D01*
X68250000Y-47650000D02*
X66420709Y-46899522D01*
X70300000Y-45350000D02*
X70600000Y-46000000D01*
X64265261Y-48033363D02*
X64450000Y-48850000D01*
X64789357Y-47587489D02*
X64265261Y-48033363D01*
X65450000Y-47600000D02*
X64789357Y-47587489D01*
X68200000Y-45950000D02*
X68050000Y-46600000D01*
X67525669Y-44799671D02*
X68200000Y-45950000D01*
X67855626Y-44004436D02*
X67525669Y-44799671D01*
X78650000Y-42490000D02*
X75970000Y-42480000D01*
X75970000Y-42480000D02*
X74890000Y-40980000D01*
X74890000Y-40980000D02*
X73410000Y-41190000D01*
X73410000Y-41190000D02*
X71620000Y-41590000D01*
X71620000Y-41590000D02*
X69420001Y-42243623D01*
X69420001Y-42243623D02*
X69182095Y-43357457D01*
X69182095Y-43357457D02*
X69150000Y-43370000D01*
X69150000Y-43370000D02*
X67970000Y-43940000D01*
X79200000Y-41870000D02*
X78650000Y-42490000D01*
X67970000Y-43940000D02*
X67855626Y-44004436D01*
X63650000Y-48100000D02*
X63750000Y-48900000D01*
X63750000Y-48900000D02*
X62900000Y-49800000D01*
X65050000Y-46900000D02*
X63650000Y-48100000D01*
X73050000Y-46450000D02*
X72700000Y-46250000D01*
X64600000Y-49700000D02*
X63900000Y-49650000D01*
X65550000Y-48800000D02*
X64600000Y-49700000D01*
X65700000Y-47950000D02*
X65550000Y-48800000D01*
X66550000Y-47400000D02*
X65700000Y-47950000D01*
X68100000Y-48100000D02*
X66550000Y-47400000D01*
X69450000Y-47450000D02*
X68100000Y-48100000D01*
X71150000Y-46700000D02*
X69450000Y-47450000D01*
X72700000Y-46250000D02*
X71150000Y-46700000D01*
D16*
G36*
X79937617Y-40999315D02*
X81132664Y-41198490D01*
X81307604Y-41230886D01*
X81301672Y-41239549D01*
X81255318Y-41347700D01*
X81230854Y-41462795D01*
X81229211Y-41580450D01*
X81250452Y-41696183D01*
X81293768Y-41805586D01*
X81357509Y-41904492D01*
X81439247Y-41989134D01*
X81535868Y-42056287D01*
X81643693Y-42103395D01*
X81758614Y-42128662D01*
X81876254Y-42131126D01*
X81992133Y-42110694D01*
X82101835Y-42068143D01*
X82201184Y-42005094D01*
X82286395Y-41923949D01*
X82354221Y-41827799D01*
X82402080Y-41720306D01*
X82428149Y-41605564D01*
X82430026Y-41471167D01*
X82423361Y-41437508D01*
X82476108Y-41447276D01*
X84159416Y-41965217D01*
X84101672Y-42049549D01*
X84055318Y-42157700D01*
X84030854Y-42272795D01*
X84029211Y-42390450D01*
X84050452Y-42506183D01*
X84093768Y-42615586D01*
X84157509Y-42714492D01*
X84239247Y-42799134D01*
X84335868Y-42866287D01*
X84443693Y-42913395D01*
X84558614Y-42938662D01*
X84643777Y-42940446D01*
X84112421Y-44343769D01*
X84084305Y-44315455D01*
X83986755Y-44249657D01*
X83878283Y-44204060D01*
X83763021Y-44180400D01*
X83645357Y-44179578D01*
X83529775Y-44201627D01*
X83420677Y-44245705D01*
X83322219Y-44310135D01*
X83238150Y-44392461D01*
X83171672Y-44489549D01*
X83125318Y-44597700D01*
X83100854Y-44712795D01*
X83099828Y-44786234D01*
X82692671Y-44645488D01*
X82685997Y-44643438D01*
X81905997Y-44433438D01*
X81901410Y-44432319D01*
X81171410Y-44272319D01*
X81166440Y-44271361D01*
X80506440Y-44161361D01*
X80505758Y-44161249D01*
X79565758Y-44011249D01*
X79546190Y-44010073D01*
X79526768Y-44012736D01*
X79508239Y-44019137D01*
X79491315Y-44029030D01*
X79476647Y-44042035D01*
X79464797Y-44057651D01*
X79456221Y-44075279D01*
X79451249Y-44094242D01*
X79450000Y-44110000D01*
X79450000Y-46650000D01*
X79451921Y-46669509D01*
X79457612Y-46688268D01*
X79466853Y-46705557D01*
X79479289Y-46720711D01*
X79494443Y-46733147D01*
X79511732Y-46742388D01*
X79534897Y-46748853D01*
X80251080Y-46858270D01*
X80976390Y-47027178D01*
X81683373Y-47206413D01*
X82215161Y-47365338D01*
X82129775Y-47381627D01*
X82020677Y-47425705D01*
X81922219Y-47490135D01*
X81838150Y-47572461D01*
X81771672Y-47669549D01*
X81725318Y-47777700D01*
X81700854Y-47892795D01*
X81699211Y-48010450D01*
X81720452Y-48126183D01*
X81763768Y-48235586D01*
X81809107Y-48305937D01*
X81710677Y-48345705D01*
X81689631Y-48359478D01*
X81690026Y-48331167D01*
X81667171Y-48215742D01*
X81622332Y-48106954D01*
X81557216Y-48008948D01*
X81474305Y-47925455D01*
X81376755Y-47859657D01*
X81268283Y-47814060D01*
X81153021Y-47790400D01*
X81035357Y-47789578D01*
X80919775Y-47811627D01*
X80810677Y-47855705D01*
X80712219Y-47920135D01*
X80628150Y-48002461D01*
X80561672Y-48099549D01*
X80515318Y-48207700D01*
X80490854Y-48322795D01*
X80489211Y-48440450D01*
X80510452Y-48556183D01*
X80553768Y-48665586D01*
X80617509Y-48764492D01*
X80699247Y-48849134D01*
X80795868Y-48916287D01*
X80903693Y-48963395D01*
X81018614Y-48988662D01*
X81136254Y-48991126D01*
X81252133Y-48970694D01*
X81361835Y-48928143D01*
X81389488Y-48910594D01*
X81389211Y-48930450D01*
X81410452Y-49046183D01*
X81453768Y-49155586D01*
X81517509Y-49254492D01*
X81599247Y-49339134D01*
X81695868Y-49406287D01*
X81803693Y-49453395D01*
X81918614Y-49478662D01*
X82001364Y-49480395D01*
X82000854Y-49482795D01*
X81999211Y-49600450D01*
X82020452Y-49716183D01*
X82049973Y-49790745D01*
X81782546Y-50497028D01*
X81036245Y-50206800D01*
X81024254Y-50202986D01*
X80578001Y-50091423D01*
X80582133Y-50090694D01*
X80691835Y-50048143D01*
X80791184Y-49985094D01*
X80876395Y-49903949D01*
X80944221Y-49807799D01*
X80992080Y-49700306D01*
X81018149Y-49585564D01*
X81020026Y-49451167D01*
X80997171Y-49335742D01*
X80952332Y-49226954D01*
X80887216Y-49128948D01*
X80804305Y-49045455D01*
X80706755Y-48979657D01*
X80598283Y-48934060D01*
X80483021Y-48910400D01*
X80365357Y-48909578D01*
X80249775Y-48931627D01*
X80140677Y-48975705D01*
X80111223Y-48994979D01*
X80107216Y-48988948D01*
X80024305Y-48905455D01*
X79926755Y-48839657D01*
X79818283Y-48794060D01*
X79703021Y-48770400D01*
X79585357Y-48769578D01*
X79469775Y-48791627D01*
X79360677Y-48835705D01*
X79262219Y-48900135D01*
X79178150Y-48982461D01*
X79111672Y-49079549D01*
X79065318Y-49187700D01*
X79040854Y-49302795D01*
X79039211Y-49420450D01*
X79060452Y-49536183D01*
X79103768Y-49645586D01*
X79167509Y-49744492D01*
X79223726Y-49802706D01*
X79218429Y-49801713D01*
X79211043Y-49800612D01*
X78903720Y-49766465D01*
X78942080Y-49680306D01*
X78968149Y-49565564D01*
X78970026Y-49431167D01*
X78947171Y-49315742D01*
X78902332Y-49206954D01*
X78837216Y-49108948D01*
X78754305Y-49025455D01*
X78656755Y-48959657D01*
X78548283Y-48914060D01*
X78433021Y-48890400D01*
X78315357Y-48889578D01*
X78199775Y-48911627D01*
X78090677Y-48955705D01*
X78008338Y-49009587D01*
X77994305Y-48995455D01*
X77896755Y-48929657D01*
X77788283Y-48884060D01*
X77673021Y-48860400D01*
X77555357Y-48859578D01*
X77439775Y-48881627D01*
X77330677Y-48925705D01*
X77232219Y-48990135D01*
X77229853Y-48992452D01*
X77136755Y-48929657D01*
X77028283Y-48884060D01*
X76913021Y-48860400D01*
X76795357Y-48859578D01*
X76679775Y-48881627D01*
X76570677Y-48925705D01*
X76472219Y-48990135D01*
X76388150Y-49072461D01*
X76321672Y-49169549D01*
X76275318Y-49277700D01*
X76250854Y-49392795D01*
X76249211Y-49510450D01*
X76270452Y-49626183D01*
X76296992Y-49693215D01*
X76145459Y-49700103D01*
X76136336Y-49700938D01*
X74686336Y-49900938D01*
X74675746Y-49902986D01*
X73675746Y-50152986D01*
X73668377Y-50155132D01*
X72724660Y-50469704D01*
X72754221Y-50427799D01*
X72802080Y-50320306D01*
X72828149Y-50205564D01*
X72830026Y-50071167D01*
X72807171Y-49955742D01*
X72762332Y-49846954D01*
X72697216Y-49748948D01*
X72614305Y-49665455D01*
X72516755Y-49599657D01*
X72408283Y-49554060D01*
X72293021Y-49530400D01*
X72175357Y-49529578D01*
X72119900Y-49540157D01*
X72120026Y-49531167D01*
X72097171Y-49415742D01*
X72070260Y-49350450D01*
X72899211Y-49350450D01*
X72920452Y-49466183D01*
X72963768Y-49575586D01*
X73027509Y-49674492D01*
X73109247Y-49759134D01*
X73205868Y-49826287D01*
X73313693Y-49873395D01*
X73428614Y-49898662D01*
X73546254Y-49901126D01*
X73662133Y-49880694D01*
X73771835Y-49838143D01*
X73871184Y-49775094D01*
X73956395Y-49693949D01*
X74024221Y-49597799D01*
X74072080Y-49490306D01*
X74098149Y-49375564D01*
X74100026Y-49241167D01*
X74077171Y-49125742D01*
X74032332Y-49016954D01*
X73967216Y-48918948D01*
X73884305Y-48835455D01*
X73786755Y-48769657D01*
X73678283Y-48724060D01*
X73563021Y-48700400D01*
X73445357Y-48699578D01*
X73329775Y-48721627D01*
X73220677Y-48765705D01*
X73122219Y-48830135D01*
X73038150Y-48912461D01*
X72971672Y-49009549D01*
X72925318Y-49117700D01*
X72900854Y-49232795D01*
X72899211Y-49350450D01*
X72070260Y-49350450D01*
X72052332Y-49306954D01*
X71987216Y-49208948D01*
X71904305Y-49125455D01*
X71806755Y-49059657D01*
X71698283Y-49014060D01*
X71583021Y-48990400D01*
X71465357Y-48989578D01*
X71349775Y-49011627D01*
X71333591Y-49018166D01*
X71330798Y-49004060D01*
X71371835Y-48988143D01*
X71471184Y-48925094D01*
X71556395Y-48843949D01*
X71557364Y-48842576D01*
X71605868Y-48876287D01*
X71713693Y-48923395D01*
X71828614Y-48948662D01*
X71946254Y-48951126D01*
X72062133Y-48930694D01*
X72171835Y-48888143D01*
X72271184Y-48825094D01*
X72356395Y-48743949D01*
X72424221Y-48647799D01*
X72472080Y-48540306D01*
X72498149Y-48425564D01*
X72500026Y-48291167D01*
X72477171Y-48175742D01*
X72432332Y-48066954D01*
X72367216Y-47968948D01*
X72284305Y-47885455D01*
X72186755Y-47819657D01*
X72078283Y-47774060D01*
X71963021Y-47750400D01*
X71845357Y-47749578D01*
X71729775Y-47771627D01*
X71620677Y-47815705D01*
X71522219Y-47880135D01*
X71443071Y-47957642D01*
X71386755Y-47919657D01*
X71278283Y-47874060D01*
X71163021Y-47850400D01*
X71045357Y-47849578D01*
X70929775Y-47871627D01*
X70820677Y-47915705D01*
X70722219Y-47980135D01*
X70638150Y-48062461D01*
X70571672Y-48159549D01*
X70525318Y-48267700D01*
X70500854Y-48382795D01*
X70499211Y-48500450D01*
X70518643Y-48606326D01*
X70470677Y-48625705D01*
X70372219Y-48690135D01*
X70288150Y-48772461D01*
X70221672Y-48869549D01*
X70175318Y-48977700D01*
X70150854Y-49092795D01*
X70149211Y-49210450D01*
X70170452Y-49326183D01*
X70213768Y-49435586D01*
X70277509Y-49534492D01*
X70359247Y-49619134D01*
X70455868Y-49686287D01*
X70563693Y-49733395D01*
X70678614Y-49758662D01*
X70796254Y-49761126D01*
X70912133Y-49740694D01*
X70935916Y-49731469D01*
X70940452Y-49756183D01*
X70983768Y-49865586D01*
X71013497Y-49911716D01*
X71012716Y-49913996D01*
X70994305Y-49895455D01*
X70896755Y-49829657D01*
X70788283Y-49784060D01*
X70673021Y-49760400D01*
X70555357Y-49759578D01*
X70439775Y-49781627D01*
X70330677Y-49825705D01*
X70232219Y-49890135D01*
X70148150Y-49972461D01*
X70081672Y-50069549D01*
X70035318Y-50177700D01*
X70010854Y-50292795D01*
X70009211Y-50410450D01*
X70030452Y-50526183D01*
X70073768Y-50635586D01*
X70137509Y-50734492D01*
X70219247Y-50819134D01*
X70227943Y-50825178D01*
X69365638Y-51360929D01*
X69331353Y-51368001D01*
X69259415Y-51398322D01*
X69194737Y-51442038D01*
X69139782Y-51497484D01*
X69096642Y-51562548D01*
X69066962Y-51634752D01*
X69065390Y-51640112D01*
X68896827Y-52230081D01*
X68523841Y-52567391D01*
X68544447Y-52476691D01*
X68550077Y-52073501D01*
X68481512Y-51727226D01*
X68360526Y-51433692D01*
X68428614Y-51448662D01*
X68546254Y-51451126D01*
X68662133Y-51430694D01*
X68771835Y-51388143D01*
X68871184Y-51325094D01*
X68956395Y-51243949D01*
X69024221Y-51147799D01*
X69072080Y-51040306D01*
X69098149Y-50925564D01*
X69100026Y-50791167D01*
X69077171Y-50675742D01*
X69032332Y-50566954D01*
X68967216Y-50468948D01*
X68884305Y-50385455D01*
X68786755Y-50319657D01*
X68678283Y-50274060D01*
X68563021Y-50250400D01*
X68445357Y-50249578D01*
X68329775Y-50271627D01*
X68220677Y-50315705D01*
X68122219Y-50380135D01*
X68038150Y-50462461D01*
X67971672Y-50559549D01*
X67925318Y-50667700D01*
X67900854Y-50782795D01*
X67899855Y-50854302D01*
X67610266Y-50658972D01*
X67284850Y-50522179D01*
X66939062Y-50451199D01*
X66586072Y-50448735D01*
X66239326Y-50514880D01*
X65912032Y-50647116D01*
X65616656Y-50840404D01*
X65364449Y-51087384D01*
X65165016Y-51378648D01*
X65025955Y-51703101D01*
X64952563Y-52048385D01*
X64949982Y-52233181D01*
X64928283Y-52224060D01*
X64813021Y-52200400D01*
X64695357Y-52199578D01*
X64579775Y-52221627D01*
X64470677Y-52265705D01*
X64372219Y-52330135D01*
X64288150Y-52412461D01*
X64221672Y-52509549D01*
X64175318Y-52617700D01*
X64150854Y-52732795D01*
X64149211Y-52850450D01*
X64170452Y-52966183D01*
X64213768Y-53075586D01*
X64277509Y-53174492D01*
X64359247Y-53259134D01*
X64455868Y-53326287D01*
X64563693Y-53373395D01*
X64678614Y-53398662D01*
X64796254Y-53401126D01*
X64912133Y-53380694D01*
X65021835Y-53338143D01*
X65121184Y-53275094D01*
X65206395Y-53193949D01*
X65211848Y-53186219D01*
X65332527Y-53373476D01*
X65577740Y-53627401D01*
X65867604Y-53828862D01*
X66191078Y-53970184D01*
X66535842Y-54045986D01*
X66888762Y-54053378D01*
X67068706Y-54021649D01*
X66653809Y-54481166D01*
X66344418Y-54820498D01*
X66326240Y-54844835D01*
X66307021Y-54868358D01*
X66303959Y-54873029D01*
X65483959Y-56143029D01*
X65474888Y-56160641D01*
X65464165Y-56177295D01*
X65461648Y-56182281D01*
X64851648Y-57412281D01*
X64843756Y-57433080D01*
X64834140Y-57453144D01*
X64832266Y-57458405D01*
X64391903Y-58722433D01*
X64047352Y-58877346D01*
X64026405Y-58889347D01*
X64004619Y-58899750D01*
X63992612Y-58908708D01*
X63979615Y-58916154D01*
X63961397Y-58931996D01*
X63942048Y-58946431D01*
X63932011Y-58957549D01*
X63920706Y-58967379D01*
X63905912Y-58986457D01*
X63889734Y-59004377D01*
X63882047Y-59017234D01*
X63872868Y-59029071D01*
X63862060Y-59050662D01*
X63849673Y-59071380D01*
X63844631Y-59085482D01*
X63837924Y-59098880D01*
X63831515Y-59122163D01*
X63823389Y-59144888D01*
X63822068Y-59150315D01*
X63560689Y-60258147D01*
X63558192Y-60276673D01*
X63553820Y-60294849D01*
X63553089Y-60300386D01*
X63353089Y-61900386D01*
X63352501Y-61922465D01*
X63350039Y-61944415D01*
X63350000Y-61950000D01*
X63350000Y-62650000D01*
X61458006Y-62650000D01*
X61468504Y-62630360D01*
X61485659Y-62573810D01*
X61491451Y-62515000D01*
X61491451Y-61715000D01*
X61485659Y-61656190D01*
X61468504Y-61599640D01*
X61440647Y-61547523D01*
X61403158Y-61501842D01*
X61357477Y-61464353D01*
X61305360Y-61436496D01*
X61248810Y-61419341D01*
X61190000Y-61413549D01*
X60390000Y-61413549D01*
X60331190Y-61419341D01*
X60274640Y-61436496D01*
X60222523Y-61464353D01*
X60176842Y-61501842D01*
X60155000Y-61528457D01*
X60133158Y-61501842D01*
X60087477Y-61464353D01*
X60035360Y-61436496D01*
X59978810Y-61419341D01*
X59920000Y-61413549D01*
X59120000Y-61413549D01*
X59061190Y-61419341D01*
X59004640Y-61436496D01*
X58952523Y-61464353D01*
X58906842Y-61501842D01*
X58885000Y-61528457D01*
X58863158Y-61501842D01*
X58817477Y-61464353D01*
X58765360Y-61436496D01*
X58708810Y-61419341D01*
X58650000Y-61413549D01*
X57850000Y-61413549D01*
X57791190Y-61419341D01*
X57734640Y-61436496D01*
X57682523Y-61464353D01*
X57636842Y-61501842D01*
X57615000Y-61528457D01*
X57593158Y-61501842D01*
X57547477Y-61464353D01*
X57495360Y-61436496D01*
X57438810Y-61419341D01*
X57380000Y-61413549D01*
X56935813Y-61413549D01*
X56956395Y-61393949D01*
X57024221Y-61297799D01*
X57072080Y-61190306D01*
X57098149Y-61075564D01*
X57100026Y-60941167D01*
X57077171Y-60825742D01*
X57032332Y-60716954D01*
X56974859Y-60630450D01*
X59669211Y-60630450D01*
X59690452Y-60746183D01*
X59733768Y-60855586D01*
X59797509Y-60954492D01*
X59879247Y-61039134D01*
X59975868Y-61106287D01*
X60083693Y-61153395D01*
X60198614Y-61178662D01*
X60316254Y-61181126D01*
X60432133Y-61160694D01*
X60541835Y-61118143D01*
X60641184Y-61055094D01*
X60726395Y-60973949D01*
X60794221Y-60877799D01*
X60828659Y-60800450D01*
X61149211Y-60800450D01*
X61170452Y-60916183D01*
X61213768Y-61025586D01*
X61277509Y-61124492D01*
X61359247Y-61209134D01*
X61455868Y-61276287D01*
X61563693Y-61323395D01*
X61678614Y-61348662D01*
X61796254Y-61351126D01*
X61912133Y-61330694D01*
X62021835Y-61288143D01*
X62121184Y-61225094D01*
X62206395Y-61143949D01*
X62274221Y-61047799D01*
X62322080Y-60940306D01*
X62348149Y-60825564D01*
X62350026Y-60691167D01*
X62327171Y-60575742D01*
X62282332Y-60466954D01*
X62217216Y-60368948D01*
X62134305Y-60285455D01*
X62036755Y-60219657D01*
X61928283Y-60174060D01*
X61813021Y-60150400D01*
X61695357Y-60149578D01*
X61579775Y-60171627D01*
X61470677Y-60215705D01*
X61372219Y-60280135D01*
X61288150Y-60362461D01*
X61221672Y-60459549D01*
X61175318Y-60567700D01*
X61150854Y-60682795D01*
X61149211Y-60800450D01*
X60828659Y-60800450D01*
X60842080Y-60770306D01*
X60868149Y-60655564D01*
X60870026Y-60521167D01*
X60847171Y-60405742D01*
X60802332Y-60296954D01*
X60737216Y-60198948D01*
X60654305Y-60115455D01*
X60556755Y-60049657D01*
X60448283Y-60004060D01*
X60333021Y-59980400D01*
X60215357Y-59979578D01*
X60099775Y-60001627D01*
X59990677Y-60045705D01*
X59892219Y-60110135D01*
X59808150Y-60192461D01*
X59741672Y-60289549D01*
X59695318Y-60397700D01*
X59670854Y-60512795D01*
X59669211Y-60630450D01*
X56974859Y-60630450D01*
X56967216Y-60618948D01*
X56884305Y-60535455D01*
X56786755Y-60469657D01*
X56678283Y-60424060D01*
X56563021Y-60400400D01*
X56445357Y-60399578D01*
X56329775Y-60421627D01*
X56220677Y-60465705D01*
X56122219Y-60530135D01*
X56038150Y-60612461D01*
X55971672Y-60709549D01*
X55925318Y-60817700D01*
X55900854Y-60932795D01*
X55899211Y-61050450D01*
X55920452Y-61166183D01*
X55963768Y-61275586D01*
X56027509Y-61374492D01*
X56065226Y-61413549D01*
X55409496Y-61413549D01*
X55449701Y-60508936D01*
X55646793Y-59050450D01*
X59019211Y-59050450D01*
X59040452Y-59166183D01*
X59083768Y-59275586D01*
X59147509Y-59374492D01*
X59229247Y-59459134D01*
X59325868Y-59526287D01*
X59433693Y-59573395D01*
X59548614Y-59598662D01*
X59666254Y-59601126D01*
X59782133Y-59580694D01*
X59891835Y-59538143D01*
X59991184Y-59475094D01*
X60076395Y-59393949D01*
X60144221Y-59297799D01*
X60192080Y-59190306D01*
X60218149Y-59075564D01*
X60220026Y-58941167D01*
X60197171Y-58825742D01*
X60152332Y-58716954D01*
X60087216Y-58618948D01*
X60004305Y-58535455D01*
X59906755Y-58469657D01*
X59798283Y-58424060D01*
X59683021Y-58400400D01*
X59565357Y-58399578D01*
X59449775Y-58421627D01*
X59340677Y-58465705D01*
X59242219Y-58530135D01*
X59158150Y-58612461D01*
X59091672Y-58709549D01*
X59045318Y-58817700D01*
X59020854Y-58932795D01*
X59019211Y-59050450D01*
X55646793Y-59050450D01*
X55698479Y-58667978D01*
X55996906Y-57374797D01*
X56107815Y-56980450D01*
X63459211Y-56980450D01*
X63480452Y-57096183D01*
X63523768Y-57205586D01*
X63587509Y-57304492D01*
X63669247Y-57389134D01*
X63765868Y-57456287D01*
X63873693Y-57503395D01*
X63988614Y-57528662D01*
X64106254Y-57531126D01*
X64222133Y-57510694D01*
X64331835Y-57468143D01*
X64431184Y-57405094D01*
X64516395Y-57323949D01*
X64584221Y-57227799D01*
X64632080Y-57120306D01*
X64658149Y-57005564D01*
X64660026Y-56871167D01*
X64637171Y-56755742D01*
X64597143Y-56658627D01*
X64642133Y-56650694D01*
X64751835Y-56608143D01*
X64851184Y-56545094D01*
X64936395Y-56463949D01*
X65004221Y-56367799D01*
X65052080Y-56260306D01*
X65078149Y-56145564D01*
X65080026Y-56011167D01*
X65057171Y-55895742D01*
X65012332Y-55786954D01*
X64947216Y-55688948D01*
X64864305Y-55605455D01*
X64766755Y-55539657D01*
X64658283Y-55494060D01*
X64543021Y-55470400D01*
X64425357Y-55469578D01*
X64309775Y-55491627D01*
X64200677Y-55535705D01*
X64102219Y-55600135D01*
X64018150Y-55682461D01*
X63951672Y-55779549D01*
X63905318Y-55887700D01*
X63880854Y-56002795D01*
X63879211Y-56120450D01*
X63900452Y-56236183D01*
X63942200Y-56341626D01*
X63889775Y-56351627D01*
X63780677Y-56395705D01*
X63682219Y-56460135D01*
X63598150Y-56542461D01*
X63531672Y-56639549D01*
X63485318Y-56747700D01*
X63460854Y-56862795D01*
X63459211Y-56980450D01*
X56107815Y-56980450D01*
X56445119Y-55781148D01*
X56506758Y-55616777D01*
X56537509Y-55664492D01*
X56619247Y-55749134D01*
X56715868Y-55816287D01*
X56823693Y-55863395D01*
X56938614Y-55888662D01*
X57056254Y-55891126D01*
X57172133Y-55870694D01*
X57281835Y-55828143D01*
X57381184Y-55765094D01*
X57466395Y-55683949D01*
X57534221Y-55587799D01*
X57582080Y-55480306D01*
X57608149Y-55365564D01*
X57609058Y-55300450D01*
X59949211Y-55300450D01*
X59970452Y-55416183D01*
X60013768Y-55525586D01*
X60077509Y-55624492D01*
X60159247Y-55709134D01*
X60255868Y-55776287D01*
X60363693Y-55823395D01*
X60478614Y-55848662D01*
X60596254Y-55851126D01*
X60712133Y-55830694D01*
X60821835Y-55788143D01*
X60921184Y-55725094D01*
X61006395Y-55643949D01*
X61074221Y-55547799D01*
X61122080Y-55440306D01*
X61148149Y-55325564D01*
X61150026Y-55191167D01*
X61127171Y-55075742D01*
X61082332Y-54966954D01*
X61017216Y-54868948D01*
X60988917Y-54840450D01*
X63369211Y-54840450D01*
X63390452Y-54956183D01*
X63433768Y-55065586D01*
X63497509Y-55164492D01*
X63579247Y-55249134D01*
X63675868Y-55316287D01*
X63783693Y-55363395D01*
X63898614Y-55388662D01*
X64016254Y-55391126D01*
X64132133Y-55370694D01*
X64241835Y-55328143D01*
X64341184Y-55265094D01*
X64426395Y-55183949D01*
X64494221Y-55087799D01*
X64513740Y-55043958D01*
X64545868Y-55066287D01*
X64653693Y-55113395D01*
X64768614Y-55138662D01*
X64886254Y-55141126D01*
X65002133Y-55120694D01*
X65111835Y-55078143D01*
X65211184Y-55015094D01*
X65296395Y-54933949D01*
X65364221Y-54837799D01*
X65412080Y-54730306D01*
X65438149Y-54615564D01*
X65440026Y-54481167D01*
X65417171Y-54365742D01*
X65372332Y-54256954D01*
X65307216Y-54158948D01*
X65224305Y-54075455D01*
X65126755Y-54009657D01*
X65018283Y-53964060D01*
X64903021Y-53940400D01*
X64785357Y-53939578D01*
X64669775Y-53961627D01*
X64560677Y-54005705D01*
X64462219Y-54070135D01*
X64378150Y-54152461D01*
X64311672Y-54249549D01*
X64295995Y-54286125D01*
X64256755Y-54259657D01*
X64148283Y-54214060D01*
X64033021Y-54190400D01*
X63915357Y-54189578D01*
X63799775Y-54211627D01*
X63690677Y-54255705D01*
X63592219Y-54320135D01*
X63508150Y-54402461D01*
X63441672Y-54499549D01*
X63395318Y-54607700D01*
X63370854Y-54722795D01*
X63369211Y-54840450D01*
X60988917Y-54840450D01*
X60934305Y-54785455D01*
X60836755Y-54719657D01*
X60728283Y-54674060D01*
X60613021Y-54650400D01*
X60495357Y-54649578D01*
X60379775Y-54671627D01*
X60270677Y-54715705D01*
X60172219Y-54780135D01*
X60088150Y-54862461D01*
X60021672Y-54959549D01*
X59975318Y-55067700D01*
X59950854Y-55182795D01*
X59949211Y-55300450D01*
X57609058Y-55300450D01*
X57610026Y-55231167D01*
X57587171Y-55115742D01*
X57542332Y-55006954D01*
X57477216Y-54908948D01*
X57394305Y-54825455D01*
X57296755Y-54759657D01*
X57188283Y-54714060D01*
X57073021Y-54690400D01*
X56955357Y-54689578D01*
X56846684Y-54710309D01*
X56892589Y-54587896D01*
X57489886Y-53243978D01*
X58236569Y-51850170D01*
X59232383Y-50256867D01*
X59583490Y-49794884D01*
X59583768Y-49795586D01*
X59647509Y-49894492D01*
X59729247Y-49979134D01*
X59825868Y-50046287D01*
X59933693Y-50093395D01*
X60048614Y-50118662D01*
X60166254Y-50121126D01*
X60282133Y-50100694D01*
X60391835Y-50058143D01*
X60491184Y-49995094D01*
X60576395Y-49913949D01*
X60644221Y-49817799D01*
X60692080Y-49710306D01*
X60718149Y-49595564D01*
X60720026Y-49461167D01*
X60697171Y-49345742D01*
X60652332Y-49236954D01*
X60587216Y-49138948D01*
X60504305Y-49055455D01*
X60406755Y-48989657D01*
X60298283Y-48944060D01*
X60246961Y-48933525D01*
X61522473Y-47469048D01*
X62765993Y-46275269D01*
X63547016Y-45650450D01*
X64149211Y-45650450D01*
X64170452Y-45766183D01*
X64213768Y-45875586D01*
X64277509Y-45974492D01*
X64359247Y-46059134D01*
X64455868Y-46126287D01*
X64563693Y-46173395D01*
X64678614Y-46198662D01*
X64796254Y-46201126D01*
X64912133Y-46180694D01*
X65021835Y-46138143D01*
X65121184Y-46075094D01*
X65206395Y-45993949D01*
X65274221Y-45897799D01*
X65322080Y-45790306D01*
X65348149Y-45675564D01*
X65350026Y-45541167D01*
X65327171Y-45425742D01*
X65282332Y-45316954D01*
X65217216Y-45218948D01*
X65134305Y-45135455D01*
X65036755Y-45069657D01*
X64928283Y-45024060D01*
X64813021Y-45000400D01*
X64695357Y-44999578D01*
X64579775Y-45021627D01*
X64470677Y-45065705D01*
X64372219Y-45130135D01*
X64288150Y-45212461D01*
X64221672Y-45309549D01*
X64175318Y-45417700D01*
X64150854Y-45532795D01*
X64149211Y-45650450D01*
X63547016Y-45650450D01*
X64009825Y-45280203D01*
X65802614Y-44035210D01*
X67444693Y-43139531D01*
X68995774Y-42434494D01*
X68854412Y-43096325D01*
X67806889Y-43602332D01*
X67799009Y-43607139D01*
X67790514Y-43610744D01*
X67785934Y-43613282D01*
X67671560Y-43677718D01*
X67661708Y-43684615D01*
X67651026Y-43690168D01*
X67631779Y-43705569D01*
X67611605Y-43719693D01*
X67603279Y-43728374D01*
X67593881Y-43735894D01*
X67577999Y-43754731D01*
X67560946Y-43772512D01*
X67554461Y-43782651D01*
X67546707Y-43791848D01*
X67534789Y-43813406D01*
X67521510Y-43834167D01*
X67517119Y-43845370D01*
X67511298Y-43855899D01*
X67509258Y-43860721D01*
X67200657Y-44604483D01*
X67128283Y-44574060D01*
X67013021Y-44550400D01*
X66895357Y-44549578D01*
X66779775Y-44571627D01*
X66670677Y-44615705D01*
X66572219Y-44680135D01*
X66488150Y-44762461D01*
X66421672Y-44859549D01*
X66375318Y-44967700D01*
X66350854Y-45082795D01*
X66349211Y-45200450D01*
X66370452Y-45316183D01*
X66413768Y-45425586D01*
X66477509Y-45524492D01*
X66559247Y-45609134D01*
X66655868Y-45676287D01*
X66763693Y-45723395D01*
X66878614Y-45748662D01*
X66996254Y-45751126D01*
X67112133Y-45730694D01*
X67221835Y-45688143D01*
X67321184Y-45625094D01*
X67406395Y-45543949D01*
X67472420Y-45450352D01*
X67801069Y-46010990D01*
X67790270Y-46057789D01*
X67770677Y-46065705D01*
X67672219Y-46130135D01*
X67588150Y-46212461D01*
X67521672Y-46309549D01*
X67475318Y-46417700D01*
X67450854Y-46532795D01*
X67449211Y-46650450D01*
X67470452Y-46766183D01*
X67513768Y-46875586D01*
X67572501Y-46966720D01*
X66563043Y-46552584D01*
X66558887Y-46551337D01*
X66555007Y-46549395D01*
X66523882Y-46540830D01*
X66492944Y-46531545D01*
X66488623Y-46531128D01*
X66484442Y-46529978D01*
X66452256Y-46527622D01*
X66420096Y-46524522D01*
X66415777Y-46524953D01*
X66411450Y-46524636D01*
X66379384Y-46528582D01*
X66347269Y-46531784D01*
X66343122Y-46533044D01*
X66338811Y-46533574D01*
X66308114Y-46543675D01*
X66277240Y-46553052D01*
X66273415Y-46555094D01*
X66269291Y-46556451D01*
X66241162Y-46572311D01*
X66212676Y-46587517D01*
X66209316Y-46590266D01*
X66205539Y-46592396D01*
X66201271Y-46595430D01*
X65642984Y-46998298D01*
X65648149Y-46975564D01*
X65650026Y-46841167D01*
X65627171Y-46725742D01*
X65582332Y-46616954D01*
X65517216Y-46518948D01*
X65434305Y-46435455D01*
X65336755Y-46369657D01*
X65228283Y-46324060D01*
X65113021Y-46300400D01*
X64995357Y-46299578D01*
X64879775Y-46321627D01*
X64770677Y-46365705D01*
X64672219Y-46430135D01*
X64588150Y-46512461D01*
X64521672Y-46609549D01*
X64475318Y-46717700D01*
X64450854Y-46832795D01*
X64449626Y-46920702D01*
X63405953Y-47815279D01*
X63381275Y-47841014D01*
X63356420Y-47866685D01*
X63355926Y-47867449D01*
X63355298Y-47868104D01*
X63336101Y-47898124D01*
X63316693Y-47928152D01*
X63316356Y-47928999D01*
X63315869Y-47929761D01*
X63302891Y-47962879D01*
X63289662Y-47996165D01*
X63289496Y-47997061D01*
X63289166Y-47997904D01*
X63282843Y-48033048D01*
X63276357Y-48068132D01*
X63276368Y-48069037D01*
X63276207Y-48069934D01*
X63276833Y-48105749D01*
X63277283Y-48141313D01*
X63277484Y-48143022D01*
X63277486Y-48143110D01*
X63277505Y-48143200D01*
X63277896Y-48146513D01*
X63355965Y-48771063D01*
X62950562Y-49200313D01*
X62845357Y-49199578D01*
X62729775Y-49221627D01*
X62620677Y-49265705D01*
X62522219Y-49330135D01*
X62438150Y-49412461D01*
X62371672Y-49509549D01*
X62325318Y-49617700D01*
X62300854Y-49732795D01*
X62299211Y-49850450D01*
X62320452Y-49966183D01*
X62363768Y-50075586D01*
X62427509Y-50174492D01*
X62509247Y-50259134D01*
X62605868Y-50326287D01*
X62713693Y-50373395D01*
X62828614Y-50398662D01*
X62946254Y-50401126D01*
X63062133Y-50380694D01*
X63171835Y-50338143D01*
X63271184Y-50275094D01*
X63356395Y-50193949D01*
X63424221Y-50097799D01*
X63447598Y-50045294D01*
X63509247Y-50109134D01*
X63605868Y-50176287D01*
X63713693Y-50223395D01*
X63828614Y-50248662D01*
X63946254Y-50251126D01*
X64062133Y-50230694D01*
X64171835Y-50188143D01*
X64271184Y-50125094D01*
X64342127Y-50057536D01*
X64573282Y-50074047D01*
X64579643Y-50073879D01*
X64585944Y-50074736D01*
X64616162Y-50072913D01*
X64646444Y-50072113D01*
X64652649Y-50070713D01*
X64658998Y-50070330D01*
X64688305Y-50062668D01*
X64717836Y-50056005D01*
X64723647Y-50053428D01*
X64729806Y-50051818D01*
X64757063Y-50038610D01*
X64784741Y-50026337D01*
X64789947Y-50022676D01*
X64795668Y-50019904D01*
X64819823Y-50001668D01*
X64844608Y-49984239D01*
X64849003Y-49979637D01*
X64854078Y-49975806D01*
X64857904Y-49972232D01*
X65807904Y-49072232D01*
X65812503Y-49066931D01*
X65816111Y-49063905D01*
X65905868Y-49126287D01*
X66013693Y-49173395D01*
X66128614Y-49198662D01*
X66246254Y-49201126D01*
X66362133Y-49180694D01*
X66471835Y-49138143D01*
X66571184Y-49075094D01*
X66656395Y-48993949D01*
X66724221Y-48897799D01*
X66772080Y-48790306D01*
X66798149Y-48675564D01*
X66800026Y-48541167D01*
X66777171Y-48425742D01*
X66732332Y-48316954D01*
X66667216Y-48218948D01*
X66584305Y-48135455D01*
X66486755Y-48069657D01*
X66378283Y-48024060D01*
X66300506Y-48008095D01*
X66582029Y-47825933D01*
X67945655Y-48441764D01*
X67959359Y-48446404D01*
X67972419Y-48452630D01*
X67993945Y-48458113D01*
X68014977Y-48465234D01*
X68029313Y-48467123D01*
X68043341Y-48470696D01*
X68065524Y-48471893D01*
X68087536Y-48474793D01*
X68101975Y-48473860D01*
X68116423Y-48474640D01*
X68138412Y-48471507D01*
X68160572Y-48470075D01*
X68174553Y-48466356D01*
X68188877Y-48464315D01*
X68209837Y-48456971D01*
X68231300Y-48451262D01*
X68244292Y-48444899D01*
X68257947Y-48440114D01*
X68262681Y-48437876D01*
X69607071Y-47790577D01*
X71278524Y-47053171D01*
X72502747Y-46697751D01*
X72513768Y-46725586D01*
X72577509Y-46824492D01*
X72659247Y-46909134D01*
X72755868Y-46976287D01*
X72853773Y-47019061D01*
X72850854Y-47032795D01*
X72849211Y-47150450D01*
X72870452Y-47266183D01*
X72913768Y-47375586D01*
X72977509Y-47474492D01*
X73059247Y-47559134D01*
X73155868Y-47626287D01*
X73263693Y-47673395D01*
X73378614Y-47698662D01*
X73496254Y-47701126D01*
X73612133Y-47680694D01*
X73721835Y-47638143D01*
X73821184Y-47575094D01*
X73906395Y-47493949D01*
X73974221Y-47397799D01*
X74022080Y-47290306D01*
X74048149Y-47175564D01*
X74050026Y-47041167D01*
X74027171Y-46925742D01*
X73982332Y-46816954D01*
X73917216Y-46718948D01*
X73834305Y-46635455D01*
X73736755Y-46569657D01*
X73646729Y-46531814D01*
X73648149Y-46525564D01*
X73650026Y-46391167D01*
X73627171Y-46275742D01*
X73582332Y-46166954D01*
X73517216Y-46068948D01*
X73434305Y-45985455D01*
X73336755Y-45919657D01*
X73228283Y-45874060D01*
X73113021Y-45850400D01*
X72995357Y-45849578D01*
X72879775Y-45871627D01*
X72821147Y-45895314D01*
X72819268Y-45894472D01*
X72818201Y-45894227D01*
X72817193Y-45893782D01*
X72782519Y-45886025D01*
X72747941Y-45878077D01*
X72746842Y-45878044D01*
X72745771Y-45877804D01*
X72710262Y-45876929D01*
X72674787Y-45875849D01*
X72673706Y-45876029D01*
X72672606Y-45876002D01*
X72637676Y-45882029D01*
X72602594Y-45887871D01*
X72601561Y-45888260D01*
X72600485Y-45888446D01*
X72595446Y-45889870D01*
X71045446Y-46339870D01*
X71024726Y-46348153D01*
X71003440Y-46354826D01*
X70998635Y-46356906D01*
X70784193Y-46451513D01*
X70930882Y-46176471D01*
X70939945Y-46154561D01*
X70950502Y-46133317D01*
X70953906Y-46120810D01*
X70958857Y-46108841D01*
X70963491Y-46085592D01*
X70969722Y-46062699D01*
X70970631Y-46049771D01*
X70973164Y-46037066D01*
X70973194Y-46013348D01*
X70974858Y-45989692D01*
X70973240Y-45976837D01*
X70973256Y-45963878D01*
X70968679Y-45940606D01*
X70965717Y-45917078D01*
X70961633Y-45904785D01*
X70959132Y-45892067D01*
X70950118Y-45870120D01*
X70942645Y-45847623D01*
X70940485Y-45842853D01*
X70837105Y-45618862D01*
X70872080Y-45540306D01*
X70898149Y-45425564D01*
X70900026Y-45291167D01*
X70877171Y-45175742D01*
X70832332Y-45066954D01*
X70767216Y-44968948D01*
X70684305Y-44885455D01*
X70586755Y-44819657D01*
X70478283Y-44774060D01*
X70363021Y-44750400D01*
X70245357Y-44749578D01*
X70129775Y-44771627D01*
X70020677Y-44815705D01*
X69922219Y-44880135D01*
X69838150Y-44962461D01*
X69771672Y-45059549D01*
X69725318Y-45167700D01*
X69700854Y-45282795D01*
X69699211Y-45400450D01*
X69720452Y-45516183D01*
X69763768Y-45625586D01*
X69827070Y-45723811D01*
X69713021Y-45700400D01*
X69595357Y-45699578D01*
X69479775Y-45721627D01*
X69370677Y-45765705D01*
X69272219Y-45830135D01*
X69223274Y-45878065D01*
X69217216Y-45868948D01*
X69134305Y-45785455D01*
X69036755Y-45719657D01*
X68928283Y-45674060D01*
X68813021Y-45650400D01*
X68695357Y-45649578D01*
X68579775Y-45671627D01*
X68492233Y-45706996D01*
X67943556Y-44771018D01*
X68138803Y-44300450D01*
X75149211Y-44300450D01*
X75170452Y-44416183D01*
X75213768Y-44525586D01*
X75277509Y-44624492D01*
X75359247Y-44709134D01*
X75418154Y-44750075D01*
X75372219Y-44780135D01*
X75288150Y-44862461D01*
X75221672Y-44959549D01*
X75175318Y-45067700D01*
X75150854Y-45182795D01*
X75149211Y-45300450D01*
X75170452Y-45416183D01*
X75213768Y-45525586D01*
X75277509Y-45624492D01*
X75359247Y-45709134D01*
X75418154Y-45750075D01*
X75372219Y-45780135D01*
X75288150Y-45862461D01*
X75221672Y-45959549D01*
X75175318Y-46067700D01*
X75150854Y-46182795D01*
X75149211Y-46300450D01*
X75170452Y-46416183D01*
X75213768Y-46525586D01*
X75277509Y-46624492D01*
X75359247Y-46709134D01*
X75418154Y-46750075D01*
X75372219Y-46780135D01*
X75288150Y-46862461D01*
X75221672Y-46959549D01*
X75175318Y-47067700D01*
X75150854Y-47182795D01*
X75149211Y-47300450D01*
X75170452Y-47416183D01*
X75213768Y-47525586D01*
X75277509Y-47624492D01*
X75359247Y-47709134D01*
X75455868Y-47776287D01*
X75563693Y-47823395D01*
X75678614Y-47848662D01*
X75796254Y-47851126D01*
X75912133Y-47830694D01*
X76021835Y-47788143D01*
X76121184Y-47725094D01*
X76206395Y-47643949D01*
X76250110Y-47581978D01*
X76277509Y-47624492D01*
X76359247Y-47709134D01*
X76455868Y-47776287D01*
X76563693Y-47823395D01*
X76678614Y-47848662D01*
X76796254Y-47851126D01*
X76912133Y-47830694D01*
X77021835Y-47788143D01*
X77121184Y-47725094D01*
X77206395Y-47643949D01*
X77250110Y-47581978D01*
X77277509Y-47624492D01*
X77359247Y-47709134D01*
X77455868Y-47776287D01*
X77563693Y-47823395D01*
X77678614Y-47848662D01*
X77796254Y-47851126D01*
X77912133Y-47830694D01*
X78021835Y-47788143D01*
X78121184Y-47725094D01*
X78206395Y-47643949D01*
X78250110Y-47581978D01*
X78277509Y-47624492D01*
X78359247Y-47709134D01*
X78455868Y-47776287D01*
X78563693Y-47823395D01*
X78678614Y-47848662D01*
X78796254Y-47851126D01*
X78912133Y-47830694D01*
X79021835Y-47788143D01*
X79121184Y-47725094D01*
X79206395Y-47643949D01*
X79274221Y-47547799D01*
X79322080Y-47440306D01*
X79348149Y-47325564D01*
X79350026Y-47191167D01*
X79327171Y-47075742D01*
X79282332Y-46966954D01*
X79217216Y-46868948D01*
X79134305Y-46785455D01*
X79081837Y-46750065D01*
X79121184Y-46725094D01*
X79206395Y-46643949D01*
X79274221Y-46547799D01*
X79322080Y-46440306D01*
X79348149Y-46325564D01*
X79350026Y-46191167D01*
X79327171Y-46075742D01*
X79282332Y-45966954D01*
X79217216Y-45868948D01*
X79134305Y-45785455D01*
X79081837Y-45750065D01*
X79121184Y-45725094D01*
X79206395Y-45643949D01*
X79274221Y-45547799D01*
X79322080Y-45440306D01*
X79348149Y-45325564D01*
X79350026Y-45191167D01*
X79327171Y-45075742D01*
X79282332Y-44966954D01*
X79217216Y-44868948D01*
X79134305Y-44785455D01*
X79081837Y-44750065D01*
X79121184Y-44725094D01*
X79206395Y-44643949D01*
X79274221Y-44547799D01*
X79322080Y-44440306D01*
X79348149Y-44325564D01*
X79350026Y-44191167D01*
X79327171Y-44075742D01*
X79282332Y-43966954D01*
X79217216Y-43868948D01*
X79134305Y-43785455D01*
X79036755Y-43719657D01*
X78928283Y-43674060D01*
X78813021Y-43650400D01*
X78695357Y-43649578D01*
X78579775Y-43671627D01*
X78470677Y-43715705D01*
X78372219Y-43780135D01*
X78288150Y-43862461D01*
X78249962Y-43918233D01*
X78217216Y-43868948D01*
X78134305Y-43785455D01*
X78036755Y-43719657D01*
X77928283Y-43674060D01*
X77813021Y-43650400D01*
X77695357Y-43649578D01*
X77579775Y-43671627D01*
X77470677Y-43715705D01*
X77372219Y-43780135D01*
X77288150Y-43862461D01*
X77249962Y-43918233D01*
X77217216Y-43868948D01*
X77134305Y-43785455D01*
X77036755Y-43719657D01*
X76928283Y-43674060D01*
X76813021Y-43650400D01*
X76695357Y-43649578D01*
X76579775Y-43671627D01*
X76470677Y-43715705D01*
X76372219Y-43780135D01*
X76288150Y-43862461D01*
X76249962Y-43918233D01*
X76217216Y-43868948D01*
X76134305Y-43785455D01*
X76036755Y-43719657D01*
X75928283Y-43674060D01*
X75813021Y-43650400D01*
X75695357Y-43649578D01*
X75579775Y-43671627D01*
X75470677Y-43715705D01*
X75372219Y-43780135D01*
X75288150Y-43862461D01*
X75221672Y-43959549D01*
X75175318Y-44067700D01*
X75150854Y-44182795D01*
X75149211Y-44300450D01*
X68138803Y-44300450D01*
X68152052Y-44268519D01*
X69300024Y-43713990D01*
X69318595Y-43706732D01*
X69345456Y-43693077D01*
X69409247Y-43759134D01*
X69505868Y-43826287D01*
X69613693Y-43873395D01*
X69728614Y-43898662D01*
X69846254Y-43901126D01*
X69962133Y-43880694D01*
X70071835Y-43838143D01*
X70171184Y-43775094D01*
X70256395Y-43693949D01*
X70324221Y-43597799D01*
X70372080Y-43490306D01*
X70398149Y-43375564D01*
X70400026Y-43241167D01*
X70377171Y-43125742D01*
X70332332Y-43016954D01*
X70267216Y-42918948D01*
X70184305Y-42835455D01*
X70086755Y-42769657D01*
X69978283Y-42724060D01*
X69863021Y-42700400D01*
X69745357Y-42699578D01*
X69704403Y-42707391D01*
X69740223Y-42539685D01*
X71714392Y-41953156D01*
X73477341Y-41559201D01*
X74718172Y-41383137D01*
X75665675Y-42699115D01*
X75683900Y-42719821D01*
X75701096Y-42741372D01*
X75708028Y-42747233D01*
X75714030Y-42754052D01*
X75735929Y-42770823D01*
X75756984Y-42788625D01*
X75764924Y-42793029D01*
X75772135Y-42798551D01*
X75796872Y-42810748D01*
X75820987Y-42824122D01*
X75829634Y-42826900D01*
X75837778Y-42830916D01*
X75864412Y-42838076D01*
X75890665Y-42846512D01*
X75899681Y-42847557D01*
X75908455Y-42849916D01*
X75935982Y-42851766D01*
X75963365Y-42854941D01*
X75968601Y-42854997D01*
X78648601Y-42864997D01*
X78658517Y-42864062D01*
X78668475Y-42864545D01*
X78694902Y-42860631D01*
X78721465Y-42858127D01*
X78731008Y-42855285D01*
X78740872Y-42853824D01*
X78766028Y-42844854D01*
X78791607Y-42837236D01*
X78800422Y-42832591D01*
X78809809Y-42829244D01*
X78824547Y-42820450D01*
X80999211Y-42820450D01*
X81020452Y-42936183D01*
X81063768Y-43045586D01*
X81127509Y-43144492D01*
X81209247Y-43229134D01*
X81305868Y-43296287D01*
X81413693Y-43343395D01*
X81528614Y-43368662D01*
X81646254Y-43371126D01*
X81762133Y-43350694D01*
X81871835Y-43308143D01*
X81971184Y-43245094D01*
X82056395Y-43163949D01*
X82124221Y-43067799D01*
X82172080Y-42960306D01*
X82198149Y-42845564D01*
X82200026Y-42711167D01*
X82177171Y-42595742D01*
X82132332Y-42486954D01*
X82067216Y-42388948D01*
X81984305Y-42305455D01*
X81886755Y-42239657D01*
X81778283Y-42194060D01*
X81663021Y-42170400D01*
X81545357Y-42169578D01*
X81429775Y-42191627D01*
X81320677Y-42235705D01*
X81222219Y-42300135D01*
X81138150Y-42382461D01*
X81071672Y-42479549D01*
X81025318Y-42587700D01*
X81000854Y-42702795D01*
X80999211Y-42820450D01*
X78824547Y-42820450D01*
X78832739Y-42815562D01*
X78856355Y-42803117D01*
X78864102Y-42796847D01*
X78872657Y-42791742D01*
X78892481Y-42773878D01*
X78913244Y-42757073D01*
X78919627Y-42749415D01*
X78927026Y-42742748D01*
X78930528Y-42738855D01*
X79169457Y-42469517D01*
X79246254Y-42471126D01*
X79362133Y-42450694D01*
X79471835Y-42408143D01*
X79571184Y-42345094D01*
X79656395Y-42263949D01*
X79724221Y-42167799D01*
X79772080Y-42060306D01*
X79798149Y-41945564D01*
X79800026Y-41811167D01*
X79777171Y-41695742D01*
X79732332Y-41586954D01*
X79667216Y-41488948D01*
X79584305Y-41405455D01*
X79486755Y-41339657D01*
X79378283Y-41294060D01*
X79263021Y-41270400D01*
X79145357Y-41269578D01*
X79029775Y-41291627D01*
X78932986Y-41330732D01*
X78942080Y-41310306D01*
X78968149Y-41195564D01*
X78970026Y-41061167D01*
X78947171Y-40945742D01*
X78934808Y-40915747D01*
X79937617Y-40999315D01*
X79937617Y-40999315D01*
G37*
X79937617Y-40999315D02*
X81132664Y-41198490D01*
X81307604Y-41230886D01*
X81301672Y-41239549D01*
X81255318Y-41347700D01*
X81230854Y-41462795D01*
X81229211Y-41580450D01*
X81250452Y-41696183D01*
X81293768Y-41805586D01*
X81357509Y-41904492D01*
X81439247Y-41989134D01*
X81535868Y-42056287D01*
X81643693Y-42103395D01*
X81758614Y-42128662D01*
X81876254Y-42131126D01*
X81992133Y-42110694D01*
X82101835Y-42068143D01*
X82201184Y-42005094D01*
X82286395Y-41923949D01*
X82354221Y-41827799D01*
X82402080Y-41720306D01*
X82428149Y-41605564D01*
X82430026Y-41471167D01*
X82423361Y-41437508D01*
X82476108Y-41447276D01*
X84159416Y-41965217D01*
X84101672Y-42049549D01*
X84055318Y-42157700D01*
X84030854Y-42272795D01*
X84029211Y-42390450D01*
X84050452Y-42506183D01*
X84093768Y-42615586D01*
X84157509Y-42714492D01*
X84239247Y-42799134D01*
X84335868Y-42866287D01*
X84443693Y-42913395D01*
X84558614Y-42938662D01*
X84643777Y-42940446D01*
X84112421Y-44343769D01*
X84084305Y-44315455D01*
X83986755Y-44249657D01*
X83878283Y-44204060D01*
X83763021Y-44180400D01*
X83645357Y-44179578D01*
X83529775Y-44201627D01*
X83420677Y-44245705D01*
X83322219Y-44310135D01*
X83238150Y-44392461D01*
X83171672Y-44489549D01*
X83125318Y-44597700D01*
X83100854Y-44712795D01*
X83099828Y-44786234D01*
X82692671Y-44645488D01*
X82685997Y-44643438D01*
X81905997Y-44433438D01*
X81901410Y-44432319D01*
X81171410Y-44272319D01*
X81166440Y-44271361D01*
X80506440Y-44161361D01*
X80505758Y-44161249D01*
X79565758Y-44011249D01*
X79546190Y-44010073D01*
X79526768Y-44012736D01*
X79508239Y-44019137D01*
X79491315Y-44029030D01*
X79476647Y-44042035D01*
X79464797Y-44057651D01*
X79456221Y-44075279D01*
X79451249Y-44094242D01*
X79450000Y-44110000D01*
X79450000Y-46650000D01*
X79451921Y-46669509D01*
X79457612Y-46688268D01*
X79466853Y-46705557D01*
X79479289Y-46720711D01*
X79494443Y-46733147D01*
X79511732Y-46742388D01*
X79534897Y-46748853D01*
X80251080Y-46858270D01*
X80976390Y-47027178D01*
X81683373Y-47206413D01*
X82215161Y-47365338D01*
X82129775Y-47381627D01*
X82020677Y-47425705D01*
X81922219Y-47490135D01*
X81838150Y-47572461D01*
X81771672Y-47669549D01*
X81725318Y-47777700D01*
X81700854Y-47892795D01*
X81699211Y-48010450D01*
X81720452Y-48126183D01*
X81763768Y-48235586D01*
X81809107Y-48305937D01*
X81710677Y-48345705D01*
X81689631Y-48359478D01*
X81690026Y-48331167D01*
X81667171Y-48215742D01*
X81622332Y-48106954D01*
X81557216Y-48008948D01*
X81474305Y-47925455D01*
X81376755Y-47859657D01*
X81268283Y-47814060D01*
X81153021Y-47790400D01*
X81035357Y-47789578D01*
X80919775Y-47811627D01*
X80810677Y-47855705D01*
X80712219Y-47920135D01*
X80628150Y-48002461D01*
X80561672Y-48099549D01*
X80515318Y-48207700D01*
X80490854Y-48322795D01*
X80489211Y-48440450D01*
X80510452Y-48556183D01*
X80553768Y-48665586D01*
X80617509Y-48764492D01*
X80699247Y-48849134D01*
X80795868Y-48916287D01*
X80903693Y-48963395D01*
X81018614Y-48988662D01*
X81136254Y-48991126D01*
X81252133Y-48970694D01*
X81361835Y-48928143D01*
X81389488Y-48910594D01*
X81389211Y-48930450D01*
X81410452Y-49046183D01*
X81453768Y-49155586D01*
X81517509Y-49254492D01*
X81599247Y-49339134D01*
X81695868Y-49406287D01*
X81803693Y-49453395D01*
X81918614Y-49478662D01*
X82001364Y-49480395D01*
X82000854Y-49482795D01*
X81999211Y-49600450D01*
X82020452Y-49716183D01*
X82049973Y-49790745D01*
X81782546Y-50497028D01*
X81036245Y-50206800D01*
X81024254Y-50202986D01*
X80578001Y-50091423D01*
X80582133Y-50090694D01*
X80691835Y-50048143D01*
X80791184Y-49985094D01*
X80876395Y-49903949D01*
X80944221Y-49807799D01*
X80992080Y-49700306D01*
X81018149Y-49585564D01*
X81020026Y-49451167D01*
X80997171Y-49335742D01*
X80952332Y-49226954D01*
X80887216Y-49128948D01*
X80804305Y-49045455D01*
X80706755Y-48979657D01*
X80598283Y-48934060D01*
X80483021Y-48910400D01*
X80365357Y-48909578D01*
X80249775Y-48931627D01*
X80140677Y-48975705D01*
X80111223Y-48994979D01*
X80107216Y-48988948D01*
X80024305Y-48905455D01*
X79926755Y-48839657D01*
X79818283Y-48794060D01*
X79703021Y-48770400D01*
X79585357Y-48769578D01*
X79469775Y-48791627D01*
X79360677Y-48835705D01*
X79262219Y-48900135D01*
X79178150Y-48982461D01*
X79111672Y-49079549D01*
X79065318Y-49187700D01*
X79040854Y-49302795D01*
X79039211Y-49420450D01*
X79060452Y-49536183D01*
X79103768Y-49645586D01*
X79167509Y-49744492D01*
X79223726Y-49802706D01*
X79218429Y-49801713D01*
X79211043Y-49800612D01*
X78903720Y-49766465D01*
X78942080Y-49680306D01*
X78968149Y-49565564D01*
X78970026Y-49431167D01*
X78947171Y-49315742D01*
X78902332Y-49206954D01*
X78837216Y-49108948D01*
X78754305Y-49025455D01*
X78656755Y-48959657D01*
X78548283Y-48914060D01*
X78433021Y-48890400D01*
X78315357Y-48889578D01*
X78199775Y-48911627D01*
X78090677Y-48955705D01*
X78008338Y-49009587D01*
X77994305Y-48995455D01*
X77896755Y-48929657D01*
X77788283Y-48884060D01*
X77673021Y-48860400D01*
X77555357Y-48859578D01*
X77439775Y-48881627D01*
X77330677Y-48925705D01*
X77232219Y-48990135D01*
X77229853Y-48992452D01*
X77136755Y-48929657D01*
X77028283Y-48884060D01*
X76913021Y-48860400D01*
X76795357Y-48859578D01*
X76679775Y-48881627D01*
X76570677Y-48925705D01*
X76472219Y-48990135D01*
X76388150Y-49072461D01*
X76321672Y-49169549D01*
X76275318Y-49277700D01*
X76250854Y-49392795D01*
X76249211Y-49510450D01*
X76270452Y-49626183D01*
X76296992Y-49693215D01*
X76145459Y-49700103D01*
X76136336Y-49700938D01*
X74686336Y-49900938D01*
X74675746Y-49902986D01*
X73675746Y-50152986D01*
X73668377Y-50155132D01*
X72724660Y-50469704D01*
X72754221Y-50427799D01*
X72802080Y-50320306D01*
X72828149Y-50205564D01*
X72830026Y-50071167D01*
X72807171Y-49955742D01*
X72762332Y-49846954D01*
X72697216Y-49748948D01*
X72614305Y-49665455D01*
X72516755Y-49599657D01*
X72408283Y-49554060D01*
X72293021Y-49530400D01*
X72175357Y-49529578D01*
X72119900Y-49540157D01*
X72120026Y-49531167D01*
X72097171Y-49415742D01*
X72070260Y-49350450D01*
X72899211Y-49350450D01*
X72920452Y-49466183D01*
X72963768Y-49575586D01*
X73027509Y-49674492D01*
X73109247Y-49759134D01*
X73205868Y-49826287D01*
X73313693Y-49873395D01*
X73428614Y-49898662D01*
X73546254Y-49901126D01*
X73662133Y-49880694D01*
X73771835Y-49838143D01*
X73871184Y-49775094D01*
X73956395Y-49693949D01*
X74024221Y-49597799D01*
X74072080Y-49490306D01*
X74098149Y-49375564D01*
X74100026Y-49241167D01*
X74077171Y-49125742D01*
X74032332Y-49016954D01*
X73967216Y-48918948D01*
X73884305Y-48835455D01*
X73786755Y-48769657D01*
X73678283Y-48724060D01*
X73563021Y-48700400D01*
X73445357Y-48699578D01*
X73329775Y-48721627D01*
X73220677Y-48765705D01*
X73122219Y-48830135D01*
X73038150Y-48912461D01*
X72971672Y-49009549D01*
X72925318Y-49117700D01*
X72900854Y-49232795D01*
X72899211Y-49350450D01*
X72070260Y-49350450D01*
X72052332Y-49306954D01*
X71987216Y-49208948D01*
X71904305Y-49125455D01*
X71806755Y-49059657D01*
X71698283Y-49014060D01*
X71583021Y-48990400D01*
X71465357Y-48989578D01*
X71349775Y-49011627D01*
X71333591Y-49018166D01*
X71330798Y-49004060D01*
X71371835Y-48988143D01*
X71471184Y-48925094D01*
X71556395Y-48843949D01*
X71557364Y-48842576D01*
X71605868Y-48876287D01*
X71713693Y-48923395D01*
X71828614Y-48948662D01*
X71946254Y-48951126D01*
X72062133Y-48930694D01*
X72171835Y-48888143D01*
X72271184Y-48825094D01*
X72356395Y-48743949D01*
X72424221Y-48647799D01*
X72472080Y-48540306D01*
X72498149Y-48425564D01*
X72500026Y-48291167D01*
X72477171Y-48175742D01*
X72432332Y-48066954D01*
X72367216Y-47968948D01*
X72284305Y-47885455D01*
X72186755Y-47819657D01*
X72078283Y-47774060D01*
X71963021Y-47750400D01*
X71845357Y-47749578D01*
X71729775Y-47771627D01*
X71620677Y-47815705D01*
X71522219Y-47880135D01*
X71443071Y-47957642D01*
X71386755Y-47919657D01*
X71278283Y-47874060D01*
X71163021Y-47850400D01*
X71045357Y-47849578D01*
X70929775Y-47871627D01*
X70820677Y-47915705D01*
X70722219Y-47980135D01*
X70638150Y-48062461D01*
X70571672Y-48159549D01*
X70525318Y-48267700D01*
X70500854Y-48382795D01*
X70499211Y-48500450D01*
X70518643Y-48606326D01*
X70470677Y-48625705D01*
X70372219Y-48690135D01*
X70288150Y-48772461D01*
X70221672Y-48869549D01*
X70175318Y-48977700D01*
X70150854Y-49092795D01*
X70149211Y-49210450D01*
X70170452Y-49326183D01*
X70213768Y-49435586D01*
X70277509Y-49534492D01*
X70359247Y-49619134D01*
X70455868Y-49686287D01*
X70563693Y-49733395D01*
X70678614Y-49758662D01*
X70796254Y-49761126D01*
X70912133Y-49740694D01*
X70935916Y-49731469D01*
X70940452Y-49756183D01*
X70983768Y-49865586D01*
X71013497Y-49911716D01*
X71012716Y-49913996D01*
X70994305Y-49895455D01*
X70896755Y-49829657D01*
X70788283Y-49784060D01*
X70673021Y-49760400D01*
X70555357Y-49759578D01*
X70439775Y-49781627D01*
X70330677Y-49825705D01*
X70232219Y-49890135D01*
X70148150Y-49972461D01*
X70081672Y-50069549D01*
X70035318Y-50177700D01*
X70010854Y-50292795D01*
X70009211Y-50410450D01*
X70030452Y-50526183D01*
X70073768Y-50635586D01*
X70137509Y-50734492D01*
X70219247Y-50819134D01*
X70227943Y-50825178D01*
X69365638Y-51360929D01*
X69331353Y-51368001D01*
X69259415Y-51398322D01*
X69194737Y-51442038D01*
X69139782Y-51497484D01*
X69096642Y-51562548D01*
X69066962Y-51634752D01*
X69065390Y-51640112D01*
X68896827Y-52230081D01*
X68523841Y-52567391D01*
X68544447Y-52476691D01*
X68550077Y-52073501D01*
X68481512Y-51727226D01*
X68360526Y-51433692D01*
X68428614Y-51448662D01*
X68546254Y-51451126D01*
X68662133Y-51430694D01*
X68771835Y-51388143D01*
X68871184Y-51325094D01*
X68956395Y-51243949D01*
X69024221Y-51147799D01*
X69072080Y-51040306D01*
X69098149Y-50925564D01*
X69100026Y-50791167D01*
X69077171Y-50675742D01*
X69032332Y-50566954D01*
X68967216Y-50468948D01*
X68884305Y-50385455D01*
X68786755Y-50319657D01*
X68678283Y-50274060D01*
X68563021Y-50250400D01*
X68445357Y-50249578D01*
X68329775Y-50271627D01*
X68220677Y-50315705D01*
X68122219Y-50380135D01*
X68038150Y-50462461D01*
X67971672Y-50559549D01*
X67925318Y-50667700D01*
X67900854Y-50782795D01*
X67899855Y-50854302D01*
X67610266Y-50658972D01*
X67284850Y-50522179D01*
X66939062Y-50451199D01*
X66586072Y-50448735D01*
X66239326Y-50514880D01*
X65912032Y-50647116D01*
X65616656Y-50840404D01*
X65364449Y-51087384D01*
X65165016Y-51378648D01*
X65025955Y-51703101D01*
X64952563Y-52048385D01*
X64949982Y-52233181D01*
X64928283Y-52224060D01*
X64813021Y-52200400D01*
X64695357Y-52199578D01*
X64579775Y-52221627D01*
X64470677Y-52265705D01*
X64372219Y-52330135D01*
X64288150Y-52412461D01*
X64221672Y-52509549D01*
X64175318Y-52617700D01*
X64150854Y-52732795D01*
X64149211Y-52850450D01*
X64170452Y-52966183D01*
X64213768Y-53075586D01*
X64277509Y-53174492D01*
X64359247Y-53259134D01*
X64455868Y-53326287D01*
X64563693Y-53373395D01*
X64678614Y-53398662D01*
X64796254Y-53401126D01*
X64912133Y-53380694D01*
X65021835Y-53338143D01*
X65121184Y-53275094D01*
X65206395Y-53193949D01*
X65211848Y-53186219D01*
X65332527Y-53373476D01*
X65577740Y-53627401D01*
X65867604Y-53828862D01*
X66191078Y-53970184D01*
X66535842Y-54045986D01*
X66888762Y-54053378D01*
X67068706Y-54021649D01*
X66653809Y-54481166D01*
X66344418Y-54820498D01*
X66326240Y-54844835D01*
X66307021Y-54868358D01*
X66303959Y-54873029D01*
X65483959Y-56143029D01*
X65474888Y-56160641D01*
X65464165Y-56177295D01*
X65461648Y-56182281D01*
X64851648Y-57412281D01*
X64843756Y-57433080D01*
X64834140Y-57453144D01*
X64832266Y-57458405D01*
X64391903Y-58722433D01*
X64047352Y-58877346D01*
X64026405Y-58889347D01*
X64004619Y-58899750D01*
X63992612Y-58908708D01*
X63979615Y-58916154D01*
X63961397Y-58931996D01*
X63942048Y-58946431D01*
X63932011Y-58957549D01*
X63920706Y-58967379D01*
X63905912Y-58986457D01*
X63889734Y-59004377D01*
X63882047Y-59017234D01*
X63872868Y-59029071D01*
X63862060Y-59050662D01*
X63849673Y-59071380D01*
X63844631Y-59085482D01*
X63837924Y-59098880D01*
X63831515Y-59122163D01*
X63823389Y-59144888D01*
X63822068Y-59150315D01*
X63560689Y-60258147D01*
X63558192Y-60276673D01*
X63553820Y-60294849D01*
X63553089Y-60300386D01*
X63353089Y-61900386D01*
X63352501Y-61922465D01*
X63350039Y-61944415D01*
X63350000Y-61950000D01*
X63350000Y-62650000D01*
X61458006Y-62650000D01*
X61468504Y-62630360D01*
X61485659Y-62573810D01*
X61491451Y-62515000D01*
X61491451Y-61715000D01*
X61485659Y-61656190D01*
X61468504Y-61599640D01*
X61440647Y-61547523D01*
X61403158Y-61501842D01*
X61357477Y-61464353D01*
X61305360Y-61436496D01*
X61248810Y-61419341D01*
X61190000Y-61413549D01*
X60390000Y-61413549D01*
X60331190Y-61419341D01*
X60274640Y-61436496D01*
X60222523Y-61464353D01*
X60176842Y-61501842D01*
X60155000Y-61528457D01*
X60133158Y-61501842D01*
X60087477Y-61464353D01*
X60035360Y-61436496D01*
X59978810Y-61419341D01*
X59920000Y-61413549D01*
X59120000Y-61413549D01*
X59061190Y-61419341D01*
X59004640Y-61436496D01*
X58952523Y-61464353D01*
X58906842Y-61501842D01*
X58885000Y-61528457D01*
X58863158Y-61501842D01*
X58817477Y-61464353D01*
X58765360Y-61436496D01*
X58708810Y-61419341D01*
X58650000Y-61413549D01*
X57850000Y-61413549D01*
X57791190Y-61419341D01*
X57734640Y-61436496D01*
X57682523Y-61464353D01*
X57636842Y-61501842D01*
X57615000Y-61528457D01*
X57593158Y-61501842D01*
X57547477Y-61464353D01*
X57495360Y-61436496D01*
X57438810Y-61419341D01*
X57380000Y-61413549D01*
X56935813Y-61413549D01*
X56956395Y-61393949D01*
X57024221Y-61297799D01*
X57072080Y-61190306D01*
X57098149Y-61075564D01*
X57100026Y-60941167D01*
X57077171Y-60825742D01*
X57032332Y-60716954D01*
X56974859Y-60630450D01*
X59669211Y-60630450D01*
X59690452Y-60746183D01*
X59733768Y-60855586D01*
X59797509Y-60954492D01*
X59879247Y-61039134D01*
X59975868Y-61106287D01*
X60083693Y-61153395D01*
X60198614Y-61178662D01*
X60316254Y-61181126D01*
X60432133Y-61160694D01*
X60541835Y-61118143D01*
X60641184Y-61055094D01*
X60726395Y-60973949D01*
X60794221Y-60877799D01*
X60828659Y-60800450D01*
X61149211Y-60800450D01*
X61170452Y-60916183D01*
X61213768Y-61025586D01*
X61277509Y-61124492D01*
X61359247Y-61209134D01*
X61455868Y-61276287D01*
X61563693Y-61323395D01*
X61678614Y-61348662D01*
X61796254Y-61351126D01*
X61912133Y-61330694D01*
X62021835Y-61288143D01*
X62121184Y-61225094D01*
X62206395Y-61143949D01*
X62274221Y-61047799D01*
X62322080Y-60940306D01*
X62348149Y-60825564D01*
X62350026Y-60691167D01*
X62327171Y-60575742D01*
X62282332Y-60466954D01*
X62217216Y-60368948D01*
X62134305Y-60285455D01*
X62036755Y-60219657D01*
X61928283Y-60174060D01*
X61813021Y-60150400D01*
X61695357Y-60149578D01*
X61579775Y-60171627D01*
X61470677Y-60215705D01*
X61372219Y-60280135D01*
X61288150Y-60362461D01*
X61221672Y-60459549D01*
X61175318Y-60567700D01*
X61150854Y-60682795D01*
X61149211Y-60800450D01*
X60828659Y-60800450D01*
X60842080Y-60770306D01*
X60868149Y-60655564D01*
X60870026Y-60521167D01*
X60847171Y-60405742D01*
X60802332Y-60296954D01*
X60737216Y-60198948D01*
X60654305Y-60115455D01*
X60556755Y-60049657D01*
X60448283Y-60004060D01*
X60333021Y-59980400D01*
X60215357Y-59979578D01*
X60099775Y-60001627D01*
X59990677Y-60045705D01*
X59892219Y-60110135D01*
X59808150Y-60192461D01*
X59741672Y-60289549D01*
X59695318Y-60397700D01*
X59670854Y-60512795D01*
X59669211Y-60630450D01*
X56974859Y-60630450D01*
X56967216Y-60618948D01*
X56884305Y-60535455D01*
X56786755Y-60469657D01*
X56678283Y-60424060D01*
X56563021Y-60400400D01*
X56445357Y-60399578D01*
X56329775Y-60421627D01*
X56220677Y-60465705D01*
X56122219Y-60530135D01*
X56038150Y-60612461D01*
X55971672Y-60709549D01*
X55925318Y-60817700D01*
X55900854Y-60932795D01*
X55899211Y-61050450D01*
X55920452Y-61166183D01*
X55963768Y-61275586D01*
X56027509Y-61374492D01*
X56065226Y-61413549D01*
X55409496Y-61413549D01*
X55449701Y-60508936D01*
X55646793Y-59050450D01*
X59019211Y-59050450D01*
X59040452Y-59166183D01*
X59083768Y-59275586D01*
X59147509Y-59374492D01*
X59229247Y-59459134D01*
X59325868Y-59526287D01*
X59433693Y-59573395D01*
X59548614Y-59598662D01*
X59666254Y-59601126D01*
X59782133Y-59580694D01*
X59891835Y-59538143D01*
X59991184Y-59475094D01*
X60076395Y-59393949D01*
X60144221Y-59297799D01*
X60192080Y-59190306D01*
X60218149Y-59075564D01*
X60220026Y-58941167D01*
X60197171Y-58825742D01*
X60152332Y-58716954D01*
X60087216Y-58618948D01*
X60004305Y-58535455D01*
X59906755Y-58469657D01*
X59798283Y-58424060D01*
X59683021Y-58400400D01*
X59565357Y-58399578D01*
X59449775Y-58421627D01*
X59340677Y-58465705D01*
X59242219Y-58530135D01*
X59158150Y-58612461D01*
X59091672Y-58709549D01*
X59045318Y-58817700D01*
X59020854Y-58932795D01*
X59019211Y-59050450D01*
X55646793Y-59050450D01*
X55698479Y-58667978D01*
X55996906Y-57374797D01*
X56107815Y-56980450D01*
X63459211Y-56980450D01*
X63480452Y-57096183D01*
X63523768Y-57205586D01*
X63587509Y-57304492D01*
X63669247Y-57389134D01*
X63765868Y-57456287D01*
X63873693Y-57503395D01*
X63988614Y-57528662D01*
X64106254Y-57531126D01*
X64222133Y-57510694D01*
X64331835Y-57468143D01*
X64431184Y-57405094D01*
X64516395Y-57323949D01*
X64584221Y-57227799D01*
X64632080Y-57120306D01*
X64658149Y-57005564D01*
X64660026Y-56871167D01*
X64637171Y-56755742D01*
X64597143Y-56658627D01*
X64642133Y-56650694D01*
X64751835Y-56608143D01*
X64851184Y-56545094D01*
X64936395Y-56463949D01*
X65004221Y-56367799D01*
X65052080Y-56260306D01*
X65078149Y-56145564D01*
X65080026Y-56011167D01*
X65057171Y-55895742D01*
X65012332Y-55786954D01*
X64947216Y-55688948D01*
X64864305Y-55605455D01*
X64766755Y-55539657D01*
X64658283Y-55494060D01*
X64543021Y-55470400D01*
X64425357Y-55469578D01*
X64309775Y-55491627D01*
X64200677Y-55535705D01*
X64102219Y-55600135D01*
X64018150Y-55682461D01*
X63951672Y-55779549D01*
X63905318Y-55887700D01*
X63880854Y-56002795D01*
X63879211Y-56120450D01*
X63900452Y-56236183D01*
X63942200Y-56341626D01*
X63889775Y-56351627D01*
X63780677Y-56395705D01*
X63682219Y-56460135D01*
X63598150Y-56542461D01*
X63531672Y-56639549D01*
X63485318Y-56747700D01*
X63460854Y-56862795D01*
X63459211Y-56980450D01*
X56107815Y-56980450D01*
X56445119Y-55781148D01*
X56506758Y-55616777D01*
X56537509Y-55664492D01*
X56619247Y-55749134D01*
X56715868Y-55816287D01*
X56823693Y-55863395D01*
X56938614Y-55888662D01*
X57056254Y-55891126D01*
X57172133Y-55870694D01*
X57281835Y-55828143D01*
X57381184Y-55765094D01*
X57466395Y-55683949D01*
X57534221Y-55587799D01*
X57582080Y-55480306D01*
X57608149Y-55365564D01*
X57609058Y-55300450D01*
X59949211Y-55300450D01*
X59970452Y-55416183D01*
X60013768Y-55525586D01*
X60077509Y-55624492D01*
X60159247Y-55709134D01*
X60255868Y-55776287D01*
X60363693Y-55823395D01*
X60478614Y-55848662D01*
X60596254Y-55851126D01*
X60712133Y-55830694D01*
X60821835Y-55788143D01*
X60921184Y-55725094D01*
X61006395Y-55643949D01*
X61074221Y-55547799D01*
X61122080Y-55440306D01*
X61148149Y-55325564D01*
X61150026Y-55191167D01*
X61127171Y-55075742D01*
X61082332Y-54966954D01*
X61017216Y-54868948D01*
X60988917Y-54840450D01*
X63369211Y-54840450D01*
X63390452Y-54956183D01*
X63433768Y-55065586D01*
X63497509Y-55164492D01*
X63579247Y-55249134D01*
X63675868Y-55316287D01*
X63783693Y-55363395D01*
X63898614Y-55388662D01*
X64016254Y-55391126D01*
X64132133Y-55370694D01*
X64241835Y-55328143D01*
X64341184Y-55265094D01*
X64426395Y-55183949D01*
X64494221Y-55087799D01*
X64513740Y-55043958D01*
X64545868Y-55066287D01*
X64653693Y-55113395D01*
X64768614Y-55138662D01*
X64886254Y-55141126D01*
X65002133Y-55120694D01*
X65111835Y-55078143D01*
X65211184Y-55015094D01*
X65296395Y-54933949D01*
X65364221Y-54837799D01*
X65412080Y-54730306D01*
X65438149Y-54615564D01*
X65440026Y-54481167D01*
X65417171Y-54365742D01*
X65372332Y-54256954D01*
X65307216Y-54158948D01*
X65224305Y-54075455D01*
X65126755Y-54009657D01*
X65018283Y-53964060D01*
X64903021Y-53940400D01*
X64785357Y-53939578D01*
X64669775Y-53961627D01*
X64560677Y-54005705D01*
X64462219Y-54070135D01*
X64378150Y-54152461D01*
X64311672Y-54249549D01*
X64295995Y-54286125D01*
X64256755Y-54259657D01*
X64148283Y-54214060D01*
X64033021Y-54190400D01*
X63915357Y-54189578D01*
X63799775Y-54211627D01*
X63690677Y-54255705D01*
X63592219Y-54320135D01*
X63508150Y-54402461D01*
X63441672Y-54499549D01*
X63395318Y-54607700D01*
X63370854Y-54722795D01*
X63369211Y-54840450D01*
X60988917Y-54840450D01*
X60934305Y-54785455D01*
X60836755Y-54719657D01*
X60728283Y-54674060D01*
X60613021Y-54650400D01*
X60495357Y-54649578D01*
X60379775Y-54671627D01*
X60270677Y-54715705D01*
X60172219Y-54780135D01*
X60088150Y-54862461D01*
X60021672Y-54959549D01*
X59975318Y-55067700D01*
X59950854Y-55182795D01*
X59949211Y-55300450D01*
X57609058Y-55300450D01*
X57610026Y-55231167D01*
X57587171Y-55115742D01*
X57542332Y-55006954D01*
X57477216Y-54908948D01*
X57394305Y-54825455D01*
X57296755Y-54759657D01*
X57188283Y-54714060D01*
X57073021Y-54690400D01*
X56955357Y-54689578D01*
X56846684Y-54710309D01*
X56892589Y-54587896D01*
X57489886Y-53243978D01*
X58236569Y-51850170D01*
X59232383Y-50256867D01*
X59583490Y-49794884D01*
X59583768Y-49795586D01*
X59647509Y-49894492D01*
X59729247Y-49979134D01*
X59825868Y-50046287D01*
X59933693Y-50093395D01*
X60048614Y-50118662D01*
X60166254Y-50121126D01*
X60282133Y-50100694D01*
X60391835Y-50058143D01*
X60491184Y-49995094D01*
X60576395Y-49913949D01*
X60644221Y-49817799D01*
X60692080Y-49710306D01*
X60718149Y-49595564D01*
X60720026Y-49461167D01*
X60697171Y-49345742D01*
X60652332Y-49236954D01*
X60587216Y-49138948D01*
X60504305Y-49055455D01*
X60406755Y-48989657D01*
X60298283Y-48944060D01*
X60246961Y-48933525D01*
X61522473Y-47469048D01*
X62765993Y-46275269D01*
X63547016Y-45650450D01*
X64149211Y-45650450D01*
X64170452Y-45766183D01*
X64213768Y-45875586D01*
X64277509Y-45974492D01*
X64359247Y-46059134D01*
X64455868Y-46126287D01*
X64563693Y-46173395D01*
X64678614Y-46198662D01*
X64796254Y-46201126D01*
X64912133Y-46180694D01*
X65021835Y-46138143D01*
X65121184Y-46075094D01*
X65206395Y-45993949D01*
X65274221Y-45897799D01*
X65322080Y-45790306D01*
X65348149Y-45675564D01*
X65350026Y-45541167D01*
X65327171Y-45425742D01*
X65282332Y-45316954D01*
X65217216Y-45218948D01*
X65134305Y-45135455D01*
X65036755Y-45069657D01*
X64928283Y-45024060D01*
X64813021Y-45000400D01*
X64695357Y-44999578D01*
X64579775Y-45021627D01*
X64470677Y-45065705D01*
X64372219Y-45130135D01*
X64288150Y-45212461D01*
X64221672Y-45309549D01*
X64175318Y-45417700D01*
X64150854Y-45532795D01*
X64149211Y-45650450D01*
X63547016Y-45650450D01*
X64009825Y-45280203D01*
X65802614Y-44035210D01*
X67444693Y-43139531D01*
X68995774Y-42434494D01*
X68854412Y-43096325D01*
X67806889Y-43602332D01*
X67799009Y-43607139D01*
X67790514Y-43610744D01*
X67785934Y-43613282D01*
X67671560Y-43677718D01*
X67661708Y-43684615D01*
X67651026Y-43690168D01*
X67631779Y-43705569D01*
X67611605Y-43719693D01*
X67603279Y-43728374D01*
X67593881Y-43735894D01*
X67577999Y-43754731D01*
X67560946Y-43772512D01*
X67554461Y-43782651D01*
X67546707Y-43791848D01*
X67534789Y-43813406D01*
X67521510Y-43834167D01*
X67517119Y-43845370D01*
X67511298Y-43855899D01*
X67509258Y-43860721D01*
X67200657Y-44604483D01*
X67128283Y-44574060D01*
X67013021Y-44550400D01*
X66895357Y-44549578D01*
X66779775Y-44571627D01*
X66670677Y-44615705D01*
X66572219Y-44680135D01*
X66488150Y-44762461D01*
X66421672Y-44859549D01*
X66375318Y-44967700D01*
X66350854Y-45082795D01*
X66349211Y-45200450D01*
X66370452Y-45316183D01*
X66413768Y-45425586D01*
X66477509Y-45524492D01*
X66559247Y-45609134D01*
X66655868Y-45676287D01*
X66763693Y-45723395D01*
X66878614Y-45748662D01*
X66996254Y-45751126D01*
X67112133Y-45730694D01*
X67221835Y-45688143D01*
X67321184Y-45625094D01*
X67406395Y-45543949D01*
X67472420Y-45450352D01*
X67801069Y-46010990D01*
X67790270Y-46057789D01*
X67770677Y-46065705D01*
X67672219Y-46130135D01*
X67588150Y-46212461D01*
X67521672Y-46309549D01*
X67475318Y-46417700D01*
X67450854Y-46532795D01*
X67449211Y-46650450D01*
X67470452Y-46766183D01*
X67513768Y-46875586D01*
X67572501Y-46966720D01*
X66563043Y-46552584D01*
X66558887Y-46551337D01*
X66555007Y-46549395D01*
X66523882Y-46540830D01*
X66492944Y-46531545D01*
X66488623Y-46531128D01*
X66484442Y-46529978D01*
X66452256Y-46527622D01*
X66420096Y-46524522D01*
X66415777Y-46524953D01*
X66411450Y-46524636D01*
X66379384Y-46528582D01*
X66347269Y-46531784D01*
X66343122Y-46533044D01*
X66338811Y-46533574D01*
X66308114Y-46543675D01*
X66277240Y-46553052D01*
X66273415Y-46555094D01*
X66269291Y-46556451D01*
X66241162Y-46572311D01*
X66212676Y-46587517D01*
X66209316Y-46590266D01*
X66205539Y-46592396D01*
X66201271Y-46595430D01*
X65642984Y-46998298D01*
X65648149Y-46975564D01*
X65650026Y-46841167D01*
X65627171Y-46725742D01*
X65582332Y-46616954D01*
X65517216Y-46518948D01*
X65434305Y-46435455D01*
X65336755Y-46369657D01*
X65228283Y-46324060D01*
X65113021Y-46300400D01*
X64995357Y-46299578D01*
X64879775Y-46321627D01*
X64770677Y-46365705D01*
X64672219Y-46430135D01*
X64588150Y-46512461D01*
X64521672Y-46609549D01*
X64475318Y-46717700D01*
X64450854Y-46832795D01*
X64449626Y-46920702D01*
X63405953Y-47815279D01*
X63381275Y-47841014D01*
X63356420Y-47866685D01*
X63355926Y-47867449D01*
X63355298Y-47868104D01*
X63336101Y-47898124D01*
X63316693Y-47928152D01*
X63316356Y-47928999D01*
X63315869Y-47929761D01*
X63302891Y-47962879D01*
X63289662Y-47996165D01*
X63289496Y-47997061D01*
X63289166Y-47997904D01*
X63282843Y-48033048D01*
X63276357Y-48068132D01*
X63276368Y-48069037D01*
X63276207Y-48069934D01*
X63276833Y-48105749D01*
X63277283Y-48141313D01*
X63277484Y-48143022D01*
X63277486Y-48143110D01*
X63277505Y-48143200D01*
X63277896Y-48146513D01*
X63355965Y-48771063D01*
X62950562Y-49200313D01*
X62845357Y-49199578D01*
X62729775Y-49221627D01*
X62620677Y-49265705D01*
X62522219Y-49330135D01*
X62438150Y-49412461D01*
X62371672Y-49509549D01*
X62325318Y-49617700D01*
X62300854Y-49732795D01*
X62299211Y-49850450D01*
X62320452Y-49966183D01*
X62363768Y-50075586D01*
X62427509Y-50174492D01*
X62509247Y-50259134D01*
X62605868Y-50326287D01*
X62713693Y-50373395D01*
X62828614Y-50398662D01*
X62946254Y-50401126D01*
X63062133Y-50380694D01*
X63171835Y-50338143D01*
X63271184Y-50275094D01*
X63356395Y-50193949D01*
X63424221Y-50097799D01*
X63447598Y-50045294D01*
X63509247Y-50109134D01*
X63605868Y-50176287D01*
X63713693Y-50223395D01*
X63828614Y-50248662D01*
X63946254Y-50251126D01*
X64062133Y-50230694D01*
X64171835Y-50188143D01*
X64271184Y-50125094D01*
X64342127Y-50057536D01*
X64573282Y-50074047D01*
X64579643Y-50073879D01*
X64585944Y-50074736D01*
X64616162Y-50072913D01*
X64646444Y-50072113D01*
X64652649Y-50070713D01*
X64658998Y-50070330D01*
X64688305Y-50062668D01*
X64717836Y-50056005D01*
X64723647Y-50053428D01*
X64729806Y-50051818D01*
X64757063Y-50038610D01*
X64784741Y-50026337D01*
X64789947Y-50022676D01*
X64795668Y-50019904D01*
X64819823Y-50001668D01*
X64844608Y-49984239D01*
X64849003Y-49979637D01*
X64854078Y-49975806D01*
X64857904Y-49972232D01*
X65807904Y-49072232D01*
X65812503Y-49066931D01*
X65816111Y-49063905D01*
X65905868Y-49126287D01*
X66013693Y-49173395D01*
X66128614Y-49198662D01*
X66246254Y-49201126D01*
X66362133Y-49180694D01*
X66471835Y-49138143D01*
X66571184Y-49075094D01*
X66656395Y-48993949D01*
X66724221Y-48897799D01*
X66772080Y-48790306D01*
X66798149Y-48675564D01*
X66800026Y-48541167D01*
X66777171Y-48425742D01*
X66732332Y-48316954D01*
X66667216Y-48218948D01*
X66584305Y-48135455D01*
X66486755Y-48069657D01*
X66378283Y-48024060D01*
X66300506Y-48008095D01*
X66582029Y-47825933D01*
X67945655Y-48441764D01*
X67959359Y-48446404D01*
X67972419Y-48452630D01*
X67993945Y-48458113D01*
X68014977Y-48465234D01*
X68029313Y-48467123D01*
X68043341Y-48470696D01*
X68065524Y-48471893D01*
X68087536Y-48474793D01*
X68101975Y-48473860D01*
X68116423Y-48474640D01*
X68138412Y-48471507D01*
X68160572Y-48470075D01*
X68174553Y-48466356D01*
X68188877Y-48464315D01*
X68209837Y-48456971D01*
X68231300Y-48451262D01*
X68244292Y-48444899D01*
X68257947Y-48440114D01*
X68262681Y-48437876D01*
X69607071Y-47790577D01*
X71278524Y-47053171D01*
X72502747Y-46697751D01*
X72513768Y-46725586D01*
X72577509Y-46824492D01*
X72659247Y-46909134D01*
X72755868Y-46976287D01*
X72853773Y-47019061D01*
X72850854Y-47032795D01*
X72849211Y-47150450D01*
X72870452Y-47266183D01*
X72913768Y-47375586D01*
X72977509Y-47474492D01*
X73059247Y-47559134D01*
X73155868Y-47626287D01*
X73263693Y-47673395D01*
X73378614Y-47698662D01*
X73496254Y-47701126D01*
X73612133Y-47680694D01*
X73721835Y-47638143D01*
X73821184Y-47575094D01*
X73906395Y-47493949D01*
X73974221Y-47397799D01*
X74022080Y-47290306D01*
X74048149Y-47175564D01*
X74050026Y-47041167D01*
X74027171Y-46925742D01*
X73982332Y-46816954D01*
X73917216Y-46718948D01*
X73834305Y-46635455D01*
X73736755Y-46569657D01*
X73646729Y-46531814D01*
X73648149Y-46525564D01*
X73650026Y-46391167D01*
X73627171Y-46275742D01*
X73582332Y-46166954D01*
X73517216Y-46068948D01*
X73434305Y-45985455D01*
X73336755Y-45919657D01*
X73228283Y-45874060D01*
X73113021Y-45850400D01*
X72995357Y-45849578D01*
X72879775Y-45871627D01*
X72821147Y-45895314D01*
X72819268Y-45894472D01*
X72818201Y-45894227D01*
X72817193Y-45893782D01*
X72782519Y-45886025D01*
X72747941Y-45878077D01*
X72746842Y-45878044D01*
X72745771Y-45877804D01*
X72710262Y-45876929D01*
X72674787Y-45875849D01*
X72673706Y-45876029D01*
X72672606Y-45876002D01*
X72637676Y-45882029D01*
X72602594Y-45887871D01*
X72601561Y-45888260D01*
X72600485Y-45888446D01*
X72595446Y-45889870D01*
X71045446Y-46339870D01*
X71024726Y-46348153D01*
X71003440Y-46354826D01*
X70998635Y-46356906D01*
X70784193Y-46451513D01*
X70930882Y-46176471D01*
X70939945Y-46154561D01*
X70950502Y-46133317D01*
X70953906Y-46120810D01*
X70958857Y-46108841D01*
X70963491Y-46085592D01*
X70969722Y-46062699D01*
X70970631Y-46049771D01*
X70973164Y-46037066D01*
X70973194Y-46013348D01*
X70974858Y-45989692D01*
X70973240Y-45976837D01*
X70973256Y-45963878D01*
X70968679Y-45940606D01*
X70965717Y-45917078D01*
X70961633Y-45904785D01*
X70959132Y-45892067D01*
X70950118Y-45870120D01*
X70942645Y-45847623D01*
X70940485Y-45842853D01*
X70837105Y-45618862D01*
X70872080Y-45540306D01*
X70898149Y-45425564D01*
X70900026Y-45291167D01*
X70877171Y-45175742D01*
X70832332Y-45066954D01*
X70767216Y-44968948D01*
X70684305Y-44885455D01*
X70586755Y-44819657D01*
X70478283Y-44774060D01*
X70363021Y-44750400D01*
X70245357Y-44749578D01*
X70129775Y-44771627D01*
X70020677Y-44815705D01*
X69922219Y-44880135D01*
X69838150Y-44962461D01*
X69771672Y-45059549D01*
X69725318Y-45167700D01*
X69700854Y-45282795D01*
X69699211Y-45400450D01*
X69720452Y-45516183D01*
X69763768Y-45625586D01*
X69827070Y-45723811D01*
X69713021Y-45700400D01*
X69595357Y-45699578D01*
X69479775Y-45721627D01*
X69370677Y-45765705D01*
X69272219Y-45830135D01*
X69223274Y-45878065D01*
X69217216Y-45868948D01*
X69134305Y-45785455D01*
X69036755Y-45719657D01*
X68928283Y-45674060D01*
X68813021Y-45650400D01*
X68695357Y-45649578D01*
X68579775Y-45671627D01*
X68492233Y-45706996D01*
X67943556Y-44771018D01*
X68138803Y-44300450D01*
X75149211Y-44300450D01*
X75170452Y-44416183D01*
X75213768Y-44525586D01*
X75277509Y-44624492D01*
X75359247Y-44709134D01*
X75418154Y-44750075D01*
X75372219Y-44780135D01*
X75288150Y-44862461D01*
X75221672Y-44959549D01*
X75175318Y-45067700D01*
X75150854Y-45182795D01*
X75149211Y-45300450D01*
X75170452Y-45416183D01*
X75213768Y-45525586D01*
X75277509Y-45624492D01*
X75359247Y-45709134D01*
X75418154Y-45750075D01*
X75372219Y-45780135D01*
X75288150Y-45862461D01*
X75221672Y-45959549D01*
X75175318Y-46067700D01*
X75150854Y-46182795D01*
X75149211Y-46300450D01*
X75170452Y-46416183D01*
X75213768Y-46525586D01*
X75277509Y-46624492D01*
X75359247Y-46709134D01*
X75418154Y-46750075D01*
X75372219Y-46780135D01*
X75288150Y-46862461D01*
X75221672Y-46959549D01*
X75175318Y-47067700D01*
X75150854Y-47182795D01*
X75149211Y-47300450D01*
X75170452Y-47416183D01*
X75213768Y-47525586D01*
X75277509Y-47624492D01*
X75359247Y-47709134D01*
X75455868Y-47776287D01*
X75563693Y-47823395D01*
X75678614Y-47848662D01*
X75796254Y-47851126D01*
X75912133Y-47830694D01*
X76021835Y-47788143D01*
X76121184Y-47725094D01*
X76206395Y-47643949D01*
X76250110Y-47581978D01*
X76277509Y-47624492D01*
X76359247Y-47709134D01*
X76455868Y-47776287D01*
X76563693Y-47823395D01*
X76678614Y-47848662D01*
X76796254Y-47851126D01*
X76912133Y-47830694D01*
X77021835Y-47788143D01*
X77121184Y-47725094D01*
X77206395Y-47643949D01*
X77250110Y-47581978D01*
X77277509Y-47624492D01*
X77359247Y-47709134D01*
X77455868Y-47776287D01*
X77563693Y-47823395D01*
X77678614Y-47848662D01*
X77796254Y-47851126D01*
X77912133Y-47830694D01*
X78021835Y-47788143D01*
X78121184Y-47725094D01*
X78206395Y-47643949D01*
X78250110Y-47581978D01*
X78277509Y-47624492D01*
X78359247Y-47709134D01*
X78455868Y-47776287D01*
X78563693Y-47823395D01*
X78678614Y-47848662D01*
X78796254Y-47851126D01*
X78912133Y-47830694D01*
X79021835Y-47788143D01*
X79121184Y-47725094D01*
X79206395Y-47643949D01*
X79274221Y-47547799D01*
X79322080Y-47440306D01*
X79348149Y-47325564D01*
X79350026Y-47191167D01*
X79327171Y-47075742D01*
X79282332Y-46966954D01*
X79217216Y-46868948D01*
X79134305Y-46785455D01*
X79081837Y-46750065D01*
X79121184Y-46725094D01*
X79206395Y-46643949D01*
X79274221Y-46547799D01*
X79322080Y-46440306D01*
X79348149Y-46325564D01*
X79350026Y-46191167D01*
X79327171Y-46075742D01*
X79282332Y-45966954D01*
X79217216Y-45868948D01*
X79134305Y-45785455D01*
X79081837Y-45750065D01*
X79121184Y-45725094D01*
X79206395Y-45643949D01*
X79274221Y-45547799D01*
X79322080Y-45440306D01*
X79348149Y-45325564D01*
X79350026Y-45191167D01*
X79327171Y-45075742D01*
X79282332Y-44966954D01*
X79217216Y-44868948D01*
X79134305Y-44785455D01*
X79081837Y-44750065D01*
X79121184Y-44725094D01*
X79206395Y-44643949D01*
X79274221Y-44547799D01*
X79322080Y-44440306D01*
X79348149Y-44325564D01*
X79350026Y-44191167D01*
X79327171Y-44075742D01*
X79282332Y-43966954D01*
X79217216Y-43868948D01*
X79134305Y-43785455D01*
X79036755Y-43719657D01*
X78928283Y-43674060D01*
X78813021Y-43650400D01*
X78695357Y-43649578D01*
X78579775Y-43671627D01*
X78470677Y-43715705D01*
X78372219Y-43780135D01*
X78288150Y-43862461D01*
X78249962Y-43918233D01*
X78217216Y-43868948D01*
X78134305Y-43785455D01*
X78036755Y-43719657D01*
X77928283Y-43674060D01*
X77813021Y-43650400D01*
X77695357Y-43649578D01*
X77579775Y-43671627D01*
X77470677Y-43715705D01*
X77372219Y-43780135D01*
X77288150Y-43862461D01*
X77249962Y-43918233D01*
X77217216Y-43868948D01*
X77134305Y-43785455D01*
X77036755Y-43719657D01*
X76928283Y-43674060D01*
X76813021Y-43650400D01*
X76695357Y-43649578D01*
X76579775Y-43671627D01*
X76470677Y-43715705D01*
X76372219Y-43780135D01*
X76288150Y-43862461D01*
X76249962Y-43918233D01*
X76217216Y-43868948D01*
X76134305Y-43785455D01*
X76036755Y-43719657D01*
X75928283Y-43674060D01*
X75813021Y-43650400D01*
X75695357Y-43649578D01*
X75579775Y-43671627D01*
X75470677Y-43715705D01*
X75372219Y-43780135D01*
X75288150Y-43862461D01*
X75221672Y-43959549D01*
X75175318Y-44067700D01*
X75150854Y-44182795D01*
X75149211Y-44300450D01*
X68138803Y-44300450D01*
X68152052Y-44268519D01*
X69300024Y-43713990D01*
X69318595Y-43706732D01*
X69345456Y-43693077D01*
X69409247Y-43759134D01*
X69505868Y-43826287D01*
X69613693Y-43873395D01*
X69728614Y-43898662D01*
X69846254Y-43901126D01*
X69962133Y-43880694D01*
X70071835Y-43838143D01*
X70171184Y-43775094D01*
X70256395Y-43693949D01*
X70324221Y-43597799D01*
X70372080Y-43490306D01*
X70398149Y-43375564D01*
X70400026Y-43241167D01*
X70377171Y-43125742D01*
X70332332Y-43016954D01*
X70267216Y-42918948D01*
X70184305Y-42835455D01*
X70086755Y-42769657D01*
X69978283Y-42724060D01*
X69863021Y-42700400D01*
X69745357Y-42699578D01*
X69704403Y-42707391D01*
X69740223Y-42539685D01*
X71714392Y-41953156D01*
X73477341Y-41559201D01*
X74718172Y-41383137D01*
X75665675Y-42699115D01*
X75683900Y-42719821D01*
X75701096Y-42741372D01*
X75708028Y-42747233D01*
X75714030Y-42754052D01*
X75735929Y-42770823D01*
X75756984Y-42788625D01*
X75764924Y-42793029D01*
X75772135Y-42798551D01*
X75796872Y-42810748D01*
X75820987Y-42824122D01*
X75829634Y-42826900D01*
X75837778Y-42830916D01*
X75864412Y-42838076D01*
X75890665Y-42846512D01*
X75899681Y-42847557D01*
X75908455Y-42849916D01*
X75935982Y-42851766D01*
X75963365Y-42854941D01*
X75968601Y-42854997D01*
X78648601Y-42864997D01*
X78658517Y-42864062D01*
X78668475Y-42864545D01*
X78694902Y-42860631D01*
X78721465Y-42858127D01*
X78731008Y-42855285D01*
X78740872Y-42853824D01*
X78766028Y-42844854D01*
X78791607Y-42837236D01*
X78800422Y-42832591D01*
X78809809Y-42829244D01*
X78824547Y-42820450D01*
X80999211Y-42820450D01*
X81020452Y-42936183D01*
X81063768Y-43045586D01*
X81127509Y-43144492D01*
X81209247Y-43229134D01*
X81305868Y-43296287D01*
X81413693Y-43343395D01*
X81528614Y-43368662D01*
X81646254Y-43371126D01*
X81762133Y-43350694D01*
X81871835Y-43308143D01*
X81971184Y-43245094D01*
X82056395Y-43163949D01*
X82124221Y-43067799D01*
X82172080Y-42960306D01*
X82198149Y-42845564D01*
X82200026Y-42711167D01*
X82177171Y-42595742D01*
X82132332Y-42486954D01*
X82067216Y-42388948D01*
X81984305Y-42305455D01*
X81886755Y-42239657D01*
X81778283Y-42194060D01*
X81663021Y-42170400D01*
X81545357Y-42169578D01*
X81429775Y-42191627D01*
X81320677Y-42235705D01*
X81222219Y-42300135D01*
X81138150Y-42382461D01*
X81071672Y-42479549D01*
X81025318Y-42587700D01*
X81000854Y-42702795D01*
X80999211Y-42820450D01*
X78824547Y-42820450D01*
X78832739Y-42815562D01*
X78856355Y-42803117D01*
X78864102Y-42796847D01*
X78872657Y-42791742D01*
X78892481Y-42773878D01*
X78913244Y-42757073D01*
X78919627Y-42749415D01*
X78927026Y-42742748D01*
X78930528Y-42738855D01*
X79169457Y-42469517D01*
X79246254Y-42471126D01*
X79362133Y-42450694D01*
X79471835Y-42408143D01*
X79571184Y-42345094D01*
X79656395Y-42263949D01*
X79724221Y-42167799D01*
X79772080Y-42060306D01*
X79798149Y-41945564D01*
X79800026Y-41811167D01*
X79777171Y-41695742D01*
X79732332Y-41586954D01*
X79667216Y-41488948D01*
X79584305Y-41405455D01*
X79486755Y-41339657D01*
X79378283Y-41294060D01*
X79263021Y-41270400D01*
X79145357Y-41269578D01*
X79029775Y-41291627D01*
X78932986Y-41330732D01*
X78942080Y-41310306D01*
X78968149Y-41195564D01*
X78970026Y-41061167D01*
X78947171Y-40945742D01*
X78934808Y-40915747D01*
X79937617Y-40999315D01*
M02*
