M48
;DRILL file {KiCad (2016-05-05 BZR 6775)-product} date 2016 June 06, Monday 00:03:01
;FORMAT={-:-/ absolute / metric / decimal}
FMAT,2
METRIC,TZ
T1C0.300
T2C0.500
T3C1.000
T4C1.200
%
G90
G05
M71
T1
X56.5Y-61.
X57.01Y-55.29
X59.62Y-59.
X59.7Y-54.95
X60.12Y-49.52
X60.27Y-60.58
X60.55Y-55.25
X61.1Y-50.4
X61.5Y-68.5
X61.75Y-60.75
X62.14Y-64.26
X62.41Y-58.24
X62.9Y-49.8
X63.Y-64.25
X63.2Y-56.51
X63.65Y-57.78
X63.9Y-49.65
X63.97Y-54.79
X64.06Y-56.93
X64.45Y-48.85
X64.48Y-56.07
X64.75Y-45.6
X64.75Y-52.8
X64.84Y-54.54
X65.Y-48.2
X65.05Y-46.9
X66.2Y-48.6
X66.95Y-45.15
X68.05Y-46.6
X68.5Y-50.85
X68.75Y-46.25
X69.35Y-51.05
X69.65Y-46.3
X69.8Y-43.3
X70.3Y-45.35
X70.61Y-50.36
X70.75Y-49.16
X71.1Y-48.45
X71.52Y-49.59
X71.9Y-48.35
X72.23Y-50.13
X72.65Y-42.65
X73.05Y-46.45
X73.45Y-47.1
X73.5Y-49.3
X75.75Y-44.25
X75.75Y-45.25
X75.75Y-46.25
X75.75Y-47.25
X76.Y-49.52
X76.44Y-41.82
X76.75Y-44.25
X76.75Y-45.25
X76.75Y-46.25
X76.75Y-47.25
X76.85Y-49.46
X77.61Y-49.46
X77.75Y-44.25
X77.75Y-45.25
X77.75Y-46.25
X77.75Y-47.25
X78.36Y-41.89
X78.37Y-41.12
X78.37Y-49.49
X78.75Y-44.25
X78.75Y-45.25
X78.75Y-46.25
X78.75Y-47.25
X79.2Y-41.87
X79.64Y-49.37
X80.08Y-42.03
X80.42Y-49.51
X81.09Y-48.39
X81.6Y-42.77
X81.83Y-41.53
X81.99Y-48.88
X82.3Y-47.96
X82.6Y-49.55
X83.7Y-44.78
X84.63Y-42.34
X85.72Y-52.38
T2
X55.71Y-62.115
X55.71Y-63.385
X56.98Y-62.115
X56.98Y-63.385
X58.25Y-62.115
X58.25Y-63.385
X59.52Y-62.115
X59.52Y-63.385
X60.79Y-62.115
X60.79Y-63.385
T3
X66.75Y-52.25
T4
X71.126Y-52.524G85X67.024Y-56.626
G05
X67.024Y-68.874G85X71.126Y-72.976
G05
T0
M30
