M48
;DRILL file {KiCad 4.0.1-stable} date 2016 January 15, Friday 23:21:29
;FORMAT={-:-/ absolute / metric / decimal}
FMAT,2
METRIC,TZ
T1C0.300
T2C0.500
T3C1.000
T4C1.200
%
G90
G05
M71
T1
X1.72Y-17.15
X1.75Y-21.
X2.26Y-15.29
X3.77Y-17.33
X4.41Y-11.1
X4.87Y-19.
X5.25Y-17.07
X5.37Y-9.52
X5.52Y-20.58
X5.55Y-15.27
X6.58Y-8.04
X6.75Y-28.5
X7.Y-20.75
X7.39Y-24.26
X7.66Y-18.24
X7.73Y-10.242
X8.25Y-24.25
X8.45Y-16.51
X8.5Y-8.06
X8.9Y-17.78
X9.22Y-14.79
X9.31Y-16.93
X9.36Y-8.2
X9.73Y-16.07
X9.81Y-6.29
X10.09Y-14.54
X10.36Y-6.84
X10.85Y-7.46
X12.18Y-4.94
X12.3Y-7.27
X12.8Y-10.38
X13.31Y-6.76
X13.51Y-10.94
X14.14Y-6.29
X14.25Y-11.2
X15.17Y-10.7
X15.23Y-3.79
X15.86Y-10.36
X16.Y-9.16
X16.45Y-8.47
X16.77Y-9.59
X17.39Y-8.21
X17.48Y-10.13
X18.02Y-2.63
X18.53Y-6.73
X18.76Y-9.22
X21.Y-4.25
X21.Y-5.25
X21.Y-6.25
X21.Y-7.25
X21.25Y-9.52
X21.69Y-1.82
X22.Y-4.25
X22.Y-5.25
X22.Y-6.25
X22.Y-7.25
X22.1Y-9.46
X22.86Y-9.46
X23.Y-4.25
X23.Y-5.25
X23.Y-6.25
X23.Y-7.25
X23.61Y-1.89
X23.62Y-1.12
X23.62Y-9.49
X24.Y-4.25
X24.Y-5.25
X24.Y-6.25
X24.Y-7.25
X24.45Y-1.87
X24.89Y-9.37
X25.33Y-2.03
X25.67Y-9.51
X26.6Y-7.46
X26.85Y-2.77
X27.08Y-1.53
X27.24Y-8.88
X27.55Y-7.96
X27.85Y-9.55
X28.96Y-4.7
X29.88Y-2.34
X30.97Y-12.38
T2
X0.96Y-22.115
X0.96Y-23.385
X2.23Y-22.115
X2.23Y-23.385
X3.5Y-22.115
X3.5Y-23.385
X4.77Y-22.115
X4.77Y-23.385
X6.04Y-22.115
X6.04Y-23.385
T3
X12.Y-12.25
T4
X15.669Y-13.231G85X12.981Y-15.919
G05
X12.981Y-29.581G85X15.669Y-32.269
G05
T0
M30
