G04 #@! TF.FileFunction,Profile,NP*
%FSLAX46Y46*%
G04 Gerber Fmt 4.6, Leading zero omitted, Abs format (unit mm)*
G04 Created by KiCad (PCBNEW 4.0.1-stable) date 2016 January 15, Friday 14:51:16*
%MOMM*%
G01*
G04 APERTURE LIST*
%ADD10C,0.020000*%
%ADD11C,0.050000*%
G04 APERTURE END LIST*
D10*
D11*
X34500000Y-5750000D02*
G75*
G03X34500000Y-5750000I-500000J0D01*
G01*
X37500000Y-36250000D02*
G75*
G03X37500000Y-36250000I-500000J0D01*
G01*
X7500000Y-30750000D02*
G75*
G03X7500000Y-30750000I-500000J0D01*
G01*
X36050000Y-28350000D02*
X36050000Y-33650000D01*
X34850000Y-33650000D02*
X34850000Y-27750000D01*
X36050000Y-17150000D02*
X36050000Y-11850000D01*
X34850000Y-11850000D02*
X34850000Y-17750000D01*
X31150000Y-13700000D02*
X30650000Y-13250000D01*
X31700000Y-14300000D02*
X31150000Y-13700000D01*
X31850000Y-14400000D02*
X31700000Y-14300000D01*
X32000000Y-14450000D02*
X31850000Y-14400000D01*
X32050000Y-14450000D02*
X32000000Y-14450000D01*
X31600000Y-31350000D02*
X30650000Y-32250000D01*
X31850000Y-31100000D02*
X31600000Y-31350000D01*
X32000000Y-31050000D02*
X31850000Y-31100000D01*
X32050000Y-31050000D02*
X32000000Y-31050000D01*
X32650000Y-31650000D02*
G75*
G03X32050000Y-31050000I-600000J0D01*
G01*
X32650000Y-31650000D02*
G75*
G03X33250000Y-32250000I600000J0D01*
G01*
X32050000Y-14450000D02*
G75*
G03X32650000Y-13850000I0J600000D01*
G01*
X33250000Y-13250000D02*
G75*
G03X32650000Y-13850000I0J-600000D01*
G01*
X30500000Y-32350000D02*
X30650000Y-32250000D01*
X33850000Y-26750000D02*
X33850000Y-31650000D01*
X33850000Y-13850000D02*
X33850000Y-18750000D01*
X33850000Y-13850000D02*
G75*
G03X33250000Y-13250000I-600000J0D01*
G01*
X33250000Y-32250000D02*
G75*
G03X33850000Y-31650000I0J600000D01*
G01*
X36800000Y-23850000D02*
X36800000Y-25550000D01*
X37800000Y-25750000D02*
X37800000Y-23850000D01*
X37800000Y-19750000D02*
X37800000Y-21650000D01*
X36800000Y-21650000D02*
X36800000Y-19950000D01*
X37800000Y-23850000D02*
G75*
G03X37300000Y-23350000I-500000J0D01*
G01*
X37300000Y-23350000D02*
G75*
G03X36800000Y-23850000I0J-500000D01*
G01*
X37300000Y-22150000D02*
G75*
G03X37800000Y-21650000I0J500000D01*
G01*
X36800000Y-21650000D02*
G75*
G03X37300000Y-22150000I500000J0D01*
G01*
X35600000Y-19950000D02*
X35600000Y-25550000D01*
X36050000Y-28350000D02*
X36400000Y-28350000D01*
X35450000Y-27150000D02*
X36400000Y-27150000D01*
X35450000Y-18350000D02*
X36400000Y-18350000D01*
X36050000Y-17150000D02*
X36400000Y-17150000D01*
X39000000Y-19750000D02*
X39000000Y-25750000D01*
X39000000Y-19750000D02*
G75*
G03X36400000Y-17150000I-2600000J0D01*
G01*
X36400000Y-28350000D02*
G75*
G03X39000000Y-25750000I0J2600000D01*
G01*
X36400000Y-27150000D02*
G75*
G03X37800000Y-25750000I0J1400000D01*
G01*
X37800000Y-19750000D02*
G75*
G03X36400000Y-18350000I-1400000J0D01*
G01*
X35450000Y-34250000D02*
G75*
G03X36050000Y-33650000I0J600000D01*
G01*
X34850000Y-33650000D02*
G75*
G03X35450000Y-34250000I600000J0D01*
G01*
X35450000Y-27150000D02*
G75*
G03X34850000Y-27750000I0J-600000D01*
G01*
X36050000Y-11850000D02*
G75*
G03X35450000Y-11250000I-600000J0D01*
G01*
X35450000Y-11250000D02*
G75*
G03X34850000Y-11850000I0J-600000D01*
G01*
X34850000Y-17750000D02*
G75*
G03X35450000Y-18350000I600000J0D01*
G01*
X36200000Y-26150000D02*
G75*
G03X36800000Y-25550000I0J600000D01*
G01*
X35600000Y-25550000D02*
G75*
G03X36200000Y-26150000I600000J0D01*
G01*
X36800000Y-19950000D02*
G75*
G03X36200000Y-19350000I-600000J0D01*
G01*
X36200000Y-19350000D02*
G75*
G03X35600000Y-19950000I0J-600000D01*
G01*
X14125000Y-14375000D02*
X15950000Y-12100000D01*
X11850000Y-16200000D02*
X14125000Y-14375000D01*
X14125000Y-31125000D02*
X11850000Y-29300000D01*
X15950000Y-33400000D02*
X14125000Y-31125000D01*
X10025000Y-21950000D02*
X10000000Y-22750000D01*
X10075000Y-21375000D02*
X10025000Y-21950000D01*
X10225000Y-20375000D02*
X10075000Y-21375000D01*
X10500000Y-19250000D02*
X10225000Y-20375000D01*
X10750000Y-18475000D02*
X10500000Y-19250000D01*
X11100000Y-17600000D02*
X10750000Y-18475000D01*
X11475000Y-16850000D02*
X11100000Y-17600000D01*
X11850000Y-16200000D02*
X11475000Y-16850000D01*
X16650000Y-11700000D02*
X15950000Y-12100000D01*
X17525000Y-11275000D02*
X16650000Y-11700000D01*
X18575000Y-10875000D02*
X17525000Y-11275000D01*
X19650000Y-10575000D02*
X18575000Y-10875000D01*
X20725000Y-10375000D02*
X19650000Y-10575000D01*
X21725000Y-10275000D02*
X20725000Y-10375000D01*
X22500000Y-10250000D02*
X21725000Y-10275000D01*
X10025000Y-23575000D02*
X10000000Y-22750000D01*
X10125000Y-24525000D02*
X10025000Y-23575000D01*
X10300000Y-25475000D02*
X10125000Y-24525000D01*
X10550000Y-26425000D02*
X10300000Y-25475000D01*
X10900000Y-27425000D02*
X10550000Y-26425000D01*
X11375000Y-28450000D02*
X10900000Y-27425000D01*
X11850000Y-29300000D02*
X11375000Y-28450000D01*
X16725000Y-33850000D02*
X15950000Y-33400000D01*
X17725000Y-34300000D02*
X16725000Y-33850000D01*
X18725000Y-34675000D02*
X17725000Y-34300000D01*
X19775000Y-34950000D02*
X18725000Y-34675000D01*
X20725000Y-35125000D02*
X19775000Y-34950000D01*
X21650000Y-35225000D02*
X20725000Y-35125000D01*
X22500000Y-35250000D02*
X21650000Y-35225000D01*
X33850000Y-26750000D02*
X34000000Y-26200000D01*
X33850000Y-18750000D02*
X34000000Y-19300000D01*
X34200000Y-25450000D02*
X34000000Y-26200000D01*
X34350000Y-24650000D02*
X34200000Y-25450000D01*
X34450000Y-23850000D02*
X34350000Y-24650000D01*
X34500000Y-22750000D02*
X34450000Y-23850000D01*
X34250000Y-20300000D02*
X34000000Y-19300000D01*
X34450000Y-21550000D02*
X34250000Y-20300000D01*
X34500000Y-22750000D02*
X34450000Y-21550000D01*
X29650000Y-33000000D02*
X30500000Y-32350000D01*
X28550000Y-33700000D02*
X29650000Y-33000000D01*
X27300000Y-34300000D02*
X28550000Y-33700000D01*
X26200000Y-34700000D02*
X27300000Y-34300000D01*
X25000000Y-35000000D02*
X26200000Y-34700000D01*
X23700000Y-35200000D02*
X25000000Y-35000000D01*
X22500000Y-35250000D02*
X23700000Y-35200000D01*
X29500000Y-12400000D02*
X30650000Y-13250000D01*
X28150000Y-11600000D02*
X29500000Y-12400000D01*
X26650000Y-10950000D02*
X28150000Y-11600000D01*
X25250000Y-10550000D02*
X26650000Y-10950000D01*
X23700000Y-10300000D02*
X25250000Y-10550000D01*
X22500000Y-10250000D02*
X23700000Y-10300000D01*
X45000000Y-22750000D02*
G75*
G03X45000000Y-22750000I-22500000J0D01*
G01*
M02*
