G04 #@! TF.FileFunction,Copper,L4,Bot,Signal*
%FSLAX46Y46*%
G04 Gerber Fmt 4.6, Leading zero omitted, Abs format (unit mm)*
G04 Created by KiCad (PCBNEW 4.0.1-stable) date 2016 January 15, Friday 22:42:35*
%MOMM*%
G01*
G04 APERTURE LIST*
%ADD10C,0.020000*%
%ADD11C,1.000000*%
%ADD12C,3.000000*%
%ADD13C,0.900000*%
%ADD14R,0.800000X0.800000*%
%ADD15C,1.600000*%
%ADD16C,0.600000*%
%ADD17C,0.200000*%
%ADD18C,0.150000*%
G04 APERTURE END LIST*
D10*
D11*
X15170000Y-9650000D03*
X13760000Y-9980000D03*
D12*
X12000000Y-12250000D03*
D13*
X960000Y-23385000D03*
D14*
X960000Y-22115000D03*
X2230000Y-23385000D03*
X2230000Y-22115000D03*
X3500000Y-23385000D03*
X3500000Y-22115000D03*
X4770000Y-23385000D03*
X4770000Y-22115000D03*
X6040000Y-23385000D03*
X6040000Y-22115000D03*
D15*
X12981497Y-29581497D02*
X15668503Y-32268503D01*
X15668503Y-13231497D02*
X12981497Y-15918503D01*
D11*
X10100000Y-9050000D03*
X11050000Y-5500000D03*
X11500000Y-6700000D03*
X26680000Y-9750000D03*
X17750000Y-9150000D03*
X9450000Y-13800000D03*
X3500000Y-14250000D03*
X3500000Y-16250000D03*
X7690000Y-17190000D03*
D16*
X21000000Y-4250000D03*
X22000000Y-4250000D03*
X23000000Y-4250000D03*
X24000000Y-4250000D03*
X21000000Y-5250000D03*
X22000000Y-5250000D03*
X23000000Y-5250000D03*
X24000000Y-5250000D03*
X21000000Y-6250000D03*
X22000000Y-6250000D03*
X23000000Y-6250000D03*
X24000000Y-6250000D03*
X21000000Y-7250000D03*
X22000000Y-7250000D03*
X23000000Y-7250000D03*
X24000000Y-7250000D03*
D11*
X2000000Y-19750000D03*
X6500000Y-20250000D03*
X4500000Y-20250000D03*
X8500000Y-19250000D03*
D16*
X3000000Y-17250000D03*
X7730199Y-10241985D03*
X15170000Y-10700000D03*
X30970000Y-12380000D03*
X21250000Y-9520000D03*
X8900000Y-17780000D03*
X8450000Y-16510000D03*
X7660000Y-18240000D03*
X25330000Y-2030000D03*
X18020000Y-2630000D03*
X28960000Y-4700000D03*
X2250000Y-15250000D03*
X27240000Y-8880000D03*
X27550000Y-7960000D03*
X27080000Y-1530000D03*
X26850000Y-2770000D03*
X29880000Y-2340000D03*
X1720000Y-17150000D03*
X4410000Y-11100000D03*
X1750000Y-21000000D03*
X7760000Y-21260000D03*
X8500000Y-8060000D03*
X12300000Y-7270000D03*
X18760000Y-9220000D03*
X15230000Y-3790000D03*
X15860000Y-10360000D03*
X12180000Y-4940000D03*
X9220000Y-14790000D03*
X9730000Y-16070000D03*
X5370000Y-9520000D03*
X23620000Y-1120000D03*
X5250000Y-17070000D03*
X16000000Y-9160000D03*
X6750000Y-28500000D03*
X7390000Y-24260000D03*
X16770000Y-9590000D03*
X8250000Y-24250000D03*
X22860000Y-9460000D03*
X17480000Y-10130000D03*
X26600000Y-7460000D03*
X25670000Y-9510000D03*
X5520000Y-20580000D03*
X17390000Y-8210000D03*
X23620000Y-9490000D03*
X7390000Y-19230000D03*
X24890000Y-9370000D03*
X4870000Y-19000000D03*
X10090000Y-14540000D03*
X22100000Y-9460000D03*
X9810000Y-6290000D03*
X18530000Y-6730000D03*
X24450000Y-1870000D03*
X13310000Y-6760000D03*
X10850000Y-7460000D03*
X6580000Y-8040000D03*
X14250000Y-11200000D03*
X16450000Y-8470000D03*
X23610000Y-1890000D03*
X10360000Y-6840000D03*
X21690000Y-1820000D03*
X9360000Y-8200000D03*
X14140000Y-6290000D03*
X9310000Y-16930000D03*
X27850000Y-9550000D03*
X12800000Y-10380000D03*
X13510000Y-10940000D03*
D17*
X3500000Y-16250000D02*
X3000000Y-17250000D01*
X3500000Y-14250000D02*
X2250000Y-15250000D01*
X9800000Y-19400000D02*
X9600000Y-20450000D01*
D18*
X16450000Y-10220000D02*
X16000000Y-9160000D01*
D17*
X12200000Y-14750000D02*
X13282696Y-13550866D01*
X13282696Y-13550866D02*
X14500000Y-12450000D01*
X16283634Y-11235690D02*
X15100000Y-11940000D01*
X15100000Y-11940000D02*
X14500000Y-12450000D01*
X11550000Y-14900000D02*
X10450000Y-16790000D01*
X12200000Y-14750000D02*
X11550000Y-14900000D01*
X9650000Y-18850000D02*
X9800000Y-19400000D01*
X10450000Y-16790000D02*
X9650000Y-18850000D01*
D18*
X16283634Y-11235690D02*
X16450000Y-10220000D01*
D17*
X7794367Y-23546806D02*
X7390000Y-24260000D01*
X8792920Y-23443805D02*
X7794367Y-23546806D01*
X9400000Y-22750000D02*
X8792920Y-23443805D01*
X9400000Y-21850000D02*
X9400000Y-22750000D01*
X9600000Y-20450000D02*
X9400000Y-21850000D01*
X7952703Y-26816216D02*
X7700000Y-25950000D01*
X7952703Y-26816216D02*
X6750000Y-28500000D01*
X7500000Y-25050000D02*
X7390000Y-24260000D01*
X7700000Y-25950000D02*
X7500000Y-25050000D01*
X17480000Y-10130000D02*
X17750000Y-9150000D01*
D18*
X22860000Y-9460000D02*
X22360000Y-8890000D01*
X17990000Y-10470000D02*
X17480000Y-10130000D01*
X18760000Y-10200000D02*
X17990000Y-10470000D01*
X20240000Y-9870000D02*
X18760000Y-10200000D01*
X20730000Y-9030000D02*
X20240000Y-9870000D01*
X21370000Y-8950000D02*
X20730000Y-9030000D01*
X22360000Y-8890000D02*
X21370000Y-8950000D01*
X2524685Y-19744772D02*
X2005228Y-19744772D01*
X2005228Y-19744772D02*
X2000000Y-19750000D01*
X26600000Y-7460000D02*
X25860000Y-7320000D01*
X25860000Y-7320000D02*
X25000000Y-8180000D01*
X970000Y-21590000D02*
X960000Y-22115000D01*
X1050000Y-20640000D02*
X970000Y-21590000D01*
X5580000Y-17890000D02*
X2524685Y-19744772D01*
X2524685Y-19744772D02*
X1050000Y-20640000D01*
X6010000Y-16530000D02*
X5580000Y-17890000D01*
X6590000Y-15190000D02*
X6010000Y-16530000D01*
X7260000Y-13950000D02*
X6590000Y-15190000D01*
X8190000Y-12450000D02*
X7260000Y-13950000D01*
X8930000Y-11540000D02*
X8190000Y-12450000D01*
X9830000Y-10510000D02*
X8930000Y-11540000D01*
X11100000Y-9200000D02*
X9830000Y-10510000D01*
X11810000Y-9200000D02*
X11100000Y-9200000D01*
X13320000Y-8160000D02*
X11810000Y-9200000D01*
X14780000Y-7350000D02*
X13320000Y-8160000D01*
X17160000Y-6400000D02*
X14780000Y-7350000D01*
X19540000Y-8240000D02*
X17160000Y-6400000D01*
X20700000Y-8050000D02*
X19540000Y-8240000D01*
X22490000Y-7920000D02*
X20700000Y-8050000D01*
X23500000Y-7980000D02*
X22490000Y-7920000D01*
X25000000Y-8180000D02*
X23500000Y-7980000D01*
X5958378Y-20292787D02*
X6457213Y-20292787D01*
X6457213Y-20292787D02*
X6500000Y-20250000D01*
X8270000Y-14210000D02*
X7570000Y-15520000D01*
X7570000Y-15520000D02*
X6910000Y-17000000D01*
X6910000Y-17000000D02*
X6380000Y-18720000D01*
X6380000Y-18720000D02*
X6100000Y-20200000D01*
X6100000Y-20200000D02*
X5958378Y-20292787D01*
X5958378Y-20292787D02*
X5520000Y-20580000D01*
X17390000Y-8210000D02*
X16690000Y-7640000D01*
X9750000Y-12100000D02*
X8830000Y-13320000D01*
X10620000Y-11130000D02*
X9750000Y-12100000D01*
X11420000Y-10320000D02*
X10620000Y-11130000D01*
X11950000Y-10360000D02*
X11420000Y-10320000D01*
X12600000Y-9850000D02*
X11950000Y-10360000D01*
X13550000Y-9250000D02*
X12600000Y-9850000D01*
X15230000Y-8280000D02*
X13550000Y-9250000D01*
X16690000Y-7640000D02*
X15230000Y-8280000D01*
X8830000Y-13320000D02*
X8270000Y-14210000D01*
X5011116Y-20228202D02*
X4521798Y-20228202D01*
X4521798Y-20228202D02*
X4500000Y-20250000D01*
X19320000Y-8920000D02*
X17080000Y-7150000D01*
X22790000Y-8580000D02*
X22070000Y-8590000D01*
X22070000Y-8590000D02*
X21290000Y-8650000D01*
X21290000Y-8650000D02*
X20440000Y-8750000D01*
X20440000Y-8750000D02*
X19320000Y-8920000D01*
X23620000Y-9490000D02*
X22790000Y-8580000D01*
X3560000Y-21090000D02*
X3500000Y-22115000D01*
X5850000Y-19730000D02*
X5011116Y-20228202D01*
X5011116Y-20228202D02*
X3560000Y-21090000D01*
X6050000Y-18720000D02*
X5850000Y-19730000D01*
X6700000Y-16550000D02*
X6050000Y-18720000D01*
X7720000Y-14470000D02*
X6700000Y-16550000D01*
X8930000Y-12560000D02*
X7720000Y-14470000D01*
X10020000Y-11310000D02*
X8930000Y-12560000D01*
X11396103Y-9888531D02*
X10020000Y-11310000D01*
X11930000Y-9910000D02*
X11396103Y-9888531D01*
X12620000Y-9460000D02*
X11930000Y-9910000D01*
X14340000Y-8390000D02*
X12620000Y-9460000D01*
X15640000Y-7710000D02*
X14340000Y-8390000D01*
X17080000Y-7150000D02*
X15640000Y-7710000D01*
X7390000Y-19230000D02*
X8480000Y-19230000D01*
X8480000Y-19230000D02*
X8500000Y-19250000D01*
X24890000Y-9370000D02*
X24330000Y-9290000D01*
X5790000Y-18350000D02*
X4870000Y-19000000D01*
X6370000Y-16480000D02*
X5790000Y-18350000D01*
X6960000Y-15160000D02*
X6370000Y-16480000D01*
X7600000Y-14000000D02*
X6960000Y-15160000D01*
X8560000Y-12480000D02*
X7600000Y-14000000D01*
X9700000Y-11120000D02*
X8560000Y-12480000D01*
X11270000Y-9510000D02*
X9700000Y-11120000D01*
X11907723Y-9524322D02*
X11270000Y-9510000D01*
X12240000Y-9280000D02*
X11907723Y-9524322D01*
X13700000Y-8310000D02*
X12240000Y-9280000D01*
X15020000Y-7600000D02*
X13700000Y-8310000D01*
X17140000Y-6790000D02*
X15020000Y-7600000D01*
X19440000Y-8580000D02*
X17140000Y-6790000D01*
X21180000Y-8320000D02*
X19440000Y-8580000D01*
X22770000Y-8250000D02*
X21180000Y-8320000D01*
X23560000Y-8340000D02*
X22770000Y-8250000D01*
X24330000Y-9290000D02*
X23560000Y-8340000D01*
D17*
X10090000Y-14540000D02*
X9450000Y-13800000D01*
D18*
X9580000Y-7260000D02*
X9810000Y-6290000D01*
X11000000Y-8870000D02*
X9580000Y-7260000D01*
X11700000Y-8880000D02*
X11000000Y-8870000D01*
X12970000Y-7980000D02*
X11700000Y-8880000D01*
X14140000Y-7300000D02*
X12970000Y-7980000D01*
X15390000Y-6750000D02*
X14140000Y-7300000D01*
X17210000Y-6030000D02*
X15390000Y-6750000D01*
X18210000Y-6800000D02*
X17210000Y-6030000D01*
X18530000Y-6730000D02*
X18210000Y-6800000D01*
D17*
X10850000Y-7460000D02*
X11500000Y-6700000D01*
X10352584Y-5948185D02*
X11050000Y-5500000D01*
X16770000Y-2010000D02*
X14830000Y-2640000D01*
X22460000Y-1850000D02*
X21970000Y-2480000D01*
X21970000Y-2480000D02*
X21410000Y-2480000D01*
X21410000Y-2480000D02*
X20580000Y-1370000D01*
X20580000Y-1370000D02*
X19260000Y-1480000D01*
X19260000Y-1480000D02*
X17520000Y-1810000D01*
X17520000Y-1810000D02*
X16770000Y-2010000D01*
X23610000Y-1890000D02*
X22460000Y-1850000D01*
X10559802Y-6243282D02*
X10360000Y-6840000D01*
X10080000Y-5560000D02*
X10352584Y-5948185D01*
X10352584Y-5948185D02*
X10559802Y-6243282D01*
X10190000Y-5080000D02*
X10080000Y-5560000D01*
X10900000Y-4600000D02*
X10190000Y-5080000D01*
X12700000Y-3560000D02*
X10900000Y-4600000D01*
X14830000Y-2640000D02*
X12700000Y-3560000D01*
X10100000Y-9050000D02*
X9360000Y-8200000D01*
X16470000Y-1710000D02*
X14830000Y-2210000D01*
X14830000Y-2210000D02*
X12950000Y-3010000D01*
X12950000Y-3010000D02*
X11380000Y-3860000D01*
X11380000Y-3860000D02*
X10070000Y-4690000D01*
X10070000Y-4690000D02*
X9160000Y-5350000D01*
X9160000Y-5350000D02*
X8880000Y-7160000D01*
X8880000Y-7160000D02*
X9400000Y-7700000D01*
X9400000Y-7700000D02*
X9360000Y-8200000D01*
X21690000Y-1820000D02*
X21010000Y-920000D01*
X17470000Y-1440000D02*
X16470000Y-1710000D01*
X19240000Y-1100000D02*
X17470000Y-1440000D01*
X21010000Y-920000D02*
X19240000Y-1100000D01*
X9310000Y-16930000D02*
X8250000Y-17230000D01*
X8250000Y-17230000D02*
X7690000Y-17190000D01*
X26680000Y-9750000D02*
X27850000Y-9550000D01*
D18*
X13760000Y-9980000D02*
X12800000Y-10380000D01*
X15170000Y-9650000D02*
X14550000Y-10670000D01*
X14130000Y-10630000D02*
X13510000Y-10940000D01*
X14550000Y-10670000D02*
X14130000Y-10630000D01*
D17*
G36*
X16062375Y-10266566D02*
X15947074Y-10970498D01*
X14895457Y-11596253D01*
X14870709Y-11614468D01*
X14845221Y-11631637D01*
X14840940Y-11635224D01*
X14240941Y-12145224D01*
X14238603Y-12147642D01*
X14235871Y-12149607D01*
X14231702Y-12153325D01*
X13775357Y-12566020D01*
X13732988Y-12300000D01*
X12120713Y-12300000D01*
X12084854Y-12264141D01*
X12014141Y-12334854D01*
X12050000Y-12370713D01*
X12050000Y-13982988D01*
X12315442Y-14025265D01*
X11987441Y-14388540D01*
X11460056Y-14510244D01*
X11456050Y-14511592D01*
X11451876Y-14512223D01*
X11419106Y-14524021D01*
X11386065Y-14535137D01*
X11382398Y-14537237D01*
X11378425Y-14538667D01*
X11348571Y-14556605D01*
X11318318Y-14573927D01*
X11315128Y-14576699D01*
X11311509Y-14578874D01*
X11285708Y-14602270D01*
X11259396Y-14625138D01*
X11256805Y-14628477D01*
X11253678Y-14631313D01*
X11232912Y-14659274D01*
X11211543Y-14686818D01*
X11209653Y-14690592D01*
X11207132Y-14693986D01*
X11204289Y-14698793D01*
X10104290Y-16588793D01*
X10092419Y-16614721D01*
X10079188Y-16640004D01*
X10077130Y-16645196D01*
X9277130Y-18705196D01*
X9275169Y-18712207D01*
X9272123Y-18718817D01*
X9264671Y-18749750D01*
X9256106Y-18780378D01*
X9255545Y-18787631D01*
X9253839Y-18794712D01*
X9252536Y-18826523D01*
X9250085Y-18858212D01*
X9250943Y-18865433D01*
X9250645Y-18872712D01*
X9255544Y-18904155D01*
X9259296Y-18935733D01*
X9261543Y-18942657D01*
X9262663Y-18949848D01*
X9264094Y-18955247D01*
X9389759Y-19416014D01*
X9207065Y-20375155D01*
X9206478Y-20381622D01*
X9204849Y-20387908D01*
X9204020Y-20393431D01*
X9004020Y-21793431D01*
X9002891Y-21818993D01*
X9000039Y-21844415D01*
X9000000Y-21850000D01*
X9000000Y-22599705D01*
X8955992Y-22650000D01*
X6706519Y-22650000D01*
X6729516Y-22598982D01*
X6741451Y-22515000D01*
X6741451Y-21715000D01*
X6737641Y-21667226D01*
X6712548Y-21586197D01*
X6665874Y-21515366D01*
X6601315Y-21460343D01*
X6523982Y-21425484D01*
X6440000Y-21413549D01*
X5640000Y-21413549D01*
X5592226Y-21417359D01*
X5511197Y-21442452D01*
X5440366Y-21489126D01*
X5405522Y-21530008D01*
X5395874Y-21515366D01*
X5331315Y-21460343D01*
X5253982Y-21425484D01*
X5170000Y-21413549D01*
X4370000Y-21413549D01*
X4322226Y-21417359D01*
X4241197Y-21442452D01*
X4170366Y-21489126D01*
X4135522Y-21530008D01*
X4125874Y-21515366D01*
X4061315Y-21460343D01*
X3983982Y-21425484D01*
X3916564Y-21415903D01*
X3922721Y-21310731D01*
X4375576Y-21041787D01*
X4404818Y-21048216D01*
X4561672Y-21051502D01*
X4716177Y-21024258D01*
X4862447Y-20967524D01*
X4994912Y-20883459D01*
X4999138Y-20879435D01*
X5047509Y-20954492D01*
X5129247Y-21039134D01*
X5225868Y-21106287D01*
X5333693Y-21153395D01*
X5448614Y-21178662D01*
X5566254Y-21181126D01*
X5682133Y-21160694D01*
X5791835Y-21118143D01*
X5891184Y-21055094D01*
X5976395Y-20973949D01*
X6030156Y-20897737D01*
X6107824Y-20951717D01*
X6251590Y-21014527D01*
X6404818Y-21048216D01*
X6561672Y-21051502D01*
X6716177Y-21024258D01*
X6862447Y-20967524D01*
X6994912Y-20883459D01*
X7108526Y-20775266D01*
X7198962Y-20647066D01*
X7262774Y-20503741D01*
X7297532Y-20350752D01*
X7300034Y-20171556D01*
X7269561Y-20017656D01*
X7209776Y-19872605D01*
X7147474Y-19778833D01*
X7203693Y-19803395D01*
X7318614Y-19828662D01*
X7436254Y-19831126D01*
X7552133Y-19810694D01*
X7661835Y-19768143D01*
X7761184Y-19705094D01*
X7810960Y-19657693D01*
X7870012Y-19749323D01*
X7978995Y-19862179D01*
X8107824Y-19951717D01*
X8251590Y-20014527D01*
X8404818Y-20048216D01*
X8561672Y-20051502D01*
X8716177Y-20024258D01*
X8862447Y-19967524D01*
X8994912Y-19883459D01*
X9108526Y-19775266D01*
X9198962Y-19647066D01*
X9262774Y-19503741D01*
X9297532Y-19350752D01*
X9300034Y-19171556D01*
X9269561Y-19017656D01*
X9209776Y-18872605D01*
X9122955Y-18741930D01*
X9012407Y-18630607D01*
X8882341Y-18542876D01*
X8737711Y-18482079D01*
X8584027Y-18450533D01*
X8427143Y-18449437D01*
X8273034Y-18478835D01*
X8196751Y-18509656D01*
X8232080Y-18430306D01*
X8258149Y-18315564D01*
X8260026Y-18181167D01*
X8237171Y-18065742D01*
X8192332Y-17956954D01*
X8127742Y-17859740D01*
X8184912Y-17823459D01*
X8298526Y-17715266D01*
X8301106Y-17711608D01*
X8300854Y-17712795D01*
X8299211Y-17830450D01*
X8320452Y-17946183D01*
X8363768Y-18055586D01*
X8427509Y-18154492D01*
X8509247Y-18239134D01*
X8605868Y-18306287D01*
X8713693Y-18353395D01*
X8828614Y-18378662D01*
X8946254Y-18381126D01*
X9062133Y-18360694D01*
X9171835Y-18318143D01*
X9271184Y-18255094D01*
X9356395Y-18173949D01*
X9424221Y-18077799D01*
X9472080Y-17970306D01*
X9498149Y-17855564D01*
X9500026Y-17721167D01*
X9477171Y-17605742D01*
X9440308Y-17516305D01*
X9472133Y-17510694D01*
X9581835Y-17468143D01*
X9681184Y-17405094D01*
X9766395Y-17323949D01*
X9834221Y-17227799D01*
X9882080Y-17120306D01*
X9908149Y-17005564D01*
X9910026Y-16871167D01*
X9887171Y-16755742D01*
X9842332Y-16646954D01*
X9777216Y-16548948D01*
X9694305Y-16465455D01*
X9596755Y-16399657D01*
X9488283Y-16354060D01*
X9373021Y-16330400D01*
X9255357Y-16329578D01*
X9139775Y-16351627D01*
X9038424Y-16392575D01*
X9027171Y-16335742D01*
X8982332Y-16226954D01*
X8917216Y-16128948D01*
X8834305Y-16045455D01*
X8736755Y-15979657D01*
X8628283Y-15934060D01*
X8513021Y-15910400D01*
X8395357Y-15909578D01*
X8279775Y-15931627D01*
X8170677Y-15975705D01*
X8072219Y-16040135D01*
X7988150Y-16122461D01*
X7921672Y-16219549D01*
X7875318Y-16327700D01*
X7858286Y-16407829D01*
X7774027Y-16390533D01*
X7617143Y-16389437D01*
X7590620Y-16394497D01*
X7907043Y-15684942D01*
X8594479Y-14398455D01*
X8737457Y-14171223D01*
X8820012Y-14299323D01*
X8928995Y-14412179D01*
X9057824Y-14501717D01*
X9201590Y-14564527D01*
X9354818Y-14598216D01*
X9491161Y-14601072D01*
X9510452Y-14706183D01*
X9553768Y-14815586D01*
X9617509Y-14914492D01*
X9699247Y-14999134D01*
X9795868Y-15066287D01*
X9903693Y-15113395D01*
X10018614Y-15138662D01*
X10136254Y-15141126D01*
X10252133Y-15120694D01*
X10361835Y-15078143D01*
X10461184Y-15015094D01*
X10546395Y-14933949D01*
X10614221Y-14837799D01*
X10662080Y-14730306D01*
X10688149Y-14615564D01*
X10690026Y-14481167D01*
X10667171Y-14365742D01*
X10622332Y-14256954D01*
X10557216Y-14158948D01*
X10474305Y-14075455D01*
X10376755Y-14009657D01*
X10268283Y-13964060D01*
X10234714Y-13957169D01*
X10247532Y-13900752D01*
X10250034Y-13721556D01*
X10219561Y-13567656D01*
X10159776Y-13422605D01*
X10072955Y-13291930D01*
X9962407Y-13180607D01*
X9832341Y-13092876D01*
X9687711Y-13032079D01*
X9539705Y-13001698D01*
X9856032Y-12582221D01*
X10222063Y-12582221D01*
X10321039Y-12922696D01*
X10484536Y-13237319D01*
X10706272Y-13514000D01*
X10977725Y-13742106D01*
X11288463Y-13912872D01*
X11626545Y-14019734D01*
X11667779Y-14027937D01*
X11950000Y-13982988D01*
X11950000Y-12300000D01*
X10267012Y-12300000D01*
X10222063Y-12582221D01*
X9856032Y-12582221D01*
X10039815Y-12338509D01*
X10251485Y-12102509D01*
X10267012Y-12200000D01*
X11879287Y-12200000D01*
X11915146Y-12235859D01*
X11985859Y-12165146D01*
X11950000Y-12129287D01*
X11950000Y-10733412D01*
X11974319Y-10734211D01*
X11984571Y-10732529D01*
X11994947Y-10732296D01*
X12020598Y-10726617D01*
X12046541Y-10722360D01*
X12050000Y-10721065D01*
X12050000Y-12129287D01*
X12014141Y-12165146D01*
X12084854Y-12235859D01*
X12120713Y-12200000D01*
X13732988Y-12200000D01*
X13777937Y-11917779D01*
X13678961Y-11577304D01*
X13651439Y-11524343D01*
X13672133Y-11520694D01*
X13728699Y-11498753D01*
X13777509Y-11574492D01*
X13859247Y-11659134D01*
X13955868Y-11726287D01*
X14063693Y-11773395D01*
X14178614Y-11798662D01*
X14296254Y-11801126D01*
X14412133Y-11780694D01*
X14521835Y-11738143D01*
X14621184Y-11675094D01*
X14706395Y-11593949D01*
X14774221Y-11497799D01*
X14822080Y-11390306D01*
X14848149Y-11275564D01*
X14849097Y-11207681D01*
X14875868Y-11226287D01*
X14983693Y-11273395D01*
X15098614Y-11298662D01*
X15216254Y-11301126D01*
X15332133Y-11280694D01*
X15441835Y-11238143D01*
X15541184Y-11175094D01*
X15626395Y-11093949D01*
X15694221Y-10997799D01*
X15742080Y-10890306D01*
X15768149Y-10775564D01*
X15770026Y-10641167D01*
X15747171Y-10525742D01*
X15702332Y-10416954D01*
X15637216Y-10318948D01*
X15626305Y-10307960D01*
X15664912Y-10283459D01*
X15778526Y-10175266D01*
X15868962Y-10047066D01*
X15920269Y-9931827D01*
X16062375Y-10266566D01*
X16062375Y-10266566D01*
G37*
X16062375Y-10266566D02*
X15947074Y-10970498D01*
X14895457Y-11596253D01*
X14870709Y-11614468D01*
X14845221Y-11631637D01*
X14840940Y-11635224D01*
X14240941Y-12145224D01*
X14238603Y-12147642D01*
X14235871Y-12149607D01*
X14231702Y-12153325D01*
X13775357Y-12566020D01*
X13732988Y-12300000D01*
X12120713Y-12300000D01*
X12084854Y-12264141D01*
X12014141Y-12334854D01*
X12050000Y-12370713D01*
X12050000Y-13982988D01*
X12315442Y-14025265D01*
X11987441Y-14388540D01*
X11460056Y-14510244D01*
X11456050Y-14511592D01*
X11451876Y-14512223D01*
X11419106Y-14524021D01*
X11386065Y-14535137D01*
X11382398Y-14537237D01*
X11378425Y-14538667D01*
X11348571Y-14556605D01*
X11318318Y-14573927D01*
X11315128Y-14576699D01*
X11311509Y-14578874D01*
X11285708Y-14602270D01*
X11259396Y-14625138D01*
X11256805Y-14628477D01*
X11253678Y-14631313D01*
X11232912Y-14659274D01*
X11211543Y-14686818D01*
X11209653Y-14690592D01*
X11207132Y-14693986D01*
X11204289Y-14698793D01*
X10104290Y-16588793D01*
X10092419Y-16614721D01*
X10079188Y-16640004D01*
X10077130Y-16645196D01*
X9277130Y-18705196D01*
X9275169Y-18712207D01*
X9272123Y-18718817D01*
X9264671Y-18749750D01*
X9256106Y-18780378D01*
X9255545Y-18787631D01*
X9253839Y-18794712D01*
X9252536Y-18826523D01*
X9250085Y-18858212D01*
X9250943Y-18865433D01*
X9250645Y-18872712D01*
X9255544Y-18904155D01*
X9259296Y-18935733D01*
X9261543Y-18942657D01*
X9262663Y-18949848D01*
X9264094Y-18955247D01*
X9389759Y-19416014D01*
X9207065Y-20375155D01*
X9206478Y-20381622D01*
X9204849Y-20387908D01*
X9204020Y-20393431D01*
X9004020Y-21793431D01*
X9002891Y-21818993D01*
X9000039Y-21844415D01*
X9000000Y-21850000D01*
X9000000Y-22599705D01*
X8955992Y-22650000D01*
X6706519Y-22650000D01*
X6729516Y-22598982D01*
X6741451Y-22515000D01*
X6741451Y-21715000D01*
X6737641Y-21667226D01*
X6712548Y-21586197D01*
X6665874Y-21515366D01*
X6601315Y-21460343D01*
X6523982Y-21425484D01*
X6440000Y-21413549D01*
X5640000Y-21413549D01*
X5592226Y-21417359D01*
X5511197Y-21442452D01*
X5440366Y-21489126D01*
X5405522Y-21530008D01*
X5395874Y-21515366D01*
X5331315Y-21460343D01*
X5253982Y-21425484D01*
X5170000Y-21413549D01*
X4370000Y-21413549D01*
X4322226Y-21417359D01*
X4241197Y-21442452D01*
X4170366Y-21489126D01*
X4135522Y-21530008D01*
X4125874Y-21515366D01*
X4061315Y-21460343D01*
X3983982Y-21425484D01*
X3916564Y-21415903D01*
X3922721Y-21310731D01*
X4375576Y-21041787D01*
X4404818Y-21048216D01*
X4561672Y-21051502D01*
X4716177Y-21024258D01*
X4862447Y-20967524D01*
X4994912Y-20883459D01*
X4999138Y-20879435D01*
X5047509Y-20954492D01*
X5129247Y-21039134D01*
X5225868Y-21106287D01*
X5333693Y-21153395D01*
X5448614Y-21178662D01*
X5566254Y-21181126D01*
X5682133Y-21160694D01*
X5791835Y-21118143D01*
X5891184Y-21055094D01*
X5976395Y-20973949D01*
X6030156Y-20897737D01*
X6107824Y-20951717D01*
X6251590Y-21014527D01*
X6404818Y-21048216D01*
X6561672Y-21051502D01*
X6716177Y-21024258D01*
X6862447Y-20967524D01*
X6994912Y-20883459D01*
X7108526Y-20775266D01*
X7198962Y-20647066D01*
X7262774Y-20503741D01*
X7297532Y-20350752D01*
X7300034Y-20171556D01*
X7269561Y-20017656D01*
X7209776Y-19872605D01*
X7147474Y-19778833D01*
X7203693Y-19803395D01*
X7318614Y-19828662D01*
X7436254Y-19831126D01*
X7552133Y-19810694D01*
X7661835Y-19768143D01*
X7761184Y-19705094D01*
X7810960Y-19657693D01*
X7870012Y-19749323D01*
X7978995Y-19862179D01*
X8107824Y-19951717D01*
X8251590Y-20014527D01*
X8404818Y-20048216D01*
X8561672Y-20051502D01*
X8716177Y-20024258D01*
X8862447Y-19967524D01*
X8994912Y-19883459D01*
X9108526Y-19775266D01*
X9198962Y-19647066D01*
X9262774Y-19503741D01*
X9297532Y-19350752D01*
X9300034Y-19171556D01*
X9269561Y-19017656D01*
X9209776Y-18872605D01*
X9122955Y-18741930D01*
X9012407Y-18630607D01*
X8882341Y-18542876D01*
X8737711Y-18482079D01*
X8584027Y-18450533D01*
X8427143Y-18449437D01*
X8273034Y-18478835D01*
X8196751Y-18509656D01*
X8232080Y-18430306D01*
X8258149Y-18315564D01*
X8260026Y-18181167D01*
X8237171Y-18065742D01*
X8192332Y-17956954D01*
X8127742Y-17859740D01*
X8184912Y-17823459D01*
X8298526Y-17715266D01*
X8301106Y-17711608D01*
X8300854Y-17712795D01*
X8299211Y-17830450D01*
X8320452Y-17946183D01*
X8363768Y-18055586D01*
X8427509Y-18154492D01*
X8509247Y-18239134D01*
X8605868Y-18306287D01*
X8713693Y-18353395D01*
X8828614Y-18378662D01*
X8946254Y-18381126D01*
X9062133Y-18360694D01*
X9171835Y-18318143D01*
X9271184Y-18255094D01*
X9356395Y-18173949D01*
X9424221Y-18077799D01*
X9472080Y-17970306D01*
X9498149Y-17855564D01*
X9500026Y-17721167D01*
X9477171Y-17605742D01*
X9440308Y-17516305D01*
X9472133Y-17510694D01*
X9581835Y-17468143D01*
X9681184Y-17405094D01*
X9766395Y-17323949D01*
X9834221Y-17227799D01*
X9882080Y-17120306D01*
X9908149Y-17005564D01*
X9910026Y-16871167D01*
X9887171Y-16755742D01*
X9842332Y-16646954D01*
X9777216Y-16548948D01*
X9694305Y-16465455D01*
X9596755Y-16399657D01*
X9488283Y-16354060D01*
X9373021Y-16330400D01*
X9255357Y-16329578D01*
X9139775Y-16351627D01*
X9038424Y-16392575D01*
X9027171Y-16335742D01*
X8982332Y-16226954D01*
X8917216Y-16128948D01*
X8834305Y-16045455D01*
X8736755Y-15979657D01*
X8628283Y-15934060D01*
X8513021Y-15910400D01*
X8395357Y-15909578D01*
X8279775Y-15931627D01*
X8170677Y-15975705D01*
X8072219Y-16040135D01*
X7988150Y-16122461D01*
X7921672Y-16219549D01*
X7875318Y-16327700D01*
X7858286Y-16407829D01*
X7774027Y-16390533D01*
X7617143Y-16389437D01*
X7590620Y-16394497D01*
X7907043Y-15684942D01*
X8594479Y-14398455D01*
X8737457Y-14171223D01*
X8820012Y-14299323D01*
X8928995Y-14412179D01*
X9057824Y-14501717D01*
X9201590Y-14564527D01*
X9354818Y-14598216D01*
X9491161Y-14601072D01*
X9510452Y-14706183D01*
X9553768Y-14815586D01*
X9617509Y-14914492D01*
X9699247Y-14999134D01*
X9795868Y-15066287D01*
X9903693Y-15113395D01*
X10018614Y-15138662D01*
X10136254Y-15141126D01*
X10252133Y-15120694D01*
X10361835Y-15078143D01*
X10461184Y-15015094D01*
X10546395Y-14933949D01*
X10614221Y-14837799D01*
X10662080Y-14730306D01*
X10688149Y-14615564D01*
X10690026Y-14481167D01*
X10667171Y-14365742D01*
X10622332Y-14256954D01*
X10557216Y-14158948D01*
X10474305Y-14075455D01*
X10376755Y-14009657D01*
X10268283Y-13964060D01*
X10234714Y-13957169D01*
X10247532Y-13900752D01*
X10250034Y-13721556D01*
X10219561Y-13567656D01*
X10159776Y-13422605D01*
X10072955Y-13291930D01*
X9962407Y-13180607D01*
X9832341Y-13092876D01*
X9687711Y-13032079D01*
X9539705Y-13001698D01*
X9856032Y-12582221D01*
X10222063Y-12582221D01*
X10321039Y-12922696D01*
X10484536Y-13237319D01*
X10706272Y-13514000D01*
X10977725Y-13742106D01*
X11288463Y-13912872D01*
X11626545Y-14019734D01*
X11667779Y-14027937D01*
X11950000Y-13982988D01*
X11950000Y-12300000D01*
X10267012Y-12300000D01*
X10222063Y-12582221D01*
X9856032Y-12582221D01*
X10039815Y-12338509D01*
X10251485Y-12102509D01*
X10267012Y-12200000D01*
X11879287Y-12200000D01*
X11915146Y-12235859D01*
X11985859Y-12165146D01*
X11950000Y-12129287D01*
X11950000Y-10733412D01*
X11974319Y-10734211D01*
X11984571Y-10732529D01*
X11994947Y-10732296D01*
X12020598Y-10726617D01*
X12046541Y-10722360D01*
X12050000Y-10721065D01*
X12050000Y-12129287D01*
X12014141Y-12165146D01*
X12084854Y-12235859D01*
X12120713Y-12200000D01*
X13732988Y-12200000D01*
X13777937Y-11917779D01*
X13678961Y-11577304D01*
X13651439Y-11524343D01*
X13672133Y-11520694D01*
X13728699Y-11498753D01*
X13777509Y-11574492D01*
X13859247Y-11659134D01*
X13955868Y-11726287D01*
X14063693Y-11773395D01*
X14178614Y-11798662D01*
X14296254Y-11801126D01*
X14412133Y-11780694D01*
X14521835Y-11738143D01*
X14621184Y-11675094D01*
X14706395Y-11593949D01*
X14774221Y-11497799D01*
X14822080Y-11390306D01*
X14848149Y-11275564D01*
X14849097Y-11207681D01*
X14875868Y-11226287D01*
X14983693Y-11273395D01*
X15098614Y-11298662D01*
X15216254Y-11301126D01*
X15332133Y-11280694D01*
X15441835Y-11238143D01*
X15541184Y-11175094D01*
X15626395Y-11093949D01*
X15694221Y-10997799D01*
X15742080Y-10890306D01*
X15768149Y-10775564D01*
X15770026Y-10641167D01*
X15747171Y-10525742D01*
X15702332Y-10416954D01*
X15637216Y-10318948D01*
X15626305Y-10307960D01*
X15664912Y-10283459D01*
X15778526Y-10175266D01*
X15868962Y-10047066D01*
X15920269Y-9931827D01*
X16062375Y-10266566D01*
G36*
X4290452Y-19166183D02*
X4333768Y-19275586D01*
X4397509Y-19374492D01*
X4470173Y-19449738D01*
X4427143Y-19449437D01*
X4273034Y-19478835D01*
X4127570Y-19537607D01*
X3996291Y-19623513D01*
X3884199Y-19733282D01*
X3795562Y-19862732D01*
X3733758Y-20006934D01*
X3701139Y-20160393D01*
X3698948Y-20317266D01*
X3727270Y-20471577D01*
X3753856Y-20538725D01*
X3368515Y-20767574D01*
X3341279Y-20787585D01*
X3313731Y-20807198D01*
X3311800Y-20809244D01*
X3309536Y-20810907D01*
X3286740Y-20835789D01*
X3263491Y-20860417D01*
X3261991Y-20862804D01*
X3260097Y-20864871D01*
X3242578Y-20893692D01*
X3224546Y-20922382D01*
X3223539Y-20925013D01*
X3222081Y-20927411D01*
X3210466Y-20959157D01*
X3198378Y-20990731D01*
X3197903Y-20993497D01*
X3196935Y-20996142D01*
X3191701Y-21029588D01*
X3185984Y-21062861D01*
X3185641Y-21068086D01*
X3165419Y-21413549D01*
X3100000Y-21413549D01*
X3052226Y-21417359D01*
X2971197Y-21442452D01*
X2900366Y-21489126D01*
X2865522Y-21530008D01*
X2855874Y-21515366D01*
X2791315Y-21460343D01*
X2713982Y-21425484D01*
X2630000Y-21413549D01*
X1830000Y-21413549D01*
X1782226Y-21417359D01*
X1701197Y-21442452D01*
X1630366Y-21489126D01*
X1595522Y-21530008D01*
X1585874Y-21515366D01*
X1521315Y-21460343D01*
X1443982Y-21425484D01*
X1361172Y-21413716D01*
X1407669Y-20861562D01*
X1923202Y-20548601D01*
X2061672Y-20551502D01*
X2216177Y-20524258D01*
X2362447Y-20467524D01*
X2494912Y-20383459D01*
X2608526Y-20275266D01*
X2698962Y-20147066D01*
X2741306Y-20051960D01*
X4281427Y-19117008D01*
X4290452Y-19166183D01*
X4290452Y-19166183D01*
G37*
X4290452Y-19166183D02*
X4333768Y-19275586D01*
X4397509Y-19374492D01*
X4470173Y-19449738D01*
X4427143Y-19449437D01*
X4273034Y-19478835D01*
X4127570Y-19537607D01*
X3996291Y-19623513D01*
X3884199Y-19733282D01*
X3795562Y-19862732D01*
X3733758Y-20006934D01*
X3701139Y-20160393D01*
X3698948Y-20317266D01*
X3727270Y-20471577D01*
X3753856Y-20538725D01*
X3368515Y-20767574D01*
X3341279Y-20787585D01*
X3313731Y-20807198D01*
X3311800Y-20809244D01*
X3309536Y-20810907D01*
X3286740Y-20835789D01*
X3263491Y-20860417D01*
X3261991Y-20862804D01*
X3260097Y-20864871D01*
X3242578Y-20893692D01*
X3224546Y-20922382D01*
X3223539Y-20925013D01*
X3222081Y-20927411D01*
X3210466Y-20959157D01*
X3198378Y-20990731D01*
X3197903Y-20993497D01*
X3196935Y-20996142D01*
X3191701Y-21029588D01*
X3185984Y-21062861D01*
X3185641Y-21068086D01*
X3165419Y-21413549D01*
X3100000Y-21413549D01*
X3052226Y-21417359D01*
X2971197Y-21442452D01*
X2900366Y-21489126D01*
X2865522Y-21530008D01*
X2855874Y-21515366D01*
X2791315Y-21460343D01*
X2713982Y-21425484D01*
X2630000Y-21413549D01*
X1830000Y-21413549D01*
X1782226Y-21417359D01*
X1701197Y-21442452D01*
X1630366Y-21489126D01*
X1595522Y-21530008D01*
X1585874Y-21515366D01*
X1521315Y-21460343D01*
X1443982Y-21425484D01*
X1361172Y-21413716D01*
X1407669Y-20861562D01*
X1923202Y-20548601D01*
X2061672Y-20551502D01*
X2216177Y-20524258D01*
X2362447Y-20467524D01*
X2494912Y-20383459D01*
X2608526Y-20275266D01*
X2698962Y-20147066D01*
X2741306Y-20051960D01*
X4281427Y-19117008D01*
X4290452Y-19166183D01*
G36*
X8484702Y-7098849D02*
X8483319Y-7123635D01*
X8480172Y-7148266D01*
X8481149Y-7162527D01*
X8480353Y-7176794D01*
X8483811Y-7201379D01*
X8485508Y-7226150D01*
X8489236Y-7239947D01*
X8491226Y-7254099D01*
X8499392Y-7277540D01*
X8505869Y-7301514D01*
X8512208Y-7314328D01*
X8516908Y-7327821D01*
X8529474Y-7349235D01*
X8540482Y-7371488D01*
X8549184Y-7382821D01*
X8556419Y-7395150D01*
X8572906Y-7413716D01*
X8588026Y-7433407D01*
X8591872Y-7437457D01*
X8926373Y-7784823D01*
X8898150Y-7812461D01*
X8831672Y-7909549D01*
X8785318Y-8017700D01*
X8760854Y-8132795D01*
X8759211Y-8250450D01*
X8780452Y-8366183D01*
X8823768Y-8475586D01*
X8887509Y-8574492D01*
X8969247Y-8659134D01*
X9065868Y-8726287D01*
X9173693Y-8773395D01*
X9288614Y-8798662D01*
X9336870Y-8799673D01*
X9333758Y-8806934D01*
X9301139Y-8960393D01*
X9298948Y-9117266D01*
X9327270Y-9271577D01*
X9385024Y-9417448D01*
X9470012Y-9549323D01*
X9578995Y-9662179D01*
X9707824Y-9751717D01*
X9851590Y-9814527D01*
X9959038Y-9838151D01*
X9560756Y-10248977D01*
X9556326Y-10254544D01*
X9551087Y-10259337D01*
X9547614Y-10263255D01*
X8647614Y-11293255D01*
X8645265Y-11296542D01*
X8642387Y-11299369D01*
X8639055Y-11303408D01*
X7899055Y-12213407D01*
X7887270Y-12231201D01*
X7874077Y-12247967D01*
X7871287Y-12252398D01*
X6941286Y-13752398D01*
X6937495Y-13760102D01*
X6932602Y-13767147D01*
X6930080Y-13771736D01*
X6260080Y-15011737D01*
X6254775Y-15024367D01*
X6247968Y-15036251D01*
X6245854Y-15041041D01*
X5665854Y-16381041D01*
X5660785Y-16396826D01*
X5654060Y-16411969D01*
X5652446Y-16416950D01*
X5264932Y-17642577D01*
X2625083Y-19245133D01*
X2622955Y-19241930D01*
X2512407Y-19130607D01*
X2382341Y-19042876D01*
X2237711Y-18982079D01*
X2084027Y-18950533D01*
X1927143Y-18949437D01*
X1773034Y-18978835D01*
X1627570Y-19037607D01*
X1496291Y-19123513D01*
X1384199Y-19233282D01*
X1295562Y-19362732D01*
X1233758Y-19506934D01*
X1201139Y-19660393D01*
X1198948Y-19817266D01*
X1227270Y-19971577D01*
X1266251Y-20070032D01*
X855402Y-20319443D01*
X833604Y-20335786D01*
X811034Y-20351002D01*
X804390Y-20357689D01*
X796845Y-20363346D01*
X778652Y-20383594D01*
X759451Y-20402920D01*
X754228Y-20410778D01*
X747931Y-20417786D01*
X734017Y-20441183D01*
X718936Y-20463871D01*
X715341Y-20472588D01*
X710522Y-20480691D01*
X701412Y-20506360D01*
X699623Y-20510698D01*
X699701Y-20508936D01*
X948479Y-18667978D01*
X1246906Y-17374797D01*
X1267816Y-17300450D01*
X2399211Y-17300450D01*
X2420452Y-17416183D01*
X2463768Y-17525586D01*
X2527509Y-17624492D01*
X2609247Y-17709134D01*
X2705868Y-17776287D01*
X2813693Y-17823395D01*
X2928614Y-17848662D01*
X3046254Y-17851126D01*
X3162133Y-17830694D01*
X3271835Y-17788143D01*
X3371184Y-17725094D01*
X3456395Y-17643949D01*
X3524221Y-17547799D01*
X3572080Y-17440306D01*
X3598149Y-17325564D01*
X3600026Y-17191167D01*
X3577171Y-17075742D01*
X3566807Y-17050597D01*
X3716177Y-17024258D01*
X3862447Y-16967524D01*
X3994912Y-16883459D01*
X4108526Y-16775266D01*
X4198962Y-16647066D01*
X4262774Y-16503741D01*
X4297532Y-16350752D01*
X4300034Y-16171556D01*
X4269561Y-16017656D01*
X4209776Y-15872605D01*
X4122955Y-15741930D01*
X4012407Y-15630607D01*
X3882341Y-15542876D01*
X3737711Y-15482079D01*
X3584027Y-15450533D01*
X3427143Y-15449437D01*
X3273034Y-15478835D01*
X3127570Y-15537607D01*
X2996291Y-15623513D01*
X2884199Y-15733282D01*
X2795562Y-15862732D01*
X2733758Y-16006934D01*
X2701139Y-16160393D01*
X2698948Y-16317266D01*
X2727270Y-16471577D01*
X2785024Y-16617448D01*
X2821972Y-16674780D01*
X2720677Y-16715705D01*
X2622219Y-16780135D01*
X2538150Y-16862461D01*
X2471672Y-16959549D01*
X2425318Y-17067700D01*
X2400854Y-17182795D01*
X2399211Y-17300450D01*
X1267816Y-17300450D01*
X1695119Y-15781148D01*
X2063225Y-14799531D01*
X3021180Y-14799531D01*
X3068862Y-14928475D01*
X3209510Y-14999549D01*
X3361322Y-15041819D01*
X3518463Y-15053659D01*
X3674894Y-15034616D01*
X3824604Y-14985419D01*
X3931138Y-14928475D01*
X3978820Y-14799531D01*
X3500000Y-14320711D01*
X3021180Y-14799531D01*
X2063225Y-14799531D01*
X2142589Y-14587896D01*
X2284559Y-14268463D01*
X2696341Y-14268463D01*
X2715384Y-14424894D01*
X2764581Y-14574604D01*
X2821525Y-14681138D01*
X2950469Y-14728820D01*
X3429289Y-14250000D01*
X3570711Y-14250000D01*
X4049531Y-14728820D01*
X4178475Y-14681138D01*
X4249549Y-14540490D01*
X4291819Y-14388678D01*
X4303659Y-14231537D01*
X4284616Y-14075106D01*
X4235419Y-13925396D01*
X4178475Y-13818862D01*
X4049531Y-13771180D01*
X3570711Y-14250000D01*
X3429289Y-14250000D01*
X2950469Y-13771180D01*
X2821525Y-13818862D01*
X2750451Y-13959510D01*
X2708181Y-14111322D01*
X2696341Y-14268463D01*
X2284559Y-14268463D01*
X2537000Y-13700469D01*
X3021180Y-13700469D01*
X3500000Y-14179289D01*
X3978820Y-13700469D01*
X3931138Y-13571525D01*
X3790490Y-13500451D01*
X3638678Y-13458181D01*
X3481537Y-13446341D01*
X3325106Y-13465384D01*
X3175396Y-13514581D01*
X3068862Y-13571525D01*
X3021180Y-13700469D01*
X2537000Y-13700469D01*
X2739886Y-13243978D01*
X3486568Y-11850170D01*
X4460152Y-10292435D01*
X7129410Y-10292435D01*
X7150651Y-10408168D01*
X7193967Y-10517571D01*
X7257708Y-10616477D01*
X7339446Y-10701119D01*
X7436067Y-10768272D01*
X7543892Y-10815380D01*
X7658813Y-10840647D01*
X7776453Y-10843111D01*
X7892332Y-10822679D01*
X8002034Y-10780128D01*
X8101383Y-10717079D01*
X8186594Y-10635934D01*
X8254420Y-10539784D01*
X8302279Y-10432291D01*
X8328348Y-10317549D01*
X8330225Y-10183152D01*
X8307370Y-10067727D01*
X8262531Y-9958939D01*
X8197415Y-9860933D01*
X8114504Y-9777440D01*
X8016954Y-9711642D01*
X7908482Y-9666045D01*
X7793220Y-9642385D01*
X7675556Y-9641563D01*
X7559974Y-9663612D01*
X7450876Y-9707690D01*
X7352418Y-9772120D01*
X7268349Y-9854446D01*
X7201871Y-9951534D01*
X7155517Y-10059685D01*
X7131053Y-10174780D01*
X7129410Y-10292435D01*
X4460152Y-10292435D01*
X4482383Y-10256867D01*
X5427596Y-9013166D01*
X6041080Y-8308796D01*
X6043768Y-8315586D01*
X6107509Y-8414492D01*
X6189247Y-8499134D01*
X6285868Y-8566287D01*
X6393693Y-8613395D01*
X6508614Y-8638662D01*
X6626254Y-8641126D01*
X6742133Y-8620694D01*
X6851835Y-8578143D01*
X6951184Y-8515094D01*
X7036395Y-8433949D01*
X7104221Y-8337799D01*
X7152080Y-8230306D01*
X7178149Y-8115564D01*
X7180026Y-7981167D01*
X7157171Y-7865742D01*
X7112332Y-7756954D01*
X7047216Y-7658948D01*
X6964305Y-7575455D01*
X6866755Y-7509657D01*
X6771850Y-7469763D01*
X6772473Y-7469048D01*
X8015993Y-6275269D01*
X8696300Y-5731023D01*
X8484702Y-7098849D01*
X8484702Y-7098849D01*
G37*
X8484702Y-7098849D02*
X8483319Y-7123635D01*
X8480172Y-7148266D01*
X8481149Y-7162527D01*
X8480353Y-7176794D01*
X8483811Y-7201379D01*
X8485508Y-7226150D01*
X8489236Y-7239947D01*
X8491226Y-7254099D01*
X8499392Y-7277540D01*
X8505869Y-7301514D01*
X8512208Y-7314328D01*
X8516908Y-7327821D01*
X8529474Y-7349235D01*
X8540482Y-7371488D01*
X8549184Y-7382821D01*
X8556419Y-7395150D01*
X8572906Y-7413716D01*
X8588026Y-7433407D01*
X8591872Y-7437457D01*
X8926373Y-7784823D01*
X8898150Y-7812461D01*
X8831672Y-7909549D01*
X8785318Y-8017700D01*
X8760854Y-8132795D01*
X8759211Y-8250450D01*
X8780452Y-8366183D01*
X8823768Y-8475586D01*
X8887509Y-8574492D01*
X8969247Y-8659134D01*
X9065868Y-8726287D01*
X9173693Y-8773395D01*
X9288614Y-8798662D01*
X9336870Y-8799673D01*
X9333758Y-8806934D01*
X9301139Y-8960393D01*
X9298948Y-9117266D01*
X9327270Y-9271577D01*
X9385024Y-9417448D01*
X9470012Y-9549323D01*
X9578995Y-9662179D01*
X9707824Y-9751717D01*
X9851590Y-9814527D01*
X9959038Y-9838151D01*
X9560756Y-10248977D01*
X9556326Y-10254544D01*
X9551087Y-10259337D01*
X9547614Y-10263255D01*
X8647614Y-11293255D01*
X8645265Y-11296542D01*
X8642387Y-11299369D01*
X8639055Y-11303408D01*
X7899055Y-12213407D01*
X7887270Y-12231201D01*
X7874077Y-12247967D01*
X7871287Y-12252398D01*
X6941286Y-13752398D01*
X6937495Y-13760102D01*
X6932602Y-13767147D01*
X6930080Y-13771736D01*
X6260080Y-15011737D01*
X6254775Y-15024367D01*
X6247968Y-15036251D01*
X6245854Y-15041041D01*
X5665854Y-16381041D01*
X5660785Y-16396826D01*
X5654060Y-16411969D01*
X5652446Y-16416950D01*
X5264932Y-17642577D01*
X2625083Y-19245133D01*
X2622955Y-19241930D01*
X2512407Y-19130607D01*
X2382341Y-19042876D01*
X2237711Y-18982079D01*
X2084027Y-18950533D01*
X1927143Y-18949437D01*
X1773034Y-18978835D01*
X1627570Y-19037607D01*
X1496291Y-19123513D01*
X1384199Y-19233282D01*
X1295562Y-19362732D01*
X1233758Y-19506934D01*
X1201139Y-19660393D01*
X1198948Y-19817266D01*
X1227270Y-19971577D01*
X1266251Y-20070032D01*
X855402Y-20319443D01*
X833604Y-20335786D01*
X811034Y-20351002D01*
X804390Y-20357689D01*
X796845Y-20363346D01*
X778652Y-20383594D01*
X759451Y-20402920D01*
X754228Y-20410778D01*
X747931Y-20417786D01*
X734017Y-20441183D01*
X718936Y-20463871D01*
X715341Y-20472588D01*
X710522Y-20480691D01*
X701412Y-20506360D01*
X699623Y-20510698D01*
X699701Y-20508936D01*
X948479Y-18667978D01*
X1246906Y-17374797D01*
X1267816Y-17300450D01*
X2399211Y-17300450D01*
X2420452Y-17416183D01*
X2463768Y-17525586D01*
X2527509Y-17624492D01*
X2609247Y-17709134D01*
X2705868Y-17776287D01*
X2813693Y-17823395D01*
X2928614Y-17848662D01*
X3046254Y-17851126D01*
X3162133Y-17830694D01*
X3271835Y-17788143D01*
X3371184Y-17725094D01*
X3456395Y-17643949D01*
X3524221Y-17547799D01*
X3572080Y-17440306D01*
X3598149Y-17325564D01*
X3600026Y-17191167D01*
X3577171Y-17075742D01*
X3566807Y-17050597D01*
X3716177Y-17024258D01*
X3862447Y-16967524D01*
X3994912Y-16883459D01*
X4108526Y-16775266D01*
X4198962Y-16647066D01*
X4262774Y-16503741D01*
X4297532Y-16350752D01*
X4300034Y-16171556D01*
X4269561Y-16017656D01*
X4209776Y-15872605D01*
X4122955Y-15741930D01*
X4012407Y-15630607D01*
X3882341Y-15542876D01*
X3737711Y-15482079D01*
X3584027Y-15450533D01*
X3427143Y-15449437D01*
X3273034Y-15478835D01*
X3127570Y-15537607D01*
X2996291Y-15623513D01*
X2884199Y-15733282D01*
X2795562Y-15862732D01*
X2733758Y-16006934D01*
X2701139Y-16160393D01*
X2698948Y-16317266D01*
X2727270Y-16471577D01*
X2785024Y-16617448D01*
X2821972Y-16674780D01*
X2720677Y-16715705D01*
X2622219Y-16780135D01*
X2538150Y-16862461D01*
X2471672Y-16959549D01*
X2425318Y-17067700D01*
X2400854Y-17182795D01*
X2399211Y-17300450D01*
X1267816Y-17300450D01*
X1695119Y-15781148D01*
X2063225Y-14799531D01*
X3021180Y-14799531D01*
X3068862Y-14928475D01*
X3209510Y-14999549D01*
X3361322Y-15041819D01*
X3518463Y-15053659D01*
X3674894Y-15034616D01*
X3824604Y-14985419D01*
X3931138Y-14928475D01*
X3978820Y-14799531D01*
X3500000Y-14320711D01*
X3021180Y-14799531D01*
X2063225Y-14799531D01*
X2142589Y-14587896D01*
X2284559Y-14268463D01*
X2696341Y-14268463D01*
X2715384Y-14424894D01*
X2764581Y-14574604D01*
X2821525Y-14681138D01*
X2950469Y-14728820D01*
X3429289Y-14250000D01*
X3570711Y-14250000D01*
X4049531Y-14728820D01*
X4178475Y-14681138D01*
X4249549Y-14540490D01*
X4291819Y-14388678D01*
X4303659Y-14231537D01*
X4284616Y-14075106D01*
X4235419Y-13925396D01*
X4178475Y-13818862D01*
X4049531Y-13771180D01*
X3570711Y-14250000D01*
X3429289Y-14250000D01*
X2950469Y-13771180D01*
X2821525Y-13818862D01*
X2750451Y-13959510D01*
X2708181Y-14111322D01*
X2696341Y-14268463D01*
X2284559Y-14268463D01*
X2537000Y-13700469D01*
X3021180Y-13700469D01*
X3500000Y-14179289D01*
X3978820Y-13700469D01*
X3931138Y-13571525D01*
X3790490Y-13500451D01*
X3638678Y-13458181D01*
X3481537Y-13446341D01*
X3325106Y-13465384D01*
X3175396Y-13514581D01*
X3068862Y-13571525D01*
X3021180Y-13700469D01*
X2537000Y-13700469D01*
X2739886Y-13243978D01*
X3486568Y-11850170D01*
X4460152Y-10292435D01*
X7129410Y-10292435D01*
X7150651Y-10408168D01*
X7193967Y-10517571D01*
X7257708Y-10616477D01*
X7339446Y-10701119D01*
X7436067Y-10768272D01*
X7543892Y-10815380D01*
X7658813Y-10840647D01*
X7776453Y-10843111D01*
X7892332Y-10822679D01*
X8002034Y-10780128D01*
X8101383Y-10717079D01*
X8186594Y-10635934D01*
X8254420Y-10539784D01*
X8302279Y-10432291D01*
X8328348Y-10317549D01*
X8330225Y-10183152D01*
X8307370Y-10067727D01*
X8262531Y-9958939D01*
X8197415Y-9860933D01*
X8114504Y-9777440D01*
X8016954Y-9711642D01*
X7908482Y-9666045D01*
X7793220Y-9642385D01*
X7675556Y-9641563D01*
X7559974Y-9663612D01*
X7450876Y-9707690D01*
X7352418Y-9772120D01*
X7268349Y-9854446D01*
X7201871Y-9951534D01*
X7155517Y-10059685D01*
X7131053Y-10174780D01*
X7129410Y-10292435D01*
X4460152Y-10292435D01*
X4482383Y-10256867D01*
X5427596Y-9013166D01*
X6041080Y-8308796D01*
X6043768Y-8315586D01*
X6107509Y-8414492D01*
X6189247Y-8499134D01*
X6285868Y-8566287D01*
X6393693Y-8613395D01*
X6508614Y-8638662D01*
X6626254Y-8641126D01*
X6742133Y-8620694D01*
X6851835Y-8578143D01*
X6951184Y-8515094D01*
X7036395Y-8433949D01*
X7104221Y-8337799D01*
X7152080Y-8230306D01*
X7178149Y-8115564D01*
X7180026Y-7981167D01*
X7157171Y-7865742D01*
X7112332Y-7756954D01*
X7047216Y-7658948D01*
X6964305Y-7575455D01*
X6866755Y-7509657D01*
X6771850Y-7469763D01*
X6772473Y-7469048D01*
X8015993Y-6275269D01*
X8696300Y-5731023D01*
X8484702Y-7098849D01*
G36*
X19087506Y-9214230D02*
X19091224Y-9216618D01*
X19094481Y-9219610D01*
X19121996Y-9236385D01*
X19149083Y-9253785D01*
X19153193Y-9255405D01*
X19156970Y-9257708D01*
X19187219Y-9268819D01*
X19217170Y-9280626D01*
X19221518Y-9281417D01*
X19225669Y-9282942D01*
X19257494Y-9287965D01*
X19289175Y-9293731D01*
X19293594Y-9293663D01*
X19297961Y-9294352D01*
X19330139Y-9293098D01*
X19362354Y-9292601D01*
X19366679Y-9291675D01*
X19371093Y-9291503D01*
X19376275Y-9290753D01*
X20218310Y-9162944D01*
X19998582Y-9539621D01*
X18678389Y-9833988D01*
X18659864Y-9840068D01*
X18640867Y-9844427D01*
X18635914Y-9846125D01*
X18074449Y-10043002D01*
X18057171Y-9955742D01*
X18033441Y-9898168D01*
X18112447Y-9867524D01*
X18244912Y-9783459D01*
X18358526Y-9675266D01*
X18448962Y-9547066D01*
X18512774Y-9403741D01*
X18547532Y-9250752D01*
X18550034Y-9071556D01*
X18519561Y-8917656D01*
X18459776Y-8772605D01*
X18383693Y-8658092D01*
X19087506Y-9214230D01*
X19087506Y-9214230D01*
G37*
X19087506Y-9214230D02*
X19091224Y-9216618D01*
X19094481Y-9219610D01*
X19121996Y-9236385D01*
X19149083Y-9253785D01*
X19153193Y-9255405D01*
X19156970Y-9257708D01*
X19187219Y-9268819D01*
X19217170Y-9280626D01*
X19221518Y-9281417D01*
X19225669Y-9282942D01*
X19257494Y-9287965D01*
X19289175Y-9293731D01*
X19293594Y-9293663D01*
X19297961Y-9294352D01*
X19330139Y-9293098D01*
X19362354Y-9292601D01*
X19366679Y-9291675D01*
X19371093Y-9291503D01*
X19376275Y-9290753D01*
X20218310Y-9162944D01*
X19998582Y-9539621D01*
X18678389Y-9833988D01*
X18659864Y-9840068D01*
X18640867Y-9844427D01*
X18635914Y-9846125D01*
X18074449Y-10043002D01*
X18057171Y-9955742D01*
X18033441Y-9898168D01*
X18112447Y-9867524D01*
X18244912Y-9783459D01*
X18358526Y-9675266D01*
X18448962Y-9547066D01*
X18512774Y-9403741D01*
X18547532Y-9250752D01*
X18550034Y-9071556D01*
X18519561Y-8917656D01*
X18459776Y-8772605D01*
X18383693Y-8658092D01*
X19087506Y-9214230D01*
G36*
X23994159Y-899860D02*
X25187617Y-999315D01*
X26382664Y-1198490D01*
X27726108Y-1447276D01*
X29669499Y-2045242D01*
X30264334Y-2243520D01*
X30751698Y-2453591D01*
X28175805Y-9045997D01*
X28136755Y-9019657D01*
X28028283Y-8974060D01*
X27913021Y-8950400D01*
X27795357Y-8949578D01*
X27679775Y-8971627D01*
X27570677Y-9015705D01*
X27472219Y-9080135D01*
X27388150Y-9162461D01*
X27341089Y-9231191D01*
X27299372Y-9238322D01*
X27192407Y-9130607D01*
X27062341Y-9042876D01*
X26917711Y-8982079D01*
X26764027Y-8950533D01*
X26607143Y-8949437D01*
X26453034Y-8978835D01*
X26307570Y-9037607D01*
X26176291Y-9123513D01*
X26150431Y-9148837D01*
X26137216Y-9128948D01*
X26054305Y-9045455D01*
X25956755Y-8979657D01*
X25848283Y-8934060D01*
X25733021Y-8910400D01*
X25615357Y-8909578D01*
X25499775Y-8931627D01*
X25390677Y-8975705D01*
X25361223Y-8994979D01*
X25357216Y-8988948D01*
X25274305Y-8905455D01*
X25176755Y-8839657D01*
X25068283Y-8794060D01*
X24953021Y-8770400D01*
X24835357Y-8769578D01*
X24719775Y-8791627D01*
X24610677Y-8835705D01*
X24512219Y-8900135D01*
X24503575Y-8908600D01*
X24125114Y-8441667D01*
X24950439Y-8551711D01*
X24973327Y-8552508D01*
X24996073Y-8554979D01*
X25009801Y-8553778D01*
X25023582Y-8554258D01*
X25046180Y-8550596D01*
X25068982Y-8548601D01*
X25082219Y-8544755D01*
X25095826Y-8542550D01*
X25117281Y-8534568D01*
X25139263Y-8528182D01*
X25151501Y-8521839D01*
X25164421Y-8517032D01*
X25183924Y-8505032D01*
X25204239Y-8494501D01*
X25215004Y-8485907D01*
X25226753Y-8478678D01*
X25243561Y-8463110D01*
X25261436Y-8448841D01*
X25265165Y-8445165D01*
X25985025Y-7725305D01*
X26067157Y-7740844D01*
X26127509Y-7834492D01*
X26209247Y-7919134D01*
X26305868Y-7986287D01*
X26413693Y-8033395D01*
X26528614Y-8058662D01*
X26646254Y-8061126D01*
X26762133Y-8040694D01*
X26871835Y-7998143D01*
X26971184Y-7935094D01*
X27056395Y-7853949D01*
X27124221Y-7757799D01*
X27172080Y-7650306D01*
X27198149Y-7535564D01*
X27200026Y-7401167D01*
X27177171Y-7285742D01*
X27132332Y-7176954D01*
X27067216Y-7078948D01*
X26984305Y-6995455D01*
X26886755Y-6929657D01*
X26778283Y-6884060D01*
X26663021Y-6860400D01*
X26545357Y-6859578D01*
X26429775Y-6881627D01*
X26320677Y-6925705D01*
X26222219Y-6990135D01*
X26207892Y-7004165D01*
X25929709Y-6951536D01*
X25896831Y-6948594D01*
X25863927Y-6945020D01*
X25860364Y-6945332D01*
X25856813Y-6945014D01*
X25824007Y-6948512D01*
X25791018Y-6951398D01*
X25787583Y-6952396D01*
X25784039Y-6952774D01*
X25752497Y-6962590D01*
X25720737Y-6971818D01*
X25717569Y-6973460D01*
X25714157Y-6974522D01*
X25685089Y-6990296D01*
X25655761Y-7005498D01*
X25652972Y-7007725D01*
X25649831Y-7009429D01*
X25624386Y-7030544D01*
X25598564Y-7051158D01*
X25594835Y-7054835D01*
X24865872Y-7783798D01*
X24324394Y-7711601D01*
X24336250Y-7656961D01*
X24000000Y-7320711D01*
X23985858Y-7334853D01*
X23915147Y-7264142D01*
X23929289Y-7250000D01*
X24070711Y-7250000D01*
X24406961Y-7586250D01*
X24515467Y-7562706D01*
X24566569Y-7456135D01*
X24595897Y-7341642D01*
X24602326Y-7223628D01*
X24585608Y-7106626D01*
X24546386Y-6995135D01*
X24515467Y-6937294D01*
X24406961Y-6913750D01*
X24070711Y-7250000D01*
X23929289Y-7250000D01*
X23593039Y-6913750D01*
X23500000Y-6933938D01*
X23406961Y-6913750D01*
X23070711Y-7250000D01*
X23084853Y-7264142D01*
X23014142Y-7334853D01*
X23000000Y-7320711D01*
X22985858Y-7334853D01*
X22915147Y-7264142D01*
X22929289Y-7250000D01*
X22593039Y-6913750D01*
X22500000Y-6933938D01*
X22406961Y-6913750D01*
X22070711Y-7250000D01*
X22084853Y-7264142D01*
X22014142Y-7334853D01*
X22000000Y-7320711D01*
X21985858Y-7334853D01*
X21915147Y-7264142D01*
X21929289Y-7250000D01*
X21593039Y-6913750D01*
X21500000Y-6933938D01*
X21406961Y-6913750D01*
X21070711Y-7250000D01*
X21084853Y-7264142D01*
X21014142Y-7334853D01*
X21000000Y-7320711D01*
X20663750Y-7656961D01*
X20668056Y-7676807D01*
X20658784Y-7678401D01*
X20644558Y-7679122D01*
X20639385Y-7679931D01*
X19640334Y-7843569D01*
X18906679Y-7276372D01*
X20397674Y-7276372D01*
X20414392Y-7393374D01*
X20453614Y-7504865D01*
X20484533Y-7562706D01*
X20593039Y-7586250D01*
X20929289Y-7250000D01*
X20593039Y-6913750D01*
X20484533Y-6937294D01*
X20433431Y-7043865D01*
X20404103Y-7158358D01*
X20397674Y-7276372D01*
X18906679Y-7276372D01*
X18853568Y-7235312D01*
X18901184Y-7205094D01*
X18986395Y-7123949D01*
X19054221Y-7027799D01*
X19102080Y-6920306D01*
X19128149Y-6805564D01*
X19130026Y-6671167D01*
X19127214Y-6656961D01*
X20663750Y-6656961D01*
X20683938Y-6750000D01*
X20663750Y-6843039D01*
X21000000Y-7179289D01*
X21336250Y-6843039D01*
X21316062Y-6750000D01*
X21336250Y-6656961D01*
X21663750Y-6656961D01*
X21683938Y-6750000D01*
X21663750Y-6843039D01*
X22000000Y-7179289D01*
X22336250Y-6843039D01*
X22316062Y-6750000D01*
X22336250Y-6656961D01*
X22663750Y-6656961D01*
X22683938Y-6750000D01*
X22663750Y-6843039D01*
X23000000Y-7179289D01*
X23336250Y-6843039D01*
X23316062Y-6750000D01*
X23336250Y-6656961D01*
X23663750Y-6656961D01*
X23683938Y-6750000D01*
X23663750Y-6843039D01*
X24000000Y-7179289D01*
X24336250Y-6843039D01*
X24316062Y-6750000D01*
X24336250Y-6656961D01*
X24000000Y-6320711D01*
X23663750Y-6656961D01*
X23336250Y-6656961D01*
X23000000Y-6320711D01*
X22663750Y-6656961D01*
X22336250Y-6656961D01*
X22000000Y-6320711D01*
X21663750Y-6656961D01*
X21336250Y-6656961D01*
X21000000Y-6320711D01*
X20663750Y-6656961D01*
X19127214Y-6656961D01*
X19107171Y-6555742D01*
X19062332Y-6446954D01*
X18997216Y-6348948D01*
X18925146Y-6276372D01*
X20397674Y-6276372D01*
X20414392Y-6393374D01*
X20453614Y-6504865D01*
X20484533Y-6562706D01*
X20593039Y-6586250D01*
X20929289Y-6250000D01*
X21070711Y-6250000D01*
X21406961Y-6586250D01*
X21500000Y-6566062D01*
X21593039Y-6586250D01*
X21929289Y-6250000D01*
X22070711Y-6250000D01*
X22406961Y-6586250D01*
X22500000Y-6566062D01*
X22593039Y-6586250D01*
X22929289Y-6250000D01*
X23070711Y-6250000D01*
X23406961Y-6586250D01*
X23500000Y-6566062D01*
X23593039Y-6586250D01*
X23929289Y-6250000D01*
X24070711Y-6250000D01*
X24406961Y-6586250D01*
X24515467Y-6562706D01*
X24566569Y-6456135D01*
X24595897Y-6341642D01*
X24602326Y-6223628D01*
X24585608Y-6106626D01*
X24546386Y-5995135D01*
X24515467Y-5937294D01*
X24406961Y-5913750D01*
X24070711Y-6250000D01*
X23929289Y-6250000D01*
X23593039Y-5913750D01*
X23500000Y-5933938D01*
X23406961Y-5913750D01*
X23070711Y-6250000D01*
X22929289Y-6250000D01*
X22593039Y-5913750D01*
X22500000Y-5933938D01*
X22406961Y-5913750D01*
X22070711Y-6250000D01*
X21929289Y-6250000D01*
X21593039Y-5913750D01*
X21500000Y-5933938D01*
X21406961Y-5913750D01*
X21070711Y-6250000D01*
X20929289Y-6250000D01*
X20593039Y-5913750D01*
X20484533Y-5937294D01*
X20433431Y-6043865D01*
X20404103Y-6158358D01*
X20397674Y-6276372D01*
X18925146Y-6276372D01*
X18914305Y-6265455D01*
X18816755Y-6199657D01*
X18708283Y-6154060D01*
X18593021Y-6130400D01*
X18475357Y-6129578D01*
X18359775Y-6151627D01*
X18250677Y-6195705D01*
X18152219Y-6260135D01*
X18139594Y-6272499D01*
X17438785Y-5732876D01*
X17432159Y-5728736D01*
X17426248Y-5723631D01*
X17401175Y-5709379D01*
X17376716Y-5694097D01*
X17369413Y-5691323D01*
X17362622Y-5687463D01*
X17335264Y-5678354D01*
X17308298Y-5668112D01*
X17300594Y-5666810D01*
X17293183Y-5664342D01*
X17264568Y-5660719D01*
X17242339Y-5656961D01*
X20663750Y-5656961D01*
X20683938Y-5750000D01*
X20663750Y-5843039D01*
X21000000Y-6179289D01*
X21336250Y-5843039D01*
X21316062Y-5750000D01*
X21336250Y-5656961D01*
X21663750Y-5656961D01*
X21683938Y-5750000D01*
X21663750Y-5843039D01*
X22000000Y-6179289D01*
X22336250Y-5843039D01*
X22316062Y-5750000D01*
X22336250Y-5656961D01*
X22663750Y-5656961D01*
X22683938Y-5750000D01*
X22663750Y-5843039D01*
X23000000Y-6179289D01*
X23336250Y-5843039D01*
X23316062Y-5750000D01*
X23336250Y-5656961D01*
X23663750Y-5656961D01*
X23683938Y-5750000D01*
X23663750Y-5843039D01*
X24000000Y-6179289D01*
X24336250Y-5843039D01*
X24316062Y-5750000D01*
X24336250Y-5656961D01*
X24000000Y-5320711D01*
X23663750Y-5656961D01*
X23336250Y-5656961D01*
X23000000Y-5320711D01*
X22663750Y-5656961D01*
X22336250Y-5656961D01*
X22000000Y-5320711D01*
X21663750Y-5656961D01*
X21336250Y-5656961D01*
X21000000Y-5320711D01*
X20663750Y-5656961D01*
X17242339Y-5656961D01*
X17236134Y-5655912D01*
X17228327Y-5656131D01*
X17220575Y-5655149D01*
X17191801Y-5657153D01*
X17162976Y-5657960D01*
X17155359Y-5659691D01*
X17147565Y-5660234D01*
X17119720Y-5667791D01*
X17091608Y-5674180D01*
X17084476Y-5677356D01*
X17076933Y-5679403D01*
X17072051Y-5681295D01*
X15252051Y-6401295D01*
X15248059Y-6403345D01*
X15243780Y-6404682D01*
X15238973Y-6406757D01*
X14585576Y-6694252D01*
X14596395Y-6683949D01*
X14664221Y-6587799D01*
X14712080Y-6480306D01*
X14738149Y-6365564D01*
X14740026Y-6231167D01*
X14717171Y-6115742D01*
X14672332Y-6006954D01*
X14607216Y-5908948D01*
X14524305Y-5825455D01*
X14426755Y-5759657D01*
X14318283Y-5714060D01*
X14203021Y-5690400D01*
X14085357Y-5689578D01*
X13969775Y-5711627D01*
X13860677Y-5755705D01*
X13762219Y-5820135D01*
X13678150Y-5902461D01*
X13611672Y-5999549D01*
X13565318Y-6107700D01*
X13544100Y-6207523D01*
X13488283Y-6184060D01*
X13373021Y-6160400D01*
X13255357Y-6159578D01*
X13139775Y-6181627D01*
X13030677Y-6225705D01*
X12932219Y-6290135D01*
X12848150Y-6372461D01*
X12781672Y-6469549D01*
X12735318Y-6577700D01*
X12710854Y-6692795D01*
X12709211Y-6810450D01*
X12730452Y-6926183D01*
X12773768Y-7035586D01*
X12837509Y-7134492D01*
X12919247Y-7219134D01*
X13015868Y-7286287D01*
X13123693Y-7333395D01*
X13238614Y-7358662D01*
X13290902Y-7359757D01*
X12781565Y-7655782D01*
X12769971Y-7664133D01*
X12757470Y-7671041D01*
X12753177Y-7674038D01*
X11583010Y-8503290D01*
X11171397Y-8497410D01*
X10784536Y-8058786D01*
X10896254Y-8061126D01*
X11012133Y-8040694D01*
X11121835Y-7998143D01*
X11221184Y-7935094D01*
X11306395Y-7853949D01*
X11374221Y-7757799D01*
X11422080Y-7650306D01*
X11448149Y-7535564D01*
X11448658Y-7499134D01*
X11561672Y-7501502D01*
X11716177Y-7474258D01*
X11862447Y-7417524D01*
X11994912Y-7333459D01*
X12108526Y-7225266D01*
X12198962Y-7097066D01*
X12262774Y-6953741D01*
X12297532Y-6800752D01*
X12300034Y-6621556D01*
X12269561Y-6467656D01*
X12209776Y-6322605D01*
X12122955Y-6191930D01*
X12012407Y-6080607D01*
X11882341Y-5992876D01*
X11737711Y-5932079D01*
X11725964Y-5929668D01*
X11748962Y-5897066D01*
X11812774Y-5753741D01*
X11847532Y-5600752D01*
X11850034Y-5421556D01*
X11821287Y-5276372D01*
X20397674Y-5276372D01*
X20414392Y-5393374D01*
X20453614Y-5504865D01*
X20484533Y-5562706D01*
X20593039Y-5586250D01*
X20929289Y-5250000D01*
X21070711Y-5250000D01*
X21406961Y-5586250D01*
X21500000Y-5566062D01*
X21593039Y-5586250D01*
X21929289Y-5250000D01*
X22070711Y-5250000D01*
X22406961Y-5586250D01*
X22500000Y-5566062D01*
X22593039Y-5586250D01*
X22929289Y-5250000D01*
X23070711Y-5250000D01*
X23406961Y-5586250D01*
X23500000Y-5566062D01*
X23593039Y-5586250D01*
X23929289Y-5250000D01*
X24070711Y-5250000D01*
X24406961Y-5586250D01*
X24515467Y-5562706D01*
X24566569Y-5456135D01*
X24595897Y-5341642D01*
X24602326Y-5223628D01*
X24585608Y-5106626D01*
X24546386Y-4995135D01*
X24515467Y-4937294D01*
X24406961Y-4913750D01*
X24070711Y-5250000D01*
X23929289Y-5250000D01*
X23593039Y-4913750D01*
X23500000Y-4933938D01*
X23406961Y-4913750D01*
X23070711Y-5250000D01*
X22929289Y-5250000D01*
X22593039Y-4913750D01*
X22500000Y-4933938D01*
X22406961Y-4913750D01*
X22070711Y-5250000D01*
X21929289Y-5250000D01*
X21593039Y-4913750D01*
X21500000Y-4933938D01*
X21406961Y-4913750D01*
X21070711Y-5250000D01*
X20929289Y-5250000D01*
X20593039Y-4913750D01*
X20484533Y-4937294D01*
X20433431Y-5043865D01*
X20404103Y-5158358D01*
X20397674Y-5276372D01*
X11821287Y-5276372D01*
X11819561Y-5267656D01*
X11759776Y-5122605D01*
X11672955Y-4991930D01*
X11562407Y-4880607D01*
X11432341Y-4792876D01*
X11393784Y-4776668D01*
X11600969Y-4656961D01*
X20663750Y-4656961D01*
X20683938Y-4750000D01*
X20663750Y-4843039D01*
X21000000Y-5179289D01*
X21336250Y-4843039D01*
X21316062Y-4750000D01*
X21336250Y-4656961D01*
X21663750Y-4656961D01*
X21683938Y-4750000D01*
X21663750Y-4843039D01*
X22000000Y-5179289D01*
X22336250Y-4843039D01*
X22316062Y-4750000D01*
X22336250Y-4656961D01*
X22663750Y-4656961D01*
X22683938Y-4750000D01*
X22663750Y-4843039D01*
X23000000Y-5179289D01*
X23336250Y-4843039D01*
X23316062Y-4750000D01*
X23336250Y-4656961D01*
X23663750Y-4656961D01*
X23683938Y-4750000D01*
X23663750Y-4843039D01*
X24000000Y-5179289D01*
X24336250Y-4843039D01*
X24316062Y-4750000D01*
X24336250Y-4656961D01*
X24000000Y-4320711D01*
X23663750Y-4656961D01*
X23336250Y-4656961D01*
X23000000Y-4320711D01*
X22663750Y-4656961D01*
X22336250Y-4656961D01*
X22000000Y-4320711D01*
X21663750Y-4656961D01*
X21336250Y-4656961D01*
X21000000Y-4320711D01*
X20663750Y-4656961D01*
X11600969Y-4656961D01*
X12259681Y-4276372D01*
X20397674Y-4276372D01*
X20414392Y-4393374D01*
X20453614Y-4504865D01*
X20484533Y-4562706D01*
X20593039Y-4586250D01*
X20929289Y-4250000D01*
X21070711Y-4250000D01*
X21406961Y-4586250D01*
X21500000Y-4566062D01*
X21593039Y-4586250D01*
X21929289Y-4250000D01*
X22070711Y-4250000D01*
X22406961Y-4586250D01*
X22500000Y-4566062D01*
X22593039Y-4586250D01*
X22929289Y-4250000D01*
X23070711Y-4250000D01*
X23406961Y-4586250D01*
X23500000Y-4566062D01*
X23593039Y-4586250D01*
X23929289Y-4250000D01*
X24070711Y-4250000D01*
X24406961Y-4586250D01*
X24515467Y-4562706D01*
X24566569Y-4456135D01*
X24595897Y-4341642D01*
X24602326Y-4223628D01*
X24585608Y-4106626D01*
X24546386Y-3995135D01*
X24515467Y-3937294D01*
X24406961Y-3913750D01*
X24070711Y-4250000D01*
X23929289Y-4250000D01*
X23593039Y-3913750D01*
X23500000Y-3933938D01*
X23406961Y-3913750D01*
X23070711Y-4250000D01*
X22929289Y-4250000D01*
X22593039Y-3913750D01*
X22500000Y-3933938D01*
X22406961Y-3913750D01*
X22070711Y-4250000D01*
X21929289Y-4250000D01*
X21593039Y-3913750D01*
X21500000Y-3933938D01*
X21406961Y-3913750D01*
X21070711Y-4250000D01*
X20929289Y-4250000D01*
X20593039Y-3913750D01*
X20484533Y-3937294D01*
X20433431Y-4043865D01*
X20404103Y-4158358D01*
X20397674Y-4276372D01*
X12259681Y-4276372D01*
X12879965Y-3917986D01*
X13053483Y-3843039D01*
X20663750Y-3843039D01*
X21000000Y-4179289D01*
X21336250Y-3843039D01*
X21663750Y-3843039D01*
X22000000Y-4179289D01*
X22336250Y-3843039D01*
X22663750Y-3843039D01*
X23000000Y-4179289D01*
X23336250Y-3843039D01*
X23663750Y-3843039D01*
X24000000Y-4179289D01*
X24336250Y-3843039D01*
X24312706Y-3734533D01*
X24206135Y-3683431D01*
X24091642Y-3654103D01*
X23973628Y-3647674D01*
X23856626Y-3664392D01*
X23745135Y-3703614D01*
X23687294Y-3734533D01*
X23663750Y-3843039D01*
X23336250Y-3843039D01*
X23312706Y-3734533D01*
X23206135Y-3683431D01*
X23091642Y-3654103D01*
X22973628Y-3647674D01*
X22856626Y-3664392D01*
X22745135Y-3703614D01*
X22687294Y-3734533D01*
X22663750Y-3843039D01*
X22336250Y-3843039D01*
X22312706Y-3734533D01*
X22206135Y-3683431D01*
X22091642Y-3654103D01*
X21973628Y-3647674D01*
X21856626Y-3664392D01*
X21745135Y-3703614D01*
X21687294Y-3734533D01*
X21663750Y-3843039D01*
X21336250Y-3843039D01*
X21312706Y-3734533D01*
X21206135Y-3683431D01*
X21091642Y-3654103D01*
X20973628Y-3647674D01*
X20856626Y-3664392D01*
X20745135Y-3703614D01*
X20687294Y-3734533D01*
X20663750Y-3843039D01*
X13053483Y-3843039D01*
X14971391Y-3014647D01*
X16883392Y-2393740D01*
X17598364Y-2203081D01*
X17558150Y-2242461D01*
X17491672Y-2339549D01*
X17445318Y-2447700D01*
X17420854Y-2562795D01*
X17419211Y-2680450D01*
X17440452Y-2796183D01*
X17483768Y-2905586D01*
X17547509Y-3004492D01*
X17629247Y-3089134D01*
X17725868Y-3156287D01*
X17833693Y-3203395D01*
X17948614Y-3228662D01*
X18066254Y-3231126D01*
X18182133Y-3210694D01*
X18291835Y-3168143D01*
X18391184Y-3105094D01*
X18476395Y-3023949D01*
X18544221Y-2927799D01*
X18592080Y-2820306D01*
X18618149Y-2705564D01*
X18620026Y-2571167D01*
X18597171Y-2455742D01*
X18552332Y-2346954D01*
X18487216Y-2248948D01*
X18404305Y-2165455D01*
X18306755Y-2099657D01*
X18254726Y-2077786D01*
X19314030Y-1876884D01*
X20392367Y-1787022D01*
X21089654Y-2719538D01*
X21107566Y-2739163D01*
X21124211Y-2759865D01*
X21133820Y-2767928D01*
X21142281Y-2777198D01*
X21163665Y-2792971D01*
X21184013Y-2810045D01*
X21195008Y-2816089D01*
X21205106Y-2823538D01*
X21229141Y-2834854D01*
X21252423Y-2847654D01*
X21264385Y-2851449D01*
X21275736Y-2856793D01*
X21301509Y-2863225D01*
X21326835Y-2871259D01*
X21339305Y-2872658D01*
X21351479Y-2875696D01*
X21378010Y-2876999D01*
X21404415Y-2879961D01*
X21410000Y-2880000D01*
X21970000Y-2880000D01*
X21992675Y-2877777D01*
X22015455Y-2877409D01*
X22031431Y-2873977D01*
X22047694Y-2872382D01*
X22069508Y-2865796D01*
X22091779Y-2861011D01*
X22106783Y-2854542D01*
X22122428Y-2849818D01*
X22142544Y-2839122D01*
X22163466Y-2830101D01*
X22176929Y-2820839D01*
X22191357Y-2813168D01*
X22209012Y-2798769D01*
X22227783Y-2785856D01*
X22239191Y-2774156D01*
X22251854Y-2763828D01*
X22266377Y-2746273D01*
X22282281Y-2729961D01*
X22285741Y-2725576D01*
X22650297Y-2256861D01*
X23146817Y-2274131D01*
X23219247Y-2349134D01*
X23315868Y-2416287D01*
X23423693Y-2463395D01*
X23538614Y-2488662D01*
X23656254Y-2491126D01*
X23772133Y-2470694D01*
X23881835Y-2428143D01*
X23981184Y-2365094D01*
X24039940Y-2309141D01*
X24059247Y-2329134D01*
X24155868Y-2396287D01*
X24263693Y-2443395D01*
X24378614Y-2468662D01*
X24496254Y-2471126D01*
X24612133Y-2450694D01*
X24721835Y-2408143D01*
X24819797Y-2345974D01*
X24857509Y-2404492D01*
X24939247Y-2489134D01*
X25035868Y-2556287D01*
X25143693Y-2603395D01*
X25258614Y-2628662D01*
X25376254Y-2631126D01*
X25492133Y-2610694D01*
X25601835Y-2568143D01*
X25701184Y-2505094D01*
X25786395Y-2423949D01*
X25854221Y-2327799D01*
X25902080Y-2220306D01*
X25928149Y-2105564D01*
X25930026Y-1971167D01*
X25907171Y-1855742D01*
X25862332Y-1746954D01*
X25797216Y-1648948D01*
X25714305Y-1565455D01*
X25616755Y-1499657D01*
X25508283Y-1454060D01*
X25393021Y-1430400D01*
X25275357Y-1429578D01*
X25159775Y-1451627D01*
X25050677Y-1495705D01*
X24960788Y-1554528D01*
X24917216Y-1488948D01*
X24834305Y-1405455D01*
X24736755Y-1339657D01*
X24628283Y-1294060D01*
X24513021Y-1270400D01*
X24395357Y-1269578D01*
X24279775Y-1291627D01*
X24170677Y-1335705D01*
X24072219Y-1400135D01*
X24019970Y-1451300D01*
X23994305Y-1425455D01*
X23896755Y-1359657D01*
X23788283Y-1314060D01*
X23673021Y-1290400D01*
X23555357Y-1289578D01*
X23439775Y-1311627D01*
X23330677Y-1355705D01*
X23232219Y-1420135D01*
X23176518Y-1474681D01*
X22473905Y-1450242D01*
X22444252Y-1452111D01*
X22414546Y-1452591D01*
X22405367Y-1454563D01*
X22395993Y-1455154D01*
X22367274Y-1462746D01*
X22338221Y-1468988D01*
X22329593Y-1472708D01*
X22320520Y-1475107D01*
X22293835Y-1488127D01*
X22266535Y-1499898D01*
X22258795Y-1505223D01*
X22250358Y-1509339D01*
X22226701Y-1527301D01*
X22219301Y-1532392D01*
X22157216Y-1438948D01*
X22074305Y-1355455D01*
X21976755Y-1289657D01*
X21868283Y-1244060D01*
X21753021Y-1220400D01*
X21738227Y-1220297D01*
X21465592Y-859456D01*
X21701997Y-850000D01*
X22498349Y-850000D01*
X23994159Y-899860D01*
X23994159Y-899860D01*
G37*
X23994159Y-899860D02*
X25187617Y-999315D01*
X26382664Y-1198490D01*
X27726108Y-1447276D01*
X29669499Y-2045242D01*
X30264334Y-2243520D01*
X30751698Y-2453591D01*
X28175805Y-9045997D01*
X28136755Y-9019657D01*
X28028283Y-8974060D01*
X27913021Y-8950400D01*
X27795357Y-8949578D01*
X27679775Y-8971627D01*
X27570677Y-9015705D01*
X27472219Y-9080135D01*
X27388150Y-9162461D01*
X27341089Y-9231191D01*
X27299372Y-9238322D01*
X27192407Y-9130607D01*
X27062341Y-9042876D01*
X26917711Y-8982079D01*
X26764027Y-8950533D01*
X26607143Y-8949437D01*
X26453034Y-8978835D01*
X26307570Y-9037607D01*
X26176291Y-9123513D01*
X26150431Y-9148837D01*
X26137216Y-9128948D01*
X26054305Y-9045455D01*
X25956755Y-8979657D01*
X25848283Y-8934060D01*
X25733021Y-8910400D01*
X25615357Y-8909578D01*
X25499775Y-8931627D01*
X25390677Y-8975705D01*
X25361223Y-8994979D01*
X25357216Y-8988948D01*
X25274305Y-8905455D01*
X25176755Y-8839657D01*
X25068283Y-8794060D01*
X24953021Y-8770400D01*
X24835357Y-8769578D01*
X24719775Y-8791627D01*
X24610677Y-8835705D01*
X24512219Y-8900135D01*
X24503575Y-8908600D01*
X24125114Y-8441667D01*
X24950439Y-8551711D01*
X24973327Y-8552508D01*
X24996073Y-8554979D01*
X25009801Y-8553778D01*
X25023582Y-8554258D01*
X25046180Y-8550596D01*
X25068982Y-8548601D01*
X25082219Y-8544755D01*
X25095826Y-8542550D01*
X25117281Y-8534568D01*
X25139263Y-8528182D01*
X25151501Y-8521839D01*
X25164421Y-8517032D01*
X25183924Y-8505032D01*
X25204239Y-8494501D01*
X25215004Y-8485907D01*
X25226753Y-8478678D01*
X25243561Y-8463110D01*
X25261436Y-8448841D01*
X25265165Y-8445165D01*
X25985025Y-7725305D01*
X26067157Y-7740844D01*
X26127509Y-7834492D01*
X26209247Y-7919134D01*
X26305868Y-7986287D01*
X26413693Y-8033395D01*
X26528614Y-8058662D01*
X26646254Y-8061126D01*
X26762133Y-8040694D01*
X26871835Y-7998143D01*
X26971184Y-7935094D01*
X27056395Y-7853949D01*
X27124221Y-7757799D01*
X27172080Y-7650306D01*
X27198149Y-7535564D01*
X27200026Y-7401167D01*
X27177171Y-7285742D01*
X27132332Y-7176954D01*
X27067216Y-7078948D01*
X26984305Y-6995455D01*
X26886755Y-6929657D01*
X26778283Y-6884060D01*
X26663021Y-6860400D01*
X26545357Y-6859578D01*
X26429775Y-6881627D01*
X26320677Y-6925705D01*
X26222219Y-6990135D01*
X26207892Y-7004165D01*
X25929709Y-6951536D01*
X25896831Y-6948594D01*
X25863927Y-6945020D01*
X25860364Y-6945332D01*
X25856813Y-6945014D01*
X25824007Y-6948512D01*
X25791018Y-6951398D01*
X25787583Y-6952396D01*
X25784039Y-6952774D01*
X25752497Y-6962590D01*
X25720737Y-6971818D01*
X25717569Y-6973460D01*
X25714157Y-6974522D01*
X25685089Y-6990296D01*
X25655761Y-7005498D01*
X25652972Y-7007725D01*
X25649831Y-7009429D01*
X25624386Y-7030544D01*
X25598564Y-7051158D01*
X25594835Y-7054835D01*
X24865872Y-7783798D01*
X24324394Y-7711601D01*
X24336250Y-7656961D01*
X24000000Y-7320711D01*
X23985858Y-7334853D01*
X23915147Y-7264142D01*
X23929289Y-7250000D01*
X24070711Y-7250000D01*
X24406961Y-7586250D01*
X24515467Y-7562706D01*
X24566569Y-7456135D01*
X24595897Y-7341642D01*
X24602326Y-7223628D01*
X24585608Y-7106626D01*
X24546386Y-6995135D01*
X24515467Y-6937294D01*
X24406961Y-6913750D01*
X24070711Y-7250000D01*
X23929289Y-7250000D01*
X23593039Y-6913750D01*
X23500000Y-6933938D01*
X23406961Y-6913750D01*
X23070711Y-7250000D01*
X23084853Y-7264142D01*
X23014142Y-7334853D01*
X23000000Y-7320711D01*
X22985858Y-7334853D01*
X22915147Y-7264142D01*
X22929289Y-7250000D01*
X22593039Y-6913750D01*
X22500000Y-6933938D01*
X22406961Y-6913750D01*
X22070711Y-7250000D01*
X22084853Y-7264142D01*
X22014142Y-7334853D01*
X22000000Y-7320711D01*
X21985858Y-7334853D01*
X21915147Y-7264142D01*
X21929289Y-7250000D01*
X21593039Y-6913750D01*
X21500000Y-6933938D01*
X21406961Y-6913750D01*
X21070711Y-7250000D01*
X21084853Y-7264142D01*
X21014142Y-7334853D01*
X21000000Y-7320711D01*
X20663750Y-7656961D01*
X20668056Y-7676807D01*
X20658784Y-7678401D01*
X20644558Y-7679122D01*
X20639385Y-7679931D01*
X19640334Y-7843569D01*
X18906679Y-7276372D01*
X20397674Y-7276372D01*
X20414392Y-7393374D01*
X20453614Y-7504865D01*
X20484533Y-7562706D01*
X20593039Y-7586250D01*
X20929289Y-7250000D01*
X20593039Y-6913750D01*
X20484533Y-6937294D01*
X20433431Y-7043865D01*
X20404103Y-7158358D01*
X20397674Y-7276372D01*
X18906679Y-7276372D01*
X18853568Y-7235312D01*
X18901184Y-7205094D01*
X18986395Y-7123949D01*
X19054221Y-7027799D01*
X19102080Y-6920306D01*
X19128149Y-6805564D01*
X19130026Y-6671167D01*
X19127214Y-6656961D01*
X20663750Y-6656961D01*
X20683938Y-6750000D01*
X20663750Y-6843039D01*
X21000000Y-7179289D01*
X21336250Y-6843039D01*
X21316062Y-6750000D01*
X21336250Y-6656961D01*
X21663750Y-6656961D01*
X21683938Y-6750000D01*
X21663750Y-6843039D01*
X22000000Y-7179289D01*
X22336250Y-6843039D01*
X22316062Y-6750000D01*
X22336250Y-6656961D01*
X22663750Y-6656961D01*
X22683938Y-6750000D01*
X22663750Y-6843039D01*
X23000000Y-7179289D01*
X23336250Y-6843039D01*
X23316062Y-6750000D01*
X23336250Y-6656961D01*
X23663750Y-6656961D01*
X23683938Y-6750000D01*
X23663750Y-6843039D01*
X24000000Y-7179289D01*
X24336250Y-6843039D01*
X24316062Y-6750000D01*
X24336250Y-6656961D01*
X24000000Y-6320711D01*
X23663750Y-6656961D01*
X23336250Y-6656961D01*
X23000000Y-6320711D01*
X22663750Y-6656961D01*
X22336250Y-6656961D01*
X22000000Y-6320711D01*
X21663750Y-6656961D01*
X21336250Y-6656961D01*
X21000000Y-6320711D01*
X20663750Y-6656961D01*
X19127214Y-6656961D01*
X19107171Y-6555742D01*
X19062332Y-6446954D01*
X18997216Y-6348948D01*
X18925146Y-6276372D01*
X20397674Y-6276372D01*
X20414392Y-6393374D01*
X20453614Y-6504865D01*
X20484533Y-6562706D01*
X20593039Y-6586250D01*
X20929289Y-6250000D01*
X21070711Y-6250000D01*
X21406961Y-6586250D01*
X21500000Y-6566062D01*
X21593039Y-6586250D01*
X21929289Y-6250000D01*
X22070711Y-6250000D01*
X22406961Y-6586250D01*
X22500000Y-6566062D01*
X22593039Y-6586250D01*
X22929289Y-6250000D01*
X23070711Y-6250000D01*
X23406961Y-6586250D01*
X23500000Y-6566062D01*
X23593039Y-6586250D01*
X23929289Y-6250000D01*
X24070711Y-6250000D01*
X24406961Y-6586250D01*
X24515467Y-6562706D01*
X24566569Y-6456135D01*
X24595897Y-6341642D01*
X24602326Y-6223628D01*
X24585608Y-6106626D01*
X24546386Y-5995135D01*
X24515467Y-5937294D01*
X24406961Y-5913750D01*
X24070711Y-6250000D01*
X23929289Y-6250000D01*
X23593039Y-5913750D01*
X23500000Y-5933938D01*
X23406961Y-5913750D01*
X23070711Y-6250000D01*
X22929289Y-6250000D01*
X22593039Y-5913750D01*
X22500000Y-5933938D01*
X22406961Y-5913750D01*
X22070711Y-6250000D01*
X21929289Y-6250000D01*
X21593039Y-5913750D01*
X21500000Y-5933938D01*
X21406961Y-5913750D01*
X21070711Y-6250000D01*
X20929289Y-6250000D01*
X20593039Y-5913750D01*
X20484533Y-5937294D01*
X20433431Y-6043865D01*
X20404103Y-6158358D01*
X20397674Y-6276372D01*
X18925146Y-6276372D01*
X18914305Y-6265455D01*
X18816755Y-6199657D01*
X18708283Y-6154060D01*
X18593021Y-6130400D01*
X18475357Y-6129578D01*
X18359775Y-6151627D01*
X18250677Y-6195705D01*
X18152219Y-6260135D01*
X18139594Y-6272499D01*
X17438785Y-5732876D01*
X17432159Y-5728736D01*
X17426248Y-5723631D01*
X17401175Y-5709379D01*
X17376716Y-5694097D01*
X17369413Y-5691323D01*
X17362622Y-5687463D01*
X17335264Y-5678354D01*
X17308298Y-5668112D01*
X17300594Y-5666810D01*
X17293183Y-5664342D01*
X17264568Y-5660719D01*
X17242339Y-5656961D01*
X20663750Y-5656961D01*
X20683938Y-5750000D01*
X20663750Y-5843039D01*
X21000000Y-6179289D01*
X21336250Y-5843039D01*
X21316062Y-5750000D01*
X21336250Y-5656961D01*
X21663750Y-5656961D01*
X21683938Y-5750000D01*
X21663750Y-5843039D01*
X22000000Y-6179289D01*
X22336250Y-5843039D01*
X22316062Y-5750000D01*
X22336250Y-5656961D01*
X22663750Y-5656961D01*
X22683938Y-5750000D01*
X22663750Y-5843039D01*
X23000000Y-6179289D01*
X23336250Y-5843039D01*
X23316062Y-5750000D01*
X23336250Y-5656961D01*
X23663750Y-5656961D01*
X23683938Y-5750000D01*
X23663750Y-5843039D01*
X24000000Y-6179289D01*
X24336250Y-5843039D01*
X24316062Y-5750000D01*
X24336250Y-5656961D01*
X24000000Y-5320711D01*
X23663750Y-5656961D01*
X23336250Y-5656961D01*
X23000000Y-5320711D01*
X22663750Y-5656961D01*
X22336250Y-5656961D01*
X22000000Y-5320711D01*
X21663750Y-5656961D01*
X21336250Y-5656961D01*
X21000000Y-5320711D01*
X20663750Y-5656961D01*
X17242339Y-5656961D01*
X17236134Y-5655912D01*
X17228327Y-5656131D01*
X17220575Y-5655149D01*
X17191801Y-5657153D01*
X17162976Y-5657960D01*
X17155359Y-5659691D01*
X17147565Y-5660234D01*
X17119720Y-5667791D01*
X17091608Y-5674180D01*
X17084476Y-5677356D01*
X17076933Y-5679403D01*
X17072051Y-5681295D01*
X15252051Y-6401295D01*
X15248059Y-6403345D01*
X15243780Y-6404682D01*
X15238973Y-6406757D01*
X14585576Y-6694252D01*
X14596395Y-6683949D01*
X14664221Y-6587799D01*
X14712080Y-6480306D01*
X14738149Y-6365564D01*
X14740026Y-6231167D01*
X14717171Y-6115742D01*
X14672332Y-6006954D01*
X14607216Y-5908948D01*
X14524305Y-5825455D01*
X14426755Y-5759657D01*
X14318283Y-5714060D01*
X14203021Y-5690400D01*
X14085357Y-5689578D01*
X13969775Y-5711627D01*
X13860677Y-5755705D01*
X13762219Y-5820135D01*
X13678150Y-5902461D01*
X13611672Y-5999549D01*
X13565318Y-6107700D01*
X13544100Y-6207523D01*
X13488283Y-6184060D01*
X13373021Y-6160400D01*
X13255357Y-6159578D01*
X13139775Y-6181627D01*
X13030677Y-6225705D01*
X12932219Y-6290135D01*
X12848150Y-6372461D01*
X12781672Y-6469549D01*
X12735318Y-6577700D01*
X12710854Y-6692795D01*
X12709211Y-6810450D01*
X12730452Y-6926183D01*
X12773768Y-7035586D01*
X12837509Y-7134492D01*
X12919247Y-7219134D01*
X13015868Y-7286287D01*
X13123693Y-7333395D01*
X13238614Y-7358662D01*
X13290902Y-7359757D01*
X12781565Y-7655782D01*
X12769971Y-7664133D01*
X12757470Y-7671041D01*
X12753177Y-7674038D01*
X11583010Y-8503290D01*
X11171397Y-8497410D01*
X10784536Y-8058786D01*
X10896254Y-8061126D01*
X11012133Y-8040694D01*
X11121835Y-7998143D01*
X11221184Y-7935094D01*
X11306395Y-7853949D01*
X11374221Y-7757799D01*
X11422080Y-7650306D01*
X11448149Y-7535564D01*
X11448658Y-7499134D01*
X11561672Y-7501502D01*
X11716177Y-7474258D01*
X11862447Y-7417524D01*
X11994912Y-7333459D01*
X12108526Y-7225266D01*
X12198962Y-7097066D01*
X12262774Y-6953741D01*
X12297532Y-6800752D01*
X12300034Y-6621556D01*
X12269561Y-6467656D01*
X12209776Y-6322605D01*
X12122955Y-6191930D01*
X12012407Y-6080607D01*
X11882341Y-5992876D01*
X11737711Y-5932079D01*
X11725964Y-5929668D01*
X11748962Y-5897066D01*
X11812774Y-5753741D01*
X11847532Y-5600752D01*
X11850034Y-5421556D01*
X11821287Y-5276372D01*
X20397674Y-5276372D01*
X20414392Y-5393374D01*
X20453614Y-5504865D01*
X20484533Y-5562706D01*
X20593039Y-5586250D01*
X20929289Y-5250000D01*
X21070711Y-5250000D01*
X21406961Y-5586250D01*
X21500000Y-5566062D01*
X21593039Y-5586250D01*
X21929289Y-5250000D01*
X22070711Y-5250000D01*
X22406961Y-5586250D01*
X22500000Y-5566062D01*
X22593039Y-5586250D01*
X22929289Y-5250000D01*
X23070711Y-5250000D01*
X23406961Y-5586250D01*
X23500000Y-5566062D01*
X23593039Y-5586250D01*
X23929289Y-5250000D01*
X24070711Y-5250000D01*
X24406961Y-5586250D01*
X24515467Y-5562706D01*
X24566569Y-5456135D01*
X24595897Y-5341642D01*
X24602326Y-5223628D01*
X24585608Y-5106626D01*
X24546386Y-4995135D01*
X24515467Y-4937294D01*
X24406961Y-4913750D01*
X24070711Y-5250000D01*
X23929289Y-5250000D01*
X23593039Y-4913750D01*
X23500000Y-4933938D01*
X23406961Y-4913750D01*
X23070711Y-5250000D01*
X22929289Y-5250000D01*
X22593039Y-4913750D01*
X22500000Y-4933938D01*
X22406961Y-4913750D01*
X22070711Y-5250000D01*
X21929289Y-5250000D01*
X21593039Y-4913750D01*
X21500000Y-4933938D01*
X21406961Y-4913750D01*
X21070711Y-5250000D01*
X20929289Y-5250000D01*
X20593039Y-4913750D01*
X20484533Y-4937294D01*
X20433431Y-5043865D01*
X20404103Y-5158358D01*
X20397674Y-5276372D01*
X11821287Y-5276372D01*
X11819561Y-5267656D01*
X11759776Y-5122605D01*
X11672955Y-4991930D01*
X11562407Y-4880607D01*
X11432341Y-4792876D01*
X11393784Y-4776668D01*
X11600969Y-4656961D01*
X20663750Y-4656961D01*
X20683938Y-4750000D01*
X20663750Y-4843039D01*
X21000000Y-5179289D01*
X21336250Y-4843039D01*
X21316062Y-4750000D01*
X21336250Y-4656961D01*
X21663750Y-4656961D01*
X21683938Y-4750000D01*
X21663750Y-4843039D01*
X22000000Y-5179289D01*
X22336250Y-4843039D01*
X22316062Y-4750000D01*
X22336250Y-4656961D01*
X22663750Y-4656961D01*
X22683938Y-4750000D01*
X22663750Y-4843039D01*
X23000000Y-5179289D01*
X23336250Y-4843039D01*
X23316062Y-4750000D01*
X23336250Y-4656961D01*
X23663750Y-4656961D01*
X23683938Y-4750000D01*
X23663750Y-4843039D01*
X24000000Y-5179289D01*
X24336250Y-4843039D01*
X24316062Y-4750000D01*
X24336250Y-4656961D01*
X24000000Y-4320711D01*
X23663750Y-4656961D01*
X23336250Y-4656961D01*
X23000000Y-4320711D01*
X22663750Y-4656961D01*
X22336250Y-4656961D01*
X22000000Y-4320711D01*
X21663750Y-4656961D01*
X21336250Y-4656961D01*
X21000000Y-4320711D01*
X20663750Y-4656961D01*
X11600969Y-4656961D01*
X12259681Y-4276372D01*
X20397674Y-4276372D01*
X20414392Y-4393374D01*
X20453614Y-4504865D01*
X20484533Y-4562706D01*
X20593039Y-4586250D01*
X20929289Y-4250000D01*
X21070711Y-4250000D01*
X21406961Y-4586250D01*
X21500000Y-4566062D01*
X21593039Y-4586250D01*
X21929289Y-4250000D01*
X22070711Y-4250000D01*
X22406961Y-4586250D01*
X22500000Y-4566062D01*
X22593039Y-4586250D01*
X22929289Y-4250000D01*
X23070711Y-4250000D01*
X23406961Y-4586250D01*
X23500000Y-4566062D01*
X23593039Y-4586250D01*
X23929289Y-4250000D01*
X24070711Y-4250000D01*
X24406961Y-4586250D01*
X24515467Y-4562706D01*
X24566569Y-4456135D01*
X24595897Y-4341642D01*
X24602326Y-4223628D01*
X24585608Y-4106626D01*
X24546386Y-3995135D01*
X24515467Y-3937294D01*
X24406961Y-3913750D01*
X24070711Y-4250000D01*
X23929289Y-4250000D01*
X23593039Y-3913750D01*
X23500000Y-3933938D01*
X23406961Y-3913750D01*
X23070711Y-4250000D01*
X22929289Y-4250000D01*
X22593039Y-3913750D01*
X22500000Y-3933938D01*
X22406961Y-3913750D01*
X22070711Y-4250000D01*
X21929289Y-4250000D01*
X21593039Y-3913750D01*
X21500000Y-3933938D01*
X21406961Y-3913750D01*
X21070711Y-4250000D01*
X20929289Y-4250000D01*
X20593039Y-3913750D01*
X20484533Y-3937294D01*
X20433431Y-4043865D01*
X20404103Y-4158358D01*
X20397674Y-4276372D01*
X12259681Y-4276372D01*
X12879965Y-3917986D01*
X13053483Y-3843039D01*
X20663750Y-3843039D01*
X21000000Y-4179289D01*
X21336250Y-3843039D01*
X21663750Y-3843039D01*
X22000000Y-4179289D01*
X22336250Y-3843039D01*
X22663750Y-3843039D01*
X23000000Y-4179289D01*
X23336250Y-3843039D01*
X23663750Y-3843039D01*
X24000000Y-4179289D01*
X24336250Y-3843039D01*
X24312706Y-3734533D01*
X24206135Y-3683431D01*
X24091642Y-3654103D01*
X23973628Y-3647674D01*
X23856626Y-3664392D01*
X23745135Y-3703614D01*
X23687294Y-3734533D01*
X23663750Y-3843039D01*
X23336250Y-3843039D01*
X23312706Y-3734533D01*
X23206135Y-3683431D01*
X23091642Y-3654103D01*
X22973628Y-3647674D01*
X22856626Y-3664392D01*
X22745135Y-3703614D01*
X22687294Y-3734533D01*
X22663750Y-3843039D01*
X22336250Y-3843039D01*
X22312706Y-3734533D01*
X22206135Y-3683431D01*
X22091642Y-3654103D01*
X21973628Y-3647674D01*
X21856626Y-3664392D01*
X21745135Y-3703614D01*
X21687294Y-3734533D01*
X21663750Y-3843039D01*
X21336250Y-3843039D01*
X21312706Y-3734533D01*
X21206135Y-3683431D01*
X21091642Y-3654103D01*
X20973628Y-3647674D01*
X20856626Y-3664392D01*
X20745135Y-3703614D01*
X20687294Y-3734533D01*
X20663750Y-3843039D01*
X13053483Y-3843039D01*
X14971391Y-3014647D01*
X16883392Y-2393740D01*
X17598364Y-2203081D01*
X17558150Y-2242461D01*
X17491672Y-2339549D01*
X17445318Y-2447700D01*
X17420854Y-2562795D01*
X17419211Y-2680450D01*
X17440452Y-2796183D01*
X17483768Y-2905586D01*
X17547509Y-3004492D01*
X17629247Y-3089134D01*
X17725868Y-3156287D01*
X17833693Y-3203395D01*
X17948614Y-3228662D01*
X18066254Y-3231126D01*
X18182133Y-3210694D01*
X18291835Y-3168143D01*
X18391184Y-3105094D01*
X18476395Y-3023949D01*
X18544221Y-2927799D01*
X18592080Y-2820306D01*
X18618149Y-2705564D01*
X18620026Y-2571167D01*
X18597171Y-2455742D01*
X18552332Y-2346954D01*
X18487216Y-2248948D01*
X18404305Y-2165455D01*
X18306755Y-2099657D01*
X18254726Y-2077786D01*
X19314030Y-1876884D01*
X20392367Y-1787022D01*
X21089654Y-2719538D01*
X21107566Y-2739163D01*
X21124211Y-2759865D01*
X21133820Y-2767928D01*
X21142281Y-2777198D01*
X21163665Y-2792971D01*
X21184013Y-2810045D01*
X21195008Y-2816089D01*
X21205106Y-2823538D01*
X21229141Y-2834854D01*
X21252423Y-2847654D01*
X21264385Y-2851449D01*
X21275736Y-2856793D01*
X21301509Y-2863225D01*
X21326835Y-2871259D01*
X21339305Y-2872658D01*
X21351479Y-2875696D01*
X21378010Y-2876999D01*
X21404415Y-2879961D01*
X21410000Y-2880000D01*
X21970000Y-2880000D01*
X21992675Y-2877777D01*
X22015455Y-2877409D01*
X22031431Y-2873977D01*
X22047694Y-2872382D01*
X22069508Y-2865796D01*
X22091779Y-2861011D01*
X22106783Y-2854542D01*
X22122428Y-2849818D01*
X22142544Y-2839122D01*
X22163466Y-2830101D01*
X22176929Y-2820839D01*
X22191357Y-2813168D01*
X22209012Y-2798769D01*
X22227783Y-2785856D01*
X22239191Y-2774156D01*
X22251854Y-2763828D01*
X22266377Y-2746273D01*
X22282281Y-2729961D01*
X22285741Y-2725576D01*
X22650297Y-2256861D01*
X23146817Y-2274131D01*
X23219247Y-2349134D01*
X23315868Y-2416287D01*
X23423693Y-2463395D01*
X23538614Y-2488662D01*
X23656254Y-2491126D01*
X23772133Y-2470694D01*
X23881835Y-2428143D01*
X23981184Y-2365094D01*
X24039940Y-2309141D01*
X24059247Y-2329134D01*
X24155868Y-2396287D01*
X24263693Y-2443395D01*
X24378614Y-2468662D01*
X24496254Y-2471126D01*
X24612133Y-2450694D01*
X24721835Y-2408143D01*
X24819797Y-2345974D01*
X24857509Y-2404492D01*
X24939247Y-2489134D01*
X25035868Y-2556287D01*
X25143693Y-2603395D01*
X25258614Y-2628662D01*
X25376254Y-2631126D01*
X25492133Y-2610694D01*
X25601835Y-2568143D01*
X25701184Y-2505094D01*
X25786395Y-2423949D01*
X25854221Y-2327799D01*
X25902080Y-2220306D01*
X25928149Y-2105564D01*
X25930026Y-1971167D01*
X25907171Y-1855742D01*
X25862332Y-1746954D01*
X25797216Y-1648948D01*
X25714305Y-1565455D01*
X25616755Y-1499657D01*
X25508283Y-1454060D01*
X25393021Y-1430400D01*
X25275357Y-1429578D01*
X25159775Y-1451627D01*
X25050677Y-1495705D01*
X24960788Y-1554528D01*
X24917216Y-1488948D01*
X24834305Y-1405455D01*
X24736755Y-1339657D01*
X24628283Y-1294060D01*
X24513021Y-1270400D01*
X24395357Y-1269578D01*
X24279775Y-1291627D01*
X24170677Y-1335705D01*
X24072219Y-1400135D01*
X24019970Y-1451300D01*
X23994305Y-1425455D01*
X23896755Y-1359657D01*
X23788283Y-1314060D01*
X23673021Y-1290400D01*
X23555357Y-1289578D01*
X23439775Y-1311627D01*
X23330677Y-1355705D01*
X23232219Y-1420135D01*
X23176518Y-1474681D01*
X22473905Y-1450242D01*
X22444252Y-1452111D01*
X22414546Y-1452591D01*
X22405367Y-1454563D01*
X22395993Y-1455154D01*
X22367274Y-1462746D01*
X22338221Y-1468988D01*
X22329593Y-1472708D01*
X22320520Y-1475107D01*
X22293835Y-1488127D01*
X22266535Y-1499898D01*
X22258795Y-1505223D01*
X22250358Y-1509339D01*
X22226701Y-1527301D01*
X22219301Y-1532392D01*
X22157216Y-1438948D01*
X22074305Y-1355455D01*
X21976755Y-1289657D01*
X21868283Y-1244060D01*
X21753021Y-1220400D01*
X21738227Y-1220297D01*
X21465592Y-859456D01*
X21701997Y-850000D01*
X22498349Y-850000D01*
X23994159Y-899860D01*
M02*
