G04 #@! TF.FileFunction,Copper,L3,Inr,Signal*
%FSLAX46Y46*%
G04 Gerber Fmt 4.6, Leading zero omitted, Abs format (unit mm)*
G04 Created by KiCad (PCBNEW 4.0.1-stable) date 2016 January 15, Friday 23:52:05*
%MOMM*%
G01*
G04 APERTURE LIST*
%ADD10C,0.020000*%
%ADD11C,3.000000*%
%ADD12C,0.900000*%
%ADD13R,0.800000X0.800000*%
%ADD14C,1.600000*%
%ADD15C,0.600000*%
%ADD16C,0.200000*%
%ADD17C,0.150000*%
G04 APERTURE END LIST*
D10*
D11*
X12000000Y-12250000D03*
D12*
X960000Y-23385000D03*
D13*
X960000Y-22115000D03*
X2230000Y-23385000D03*
X2230000Y-22115000D03*
X3500000Y-23385000D03*
X3500000Y-22115000D03*
X4770000Y-23385000D03*
X4770000Y-22115000D03*
X6040000Y-23385000D03*
X6040000Y-22115000D03*
D14*
X12981497Y-29581497D02*
X15668503Y-32268503D01*
X15668503Y-13231497D02*
X12981497Y-15918503D01*
D15*
X21000000Y-4250000D03*
X22000000Y-4250000D03*
X23000000Y-4250000D03*
X24000000Y-4250000D03*
X21000000Y-5250000D03*
X22000000Y-5250000D03*
X23000000Y-5250000D03*
X24000000Y-5250000D03*
X21000000Y-6250000D03*
X22000000Y-6250000D03*
X23000000Y-6250000D03*
X24000000Y-6250000D03*
X21000000Y-7250000D03*
X22000000Y-7250000D03*
X23000000Y-7250000D03*
X24000000Y-7250000D03*
X3770000Y-17330000D03*
X7730199Y-10241985D03*
X15170000Y-10700000D03*
X30970000Y-12380000D03*
X21250000Y-9520000D03*
X8900000Y-17780000D03*
X8450000Y-16510000D03*
X7660000Y-18240000D03*
X25330000Y-2030000D03*
X18020000Y-2630000D03*
X2260000Y-15290000D03*
X7000000Y-20750000D03*
X28960000Y-4700000D03*
X27240000Y-8880000D03*
X27550000Y-7960000D03*
X27080000Y-1530000D03*
X26850000Y-2770000D03*
X29880000Y-2340000D03*
X1720000Y-17150000D03*
X4410000Y-11100000D03*
X1750000Y-21000000D03*
X8500000Y-8060000D03*
X12300000Y-7270000D03*
X18760000Y-9220000D03*
X15230000Y-3790000D03*
X15860000Y-10360000D03*
X12180000Y-4940000D03*
X9220000Y-14790000D03*
X9730000Y-16070000D03*
X5370000Y-9520000D03*
X23620000Y-1120000D03*
X5250000Y-17070000D03*
X16000000Y-9160000D03*
X6750000Y-28500000D03*
X7390000Y-24260000D03*
X16770000Y-9590000D03*
X8250000Y-24250000D03*
X22860000Y-9460000D03*
X17480000Y-10130000D03*
X26600000Y-7460000D03*
X25670000Y-9510000D03*
X5520000Y-20580000D03*
X17390000Y-8210000D03*
X23620000Y-9490000D03*
X5550000Y-15270000D03*
X24890000Y-9370000D03*
X4870000Y-19000000D03*
X10090000Y-14540000D03*
X22100000Y-9460000D03*
X9810000Y-6290000D03*
X18530000Y-6730000D03*
X24450000Y-1870000D03*
X13310000Y-6760000D03*
X10850000Y-7460000D03*
X6580000Y-8040000D03*
X14250000Y-11200000D03*
X16450000Y-8470000D03*
X23610000Y-1890000D03*
X10360000Y-6840000D03*
X21690000Y-1820000D03*
X9360000Y-8200000D03*
X14140000Y-6290000D03*
X9310000Y-16930000D03*
X27850000Y-9550000D03*
X12800000Y-10380000D03*
X13510000Y-10940000D03*
D16*
X30970000Y-12380000D02*
X30590000Y-12440000D01*
X28190000Y-10930000D02*
X26870000Y-10390000D01*
X29550000Y-11690000D02*
X28190000Y-10930000D01*
X30590000Y-12440000D02*
X29550000Y-11690000D01*
X960000Y-23385000D02*
X970000Y-24250000D01*
X7000000Y-23750000D02*
X7000000Y-22500000D01*
X6500000Y-24250000D02*
X7000000Y-23750000D01*
X970000Y-24250000D02*
X6500000Y-24250000D01*
X9461379Y-19242168D02*
X9200000Y-20350000D01*
D17*
X16390000Y-10700000D02*
X16770000Y-9590000D01*
D16*
X10460000Y-17590000D02*
X11070000Y-16360000D01*
X11070000Y-16360000D02*
X11890000Y-15090000D01*
X11890000Y-15090000D02*
X12200000Y-14750000D01*
X12200000Y-14750000D02*
X13282696Y-13550866D01*
X13282696Y-13550866D02*
X14500000Y-12450000D01*
X14700000Y-11750000D02*
X14500000Y-12450000D01*
X9962986Y-19016642D02*
X9461379Y-19242168D01*
X9962986Y-19016642D02*
X10460000Y-17590000D01*
D17*
X14700000Y-11750000D02*
X16390000Y-10700000D01*
D16*
X9000000Y-23550000D02*
X8250000Y-24250000D01*
X9000000Y-21950000D02*
X9000000Y-23550000D01*
X9200000Y-20350000D02*
X9000000Y-21950000D01*
X13220000Y-3940000D02*
X12510000Y-4340000D01*
X23900000Y-2490000D02*
X21220000Y-2480000D01*
X21220000Y-2480000D02*
X20140000Y-980000D01*
X20140000Y-980000D02*
X18660000Y-1190000D01*
X18660000Y-1190000D02*
X16870000Y-1590000D01*
X16870000Y-1590000D02*
X15490000Y-2000000D01*
X15490000Y-2000000D02*
X15270000Y-3030000D01*
X15270000Y-3030000D02*
X14400000Y-3370000D01*
X14400000Y-3370000D02*
X13220000Y-3940000D01*
X24450000Y-1870000D02*
X23900000Y-2490000D01*
X11870000Y-6680000D02*
X10850000Y-7460000D01*
X11950000Y-6260000D02*
X11870000Y-6680000D01*
X11420000Y-5300000D02*
X11950000Y-6260000D01*
X11490000Y-4580000D02*
X11420000Y-5300000D01*
X12100000Y-4240000D02*
X11490000Y-4580000D01*
X12510000Y-4340000D02*
X12100000Y-4240000D01*
D17*
X13310000Y-6760000D02*
X13170000Y-7640000D01*
X10880000Y-7800000D02*
X10850000Y-7460000D01*
X11380000Y-8390000D02*
X10880000Y-7800000D01*
X12060000Y-8410000D02*
X11380000Y-8390000D01*
X12550000Y-8030000D02*
X12060000Y-8410000D01*
X13170000Y-7640000D02*
X12550000Y-8030000D01*
D16*
X10360000Y-6840000D02*
X9680000Y-7480000D01*
X7490000Y-8040000D02*
X6580000Y-8040000D01*
X8230000Y-7290000D02*
X7490000Y-8040000D01*
X9680000Y-7480000D02*
X8230000Y-7290000D01*
X14140000Y-6290000D02*
X13924715Y-7619144D01*
X9920000Y-8740000D02*
X9360000Y-8200000D01*
X12080000Y-8810000D02*
X9920000Y-8740000D01*
X12790000Y-8270000D02*
X12080000Y-8810000D01*
X13924715Y-7619144D02*
X12790000Y-8270000D01*
G36*
X25187617Y-999315D02*
X26382664Y-1198490D01*
X26557604Y-1230886D01*
X26551672Y-1239549D01*
X26505318Y-1347700D01*
X26480854Y-1462795D01*
X26479211Y-1580450D01*
X26500452Y-1696183D01*
X26543768Y-1805586D01*
X26607509Y-1904492D01*
X26689247Y-1989134D01*
X26785868Y-2056287D01*
X26893693Y-2103395D01*
X27008614Y-2128662D01*
X27126254Y-2131126D01*
X27242133Y-2110694D01*
X27351835Y-2068143D01*
X27451184Y-2005094D01*
X27536395Y-1923949D01*
X27604221Y-1827799D01*
X27652080Y-1720306D01*
X27678149Y-1605564D01*
X27680026Y-1471167D01*
X27673361Y-1437508D01*
X27726108Y-1447276D01*
X29409416Y-1965217D01*
X29351672Y-2049549D01*
X29305318Y-2157700D01*
X29280854Y-2272795D01*
X29279211Y-2390450D01*
X29300452Y-2506183D01*
X29343768Y-2615586D01*
X29407509Y-2714492D01*
X29489247Y-2799134D01*
X29585868Y-2866287D01*
X29693693Y-2913395D01*
X29808614Y-2938662D01*
X29893777Y-2940446D01*
X29387111Y-4278562D01*
X29344305Y-4235455D01*
X29246755Y-4169657D01*
X29138283Y-4124060D01*
X29023021Y-4100400D01*
X28905357Y-4099578D01*
X28789775Y-4121627D01*
X28680677Y-4165705D01*
X28582219Y-4230135D01*
X28498150Y-4312461D01*
X28431672Y-4409549D01*
X28385318Y-4517700D01*
X28360854Y-4632795D01*
X28359211Y-4750450D01*
X28366859Y-4792121D01*
X27942671Y-4645488D01*
X27935997Y-4643438D01*
X27155997Y-4433438D01*
X27151410Y-4432319D01*
X26421410Y-4272319D01*
X26416440Y-4271361D01*
X25756440Y-4161361D01*
X25755758Y-4161249D01*
X24815758Y-4011249D01*
X24787623Y-4010769D01*
X24760468Y-4018146D01*
X24736443Y-4032796D01*
X24717451Y-4053559D01*
X24704995Y-4078791D01*
X24700000Y-4110000D01*
X24700000Y-6650000D01*
X24703959Y-6677859D01*
X24715523Y-6703513D01*
X24733776Y-6724929D01*
X24757272Y-6740412D01*
X24784897Y-6748853D01*
X25501080Y-6858270D01*
X26192460Y-7019277D01*
X26138150Y-7072461D01*
X26071672Y-7169549D01*
X26025318Y-7277700D01*
X26000854Y-7392795D01*
X25999211Y-7510450D01*
X26020452Y-7626183D01*
X26063768Y-7735586D01*
X26127509Y-7834492D01*
X26209247Y-7919134D01*
X26305868Y-7986287D01*
X26413693Y-8033395D01*
X26528614Y-8058662D01*
X26646254Y-8061126D01*
X26762133Y-8040694D01*
X26871835Y-7998143D01*
X26950076Y-7948489D01*
X26949211Y-8010450D01*
X26970452Y-8126183D01*
X27013768Y-8235586D01*
X27059107Y-8305937D01*
X26960677Y-8345705D01*
X26862219Y-8410135D01*
X26778150Y-8492461D01*
X26711672Y-8589549D01*
X26665318Y-8697700D01*
X26640854Y-8812795D01*
X26639211Y-8930450D01*
X26660452Y-9046183D01*
X26703768Y-9155586D01*
X26767509Y-9254492D01*
X26849247Y-9339134D01*
X26945868Y-9406287D01*
X27053693Y-9453395D01*
X27168614Y-9478662D01*
X27251364Y-9480395D01*
X27250854Y-9482795D01*
X27249211Y-9600450D01*
X27270452Y-9716183D01*
X27299973Y-9790745D01*
X27032546Y-10497028D01*
X26286245Y-10206800D01*
X26274254Y-10202986D01*
X25828001Y-10091423D01*
X25832133Y-10090694D01*
X25941835Y-10048143D01*
X26041184Y-9985094D01*
X26126395Y-9903949D01*
X26194221Y-9807799D01*
X26242080Y-9700306D01*
X26268149Y-9585564D01*
X26270026Y-9451167D01*
X26247171Y-9335742D01*
X26202332Y-9226954D01*
X26137216Y-9128948D01*
X26054305Y-9045455D01*
X25956755Y-8979657D01*
X25848283Y-8934060D01*
X25733021Y-8910400D01*
X25615357Y-8909578D01*
X25499775Y-8931627D01*
X25390677Y-8975705D01*
X25361223Y-8994979D01*
X25357216Y-8988948D01*
X25274305Y-8905455D01*
X25176755Y-8839657D01*
X25068283Y-8794060D01*
X24953021Y-8770400D01*
X24835357Y-8769578D01*
X24719775Y-8791627D01*
X24610677Y-8835705D01*
X24512219Y-8900135D01*
X24428150Y-8982461D01*
X24361672Y-9079549D01*
X24315318Y-9187700D01*
X24290854Y-9302795D01*
X24289211Y-9420450D01*
X24310452Y-9536183D01*
X24353768Y-9645586D01*
X24417509Y-9744492D01*
X24473726Y-9802706D01*
X24468429Y-9801713D01*
X24461043Y-9800612D01*
X24153720Y-9766465D01*
X24192080Y-9680306D01*
X24218149Y-9565564D01*
X24220026Y-9431167D01*
X24197171Y-9315742D01*
X24152332Y-9206954D01*
X24087216Y-9108948D01*
X24004305Y-9025455D01*
X23906755Y-8959657D01*
X23798283Y-8914060D01*
X23683021Y-8890400D01*
X23565357Y-8889578D01*
X23449775Y-8911627D01*
X23340677Y-8955705D01*
X23258338Y-9009587D01*
X23244305Y-8995455D01*
X23146755Y-8929657D01*
X23038283Y-8884060D01*
X22923021Y-8860400D01*
X22805357Y-8859578D01*
X22689775Y-8881627D01*
X22580677Y-8925705D01*
X22482219Y-8990135D01*
X22479853Y-8992452D01*
X22386755Y-8929657D01*
X22278283Y-8884060D01*
X22163021Y-8860400D01*
X22045357Y-8859578D01*
X21929775Y-8881627D01*
X21820677Y-8925705D01*
X21722219Y-8990135D01*
X21638150Y-9072461D01*
X21571672Y-9169549D01*
X21525318Y-9277700D01*
X21500854Y-9392795D01*
X21499211Y-9510450D01*
X21520452Y-9626183D01*
X21546992Y-9693215D01*
X21395459Y-9700103D01*
X21386336Y-9700938D01*
X19936336Y-9900938D01*
X19925746Y-9902986D01*
X18925746Y-10152986D01*
X18918377Y-10155132D01*
X17974660Y-10469704D01*
X18004221Y-10427799D01*
X18052080Y-10320306D01*
X18078149Y-10205564D01*
X18080026Y-10071167D01*
X18057171Y-9955742D01*
X18012332Y-9846954D01*
X17947216Y-9748948D01*
X17864305Y-9665455D01*
X17766755Y-9599657D01*
X17658283Y-9554060D01*
X17543021Y-9530400D01*
X17425357Y-9529578D01*
X17369900Y-9540157D01*
X17370026Y-9531167D01*
X17347171Y-9415742D01*
X17302332Y-9306954D01*
X17278079Y-9270450D01*
X18159211Y-9270450D01*
X18180452Y-9386183D01*
X18223768Y-9495586D01*
X18287509Y-9594492D01*
X18369247Y-9679134D01*
X18465868Y-9746287D01*
X18573693Y-9793395D01*
X18688614Y-9818662D01*
X18806254Y-9821126D01*
X18922133Y-9800694D01*
X19031835Y-9758143D01*
X19131184Y-9695094D01*
X19216395Y-9613949D01*
X19284221Y-9517799D01*
X19332080Y-9410306D01*
X19358149Y-9295564D01*
X19360026Y-9161167D01*
X19337171Y-9045742D01*
X19292332Y-8936954D01*
X19227216Y-8838948D01*
X19144305Y-8755455D01*
X19046755Y-8689657D01*
X18938283Y-8644060D01*
X18823021Y-8620400D01*
X18705357Y-8619578D01*
X18589775Y-8641627D01*
X18480677Y-8685705D01*
X18382219Y-8750135D01*
X18298150Y-8832461D01*
X18231672Y-8929549D01*
X18185318Y-9037700D01*
X18160854Y-9152795D01*
X18159211Y-9270450D01*
X17278079Y-9270450D01*
X17237216Y-9208948D01*
X17154305Y-9125455D01*
X17056755Y-9059657D01*
X16948283Y-9014060D01*
X16833021Y-8990400D01*
X16750700Y-8989825D01*
X16821184Y-8945094D01*
X16906395Y-8863949D01*
X16974221Y-8767799D01*
X17013683Y-8679167D01*
X17095868Y-8736287D01*
X17203693Y-8783395D01*
X17318614Y-8808662D01*
X17436254Y-8811126D01*
X17552133Y-8790694D01*
X17661835Y-8748143D01*
X17761184Y-8685094D01*
X17846395Y-8603949D01*
X17914221Y-8507799D01*
X17962080Y-8400306D01*
X17988149Y-8285564D01*
X17990026Y-8151167D01*
X17967171Y-8035742D01*
X17922332Y-7926954D01*
X17857216Y-7828948D01*
X17774305Y-7745455D01*
X17676755Y-7679657D01*
X17568283Y-7634060D01*
X17453021Y-7610400D01*
X17335357Y-7609578D01*
X17219775Y-7631627D01*
X17110677Y-7675705D01*
X17012219Y-7740135D01*
X16928150Y-7822461D01*
X16861672Y-7919549D01*
X16826972Y-8000509D01*
X16736755Y-7939657D01*
X16628283Y-7894060D01*
X16513021Y-7870400D01*
X16395357Y-7869578D01*
X16279775Y-7891627D01*
X16170677Y-7935705D01*
X16072219Y-8000135D01*
X15988150Y-8082461D01*
X15921672Y-8179549D01*
X15875318Y-8287700D01*
X15850854Y-8402795D01*
X15849211Y-8520450D01*
X15859402Y-8575975D01*
X15829775Y-8581627D01*
X15720677Y-8625705D01*
X15622219Y-8690135D01*
X15538150Y-8772461D01*
X15471672Y-8869549D01*
X15425318Y-8977700D01*
X15400854Y-9092795D01*
X15399211Y-9210450D01*
X15420452Y-9326183D01*
X15463768Y-9435586D01*
X15527509Y-9534492D01*
X15609247Y-9619134D01*
X15705868Y-9686287D01*
X15813693Y-9733395D01*
X15928614Y-9758662D01*
X16046254Y-9761126D01*
X16162133Y-9740694D01*
X16185916Y-9731469D01*
X16190452Y-9756183D01*
X16233768Y-9865586D01*
X16263497Y-9911716D01*
X16262716Y-9913996D01*
X16244305Y-9895455D01*
X16146755Y-9829657D01*
X16038283Y-9784060D01*
X15923021Y-9760400D01*
X15805357Y-9759578D01*
X15689775Y-9781627D01*
X15580677Y-9825705D01*
X15482219Y-9890135D01*
X15398150Y-9972461D01*
X15331672Y-10069549D01*
X15285318Y-10177700D01*
X15260854Y-10292795D01*
X15259211Y-10410450D01*
X15280452Y-10526183D01*
X15323768Y-10635586D01*
X15387509Y-10734492D01*
X15469247Y-10819134D01*
X15477943Y-10825178D01*
X14848982Y-11215953D01*
X14850026Y-11141167D01*
X14827171Y-11025742D01*
X14782332Y-10916954D01*
X14717216Y-10818948D01*
X14634305Y-10735455D01*
X14536755Y-10669657D01*
X14428283Y-10624060D01*
X14313021Y-10600400D01*
X14195357Y-10599578D01*
X14079775Y-10621627D01*
X14031752Y-10641030D01*
X13977216Y-10558948D01*
X13894305Y-10475455D01*
X13796755Y-10409657D01*
X13688283Y-10364060D01*
X13573021Y-10340400D01*
X13455357Y-10339578D01*
X13399620Y-10350211D01*
X13400026Y-10321167D01*
X13377171Y-10205742D01*
X13332332Y-10096954D01*
X13267216Y-9998948D01*
X13184305Y-9915455D01*
X13086755Y-9849657D01*
X12978283Y-9804060D01*
X12863021Y-9780400D01*
X12745357Y-9779578D01*
X12629775Y-9801627D01*
X12520677Y-9845705D01*
X12422219Y-9910135D01*
X12338150Y-9992461D01*
X12271672Y-10089549D01*
X12225318Y-10197700D01*
X12200854Y-10312795D01*
X12199211Y-10430450D01*
X12203566Y-10454176D01*
X12189062Y-10451199D01*
X11836072Y-10448735D01*
X11489326Y-10514880D01*
X11162032Y-10647116D01*
X10866656Y-10840404D01*
X10614449Y-11087384D01*
X10415016Y-11378648D01*
X10275955Y-11703101D01*
X10202563Y-12048385D01*
X10197634Y-12401349D01*
X10261357Y-12748548D01*
X10391305Y-13076757D01*
X10582527Y-13373476D01*
X10827740Y-13627401D01*
X11117604Y-13828862D01*
X11441078Y-13970184D01*
X11785842Y-14045986D01*
X12138762Y-14053378D01*
X12318706Y-14021649D01*
X11903809Y-14481166D01*
X11594418Y-14820498D01*
X11576240Y-14844835D01*
X11557021Y-14868358D01*
X11553959Y-14873029D01*
X10733959Y-16143029D01*
X10724888Y-16160641D01*
X10714165Y-16177295D01*
X10711648Y-16182281D01*
X10101648Y-17412281D01*
X10093756Y-17433080D01*
X10084140Y-17453144D01*
X10082266Y-17458405D01*
X9641903Y-18722433D01*
X9297352Y-18877346D01*
X9276405Y-18889347D01*
X9254619Y-18899750D01*
X9242612Y-18908708D01*
X9229615Y-18916154D01*
X9211397Y-18931996D01*
X9192048Y-18946431D01*
X9182011Y-18957549D01*
X9170706Y-18967379D01*
X9155912Y-18986457D01*
X9139734Y-19004377D01*
X9132047Y-19017234D01*
X9122868Y-19029071D01*
X9112060Y-19050662D01*
X9099673Y-19071380D01*
X9094631Y-19085482D01*
X9087924Y-19098880D01*
X9081515Y-19122163D01*
X9073389Y-19144888D01*
X9072068Y-19150315D01*
X8810689Y-20258147D01*
X8808192Y-20276673D01*
X8803820Y-20294849D01*
X8803089Y-20300386D01*
X8603089Y-21900386D01*
X8602501Y-21922465D01*
X8600039Y-21944415D01*
X8600000Y-21950000D01*
X8600000Y-22650000D01*
X6706519Y-22650000D01*
X6729516Y-22598982D01*
X6741451Y-22515000D01*
X6741451Y-21715000D01*
X6737641Y-21667226D01*
X6712548Y-21586197D01*
X6665874Y-21515366D01*
X6601315Y-21460343D01*
X6523982Y-21425484D01*
X6440000Y-21413549D01*
X5640000Y-21413549D01*
X5592226Y-21417359D01*
X5511197Y-21442452D01*
X5440366Y-21489126D01*
X5405522Y-21530008D01*
X5395874Y-21515366D01*
X5331315Y-21460343D01*
X5253982Y-21425484D01*
X5170000Y-21413549D01*
X4370000Y-21413549D01*
X4322226Y-21417359D01*
X4241197Y-21442452D01*
X4170366Y-21489126D01*
X4135522Y-21530008D01*
X4125874Y-21515366D01*
X4061315Y-21460343D01*
X3983982Y-21425484D01*
X3900000Y-21413549D01*
X3100000Y-21413549D01*
X3052226Y-21417359D01*
X2971197Y-21442452D01*
X2900366Y-21489126D01*
X2865522Y-21530008D01*
X2855874Y-21515366D01*
X2791315Y-21460343D01*
X2713982Y-21425484D01*
X2630000Y-21413549D01*
X2185813Y-21413549D01*
X2206395Y-21393949D01*
X2274221Y-21297799D01*
X2322080Y-21190306D01*
X2348149Y-21075564D01*
X2350026Y-20941167D01*
X2327171Y-20825742D01*
X2282332Y-20716954D01*
X2224859Y-20630450D01*
X4919211Y-20630450D01*
X4940452Y-20746183D01*
X4983768Y-20855586D01*
X5047509Y-20954492D01*
X5129247Y-21039134D01*
X5225868Y-21106287D01*
X5333693Y-21153395D01*
X5448614Y-21178662D01*
X5566254Y-21181126D01*
X5682133Y-21160694D01*
X5791835Y-21118143D01*
X5891184Y-21055094D01*
X5976395Y-20973949D01*
X6044221Y-20877799D01*
X6078659Y-20800450D01*
X6399211Y-20800450D01*
X6420452Y-20916183D01*
X6463768Y-21025586D01*
X6527509Y-21124492D01*
X6609247Y-21209134D01*
X6705868Y-21276287D01*
X6813693Y-21323395D01*
X6928614Y-21348662D01*
X7046254Y-21351126D01*
X7162133Y-21330694D01*
X7271835Y-21288143D01*
X7371184Y-21225094D01*
X7456395Y-21143949D01*
X7524221Y-21047799D01*
X7572080Y-20940306D01*
X7598149Y-20825564D01*
X7600026Y-20691167D01*
X7577171Y-20575742D01*
X7532332Y-20466954D01*
X7467216Y-20368948D01*
X7384305Y-20285455D01*
X7286755Y-20219657D01*
X7178283Y-20174060D01*
X7063021Y-20150400D01*
X6945357Y-20149578D01*
X6829775Y-20171627D01*
X6720677Y-20215705D01*
X6622219Y-20280135D01*
X6538150Y-20362461D01*
X6471672Y-20459549D01*
X6425318Y-20567700D01*
X6400854Y-20682795D01*
X6399211Y-20800450D01*
X6078659Y-20800450D01*
X6092080Y-20770306D01*
X6118149Y-20655564D01*
X6120026Y-20521167D01*
X6097171Y-20405742D01*
X6052332Y-20296954D01*
X5987216Y-20198948D01*
X5904305Y-20115455D01*
X5806755Y-20049657D01*
X5698283Y-20004060D01*
X5583021Y-19980400D01*
X5465357Y-19979578D01*
X5349775Y-20001627D01*
X5240677Y-20045705D01*
X5142219Y-20110135D01*
X5058150Y-20192461D01*
X4991672Y-20289549D01*
X4945318Y-20397700D01*
X4920854Y-20512795D01*
X4919211Y-20630450D01*
X2224859Y-20630450D01*
X2217216Y-20618948D01*
X2134305Y-20535455D01*
X2036755Y-20469657D01*
X1928283Y-20424060D01*
X1813021Y-20400400D01*
X1695357Y-20399578D01*
X1579775Y-20421627D01*
X1470677Y-20465705D01*
X1372219Y-20530135D01*
X1288150Y-20612461D01*
X1221672Y-20709549D01*
X1175318Y-20817700D01*
X1150854Y-20932795D01*
X1149211Y-21050450D01*
X1170452Y-21166183D01*
X1213768Y-21275586D01*
X1277509Y-21374492D01*
X1315226Y-21413549D01*
X659496Y-21413549D01*
X699701Y-20508936D01*
X896793Y-19050450D01*
X4269211Y-19050450D01*
X4290452Y-19166183D01*
X4333768Y-19275586D01*
X4397509Y-19374492D01*
X4479247Y-19459134D01*
X4575868Y-19526287D01*
X4683693Y-19573395D01*
X4798614Y-19598662D01*
X4916254Y-19601126D01*
X5032133Y-19580694D01*
X5141835Y-19538143D01*
X5241184Y-19475094D01*
X5326395Y-19393949D01*
X5394221Y-19297799D01*
X5442080Y-19190306D01*
X5468149Y-19075564D01*
X5470026Y-18941167D01*
X5447171Y-18825742D01*
X5402332Y-18716954D01*
X5337216Y-18618948D01*
X5254305Y-18535455D01*
X5156755Y-18469657D01*
X5048283Y-18424060D01*
X4933021Y-18400400D01*
X4815357Y-18399578D01*
X4699775Y-18421627D01*
X4590677Y-18465705D01*
X4492219Y-18530135D01*
X4408150Y-18612461D01*
X4341672Y-18709549D01*
X4295318Y-18817700D01*
X4270854Y-18932795D01*
X4269211Y-19050450D01*
X896793Y-19050450D01*
X948479Y-18667978D01*
X1221628Y-17484333D01*
X1247509Y-17524492D01*
X1329247Y-17609134D01*
X1425868Y-17676287D01*
X1533693Y-17723395D01*
X1648614Y-17748662D01*
X1766254Y-17751126D01*
X1882133Y-17730694D01*
X1991835Y-17688143D01*
X2091184Y-17625094D01*
X2176395Y-17543949D01*
X2244221Y-17447799D01*
X2292080Y-17340306D01*
X2318149Y-17225564D01*
X2319617Y-17120450D01*
X4649211Y-17120450D01*
X4670452Y-17236183D01*
X4713768Y-17345586D01*
X4777509Y-17444492D01*
X4859247Y-17529134D01*
X4955868Y-17596287D01*
X5063693Y-17643395D01*
X5178614Y-17668662D01*
X5296254Y-17671126D01*
X5412133Y-17650694D01*
X5521835Y-17608143D01*
X5621184Y-17545094D01*
X5706395Y-17463949D01*
X5774221Y-17367799D01*
X5822080Y-17260306D01*
X5848149Y-17145564D01*
X5850026Y-17011167D01*
X5843944Y-16980450D01*
X8709211Y-16980450D01*
X8730452Y-17096183D01*
X8773768Y-17205586D01*
X8837509Y-17304492D01*
X8919247Y-17389134D01*
X9015868Y-17456287D01*
X9123693Y-17503395D01*
X9238614Y-17528662D01*
X9356254Y-17531126D01*
X9472133Y-17510694D01*
X9581835Y-17468143D01*
X9681184Y-17405094D01*
X9766395Y-17323949D01*
X9834221Y-17227799D01*
X9882080Y-17120306D01*
X9908149Y-17005564D01*
X9910026Y-16871167D01*
X9887171Y-16755742D01*
X9847143Y-16658627D01*
X9892133Y-16650694D01*
X10001835Y-16608143D01*
X10101184Y-16545094D01*
X10186395Y-16463949D01*
X10254221Y-16367799D01*
X10302080Y-16260306D01*
X10328149Y-16145564D01*
X10330026Y-16011167D01*
X10307171Y-15895742D01*
X10262332Y-15786954D01*
X10197216Y-15688948D01*
X10114305Y-15605455D01*
X10016755Y-15539657D01*
X9908283Y-15494060D01*
X9793021Y-15470400D01*
X9675357Y-15469578D01*
X9559775Y-15491627D01*
X9450677Y-15535705D01*
X9352219Y-15600135D01*
X9268150Y-15682461D01*
X9201672Y-15779549D01*
X9155318Y-15887700D01*
X9130854Y-16002795D01*
X9129211Y-16120450D01*
X9150452Y-16236183D01*
X9192200Y-16341626D01*
X9139775Y-16351627D01*
X9030677Y-16395705D01*
X8932219Y-16460135D01*
X8848150Y-16542461D01*
X8781672Y-16639549D01*
X8735318Y-16747700D01*
X8710854Y-16862795D01*
X8709211Y-16980450D01*
X5843944Y-16980450D01*
X5827171Y-16895742D01*
X5782332Y-16786954D01*
X5717216Y-16688948D01*
X5634305Y-16605455D01*
X5536755Y-16539657D01*
X5428283Y-16494060D01*
X5313021Y-16470400D01*
X5195357Y-16469578D01*
X5079775Y-16491627D01*
X4970677Y-16535705D01*
X4872219Y-16600135D01*
X4788150Y-16682461D01*
X4721672Y-16779549D01*
X4675318Y-16887700D01*
X4650854Y-17002795D01*
X4649211Y-17120450D01*
X2319617Y-17120450D01*
X2320026Y-17091167D01*
X2297171Y-16975742D01*
X2252332Y-16866954D01*
X2187216Y-16768948D01*
X2104305Y-16685455D01*
X2006755Y-16619657D01*
X1898283Y-16574060D01*
X1783021Y-16550400D01*
X1665357Y-16549578D01*
X1549775Y-16571627D01*
X1462929Y-16606715D01*
X1695119Y-15781148D01*
X1756758Y-15616777D01*
X1787509Y-15664492D01*
X1869247Y-15749134D01*
X1965868Y-15816287D01*
X2073693Y-15863395D01*
X2188614Y-15888662D01*
X2306254Y-15891126D01*
X2422133Y-15870694D01*
X2531835Y-15828143D01*
X2631184Y-15765094D01*
X2716395Y-15683949D01*
X2784221Y-15587799D01*
X2832080Y-15480306D01*
X2858149Y-15365564D01*
X2858779Y-15320450D01*
X4949211Y-15320450D01*
X4970452Y-15436183D01*
X5013768Y-15545586D01*
X5077509Y-15644492D01*
X5159247Y-15729134D01*
X5255868Y-15796287D01*
X5363693Y-15843395D01*
X5478614Y-15868662D01*
X5596254Y-15871126D01*
X5712133Y-15850694D01*
X5821835Y-15808143D01*
X5921184Y-15745094D01*
X6006395Y-15663949D01*
X6074221Y-15567799D01*
X6122080Y-15460306D01*
X6148149Y-15345564D01*
X6150026Y-15211167D01*
X6127171Y-15095742D01*
X6082332Y-14986954D01*
X6017216Y-14888948D01*
X5969057Y-14840450D01*
X8619211Y-14840450D01*
X8640452Y-14956183D01*
X8683768Y-15065586D01*
X8747509Y-15164492D01*
X8829247Y-15249134D01*
X8925868Y-15316287D01*
X9033693Y-15363395D01*
X9148614Y-15388662D01*
X9266254Y-15391126D01*
X9382133Y-15370694D01*
X9491835Y-15328143D01*
X9591184Y-15265094D01*
X9676395Y-15183949D01*
X9744221Y-15087799D01*
X9763740Y-15043958D01*
X9795868Y-15066287D01*
X9903693Y-15113395D01*
X10018614Y-15138662D01*
X10136254Y-15141126D01*
X10252133Y-15120694D01*
X10361835Y-15078143D01*
X10461184Y-15015094D01*
X10546395Y-14933949D01*
X10614221Y-14837799D01*
X10662080Y-14730306D01*
X10688149Y-14615564D01*
X10690026Y-14481167D01*
X10667171Y-14365742D01*
X10622332Y-14256954D01*
X10557216Y-14158948D01*
X10474305Y-14075455D01*
X10376755Y-14009657D01*
X10268283Y-13964060D01*
X10153021Y-13940400D01*
X10035357Y-13939578D01*
X9919775Y-13961627D01*
X9810677Y-14005705D01*
X9712219Y-14070135D01*
X9628150Y-14152461D01*
X9561672Y-14249549D01*
X9545995Y-14286125D01*
X9506755Y-14259657D01*
X9398283Y-14214060D01*
X9283021Y-14190400D01*
X9165357Y-14189578D01*
X9049775Y-14211627D01*
X8940677Y-14255705D01*
X8842219Y-14320135D01*
X8758150Y-14402461D01*
X8691672Y-14499549D01*
X8645318Y-14607700D01*
X8620854Y-14722795D01*
X8619211Y-14840450D01*
X5969057Y-14840450D01*
X5934305Y-14805455D01*
X5836755Y-14739657D01*
X5728283Y-14694060D01*
X5613021Y-14670400D01*
X5495357Y-14669578D01*
X5379775Y-14691627D01*
X5270677Y-14735705D01*
X5172219Y-14800135D01*
X5088150Y-14882461D01*
X5021672Y-14979549D01*
X4975318Y-15087700D01*
X4950854Y-15202795D01*
X4949211Y-15320450D01*
X2858779Y-15320450D01*
X2860026Y-15231167D01*
X2837171Y-15115742D01*
X2792332Y-15006954D01*
X2727216Y-14908948D01*
X2644305Y-14825455D01*
X2546755Y-14759657D01*
X2438283Y-14714060D01*
X2323021Y-14690400D01*
X2205357Y-14689578D01*
X2096684Y-14710309D01*
X2142589Y-14587896D01*
X2739886Y-13243978D01*
X3486568Y-11850170D01*
X3838638Y-11286858D01*
X3873768Y-11375586D01*
X3937509Y-11474492D01*
X4019247Y-11559134D01*
X4115868Y-11626287D01*
X4223693Y-11673395D01*
X4338614Y-11698662D01*
X4456254Y-11701126D01*
X4572133Y-11680694D01*
X4681835Y-11638143D01*
X4781184Y-11575094D01*
X4866395Y-11493949D01*
X4934221Y-11397799D01*
X4982080Y-11290306D01*
X5008149Y-11175564D01*
X5010026Y-11041167D01*
X4987171Y-10925742D01*
X4942332Y-10816954D01*
X4877216Y-10718948D01*
X4794305Y-10635455D01*
X4696755Y-10569657D01*
X4588283Y-10524060D01*
X4473021Y-10500400D01*
X4355357Y-10499578D01*
X4327349Y-10504921D01*
X4482383Y-10256867D01*
X4833490Y-9794884D01*
X4833768Y-9795586D01*
X4897509Y-9894492D01*
X4979247Y-9979134D01*
X5075868Y-10046287D01*
X5183693Y-10093395D01*
X5298614Y-10118662D01*
X5416254Y-10121126D01*
X5532133Y-10100694D01*
X5641835Y-10058143D01*
X5741184Y-9995094D01*
X5826395Y-9913949D01*
X5894221Y-9817799D01*
X5942080Y-9710306D01*
X5968149Y-9595564D01*
X5970026Y-9461167D01*
X5947171Y-9345742D01*
X5902332Y-9236954D01*
X5837216Y-9138948D01*
X5754305Y-9055455D01*
X5656755Y-8989657D01*
X5548283Y-8944060D01*
X5496961Y-8933525D01*
X6041080Y-8308796D01*
X6043768Y-8315586D01*
X6107509Y-8414492D01*
X6189247Y-8499134D01*
X6285868Y-8566287D01*
X6393693Y-8613395D01*
X6508614Y-8638662D01*
X6626254Y-8641126D01*
X6742133Y-8620694D01*
X6851835Y-8578143D01*
X6951184Y-8515094D01*
X7030041Y-8440000D01*
X7490000Y-8440000D01*
X7528186Y-8436256D01*
X7566217Y-8432671D01*
X7566939Y-8432456D01*
X7567694Y-8432382D01*
X7604383Y-8421305D01*
X7641036Y-8410389D01*
X7641706Y-8410036D01*
X7642428Y-8409818D01*
X7676132Y-8391897D01*
X7710102Y-8373999D01*
X7710692Y-8373522D01*
X7711357Y-8373168D01*
X7741023Y-8348973D01*
X7770784Y-8324886D01*
X7771793Y-8323878D01*
X7771854Y-8323828D01*
X7771907Y-8323763D01*
X7774735Y-8320938D01*
X7912261Y-8181554D01*
X7920452Y-8226183D01*
X7963768Y-8335586D01*
X8027509Y-8434492D01*
X8109247Y-8519134D01*
X8205868Y-8586287D01*
X8313693Y-8633395D01*
X8428614Y-8658662D01*
X8546254Y-8661126D01*
X8662133Y-8640694D01*
X8771835Y-8598143D01*
X8864750Y-8539177D01*
X8887509Y-8574492D01*
X8969247Y-8659134D01*
X9065868Y-8726287D01*
X9173693Y-8773395D01*
X9288614Y-8798662D01*
X9406254Y-8801126D01*
X9406998Y-8800995D01*
X9642346Y-9027938D01*
X9663425Y-9044620D01*
X9683441Y-9062552D01*
X9693966Y-9068790D01*
X9703561Y-9076384D01*
X9727473Y-9088651D01*
X9750597Y-9102357D01*
X9762138Y-9106434D01*
X9773021Y-9112017D01*
X9798856Y-9119405D01*
X9824206Y-9128360D01*
X9836316Y-9130117D01*
X9848079Y-9133481D01*
X9874867Y-9135711D01*
X9901463Y-9139570D01*
X9907044Y-9139790D01*
X12067044Y-9209790D01*
X12083479Y-9208715D01*
X12099925Y-9209503D01*
X12122330Y-9206173D01*
X12144944Y-9204693D01*
X12160856Y-9200446D01*
X12177143Y-9198025D01*
X12198482Y-9190403D01*
X12220370Y-9184561D01*
X12235151Y-9177306D01*
X12250661Y-9171766D01*
X12270112Y-9160145D01*
X12290449Y-9150163D01*
X12303540Y-9140174D01*
X12317678Y-9131728D01*
X12322147Y-9128378D01*
X13011516Y-8604070D01*
X14123734Y-7966119D01*
X14138999Y-7955256D01*
X14155285Y-7946004D01*
X14170719Y-7932682D01*
X14187339Y-7920854D01*
X14200204Y-7907231D01*
X14214381Y-7894994D01*
X14226936Y-7878925D01*
X14240939Y-7864097D01*
X14250909Y-7848242D01*
X14262444Y-7833478D01*
X14271641Y-7815271D01*
X14282495Y-7798010D01*
X14289196Y-7780520D01*
X14297643Y-7763797D01*
X14303128Y-7744152D01*
X14310423Y-7725111D01*
X14313599Y-7706654D01*
X14318638Y-7688606D01*
X14319569Y-7683100D01*
X14463343Y-6795455D01*
X14486986Y-6780450D01*
X17929211Y-6780450D01*
X17950452Y-6896183D01*
X17993768Y-7005586D01*
X18057509Y-7104492D01*
X18139247Y-7189134D01*
X18235868Y-7256287D01*
X18343693Y-7303395D01*
X18458614Y-7328662D01*
X18576254Y-7331126D01*
X18692133Y-7310694D01*
X18801835Y-7268143D01*
X18901184Y-7205094D01*
X18986395Y-7123949D01*
X19054221Y-7027799D01*
X19102080Y-6920306D01*
X19128149Y-6805564D01*
X19130026Y-6671167D01*
X19107171Y-6555742D01*
X19062332Y-6446954D01*
X18997216Y-6348948D01*
X18914305Y-6265455D01*
X18816755Y-6199657D01*
X18708283Y-6154060D01*
X18593021Y-6130400D01*
X18475357Y-6129578D01*
X18359775Y-6151627D01*
X18250677Y-6195705D01*
X18152219Y-6260135D01*
X18068150Y-6342461D01*
X18001672Y-6439549D01*
X17955318Y-6547700D01*
X17930854Y-6662795D01*
X17929211Y-6780450D01*
X14486986Y-6780450D01*
X14511184Y-6765094D01*
X14596395Y-6683949D01*
X14664221Y-6587799D01*
X14712080Y-6480306D01*
X14738149Y-6365564D01*
X14740026Y-6231167D01*
X14717171Y-6115742D01*
X14672332Y-6006954D01*
X14607216Y-5908948D01*
X14524305Y-5825455D01*
X14426755Y-5759657D01*
X14318283Y-5714060D01*
X14203021Y-5690400D01*
X14085357Y-5689578D01*
X13969775Y-5711627D01*
X13860677Y-5755705D01*
X13762219Y-5820135D01*
X13678150Y-5902461D01*
X13611672Y-5999549D01*
X13565318Y-6107700D01*
X13544100Y-6207523D01*
X13488283Y-6184060D01*
X13373021Y-6160400D01*
X13255357Y-6159578D01*
X13139775Y-6181627D01*
X13030677Y-6225705D01*
X12932219Y-6290135D01*
X12848150Y-6372461D01*
X12781672Y-6469549D01*
X12735318Y-6577700D01*
X12710854Y-6692795D01*
X12709211Y-6810450D01*
X12713733Y-6835090D01*
X12684305Y-6805455D01*
X12586755Y-6739657D01*
X12478283Y-6694060D01*
X12363021Y-6670400D01*
X12279131Y-6669814D01*
X12342935Y-6334845D01*
X12344604Y-6316454D01*
X12348160Y-6298323D01*
X12348123Y-6277662D01*
X12349989Y-6257098D01*
X12348054Y-6238734D01*
X12348021Y-6220256D01*
X12343972Y-6199996D01*
X12341808Y-6179462D01*
X12336342Y-6161822D01*
X12332721Y-6143704D01*
X12324814Y-6124617D01*
X12318702Y-6104892D01*
X12309914Y-6088649D01*
X12302843Y-6071581D01*
X12300178Y-6066673D01*
X11994865Y-5513653D01*
X12108614Y-5538662D01*
X12226254Y-5541126D01*
X12342133Y-5520694D01*
X12451835Y-5478143D01*
X12551184Y-5415094D01*
X12636395Y-5333949D01*
X12704221Y-5237799D01*
X12752080Y-5130306D01*
X12778149Y-5015564D01*
X12780026Y-4881167D01*
X12757171Y-4765742D01*
X12721754Y-4679813D01*
X13405347Y-4294691D01*
X14560031Y-3736920D01*
X14633996Y-3708014D01*
X14630854Y-3722795D01*
X14629211Y-3840450D01*
X14650452Y-3956183D01*
X14693768Y-4065586D01*
X14757509Y-4164492D01*
X14839247Y-4249134D01*
X14935868Y-4316287D01*
X15043693Y-4363395D01*
X15158614Y-4388662D01*
X15276254Y-4391126D01*
X15392133Y-4370694D01*
X15501835Y-4328143D01*
X15545472Y-4300450D01*
X20399211Y-4300450D01*
X20420452Y-4416183D01*
X20463768Y-4525586D01*
X20527509Y-4624492D01*
X20609247Y-4709134D01*
X20668154Y-4750075D01*
X20622219Y-4780135D01*
X20538150Y-4862461D01*
X20471672Y-4959549D01*
X20425318Y-5067700D01*
X20400854Y-5182795D01*
X20399211Y-5300450D01*
X20420452Y-5416183D01*
X20463768Y-5525586D01*
X20527509Y-5624492D01*
X20609247Y-5709134D01*
X20668154Y-5750075D01*
X20622219Y-5780135D01*
X20538150Y-5862461D01*
X20471672Y-5959549D01*
X20425318Y-6067700D01*
X20400854Y-6182795D01*
X20399211Y-6300450D01*
X20420452Y-6416183D01*
X20463768Y-6525586D01*
X20527509Y-6624492D01*
X20609247Y-6709134D01*
X20668154Y-6750075D01*
X20622219Y-6780135D01*
X20538150Y-6862461D01*
X20471672Y-6959549D01*
X20425318Y-7067700D01*
X20400854Y-7182795D01*
X20399211Y-7300450D01*
X20420452Y-7416183D01*
X20463768Y-7525586D01*
X20527509Y-7624492D01*
X20609247Y-7709134D01*
X20705868Y-7776287D01*
X20813693Y-7823395D01*
X20928614Y-7848662D01*
X21046254Y-7851126D01*
X21162133Y-7830694D01*
X21271835Y-7788143D01*
X21371184Y-7725094D01*
X21456395Y-7643949D01*
X21500110Y-7581978D01*
X21527509Y-7624492D01*
X21609247Y-7709134D01*
X21705868Y-7776287D01*
X21813693Y-7823395D01*
X21928614Y-7848662D01*
X22046254Y-7851126D01*
X22162133Y-7830694D01*
X22271835Y-7788143D01*
X22371184Y-7725094D01*
X22456395Y-7643949D01*
X22500110Y-7581978D01*
X22527509Y-7624492D01*
X22609247Y-7709134D01*
X22705868Y-7776287D01*
X22813693Y-7823395D01*
X22928614Y-7848662D01*
X23046254Y-7851126D01*
X23162133Y-7830694D01*
X23271835Y-7788143D01*
X23371184Y-7725094D01*
X23456395Y-7643949D01*
X23500110Y-7581978D01*
X23527509Y-7624492D01*
X23609247Y-7709134D01*
X23705868Y-7776287D01*
X23813693Y-7823395D01*
X23928614Y-7848662D01*
X24046254Y-7851126D01*
X24162133Y-7830694D01*
X24271835Y-7788143D01*
X24371184Y-7725094D01*
X24456395Y-7643949D01*
X24524221Y-7547799D01*
X24572080Y-7440306D01*
X24598149Y-7325564D01*
X24600026Y-7191167D01*
X24577171Y-7075742D01*
X24532332Y-6966954D01*
X24467216Y-6868948D01*
X24384305Y-6785455D01*
X24331837Y-6750065D01*
X24371184Y-6725094D01*
X24456395Y-6643949D01*
X24524221Y-6547799D01*
X24572080Y-6440306D01*
X24598149Y-6325564D01*
X24600026Y-6191167D01*
X24577171Y-6075742D01*
X24532332Y-5966954D01*
X24467216Y-5868948D01*
X24384305Y-5785455D01*
X24331837Y-5750065D01*
X24371184Y-5725094D01*
X24456395Y-5643949D01*
X24524221Y-5547799D01*
X24572080Y-5440306D01*
X24598149Y-5325564D01*
X24600026Y-5191167D01*
X24577171Y-5075742D01*
X24532332Y-4966954D01*
X24467216Y-4868948D01*
X24384305Y-4785455D01*
X24331837Y-4750065D01*
X24371184Y-4725094D01*
X24456395Y-4643949D01*
X24524221Y-4547799D01*
X24572080Y-4440306D01*
X24598149Y-4325564D01*
X24600026Y-4191167D01*
X24577171Y-4075742D01*
X24532332Y-3966954D01*
X24467216Y-3868948D01*
X24384305Y-3785455D01*
X24286755Y-3719657D01*
X24178283Y-3674060D01*
X24063021Y-3650400D01*
X23945357Y-3649578D01*
X23829775Y-3671627D01*
X23720677Y-3715705D01*
X23622219Y-3780135D01*
X23538150Y-3862461D01*
X23499962Y-3918233D01*
X23467216Y-3868948D01*
X23384305Y-3785455D01*
X23286755Y-3719657D01*
X23178283Y-3674060D01*
X23063021Y-3650400D01*
X22945357Y-3649578D01*
X22829775Y-3671627D01*
X22720677Y-3715705D01*
X22622219Y-3780135D01*
X22538150Y-3862461D01*
X22499962Y-3918233D01*
X22467216Y-3868948D01*
X22384305Y-3785455D01*
X22286755Y-3719657D01*
X22178283Y-3674060D01*
X22063021Y-3650400D01*
X21945357Y-3649578D01*
X21829775Y-3671627D01*
X21720677Y-3715705D01*
X21622219Y-3780135D01*
X21538150Y-3862461D01*
X21499962Y-3918233D01*
X21467216Y-3868948D01*
X21384305Y-3785455D01*
X21286755Y-3719657D01*
X21178283Y-3674060D01*
X21063021Y-3650400D01*
X20945357Y-3649578D01*
X20829775Y-3671627D01*
X20720677Y-3715705D01*
X20622219Y-3780135D01*
X20538150Y-3862461D01*
X20471672Y-3959549D01*
X20425318Y-4067700D01*
X20400854Y-4182795D01*
X20399211Y-4300450D01*
X15545472Y-4300450D01*
X15601184Y-4265094D01*
X15686395Y-4183949D01*
X15754221Y-4087799D01*
X15802080Y-3980306D01*
X15828149Y-3865564D01*
X15830026Y-3731167D01*
X15807171Y-3615742D01*
X15762332Y-3506954D01*
X15697216Y-3408948D01*
X15614305Y-3325455D01*
X15567894Y-3294151D01*
X15571606Y-3289828D01*
X15596629Y-3260897D01*
X15596980Y-3260280D01*
X15597444Y-3259740D01*
X15616274Y-3226395D01*
X15635257Y-3193057D01*
X15635483Y-3192381D01*
X15635831Y-3191764D01*
X15647814Y-3155435D01*
X15659972Y-3119006D01*
X15660261Y-3117696D01*
X15660284Y-3117627D01*
X15660294Y-3117549D01*
X15661176Y-3113552D01*
X15831570Y-2315800D01*
X16970694Y-1977364D01*
X18731828Y-1583815D01*
X19956715Y-1410013D01*
X20895386Y-2713722D01*
X20914823Y-2735804D01*
X20933169Y-2758797D01*
X20940566Y-2765051D01*
X20946966Y-2772322D01*
X20970319Y-2790206D01*
X20992783Y-2809199D01*
X21001255Y-2813898D01*
X21008945Y-2819787D01*
X21035329Y-2832796D01*
X21061052Y-2847063D01*
X21070272Y-2850026D01*
X21078963Y-2854311D01*
X21107381Y-2861950D01*
X21135376Y-2870946D01*
X21144994Y-2872061D01*
X21154353Y-2874577D01*
X21183720Y-2876551D01*
X21212923Y-2879937D01*
X21218507Y-2879997D01*
X23898508Y-2889997D01*
X23909090Y-2888999D01*
X23919706Y-2889514D01*
X23947876Y-2885342D01*
X23976230Y-2882669D01*
X23986416Y-2879635D01*
X23996930Y-2878078D01*
X24023760Y-2868512D01*
X24051047Y-2860384D01*
X24060448Y-2855431D01*
X24070462Y-2851860D01*
X24094916Y-2837269D01*
X24120113Y-2823992D01*
X24124489Y-2820450D01*
X26249211Y-2820450D01*
X26270452Y-2936183D01*
X26313768Y-3045586D01*
X26377509Y-3144492D01*
X26459247Y-3229134D01*
X26555868Y-3296287D01*
X26663693Y-3343395D01*
X26778614Y-3368662D01*
X26896254Y-3371126D01*
X27012133Y-3350694D01*
X27121835Y-3308143D01*
X27221184Y-3245094D01*
X27306395Y-3163949D01*
X27374221Y-3067799D01*
X27422080Y-2960306D01*
X27448149Y-2845564D01*
X27450026Y-2711167D01*
X27427171Y-2595742D01*
X27382332Y-2486954D01*
X27317216Y-2388948D01*
X27234305Y-2305455D01*
X27136755Y-2239657D01*
X27028283Y-2194060D01*
X26913021Y-2170400D01*
X26795357Y-2169578D01*
X26679775Y-2191627D01*
X26570677Y-2235705D01*
X26472219Y-2300135D01*
X26388150Y-2382461D01*
X26321672Y-2479549D01*
X26275318Y-2587700D01*
X26250854Y-2702795D01*
X26249211Y-2820450D01*
X24124489Y-2820450D01*
X24128377Y-2817303D01*
X24137501Y-2811859D01*
X24158650Y-2792801D01*
X24180793Y-2774878D01*
X24187601Y-2766711D01*
X24195494Y-2759598D01*
X24199230Y-2755446D01*
X24452267Y-2470205D01*
X24496254Y-2471126D01*
X24612133Y-2450694D01*
X24721835Y-2408143D01*
X24821184Y-2345094D01*
X24906395Y-2263949D01*
X24974221Y-2167799D01*
X25022080Y-2060306D01*
X25048149Y-1945564D01*
X25050026Y-1811167D01*
X25027171Y-1695742D01*
X24982332Y-1586954D01*
X24917216Y-1488948D01*
X24834305Y-1405455D01*
X24736755Y-1339657D01*
X24628283Y-1294060D01*
X24513021Y-1270400D01*
X24395357Y-1269578D01*
X24279775Y-1291627D01*
X24182986Y-1330732D01*
X24192080Y-1310306D01*
X24218149Y-1195564D01*
X24220026Y-1061167D01*
X24197171Y-945742D01*
X24184808Y-915747D01*
X25187617Y-999315D01*
X25187617Y-999315D01*
G37*
X25187617Y-999315D02*
X26382664Y-1198490D01*
X26557604Y-1230886D01*
X26551672Y-1239549D01*
X26505318Y-1347700D01*
X26480854Y-1462795D01*
X26479211Y-1580450D01*
X26500452Y-1696183D01*
X26543768Y-1805586D01*
X26607509Y-1904492D01*
X26689247Y-1989134D01*
X26785868Y-2056287D01*
X26893693Y-2103395D01*
X27008614Y-2128662D01*
X27126254Y-2131126D01*
X27242133Y-2110694D01*
X27351835Y-2068143D01*
X27451184Y-2005094D01*
X27536395Y-1923949D01*
X27604221Y-1827799D01*
X27652080Y-1720306D01*
X27678149Y-1605564D01*
X27680026Y-1471167D01*
X27673361Y-1437508D01*
X27726108Y-1447276D01*
X29409416Y-1965217D01*
X29351672Y-2049549D01*
X29305318Y-2157700D01*
X29280854Y-2272795D01*
X29279211Y-2390450D01*
X29300452Y-2506183D01*
X29343768Y-2615586D01*
X29407509Y-2714492D01*
X29489247Y-2799134D01*
X29585868Y-2866287D01*
X29693693Y-2913395D01*
X29808614Y-2938662D01*
X29893777Y-2940446D01*
X29387111Y-4278562D01*
X29344305Y-4235455D01*
X29246755Y-4169657D01*
X29138283Y-4124060D01*
X29023021Y-4100400D01*
X28905357Y-4099578D01*
X28789775Y-4121627D01*
X28680677Y-4165705D01*
X28582219Y-4230135D01*
X28498150Y-4312461D01*
X28431672Y-4409549D01*
X28385318Y-4517700D01*
X28360854Y-4632795D01*
X28359211Y-4750450D01*
X28366859Y-4792121D01*
X27942671Y-4645488D01*
X27935997Y-4643438D01*
X27155997Y-4433438D01*
X27151410Y-4432319D01*
X26421410Y-4272319D01*
X26416440Y-4271361D01*
X25756440Y-4161361D01*
X25755758Y-4161249D01*
X24815758Y-4011249D01*
X24787623Y-4010769D01*
X24760468Y-4018146D01*
X24736443Y-4032796D01*
X24717451Y-4053559D01*
X24704995Y-4078791D01*
X24700000Y-4110000D01*
X24700000Y-6650000D01*
X24703959Y-6677859D01*
X24715523Y-6703513D01*
X24733776Y-6724929D01*
X24757272Y-6740412D01*
X24784897Y-6748853D01*
X25501080Y-6858270D01*
X26192460Y-7019277D01*
X26138150Y-7072461D01*
X26071672Y-7169549D01*
X26025318Y-7277700D01*
X26000854Y-7392795D01*
X25999211Y-7510450D01*
X26020452Y-7626183D01*
X26063768Y-7735586D01*
X26127509Y-7834492D01*
X26209247Y-7919134D01*
X26305868Y-7986287D01*
X26413693Y-8033395D01*
X26528614Y-8058662D01*
X26646254Y-8061126D01*
X26762133Y-8040694D01*
X26871835Y-7998143D01*
X26950076Y-7948489D01*
X26949211Y-8010450D01*
X26970452Y-8126183D01*
X27013768Y-8235586D01*
X27059107Y-8305937D01*
X26960677Y-8345705D01*
X26862219Y-8410135D01*
X26778150Y-8492461D01*
X26711672Y-8589549D01*
X26665318Y-8697700D01*
X26640854Y-8812795D01*
X26639211Y-8930450D01*
X26660452Y-9046183D01*
X26703768Y-9155586D01*
X26767509Y-9254492D01*
X26849247Y-9339134D01*
X26945868Y-9406287D01*
X27053693Y-9453395D01*
X27168614Y-9478662D01*
X27251364Y-9480395D01*
X27250854Y-9482795D01*
X27249211Y-9600450D01*
X27270452Y-9716183D01*
X27299973Y-9790745D01*
X27032546Y-10497028D01*
X26286245Y-10206800D01*
X26274254Y-10202986D01*
X25828001Y-10091423D01*
X25832133Y-10090694D01*
X25941835Y-10048143D01*
X26041184Y-9985094D01*
X26126395Y-9903949D01*
X26194221Y-9807799D01*
X26242080Y-9700306D01*
X26268149Y-9585564D01*
X26270026Y-9451167D01*
X26247171Y-9335742D01*
X26202332Y-9226954D01*
X26137216Y-9128948D01*
X26054305Y-9045455D01*
X25956755Y-8979657D01*
X25848283Y-8934060D01*
X25733021Y-8910400D01*
X25615357Y-8909578D01*
X25499775Y-8931627D01*
X25390677Y-8975705D01*
X25361223Y-8994979D01*
X25357216Y-8988948D01*
X25274305Y-8905455D01*
X25176755Y-8839657D01*
X25068283Y-8794060D01*
X24953021Y-8770400D01*
X24835357Y-8769578D01*
X24719775Y-8791627D01*
X24610677Y-8835705D01*
X24512219Y-8900135D01*
X24428150Y-8982461D01*
X24361672Y-9079549D01*
X24315318Y-9187700D01*
X24290854Y-9302795D01*
X24289211Y-9420450D01*
X24310452Y-9536183D01*
X24353768Y-9645586D01*
X24417509Y-9744492D01*
X24473726Y-9802706D01*
X24468429Y-9801713D01*
X24461043Y-9800612D01*
X24153720Y-9766465D01*
X24192080Y-9680306D01*
X24218149Y-9565564D01*
X24220026Y-9431167D01*
X24197171Y-9315742D01*
X24152332Y-9206954D01*
X24087216Y-9108948D01*
X24004305Y-9025455D01*
X23906755Y-8959657D01*
X23798283Y-8914060D01*
X23683021Y-8890400D01*
X23565357Y-8889578D01*
X23449775Y-8911627D01*
X23340677Y-8955705D01*
X23258338Y-9009587D01*
X23244305Y-8995455D01*
X23146755Y-8929657D01*
X23038283Y-8884060D01*
X22923021Y-8860400D01*
X22805357Y-8859578D01*
X22689775Y-8881627D01*
X22580677Y-8925705D01*
X22482219Y-8990135D01*
X22479853Y-8992452D01*
X22386755Y-8929657D01*
X22278283Y-8884060D01*
X22163021Y-8860400D01*
X22045357Y-8859578D01*
X21929775Y-8881627D01*
X21820677Y-8925705D01*
X21722219Y-8990135D01*
X21638150Y-9072461D01*
X21571672Y-9169549D01*
X21525318Y-9277700D01*
X21500854Y-9392795D01*
X21499211Y-9510450D01*
X21520452Y-9626183D01*
X21546992Y-9693215D01*
X21395459Y-9700103D01*
X21386336Y-9700938D01*
X19936336Y-9900938D01*
X19925746Y-9902986D01*
X18925746Y-10152986D01*
X18918377Y-10155132D01*
X17974660Y-10469704D01*
X18004221Y-10427799D01*
X18052080Y-10320306D01*
X18078149Y-10205564D01*
X18080026Y-10071167D01*
X18057171Y-9955742D01*
X18012332Y-9846954D01*
X17947216Y-9748948D01*
X17864305Y-9665455D01*
X17766755Y-9599657D01*
X17658283Y-9554060D01*
X17543021Y-9530400D01*
X17425357Y-9529578D01*
X17369900Y-9540157D01*
X17370026Y-9531167D01*
X17347171Y-9415742D01*
X17302332Y-9306954D01*
X17278079Y-9270450D01*
X18159211Y-9270450D01*
X18180452Y-9386183D01*
X18223768Y-9495586D01*
X18287509Y-9594492D01*
X18369247Y-9679134D01*
X18465868Y-9746287D01*
X18573693Y-9793395D01*
X18688614Y-9818662D01*
X18806254Y-9821126D01*
X18922133Y-9800694D01*
X19031835Y-9758143D01*
X19131184Y-9695094D01*
X19216395Y-9613949D01*
X19284221Y-9517799D01*
X19332080Y-9410306D01*
X19358149Y-9295564D01*
X19360026Y-9161167D01*
X19337171Y-9045742D01*
X19292332Y-8936954D01*
X19227216Y-8838948D01*
X19144305Y-8755455D01*
X19046755Y-8689657D01*
X18938283Y-8644060D01*
X18823021Y-8620400D01*
X18705357Y-8619578D01*
X18589775Y-8641627D01*
X18480677Y-8685705D01*
X18382219Y-8750135D01*
X18298150Y-8832461D01*
X18231672Y-8929549D01*
X18185318Y-9037700D01*
X18160854Y-9152795D01*
X18159211Y-9270450D01*
X17278079Y-9270450D01*
X17237216Y-9208948D01*
X17154305Y-9125455D01*
X17056755Y-9059657D01*
X16948283Y-9014060D01*
X16833021Y-8990400D01*
X16750700Y-8989825D01*
X16821184Y-8945094D01*
X16906395Y-8863949D01*
X16974221Y-8767799D01*
X17013683Y-8679167D01*
X17095868Y-8736287D01*
X17203693Y-8783395D01*
X17318614Y-8808662D01*
X17436254Y-8811126D01*
X17552133Y-8790694D01*
X17661835Y-8748143D01*
X17761184Y-8685094D01*
X17846395Y-8603949D01*
X17914221Y-8507799D01*
X17962080Y-8400306D01*
X17988149Y-8285564D01*
X17990026Y-8151167D01*
X17967171Y-8035742D01*
X17922332Y-7926954D01*
X17857216Y-7828948D01*
X17774305Y-7745455D01*
X17676755Y-7679657D01*
X17568283Y-7634060D01*
X17453021Y-7610400D01*
X17335357Y-7609578D01*
X17219775Y-7631627D01*
X17110677Y-7675705D01*
X17012219Y-7740135D01*
X16928150Y-7822461D01*
X16861672Y-7919549D01*
X16826972Y-8000509D01*
X16736755Y-7939657D01*
X16628283Y-7894060D01*
X16513021Y-7870400D01*
X16395357Y-7869578D01*
X16279775Y-7891627D01*
X16170677Y-7935705D01*
X16072219Y-8000135D01*
X15988150Y-8082461D01*
X15921672Y-8179549D01*
X15875318Y-8287700D01*
X15850854Y-8402795D01*
X15849211Y-8520450D01*
X15859402Y-8575975D01*
X15829775Y-8581627D01*
X15720677Y-8625705D01*
X15622219Y-8690135D01*
X15538150Y-8772461D01*
X15471672Y-8869549D01*
X15425318Y-8977700D01*
X15400854Y-9092795D01*
X15399211Y-9210450D01*
X15420452Y-9326183D01*
X15463768Y-9435586D01*
X15527509Y-9534492D01*
X15609247Y-9619134D01*
X15705868Y-9686287D01*
X15813693Y-9733395D01*
X15928614Y-9758662D01*
X16046254Y-9761126D01*
X16162133Y-9740694D01*
X16185916Y-9731469D01*
X16190452Y-9756183D01*
X16233768Y-9865586D01*
X16263497Y-9911716D01*
X16262716Y-9913996D01*
X16244305Y-9895455D01*
X16146755Y-9829657D01*
X16038283Y-9784060D01*
X15923021Y-9760400D01*
X15805357Y-9759578D01*
X15689775Y-9781627D01*
X15580677Y-9825705D01*
X15482219Y-9890135D01*
X15398150Y-9972461D01*
X15331672Y-10069549D01*
X15285318Y-10177700D01*
X15260854Y-10292795D01*
X15259211Y-10410450D01*
X15280452Y-10526183D01*
X15323768Y-10635586D01*
X15387509Y-10734492D01*
X15469247Y-10819134D01*
X15477943Y-10825178D01*
X14848982Y-11215953D01*
X14850026Y-11141167D01*
X14827171Y-11025742D01*
X14782332Y-10916954D01*
X14717216Y-10818948D01*
X14634305Y-10735455D01*
X14536755Y-10669657D01*
X14428283Y-10624060D01*
X14313021Y-10600400D01*
X14195357Y-10599578D01*
X14079775Y-10621627D01*
X14031752Y-10641030D01*
X13977216Y-10558948D01*
X13894305Y-10475455D01*
X13796755Y-10409657D01*
X13688283Y-10364060D01*
X13573021Y-10340400D01*
X13455357Y-10339578D01*
X13399620Y-10350211D01*
X13400026Y-10321167D01*
X13377171Y-10205742D01*
X13332332Y-10096954D01*
X13267216Y-9998948D01*
X13184305Y-9915455D01*
X13086755Y-9849657D01*
X12978283Y-9804060D01*
X12863021Y-9780400D01*
X12745357Y-9779578D01*
X12629775Y-9801627D01*
X12520677Y-9845705D01*
X12422219Y-9910135D01*
X12338150Y-9992461D01*
X12271672Y-10089549D01*
X12225318Y-10197700D01*
X12200854Y-10312795D01*
X12199211Y-10430450D01*
X12203566Y-10454176D01*
X12189062Y-10451199D01*
X11836072Y-10448735D01*
X11489326Y-10514880D01*
X11162032Y-10647116D01*
X10866656Y-10840404D01*
X10614449Y-11087384D01*
X10415016Y-11378648D01*
X10275955Y-11703101D01*
X10202563Y-12048385D01*
X10197634Y-12401349D01*
X10261357Y-12748548D01*
X10391305Y-13076757D01*
X10582527Y-13373476D01*
X10827740Y-13627401D01*
X11117604Y-13828862D01*
X11441078Y-13970184D01*
X11785842Y-14045986D01*
X12138762Y-14053378D01*
X12318706Y-14021649D01*
X11903809Y-14481166D01*
X11594418Y-14820498D01*
X11576240Y-14844835D01*
X11557021Y-14868358D01*
X11553959Y-14873029D01*
X10733959Y-16143029D01*
X10724888Y-16160641D01*
X10714165Y-16177295D01*
X10711648Y-16182281D01*
X10101648Y-17412281D01*
X10093756Y-17433080D01*
X10084140Y-17453144D01*
X10082266Y-17458405D01*
X9641903Y-18722433D01*
X9297352Y-18877346D01*
X9276405Y-18889347D01*
X9254619Y-18899750D01*
X9242612Y-18908708D01*
X9229615Y-18916154D01*
X9211397Y-18931996D01*
X9192048Y-18946431D01*
X9182011Y-18957549D01*
X9170706Y-18967379D01*
X9155912Y-18986457D01*
X9139734Y-19004377D01*
X9132047Y-19017234D01*
X9122868Y-19029071D01*
X9112060Y-19050662D01*
X9099673Y-19071380D01*
X9094631Y-19085482D01*
X9087924Y-19098880D01*
X9081515Y-19122163D01*
X9073389Y-19144888D01*
X9072068Y-19150315D01*
X8810689Y-20258147D01*
X8808192Y-20276673D01*
X8803820Y-20294849D01*
X8803089Y-20300386D01*
X8603089Y-21900386D01*
X8602501Y-21922465D01*
X8600039Y-21944415D01*
X8600000Y-21950000D01*
X8600000Y-22650000D01*
X6706519Y-22650000D01*
X6729516Y-22598982D01*
X6741451Y-22515000D01*
X6741451Y-21715000D01*
X6737641Y-21667226D01*
X6712548Y-21586197D01*
X6665874Y-21515366D01*
X6601315Y-21460343D01*
X6523982Y-21425484D01*
X6440000Y-21413549D01*
X5640000Y-21413549D01*
X5592226Y-21417359D01*
X5511197Y-21442452D01*
X5440366Y-21489126D01*
X5405522Y-21530008D01*
X5395874Y-21515366D01*
X5331315Y-21460343D01*
X5253982Y-21425484D01*
X5170000Y-21413549D01*
X4370000Y-21413549D01*
X4322226Y-21417359D01*
X4241197Y-21442452D01*
X4170366Y-21489126D01*
X4135522Y-21530008D01*
X4125874Y-21515366D01*
X4061315Y-21460343D01*
X3983982Y-21425484D01*
X3900000Y-21413549D01*
X3100000Y-21413549D01*
X3052226Y-21417359D01*
X2971197Y-21442452D01*
X2900366Y-21489126D01*
X2865522Y-21530008D01*
X2855874Y-21515366D01*
X2791315Y-21460343D01*
X2713982Y-21425484D01*
X2630000Y-21413549D01*
X2185813Y-21413549D01*
X2206395Y-21393949D01*
X2274221Y-21297799D01*
X2322080Y-21190306D01*
X2348149Y-21075564D01*
X2350026Y-20941167D01*
X2327171Y-20825742D01*
X2282332Y-20716954D01*
X2224859Y-20630450D01*
X4919211Y-20630450D01*
X4940452Y-20746183D01*
X4983768Y-20855586D01*
X5047509Y-20954492D01*
X5129247Y-21039134D01*
X5225868Y-21106287D01*
X5333693Y-21153395D01*
X5448614Y-21178662D01*
X5566254Y-21181126D01*
X5682133Y-21160694D01*
X5791835Y-21118143D01*
X5891184Y-21055094D01*
X5976395Y-20973949D01*
X6044221Y-20877799D01*
X6078659Y-20800450D01*
X6399211Y-20800450D01*
X6420452Y-20916183D01*
X6463768Y-21025586D01*
X6527509Y-21124492D01*
X6609247Y-21209134D01*
X6705868Y-21276287D01*
X6813693Y-21323395D01*
X6928614Y-21348662D01*
X7046254Y-21351126D01*
X7162133Y-21330694D01*
X7271835Y-21288143D01*
X7371184Y-21225094D01*
X7456395Y-21143949D01*
X7524221Y-21047799D01*
X7572080Y-20940306D01*
X7598149Y-20825564D01*
X7600026Y-20691167D01*
X7577171Y-20575742D01*
X7532332Y-20466954D01*
X7467216Y-20368948D01*
X7384305Y-20285455D01*
X7286755Y-20219657D01*
X7178283Y-20174060D01*
X7063021Y-20150400D01*
X6945357Y-20149578D01*
X6829775Y-20171627D01*
X6720677Y-20215705D01*
X6622219Y-20280135D01*
X6538150Y-20362461D01*
X6471672Y-20459549D01*
X6425318Y-20567700D01*
X6400854Y-20682795D01*
X6399211Y-20800450D01*
X6078659Y-20800450D01*
X6092080Y-20770306D01*
X6118149Y-20655564D01*
X6120026Y-20521167D01*
X6097171Y-20405742D01*
X6052332Y-20296954D01*
X5987216Y-20198948D01*
X5904305Y-20115455D01*
X5806755Y-20049657D01*
X5698283Y-20004060D01*
X5583021Y-19980400D01*
X5465357Y-19979578D01*
X5349775Y-20001627D01*
X5240677Y-20045705D01*
X5142219Y-20110135D01*
X5058150Y-20192461D01*
X4991672Y-20289549D01*
X4945318Y-20397700D01*
X4920854Y-20512795D01*
X4919211Y-20630450D01*
X2224859Y-20630450D01*
X2217216Y-20618948D01*
X2134305Y-20535455D01*
X2036755Y-20469657D01*
X1928283Y-20424060D01*
X1813021Y-20400400D01*
X1695357Y-20399578D01*
X1579775Y-20421627D01*
X1470677Y-20465705D01*
X1372219Y-20530135D01*
X1288150Y-20612461D01*
X1221672Y-20709549D01*
X1175318Y-20817700D01*
X1150854Y-20932795D01*
X1149211Y-21050450D01*
X1170452Y-21166183D01*
X1213768Y-21275586D01*
X1277509Y-21374492D01*
X1315226Y-21413549D01*
X659496Y-21413549D01*
X699701Y-20508936D01*
X896793Y-19050450D01*
X4269211Y-19050450D01*
X4290452Y-19166183D01*
X4333768Y-19275586D01*
X4397509Y-19374492D01*
X4479247Y-19459134D01*
X4575868Y-19526287D01*
X4683693Y-19573395D01*
X4798614Y-19598662D01*
X4916254Y-19601126D01*
X5032133Y-19580694D01*
X5141835Y-19538143D01*
X5241184Y-19475094D01*
X5326395Y-19393949D01*
X5394221Y-19297799D01*
X5442080Y-19190306D01*
X5468149Y-19075564D01*
X5470026Y-18941167D01*
X5447171Y-18825742D01*
X5402332Y-18716954D01*
X5337216Y-18618948D01*
X5254305Y-18535455D01*
X5156755Y-18469657D01*
X5048283Y-18424060D01*
X4933021Y-18400400D01*
X4815357Y-18399578D01*
X4699775Y-18421627D01*
X4590677Y-18465705D01*
X4492219Y-18530135D01*
X4408150Y-18612461D01*
X4341672Y-18709549D01*
X4295318Y-18817700D01*
X4270854Y-18932795D01*
X4269211Y-19050450D01*
X896793Y-19050450D01*
X948479Y-18667978D01*
X1221628Y-17484333D01*
X1247509Y-17524492D01*
X1329247Y-17609134D01*
X1425868Y-17676287D01*
X1533693Y-17723395D01*
X1648614Y-17748662D01*
X1766254Y-17751126D01*
X1882133Y-17730694D01*
X1991835Y-17688143D01*
X2091184Y-17625094D01*
X2176395Y-17543949D01*
X2244221Y-17447799D01*
X2292080Y-17340306D01*
X2318149Y-17225564D01*
X2319617Y-17120450D01*
X4649211Y-17120450D01*
X4670452Y-17236183D01*
X4713768Y-17345586D01*
X4777509Y-17444492D01*
X4859247Y-17529134D01*
X4955868Y-17596287D01*
X5063693Y-17643395D01*
X5178614Y-17668662D01*
X5296254Y-17671126D01*
X5412133Y-17650694D01*
X5521835Y-17608143D01*
X5621184Y-17545094D01*
X5706395Y-17463949D01*
X5774221Y-17367799D01*
X5822080Y-17260306D01*
X5848149Y-17145564D01*
X5850026Y-17011167D01*
X5843944Y-16980450D01*
X8709211Y-16980450D01*
X8730452Y-17096183D01*
X8773768Y-17205586D01*
X8837509Y-17304492D01*
X8919247Y-17389134D01*
X9015868Y-17456287D01*
X9123693Y-17503395D01*
X9238614Y-17528662D01*
X9356254Y-17531126D01*
X9472133Y-17510694D01*
X9581835Y-17468143D01*
X9681184Y-17405094D01*
X9766395Y-17323949D01*
X9834221Y-17227799D01*
X9882080Y-17120306D01*
X9908149Y-17005564D01*
X9910026Y-16871167D01*
X9887171Y-16755742D01*
X9847143Y-16658627D01*
X9892133Y-16650694D01*
X10001835Y-16608143D01*
X10101184Y-16545094D01*
X10186395Y-16463949D01*
X10254221Y-16367799D01*
X10302080Y-16260306D01*
X10328149Y-16145564D01*
X10330026Y-16011167D01*
X10307171Y-15895742D01*
X10262332Y-15786954D01*
X10197216Y-15688948D01*
X10114305Y-15605455D01*
X10016755Y-15539657D01*
X9908283Y-15494060D01*
X9793021Y-15470400D01*
X9675357Y-15469578D01*
X9559775Y-15491627D01*
X9450677Y-15535705D01*
X9352219Y-15600135D01*
X9268150Y-15682461D01*
X9201672Y-15779549D01*
X9155318Y-15887700D01*
X9130854Y-16002795D01*
X9129211Y-16120450D01*
X9150452Y-16236183D01*
X9192200Y-16341626D01*
X9139775Y-16351627D01*
X9030677Y-16395705D01*
X8932219Y-16460135D01*
X8848150Y-16542461D01*
X8781672Y-16639549D01*
X8735318Y-16747700D01*
X8710854Y-16862795D01*
X8709211Y-16980450D01*
X5843944Y-16980450D01*
X5827171Y-16895742D01*
X5782332Y-16786954D01*
X5717216Y-16688948D01*
X5634305Y-16605455D01*
X5536755Y-16539657D01*
X5428283Y-16494060D01*
X5313021Y-16470400D01*
X5195357Y-16469578D01*
X5079775Y-16491627D01*
X4970677Y-16535705D01*
X4872219Y-16600135D01*
X4788150Y-16682461D01*
X4721672Y-16779549D01*
X4675318Y-16887700D01*
X4650854Y-17002795D01*
X4649211Y-17120450D01*
X2319617Y-17120450D01*
X2320026Y-17091167D01*
X2297171Y-16975742D01*
X2252332Y-16866954D01*
X2187216Y-16768948D01*
X2104305Y-16685455D01*
X2006755Y-16619657D01*
X1898283Y-16574060D01*
X1783021Y-16550400D01*
X1665357Y-16549578D01*
X1549775Y-16571627D01*
X1462929Y-16606715D01*
X1695119Y-15781148D01*
X1756758Y-15616777D01*
X1787509Y-15664492D01*
X1869247Y-15749134D01*
X1965868Y-15816287D01*
X2073693Y-15863395D01*
X2188614Y-15888662D01*
X2306254Y-15891126D01*
X2422133Y-15870694D01*
X2531835Y-15828143D01*
X2631184Y-15765094D01*
X2716395Y-15683949D01*
X2784221Y-15587799D01*
X2832080Y-15480306D01*
X2858149Y-15365564D01*
X2858779Y-15320450D01*
X4949211Y-15320450D01*
X4970452Y-15436183D01*
X5013768Y-15545586D01*
X5077509Y-15644492D01*
X5159247Y-15729134D01*
X5255868Y-15796287D01*
X5363693Y-15843395D01*
X5478614Y-15868662D01*
X5596254Y-15871126D01*
X5712133Y-15850694D01*
X5821835Y-15808143D01*
X5921184Y-15745094D01*
X6006395Y-15663949D01*
X6074221Y-15567799D01*
X6122080Y-15460306D01*
X6148149Y-15345564D01*
X6150026Y-15211167D01*
X6127171Y-15095742D01*
X6082332Y-14986954D01*
X6017216Y-14888948D01*
X5969057Y-14840450D01*
X8619211Y-14840450D01*
X8640452Y-14956183D01*
X8683768Y-15065586D01*
X8747509Y-15164492D01*
X8829247Y-15249134D01*
X8925868Y-15316287D01*
X9033693Y-15363395D01*
X9148614Y-15388662D01*
X9266254Y-15391126D01*
X9382133Y-15370694D01*
X9491835Y-15328143D01*
X9591184Y-15265094D01*
X9676395Y-15183949D01*
X9744221Y-15087799D01*
X9763740Y-15043958D01*
X9795868Y-15066287D01*
X9903693Y-15113395D01*
X10018614Y-15138662D01*
X10136254Y-15141126D01*
X10252133Y-15120694D01*
X10361835Y-15078143D01*
X10461184Y-15015094D01*
X10546395Y-14933949D01*
X10614221Y-14837799D01*
X10662080Y-14730306D01*
X10688149Y-14615564D01*
X10690026Y-14481167D01*
X10667171Y-14365742D01*
X10622332Y-14256954D01*
X10557216Y-14158948D01*
X10474305Y-14075455D01*
X10376755Y-14009657D01*
X10268283Y-13964060D01*
X10153021Y-13940400D01*
X10035357Y-13939578D01*
X9919775Y-13961627D01*
X9810677Y-14005705D01*
X9712219Y-14070135D01*
X9628150Y-14152461D01*
X9561672Y-14249549D01*
X9545995Y-14286125D01*
X9506755Y-14259657D01*
X9398283Y-14214060D01*
X9283021Y-14190400D01*
X9165357Y-14189578D01*
X9049775Y-14211627D01*
X8940677Y-14255705D01*
X8842219Y-14320135D01*
X8758150Y-14402461D01*
X8691672Y-14499549D01*
X8645318Y-14607700D01*
X8620854Y-14722795D01*
X8619211Y-14840450D01*
X5969057Y-14840450D01*
X5934305Y-14805455D01*
X5836755Y-14739657D01*
X5728283Y-14694060D01*
X5613021Y-14670400D01*
X5495357Y-14669578D01*
X5379775Y-14691627D01*
X5270677Y-14735705D01*
X5172219Y-14800135D01*
X5088150Y-14882461D01*
X5021672Y-14979549D01*
X4975318Y-15087700D01*
X4950854Y-15202795D01*
X4949211Y-15320450D01*
X2858779Y-15320450D01*
X2860026Y-15231167D01*
X2837171Y-15115742D01*
X2792332Y-15006954D01*
X2727216Y-14908948D01*
X2644305Y-14825455D01*
X2546755Y-14759657D01*
X2438283Y-14714060D01*
X2323021Y-14690400D01*
X2205357Y-14689578D01*
X2096684Y-14710309D01*
X2142589Y-14587896D01*
X2739886Y-13243978D01*
X3486568Y-11850170D01*
X3838638Y-11286858D01*
X3873768Y-11375586D01*
X3937509Y-11474492D01*
X4019247Y-11559134D01*
X4115868Y-11626287D01*
X4223693Y-11673395D01*
X4338614Y-11698662D01*
X4456254Y-11701126D01*
X4572133Y-11680694D01*
X4681835Y-11638143D01*
X4781184Y-11575094D01*
X4866395Y-11493949D01*
X4934221Y-11397799D01*
X4982080Y-11290306D01*
X5008149Y-11175564D01*
X5010026Y-11041167D01*
X4987171Y-10925742D01*
X4942332Y-10816954D01*
X4877216Y-10718948D01*
X4794305Y-10635455D01*
X4696755Y-10569657D01*
X4588283Y-10524060D01*
X4473021Y-10500400D01*
X4355357Y-10499578D01*
X4327349Y-10504921D01*
X4482383Y-10256867D01*
X4833490Y-9794884D01*
X4833768Y-9795586D01*
X4897509Y-9894492D01*
X4979247Y-9979134D01*
X5075868Y-10046287D01*
X5183693Y-10093395D01*
X5298614Y-10118662D01*
X5416254Y-10121126D01*
X5532133Y-10100694D01*
X5641835Y-10058143D01*
X5741184Y-9995094D01*
X5826395Y-9913949D01*
X5894221Y-9817799D01*
X5942080Y-9710306D01*
X5968149Y-9595564D01*
X5970026Y-9461167D01*
X5947171Y-9345742D01*
X5902332Y-9236954D01*
X5837216Y-9138948D01*
X5754305Y-9055455D01*
X5656755Y-8989657D01*
X5548283Y-8944060D01*
X5496961Y-8933525D01*
X6041080Y-8308796D01*
X6043768Y-8315586D01*
X6107509Y-8414492D01*
X6189247Y-8499134D01*
X6285868Y-8566287D01*
X6393693Y-8613395D01*
X6508614Y-8638662D01*
X6626254Y-8641126D01*
X6742133Y-8620694D01*
X6851835Y-8578143D01*
X6951184Y-8515094D01*
X7030041Y-8440000D01*
X7490000Y-8440000D01*
X7528186Y-8436256D01*
X7566217Y-8432671D01*
X7566939Y-8432456D01*
X7567694Y-8432382D01*
X7604383Y-8421305D01*
X7641036Y-8410389D01*
X7641706Y-8410036D01*
X7642428Y-8409818D01*
X7676132Y-8391897D01*
X7710102Y-8373999D01*
X7710692Y-8373522D01*
X7711357Y-8373168D01*
X7741023Y-8348973D01*
X7770784Y-8324886D01*
X7771793Y-8323878D01*
X7771854Y-8323828D01*
X7771907Y-8323763D01*
X7774735Y-8320938D01*
X7912261Y-8181554D01*
X7920452Y-8226183D01*
X7963768Y-8335586D01*
X8027509Y-8434492D01*
X8109247Y-8519134D01*
X8205868Y-8586287D01*
X8313693Y-8633395D01*
X8428614Y-8658662D01*
X8546254Y-8661126D01*
X8662133Y-8640694D01*
X8771835Y-8598143D01*
X8864750Y-8539177D01*
X8887509Y-8574492D01*
X8969247Y-8659134D01*
X9065868Y-8726287D01*
X9173693Y-8773395D01*
X9288614Y-8798662D01*
X9406254Y-8801126D01*
X9406998Y-8800995D01*
X9642346Y-9027938D01*
X9663425Y-9044620D01*
X9683441Y-9062552D01*
X9693966Y-9068790D01*
X9703561Y-9076384D01*
X9727473Y-9088651D01*
X9750597Y-9102357D01*
X9762138Y-9106434D01*
X9773021Y-9112017D01*
X9798856Y-9119405D01*
X9824206Y-9128360D01*
X9836316Y-9130117D01*
X9848079Y-9133481D01*
X9874867Y-9135711D01*
X9901463Y-9139570D01*
X9907044Y-9139790D01*
X12067044Y-9209790D01*
X12083479Y-9208715D01*
X12099925Y-9209503D01*
X12122330Y-9206173D01*
X12144944Y-9204693D01*
X12160856Y-9200446D01*
X12177143Y-9198025D01*
X12198482Y-9190403D01*
X12220370Y-9184561D01*
X12235151Y-9177306D01*
X12250661Y-9171766D01*
X12270112Y-9160145D01*
X12290449Y-9150163D01*
X12303540Y-9140174D01*
X12317678Y-9131728D01*
X12322147Y-9128378D01*
X13011516Y-8604070D01*
X14123734Y-7966119D01*
X14138999Y-7955256D01*
X14155285Y-7946004D01*
X14170719Y-7932682D01*
X14187339Y-7920854D01*
X14200204Y-7907231D01*
X14214381Y-7894994D01*
X14226936Y-7878925D01*
X14240939Y-7864097D01*
X14250909Y-7848242D01*
X14262444Y-7833478D01*
X14271641Y-7815271D01*
X14282495Y-7798010D01*
X14289196Y-7780520D01*
X14297643Y-7763797D01*
X14303128Y-7744152D01*
X14310423Y-7725111D01*
X14313599Y-7706654D01*
X14318638Y-7688606D01*
X14319569Y-7683100D01*
X14463343Y-6795455D01*
X14486986Y-6780450D01*
X17929211Y-6780450D01*
X17950452Y-6896183D01*
X17993768Y-7005586D01*
X18057509Y-7104492D01*
X18139247Y-7189134D01*
X18235868Y-7256287D01*
X18343693Y-7303395D01*
X18458614Y-7328662D01*
X18576254Y-7331126D01*
X18692133Y-7310694D01*
X18801835Y-7268143D01*
X18901184Y-7205094D01*
X18986395Y-7123949D01*
X19054221Y-7027799D01*
X19102080Y-6920306D01*
X19128149Y-6805564D01*
X19130026Y-6671167D01*
X19107171Y-6555742D01*
X19062332Y-6446954D01*
X18997216Y-6348948D01*
X18914305Y-6265455D01*
X18816755Y-6199657D01*
X18708283Y-6154060D01*
X18593021Y-6130400D01*
X18475357Y-6129578D01*
X18359775Y-6151627D01*
X18250677Y-6195705D01*
X18152219Y-6260135D01*
X18068150Y-6342461D01*
X18001672Y-6439549D01*
X17955318Y-6547700D01*
X17930854Y-6662795D01*
X17929211Y-6780450D01*
X14486986Y-6780450D01*
X14511184Y-6765094D01*
X14596395Y-6683949D01*
X14664221Y-6587799D01*
X14712080Y-6480306D01*
X14738149Y-6365564D01*
X14740026Y-6231167D01*
X14717171Y-6115742D01*
X14672332Y-6006954D01*
X14607216Y-5908948D01*
X14524305Y-5825455D01*
X14426755Y-5759657D01*
X14318283Y-5714060D01*
X14203021Y-5690400D01*
X14085357Y-5689578D01*
X13969775Y-5711627D01*
X13860677Y-5755705D01*
X13762219Y-5820135D01*
X13678150Y-5902461D01*
X13611672Y-5999549D01*
X13565318Y-6107700D01*
X13544100Y-6207523D01*
X13488283Y-6184060D01*
X13373021Y-6160400D01*
X13255357Y-6159578D01*
X13139775Y-6181627D01*
X13030677Y-6225705D01*
X12932219Y-6290135D01*
X12848150Y-6372461D01*
X12781672Y-6469549D01*
X12735318Y-6577700D01*
X12710854Y-6692795D01*
X12709211Y-6810450D01*
X12713733Y-6835090D01*
X12684305Y-6805455D01*
X12586755Y-6739657D01*
X12478283Y-6694060D01*
X12363021Y-6670400D01*
X12279131Y-6669814D01*
X12342935Y-6334845D01*
X12344604Y-6316454D01*
X12348160Y-6298323D01*
X12348123Y-6277662D01*
X12349989Y-6257098D01*
X12348054Y-6238734D01*
X12348021Y-6220256D01*
X12343972Y-6199996D01*
X12341808Y-6179462D01*
X12336342Y-6161822D01*
X12332721Y-6143704D01*
X12324814Y-6124617D01*
X12318702Y-6104892D01*
X12309914Y-6088649D01*
X12302843Y-6071581D01*
X12300178Y-6066673D01*
X11994865Y-5513653D01*
X12108614Y-5538662D01*
X12226254Y-5541126D01*
X12342133Y-5520694D01*
X12451835Y-5478143D01*
X12551184Y-5415094D01*
X12636395Y-5333949D01*
X12704221Y-5237799D01*
X12752080Y-5130306D01*
X12778149Y-5015564D01*
X12780026Y-4881167D01*
X12757171Y-4765742D01*
X12721754Y-4679813D01*
X13405347Y-4294691D01*
X14560031Y-3736920D01*
X14633996Y-3708014D01*
X14630854Y-3722795D01*
X14629211Y-3840450D01*
X14650452Y-3956183D01*
X14693768Y-4065586D01*
X14757509Y-4164492D01*
X14839247Y-4249134D01*
X14935868Y-4316287D01*
X15043693Y-4363395D01*
X15158614Y-4388662D01*
X15276254Y-4391126D01*
X15392133Y-4370694D01*
X15501835Y-4328143D01*
X15545472Y-4300450D01*
X20399211Y-4300450D01*
X20420452Y-4416183D01*
X20463768Y-4525586D01*
X20527509Y-4624492D01*
X20609247Y-4709134D01*
X20668154Y-4750075D01*
X20622219Y-4780135D01*
X20538150Y-4862461D01*
X20471672Y-4959549D01*
X20425318Y-5067700D01*
X20400854Y-5182795D01*
X20399211Y-5300450D01*
X20420452Y-5416183D01*
X20463768Y-5525586D01*
X20527509Y-5624492D01*
X20609247Y-5709134D01*
X20668154Y-5750075D01*
X20622219Y-5780135D01*
X20538150Y-5862461D01*
X20471672Y-5959549D01*
X20425318Y-6067700D01*
X20400854Y-6182795D01*
X20399211Y-6300450D01*
X20420452Y-6416183D01*
X20463768Y-6525586D01*
X20527509Y-6624492D01*
X20609247Y-6709134D01*
X20668154Y-6750075D01*
X20622219Y-6780135D01*
X20538150Y-6862461D01*
X20471672Y-6959549D01*
X20425318Y-7067700D01*
X20400854Y-7182795D01*
X20399211Y-7300450D01*
X20420452Y-7416183D01*
X20463768Y-7525586D01*
X20527509Y-7624492D01*
X20609247Y-7709134D01*
X20705868Y-7776287D01*
X20813693Y-7823395D01*
X20928614Y-7848662D01*
X21046254Y-7851126D01*
X21162133Y-7830694D01*
X21271835Y-7788143D01*
X21371184Y-7725094D01*
X21456395Y-7643949D01*
X21500110Y-7581978D01*
X21527509Y-7624492D01*
X21609247Y-7709134D01*
X21705868Y-7776287D01*
X21813693Y-7823395D01*
X21928614Y-7848662D01*
X22046254Y-7851126D01*
X22162133Y-7830694D01*
X22271835Y-7788143D01*
X22371184Y-7725094D01*
X22456395Y-7643949D01*
X22500110Y-7581978D01*
X22527509Y-7624492D01*
X22609247Y-7709134D01*
X22705868Y-7776287D01*
X22813693Y-7823395D01*
X22928614Y-7848662D01*
X23046254Y-7851126D01*
X23162133Y-7830694D01*
X23271835Y-7788143D01*
X23371184Y-7725094D01*
X23456395Y-7643949D01*
X23500110Y-7581978D01*
X23527509Y-7624492D01*
X23609247Y-7709134D01*
X23705868Y-7776287D01*
X23813693Y-7823395D01*
X23928614Y-7848662D01*
X24046254Y-7851126D01*
X24162133Y-7830694D01*
X24271835Y-7788143D01*
X24371184Y-7725094D01*
X24456395Y-7643949D01*
X24524221Y-7547799D01*
X24572080Y-7440306D01*
X24598149Y-7325564D01*
X24600026Y-7191167D01*
X24577171Y-7075742D01*
X24532332Y-6966954D01*
X24467216Y-6868948D01*
X24384305Y-6785455D01*
X24331837Y-6750065D01*
X24371184Y-6725094D01*
X24456395Y-6643949D01*
X24524221Y-6547799D01*
X24572080Y-6440306D01*
X24598149Y-6325564D01*
X24600026Y-6191167D01*
X24577171Y-6075742D01*
X24532332Y-5966954D01*
X24467216Y-5868948D01*
X24384305Y-5785455D01*
X24331837Y-5750065D01*
X24371184Y-5725094D01*
X24456395Y-5643949D01*
X24524221Y-5547799D01*
X24572080Y-5440306D01*
X24598149Y-5325564D01*
X24600026Y-5191167D01*
X24577171Y-5075742D01*
X24532332Y-4966954D01*
X24467216Y-4868948D01*
X24384305Y-4785455D01*
X24331837Y-4750065D01*
X24371184Y-4725094D01*
X24456395Y-4643949D01*
X24524221Y-4547799D01*
X24572080Y-4440306D01*
X24598149Y-4325564D01*
X24600026Y-4191167D01*
X24577171Y-4075742D01*
X24532332Y-3966954D01*
X24467216Y-3868948D01*
X24384305Y-3785455D01*
X24286755Y-3719657D01*
X24178283Y-3674060D01*
X24063021Y-3650400D01*
X23945357Y-3649578D01*
X23829775Y-3671627D01*
X23720677Y-3715705D01*
X23622219Y-3780135D01*
X23538150Y-3862461D01*
X23499962Y-3918233D01*
X23467216Y-3868948D01*
X23384305Y-3785455D01*
X23286755Y-3719657D01*
X23178283Y-3674060D01*
X23063021Y-3650400D01*
X22945357Y-3649578D01*
X22829775Y-3671627D01*
X22720677Y-3715705D01*
X22622219Y-3780135D01*
X22538150Y-3862461D01*
X22499962Y-3918233D01*
X22467216Y-3868948D01*
X22384305Y-3785455D01*
X22286755Y-3719657D01*
X22178283Y-3674060D01*
X22063021Y-3650400D01*
X21945357Y-3649578D01*
X21829775Y-3671627D01*
X21720677Y-3715705D01*
X21622219Y-3780135D01*
X21538150Y-3862461D01*
X21499962Y-3918233D01*
X21467216Y-3868948D01*
X21384305Y-3785455D01*
X21286755Y-3719657D01*
X21178283Y-3674060D01*
X21063021Y-3650400D01*
X20945357Y-3649578D01*
X20829775Y-3671627D01*
X20720677Y-3715705D01*
X20622219Y-3780135D01*
X20538150Y-3862461D01*
X20471672Y-3959549D01*
X20425318Y-4067700D01*
X20400854Y-4182795D01*
X20399211Y-4300450D01*
X15545472Y-4300450D01*
X15601184Y-4265094D01*
X15686395Y-4183949D01*
X15754221Y-4087799D01*
X15802080Y-3980306D01*
X15828149Y-3865564D01*
X15830026Y-3731167D01*
X15807171Y-3615742D01*
X15762332Y-3506954D01*
X15697216Y-3408948D01*
X15614305Y-3325455D01*
X15567894Y-3294151D01*
X15571606Y-3289828D01*
X15596629Y-3260897D01*
X15596980Y-3260280D01*
X15597444Y-3259740D01*
X15616274Y-3226395D01*
X15635257Y-3193057D01*
X15635483Y-3192381D01*
X15635831Y-3191764D01*
X15647814Y-3155435D01*
X15659972Y-3119006D01*
X15660261Y-3117696D01*
X15660284Y-3117627D01*
X15660294Y-3117549D01*
X15661176Y-3113552D01*
X15831570Y-2315800D01*
X16970694Y-1977364D01*
X18731828Y-1583815D01*
X19956715Y-1410013D01*
X20895386Y-2713722D01*
X20914823Y-2735804D01*
X20933169Y-2758797D01*
X20940566Y-2765051D01*
X20946966Y-2772322D01*
X20970319Y-2790206D01*
X20992783Y-2809199D01*
X21001255Y-2813898D01*
X21008945Y-2819787D01*
X21035329Y-2832796D01*
X21061052Y-2847063D01*
X21070272Y-2850026D01*
X21078963Y-2854311D01*
X21107381Y-2861950D01*
X21135376Y-2870946D01*
X21144994Y-2872061D01*
X21154353Y-2874577D01*
X21183720Y-2876551D01*
X21212923Y-2879937D01*
X21218507Y-2879997D01*
X23898508Y-2889997D01*
X23909090Y-2888999D01*
X23919706Y-2889514D01*
X23947876Y-2885342D01*
X23976230Y-2882669D01*
X23986416Y-2879635D01*
X23996930Y-2878078D01*
X24023760Y-2868512D01*
X24051047Y-2860384D01*
X24060448Y-2855431D01*
X24070462Y-2851860D01*
X24094916Y-2837269D01*
X24120113Y-2823992D01*
X24124489Y-2820450D01*
X26249211Y-2820450D01*
X26270452Y-2936183D01*
X26313768Y-3045586D01*
X26377509Y-3144492D01*
X26459247Y-3229134D01*
X26555868Y-3296287D01*
X26663693Y-3343395D01*
X26778614Y-3368662D01*
X26896254Y-3371126D01*
X27012133Y-3350694D01*
X27121835Y-3308143D01*
X27221184Y-3245094D01*
X27306395Y-3163949D01*
X27374221Y-3067799D01*
X27422080Y-2960306D01*
X27448149Y-2845564D01*
X27450026Y-2711167D01*
X27427171Y-2595742D01*
X27382332Y-2486954D01*
X27317216Y-2388948D01*
X27234305Y-2305455D01*
X27136755Y-2239657D01*
X27028283Y-2194060D01*
X26913021Y-2170400D01*
X26795357Y-2169578D01*
X26679775Y-2191627D01*
X26570677Y-2235705D01*
X26472219Y-2300135D01*
X26388150Y-2382461D01*
X26321672Y-2479549D01*
X26275318Y-2587700D01*
X26250854Y-2702795D01*
X26249211Y-2820450D01*
X24124489Y-2820450D01*
X24128377Y-2817303D01*
X24137501Y-2811859D01*
X24158650Y-2792801D01*
X24180793Y-2774878D01*
X24187601Y-2766711D01*
X24195494Y-2759598D01*
X24199230Y-2755446D01*
X24452267Y-2470205D01*
X24496254Y-2471126D01*
X24612133Y-2450694D01*
X24721835Y-2408143D01*
X24821184Y-2345094D01*
X24906395Y-2263949D01*
X24974221Y-2167799D01*
X25022080Y-2060306D01*
X25048149Y-1945564D01*
X25050026Y-1811167D01*
X25027171Y-1695742D01*
X24982332Y-1586954D01*
X24917216Y-1488948D01*
X24834305Y-1405455D01*
X24736755Y-1339657D01*
X24628283Y-1294060D01*
X24513021Y-1270400D01*
X24395357Y-1269578D01*
X24279775Y-1291627D01*
X24182986Y-1330732D01*
X24192080Y-1310306D01*
X24218149Y-1195564D01*
X24220026Y-1061167D01*
X24197171Y-945742D01*
X24184808Y-915747D01*
X25187617Y-999315D01*
M02*
