G04 #@! TF.FileFunction,Soldermask,Top*
%FSLAX46Y46*%
G04 Gerber Fmt 4.6, Leading zero omitted, Abs format (unit mm)*
G04 Created by KiCad (PCBNEW 4.0.1-stable) date 2016 January 15, Friday 23:21:34*
%MOMM*%
G01*
G04 APERTURE LIST*
%ADD10C,0.020000*%
%ADD11R,0.700000X0.700000*%
%ADD12C,3.200000*%
%ADD13C,1.100000*%
%ADD14R,1.000000X1.000000*%
%ADD15C,1.800000*%
%ADD16C,1.800000*%
%ADD17R,1.680000X1.680000*%
%ADD18R,0.840000X0.410000*%
%ADD19R,0.410000X0.840000*%
%ADD20C,0.200000*%
G04 APERTURE END LIST*
D10*
G36*
X28804573Y-11303360D02*
X29185820Y-10716291D01*
X29772889Y-11097538D01*
X29391642Y-11684607D01*
X28804573Y-11303360D01*
X28804573Y-11303360D01*
G37*
G36*
X29727111Y-11902462D02*
X30108358Y-11315393D01*
X30695427Y-11696640D01*
X30314180Y-12283709D01*
X29727111Y-11902462D01*
X29727111Y-11902462D01*
G37*
G36*
X15827771Y-10726255D02*
X16198715Y-11319889D01*
X15605081Y-11690833D01*
X15234137Y-11097199D01*
X15827771Y-10726255D01*
X15827771Y-10726255D01*
G37*
G36*
X14894919Y-11309167D02*
X15265863Y-11902801D01*
X14672229Y-12273745D01*
X14301285Y-11680111D01*
X14894919Y-11309167D01*
X14894919Y-11309167D01*
G37*
G36*
X27514570Y-6331074D02*
X27753984Y-5673290D01*
X28411768Y-5912704D01*
X28172354Y-6570488D01*
X27514570Y-6331074D01*
X27514570Y-6331074D01*
G37*
G36*
X28548232Y-6707296D02*
X28787646Y-6049512D01*
X29445430Y-6288926D01*
X29206016Y-6946710D01*
X28548232Y-6707296D01*
X28548232Y-6707296D01*
G37*
G36*
X17505615Y-2270703D02*
X17314806Y-1289076D01*
X18100107Y-1136429D01*
X18290916Y-2118056D01*
X17505615Y-2270703D01*
X17505615Y-2270703D01*
G37*
G36*
X18879893Y-2003571D02*
X18689084Y-1021944D01*
X19474385Y-869297D01*
X19665194Y-1850924D01*
X18879893Y-2003571D01*
X18879893Y-2003571D01*
G37*
G36*
X19623929Y-1557109D02*
X19562920Y-859772D01*
X20260257Y-798763D01*
X20321266Y-1496100D01*
X19623929Y-1557109D01*
X19623929Y-1557109D01*
G37*
G36*
X20719743Y-1461237D02*
X20658734Y-763900D01*
X21356071Y-702891D01*
X21417080Y-1400228D01*
X20719743Y-1461237D01*
X20719743Y-1461237D01*
G37*
G36*
X28515778Y-6784349D02*
X29169284Y-7035207D01*
X28918426Y-7688713D01*
X28264920Y-7437855D01*
X28515778Y-6784349D01*
X28515778Y-6784349D01*
G37*
G36*
X28121574Y-7811287D02*
X28775080Y-8062145D01*
X28524222Y-8715651D01*
X27870716Y-8464793D01*
X28121574Y-7811287D01*
X28121574Y-7811287D01*
G37*
G36*
X7634043Y-9524044D02*
X6991255Y-10290088D01*
X6378419Y-9775858D01*
X7021207Y-9009814D01*
X7634043Y-9524044D01*
X7634043Y-9524044D01*
G37*
G36*
X6561581Y-8624142D02*
X5918793Y-9390186D01*
X5305957Y-8875956D01*
X5948745Y-8109912D01*
X6561581Y-8624142D01*
X6561581Y-8624142D01*
G37*
G36*
X26109873Y-931288D02*
X26798152Y-1058853D01*
X26670587Y-1747132D01*
X25982308Y-1619567D01*
X26109873Y-931288D01*
X26109873Y-931288D01*
G37*
G36*
X25909413Y-2012868D02*
X26597692Y-2140433D01*
X26470127Y-2828712D01*
X25781848Y-2701147D01*
X25909413Y-2012868D01*
X25909413Y-2012868D01*
G37*
G36*
X30344205Y-2094348D02*
X30995498Y-2350899D01*
X30738947Y-3002192D01*
X30087654Y-2745641D01*
X30344205Y-2094348D01*
X30344205Y-2094348D01*
G37*
G36*
X29941053Y-3117808D02*
X30592346Y-3374359D01*
X30335795Y-4025652D01*
X29684502Y-3769101D01*
X29941053Y-3117808D01*
X29941053Y-3117808D01*
G37*
G36*
X28439920Y-4494863D02*
X28258746Y-5171011D01*
X27582598Y-4989837D01*
X27763772Y-4313689D01*
X28439920Y-4494863D01*
X28439920Y-4494863D01*
G37*
G36*
X27377402Y-4210163D02*
X27196228Y-4886311D01*
X26520080Y-4705137D01*
X26701254Y-4028989D01*
X27377402Y-4210163D01*
X27377402Y-4210163D01*
G37*
G36*
X29564205Y-4114348D02*
X30215498Y-4370899D01*
X29958947Y-5022192D01*
X29307654Y-4765641D01*
X29564205Y-4114348D01*
X29564205Y-4114348D01*
G37*
G36*
X29161053Y-5137808D02*
X29812346Y-5394359D01*
X29555795Y-6045652D01*
X28904502Y-5789101D01*
X29161053Y-5137808D01*
X29161053Y-5137808D01*
G37*
G36*
X15691655Y-3967841D02*
X15486995Y-3298427D01*
X16156409Y-3093767D01*
X16361069Y-3763181D01*
X15691655Y-3967841D01*
X15691655Y-3967841D01*
G37*
G36*
X16743591Y-3646233D02*
X16538931Y-2976819D01*
X17208345Y-2772159D01*
X17413005Y-3441573D01*
X16743591Y-3646233D01*
X16743591Y-3646233D01*
G37*
G36*
X15184251Y-2989761D02*
X14891879Y-2033456D01*
X15656923Y-1799559D01*
X15949295Y-2755864D01*
X15184251Y-2989761D01*
X15184251Y-2989761D01*
G37*
G36*
X16523077Y-2580441D02*
X16230705Y-1624136D01*
X16995749Y-1390239D01*
X17288121Y-2346544D01*
X16523077Y-2580441D01*
X16523077Y-2580441D01*
G37*
G36*
X23958345Y-1384007D02*
X24031515Y-687841D01*
X24727681Y-761011D01*
X24654511Y-1457177D01*
X23958345Y-1384007D01*
X23958345Y-1384007D01*
G37*
G36*
X25052319Y-1498989D02*
X25125489Y-802823D01*
X25821655Y-875993D01*
X25748485Y-1572159D01*
X25052319Y-1498989D01*
X25052319Y-1498989D01*
G37*
G36*
X19172436Y-10239472D02*
X19026898Y-9554768D01*
X19711602Y-9409230D01*
X19857140Y-10093934D01*
X19172436Y-10239472D01*
X19172436Y-10239472D01*
G37*
G36*
X20248398Y-10010770D02*
X20102860Y-9326066D01*
X20787564Y-9180528D01*
X20933102Y-9865232D01*
X20248398Y-10010770D01*
X20248398Y-10010770D01*
G37*
D11*
X9000000Y-23300000D03*
X9000000Y-22200000D03*
X7750000Y-22200000D03*
X7750000Y-23300000D03*
D10*
G36*
X12095577Y-6303109D02*
X11745577Y-5696891D01*
X12351795Y-5346891D01*
X12701795Y-5953109D01*
X12095577Y-6303109D01*
X12095577Y-6303109D01*
G37*
G36*
X13048205Y-5753109D02*
X12698205Y-5146891D01*
X13304423Y-4796891D01*
X13654423Y-5403109D01*
X13048205Y-5753109D01*
X13048205Y-5753109D01*
G37*
G36*
X13516165Y-2568301D02*
X14160519Y-2294789D01*
X14434031Y-2939143D01*
X13789677Y-3212655D01*
X13516165Y-2568301D01*
X13516165Y-2568301D01*
G37*
G36*
X13945969Y-3580857D02*
X14590323Y-3307345D01*
X14863835Y-3951699D01*
X14219481Y-4225211D01*
X13945969Y-3580857D01*
X13945969Y-3580857D01*
G37*
G36*
X21456246Y-1385654D02*
X21444029Y-685761D01*
X22143922Y-673544D01*
X22156139Y-1373437D01*
X21456246Y-1385654D01*
X21456246Y-1385654D01*
G37*
G36*
X22556078Y-1366456D02*
X22543861Y-666563D01*
X23243754Y-654346D01*
X23255971Y-1354239D01*
X22556078Y-1366456D01*
X22556078Y-1366456D01*
G37*
G36*
X14395577Y-10753109D02*
X14045577Y-10146891D01*
X14651795Y-9796891D01*
X15001795Y-10403109D01*
X14395577Y-10753109D01*
X14395577Y-10753109D01*
G37*
G36*
X15348205Y-10203109D02*
X14998205Y-9596891D01*
X15604423Y-9246891D01*
X15954423Y-9853109D01*
X15348205Y-10203109D01*
X15348205Y-10203109D01*
G37*
G36*
X27005137Y-6999920D02*
X26328989Y-6818746D01*
X26510163Y-6142598D01*
X27186311Y-6323772D01*
X27005137Y-6999920D01*
X27005137Y-6999920D01*
G37*
G36*
X27289837Y-5937402D02*
X26613689Y-5756228D01*
X26794863Y-5080080D01*
X27471011Y-5261254D01*
X27289837Y-5937402D01*
X27289837Y-5937402D01*
G37*
G36*
X13015301Y-8004452D02*
X12590949Y-8249452D01*
X12270949Y-7695196D01*
X12695301Y-7450196D01*
X13015301Y-8004452D01*
X13015301Y-8004452D01*
G37*
G36*
X13578218Y-7679452D02*
X13153866Y-7924452D01*
X12833866Y-7370196D01*
X13258218Y-7125196D01*
X13578218Y-7679452D01*
X13578218Y-7679452D01*
G37*
G36*
X14141134Y-7354452D02*
X13716782Y-7599452D01*
X13396782Y-7045196D01*
X13821134Y-6800196D01*
X14141134Y-7354452D01*
X14141134Y-7354452D01*
G37*
G36*
X14704051Y-7029452D02*
X14279699Y-7274452D01*
X13959699Y-6720196D01*
X14384051Y-6475196D01*
X14704051Y-7029452D01*
X14704051Y-7029452D01*
G37*
G36*
X15729051Y-8804804D02*
X15304699Y-9049804D01*
X14984699Y-8495548D01*
X15409051Y-8250548D01*
X15729051Y-8804804D01*
X15729051Y-8804804D01*
G37*
G36*
X15166134Y-9129804D02*
X14741782Y-9374804D01*
X14421782Y-8820548D01*
X14846134Y-8575548D01*
X15166134Y-9129804D01*
X15166134Y-9129804D01*
G37*
G36*
X14603218Y-9454804D02*
X14178866Y-9699804D01*
X13858866Y-9145548D01*
X14283218Y-8900548D01*
X14603218Y-9454804D01*
X14603218Y-9454804D01*
G37*
G36*
X14040301Y-9779804D02*
X13615949Y-10024804D01*
X13295949Y-9470548D01*
X13720301Y-9225548D01*
X14040301Y-9779804D01*
X14040301Y-9779804D01*
G37*
D12*
X12000000Y-12250000D03*
D10*
G36*
X9391532Y-9796814D02*
X9025855Y-10137813D01*
X8616656Y-9699000D01*
X8982333Y-9358001D01*
X9391532Y-9796814D01*
X9391532Y-9796814D01*
G37*
G36*
X9757209Y-9455814D02*
X9391532Y-9796813D01*
X8982333Y-9358000D01*
X9348010Y-9017001D01*
X9757209Y-9455814D01*
X9757209Y-9455814D01*
G37*
G36*
X10122886Y-9114815D02*
X9757209Y-9455814D01*
X9348010Y-9017001D01*
X9713687Y-8676002D01*
X10122886Y-9114815D01*
X10122886Y-9114815D01*
G37*
G36*
X10488563Y-8773816D02*
X10122886Y-9114815D01*
X9713687Y-8676002D01*
X10079364Y-8335003D01*
X10488563Y-8773816D01*
X10488563Y-8773816D01*
G37*
G36*
X10854240Y-8432817D02*
X10488563Y-8773816D01*
X10079364Y-8335003D01*
X10445041Y-7994004D01*
X10854240Y-8432817D01*
X10854240Y-8432817D01*
G37*
G36*
X10185814Y-7312791D02*
X10526813Y-7678468D01*
X10088000Y-8087667D01*
X9747001Y-7721990D01*
X10185814Y-7312791D01*
X10185814Y-7312791D01*
G37*
G36*
X9844815Y-6947114D02*
X10185814Y-7312791D01*
X9747001Y-7721990D01*
X9406002Y-7356313D01*
X9844815Y-6947114D01*
X9844815Y-6947114D01*
G37*
G36*
X9503816Y-6581437D02*
X9844815Y-6947114D01*
X9406002Y-7356313D01*
X9065003Y-6990636D01*
X9503816Y-6581437D01*
X9503816Y-6581437D01*
G37*
G36*
X9183344Y-6641000D02*
X8817667Y-6981999D01*
X8408468Y-6543186D01*
X8774145Y-6202187D01*
X9183344Y-6641000D01*
X9183344Y-6641000D01*
G37*
G36*
X8817667Y-6982000D02*
X8451990Y-7322999D01*
X8042791Y-6884186D01*
X8408468Y-6543187D01*
X8817667Y-6982000D01*
X8817667Y-6982000D01*
G37*
G36*
X8451990Y-7322999D02*
X8086313Y-7663998D01*
X7677114Y-7225185D01*
X8042791Y-6884186D01*
X8451990Y-7322999D01*
X8451990Y-7322999D01*
G37*
G36*
X8086313Y-7663998D02*
X7720636Y-8004997D01*
X7311437Y-7566184D01*
X7677114Y-7225185D01*
X8086313Y-7663998D01*
X8086313Y-7663998D01*
G37*
G36*
X7720636Y-8004997D02*
X7354959Y-8345996D01*
X6945760Y-7907183D01*
X7311437Y-7566184D01*
X7720636Y-8004997D01*
X7720636Y-8004997D01*
G37*
G36*
X7712000Y-8252333D02*
X8052999Y-8618010D01*
X7614186Y-9027209D01*
X7273187Y-8661532D01*
X7712000Y-8252333D01*
X7712000Y-8252333D01*
G37*
G36*
X8052999Y-8618010D02*
X8393998Y-8983687D01*
X7955185Y-9392886D01*
X7614186Y-9027209D01*
X8052999Y-8618010D01*
X8052999Y-8618010D01*
G37*
G36*
X8393998Y-8983687D02*
X8734997Y-9349364D01*
X8296184Y-9758563D01*
X7955185Y-9392886D01*
X8393998Y-8983687D01*
X8393998Y-8983687D01*
G37*
G36*
X8558730Y-14974879D02*
X9472367Y-15381656D01*
X9065590Y-16295293D01*
X8151953Y-15888516D01*
X8558730Y-14974879D01*
X8558730Y-14974879D01*
G37*
G36*
X7785930Y-16710615D02*
X8699567Y-17117392D01*
X8292790Y-18031029D01*
X7379153Y-17624252D01*
X7785930Y-16710615D01*
X7785930Y-16710615D01*
G37*
G36*
X9998489Y-16655806D02*
X10912126Y-17062583D01*
X10505349Y-17976220D01*
X9591712Y-17569443D01*
X9998489Y-16655806D01*
X9998489Y-16655806D01*
G37*
G36*
X26269095Y-10227709D02*
X26691713Y-9321401D01*
X27416759Y-9659495D01*
X26994141Y-10565803D01*
X26269095Y-10227709D01*
X26269095Y-10227709D01*
G37*
G36*
X27583241Y-10840505D02*
X28005859Y-9934197D01*
X28730905Y-10272291D01*
X28308287Y-11178599D01*
X27583241Y-10840505D01*
X27583241Y-10840505D01*
G37*
G36*
X18355778Y-9364975D02*
X18730385Y-10292159D01*
X17988638Y-10591845D01*
X17614031Y-9664661D01*
X18355778Y-9364975D01*
X18355778Y-9364975D01*
G37*
G36*
X17011362Y-9908155D02*
X17385969Y-10835339D01*
X16644222Y-11135025D01*
X16269615Y-10207841D01*
X17011362Y-9908155D01*
X17011362Y-9908155D01*
G37*
D13*
X960000Y-23385000D03*
D14*
X960000Y-22115000D03*
X2230000Y-23385000D03*
X2230000Y-22115000D03*
X3500000Y-23385000D03*
X3500000Y-22115000D03*
X4770000Y-23385000D03*
X4770000Y-22115000D03*
X6040000Y-23385000D03*
X6040000Y-22115000D03*
D15*
X12981497Y-29581497D02*
X15668503Y-32268503D01*
X15668503Y-13231497D02*
X12981497Y-15918503D01*
D16*
X3500000Y-14250000D03*
X31750000Y-4000000D03*
D10*
G36*
X8249158Y-12969081D02*
X8739333Y-12214278D01*
X9745738Y-12867845D01*
X9255563Y-13622648D01*
X8249158Y-12969081D01*
X8249158Y-12969081D01*
G37*
G36*
X4223540Y-10354814D02*
X4713715Y-9600011D01*
X5720120Y-10253578D01*
X5229945Y-11008381D01*
X4223540Y-10354814D01*
X4223540Y-10354814D01*
G37*
G36*
X3134262Y-12032155D02*
X3624437Y-11277352D01*
X4630842Y-11930919D01*
X4140667Y-12685722D01*
X3134262Y-12032155D01*
X3134262Y-12032155D01*
G37*
G36*
X7159880Y-14646422D02*
X7650055Y-13891619D01*
X8656460Y-14545186D01*
X8166285Y-15299989D01*
X7159880Y-14646422D01*
X7159880Y-14646422D01*
G37*
G36*
X5951017Y-17704615D02*
X6183954Y-16835282D01*
X7343065Y-17145865D01*
X7110128Y-18015198D01*
X5951017Y-17704615D01*
X5951017Y-17704615D01*
G37*
G36*
X1314573Y-16462283D02*
X1547510Y-15592950D01*
X2706621Y-15903533D01*
X2473684Y-16772866D01*
X1314573Y-16462283D01*
X1314573Y-16462283D01*
G37*
G36*
X796935Y-18394135D02*
X1029872Y-17524802D01*
X2188983Y-17835385D01*
X1956046Y-18704718D01*
X796935Y-18394135D01*
X796935Y-18394135D01*
G37*
G36*
X5433379Y-19636467D02*
X5666316Y-18767134D01*
X6825427Y-19077717D01*
X6592490Y-19947050D01*
X5433379Y-19636467D01*
X5433379Y-19636467D01*
G37*
G36*
X12997243Y-2733878D02*
X13847243Y-4206122D01*
X12981217Y-4706122D01*
X12131217Y-3233878D01*
X12997243Y-2733878D01*
X12997243Y-2733878D01*
G37*
G36*
X10918783Y-3933878D02*
X11768783Y-5406122D01*
X10902757Y-5906122D01*
X10052757Y-4433878D01*
X10918783Y-3933878D01*
X10918783Y-3933878D01*
G37*
G36*
X27853608Y-4025858D02*
X26844283Y-3736439D01*
X27161266Y-2630988D01*
X28170591Y-2920407D01*
X27853608Y-4025858D01*
X27853608Y-4025858D01*
G37*
G36*
X28959059Y-4342841D02*
X27949734Y-4053422D01*
X28266717Y-2947971D01*
X29276042Y-3237390D01*
X28959059Y-4342841D01*
X28959059Y-4342841D01*
G37*
G36*
X29358734Y-2949012D02*
X28349409Y-2659593D01*
X28666392Y-1554142D01*
X29675717Y-1843561D01*
X29358734Y-2949012D01*
X29358734Y-2949012D01*
G37*
G36*
X28253283Y-2632029D02*
X27243958Y-2342610D01*
X27560941Y-1237159D01*
X28570266Y-1526578D01*
X28253283Y-2632029D01*
X28253283Y-2632029D01*
G37*
D17*
X22500000Y-7270000D03*
X24020000Y-5750000D03*
X20980000Y-5750000D03*
X22500000Y-5750000D03*
X22500000Y-4230000D03*
D18*
X19640000Y-3550000D03*
X19640000Y-3950000D03*
X19640000Y-4350000D03*
X19640000Y-4750000D03*
X19640000Y-5150000D03*
X19640000Y-5550000D03*
X19640000Y-5950000D03*
X19640000Y-6350000D03*
X19640000Y-6750000D03*
X19640000Y-7150000D03*
X19640000Y-7550000D03*
X19640000Y-7950000D03*
D19*
X20300000Y-8610000D03*
X20700000Y-8610000D03*
X21100000Y-8610000D03*
X21500000Y-8610000D03*
X21900000Y-8610000D03*
X22300000Y-8610000D03*
X22700000Y-8610000D03*
X23100000Y-8610000D03*
X23500000Y-8610000D03*
X23900000Y-8610000D03*
X24300000Y-8610000D03*
X24700000Y-8610000D03*
D18*
X25360000Y-7950000D03*
X25360000Y-7550000D03*
X25360000Y-7150000D03*
X25360000Y-6750000D03*
X25360000Y-6350000D03*
X25360000Y-5950000D03*
X25360000Y-5550000D03*
X25360000Y-5150000D03*
X25360000Y-4750000D03*
X25360000Y-4350000D03*
X25360000Y-3950000D03*
X25360000Y-3550000D03*
D19*
X24700000Y-2890000D03*
X24300000Y-2890000D03*
X23900000Y-2890000D03*
X23500000Y-2890000D03*
X23100000Y-2890000D03*
X22700000Y-2890000D03*
X22300000Y-2890000D03*
X21900000Y-2890000D03*
X21500000Y-2890000D03*
X21100000Y-2890000D03*
X20700000Y-2890000D03*
X20300000Y-2890000D03*
D17*
X20980000Y-4230000D03*
X24020000Y-4230000D03*
X24020000Y-7270000D03*
X20980000Y-7270000D03*
D20*
G36*
X24900000Y-8150000D02*
X20100000Y-8150000D01*
X20100000Y-3350000D01*
X24900000Y-3350000D01*
X24900000Y-8150000D01*
X24900000Y-8150000D01*
G37*
X24900000Y-8150000D02*
X20100000Y-8150000D01*
X20100000Y-3350000D01*
X24900000Y-3350000D01*
X24900000Y-8150000D01*
M02*
