G04 #@! TF.FileFunction,Copper,L2,Inr,Signal*
%FSLAX46Y46*%
G04 Gerber Fmt 4.6, Leading zero omitted, Abs format (unit mm)*
G04 Created by KiCad (PCBNEW 4.0.1-stable) date 2016 January 15, Friday 11:05:17*
%MOMM*%
G01*
G04 APERTURE LIST*
%ADD10C,0.020000*%
%ADD11C,3.000000*%
%ADD12C,0.900000*%
%ADD13R,0.800000X0.800000*%
%ADD14C,1.600000*%
%ADD15C,0.600000*%
%ADD16C,0.200000*%
%ADD17C,0.150000*%
%ADD18C,0.800000*%
G04 APERTURE END LIST*
D10*
D11*
X12000000Y-12250000D03*
D12*
X960000Y-23385000D03*
D13*
X960000Y-22115000D03*
X2230000Y-23385000D03*
X2230000Y-22115000D03*
X3500000Y-23385000D03*
X3500000Y-22115000D03*
X4770000Y-23385000D03*
X4770000Y-22115000D03*
X6040000Y-23385000D03*
X6040000Y-22115000D03*
D14*
X12981497Y-29581497D02*
X15668503Y-32268503D01*
X15668503Y-13231497D02*
X12981497Y-15918503D01*
D15*
X21000000Y-4250000D03*
X22000000Y-4250000D03*
X23000000Y-4250000D03*
X24000000Y-4250000D03*
X21000000Y-5250000D03*
X22000000Y-5250000D03*
X23000000Y-5250000D03*
X24000000Y-5250000D03*
X21000000Y-6250000D03*
X22000000Y-6250000D03*
X23000000Y-6250000D03*
X24000000Y-6250000D03*
X21000000Y-7250000D03*
X22000000Y-7250000D03*
X23000000Y-7250000D03*
X24000000Y-7250000D03*
X3000000Y-17250000D03*
X7730199Y-10241985D03*
X15170000Y-10700000D03*
X30970000Y-12380000D03*
X21250000Y-9520000D03*
X8900000Y-17780000D03*
X8450000Y-16510000D03*
X7660000Y-18240000D03*
X25330000Y-2030000D03*
X18020000Y-2630000D03*
X28960000Y-4700000D03*
X2250000Y-15250000D03*
X27240000Y-8880000D03*
X27550000Y-7960000D03*
X27080000Y-1530000D03*
X26850000Y-2770000D03*
X29880000Y-2340000D03*
X5250000Y-17070000D03*
X1720000Y-17150000D03*
X4410000Y-11100000D03*
X1750000Y-21000000D03*
X7760000Y-21260000D03*
X8500000Y-8060000D03*
X12300000Y-7270000D03*
X18760000Y-9220000D03*
X15230000Y-3790000D03*
X15860000Y-10360000D03*
X12180000Y-4940000D03*
X9220000Y-14790000D03*
X9730000Y-16070000D03*
X5370000Y-9520000D03*
X23620000Y-1120000D03*
X16000000Y-9160000D03*
X6750000Y-28500000D03*
X7390000Y-24260000D03*
X16770000Y-9590000D03*
X8250000Y-24250000D03*
X22860000Y-9460000D03*
X17480000Y-10130000D03*
X26600000Y-7460000D03*
X25670000Y-9510000D03*
X5520000Y-20580000D03*
X17390000Y-8210000D03*
X23620000Y-9490000D03*
X24890000Y-9370000D03*
X4870000Y-19000000D03*
X10090000Y-14540000D03*
X22100000Y-9460000D03*
X9810000Y-6290000D03*
X18530000Y-6730000D03*
X24450000Y-1870000D03*
X13310000Y-6760000D03*
X10850000Y-7460000D03*
X6580000Y-8040000D03*
X14250000Y-11200000D03*
X16450000Y-8470000D03*
X23610000Y-1890000D03*
X10360000Y-6840000D03*
X21690000Y-1820000D03*
X9360000Y-8200000D03*
X14140000Y-6290000D03*
X9310000Y-16930000D03*
X27850000Y-9550000D03*
X12800000Y-10380000D03*
X13510000Y-10940000D03*
D16*
X7000000Y-22500000D02*
X7000000Y-21750000D01*
X6051457Y-24250000D02*
X6500000Y-24250000D01*
X6500000Y-24250000D02*
X7000000Y-23750000D01*
X7000000Y-23750000D02*
X7000000Y-22500000D01*
X2000000Y-21250000D02*
X1750000Y-21000000D01*
X6500000Y-21250000D02*
X2000000Y-21250000D01*
X7000000Y-21750000D02*
X6500000Y-21250000D01*
X6040000Y-23385000D02*
X6051457Y-24250000D01*
X3500000Y-23385000D02*
X3511457Y-24250000D01*
X3900000Y-24250000D02*
X3511457Y-24250000D01*
X3511457Y-24250000D02*
X2230000Y-24250000D01*
X2230000Y-24250000D02*
X2230000Y-23385000D01*
X3900000Y-24250000D02*
X6051457Y-24250000D01*
D17*
X24136911Y-8599841D02*
X25350442Y-8819785D01*
X25350442Y-8819785D02*
X25670000Y-9510000D01*
X20340000Y-8750000D02*
X19830000Y-9610000D01*
X24140000Y-8600000D02*
X24136911Y-8599841D01*
X24136911Y-8599841D02*
X22590000Y-8520000D01*
X22590000Y-8520000D02*
X21460000Y-8600000D01*
X21460000Y-8600000D02*
X20340000Y-8750000D01*
X17390000Y-8210000D02*
X17890000Y-9650000D01*
X18460000Y-9960000D02*
X17890000Y-9650000D01*
X18930000Y-9810000D02*
X18460000Y-9960000D01*
X19830000Y-9610000D02*
X18930000Y-9810000D01*
X21520000Y-8940000D02*
X20800000Y-9020000D01*
X20800000Y-9020000D02*
X20210000Y-9880000D01*
X20210000Y-9880000D02*
X19200000Y-10080000D01*
X19200000Y-10080000D02*
X18110000Y-10430000D01*
X18110000Y-10430000D02*
X16220000Y-11280000D01*
X16220000Y-11280000D02*
X14890000Y-12140000D01*
X14890000Y-12140000D02*
X13780000Y-13040000D01*
X13780000Y-13040000D02*
X12820000Y-14010000D01*
X12820000Y-14010000D02*
X11390000Y-14170000D01*
X11390000Y-14170000D02*
X11170000Y-14420000D01*
X11170000Y-14420000D02*
X10090000Y-14540000D01*
X22100000Y-9460000D02*
X21520000Y-8940000D01*
D16*
X15200000Y-9950000D02*
X15330000Y-8770000D01*
X15200000Y-9950000D02*
X14400000Y-10500000D01*
X14400000Y-10500000D02*
X14250000Y-11200000D01*
X16450000Y-8470000D02*
X16170000Y-8350000D01*
X16170000Y-8350000D02*
X15330000Y-8770000D01*
X16170000Y-8350000D02*
X15330000Y-8770000D01*
D18*
X10251803Y-17343072D02*
X9310000Y-16930000D01*
X9460000Y-25930000D02*
X9170000Y-24310000D01*
X12020000Y-31150000D02*
X11110000Y-29830000D01*
X11110000Y-29830000D02*
X10150000Y-28020000D01*
X10150000Y-28020000D02*
X9460000Y-25930000D01*
X14325000Y-30925000D02*
X12020000Y-31150000D01*
X11650000Y-14880000D02*
X14325000Y-14575000D01*
X11180000Y-15580000D02*
X11650000Y-14880000D01*
X10420000Y-16930000D02*
X11180000Y-15580000D01*
X9740000Y-18600000D02*
X10251803Y-17343072D01*
X10251803Y-17343072D02*
X10420000Y-16930000D01*
X9270000Y-20420000D02*
X9740000Y-18600000D01*
X9080000Y-22430000D02*
X9270000Y-20420000D01*
X9170000Y-24310000D02*
X9080000Y-22430000D01*
D16*
G36*
X23994159Y-899860D02*
X25187617Y-999315D01*
X26382664Y-1198490D01*
X27726108Y-1447276D01*
X29669499Y-2045242D01*
X30169616Y-2211948D01*
X29093319Y-5054475D01*
X28755423Y-4926484D01*
X28752671Y-4925488D01*
X27942671Y-4645488D01*
X27935997Y-4643438D01*
X27155997Y-4433438D01*
X27151410Y-4432319D01*
X26421410Y-4272319D01*
X26416440Y-4271361D01*
X25756440Y-4161361D01*
X25755758Y-4161249D01*
X24815758Y-4011249D01*
X24787623Y-4010769D01*
X24760468Y-4018146D01*
X24736443Y-4032796D01*
X24717451Y-4053559D01*
X24704995Y-4078791D01*
X24700000Y-4110000D01*
X24700000Y-6650000D01*
X24703959Y-6677859D01*
X24715523Y-6703513D01*
X24733776Y-6724929D01*
X24757272Y-6740412D01*
X24784897Y-6748853D01*
X25501080Y-6858270D01*
X26192460Y-7019277D01*
X26138150Y-7072461D01*
X26071672Y-7169549D01*
X26025318Y-7277700D01*
X26000854Y-7392795D01*
X25999211Y-7510450D01*
X26020452Y-7626183D01*
X26063768Y-7735586D01*
X26127509Y-7834492D01*
X26209247Y-7919134D01*
X26305868Y-7986287D01*
X26413693Y-8033395D01*
X26528614Y-8058662D01*
X26646254Y-8061126D01*
X26762133Y-8040694D01*
X26871835Y-7998143D01*
X26971184Y-7935094D01*
X27056395Y-7853949D01*
X27124221Y-7757799D01*
X27172080Y-7650306D01*
X27198149Y-7535564D01*
X27200026Y-7401167D01*
X27177171Y-7285742D01*
X27174130Y-7278363D01*
X27798093Y-7464835D01*
X28133091Y-7590459D01*
X27597545Y-9004850D01*
X27570677Y-9015705D01*
X27472219Y-9080135D01*
X27388150Y-9162461D01*
X27321672Y-9259549D01*
X27275318Y-9367700D01*
X27250854Y-9482795D01*
X27249211Y-9600450D01*
X27270452Y-9716183D01*
X27299973Y-9790745D01*
X27032546Y-10497028D01*
X26286245Y-10206800D01*
X26274254Y-10202986D01*
X25828001Y-10091423D01*
X25832133Y-10090694D01*
X25941835Y-10048143D01*
X26041184Y-9985094D01*
X26126395Y-9903949D01*
X26194221Y-9807799D01*
X26242080Y-9700306D01*
X26268149Y-9585564D01*
X26270026Y-9451167D01*
X26247171Y-9335742D01*
X26202332Y-9226954D01*
X26137216Y-9128948D01*
X26054305Y-9045455D01*
X25956755Y-8979657D01*
X25848283Y-8934060D01*
X25813262Y-8926871D01*
X25690739Y-8662233D01*
X25675364Y-8636072D01*
X25660865Y-8609399D01*
X25656843Y-8604559D01*
X25653656Y-8599136D01*
X25633499Y-8576467D01*
X25614090Y-8553110D01*
X25609202Y-8549141D01*
X25605025Y-8544444D01*
X25580848Y-8526122D01*
X25557271Y-8506980D01*
X25551708Y-8504038D01*
X25546695Y-8500239D01*
X25519403Y-8486953D01*
X25492575Y-8472765D01*
X25486551Y-8470961D01*
X25480890Y-8468205D01*
X25451521Y-8460469D01*
X25422464Y-8451767D01*
X25417319Y-8450797D01*
X24203788Y-8230852D01*
X24186701Y-8229455D01*
X24164504Y-8225802D01*
X24159277Y-8225496D01*
X24156333Y-8225344D01*
X24156240Y-8225339D01*
X22609329Y-8145498D01*
X22589034Y-8146436D01*
X22568743Y-8145603D01*
X22563517Y-8145936D01*
X21433518Y-8225936D01*
X21424528Y-8227465D01*
X21415416Y-8227660D01*
X21410221Y-8228319D01*
X20290221Y-8378319D01*
X20270774Y-8382890D01*
X20250988Y-8385717D01*
X20235227Y-8391246D01*
X20218976Y-8395066D01*
X20200785Y-8403329D01*
X20181927Y-8409944D01*
X20167545Y-8418426D01*
X20152341Y-8425332D01*
X20136097Y-8436974D01*
X20118887Y-8447124D01*
X20106427Y-8458238D01*
X20092853Y-8467966D01*
X20079178Y-8482542D01*
X20064270Y-8495840D01*
X20054208Y-8509160D01*
X20042779Y-8521342D01*
X20032196Y-8538297D01*
X20020154Y-8554237D01*
X20017452Y-8558721D01*
X19590230Y-9279135D01*
X18848651Y-9443930D01*
X18835033Y-9448389D01*
X18820984Y-9451196D01*
X18815985Y-9452753D01*
X18498513Y-9554074D01*
X18196652Y-9389904D01*
X17898234Y-8530462D01*
X17914221Y-8507799D01*
X17962080Y-8400306D01*
X17988149Y-8285564D01*
X17990026Y-8151167D01*
X17967171Y-8035742D01*
X17922332Y-7926954D01*
X17857216Y-7828948D01*
X17774305Y-7745455D01*
X17676755Y-7679657D01*
X17622763Y-7656961D01*
X20663750Y-7656961D01*
X20687294Y-7765467D01*
X20793865Y-7816569D01*
X20908358Y-7845897D01*
X21026372Y-7852326D01*
X21143374Y-7835608D01*
X21254865Y-7796386D01*
X21312706Y-7765467D01*
X21336250Y-7656961D01*
X21663750Y-7656961D01*
X21687294Y-7765467D01*
X21793865Y-7816569D01*
X21908358Y-7845897D01*
X22026372Y-7852326D01*
X22143374Y-7835608D01*
X22254865Y-7796386D01*
X22312706Y-7765467D01*
X22336250Y-7656961D01*
X22663750Y-7656961D01*
X22687294Y-7765467D01*
X22793865Y-7816569D01*
X22908358Y-7845897D01*
X23026372Y-7852326D01*
X23143374Y-7835608D01*
X23254865Y-7796386D01*
X23312706Y-7765467D01*
X23336250Y-7656961D01*
X23663750Y-7656961D01*
X23687294Y-7765467D01*
X23793865Y-7816569D01*
X23908358Y-7845897D01*
X24026372Y-7852326D01*
X24143374Y-7835608D01*
X24254865Y-7796386D01*
X24312706Y-7765467D01*
X24336250Y-7656961D01*
X24000000Y-7320711D01*
X23663750Y-7656961D01*
X23336250Y-7656961D01*
X23000000Y-7320711D01*
X22663750Y-7656961D01*
X22336250Y-7656961D01*
X22000000Y-7320711D01*
X21663750Y-7656961D01*
X21336250Y-7656961D01*
X21000000Y-7320711D01*
X20663750Y-7656961D01*
X17622763Y-7656961D01*
X17568283Y-7634060D01*
X17453021Y-7610400D01*
X17335357Y-7609578D01*
X17219775Y-7631627D01*
X17110677Y-7675705D01*
X17012219Y-7740135D01*
X16928150Y-7822461D01*
X16861672Y-7919549D01*
X16826972Y-8000509D01*
X16736755Y-7939657D01*
X16628283Y-7894060D01*
X16513021Y-7870400D01*
X16395357Y-7869578D01*
X16279775Y-7891627D01*
X16170677Y-7935705D01*
X16147709Y-7950735D01*
X16146522Y-7950689D01*
X16122256Y-7954517D01*
X16097782Y-7956573D01*
X16083786Y-7960587D01*
X16069409Y-7962855D01*
X16046356Y-7971321D01*
X16022741Y-7978093D01*
X16009793Y-7984748D01*
X15996128Y-7989766D01*
X15991115Y-7992229D01*
X15151115Y-8412229D01*
X15150079Y-8412881D01*
X15148945Y-8413323D01*
X15117110Y-8433615D01*
X15085030Y-8453789D01*
X15084142Y-8454628D01*
X15083114Y-8455283D01*
X15055747Y-8481447D01*
X15028277Y-8507393D01*
X15027572Y-8508384D01*
X15026687Y-8509230D01*
X15004919Y-8540217D01*
X14983015Y-8570999D01*
X14982514Y-8572112D01*
X14981813Y-8573110D01*
X14966520Y-8607641D01*
X14950970Y-8642185D01*
X14950694Y-8643376D01*
X14950201Y-8644490D01*
X14941906Y-8681336D01*
X14933363Y-8718240D01*
X14933324Y-8719461D01*
X14933056Y-8720651D01*
X14932406Y-8726198D01*
X14822463Y-9724144D01*
X14173388Y-10170383D01*
X14149386Y-10190601D01*
X14124632Y-10209875D01*
X14119581Y-10215707D01*
X14113681Y-10220677D01*
X14094064Y-10245171D01*
X14073524Y-10268887D01*
X14069703Y-10275587D01*
X14064880Y-10281609D01*
X14050398Y-10309439D01*
X14034851Y-10336701D01*
X14032403Y-10344020D01*
X14028843Y-10350861D01*
X14020044Y-10380969D01*
X14010087Y-10410736D01*
X14008879Y-10416188D01*
X13978026Y-10560168D01*
X13977216Y-10558948D01*
X13894305Y-10475455D01*
X13796755Y-10409657D01*
X13688283Y-10364060D01*
X13573021Y-10340400D01*
X13455357Y-10339578D01*
X13399620Y-10350211D01*
X13400026Y-10321167D01*
X13377171Y-10205742D01*
X13332332Y-10096954D01*
X13267216Y-9998948D01*
X13184305Y-9915455D01*
X13086755Y-9849657D01*
X12978283Y-9804060D01*
X12863021Y-9780400D01*
X12745357Y-9779578D01*
X12629775Y-9801627D01*
X12520677Y-9845705D01*
X12422219Y-9910135D01*
X12338150Y-9992461D01*
X12271672Y-10089549D01*
X12225318Y-10197700D01*
X12200854Y-10312795D01*
X12199211Y-10430450D01*
X12210409Y-10491464D01*
X12050000Y-10517012D01*
X12050000Y-12129287D01*
X12014141Y-12165146D01*
X12084854Y-12235859D01*
X12120713Y-12200000D01*
X13732988Y-12200000D01*
X13777937Y-11917779D01*
X13678961Y-11577304D01*
X13651439Y-11524343D01*
X13672133Y-11520694D01*
X13728699Y-11498753D01*
X13777509Y-11574492D01*
X13859247Y-11659134D01*
X13955868Y-11726287D01*
X14063693Y-11773395D01*
X14178614Y-11798662D01*
X14296254Y-11801126D01*
X14412133Y-11780694D01*
X14521835Y-11738143D01*
X14621184Y-11675094D01*
X14706395Y-11593949D01*
X14774221Y-11497799D01*
X14822080Y-11390306D01*
X14848149Y-11275564D01*
X14849097Y-11207681D01*
X14875868Y-11226287D01*
X14983693Y-11273395D01*
X15098614Y-11298662D01*
X15216254Y-11301126D01*
X15332133Y-11280694D01*
X15441835Y-11238143D01*
X15541184Y-11175094D01*
X15626395Y-11093949D01*
X15694221Y-10997799D01*
X15742080Y-10890306D01*
X15768149Y-10775564D01*
X15770026Y-10641167D01*
X15747171Y-10525742D01*
X15702332Y-10416954D01*
X15637216Y-10318948D01*
X15554305Y-10235455D01*
X15507941Y-10204182D01*
X15518550Y-10189080D01*
X15535119Y-10168391D01*
X15540937Y-10157210D01*
X15548187Y-10146890D01*
X15558924Y-10122646D01*
X15571156Y-10099140D01*
X15574692Y-10087042D01*
X15579799Y-10075510D01*
X15585622Y-10049645D01*
X15593056Y-10024208D01*
X15594175Y-10011651D01*
X15596944Y-9999350D01*
X15597594Y-9993803D01*
X15636764Y-9638259D01*
X15705868Y-9686287D01*
X15813693Y-9733395D01*
X15928614Y-9758662D01*
X16046254Y-9761126D01*
X16162133Y-9740694D01*
X16185916Y-9731469D01*
X16190452Y-9756183D01*
X16233768Y-9865586D01*
X16297509Y-9964492D01*
X16379247Y-10049134D01*
X16475868Y-10116287D01*
X16583693Y-10163395D01*
X16698614Y-10188662D01*
X16816254Y-10191126D01*
X16879217Y-10180024D01*
X16879211Y-10180450D01*
X16900452Y-10296183D01*
X16943768Y-10405586D01*
X17007509Y-10504492D01*
X17014348Y-10511574D01*
X16066188Y-10937996D01*
X16043842Y-10950802D01*
X16020796Y-10962286D01*
X16016379Y-10965098D01*
X14686379Y-11825098D01*
X14672668Y-11835999D01*
X14657915Y-11845447D01*
X14653825Y-11848716D01*
X13774647Y-12561563D01*
X13732988Y-12300000D01*
X12120713Y-12300000D01*
X12084854Y-12264141D01*
X12014141Y-12334854D01*
X12050000Y-12370713D01*
X12050000Y-13718814D01*
X11950000Y-13730003D01*
X11950000Y-12300000D01*
X10267012Y-12300000D01*
X10222063Y-12582221D01*
X10321039Y-12922696D01*
X10484536Y-13237319D01*
X10706272Y-13514000D01*
X10977725Y-13742106D01*
X11186544Y-13856863D01*
X11166142Y-13869147D01*
X11158053Y-13876495D01*
X11149034Y-13882667D01*
X11131015Y-13901057D01*
X11111970Y-13918358D01*
X11108483Y-13922264D01*
X10984354Y-14063320D01*
X10514137Y-14115566D01*
X10474305Y-14075455D01*
X10376755Y-14009657D01*
X10268283Y-13964060D01*
X10153021Y-13940400D01*
X10035357Y-13939578D01*
X9919775Y-13961627D01*
X9810677Y-14005705D01*
X9712219Y-14070135D01*
X9628150Y-14152461D01*
X9561672Y-14249549D01*
X9515318Y-14357700D01*
X9490854Y-14472795D01*
X9489211Y-14590450D01*
X9510452Y-14706183D01*
X9553768Y-14815586D01*
X9617509Y-14914492D01*
X9699247Y-14999134D01*
X9795868Y-15066287D01*
X9903693Y-15113395D01*
X10018614Y-15138662D01*
X10136254Y-15141126D01*
X10252133Y-15120694D01*
X10361835Y-15078143D01*
X10461184Y-15015094D01*
X10546395Y-14933949D01*
X10597947Y-14860869D01*
X10837573Y-14834244D01*
X10598845Y-15189796D01*
X10588114Y-15209744D01*
X10574872Y-15228119D01*
X10570018Y-15236602D01*
X9901067Y-16424871D01*
X9591163Y-16288948D01*
X9461295Y-16246545D01*
X9325663Y-16230176D01*
X9189434Y-16240461D01*
X9057799Y-16277011D01*
X9012386Y-16299870D01*
X8982332Y-16226954D01*
X8917216Y-16128948D01*
X8834305Y-16045455D01*
X8736755Y-15979657D01*
X8628283Y-15934060D01*
X8513021Y-15910400D01*
X8395357Y-15909578D01*
X8279775Y-15931627D01*
X8170677Y-15975705D01*
X8072219Y-16040135D01*
X7988150Y-16122461D01*
X7921672Y-16219549D01*
X7875318Y-16327700D01*
X7850854Y-16442795D01*
X7849211Y-16560450D01*
X7870452Y-16676183D01*
X7913768Y-16785586D01*
X7977509Y-16884492D01*
X8059247Y-16969134D01*
X8155868Y-17036287D01*
X8263693Y-17083395D01*
X8378614Y-17108662D01*
X8496254Y-17111126D01*
X8612133Y-17090694D01*
X8629915Y-17083797D01*
X8655266Y-17177636D01*
X8677566Y-17222721D01*
X8620677Y-17245705D01*
X8522219Y-17310135D01*
X8438150Y-17392461D01*
X8371672Y-17489549D01*
X8325318Y-17597700D01*
X8300854Y-17712795D01*
X8299211Y-17830450D01*
X8320452Y-17946183D01*
X8363768Y-18055586D01*
X8427509Y-18154492D01*
X8509247Y-18239134D01*
X8605868Y-18306287D01*
X8713693Y-18353395D01*
X8828614Y-18378662D01*
X8946254Y-18381126D01*
X9062133Y-18360694D01*
X9087244Y-18350954D01*
X9079714Y-18376285D01*
X9064745Y-18415527D01*
X9062235Y-18424973D01*
X8592235Y-20244973D01*
X8584431Y-20294919D01*
X8574094Y-20344400D01*
X8573107Y-20354125D01*
X8383107Y-22364125D01*
X8383263Y-22408956D01*
X8380401Y-22453706D01*
X8380801Y-22463472D01*
X8389731Y-22650000D01*
X6706519Y-22650000D01*
X6729516Y-22598982D01*
X6741451Y-22515000D01*
X6741451Y-21715000D01*
X6737641Y-21667226D01*
X6712548Y-21586197D01*
X6665874Y-21515366D01*
X6601315Y-21460343D01*
X6523982Y-21425484D01*
X6440000Y-21413549D01*
X5640000Y-21413549D01*
X5592226Y-21417359D01*
X5511197Y-21442452D01*
X5440366Y-21489126D01*
X5405522Y-21530008D01*
X5395874Y-21515366D01*
X5331315Y-21460343D01*
X5253982Y-21425484D01*
X5170000Y-21413549D01*
X4370000Y-21413549D01*
X4322226Y-21417359D01*
X4241197Y-21442452D01*
X4170366Y-21489126D01*
X4135522Y-21530008D01*
X4125874Y-21515366D01*
X4061315Y-21460343D01*
X3983982Y-21425484D01*
X3900000Y-21413549D01*
X3100000Y-21413549D01*
X3052226Y-21417359D01*
X2971197Y-21442452D01*
X2900366Y-21489126D01*
X2865522Y-21530008D01*
X2855874Y-21515366D01*
X2791315Y-21460343D01*
X2713982Y-21425484D01*
X2630000Y-21413549D01*
X1830000Y-21413549D01*
X1782226Y-21417359D01*
X1701197Y-21442452D01*
X1630366Y-21489126D01*
X1595522Y-21530008D01*
X1585874Y-21515366D01*
X1521315Y-21460343D01*
X1443982Y-21425484D01*
X1360000Y-21413549D01*
X659496Y-21413549D01*
X694300Y-20630450D01*
X4919211Y-20630450D01*
X4940452Y-20746183D01*
X4983768Y-20855586D01*
X5047509Y-20954492D01*
X5129247Y-21039134D01*
X5225868Y-21106287D01*
X5333693Y-21153395D01*
X5448614Y-21178662D01*
X5566254Y-21181126D01*
X5682133Y-21160694D01*
X5791835Y-21118143D01*
X5891184Y-21055094D01*
X5976395Y-20973949D01*
X6044221Y-20877799D01*
X6092080Y-20770306D01*
X6118149Y-20655564D01*
X6120026Y-20521167D01*
X6097171Y-20405742D01*
X6052332Y-20296954D01*
X5987216Y-20198948D01*
X5904305Y-20115455D01*
X5806755Y-20049657D01*
X5698283Y-20004060D01*
X5583021Y-19980400D01*
X5465357Y-19979578D01*
X5349775Y-20001627D01*
X5240677Y-20045705D01*
X5142219Y-20110135D01*
X5058150Y-20192461D01*
X4991672Y-20289549D01*
X4945318Y-20397700D01*
X4920854Y-20512795D01*
X4919211Y-20630450D01*
X694300Y-20630450D01*
X699701Y-20508936D01*
X896793Y-19050450D01*
X4269211Y-19050450D01*
X4290452Y-19166183D01*
X4333768Y-19275586D01*
X4397509Y-19374492D01*
X4479247Y-19459134D01*
X4575868Y-19526287D01*
X4683693Y-19573395D01*
X4798614Y-19598662D01*
X4916254Y-19601126D01*
X5032133Y-19580694D01*
X5141835Y-19538143D01*
X5241184Y-19475094D01*
X5326395Y-19393949D01*
X5394221Y-19297799D01*
X5442080Y-19190306D01*
X5468149Y-19075564D01*
X5470026Y-18941167D01*
X5447171Y-18825742D01*
X5402332Y-18716954D01*
X5337216Y-18618948D01*
X5254305Y-18535455D01*
X5156755Y-18469657D01*
X5048283Y-18424060D01*
X4933021Y-18400400D01*
X4815357Y-18399578D01*
X4699775Y-18421627D01*
X4590677Y-18465705D01*
X4492219Y-18530135D01*
X4408150Y-18612461D01*
X4341672Y-18709549D01*
X4295318Y-18817700D01*
X4270854Y-18932795D01*
X4269211Y-19050450D01*
X896793Y-19050450D01*
X948479Y-18667978D01*
X1035601Y-18290450D01*
X7059211Y-18290450D01*
X7080452Y-18406183D01*
X7123768Y-18515586D01*
X7187509Y-18614492D01*
X7269247Y-18699134D01*
X7365868Y-18766287D01*
X7473693Y-18813395D01*
X7588614Y-18838662D01*
X7706254Y-18841126D01*
X7822133Y-18820694D01*
X7931835Y-18778143D01*
X8031184Y-18715094D01*
X8116395Y-18633949D01*
X8184221Y-18537799D01*
X8232080Y-18430306D01*
X8258149Y-18315564D01*
X8260026Y-18181167D01*
X8237171Y-18065742D01*
X8192332Y-17956954D01*
X8127216Y-17858948D01*
X8044305Y-17775455D01*
X7946755Y-17709657D01*
X7838283Y-17664060D01*
X7723021Y-17640400D01*
X7605357Y-17639578D01*
X7489775Y-17661627D01*
X7380677Y-17705705D01*
X7282219Y-17770135D01*
X7198150Y-17852461D01*
X7131672Y-17949549D01*
X7085318Y-18057700D01*
X7060854Y-18172795D01*
X7059211Y-18290450D01*
X1035601Y-18290450D01*
X1246906Y-17374797D01*
X1267816Y-17300450D01*
X2399211Y-17300450D01*
X2420452Y-17416183D01*
X2463768Y-17525586D01*
X2527509Y-17624492D01*
X2609247Y-17709134D01*
X2705868Y-17776287D01*
X2813693Y-17823395D01*
X2928614Y-17848662D01*
X3046254Y-17851126D01*
X3162133Y-17830694D01*
X3271835Y-17788143D01*
X3371184Y-17725094D01*
X3456395Y-17643949D01*
X3524221Y-17547799D01*
X3572080Y-17440306D01*
X3598149Y-17325564D01*
X3600026Y-17191167D01*
X3577171Y-17075742D01*
X3532332Y-16966954D01*
X3467216Y-16868948D01*
X3384305Y-16785455D01*
X3286755Y-16719657D01*
X3178283Y-16674060D01*
X3063021Y-16650400D01*
X2945357Y-16649578D01*
X2829775Y-16671627D01*
X2720677Y-16715705D01*
X2622219Y-16780135D01*
X2538150Y-16862461D01*
X2471672Y-16959549D01*
X2425318Y-17067700D01*
X2400854Y-17182795D01*
X2399211Y-17300450D01*
X1267816Y-17300450D01*
X1695119Y-15781148D01*
X2142589Y-14587896D01*
X2739886Y-13243978D01*
X3450348Y-11917779D01*
X10222063Y-11917779D01*
X10267012Y-12200000D01*
X11950000Y-12200000D01*
X11950000Y-10517012D01*
X11667779Y-10472063D01*
X11327304Y-10571039D01*
X11012681Y-10734536D01*
X10736000Y-10956272D01*
X10507894Y-11227725D01*
X10337128Y-11538463D01*
X10230266Y-11876545D01*
X10222063Y-11917779D01*
X3450348Y-11917779D01*
X3486568Y-11850170D01*
X4460152Y-10292435D01*
X7129410Y-10292435D01*
X7150651Y-10408168D01*
X7193967Y-10517571D01*
X7257708Y-10616477D01*
X7339446Y-10701119D01*
X7436067Y-10768272D01*
X7543892Y-10815380D01*
X7658813Y-10840647D01*
X7776453Y-10843111D01*
X7892332Y-10822679D01*
X8002034Y-10780128D01*
X8101383Y-10717079D01*
X8186594Y-10635934D01*
X8254420Y-10539784D01*
X8302279Y-10432291D01*
X8328348Y-10317549D01*
X8330225Y-10183152D01*
X8307370Y-10067727D01*
X8262531Y-9958939D01*
X8197415Y-9860933D01*
X8114504Y-9777440D01*
X8016954Y-9711642D01*
X7908482Y-9666045D01*
X7793220Y-9642385D01*
X7675556Y-9641563D01*
X7559974Y-9663612D01*
X7450876Y-9707690D01*
X7352418Y-9772120D01*
X7268349Y-9854446D01*
X7201871Y-9951534D01*
X7155517Y-10059685D01*
X7131053Y-10174780D01*
X7129410Y-10292435D01*
X4460152Y-10292435D01*
X4482383Y-10256867D01*
X5427596Y-9013166D01*
X6041080Y-8308796D01*
X6043768Y-8315586D01*
X6107509Y-8414492D01*
X6189247Y-8499134D01*
X6285868Y-8566287D01*
X6393693Y-8613395D01*
X6508614Y-8638662D01*
X6626254Y-8641126D01*
X6742133Y-8620694D01*
X6851835Y-8578143D01*
X6951184Y-8515094D01*
X7036395Y-8433949D01*
X7104221Y-8337799D01*
X7143111Y-8250450D01*
X8759211Y-8250450D01*
X8780452Y-8366183D01*
X8823768Y-8475586D01*
X8887509Y-8574492D01*
X8969247Y-8659134D01*
X9065868Y-8726287D01*
X9173693Y-8773395D01*
X9288614Y-8798662D01*
X9406254Y-8801126D01*
X9522133Y-8780694D01*
X9631835Y-8738143D01*
X9731184Y-8675094D01*
X9816395Y-8593949D01*
X9884221Y-8497799D01*
X9932080Y-8390306D01*
X9958149Y-8275564D01*
X9960026Y-8141167D01*
X9937171Y-8025742D01*
X9892332Y-7916954D01*
X9827216Y-7818948D01*
X9744305Y-7735455D01*
X9646755Y-7669657D01*
X9538283Y-7624060D01*
X9423021Y-7600400D01*
X9305357Y-7599578D01*
X9189775Y-7621627D01*
X9080677Y-7665705D01*
X8982219Y-7730135D01*
X8898150Y-7812461D01*
X8831672Y-7909549D01*
X8785318Y-8017700D01*
X8760854Y-8132795D01*
X8759211Y-8250450D01*
X7143111Y-8250450D01*
X7152080Y-8230306D01*
X7178149Y-8115564D01*
X7180026Y-7981167D01*
X7157171Y-7865742D01*
X7112332Y-7756954D01*
X7047216Y-7658948D01*
X6964305Y-7575455D01*
X6866755Y-7509657D01*
X6771850Y-7469763D01*
X6772473Y-7469048D01*
X7948096Y-6340450D01*
X9209211Y-6340450D01*
X9230452Y-6456183D01*
X9273768Y-6565586D01*
X9337509Y-6664492D01*
X9419247Y-6749134D01*
X9515868Y-6816287D01*
X9623693Y-6863395D01*
X9738614Y-6888662D01*
X9759230Y-6889094D01*
X9759211Y-6890450D01*
X9780452Y-7006183D01*
X9823768Y-7115586D01*
X9887509Y-7214492D01*
X9969247Y-7299134D01*
X10065868Y-7366287D01*
X10173693Y-7413395D01*
X10250331Y-7430245D01*
X10249211Y-7510450D01*
X10270452Y-7626183D01*
X10313768Y-7735586D01*
X10377509Y-7834492D01*
X10459247Y-7919134D01*
X10555868Y-7986287D01*
X10663693Y-8033395D01*
X10778614Y-8058662D01*
X10896254Y-8061126D01*
X11012133Y-8040694D01*
X11121835Y-7998143D01*
X11221184Y-7935094D01*
X11306395Y-7853949D01*
X11374221Y-7757799D01*
X11422080Y-7650306D01*
X11448149Y-7535564D01*
X11450026Y-7401167D01*
X11427171Y-7285742D01*
X11382332Y-7176954D01*
X11317216Y-7078948D01*
X11234305Y-6995455D01*
X11136755Y-6929657D01*
X11028283Y-6884060D01*
X10958788Y-6869795D01*
X10959616Y-6810450D01*
X12709211Y-6810450D01*
X12730452Y-6926183D01*
X12773768Y-7035586D01*
X12837509Y-7134492D01*
X12919247Y-7219134D01*
X13015868Y-7286287D01*
X13123693Y-7333395D01*
X13238614Y-7358662D01*
X13356254Y-7361126D01*
X13472133Y-7340694D01*
X13581835Y-7298143D01*
X13681184Y-7235094D01*
X13766395Y-7153949D01*
X13834221Y-7057799D01*
X13882080Y-6950306D01*
X13906509Y-6842781D01*
X13953693Y-6863395D01*
X14068614Y-6888662D01*
X14186254Y-6891126D01*
X14302133Y-6870694D01*
X14411835Y-6828143D01*
X14486986Y-6780450D01*
X17929211Y-6780450D01*
X17950452Y-6896183D01*
X17993768Y-7005586D01*
X18057509Y-7104492D01*
X18139247Y-7189134D01*
X18235868Y-7256287D01*
X18343693Y-7303395D01*
X18458614Y-7328662D01*
X18576254Y-7331126D01*
X18692133Y-7310694D01*
X18780619Y-7276372D01*
X20397674Y-7276372D01*
X20414392Y-7393374D01*
X20453614Y-7504865D01*
X20484533Y-7562706D01*
X20593039Y-7586250D01*
X20929289Y-7250000D01*
X21070711Y-7250000D01*
X21406961Y-7586250D01*
X21500000Y-7566062D01*
X21593039Y-7586250D01*
X21929289Y-7250000D01*
X22070711Y-7250000D01*
X22406961Y-7586250D01*
X22500000Y-7566062D01*
X22593039Y-7586250D01*
X22929289Y-7250000D01*
X23070711Y-7250000D01*
X23406961Y-7586250D01*
X23500000Y-7566062D01*
X23593039Y-7586250D01*
X23929289Y-7250000D01*
X24070711Y-7250000D01*
X24406961Y-7586250D01*
X24515467Y-7562706D01*
X24566569Y-7456135D01*
X24595897Y-7341642D01*
X24602326Y-7223628D01*
X24585608Y-7106626D01*
X24546386Y-6995135D01*
X24515467Y-6937294D01*
X24406961Y-6913750D01*
X24070711Y-7250000D01*
X23929289Y-7250000D01*
X23593039Y-6913750D01*
X23500000Y-6933938D01*
X23406961Y-6913750D01*
X23070711Y-7250000D01*
X22929289Y-7250000D01*
X22593039Y-6913750D01*
X22500000Y-6933938D01*
X22406961Y-6913750D01*
X22070711Y-7250000D01*
X21929289Y-7250000D01*
X21593039Y-6913750D01*
X21500000Y-6933938D01*
X21406961Y-6913750D01*
X21070711Y-7250000D01*
X20929289Y-7250000D01*
X20593039Y-6913750D01*
X20484533Y-6937294D01*
X20433431Y-7043865D01*
X20404103Y-7158358D01*
X20397674Y-7276372D01*
X18780619Y-7276372D01*
X18801835Y-7268143D01*
X18901184Y-7205094D01*
X18986395Y-7123949D01*
X19054221Y-7027799D01*
X19102080Y-6920306D01*
X19128149Y-6805564D01*
X19130026Y-6671167D01*
X19127214Y-6656961D01*
X20663750Y-6656961D01*
X20683938Y-6750000D01*
X20663750Y-6843039D01*
X21000000Y-7179289D01*
X21336250Y-6843039D01*
X21316062Y-6750000D01*
X21336250Y-6656961D01*
X21663750Y-6656961D01*
X21683938Y-6750000D01*
X21663750Y-6843039D01*
X22000000Y-7179289D01*
X22336250Y-6843039D01*
X22316062Y-6750000D01*
X22336250Y-6656961D01*
X22663750Y-6656961D01*
X22683938Y-6750000D01*
X22663750Y-6843039D01*
X23000000Y-7179289D01*
X23336250Y-6843039D01*
X23316062Y-6750000D01*
X23336250Y-6656961D01*
X23663750Y-6656961D01*
X23683938Y-6750000D01*
X23663750Y-6843039D01*
X24000000Y-7179289D01*
X24336250Y-6843039D01*
X24316062Y-6750000D01*
X24336250Y-6656961D01*
X24000000Y-6320711D01*
X23663750Y-6656961D01*
X23336250Y-6656961D01*
X23000000Y-6320711D01*
X22663750Y-6656961D01*
X22336250Y-6656961D01*
X22000000Y-6320711D01*
X21663750Y-6656961D01*
X21336250Y-6656961D01*
X21000000Y-6320711D01*
X20663750Y-6656961D01*
X19127214Y-6656961D01*
X19107171Y-6555742D01*
X19062332Y-6446954D01*
X18997216Y-6348948D01*
X18925146Y-6276372D01*
X20397674Y-6276372D01*
X20414392Y-6393374D01*
X20453614Y-6504865D01*
X20484533Y-6562706D01*
X20593039Y-6586250D01*
X20929289Y-6250000D01*
X21070711Y-6250000D01*
X21406961Y-6586250D01*
X21500000Y-6566062D01*
X21593039Y-6586250D01*
X21929289Y-6250000D01*
X22070711Y-6250000D01*
X22406961Y-6586250D01*
X22500000Y-6566062D01*
X22593039Y-6586250D01*
X22929289Y-6250000D01*
X23070711Y-6250000D01*
X23406961Y-6586250D01*
X23500000Y-6566062D01*
X23593039Y-6586250D01*
X23929289Y-6250000D01*
X24070711Y-6250000D01*
X24406961Y-6586250D01*
X24515467Y-6562706D01*
X24566569Y-6456135D01*
X24595897Y-6341642D01*
X24602326Y-6223628D01*
X24585608Y-6106626D01*
X24546386Y-5995135D01*
X24515467Y-5937294D01*
X24406961Y-5913750D01*
X24070711Y-6250000D01*
X23929289Y-6250000D01*
X23593039Y-5913750D01*
X23500000Y-5933938D01*
X23406961Y-5913750D01*
X23070711Y-6250000D01*
X22929289Y-6250000D01*
X22593039Y-5913750D01*
X22500000Y-5933938D01*
X22406961Y-5913750D01*
X22070711Y-6250000D01*
X21929289Y-6250000D01*
X21593039Y-5913750D01*
X21500000Y-5933938D01*
X21406961Y-5913750D01*
X21070711Y-6250000D01*
X20929289Y-6250000D01*
X20593039Y-5913750D01*
X20484533Y-5937294D01*
X20433431Y-6043865D01*
X20404103Y-6158358D01*
X20397674Y-6276372D01*
X18925146Y-6276372D01*
X18914305Y-6265455D01*
X18816755Y-6199657D01*
X18708283Y-6154060D01*
X18593021Y-6130400D01*
X18475357Y-6129578D01*
X18359775Y-6151627D01*
X18250677Y-6195705D01*
X18152219Y-6260135D01*
X18068150Y-6342461D01*
X18001672Y-6439549D01*
X17955318Y-6547700D01*
X17930854Y-6662795D01*
X17929211Y-6780450D01*
X14486986Y-6780450D01*
X14511184Y-6765094D01*
X14596395Y-6683949D01*
X14664221Y-6587799D01*
X14712080Y-6480306D01*
X14738149Y-6365564D01*
X14740026Y-6231167D01*
X14717171Y-6115742D01*
X14672332Y-6006954D01*
X14607216Y-5908948D01*
X14524305Y-5825455D01*
X14426755Y-5759657D01*
X14318283Y-5714060D01*
X14203021Y-5690400D01*
X14085357Y-5689578D01*
X13969775Y-5711627D01*
X13860677Y-5755705D01*
X13762219Y-5820135D01*
X13678150Y-5902461D01*
X13611672Y-5999549D01*
X13565318Y-6107700D01*
X13544100Y-6207523D01*
X13488283Y-6184060D01*
X13373021Y-6160400D01*
X13255357Y-6159578D01*
X13139775Y-6181627D01*
X13030677Y-6225705D01*
X12932219Y-6290135D01*
X12848150Y-6372461D01*
X12781672Y-6469549D01*
X12735318Y-6577700D01*
X12710854Y-6692795D01*
X12709211Y-6810450D01*
X10959616Y-6810450D01*
X10960026Y-6781167D01*
X10937171Y-6665742D01*
X10892332Y-6556954D01*
X10827216Y-6458948D01*
X10744305Y-6375455D01*
X10646755Y-6309657D01*
X10538283Y-6264060D01*
X10423021Y-6240400D01*
X10409898Y-6240308D01*
X10410026Y-6231167D01*
X10387171Y-6115742D01*
X10342332Y-6006954D01*
X10277216Y-5908948D01*
X10194305Y-5825455D01*
X10096755Y-5759657D01*
X9988283Y-5714060D01*
X9873021Y-5690400D01*
X9755357Y-5689578D01*
X9639775Y-5711627D01*
X9530677Y-5755705D01*
X9432219Y-5820135D01*
X9348150Y-5902461D01*
X9281672Y-5999549D01*
X9235318Y-6107700D01*
X9210854Y-6222795D01*
X9209211Y-6340450D01*
X7948096Y-6340450D01*
X8015993Y-6275269D01*
X8788877Y-5656961D01*
X20663750Y-5656961D01*
X20683938Y-5750000D01*
X20663750Y-5843039D01*
X21000000Y-6179289D01*
X21336250Y-5843039D01*
X21316062Y-5750000D01*
X21336250Y-5656961D01*
X21663750Y-5656961D01*
X21683938Y-5750000D01*
X21663750Y-5843039D01*
X22000000Y-6179289D01*
X22336250Y-5843039D01*
X22316062Y-5750000D01*
X22336250Y-5656961D01*
X22663750Y-5656961D01*
X22683938Y-5750000D01*
X22663750Y-5843039D01*
X23000000Y-6179289D01*
X23336250Y-5843039D01*
X23316062Y-5750000D01*
X23336250Y-5656961D01*
X23663750Y-5656961D01*
X23683938Y-5750000D01*
X23663750Y-5843039D01*
X24000000Y-6179289D01*
X24336250Y-5843039D01*
X24316062Y-5750000D01*
X24336250Y-5656961D01*
X24000000Y-5320711D01*
X23663750Y-5656961D01*
X23336250Y-5656961D01*
X23000000Y-5320711D01*
X22663750Y-5656961D01*
X22336250Y-5656961D01*
X22000000Y-5320711D01*
X21663750Y-5656961D01*
X21336250Y-5656961D01*
X21000000Y-5320711D01*
X20663750Y-5656961D01*
X8788877Y-5656961D01*
X9259825Y-5280203D01*
X9265341Y-5276372D01*
X20397674Y-5276372D01*
X20414392Y-5393374D01*
X20453614Y-5504865D01*
X20484533Y-5562706D01*
X20593039Y-5586250D01*
X20929289Y-5250000D01*
X21070711Y-5250000D01*
X21406961Y-5586250D01*
X21500000Y-5566062D01*
X21593039Y-5586250D01*
X21929289Y-5250000D01*
X22070711Y-5250000D01*
X22406961Y-5586250D01*
X22500000Y-5566062D01*
X22593039Y-5586250D01*
X22929289Y-5250000D01*
X23070711Y-5250000D01*
X23406961Y-5586250D01*
X23500000Y-5566062D01*
X23593039Y-5586250D01*
X23929289Y-5250000D01*
X24070711Y-5250000D01*
X24406961Y-5586250D01*
X24515467Y-5562706D01*
X24566569Y-5456135D01*
X24595897Y-5341642D01*
X24602326Y-5223628D01*
X24585608Y-5106626D01*
X24546386Y-4995135D01*
X24515467Y-4937294D01*
X24406961Y-4913750D01*
X24070711Y-5250000D01*
X23929289Y-5250000D01*
X23593039Y-4913750D01*
X23500000Y-4933938D01*
X23406961Y-4913750D01*
X23070711Y-5250000D01*
X22929289Y-5250000D01*
X22593039Y-4913750D01*
X22500000Y-4933938D01*
X22406961Y-4913750D01*
X22070711Y-5250000D01*
X21929289Y-5250000D01*
X21593039Y-4913750D01*
X21500000Y-4933938D01*
X21406961Y-4913750D01*
X21070711Y-5250000D01*
X20929289Y-5250000D01*
X20593039Y-4913750D01*
X20484533Y-4937294D01*
X20433431Y-5043865D01*
X20404103Y-5158358D01*
X20397674Y-5276372D01*
X9265341Y-5276372D01*
X10157292Y-4656961D01*
X20663750Y-4656961D01*
X20683938Y-4750000D01*
X20663750Y-4843039D01*
X21000000Y-5179289D01*
X21336250Y-4843039D01*
X21316062Y-4750000D01*
X21336250Y-4656961D01*
X21663750Y-4656961D01*
X21683938Y-4750000D01*
X21663750Y-4843039D01*
X22000000Y-5179289D01*
X22336250Y-4843039D01*
X22316062Y-4750000D01*
X22336250Y-4656961D01*
X22663750Y-4656961D01*
X22683938Y-4750000D01*
X22663750Y-4843039D01*
X23000000Y-5179289D01*
X23336250Y-4843039D01*
X23316062Y-4750000D01*
X23336250Y-4656961D01*
X23663750Y-4656961D01*
X23683938Y-4750000D01*
X23663750Y-4843039D01*
X24000000Y-5179289D01*
X24336250Y-4843039D01*
X24316062Y-4750000D01*
X24336250Y-4656961D01*
X24000000Y-4320711D01*
X23663750Y-4656961D01*
X23336250Y-4656961D01*
X23000000Y-4320711D01*
X22663750Y-4656961D01*
X22336250Y-4656961D01*
X22000000Y-4320711D01*
X21663750Y-4656961D01*
X21336250Y-4656961D01*
X21000000Y-4320711D01*
X20663750Y-4656961D01*
X10157292Y-4656961D01*
X10705340Y-4276372D01*
X20397674Y-4276372D01*
X20414392Y-4393374D01*
X20453614Y-4504865D01*
X20484533Y-4562706D01*
X20593039Y-4586250D01*
X20929289Y-4250000D01*
X21070711Y-4250000D01*
X21406961Y-4586250D01*
X21500000Y-4566062D01*
X21593039Y-4586250D01*
X21929289Y-4250000D01*
X22070711Y-4250000D01*
X22406961Y-4586250D01*
X22500000Y-4566062D01*
X22593039Y-4586250D01*
X22929289Y-4250000D01*
X23070711Y-4250000D01*
X23406961Y-4586250D01*
X23500000Y-4566062D01*
X23593039Y-4586250D01*
X23929289Y-4250000D01*
X24070711Y-4250000D01*
X24406961Y-4586250D01*
X24515467Y-4562706D01*
X24566569Y-4456135D01*
X24595897Y-4341642D01*
X24602326Y-4223628D01*
X24585608Y-4106626D01*
X24546386Y-3995135D01*
X24515467Y-3937294D01*
X24406961Y-3913750D01*
X24070711Y-4250000D01*
X23929289Y-4250000D01*
X23593039Y-3913750D01*
X23500000Y-3933938D01*
X23406961Y-3913750D01*
X23070711Y-4250000D01*
X22929289Y-4250000D01*
X22593039Y-3913750D01*
X22500000Y-3933938D01*
X22406961Y-3913750D01*
X22070711Y-4250000D01*
X21929289Y-4250000D01*
X21593039Y-3913750D01*
X21500000Y-3933938D01*
X21406961Y-3913750D01*
X21070711Y-4250000D01*
X20929289Y-4250000D01*
X20593039Y-3913750D01*
X20484533Y-3937294D01*
X20433431Y-4043865D01*
X20404103Y-4158358D01*
X20397674Y-4276372D01*
X10705340Y-4276372D01*
X11052614Y-4035210D01*
X11404927Y-3843039D01*
X20663750Y-3843039D01*
X21000000Y-4179289D01*
X21336250Y-3843039D01*
X21663750Y-3843039D01*
X22000000Y-4179289D01*
X22336250Y-3843039D01*
X22663750Y-3843039D01*
X23000000Y-4179289D01*
X23336250Y-3843039D01*
X23663750Y-3843039D01*
X24000000Y-4179289D01*
X24336250Y-3843039D01*
X24312706Y-3734533D01*
X24206135Y-3683431D01*
X24091642Y-3654103D01*
X23973628Y-3647674D01*
X23856626Y-3664392D01*
X23745135Y-3703614D01*
X23687294Y-3734533D01*
X23663750Y-3843039D01*
X23336250Y-3843039D01*
X23312706Y-3734533D01*
X23206135Y-3683431D01*
X23091642Y-3654103D01*
X22973628Y-3647674D01*
X22856626Y-3664392D01*
X22745135Y-3703614D01*
X22687294Y-3734533D01*
X22663750Y-3843039D01*
X22336250Y-3843039D01*
X22312706Y-3734533D01*
X22206135Y-3683431D01*
X22091642Y-3654103D01*
X21973628Y-3647674D01*
X21856626Y-3664392D01*
X21745135Y-3703614D01*
X21687294Y-3734533D01*
X21663750Y-3843039D01*
X21336250Y-3843039D01*
X21312706Y-3734533D01*
X21206135Y-3683431D01*
X21091642Y-3654103D01*
X20973628Y-3647674D01*
X20856626Y-3664392D01*
X20745135Y-3703614D01*
X20687294Y-3734533D01*
X20663750Y-3843039D01*
X11404927Y-3843039D01*
X12694693Y-3139531D01*
X13704671Y-2680450D01*
X17419211Y-2680450D01*
X17440452Y-2796183D01*
X17483768Y-2905586D01*
X17547509Y-3004492D01*
X17629247Y-3089134D01*
X17725868Y-3156287D01*
X17833693Y-3203395D01*
X17948614Y-3228662D01*
X18066254Y-3231126D01*
X18182133Y-3210694D01*
X18291835Y-3168143D01*
X18391184Y-3105094D01*
X18476395Y-3023949D01*
X18544221Y-2927799D01*
X18592080Y-2820306D01*
X18618149Y-2705564D01*
X18620026Y-2571167D01*
X18597171Y-2455742D01*
X18552332Y-2346954D01*
X18487216Y-2248948D01*
X18404305Y-2165455D01*
X18306755Y-2099657D01*
X18198283Y-2054060D01*
X18083021Y-2030400D01*
X17965357Y-2029578D01*
X17849775Y-2051627D01*
X17740677Y-2095705D01*
X17642219Y-2160135D01*
X17558150Y-2242461D01*
X17491672Y-2339549D01*
X17445318Y-2447700D01*
X17420854Y-2562795D01*
X17419211Y-2680450D01*
X13704671Y-2680450D01*
X14337741Y-2392691D01*
X15783947Y-1870450D01*
X21089211Y-1870450D01*
X21110452Y-1986183D01*
X21153768Y-2095586D01*
X21217509Y-2194492D01*
X21299247Y-2279134D01*
X21395868Y-2346287D01*
X21503693Y-2393395D01*
X21618614Y-2418662D01*
X21736254Y-2421126D01*
X21852133Y-2400694D01*
X21961835Y-2358143D01*
X22061184Y-2295094D01*
X22146395Y-2213949D01*
X22214221Y-2117799D01*
X22262080Y-2010306D01*
X22277951Y-1940450D01*
X23009211Y-1940450D01*
X23030452Y-2056183D01*
X23073768Y-2165586D01*
X23137509Y-2264492D01*
X23219247Y-2349134D01*
X23315868Y-2416287D01*
X23423693Y-2463395D01*
X23538614Y-2488662D01*
X23656254Y-2491126D01*
X23772133Y-2470694D01*
X23881835Y-2428143D01*
X23981184Y-2365094D01*
X24039940Y-2309141D01*
X24059247Y-2329134D01*
X24155868Y-2396287D01*
X24263693Y-2443395D01*
X24378614Y-2468662D01*
X24496254Y-2471126D01*
X24612133Y-2450694D01*
X24721835Y-2408143D01*
X24819797Y-2345974D01*
X24857509Y-2404492D01*
X24939247Y-2489134D01*
X25035868Y-2556287D01*
X25143693Y-2603395D01*
X25258614Y-2628662D01*
X25376254Y-2631126D01*
X25492133Y-2610694D01*
X25601835Y-2568143D01*
X25701184Y-2505094D01*
X25786395Y-2423949D01*
X25854221Y-2327799D01*
X25902080Y-2220306D01*
X25928149Y-2105564D01*
X25930026Y-1971167D01*
X25907171Y-1855742D01*
X25862332Y-1746954D01*
X25797216Y-1648948D01*
X25714305Y-1565455D01*
X25616755Y-1499657D01*
X25508283Y-1454060D01*
X25393021Y-1430400D01*
X25275357Y-1429578D01*
X25159775Y-1451627D01*
X25050677Y-1495705D01*
X24960788Y-1554528D01*
X24917216Y-1488948D01*
X24834305Y-1405455D01*
X24736755Y-1339657D01*
X24628283Y-1294060D01*
X24513021Y-1270400D01*
X24395357Y-1269578D01*
X24279775Y-1291627D01*
X24170677Y-1335705D01*
X24072219Y-1400135D01*
X24019970Y-1451300D01*
X23994305Y-1425455D01*
X23896755Y-1359657D01*
X23788283Y-1314060D01*
X23673021Y-1290400D01*
X23555357Y-1289578D01*
X23439775Y-1311627D01*
X23330677Y-1355705D01*
X23232219Y-1420135D01*
X23148150Y-1502461D01*
X23081672Y-1599549D01*
X23035318Y-1707700D01*
X23010854Y-1822795D01*
X23009211Y-1940450D01*
X22277951Y-1940450D01*
X22288149Y-1895564D01*
X22290026Y-1761167D01*
X22267171Y-1645742D01*
X22222332Y-1536954D01*
X22157216Y-1438948D01*
X22074305Y-1355455D01*
X21976755Y-1289657D01*
X21868283Y-1244060D01*
X21753021Y-1220400D01*
X21635357Y-1219578D01*
X21519775Y-1241627D01*
X21410677Y-1285705D01*
X21312219Y-1350135D01*
X21228150Y-1432461D01*
X21161672Y-1529549D01*
X21115318Y-1637700D01*
X21090854Y-1752795D01*
X21089211Y-1870450D01*
X15783947Y-1870450D01*
X16130024Y-1745478D01*
X17422834Y-1397414D01*
X18916221Y-1098736D01*
X20458417Y-899743D01*
X21701997Y-850000D01*
X22498349Y-850000D01*
X23994159Y-899860D01*
X23994159Y-899860D01*
G37*
X23994159Y-899860D02*
X25187617Y-999315D01*
X26382664Y-1198490D01*
X27726108Y-1447276D01*
X29669499Y-2045242D01*
X30169616Y-2211948D01*
X29093319Y-5054475D01*
X28755423Y-4926484D01*
X28752671Y-4925488D01*
X27942671Y-4645488D01*
X27935997Y-4643438D01*
X27155997Y-4433438D01*
X27151410Y-4432319D01*
X26421410Y-4272319D01*
X26416440Y-4271361D01*
X25756440Y-4161361D01*
X25755758Y-4161249D01*
X24815758Y-4011249D01*
X24787623Y-4010769D01*
X24760468Y-4018146D01*
X24736443Y-4032796D01*
X24717451Y-4053559D01*
X24704995Y-4078791D01*
X24700000Y-4110000D01*
X24700000Y-6650000D01*
X24703959Y-6677859D01*
X24715523Y-6703513D01*
X24733776Y-6724929D01*
X24757272Y-6740412D01*
X24784897Y-6748853D01*
X25501080Y-6858270D01*
X26192460Y-7019277D01*
X26138150Y-7072461D01*
X26071672Y-7169549D01*
X26025318Y-7277700D01*
X26000854Y-7392795D01*
X25999211Y-7510450D01*
X26020452Y-7626183D01*
X26063768Y-7735586D01*
X26127509Y-7834492D01*
X26209247Y-7919134D01*
X26305868Y-7986287D01*
X26413693Y-8033395D01*
X26528614Y-8058662D01*
X26646254Y-8061126D01*
X26762133Y-8040694D01*
X26871835Y-7998143D01*
X26971184Y-7935094D01*
X27056395Y-7853949D01*
X27124221Y-7757799D01*
X27172080Y-7650306D01*
X27198149Y-7535564D01*
X27200026Y-7401167D01*
X27177171Y-7285742D01*
X27174130Y-7278363D01*
X27798093Y-7464835D01*
X28133091Y-7590459D01*
X27597545Y-9004850D01*
X27570677Y-9015705D01*
X27472219Y-9080135D01*
X27388150Y-9162461D01*
X27321672Y-9259549D01*
X27275318Y-9367700D01*
X27250854Y-9482795D01*
X27249211Y-9600450D01*
X27270452Y-9716183D01*
X27299973Y-9790745D01*
X27032546Y-10497028D01*
X26286245Y-10206800D01*
X26274254Y-10202986D01*
X25828001Y-10091423D01*
X25832133Y-10090694D01*
X25941835Y-10048143D01*
X26041184Y-9985094D01*
X26126395Y-9903949D01*
X26194221Y-9807799D01*
X26242080Y-9700306D01*
X26268149Y-9585564D01*
X26270026Y-9451167D01*
X26247171Y-9335742D01*
X26202332Y-9226954D01*
X26137216Y-9128948D01*
X26054305Y-9045455D01*
X25956755Y-8979657D01*
X25848283Y-8934060D01*
X25813262Y-8926871D01*
X25690739Y-8662233D01*
X25675364Y-8636072D01*
X25660865Y-8609399D01*
X25656843Y-8604559D01*
X25653656Y-8599136D01*
X25633499Y-8576467D01*
X25614090Y-8553110D01*
X25609202Y-8549141D01*
X25605025Y-8544444D01*
X25580848Y-8526122D01*
X25557271Y-8506980D01*
X25551708Y-8504038D01*
X25546695Y-8500239D01*
X25519403Y-8486953D01*
X25492575Y-8472765D01*
X25486551Y-8470961D01*
X25480890Y-8468205D01*
X25451521Y-8460469D01*
X25422464Y-8451767D01*
X25417319Y-8450797D01*
X24203788Y-8230852D01*
X24186701Y-8229455D01*
X24164504Y-8225802D01*
X24159277Y-8225496D01*
X24156333Y-8225344D01*
X24156240Y-8225339D01*
X22609329Y-8145498D01*
X22589034Y-8146436D01*
X22568743Y-8145603D01*
X22563517Y-8145936D01*
X21433518Y-8225936D01*
X21424528Y-8227465D01*
X21415416Y-8227660D01*
X21410221Y-8228319D01*
X20290221Y-8378319D01*
X20270774Y-8382890D01*
X20250988Y-8385717D01*
X20235227Y-8391246D01*
X20218976Y-8395066D01*
X20200785Y-8403329D01*
X20181927Y-8409944D01*
X20167545Y-8418426D01*
X20152341Y-8425332D01*
X20136097Y-8436974D01*
X20118887Y-8447124D01*
X20106427Y-8458238D01*
X20092853Y-8467966D01*
X20079178Y-8482542D01*
X20064270Y-8495840D01*
X20054208Y-8509160D01*
X20042779Y-8521342D01*
X20032196Y-8538297D01*
X20020154Y-8554237D01*
X20017452Y-8558721D01*
X19590230Y-9279135D01*
X18848651Y-9443930D01*
X18835033Y-9448389D01*
X18820984Y-9451196D01*
X18815985Y-9452753D01*
X18498513Y-9554074D01*
X18196652Y-9389904D01*
X17898234Y-8530462D01*
X17914221Y-8507799D01*
X17962080Y-8400306D01*
X17988149Y-8285564D01*
X17990026Y-8151167D01*
X17967171Y-8035742D01*
X17922332Y-7926954D01*
X17857216Y-7828948D01*
X17774305Y-7745455D01*
X17676755Y-7679657D01*
X17622763Y-7656961D01*
X20663750Y-7656961D01*
X20687294Y-7765467D01*
X20793865Y-7816569D01*
X20908358Y-7845897D01*
X21026372Y-7852326D01*
X21143374Y-7835608D01*
X21254865Y-7796386D01*
X21312706Y-7765467D01*
X21336250Y-7656961D01*
X21663750Y-7656961D01*
X21687294Y-7765467D01*
X21793865Y-7816569D01*
X21908358Y-7845897D01*
X22026372Y-7852326D01*
X22143374Y-7835608D01*
X22254865Y-7796386D01*
X22312706Y-7765467D01*
X22336250Y-7656961D01*
X22663750Y-7656961D01*
X22687294Y-7765467D01*
X22793865Y-7816569D01*
X22908358Y-7845897D01*
X23026372Y-7852326D01*
X23143374Y-7835608D01*
X23254865Y-7796386D01*
X23312706Y-7765467D01*
X23336250Y-7656961D01*
X23663750Y-7656961D01*
X23687294Y-7765467D01*
X23793865Y-7816569D01*
X23908358Y-7845897D01*
X24026372Y-7852326D01*
X24143374Y-7835608D01*
X24254865Y-7796386D01*
X24312706Y-7765467D01*
X24336250Y-7656961D01*
X24000000Y-7320711D01*
X23663750Y-7656961D01*
X23336250Y-7656961D01*
X23000000Y-7320711D01*
X22663750Y-7656961D01*
X22336250Y-7656961D01*
X22000000Y-7320711D01*
X21663750Y-7656961D01*
X21336250Y-7656961D01*
X21000000Y-7320711D01*
X20663750Y-7656961D01*
X17622763Y-7656961D01*
X17568283Y-7634060D01*
X17453021Y-7610400D01*
X17335357Y-7609578D01*
X17219775Y-7631627D01*
X17110677Y-7675705D01*
X17012219Y-7740135D01*
X16928150Y-7822461D01*
X16861672Y-7919549D01*
X16826972Y-8000509D01*
X16736755Y-7939657D01*
X16628283Y-7894060D01*
X16513021Y-7870400D01*
X16395357Y-7869578D01*
X16279775Y-7891627D01*
X16170677Y-7935705D01*
X16147709Y-7950735D01*
X16146522Y-7950689D01*
X16122256Y-7954517D01*
X16097782Y-7956573D01*
X16083786Y-7960587D01*
X16069409Y-7962855D01*
X16046356Y-7971321D01*
X16022741Y-7978093D01*
X16009793Y-7984748D01*
X15996128Y-7989766D01*
X15991115Y-7992229D01*
X15151115Y-8412229D01*
X15150079Y-8412881D01*
X15148945Y-8413323D01*
X15117110Y-8433615D01*
X15085030Y-8453789D01*
X15084142Y-8454628D01*
X15083114Y-8455283D01*
X15055747Y-8481447D01*
X15028277Y-8507393D01*
X15027572Y-8508384D01*
X15026687Y-8509230D01*
X15004919Y-8540217D01*
X14983015Y-8570999D01*
X14982514Y-8572112D01*
X14981813Y-8573110D01*
X14966520Y-8607641D01*
X14950970Y-8642185D01*
X14950694Y-8643376D01*
X14950201Y-8644490D01*
X14941906Y-8681336D01*
X14933363Y-8718240D01*
X14933324Y-8719461D01*
X14933056Y-8720651D01*
X14932406Y-8726198D01*
X14822463Y-9724144D01*
X14173388Y-10170383D01*
X14149386Y-10190601D01*
X14124632Y-10209875D01*
X14119581Y-10215707D01*
X14113681Y-10220677D01*
X14094064Y-10245171D01*
X14073524Y-10268887D01*
X14069703Y-10275587D01*
X14064880Y-10281609D01*
X14050398Y-10309439D01*
X14034851Y-10336701D01*
X14032403Y-10344020D01*
X14028843Y-10350861D01*
X14020044Y-10380969D01*
X14010087Y-10410736D01*
X14008879Y-10416188D01*
X13978026Y-10560168D01*
X13977216Y-10558948D01*
X13894305Y-10475455D01*
X13796755Y-10409657D01*
X13688283Y-10364060D01*
X13573021Y-10340400D01*
X13455357Y-10339578D01*
X13399620Y-10350211D01*
X13400026Y-10321167D01*
X13377171Y-10205742D01*
X13332332Y-10096954D01*
X13267216Y-9998948D01*
X13184305Y-9915455D01*
X13086755Y-9849657D01*
X12978283Y-9804060D01*
X12863021Y-9780400D01*
X12745357Y-9779578D01*
X12629775Y-9801627D01*
X12520677Y-9845705D01*
X12422219Y-9910135D01*
X12338150Y-9992461D01*
X12271672Y-10089549D01*
X12225318Y-10197700D01*
X12200854Y-10312795D01*
X12199211Y-10430450D01*
X12210409Y-10491464D01*
X12050000Y-10517012D01*
X12050000Y-12129287D01*
X12014141Y-12165146D01*
X12084854Y-12235859D01*
X12120713Y-12200000D01*
X13732988Y-12200000D01*
X13777937Y-11917779D01*
X13678961Y-11577304D01*
X13651439Y-11524343D01*
X13672133Y-11520694D01*
X13728699Y-11498753D01*
X13777509Y-11574492D01*
X13859247Y-11659134D01*
X13955868Y-11726287D01*
X14063693Y-11773395D01*
X14178614Y-11798662D01*
X14296254Y-11801126D01*
X14412133Y-11780694D01*
X14521835Y-11738143D01*
X14621184Y-11675094D01*
X14706395Y-11593949D01*
X14774221Y-11497799D01*
X14822080Y-11390306D01*
X14848149Y-11275564D01*
X14849097Y-11207681D01*
X14875868Y-11226287D01*
X14983693Y-11273395D01*
X15098614Y-11298662D01*
X15216254Y-11301126D01*
X15332133Y-11280694D01*
X15441835Y-11238143D01*
X15541184Y-11175094D01*
X15626395Y-11093949D01*
X15694221Y-10997799D01*
X15742080Y-10890306D01*
X15768149Y-10775564D01*
X15770026Y-10641167D01*
X15747171Y-10525742D01*
X15702332Y-10416954D01*
X15637216Y-10318948D01*
X15554305Y-10235455D01*
X15507941Y-10204182D01*
X15518550Y-10189080D01*
X15535119Y-10168391D01*
X15540937Y-10157210D01*
X15548187Y-10146890D01*
X15558924Y-10122646D01*
X15571156Y-10099140D01*
X15574692Y-10087042D01*
X15579799Y-10075510D01*
X15585622Y-10049645D01*
X15593056Y-10024208D01*
X15594175Y-10011651D01*
X15596944Y-9999350D01*
X15597594Y-9993803D01*
X15636764Y-9638259D01*
X15705868Y-9686287D01*
X15813693Y-9733395D01*
X15928614Y-9758662D01*
X16046254Y-9761126D01*
X16162133Y-9740694D01*
X16185916Y-9731469D01*
X16190452Y-9756183D01*
X16233768Y-9865586D01*
X16297509Y-9964492D01*
X16379247Y-10049134D01*
X16475868Y-10116287D01*
X16583693Y-10163395D01*
X16698614Y-10188662D01*
X16816254Y-10191126D01*
X16879217Y-10180024D01*
X16879211Y-10180450D01*
X16900452Y-10296183D01*
X16943768Y-10405586D01*
X17007509Y-10504492D01*
X17014348Y-10511574D01*
X16066188Y-10937996D01*
X16043842Y-10950802D01*
X16020796Y-10962286D01*
X16016379Y-10965098D01*
X14686379Y-11825098D01*
X14672668Y-11835999D01*
X14657915Y-11845447D01*
X14653825Y-11848716D01*
X13774647Y-12561563D01*
X13732988Y-12300000D01*
X12120713Y-12300000D01*
X12084854Y-12264141D01*
X12014141Y-12334854D01*
X12050000Y-12370713D01*
X12050000Y-13718814D01*
X11950000Y-13730003D01*
X11950000Y-12300000D01*
X10267012Y-12300000D01*
X10222063Y-12582221D01*
X10321039Y-12922696D01*
X10484536Y-13237319D01*
X10706272Y-13514000D01*
X10977725Y-13742106D01*
X11186544Y-13856863D01*
X11166142Y-13869147D01*
X11158053Y-13876495D01*
X11149034Y-13882667D01*
X11131015Y-13901057D01*
X11111970Y-13918358D01*
X11108483Y-13922264D01*
X10984354Y-14063320D01*
X10514137Y-14115566D01*
X10474305Y-14075455D01*
X10376755Y-14009657D01*
X10268283Y-13964060D01*
X10153021Y-13940400D01*
X10035357Y-13939578D01*
X9919775Y-13961627D01*
X9810677Y-14005705D01*
X9712219Y-14070135D01*
X9628150Y-14152461D01*
X9561672Y-14249549D01*
X9515318Y-14357700D01*
X9490854Y-14472795D01*
X9489211Y-14590450D01*
X9510452Y-14706183D01*
X9553768Y-14815586D01*
X9617509Y-14914492D01*
X9699247Y-14999134D01*
X9795868Y-15066287D01*
X9903693Y-15113395D01*
X10018614Y-15138662D01*
X10136254Y-15141126D01*
X10252133Y-15120694D01*
X10361835Y-15078143D01*
X10461184Y-15015094D01*
X10546395Y-14933949D01*
X10597947Y-14860869D01*
X10837573Y-14834244D01*
X10598845Y-15189796D01*
X10588114Y-15209744D01*
X10574872Y-15228119D01*
X10570018Y-15236602D01*
X9901067Y-16424871D01*
X9591163Y-16288948D01*
X9461295Y-16246545D01*
X9325663Y-16230176D01*
X9189434Y-16240461D01*
X9057799Y-16277011D01*
X9012386Y-16299870D01*
X8982332Y-16226954D01*
X8917216Y-16128948D01*
X8834305Y-16045455D01*
X8736755Y-15979657D01*
X8628283Y-15934060D01*
X8513021Y-15910400D01*
X8395357Y-15909578D01*
X8279775Y-15931627D01*
X8170677Y-15975705D01*
X8072219Y-16040135D01*
X7988150Y-16122461D01*
X7921672Y-16219549D01*
X7875318Y-16327700D01*
X7850854Y-16442795D01*
X7849211Y-16560450D01*
X7870452Y-16676183D01*
X7913768Y-16785586D01*
X7977509Y-16884492D01*
X8059247Y-16969134D01*
X8155868Y-17036287D01*
X8263693Y-17083395D01*
X8378614Y-17108662D01*
X8496254Y-17111126D01*
X8612133Y-17090694D01*
X8629915Y-17083797D01*
X8655266Y-17177636D01*
X8677566Y-17222721D01*
X8620677Y-17245705D01*
X8522219Y-17310135D01*
X8438150Y-17392461D01*
X8371672Y-17489549D01*
X8325318Y-17597700D01*
X8300854Y-17712795D01*
X8299211Y-17830450D01*
X8320452Y-17946183D01*
X8363768Y-18055586D01*
X8427509Y-18154492D01*
X8509247Y-18239134D01*
X8605868Y-18306287D01*
X8713693Y-18353395D01*
X8828614Y-18378662D01*
X8946254Y-18381126D01*
X9062133Y-18360694D01*
X9087244Y-18350954D01*
X9079714Y-18376285D01*
X9064745Y-18415527D01*
X9062235Y-18424973D01*
X8592235Y-20244973D01*
X8584431Y-20294919D01*
X8574094Y-20344400D01*
X8573107Y-20354125D01*
X8383107Y-22364125D01*
X8383263Y-22408956D01*
X8380401Y-22453706D01*
X8380801Y-22463472D01*
X8389731Y-22650000D01*
X6706519Y-22650000D01*
X6729516Y-22598982D01*
X6741451Y-22515000D01*
X6741451Y-21715000D01*
X6737641Y-21667226D01*
X6712548Y-21586197D01*
X6665874Y-21515366D01*
X6601315Y-21460343D01*
X6523982Y-21425484D01*
X6440000Y-21413549D01*
X5640000Y-21413549D01*
X5592226Y-21417359D01*
X5511197Y-21442452D01*
X5440366Y-21489126D01*
X5405522Y-21530008D01*
X5395874Y-21515366D01*
X5331315Y-21460343D01*
X5253982Y-21425484D01*
X5170000Y-21413549D01*
X4370000Y-21413549D01*
X4322226Y-21417359D01*
X4241197Y-21442452D01*
X4170366Y-21489126D01*
X4135522Y-21530008D01*
X4125874Y-21515366D01*
X4061315Y-21460343D01*
X3983982Y-21425484D01*
X3900000Y-21413549D01*
X3100000Y-21413549D01*
X3052226Y-21417359D01*
X2971197Y-21442452D01*
X2900366Y-21489126D01*
X2865522Y-21530008D01*
X2855874Y-21515366D01*
X2791315Y-21460343D01*
X2713982Y-21425484D01*
X2630000Y-21413549D01*
X1830000Y-21413549D01*
X1782226Y-21417359D01*
X1701197Y-21442452D01*
X1630366Y-21489126D01*
X1595522Y-21530008D01*
X1585874Y-21515366D01*
X1521315Y-21460343D01*
X1443982Y-21425484D01*
X1360000Y-21413549D01*
X659496Y-21413549D01*
X694300Y-20630450D01*
X4919211Y-20630450D01*
X4940452Y-20746183D01*
X4983768Y-20855586D01*
X5047509Y-20954492D01*
X5129247Y-21039134D01*
X5225868Y-21106287D01*
X5333693Y-21153395D01*
X5448614Y-21178662D01*
X5566254Y-21181126D01*
X5682133Y-21160694D01*
X5791835Y-21118143D01*
X5891184Y-21055094D01*
X5976395Y-20973949D01*
X6044221Y-20877799D01*
X6092080Y-20770306D01*
X6118149Y-20655564D01*
X6120026Y-20521167D01*
X6097171Y-20405742D01*
X6052332Y-20296954D01*
X5987216Y-20198948D01*
X5904305Y-20115455D01*
X5806755Y-20049657D01*
X5698283Y-20004060D01*
X5583021Y-19980400D01*
X5465357Y-19979578D01*
X5349775Y-20001627D01*
X5240677Y-20045705D01*
X5142219Y-20110135D01*
X5058150Y-20192461D01*
X4991672Y-20289549D01*
X4945318Y-20397700D01*
X4920854Y-20512795D01*
X4919211Y-20630450D01*
X694300Y-20630450D01*
X699701Y-20508936D01*
X896793Y-19050450D01*
X4269211Y-19050450D01*
X4290452Y-19166183D01*
X4333768Y-19275586D01*
X4397509Y-19374492D01*
X4479247Y-19459134D01*
X4575868Y-19526287D01*
X4683693Y-19573395D01*
X4798614Y-19598662D01*
X4916254Y-19601126D01*
X5032133Y-19580694D01*
X5141835Y-19538143D01*
X5241184Y-19475094D01*
X5326395Y-19393949D01*
X5394221Y-19297799D01*
X5442080Y-19190306D01*
X5468149Y-19075564D01*
X5470026Y-18941167D01*
X5447171Y-18825742D01*
X5402332Y-18716954D01*
X5337216Y-18618948D01*
X5254305Y-18535455D01*
X5156755Y-18469657D01*
X5048283Y-18424060D01*
X4933021Y-18400400D01*
X4815357Y-18399578D01*
X4699775Y-18421627D01*
X4590677Y-18465705D01*
X4492219Y-18530135D01*
X4408150Y-18612461D01*
X4341672Y-18709549D01*
X4295318Y-18817700D01*
X4270854Y-18932795D01*
X4269211Y-19050450D01*
X896793Y-19050450D01*
X948479Y-18667978D01*
X1035601Y-18290450D01*
X7059211Y-18290450D01*
X7080452Y-18406183D01*
X7123768Y-18515586D01*
X7187509Y-18614492D01*
X7269247Y-18699134D01*
X7365868Y-18766287D01*
X7473693Y-18813395D01*
X7588614Y-18838662D01*
X7706254Y-18841126D01*
X7822133Y-18820694D01*
X7931835Y-18778143D01*
X8031184Y-18715094D01*
X8116395Y-18633949D01*
X8184221Y-18537799D01*
X8232080Y-18430306D01*
X8258149Y-18315564D01*
X8260026Y-18181167D01*
X8237171Y-18065742D01*
X8192332Y-17956954D01*
X8127216Y-17858948D01*
X8044305Y-17775455D01*
X7946755Y-17709657D01*
X7838283Y-17664060D01*
X7723021Y-17640400D01*
X7605357Y-17639578D01*
X7489775Y-17661627D01*
X7380677Y-17705705D01*
X7282219Y-17770135D01*
X7198150Y-17852461D01*
X7131672Y-17949549D01*
X7085318Y-18057700D01*
X7060854Y-18172795D01*
X7059211Y-18290450D01*
X1035601Y-18290450D01*
X1246906Y-17374797D01*
X1267816Y-17300450D01*
X2399211Y-17300450D01*
X2420452Y-17416183D01*
X2463768Y-17525586D01*
X2527509Y-17624492D01*
X2609247Y-17709134D01*
X2705868Y-17776287D01*
X2813693Y-17823395D01*
X2928614Y-17848662D01*
X3046254Y-17851126D01*
X3162133Y-17830694D01*
X3271835Y-17788143D01*
X3371184Y-17725094D01*
X3456395Y-17643949D01*
X3524221Y-17547799D01*
X3572080Y-17440306D01*
X3598149Y-17325564D01*
X3600026Y-17191167D01*
X3577171Y-17075742D01*
X3532332Y-16966954D01*
X3467216Y-16868948D01*
X3384305Y-16785455D01*
X3286755Y-16719657D01*
X3178283Y-16674060D01*
X3063021Y-16650400D01*
X2945357Y-16649578D01*
X2829775Y-16671627D01*
X2720677Y-16715705D01*
X2622219Y-16780135D01*
X2538150Y-16862461D01*
X2471672Y-16959549D01*
X2425318Y-17067700D01*
X2400854Y-17182795D01*
X2399211Y-17300450D01*
X1267816Y-17300450D01*
X1695119Y-15781148D01*
X2142589Y-14587896D01*
X2739886Y-13243978D01*
X3450348Y-11917779D01*
X10222063Y-11917779D01*
X10267012Y-12200000D01*
X11950000Y-12200000D01*
X11950000Y-10517012D01*
X11667779Y-10472063D01*
X11327304Y-10571039D01*
X11012681Y-10734536D01*
X10736000Y-10956272D01*
X10507894Y-11227725D01*
X10337128Y-11538463D01*
X10230266Y-11876545D01*
X10222063Y-11917779D01*
X3450348Y-11917779D01*
X3486568Y-11850170D01*
X4460152Y-10292435D01*
X7129410Y-10292435D01*
X7150651Y-10408168D01*
X7193967Y-10517571D01*
X7257708Y-10616477D01*
X7339446Y-10701119D01*
X7436067Y-10768272D01*
X7543892Y-10815380D01*
X7658813Y-10840647D01*
X7776453Y-10843111D01*
X7892332Y-10822679D01*
X8002034Y-10780128D01*
X8101383Y-10717079D01*
X8186594Y-10635934D01*
X8254420Y-10539784D01*
X8302279Y-10432291D01*
X8328348Y-10317549D01*
X8330225Y-10183152D01*
X8307370Y-10067727D01*
X8262531Y-9958939D01*
X8197415Y-9860933D01*
X8114504Y-9777440D01*
X8016954Y-9711642D01*
X7908482Y-9666045D01*
X7793220Y-9642385D01*
X7675556Y-9641563D01*
X7559974Y-9663612D01*
X7450876Y-9707690D01*
X7352418Y-9772120D01*
X7268349Y-9854446D01*
X7201871Y-9951534D01*
X7155517Y-10059685D01*
X7131053Y-10174780D01*
X7129410Y-10292435D01*
X4460152Y-10292435D01*
X4482383Y-10256867D01*
X5427596Y-9013166D01*
X6041080Y-8308796D01*
X6043768Y-8315586D01*
X6107509Y-8414492D01*
X6189247Y-8499134D01*
X6285868Y-8566287D01*
X6393693Y-8613395D01*
X6508614Y-8638662D01*
X6626254Y-8641126D01*
X6742133Y-8620694D01*
X6851835Y-8578143D01*
X6951184Y-8515094D01*
X7036395Y-8433949D01*
X7104221Y-8337799D01*
X7143111Y-8250450D01*
X8759211Y-8250450D01*
X8780452Y-8366183D01*
X8823768Y-8475586D01*
X8887509Y-8574492D01*
X8969247Y-8659134D01*
X9065868Y-8726287D01*
X9173693Y-8773395D01*
X9288614Y-8798662D01*
X9406254Y-8801126D01*
X9522133Y-8780694D01*
X9631835Y-8738143D01*
X9731184Y-8675094D01*
X9816395Y-8593949D01*
X9884221Y-8497799D01*
X9932080Y-8390306D01*
X9958149Y-8275564D01*
X9960026Y-8141167D01*
X9937171Y-8025742D01*
X9892332Y-7916954D01*
X9827216Y-7818948D01*
X9744305Y-7735455D01*
X9646755Y-7669657D01*
X9538283Y-7624060D01*
X9423021Y-7600400D01*
X9305357Y-7599578D01*
X9189775Y-7621627D01*
X9080677Y-7665705D01*
X8982219Y-7730135D01*
X8898150Y-7812461D01*
X8831672Y-7909549D01*
X8785318Y-8017700D01*
X8760854Y-8132795D01*
X8759211Y-8250450D01*
X7143111Y-8250450D01*
X7152080Y-8230306D01*
X7178149Y-8115564D01*
X7180026Y-7981167D01*
X7157171Y-7865742D01*
X7112332Y-7756954D01*
X7047216Y-7658948D01*
X6964305Y-7575455D01*
X6866755Y-7509657D01*
X6771850Y-7469763D01*
X6772473Y-7469048D01*
X7948096Y-6340450D01*
X9209211Y-6340450D01*
X9230452Y-6456183D01*
X9273768Y-6565586D01*
X9337509Y-6664492D01*
X9419247Y-6749134D01*
X9515868Y-6816287D01*
X9623693Y-6863395D01*
X9738614Y-6888662D01*
X9759230Y-6889094D01*
X9759211Y-6890450D01*
X9780452Y-7006183D01*
X9823768Y-7115586D01*
X9887509Y-7214492D01*
X9969247Y-7299134D01*
X10065868Y-7366287D01*
X10173693Y-7413395D01*
X10250331Y-7430245D01*
X10249211Y-7510450D01*
X10270452Y-7626183D01*
X10313768Y-7735586D01*
X10377509Y-7834492D01*
X10459247Y-7919134D01*
X10555868Y-7986287D01*
X10663693Y-8033395D01*
X10778614Y-8058662D01*
X10896254Y-8061126D01*
X11012133Y-8040694D01*
X11121835Y-7998143D01*
X11221184Y-7935094D01*
X11306395Y-7853949D01*
X11374221Y-7757799D01*
X11422080Y-7650306D01*
X11448149Y-7535564D01*
X11450026Y-7401167D01*
X11427171Y-7285742D01*
X11382332Y-7176954D01*
X11317216Y-7078948D01*
X11234305Y-6995455D01*
X11136755Y-6929657D01*
X11028283Y-6884060D01*
X10958788Y-6869795D01*
X10959616Y-6810450D01*
X12709211Y-6810450D01*
X12730452Y-6926183D01*
X12773768Y-7035586D01*
X12837509Y-7134492D01*
X12919247Y-7219134D01*
X13015868Y-7286287D01*
X13123693Y-7333395D01*
X13238614Y-7358662D01*
X13356254Y-7361126D01*
X13472133Y-7340694D01*
X13581835Y-7298143D01*
X13681184Y-7235094D01*
X13766395Y-7153949D01*
X13834221Y-7057799D01*
X13882080Y-6950306D01*
X13906509Y-6842781D01*
X13953693Y-6863395D01*
X14068614Y-6888662D01*
X14186254Y-6891126D01*
X14302133Y-6870694D01*
X14411835Y-6828143D01*
X14486986Y-6780450D01*
X17929211Y-6780450D01*
X17950452Y-6896183D01*
X17993768Y-7005586D01*
X18057509Y-7104492D01*
X18139247Y-7189134D01*
X18235868Y-7256287D01*
X18343693Y-7303395D01*
X18458614Y-7328662D01*
X18576254Y-7331126D01*
X18692133Y-7310694D01*
X18780619Y-7276372D01*
X20397674Y-7276372D01*
X20414392Y-7393374D01*
X20453614Y-7504865D01*
X20484533Y-7562706D01*
X20593039Y-7586250D01*
X20929289Y-7250000D01*
X21070711Y-7250000D01*
X21406961Y-7586250D01*
X21500000Y-7566062D01*
X21593039Y-7586250D01*
X21929289Y-7250000D01*
X22070711Y-7250000D01*
X22406961Y-7586250D01*
X22500000Y-7566062D01*
X22593039Y-7586250D01*
X22929289Y-7250000D01*
X23070711Y-7250000D01*
X23406961Y-7586250D01*
X23500000Y-7566062D01*
X23593039Y-7586250D01*
X23929289Y-7250000D01*
X24070711Y-7250000D01*
X24406961Y-7586250D01*
X24515467Y-7562706D01*
X24566569Y-7456135D01*
X24595897Y-7341642D01*
X24602326Y-7223628D01*
X24585608Y-7106626D01*
X24546386Y-6995135D01*
X24515467Y-6937294D01*
X24406961Y-6913750D01*
X24070711Y-7250000D01*
X23929289Y-7250000D01*
X23593039Y-6913750D01*
X23500000Y-6933938D01*
X23406961Y-6913750D01*
X23070711Y-7250000D01*
X22929289Y-7250000D01*
X22593039Y-6913750D01*
X22500000Y-6933938D01*
X22406961Y-6913750D01*
X22070711Y-7250000D01*
X21929289Y-7250000D01*
X21593039Y-6913750D01*
X21500000Y-6933938D01*
X21406961Y-6913750D01*
X21070711Y-7250000D01*
X20929289Y-7250000D01*
X20593039Y-6913750D01*
X20484533Y-6937294D01*
X20433431Y-7043865D01*
X20404103Y-7158358D01*
X20397674Y-7276372D01*
X18780619Y-7276372D01*
X18801835Y-7268143D01*
X18901184Y-7205094D01*
X18986395Y-7123949D01*
X19054221Y-7027799D01*
X19102080Y-6920306D01*
X19128149Y-6805564D01*
X19130026Y-6671167D01*
X19127214Y-6656961D01*
X20663750Y-6656961D01*
X20683938Y-6750000D01*
X20663750Y-6843039D01*
X21000000Y-7179289D01*
X21336250Y-6843039D01*
X21316062Y-6750000D01*
X21336250Y-6656961D01*
X21663750Y-6656961D01*
X21683938Y-6750000D01*
X21663750Y-6843039D01*
X22000000Y-7179289D01*
X22336250Y-6843039D01*
X22316062Y-6750000D01*
X22336250Y-6656961D01*
X22663750Y-6656961D01*
X22683938Y-6750000D01*
X22663750Y-6843039D01*
X23000000Y-7179289D01*
X23336250Y-6843039D01*
X23316062Y-6750000D01*
X23336250Y-6656961D01*
X23663750Y-6656961D01*
X23683938Y-6750000D01*
X23663750Y-6843039D01*
X24000000Y-7179289D01*
X24336250Y-6843039D01*
X24316062Y-6750000D01*
X24336250Y-6656961D01*
X24000000Y-6320711D01*
X23663750Y-6656961D01*
X23336250Y-6656961D01*
X23000000Y-6320711D01*
X22663750Y-6656961D01*
X22336250Y-6656961D01*
X22000000Y-6320711D01*
X21663750Y-6656961D01*
X21336250Y-6656961D01*
X21000000Y-6320711D01*
X20663750Y-6656961D01*
X19127214Y-6656961D01*
X19107171Y-6555742D01*
X19062332Y-6446954D01*
X18997216Y-6348948D01*
X18925146Y-6276372D01*
X20397674Y-6276372D01*
X20414392Y-6393374D01*
X20453614Y-6504865D01*
X20484533Y-6562706D01*
X20593039Y-6586250D01*
X20929289Y-6250000D01*
X21070711Y-6250000D01*
X21406961Y-6586250D01*
X21500000Y-6566062D01*
X21593039Y-6586250D01*
X21929289Y-6250000D01*
X22070711Y-6250000D01*
X22406961Y-6586250D01*
X22500000Y-6566062D01*
X22593039Y-6586250D01*
X22929289Y-6250000D01*
X23070711Y-6250000D01*
X23406961Y-6586250D01*
X23500000Y-6566062D01*
X23593039Y-6586250D01*
X23929289Y-6250000D01*
X24070711Y-6250000D01*
X24406961Y-6586250D01*
X24515467Y-6562706D01*
X24566569Y-6456135D01*
X24595897Y-6341642D01*
X24602326Y-6223628D01*
X24585608Y-6106626D01*
X24546386Y-5995135D01*
X24515467Y-5937294D01*
X24406961Y-5913750D01*
X24070711Y-6250000D01*
X23929289Y-6250000D01*
X23593039Y-5913750D01*
X23500000Y-5933938D01*
X23406961Y-5913750D01*
X23070711Y-6250000D01*
X22929289Y-6250000D01*
X22593039Y-5913750D01*
X22500000Y-5933938D01*
X22406961Y-5913750D01*
X22070711Y-6250000D01*
X21929289Y-6250000D01*
X21593039Y-5913750D01*
X21500000Y-5933938D01*
X21406961Y-5913750D01*
X21070711Y-6250000D01*
X20929289Y-6250000D01*
X20593039Y-5913750D01*
X20484533Y-5937294D01*
X20433431Y-6043865D01*
X20404103Y-6158358D01*
X20397674Y-6276372D01*
X18925146Y-6276372D01*
X18914305Y-6265455D01*
X18816755Y-6199657D01*
X18708283Y-6154060D01*
X18593021Y-6130400D01*
X18475357Y-6129578D01*
X18359775Y-6151627D01*
X18250677Y-6195705D01*
X18152219Y-6260135D01*
X18068150Y-6342461D01*
X18001672Y-6439549D01*
X17955318Y-6547700D01*
X17930854Y-6662795D01*
X17929211Y-6780450D01*
X14486986Y-6780450D01*
X14511184Y-6765094D01*
X14596395Y-6683949D01*
X14664221Y-6587799D01*
X14712080Y-6480306D01*
X14738149Y-6365564D01*
X14740026Y-6231167D01*
X14717171Y-6115742D01*
X14672332Y-6006954D01*
X14607216Y-5908948D01*
X14524305Y-5825455D01*
X14426755Y-5759657D01*
X14318283Y-5714060D01*
X14203021Y-5690400D01*
X14085357Y-5689578D01*
X13969775Y-5711627D01*
X13860677Y-5755705D01*
X13762219Y-5820135D01*
X13678150Y-5902461D01*
X13611672Y-5999549D01*
X13565318Y-6107700D01*
X13544100Y-6207523D01*
X13488283Y-6184060D01*
X13373021Y-6160400D01*
X13255357Y-6159578D01*
X13139775Y-6181627D01*
X13030677Y-6225705D01*
X12932219Y-6290135D01*
X12848150Y-6372461D01*
X12781672Y-6469549D01*
X12735318Y-6577700D01*
X12710854Y-6692795D01*
X12709211Y-6810450D01*
X10959616Y-6810450D01*
X10960026Y-6781167D01*
X10937171Y-6665742D01*
X10892332Y-6556954D01*
X10827216Y-6458948D01*
X10744305Y-6375455D01*
X10646755Y-6309657D01*
X10538283Y-6264060D01*
X10423021Y-6240400D01*
X10409898Y-6240308D01*
X10410026Y-6231167D01*
X10387171Y-6115742D01*
X10342332Y-6006954D01*
X10277216Y-5908948D01*
X10194305Y-5825455D01*
X10096755Y-5759657D01*
X9988283Y-5714060D01*
X9873021Y-5690400D01*
X9755357Y-5689578D01*
X9639775Y-5711627D01*
X9530677Y-5755705D01*
X9432219Y-5820135D01*
X9348150Y-5902461D01*
X9281672Y-5999549D01*
X9235318Y-6107700D01*
X9210854Y-6222795D01*
X9209211Y-6340450D01*
X7948096Y-6340450D01*
X8015993Y-6275269D01*
X8788877Y-5656961D01*
X20663750Y-5656961D01*
X20683938Y-5750000D01*
X20663750Y-5843039D01*
X21000000Y-6179289D01*
X21336250Y-5843039D01*
X21316062Y-5750000D01*
X21336250Y-5656961D01*
X21663750Y-5656961D01*
X21683938Y-5750000D01*
X21663750Y-5843039D01*
X22000000Y-6179289D01*
X22336250Y-5843039D01*
X22316062Y-5750000D01*
X22336250Y-5656961D01*
X22663750Y-5656961D01*
X22683938Y-5750000D01*
X22663750Y-5843039D01*
X23000000Y-6179289D01*
X23336250Y-5843039D01*
X23316062Y-5750000D01*
X23336250Y-5656961D01*
X23663750Y-5656961D01*
X23683938Y-5750000D01*
X23663750Y-5843039D01*
X24000000Y-6179289D01*
X24336250Y-5843039D01*
X24316062Y-5750000D01*
X24336250Y-5656961D01*
X24000000Y-5320711D01*
X23663750Y-5656961D01*
X23336250Y-5656961D01*
X23000000Y-5320711D01*
X22663750Y-5656961D01*
X22336250Y-5656961D01*
X22000000Y-5320711D01*
X21663750Y-5656961D01*
X21336250Y-5656961D01*
X21000000Y-5320711D01*
X20663750Y-5656961D01*
X8788877Y-5656961D01*
X9259825Y-5280203D01*
X9265341Y-5276372D01*
X20397674Y-5276372D01*
X20414392Y-5393374D01*
X20453614Y-5504865D01*
X20484533Y-5562706D01*
X20593039Y-5586250D01*
X20929289Y-5250000D01*
X21070711Y-5250000D01*
X21406961Y-5586250D01*
X21500000Y-5566062D01*
X21593039Y-5586250D01*
X21929289Y-5250000D01*
X22070711Y-5250000D01*
X22406961Y-5586250D01*
X22500000Y-5566062D01*
X22593039Y-5586250D01*
X22929289Y-5250000D01*
X23070711Y-5250000D01*
X23406961Y-5586250D01*
X23500000Y-5566062D01*
X23593039Y-5586250D01*
X23929289Y-5250000D01*
X24070711Y-5250000D01*
X24406961Y-5586250D01*
X24515467Y-5562706D01*
X24566569Y-5456135D01*
X24595897Y-5341642D01*
X24602326Y-5223628D01*
X24585608Y-5106626D01*
X24546386Y-4995135D01*
X24515467Y-4937294D01*
X24406961Y-4913750D01*
X24070711Y-5250000D01*
X23929289Y-5250000D01*
X23593039Y-4913750D01*
X23500000Y-4933938D01*
X23406961Y-4913750D01*
X23070711Y-5250000D01*
X22929289Y-5250000D01*
X22593039Y-4913750D01*
X22500000Y-4933938D01*
X22406961Y-4913750D01*
X22070711Y-5250000D01*
X21929289Y-5250000D01*
X21593039Y-4913750D01*
X21500000Y-4933938D01*
X21406961Y-4913750D01*
X21070711Y-5250000D01*
X20929289Y-5250000D01*
X20593039Y-4913750D01*
X20484533Y-4937294D01*
X20433431Y-5043865D01*
X20404103Y-5158358D01*
X20397674Y-5276372D01*
X9265341Y-5276372D01*
X10157292Y-4656961D01*
X20663750Y-4656961D01*
X20683938Y-4750000D01*
X20663750Y-4843039D01*
X21000000Y-5179289D01*
X21336250Y-4843039D01*
X21316062Y-4750000D01*
X21336250Y-4656961D01*
X21663750Y-4656961D01*
X21683938Y-4750000D01*
X21663750Y-4843039D01*
X22000000Y-5179289D01*
X22336250Y-4843039D01*
X22316062Y-4750000D01*
X22336250Y-4656961D01*
X22663750Y-4656961D01*
X22683938Y-4750000D01*
X22663750Y-4843039D01*
X23000000Y-5179289D01*
X23336250Y-4843039D01*
X23316062Y-4750000D01*
X23336250Y-4656961D01*
X23663750Y-4656961D01*
X23683938Y-4750000D01*
X23663750Y-4843039D01*
X24000000Y-5179289D01*
X24336250Y-4843039D01*
X24316062Y-4750000D01*
X24336250Y-4656961D01*
X24000000Y-4320711D01*
X23663750Y-4656961D01*
X23336250Y-4656961D01*
X23000000Y-4320711D01*
X22663750Y-4656961D01*
X22336250Y-4656961D01*
X22000000Y-4320711D01*
X21663750Y-4656961D01*
X21336250Y-4656961D01*
X21000000Y-4320711D01*
X20663750Y-4656961D01*
X10157292Y-4656961D01*
X10705340Y-4276372D01*
X20397674Y-4276372D01*
X20414392Y-4393374D01*
X20453614Y-4504865D01*
X20484533Y-4562706D01*
X20593039Y-4586250D01*
X20929289Y-4250000D01*
X21070711Y-4250000D01*
X21406961Y-4586250D01*
X21500000Y-4566062D01*
X21593039Y-4586250D01*
X21929289Y-4250000D01*
X22070711Y-4250000D01*
X22406961Y-4586250D01*
X22500000Y-4566062D01*
X22593039Y-4586250D01*
X22929289Y-4250000D01*
X23070711Y-4250000D01*
X23406961Y-4586250D01*
X23500000Y-4566062D01*
X23593039Y-4586250D01*
X23929289Y-4250000D01*
X24070711Y-4250000D01*
X24406961Y-4586250D01*
X24515467Y-4562706D01*
X24566569Y-4456135D01*
X24595897Y-4341642D01*
X24602326Y-4223628D01*
X24585608Y-4106626D01*
X24546386Y-3995135D01*
X24515467Y-3937294D01*
X24406961Y-3913750D01*
X24070711Y-4250000D01*
X23929289Y-4250000D01*
X23593039Y-3913750D01*
X23500000Y-3933938D01*
X23406961Y-3913750D01*
X23070711Y-4250000D01*
X22929289Y-4250000D01*
X22593039Y-3913750D01*
X22500000Y-3933938D01*
X22406961Y-3913750D01*
X22070711Y-4250000D01*
X21929289Y-4250000D01*
X21593039Y-3913750D01*
X21500000Y-3933938D01*
X21406961Y-3913750D01*
X21070711Y-4250000D01*
X20929289Y-4250000D01*
X20593039Y-3913750D01*
X20484533Y-3937294D01*
X20433431Y-4043865D01*
X20404103Y-4158358D01*
X20397674Y-4276372D01*
X10705340Y-4276372D01*
X11052614Y-4035210D01*
X11404927Y-3843039D01*
X20663750Y-3843039D01*
X21000000Y-4179289D01*
X21336250Y-3843039D01*
X21663750Y-3843039D01*
X22000000Y-4179289D01*
X22336250Y-3843039D01*
X22663750Y-3843039D01*
X23000000Y-4179289D01*
X23336250Y-3843039D01*
X23663750Y-3843039D01*
X24000000Y-4179289D01*
X24336250Y-3843039D01*
X24312706Y-3734533D01*
X24206135Y-3683431D01*
X24091642Y-3654103D01*
X23973628Y-3647674D01*
X23856626Y-3664392D01*
X23745135Y-3703614D01*
X23687294Y-3734533D01*
X23663750Y-3843039D01*
X23336250Y-3843039D01*
X23312706Y-3734533D01*
X23206135Y-3683431D01*
X23091642Y-3654103D01*
X22973628Y-3647674D01*
X22856626Y-3664392D01*
X22745135Y-3703614D01*
X22687294Y-3734533D01*
X22663750Y-3843039D01*
X22336250Y-3843039D01*
X22312706Y-3734533D01*
X22206135Y-3683431D01*
X22091642Y-3654103D01*
X21973628Y-3647674D01*
X21856626Y-3664392D01*
X21745135Y-3703614D01*
X21687294Y-3734533D01*
X21663750Y-3843039D01*
X21336250Y-3843039D01*
X21312706Y-3734533D01*
X21206135Y-3683431D01*
X21091642Y-3654103D01*
X20973628Y-3647674D01*
X20856626Y-3664392D01*
X20745135Y-3703614D01*
X20687294Y-3734533D01*
X20663750Y-3843039D01*
X11404927Y-3843039D01*
X12694693Y-3139531D01*
X13704671Y-2680450D01*
X17419211Y-2680450D01*
X17440452Y-2796183D01*
X17483768Y-2905586D01*
X17547509Y-3004492D01*
X17629247Y-3089134D01*
X17725868Y-3156287D01*
X17833693Y-3203395D01*
X17948614Y-3228662D01*
X18066254Y-3231126D01*
X18182133Y-3210694D01*
X18291835Y-3168143D01*
X18391184Y-3105094D01*
X18476395Y-3023949D01*
X18544221Y-2927799D01*
X18592080Y-2820306D01*
X18618149Y-2705564D01*
X18620026Y-2571167D01*
X18597171Y-2455742D01*
X18552332Y-2346954D01*
X18487216Y-2248948D01*
X18404305Y-2165455D01*
X18306755Y-2099657D01*
X18198283Y-2054060D01*
X18083021Y-2030400D01*
X17965357Y-2029578D01*
X17849775Y-2051627D01*
X17740677Y-2095705D01*
X17642219Y-2160135D01*
X17558150Y-2242461D01*
X17491672Y-2339549D01*
X17445318Y-2447700D01*
X17420854Y-2562795D01*
X17419211Y-2680450D01*
X13704671Y-2680450D01*
X14337741Y-2392691D01*
X15783947Y-1870450D01*
X21089211Y-1870450D01*
X21110452Y-1986183D01*
X21153768Y-2095586D01*
X21217509Y-2194492D01*
X21299247Y-2279134D01*
X21395868Y-2346287D01*
X21503693Y-2393395D01*
X21618614Y-2418662D01*
X21736254Y-2421126D01*
X21852133Y-2400694D01*
X21961835Y-2358143D01*
X22061184Y-2295094D01*
X22146395Y-2213949D01*
X22214221Y-2117799D01*
X22262080Y-2010306D01*
X22277951Y-1940450D01*
X23009211Y-1940450D01*
X23030452Y-2056183D01*
X23073768Y-2165586D01*
X23137509Y-2264492D01*
X23219247Y-2349134D01*
X23315868Y-2416287D01*
X23423693Y-2463395D01*
X23538614Y-2488662D01*
X23656254Y-2491126D01*
X23772133Y-2470694D01*
X23881835Y-2428143D01*
X23981184Y-2365094D01*
X24039940Y-2309141D01*
X24059247Y-2329134D01*
X24155868Y-2396287D01*
X24263693Y-2443395D01*
X24378614Y-2468662D01*
X24496254Y-2471126D01*
X24612133Y-2450694D01*
X24721835Y-2408143D01*
X24819797Y-2345974D01*
X24857509Y-2404492D01*
X24939247Y-2489134D01*
X25035868Y-2556287D01*
X25143693Y-2603395D01*
X25258614Y-2628662D01*
X25376254Y-2631126D01*
X25492133Y-2610694D01*
X25601835Y-2568143D01*
X25701184Y-2505094D01*
X25786395Y-2423949D01*
X25854221Y-2327799D01*
X25902080Y-2220306D01*
X25928149Y-2105564D01*
X25930026Y-1971167D01*
X25907171Y-1855742D01*
X25862332Y-1746954D01*
X25797216Y-1648948D01*
X25714305Y-1565455D01*
X25616755Y-1499657D01*
X25508283Y-1454060D01*
X25393021Y-1430400D01*
X25275357Y-1429578D01*
X25159775Y-1451627D01*
X25050677Y-1495705D01*
X24960788Y-1554528D01*
X24917216Y-1488948D01*
X24834305Y-1405455D01*
X24736755Y-1339657D01*
X24628283Y-1294060D01*
X24513021Y-1270400D01*
X24395357Y-1269578D01*
X24279775Y-1291627D01*
X24170677Y-1335705D01*
X24072219Y-1400135D01*
X24019970Y-1451300D01*
X23994305Y-1425455D01*
X23896755Y-1359657D01*
X23788283Y-1314060D01*
X23673021Y-1290400D01*
X23555357Y-1289578D01*
X23439775Y-1311627D01*
X23330677Y-1355705D01*
X23232219Y-1420135D01*
X23148150Y-1502461D01*
X23081672Y-1599549D01*
X23035318Y-1707700D01*
X23010854Y-1822795D01*
X23009211Y-1940450D01*
X22277951Y-1940450D01*
X22288149Y-1895564D01*
X22290026Y-1761167D01*
X22267171Y-1645742D01*
X22222332Y-1536954D01*
X22157216Y-1438948D01*
X22074305Y-1355455D01*
X21976755Y-1289657D01*
X21868283Y-1244060D01*
X21753021Y-1220400D01*
X21635357Y-1219578D01*
X21519775Y-1241627D01*
X21410677Y-1285705D01*
X21312219Y-1350135D01*
X21228150Y-1432461D01*
X21161672Y-1529549D01*
X21115318Y-1637700D01*
X21090854Y-1752795D01*
X21089211Y-1870450D01*
X15783947Y-1870450D01*
X16130024Y-1745478D01*
X17422834Y-1397414D01*
X18916221Y-1098736D01*
X20458417Y-899743D01*
X21701997Y-850000D01*
X22498349Y-850000D01*
X23994159Y-899860D01*
M02*
