M48
;DRILL file {KiCad (2015-09-17 BZR 6202)-product} date 2015 September 30, Wednesday 13:53:40
;FORMAT={-:-/ absolute / metric / decimal}
FMAT,2
METRIC,TZ
T1C0.400
T2C0.500
T3C0.900
%
G90
G05
M71
T1
X1.22Y-18.48
X1.94Y-28.06
X3.43Y-15.69
X3.72Y-29.82
X4.3Y-28.1
X4.47Y-31.54
X5.95Y-28.77
X6.01Y-18.37
X6.11Y-14.04
X6.28Y-32.32
X6.37Y-12.63
X6.74Y-30.52
X6.75Y-7.51
X6.89Y-10.08
X6.97Y-15.81
X7.Y-11.52
X7.03Y-21.36
X7.29Y-12.44
X7.94Y-35.91
X8.02Y-26.88
X8.48Y-8.52
X8.6Y-28.54
X8.83Y-35.04
X9.01Y-11.24
X9.38Y-19.13
X9.48Y-27.18
X9.67Y-14.45
X9.73Y-13.08
X9.74Y-4.83
X9.76Y-6.64
X10.37Y-12.34
X10.72Y-6.63
X11.02Y-5.6
X11.62Y-10.66
X13.21Y-9.39
X13.22Y-7.24
X14.02Y-4.6
X14.31Y-10.77
X14.6Y-34.
X15.86Y-8.09
X16.02Y-7.3
X16.52Y-1.49
X16.63Y-9.53
X16.72Y-5.29
X16.8Y-8.32
X16.93Y-6.38
X17.7Y-6.2
X18.3Y-6.7
X18.36Y-9.58
X18.4Y-5.9
X19.24Y-2.526
X19.56Y-9.15
X21.5Y-4.5
X21.5Y-6.5
X21.59Y-1.48
X22.5Y-5.5
X22.8Y-1.33
X23.5Y-4.5
X23.5Y-6.5
X23.91Y-1.47
X24.38Y-0.82
X24.74Y-1.52
X25.44Y-8.46
X25.73Y-2.42
X26.05Y-9.39
X26.4Y-1.94
X26.46Y-8.15
X26.49Y-7.12
X27.16Y-8.48
X27.5Y-1.88
X28.49Y-8.57
X29.24Y-5.44
T2
X19.96Y-39.865
X19.96Y-41.135
X21.23Y-39.865
X21.23Y-41.135
X22.5Y-39.865
X22.5Y-41.135
X23.77Y-39.865
X23.77Y-41.135
X25.04Y-39.865
X25.04Y-41.135
T3
X13.Y-13.
X13.Y-32.
X32.Y-13.
X32.Y-32.
T0
M30
