G04 #@! TF.FileFunction,Copper,L4,Bot,Signal*
%FSLAX46Y46*%
G04 Gerber Fmt 4.6, Leading zero omitted, Abs format (unit mm)*
G04 Created by KiCad (PCBNEW (2015-09-17 BZR 6202)-product) date 2015 September 30, Wednesday 13:53:37*
%MOMM*%
G01*
G04 APERTURE LIST*
%ADD10C,0.100000*%
%ADD11C,0.010000*%
%ADD12C,1.000000*%
%ADD13C,1.300000*%
%ADD14R,0.800000X0.800000*%
%ADD15C,0.600000*%
%ADD16C,0.150000*%
%ADD17C,0.200000*%
G04 APERTURE END LIST*
D10*
D11*
X45000000Y-22500000D02*
G75*
G03X45000000Y-22500000I-22500000J0D01*
G01*
X34750000Y-22500000D02*
G75*
G03X34750000Y-22500000I-12250000J0D01*
G01*
D10*
G36*
X13982532Y-5162565D02*
X14382532Y-5855385D01*
X12217468Y-7105385D01*
X11817468Y-6412565D01*
X13982532Y-5162565D01*
X13982532Y-5162565D01*
G37*
G36*
X14982532Y-6894615D02*
X15382532Y-7587435D01*
X13217468Y-8837435D01*
X12817468Y-8144615D01*
X14982532Y-6894615D01*
X14982532Y-6894615D01*
G37*
G36*
X11918878Y-5831506D02*
X11668878Y-5398494D01*
X12188494Y-5098494D01*
X12438494Y-5531506D01*
X11918878Y-5831506D01*
X11918878Y-5831506D01*
G37*
G36*
X12871506Y-5281506D02*
X12621506Y-4848494D01*
X13141122Y-4548494D01*
X13391122Y-4981506D01*
X12871506Y-5281506D01*
X12871506Y-5281506D01*
G37*
G36*
X14048878Y-9471506D02*
X13798878Y-9038494D01*
X14318494Y-8738494D01*
X14568494Y-9171506D01*
X14048878Y-9471506D01*
X14048878Y-9471506D01*
G37*
G36*
X15001506Y-8921506D02*
X14751506Y-8488494D01*
X15271122Y-8188494D01*
X15521122Y-8621506D01*
X15001506Y-8921506D01*
X15001506Y-8921506D01*
G37*
D12*
X19500000Y-4400000D03*
X19500000Y-6600000D03*
X24200000Y-2500000D03*
X25500000Y-3700000D03*
D13*
X32000000Y-13000000D03*
X13000000Y-32000000D03*
X32000000Y-32000000D03*
X13000000Y-13000000D03*
D14*
X19960000Y-41135000D03*
X19960000Y-39865000D03*
X21230000Y-41135000D03*
X21230000Y-39865000D03*
X22500000Y-41135000D03*
X22500000Y-39865000D03*
X23770000Y-41135000D03*
X23770000Y-39865000D03*
X25040000Y-41135000D03*
X25040000Y-39865000D03*
D15*
X6740000Y-30520000D03*
X4470000Y-31540000D03*
X6280000Y-32320000D03*
X9670000Y-14450000D03*
X16800000Y-8320000D03*
X14310000Y-10770000D03*
X9010000Y-11240000D03*
X3430000Y-15690000D03*
X1940000Y-28060000D03*
X8830000Y-35040000D03*
X27160000Y-8480000D03*
X14020000Y-4600000D03*
X19240141Y-2525795D03*
X26400000Y-1940000D03*
X5950000Y-28770000D03*
X4300000Y-28100000D03*
X3720000Y-29820000D03*
X9730000Y-13080000D03*
X13210000Y-9390000D03*
X16630000Y-9530000D03*
X27500000Y-1880000D03*
X24380000Y-820000D03*
X11020000Y-5600000D03*
X8480000Y-8520000D03*
X11620000Y-10660000D03*
X6010000Y-18370000D03*
X1220000Y-18480000D03*
X7940000Y-35910000D03*
X16520000Y-1490000D03*
X29240000Y-5440000D03*
X28490000Y-8570000D03*
X23500000Y-6500000D03*
X21500000Y-6500000D03*
X23500000Y-4500000D03*
X21500000Y-4500000D03*
X22500000Y-5500000D03*
X16020000Y-7300000D03*
X15860000Y-8090000D03*
X26490000Y-7120000D03*
X26460000Y-8150000D03*
X9480000Y-27180000D03*
X26050000Y-9390000D03*
X14600000Y-34000000D03*
X8020000Y-26880000D03*
X25440000Y-8460000D03*
X9380000Y-19130000D03*
X18400000Y-5900000D03*
X18300000Y-6700000D03*
X10370000Y-12340000D03*
X18360000Y-9580000D03*
X7030000Y-21360000D03*
X19560000Y-9150000D03*
X7290000Y-12440000D03*
X6750000Y-7510000D03*
X17700000Y-6200000D03*
X6970000Y-15810000D03*
X16930000Y-6380000D03*
X13220000Y-7240000D03*
X16720000Y-5290000D03*
X6890000Y-10080000D03*
X10720000Y-6630000D03*
X25730000Y-2420000D03*
X7000000Y-11520000D03*
X9740000Y-4830000D03*
X22800000Y-1330000D03*
X6110000Y-14040000D03*
X9760000Y-6640000D03*
X21590000Y-1480000D03*
X6370000Y-12630000D03*
X23910000Y-1470000D03*
X24740000Y-1520000D03*
X8600000Y-28540000D03*
D16*
X19240141Y-2525795D02*
X19240000Y-2520000D01*
X13006314Y-4915000D02*
X13100000Y-6133975D01*
X14680000Y-5230000D02*
X13100000Y-6133975D01*
X16020000Y-7300000D02*
X14680000Y-5230000D01*
X14183686Y-9105000D02*
X14100000Y-7866025D01*
X15220000Y-7700000D02*
X14100000Y-7866025D01*
X15860000Y-8090000D02*
X15220000Y-7700000D01*
X19500000Y-4400000D02*
X19500000Y-5200000D01*
X18400000Y-5900000D02*
X18900000Y-5900000D01*
X18900000Y-5900000D02*
X19500000Y-5200000D01*
X19500000Y-6600000D02*
X18300000Y-6700000D01*
X16340000Y-10400000D02*
X14660000Y-11580000D01*
X14660000Y-11580000D02*
X12470000Y-11030000D01*
X12470000Y-11030000D02*
X10990000Y-12810000D01*
X10990000Y-12810000D02*
X10370000Y-12340000D01*
X18360000Y-9580000D02*
X16340000Y-10400000D01*
X7290000Y-12440000D02*
X9830000Y-13880000D01*
X18730000Y-10170000D02*
X19560000Y-9150000D01*
X16420000Y-11160000D02*
X18730000Y-10170000D01*
X14680000Y-12310000D02*
X16420000Y-11160000D01*
X12730000Y-11680000D02*
X14680000Y-12310000D01*
X10950000Y-13740000D02*
X12730000Y-11680000D01*
X9830000Y-13880000D02*
X10950000Y-13740000D01*
X10192799Y-5156212D02*
X10192799Y-5156211D01*
X9740000Y-4830000D02*
X10192799Y-5156212D01*
X20870000Y-1260000D02*
X19220000Y-1440000D01*
X22500000Y-940000D02*
X21390000Y-940000D01*
X21390000Y-940000D02*
X20870000Y-1260000D01*
X22800000Y-1330000D02*
X22500000Y-940000D01*
X5140000Y-10110000D02*
X6110000Y-14040000D01*
X8060000Y-6840000D02*
X5140000Y-10110000D01*
X10530000Y-4890000D02*
X10192799Y-5156211D01*
X10192799Y-5156211D02*
X8060000Y-6840000D01*
X13250000Y-3300000D02*
X10530000Y-4890000D01*
X16390000Y-2070000D02*
X13250000Y-3300000D01*
X19220000Y-1440000D02*
X16390000Y-2070000D01*
X9369033Y-6206082D02*
X9760000Y-6640000D01*
X21590000Y-1480000D02*
X19270000Y-1760000D01*
X5520000Y-10160000D02*
X6370000Y-12630000D01*
X8260000Y-7080000D02*
X5520000Y-10160000D01*
X10760000Y-5110000D02*
X9369033Y-6206082D01*
X9369033Y-6206082D02*
X8260000Y-7080000D01*
X13410000Y-3570000D02*
X10760000Y-5110000D01*
X16520000Y-2360000D02*
X13410000Y-3570000D01*
X19270000Y-1760000D02*
X16520000Y-2360000D01*
X23910000Y-1470000D02*
X24200000Y-2500000D01*
X25080000Y-3190000D02*
X25500000Y-3700000D01*
X25060000Y-2000000D02*
X25080000Y-3190000D01*
X24740000Y-1520000D02*
X25060000Y-2000000D01*
D17*
G36*
X27924570Y-38900000D02*
X17075430Y-38900000D01*
X16132573Y-35600000D01*
X28867427Y-35600000D01*
X27924570Y-38900000D01*
X27924570Y-38900000D01*
G37*
X27924570Y-38900000D02*
X17075430Y-38900000D01*
X16132573Y-35600000D01*
X28867427Y-35600000D01*
X27924570Y-38900000D01*
G36*
X6170452Y-7676183D02*
X6213768Y-7785586D01*
X6277509Y-7884492D01*
X6359247Y-7969134D01*
X6455868Y-8036287D01*
X6479706Y-8046702D01*
X4860289Y-9860227D01*
X4840964Y-9886666D01*
X4821067Y-9912751D01*
X4819370Y-9916210D01*
X4817101Y-9919314D01*
X4803277Y-9949009D01*
X4788829Y-9978455D01*
X4787837Y-9982175D01*
X4786213Y-9985663D01*
X4778419Y-10017480D01*
X4769966Y-10049170D01*
X4769715Y-10053013D01*
X4768800Y-10056749D01*
X4767333Y-10089504D01*
X4765199Y-10122201D01*
X4765698Y-10126013D01*
X4765526Y-10129863D01*
X4770451Y-10162288D01*
X4774707Y-10194768D01*
X4775926Y-10199861D01*
X5633408Y-13673990D01*
X5581672Y-13749549D01*
X5535318Y-13857700D01*
X5510854Y-13972795D01*
X5509211Y-14090450D01*
X5530452Y-14206183D01*
X5573768Y-14315586D01*
X5637509Y-14414492D01*
X5719247Y-14499134D01*
X5815868Y-14566287D01*
X5923693Y-14613395D01*
X6038614Y-14638662D01*
X6156254Y-14641126D01*
X6272133Y-14620694D01*
X6381835Y-14578143D01*
X6481184Y-14515094D01*
X6566395Y-14433949D01*
X6634221Y-14337799D01*
X6682080Y-14230306D01*
X6708149Y-14115564D01*
X6710026Y-13981167D01*
X6687171Y-13865742D01*
X6642332Y-13756954D01*
X6577216Y-13658948D01*
X6494305Y-13575455D01*
X6396755Y-13509657D01*
X6361719Y-13494929D01*
X6295849Y-13228054D01*
X6298614Y-13228662D01*
X6416254Y-13231126D01*
X6532133Y-13210694D01*
X6641835Y-13168143D01*
X6741184Y-13105094D01*
X6826395Y-13023949D01*
X6894221Y-12927799D01*
X6905155Y-12903240D01*
X6995868Y-12966287D01*
X7103693Y-13013395D01*
X7218614Y-13038662D01*
X7336254Y-13041126D01*
X7452133Y-13020694D01*
X7512568Y-12997253D01*
X9275369Y-13996636D01*
X9208150Y-14062461D01*
X9141672Y-14159549D01*
X9095318Y-14267700D01*
X9070854Y-14382795D01*
X9069211Y-14500450D01*
X9090452Y-14616183D01*
X9133768Y-14725586D01*
X9197509Y-14824492D01*
X9279247Y-14909134D01*
X9375868Y-14976287D01*
X9483693Y-15023395D01*
X9598614Y-15048662D01*
X9716254Y-15051126D01*
X9832133Y-15030694D01*
X9941835Y-14988143D01*
X10041184Y-14925094D01*
X10126395Y-14843949D01*
X10194221Y-14747799D01*
X10242080Y-14640306D01*
X10268149Y-14525564D01*
X10270026Y-14391167D01*
X10247171Y-14275742D01*
X10219745Y-14209200D01*
X10996513Y-14112104D01*
X11020901Y-14106597D01*
X11045605Y-14102609D01*
X11056538Y-14098549D01*
X11067903Y-14095983D01*
X11090757Y-14085844D01*
X11114216Y-14077133D01*
X11124150Y-14071028D01*
X11134801Y-14066303D01*
X11155254Y-14051915D01*
X11176570Y-14038816D01*
X11185128Y-14030899D01*
X11194661Y-14024193D01*
X11211937Y-14006099D01*
X11230295Y-13989117D01*
X11233747Y-13985179D01*
X12050601Y-13039831D01*
X12057951Y-13154267D01*
X12106148Y-13335088D01*
X12188695Y-13503032D01*
X12224787Y-13557045D01*
X12374505Y-13618424D01*
X12992929Y-13000000D01*
X12978787Y-12985858D01*
X12985858Y-12978787D01*
X13000000Y-12992929D01*
X13014143Y-12978787D01*
X13021214Y-12985858D01*
X13007071Y-13000000D01*
X13021214Y-13014143D01*
X13014143Y-13021214D01*
X13000000Y-13007071D01*
X12381576Y-13625495D01*
X12442955Y-13775213D01*
X12604894Y-13868992D01*
X12782018Y-13929375D01*
X12967518Y-13954044D01*
X13154267Y-13942049D01*
X13335088Y-13893852D01*
X13404260Y-13859853D01*
X11946686Y-15698853D01*
X10826656Y-17878196D01*
X10151260Y-20233582D01*
X9946224Y-22675295D01*
X10219357Y-25110331D01*
X10960256Y-27445941D01*
X12140700Y-29593161D01*
X13457829Y-31162853D01*
X13454029Y-31160290D01*
X13282282Y-31088094D01*
X13099783Y-31050632D01*
X12913482Y-31049332D01*
X12730478Y-31084242D01*
X12557739Y-31154033D01*
X12401846Y-31256046D01*
X12268736Y-31386397D01*
X12163480Y-31540119D01*
X12090087Y-31711359D01*
X12051352Y-31893592D01*
X12048751Y-32079879D01*
X12082382Y-32263123D01*
X12150966Y-32436344D01*
X12251889Y-32592946D01*
X12258641Y-32599937D01*
X6753792Y-38104786D01*
X6534253Y-37917943D01*
X4293210Y-35090450D01*
X8229211Y-35090450D01*
X8250452Y-35206183D01*
X8293768Y-35315586D01*
X8357509Y-35414492D01*
X8439247Y-35499134D01*
X8535868Y-35566287D01*
X8643693Y-35613395D01*
X8758614Y-35638662D01*
X8876254Y-35641126D01*
X8992133Y-35620694D01*
X9101835Y-35578143D01*
X9201184Y-35515094D01*
X9286395Y-35433949D01*
X9354221Y-35337799D01*
X9402080Y-35230306D01*
X9428149Y-35115564D01*
X9430026Y-34981167D01*
X9407171Y-34865742D01*
X9362332Y-34756954D01*
X9297216Y-34658948D01*
X9214305Y-34575455D01*
X9116755Y-34509657D01*
X9008283Y-34464060D01*
X8893021Y-34440400D01*
X8775357Y-34439578D01*
X8659775Y-34461627D01*
X8550677Y-34505705D01*
X8452219Y-34570135D01*
X8368150Y-34652461D01*
X8301672Y-34749549D01*
X8255318Y-34857700D01*
X8230854Y-34972795D01*
X8229211Y-35090450D01*
X4293210Y-35090450D01*
X3843624Y-34523214D01*
X2737255Y-32370450D01*
X5679211Y-32370450D01*
X5700452Y-32486183D01*
X5743768Y-32595586D01*
X5807509Y-32694492D01*
X5889247Y-32779134D01*
X5985868Y-32846287D01*
X6093693Y-32893395D01*
X6208614Y-32918662D01*
X6326254Y-32921126D01*
X6442133Y-32900694D01*
X6551835Y-32858143D01*
X6651184Y-32795094D01*
X6736395Y-32713949D01*
X6804221Y-32617799D01*
X6852080Y-32510306D01*
X6878149Y-32395564D01*
X6880026Y-32261167D01*
X6857171Y-32145742D01*
X6812332Y-32036954D01*
X6747216Y-31938948D01*
X6664305Y-31855455D01*
X6566755Y-31789657D01*
X6458283Y-31744060D01*
X6343021Y-31720400D01*
X6225357Y-31719578D01*
X6109775Y-31741627D01*
X6000677Y-31785705D01*
X5902219Y-31850135D01*
X5818150Y-31932461D01*
X5751672Y-32029549D01*
X5705318Y-32137700D01*
X5680854Y-32252795D01*
X5679211Y-32370450D01*
X2737255Y-32370450D01*
X2336389Y-31590450D01*
X3869211Y-31590450D01*
X3890452Y-31706183D01*
X3933768Y-31815586D01*
X3997509Y-31914492D01*
X4079247Y-31999134D01*
X4175868Y-32066287D01*
X4283693Y-32113395D01*
X4398614Y-32138662D01*
X4516254Y-32141126D01*
X4632133Y-32120694D01*
X4741835Y-32078143D01*
X4841184Y-32015094D01*
X4926395Y-31933949D01*
X4994221Y-31837799D01*
X5042080Y-31730306D01*
X5068149Y-31615564D01*
X5070026Y-31481167D01*
X5047171Y-31365742D01*
X5002332Y-31256954D01*
X4937216Y-31158948D01*
X4854305Y-31075455D01*
X4756755Y-31009657D01*
X4648283Y-30964060D01*
X4533021Y-30940400D01*
X4415357Y-30939578D01*
X4299775Y-30961627D01*
X4190677Y-31005705D01*
X4092219Y-31070135D01*
X4008150Y-31152461D01*
X3941672Y-31249549D01*
X3895318Y-31357700D01*
X3870854Y-31472795D01*
X3869211Y-31590450D01*
X2336389Y-31590450D01*
X1863611Y-30670524D01*
X1834916Y-30570450D01*
X6139211Y-30570450D01*
X6160452Y-30686183D01*
X6203768Y-30795586D01*
X6267509Y-30894492D01*
X6349247Y-30979134D01*
X6445868Y-31046287D01*
X6553693Y-31093395D01*
X6668614Y-31118662D01*
X6786254Y-31121126D01*
X6902133Y-31100694D01*
X7011835Y-31058143D01*
X7111184Y-30995094D01*
X7196395Y-30913949D01*
X7264221Y-30817799D01*
X7312080Y-30710306D01*
X7338149Y-30595564D01*
X7340026Y-30461167D01*
X7317171Y-30345742D01*
X7272332Y-30236954D01*
X7207216Y-30138948D01*
X7124305Y-30055455D01*
X7026755Y-29989657D01*
X6918283Y-29944060D01*
X6803021Y-29920400D01*
X6685357Y-29919578D01*
X6569775Y-29941627D01*
X6460677Y-29985705D01*
X6362219Y-30050135D01*
X6278150Y-30132461D01*
X6211672Y-30229549D01*
X6165318Y-30337700D01*
X6140854Y-30452795D01*
X6139211Y-30570450D01*
X1834916Y-30570450D01*
X1129522Y-28110450D01*
X1339211Y-28110450D01*
X1360452Y-28226183D01*
X1403768Y-28335586D01*
X1467509Y-28434492D01*
X1549247Y-28519134D01*
X1645868Y-28586287D01*
X1753693Y-28633395D01*
X1868614Y-28658662D01*
X1986254Y-28661126D01*
X2102133Y-28640694D01*
X2211835Y-28598143D01*
X2223957Y-28590450D01*
X7999211Y-28590450D01*
X8020452Y-28706183D01*
X8063768Y-28815586D01*
X8127509Y-28914492D01*
X8209247Y-28999134D01*
X8305868Y-29066287D01*
X8413693Y-29113395D01*
X8528614Y-29138662D01*
X8646254Y-29141126D01*
X8762133Y-29120694D01*
X8871835Y-29078143D01*
X8971184Y-29015094D01*
X9056395Y-28933949D01*
X9124221Y-28837799D01*
X9172080Y-28730306D01*
X9198149Y-28615564D01*
X9200026Y-28481167D01*
X9177171Y-28365742D01*
X9132332Y-28256954D01*
X9067216Y-28158948D01*
X8984305Y-28075455D01*
X8886755Y-28009657D01*
X8778283Y-27964060D01*
X8663021Y-27940400D01*
X8545357Y-27939578D01*
X8429775Y-27961627D01*
X8320677Y-28005705D01*
X8222219Y-28070135D01*
X8138150Y-28152461D01*
X8071672Y-28249549D01*
X8025318Y-28357700D01*
X8000854Y-28472795D01*
X7999211Y-28590450D01*
X2223957Y-28590450D01*
X2311184Y-28535094D01*
X2396395Y-28453949D01*
X2464221Y-28357799D01*
X2512080Y-28250306D01*
X2538149Y-28135564D01*
X2540026Y-28001167D01*
X2517171Y-27885742D01*
X2472332Y-27776954D01*
X2407216Y-27678948D01*
X2324305Y-27595455D01*
X2226755Y-27529657D01*
X2118283Y-27484060D01*
X2003021Y-27460400D01*
X1885357Y-27459578D01*
X1769775Y-27481627D01*
X1660677Y-27525705D01*
X1562219Y-27590135D01*
X1478150Y-27672461D01*
X1411672Y-27769549D01*
X1365318Y-27877700D01*
X1340854Y-27992795D01*
X1339211Y-28110450D01*
X1129522Y-28110450D01*
X791162Y-26930450D01*
X7419211Y-26930450D01*
X7440452Y-27046183D01*
X7483768Y-27155586D01*
X7547509Y-27254492D01*
X7629247Y-27339134D01*
X7725868Y-27406287D01*
X7833693Y-27453395D01*
X7948614Y-27478662D01*
X8066254Y-27481126D01*
X8182133Y-27460694D01*
X8291835Y-27418143D01*
X8391184Y-27355094D01*
X8476395Y-27273949D01*
X8507080Y-27230450D01*
X8879211Y-27230450D01*
X8900452Y-27346183D01*
X8943768Y-27455586D01*
X9007509Y-27554492D01*
X9089247Y-27639134D01*
X9185868Y-27706287D01*
X9293693Y-27753395D01*
X9408614Y-27778662D01*
X9526254Y-27781126D01*
X9642133Y-27760694D01*
X9751835Y-27718143D01*
X9851184Y-27655094D01*
X9936395Y-27573949D01*
X10004221Y-27477799D01*
X10052080Y-27370306D01*
X10078149Y-27255564D01*
X10080026Y-27121167D01*
X10057171Y-27005742D01*
X10012332Y-26896954D01*
X9947216Y-26798948D01*
X9864305Y-26715455D01*
X9766755Y-26649657D01*
X9658283Y-26604060D01*
X9543021Y-26580400D01*
X9425357Y-26579578D01*
X9309775Y-26601627D01*
X9200677Y-26645705D01*
X9102219Y-26710135D01*
X9018150Y-26792461D01*
X8951672Y-26889549D01*
X8905318Y-26997700D01*
X8880854Y-27112795D01*
X8879211Y-27230450D01*
X8507080Y-27230450D01*
X8544221Y-27177799D01*
X8592080Y-27070306D01*
X8618149Y-26955564D01*
X8620026Y-26821167D01*
X8597171Y-26705742D01*
X8552332Y-26596954D01*
X8487216Y-26498948D01*
X8404305Y-26415455D01*
X8306755Y-26349657D01*
X8198283Y-26304060D01*
X8083021Y-26280400D01*
X7965357Y-26279578D01*
X7849775Y-26301627D01*
X7740677Y-26345705D01*
X7642219Y-26410135D01*
X7558150Y-26492461D01*
X7491672Y-26589549D01*
X7445318Y-26697700D01*
X7420854Y-26812795D01*
X7419211Y-26930450D01*
X791162Y-26930450D01*
X669631Y-26506622D01*
X307163Y-22190109D01*
X394615Y-21410450D01*
X6429211Y-21410450D01*
X6450452Y-21526183D01*
X6493768Y-21635586D01*
X6557509Y-21734492D01*
X6639247Y-21819134D01*
X6735868Y-21886287D01*
X6843693Y-21933395D01*
X6958614Y-21958662D01*
X7076254Y-21961126D01*
X7192133Y-21940694D01*
X7301835Y-21898143D01*
X7401184Y-21835094D01*
X7486395Y-21753949D01*
X7554221Y-21657799D01*
X7602080Y-21550306D01*
X7628149Y-21435564D01*
X7630026Y-21301167D01*
X7607171Y-21185742D01*
X7562332Y-21076954D01*
X7497216Y-20978948D01*
X7414305Y-20895455D01*
X7316755Y-20829657D01*
X7208283Y-20784060D01*
X7093021Y-20760400D01*
X6975357Y-20759578D01*
X6859775Y-20781627D01*
X6750677Y-20825705D01*
X6652219Y-20890135D01*
X6568150Y-20972461D01*
X6501672Y-21069549D01*
X6455318Y-21177700D01*
X6430854Y-21292795D01*
X6429211Y-21410450D01*
X394615Y-21410450D01*
X644750Y-19180450D01*
X8779211Y-19180450D01*
X8800452Y-19296183D01*
X8843768Y-19405586D01*
X8907509Y-19504492D01*
X8989247Y-19589134D01*
X9085868Y-19656287D01*
X9193693Y-19703395D01*
X9308614Y-19728662D01*
X9426254Y-19731126D01*
X9542133Y-19710694D01*
X9651835Y-19668143D01*
X9751184Y-19605094D01*
X9836395Y-19523949D01*
X9904221Y-19427799D01*
X9952080Y-19320306D01*
X9978149Y-19205564D01*
X9980026Y-19071167D01*
X9957171Y-18955742D01*
X9912332Y-18846954D01*
X9847216Y-18748948D01*
X9764305Y-18665455D01*
X9666755Y-18599657D01*
X9558283Y-18554060D01*
X9443021Y-18530400D01*
X9325357Y-18529578D01*
X9209775Y-18551627D01*
X9100677Y-18595705D01*
X9002219Y-18660135D01*
X8918150Y-18742461D01*
X8851672Y-18839549D01*
X8805318Y-18947700D01*
X8780854Y-19062795D01*
X8779211Y-19180450D01*
X644750Y-19180450D01*
X790014Y-17885400D01*
X1470432Y-15740450D01*
X2829211Y-15740450D01*
X2850452Y-15856183D01*
X2893768Y-15965586D01*
X2957509Y-16064492D01*
X3039247Y-16149134D01*
X3135868Y-16216287D01*
X3243693Y-16263395D01*
X3358614Y-16288662D01*
X3476254Y-16291126D01*
X3592133Y-16270694D01*
X3701835Y-16228143D01*
X3801184Y-16165094D01*
X3886395Y-16083949D01*
X3954221Y-15987799D01*
X4002080Y-15880306D01*
X4006591Y-15860450D01*
X6369211Y-15860450D01*
X6390452Y-15976183D01*
X6433768Y-16085586D01*
X6497509Y-16184492D01*
X6579247Y-16269134D01*
X6675868Y-16336287D01*
X6783693Y-16383395D01*
X6898614Y-16408662D01*
X7016254Y-16411126D01*
X7132133Y-16390694D01*
X7241835Y-16348143D01*
X7341184Y-16285094D01*
X7426395Y-16203949D01*
X7494221Y-16107799D01*
X7542080Y-16000306D01*
X7568149Y-15885564D01*
X7570026Y-15751167D01*
X7547171Y-15635742D01*
X7502332Y-15526954D01*
X7437216Y-15428948D01*
X7354305Y-15345455D01*
X7256755Y-15279657D01*
X7148283Y-15234060D01*
X7033021Y-15210400D01*
X6915357Y-15209578D01*
X6799775Y-15231627D01*
X6690677Y-15275705D01*
X6592219Y-15340135D01*
X6508150Y-15422461D01*
X6441672Y-15519549D01*
X6395318Y-15627700D01*
X6370854Y-15742795D01*
X6369211Y-15860450D01*
X4006591Y-15860450D01*
X4028149Y-15765564D01*
X4030026Y-15631167D01*
X4007171Y-15515742D01*
X3962332Y-15406954D01*
X3897216Y-15308948D01*
X3814305Y-15225455D01*
X3716755Y-15159657D01*
X3608283Y-15114060D01*
X3493021Y-15090400D01*
X3375357Y-15089578D01*
X3259775Y-15111627D01*
X3150677Y-15155705D01*
X3052219Y-15220135D01*
X2968150Y-15302461D01*
X2901672Y-15399549D01*
X2855318Y-15507700D01*
X2830854Y-15622795D01*
X2829211Y-15740450D01*
X1470432Y-15740450D01*
X2099791Y-13756459D01*
X4186606Y-9960557D01*
X6158422Y-7610638D01*
X6170452Y-7676183D01*
X6170452Y-7676183D01*
G37*
X6170452Y-7676183D02*
X6213768Y-7785586D01*
X6277509Y-7884492D01*
X6359247Y-7969134D01*
X6455868Y-8036287D01*
X6479706Y-8046702D01*
X4860289Y-9860227D01*
X4840964Y-9886666D01*
X4821067Y-9912751D01*
X4819370Y-9916210D01*
X4817101Y-9919314D01*
X4803277Y-9949009D01*
X4788829Y-9978455D01*
X4787837Y-9982175D01*
X4786213Y-9985663D01*
X4778419Y-10017480D01*
X4769966Y-10049170D01*
X4769715Y-10053013D01*
X4768800Y-10056749D01*
X4767333Y-10089504D01*
X4765199Y-10122201D01*
X4765698Y-10126013D01*
X4765526Y-10129863D01*
X4770451Y-10162288D01*
X4774707Y-10194768D01*
X4775926Y-10199861D01*
X5633408Y-13673990D01*
X5581672Y-13749549D01*
X5535318Y-13857700D01*
X5510854Y-13972795D01*
X5509211Y-14090450D01*
X5530452Y-14206183D01*
X5573768Y-14315586D01*
X5637509Y-14414492D01*
X5719247Y-14499134D01*
X5815868Y-14566287D01*
X5923693Y-14613395D01*
X6038614Y-14638662D01*
X6156254Y-14641126D01*
X6272133Y-14620694D01*
X6381835Y-14578143D01*
X6481184Y-14515094D01*
X6566395Y-14433949D01*
X6634221Y-14337799D01*
X6682080Y-14230306D01*
X6708149Y-14115564D01*
X6710026Y-13981167D01*
X6687171Y-13865742D01*
X6642332Y-13756954D01*
X6577216Y-13658948D01*
X6494305Y-13575455D01*
X6396755Y-13509657D01*
X6361719Y-13494929D01*
X6295849Y-13228054D01*
X6298614Y-13228662D01*
X6416254Y-13231126D01*
X6532133Y-13210694D01*
X6641835Y-13168143D01*
X6741184Y-13105094D01*
X6826395Y-13023949D01*
X6894221Y-12927799D01*
X6905155Y-12903240D01*
X6995868Y-12966287D01*
X7103693Y-13013395D01*
X7218614Y-13038662D01*
X7336254Y-13041126D01*
X7452133Y-13020694D01*
X7512568Y-12997253D01*
X9275369Y-13996636D01*
X9208150Y-14062461D01*
X9141672Y-14159549D01*
X9095318Y-14267700D01*
X9070854Y-14382795D01*
X9069211Y-14500450D01*
X9090452Y-14616183D01*
X9133768Y-14725586D01*
X9197509Y-14824492D01*
X9279247Y-14909134D01*
X9375868Y-14976287D01*
X9483693Y-15023395D01*
X9598614Y-15048662D01*
X9716254Y-15051126D01*
X9832133Y-15030694D01*
X9941835Y-14988143D01*
X10041184Y-14925094D01*
X10126395Y-14843949D01*
X10194221Y-14747799D01*
X10242080Y-14640306D01*
X10268149Y-14525564D01*
X10270026Y-14391167D01*
X10247171Y-14275742D01*
X10219745Y-14209200D01*
X10996513Y-14112104D01*
X11020901Y-14106597D01*
X11045605Y-14102609D01*
X11056538Y-14098549D01*
X11067903Y-14095983D01*
X11090757Y-14085844D01*
X11114216Y-14077133D01*
X11124150Y-14071028D01*
X11134801Y-14066303D01*
X11155254Y-14051915D01*
X11176570Y-14038816D01*
X11185128Y-14030899D01*
X11194661Y-14024193D01*
X11211937Y-14006099D01*
X11230295Y-13989117D01*
X11233747Y-13985179D01*
X12050601Y-13039831D01*
X12057951Y-13154267D01*
X12106148Y-13335088D01*
X12188695Y-13503032D01*
X12224787Y-13557045D01*
X12374505Y-13618424D01*
X12992929Y-13000000D01*
X12978787Y-12985858D01*
X12985858Y-12978787D01*
X13000000Y-12992929D01*
X13014143Y-12978787D01*
X13021214Y-12985858D01*
X13007071Y-13000000D01*
X13021214Y-13014143D01*
X13014143Y-13021214D01*
X13000000Y-13007071D01*
X12381576Y-13625495D01*
X12442955Y-13775213D01*
X12604894Y-13868992D01*
X12782018Y-13929375D01*
X12967518Y-13954044D01*
X13154267Y-13942049D01*
X13335088Y-13893852D01*
X13404260Y-13859853D01*
X11946686Y-15698853D01*
X10826656Y-17878196D01*
X10151260Y-20233582D01*
X9946224Y-22675295D01*
X10219357Y-25110331D01*
X10960256Y-27445941D01*
X12140700Y-29593161D01*
X13457829Y-31162853D01*
X13454029Y-31160290D01*
X13282282Y-31088094D01*
X13099783Y-31050632D01*
X12913482Y-31049332D01*
X12730478Y-31084242D01*
X12557739Y-31154033D01*
X12401846Y-31256046D01*
X12268736Y-31386397D01*
X12163480Y-31540119D01*
X12090087Y-31711359D01*
X12051352Y-31893592D01*
X12048751Y-32079879D01*
X12082382Y-32263123D01*
X12150966Y-32436344D01*
X12251889Y-32592946D01*
X12258641Y-32599937D01*
X6753792Y-38104786D01*
X6534253Y-37917943D01*
X4293210Y-35090450D01*
X8229211Y-35090450D01*
X8250452Y-35206183D01*
X8293768Y-35315586D01*
X8357509Y-35414492D01*
X8439247Y-35499134D01*
X8535868Y-35566287D01*
X8643693Y-35613395D01*
X8758614Y-35638662D01*
X8876254Y-35641126D01*
X8992133Y-35620694D01*
X9101835Y-35578143D01*
X9201184Y-35515094D01*
X9286395Y-35433949D01*
X9354221Y-35337799D01*
X9402080Y-35230306D01*
X9428149Y-35115564D01*
X9430026Y-34981167D01*
X9407171Y-34865742D01*
X9362332Y-34756954D01*
X9297216Y-34658948D01*
X9214305Y-34575455D01*
X9116755Y-34509657D01*
X9008283Y-34464060D01*
X8893021Y-34440400D01*
X8775357Y-34439578D01*
X8659775Y-34461627D01*
X8550677Y-34505705D01*
X8452219Y-34570135D01*
X8368150Y-34652461D01*
X8301672Y-34749549D01*
X8255318Y-34857700D01*
X8230854Y-34972795D01*
X8229211Y-35090450D01*
X4293210Y-35090450D01*
X3843624Y-34523214D01*
X2737255Y-32370450D01*
X5679211Y-32370450D01*
X5700452Y-32486183D01*
X5743768Y-32595586D01*
X5807509Y-32694492D01*
X5889247Y-32779134D01*
X5985868Y-32846287D01*
X6093693Y-32893395D01*
X6208614Y-32918662D01*
X6326254Y-32921126D01*
X6442133Y-32900694D01*
X6551835Y-32858143D01*
X6651184Y-32795094D01*
X6736395Y-32713949D01*
X6804221Y-32617799D01*
X6852080Y-32510306D01*
X6878149Y-32395564D01*
X6880026Y-32261167D01*
X6857171Y-32145742D01*
X6812332Y-32036954D01*
X6747216Y-31938948D01*
X6664305Y-31855455D01*
X6566755Y-31789657D01*
X6458283Y-31744060D01*
X6343021Y-31720400D01*
X6225357Y-31719578D01*
X6109775Y-31741627D01*
X6000677Y-31785705D01*
X5902219Y-31850135D01*
X5818150Y-31932461D01*
X5751672Y-32029549D01*
X5705318Y-32137700D01*
X5680854Y-32252795D01*
X5679211Y-32370450D01*
X2737255Y-32370450D01*
X2336389Y-31590450D01*
X3869211Y-31590450D01*
X3890452Y-31706183D01*
X3933768Y-31815586D01*
X3997509Y-31914492D01*
X4079247Y-31999134D01*
X4175868Y-32066287D01*
X4283693Y-32113395D01*
X4398614Y-32138662D01*
X4516254Y-32141126D01*
X4632133Y-32120694D01*
X4741835Y-32078143D01*
X4841184Y-32015094D01*
X4926395Y-31933949D01*
X4994221Y-31837799D01*
X5042080Y-31730306D01*
X5068149Y-31615564D01*
X5070026Y-31481167D01*
X5047171Y-31365742D01*
X5002332Y-31256954D01*
X4937216Y-31158948D01*
X4854305Y-31075455D01*
X4756755Y-31009657D01*
X4648283Y-30964060D01*
X4533021Y-30940400D01*
X4415357Y-30939578D01*
X4299775Y-30961627D01*
X4190677Y-31005705D01*
X4092219Y-31070135D01*
X4008150Y-31152461D01*
X3941672Y-31249549D01*
X3895318Y-31357700D01*
X3870854Y-31472795D01*
X3869211Y-31590450D01*
X2336389Y-31590450D01*
X1863611Y-30670524D01*
X1834916Y-30570450D01*
X6139211Y-30570450D01*
X6160452Y-30686183D01*
X6203768Y-30795586D01*
X6267509Y-30894492D01*
X6349247Y-30979134D01*
X6445868Y-31046287D01*
X6553693Y-31093395D01*
X6668614Y-31118662D01*
X6786254Y-31121126D01*
X6902133Y-31100694D01*
X7011835Y-31058143D01*
X7111184Y-30995094D01*
X7196395Y-30913949D01*
X7264221Y-30817799D01*
X7312080Y-30710306D01*
X7338149Y-30595564D01*
X7340026Y-30461167D01*
X7317171Y-30345742D01*
X7272332Y-30236954D01*
X7207216Y-30138948D01*
X7124305Y-30055455D01*
X7026755Y-29989657D01*
X6918283Y-29944060D01*
X6803021Y-29920400D01*
X6685357Y-29919578D01*
X6569775Y-29941627D01*
X6460677Y-29985705D01*
X6362219Y-30050135D01*
X6278150Y-30132461D01*
X6211672Y-30229549D01*
X6165318Y-30337700D01*
X6140854Y-30452795D01*
X6139211Y-30570450D01*
X1834916Y-30570450D01*
X1129522Y-28110450D01*
X1339211Y-28110450D01*
X1360452Y-28226183D01*
X1403768Y-28335586D01*
X1467509Y-28434492D01*
X1549247Y-28519134D01*
X1645868Y-28586287D01*
X1753693Y-28633395D01*
X1868614Y-28658662D01*
X1986254Y-28661126D01*
X2102133Y-28640694D01*
X2211835Y-28598143D01*
X2223957Y-28590450D01*
X7999211Y-28590450D01*
X8020452Y-28706183D01*
X8063768Y-28815586D01*
X8127509Y-28914492D01*
X8209247Y-28999134D01*
X8305868Y-29066287D01*
X8413693Y-29113395D01*
X8528614Y-29138662D01*
X8646254Y-29141126D01*
X8762133Y-29120694D01*
X8871835Y-29078143D01*
X8971184Y-29015094D01*
X9056395Y-28933949D01*
X9124221Y-28837799D01*
X9172080Y-28730306D01*
X9198149Y-28615564D01*
X9200026Y-28481167D01*
X9177171Y-28365742D01*
X9132332Y-28256954D01*
X9067216Y-28158948D01*
X8984305Y-28075455D01*
X8886755Y-28009657D01*
X8778283Y-27964060D01*
X8663021Y-27940400D01*
X8545357Y-27939578D01*
X8429775Y-27961627D01*
X8320677Y-28005705D01*
X8222219Y-28070135D01*
X8138150Y-28152461D01*
X8071672Y-28249549D01*
X8025318Y-28357700D01*
X8000854Y-28472795D01*
X7999211Y-28590450D01*
X2223957Y-28590450D01*
X2311184Y-28535094D01*
X2396395Y-28453949D01*
X2464221Y-28357799D01*
X2512080Y-28250306D01*
X2538149Y-28135564D01*
X2540026Y-28001167D01*
X2517171Y-27885742D01*
X2472332Y-27776954D01*
X2407216Y-27678948D01*
X2324305Y-27595455D01*
X2226755Y-27529657D01*
X2118283Y-27484060D01*
X2003021Y-27460400D01*
X1885357Y-27459578D01*
X1769775Y-27481627D01*
X1660677Y-27525705D01*
X1562219Y-27590135D01*
X1478150Y-27672461D01*
X1411672Y-27769549D01*
X1365318Y-27877700D01*
X1340854Y-27992795D01*
X1339211Y-28110450D01*
X1129522Y-28110450D01*
X791162Y-26930450D01*
X7419211Y-26930450D01*
X7440452Y-27046183D01*
X7483768Y-27155586D01*
X7547509Y-27254492D01*
X7629247Y-27339134D01*
X7725868Y-27406287D01*
X7833693Y-27453395D01*
X7948614Y-27478662D01*
X8066254Y-27481126D01*
X8182133Y-27460694D01*
X8291835Y-27418143D01*
X8391184Y-27355094D01*
X8476395Y-27273949D01*
X8507080Y-27230450D01*
X8879211Y-27230450D01*
X8900452Y-27346183D01*
X8943768Y-27455586D01*
X9007509Y-27554492D01*
X9089247Y-27639134D01*
X9185868Y-27706287D01*
X9293693Y-27753395D01*
X9408614Y-27778662D01*
X9526254Y-27781126D01*
X9642133Y-27760694D01*
X9751835Y-27718143D01*
X9851184Y-27655094D01*
X9936395Y-27573949D01*
X10004221Y-27477799D01*
X10052080Y-27370306D01*
X10078149Y-27255564D01*
X10080026Y-27121167D01*
X10057171Y-27005742D01*
X10012332Y-26896954D01*
X9947216Y-26798948D01*
X9864305Y-26715455D01*
X9766755Y-26649657D01*
X9658283Y-26604060D01*
X9543021Y-26580400D01*
X9425357Y-26579578D01*
X9309775Y-26601627D01*
X9200677Y-26645705D01*
X9102219Y-26710135D01*
X9018150Y-26792461D01*
X8951672Y-26889549D01*
X8905318Y-26997700D01*
X8880854Y-27112795D01*
X8879211Y-27230450D01*
X8507080Y-27230450D01*
X8544221Y-27177799D01*
X8592080Y-27070306D01*
X8618149Y-26955564D01*
X8620026Y-26821167D01*
X8597171Y-26705742D01*
X8552332Y-26596954D01*
X8487216Y-26498948D01*
X8404305Y-26415455D01*
X8306755Y-26349657D01*
X8198283Y-26304060D01*
X8083021Y-26280400D01*
X7965357Y-26279578D01*
X7849775Y-26301627D01*
X7740677Y-26345705D01*
X7642219Y-26410135D01*
X7558150Y-26492461D01*
X7491672Y-26589549D01*
X7445318Y-26697700D01*
X7420854Y-26812795D01*
X7419211Y-26930450D01*
X791162Y-26930450D01*
X669631Y-26506622D01*
X307163Y-22190109D01*
X394615Y-21410450D01*
X6429211Y-21410450D01*
X6450452Y-21526183D01*
X6493768Y-21635586D01*
X6557509Y-21734492D01*
X6639247Y-21819134D01*
X6735868Y-21886287D01*
X6843693Y-21933395D01*
X6958614Y-21958662D01*
X7076254Y-21961126D01*
X7192133Y-21940694D01*
X7301835Y-21898143D01*
X7401184Y-21835094D01*
X7486395Y-21753949D01*
X7554221Y-21657799D01*
X7602080Y-21550306D01*
X7628149Y-21435564D01*
X7630026Y-21301167D01*
X7607171Y-21185742D01*
X7562332Y-21076954D01*
X7497216Y-20978948D01*
X7414305Y-20895455D01*
X7316755Y-20829657D01*
X7208283Y-20784060D01*
X7093021Y-20760400D01*
X6975357Y-20759578D01*
X6859775Y-20781627D01*
X6750677Y-20825705D01*
X6652219Y-20890135D01*
X6568150Y-20972461D01*
X6501672Y-21069549D01*
X6455318Y-21177700D01*
X6430854Y-21292795D01*
X6429211Y-21410450D01*
X394615Y-21410450D01*
X644750Y-19180450D01*
X8779211Y-19180450D01*
X8800452Y-19296183D01*
X8843768Y-19405586D01*
X8907509Y-19504492D01*
X8989247Y-19589134D01*
X9085868Y-19656287D01*
X9193693Y-19703395D01*
X9308614Y-19728662D01*
X9426254Y-19731126D01*
X9542133Y-19710694D01*
X9651835Y-19668143D01*
X9751184Y-19605094D01*
X9836395Y-19523949D01*
X9904221Y-19427799D01*
X9952080Y-19320306D01*
X9978149Y-19205564D01*
X9980026Y-19071167D01*
X9957171Y-18955742D01*
X9912332Y-18846954D01*
X9847216Y-18748948D01*
X9764305Y-18665455D01*
X9666755Y-18599657D01*
X9558283Y-18554060D01*
X9443021Y-18530400D01*
X9325357Y-18529578D01*
X9209775Y-18551627D01*
X9100677Y-18595705D01*
X9002219Y-18660135D01*
X8918150Y-18742461D01*
X8851672Y-18839549D01*
X8805318Y-18947700D01*
X8780854Y-19062795D01*
X8779211Y-19180450D01*
X644750Y-19180450D01*
X790014Y-17885400D01*
X1470432Y-15740450D01*
X2829211Y-15740450D01*
X2850452Y-15856183D01*
X2893768Y-15965586D01*
X2957509Y-16064492D01*
X3039247Y-16149134D01*
X3135868Y-16216287D01*
X3243693Y-16263395D01*
X3358614Y-16288662D01*
X3476254Y-16291126D01*
X3592133Y-16270694D01*
X3701835Y-16228143D01*
X3801184Y-16165094D01*
X3886395Y-16083949D01*
X3954221Y-15987799D01*
X4002080Y-15880306D01*
X4006591Y-15860450D01*
X6369211Y-15860450D01*
X6390452Y-15976183D01*
X6433768Y-16085586D01*
X6497509Y-16184492D01*
X6579247Y-16269134D01*
X6675868Y-16336287D01*
X6783693Y-16383395D01*
X6898614Y-16408662D01*
X7016254Y-16411126D01*
X7132133Y-16390694D01*
X7241835Y-16348143D01*
X7341184Y-16285094D01*
X7426395Y-16203949D01*
X7494221Y-16107799D01*
X7542080Y-16000306D01*
X7568149Y-15885564D01*
X7570026Y-15751167D01*
X7547171Y-15635742D01*
X7502332Y-15526954D01*
X7437216Y-15428948D01*
X7354305Y-15345455D01*
X7256755Y-15279657D01*
X7148283Y-15234060D01*
X7033021Y-15210400D01*
X6915357Y-15209578D01*
X6799775Y-15231627D01*
X6690677Y-15275705D01*
X6592219Y-15340135D01*
X6508150Y-15422461D01*
X6441672Y-15519549D01*
X6395318Y-15627700D01*
X6370854Y-15742795D01*
X6369211Y-15860450D01*
X4006591Y-15860450D01*
X4028149Y-15765564D01*
X4030026Y-15631167D01*
X4007171Y-15515742D01*
X3962332Y-15406954D01*
X3897216Y-15308948D01*
X3814305Y-15225455D01*
X3716755Y-15159657D01*
X3608283Y-15114060D01*
X3493021Y-15090400D01*
X3375357Y-15089578D01*
X3259775Y-15111627D01*
X3150677Y-15155705D01*
X3052219Y-15220135D01*
X2968150Y-15302461D01*
X2901672Y-15399549D01*
X2855318Y-15507700D01*
X2830854Y-15622795D01*
X2829211Y-15740450D01*
X1470432Y-15740450D01*
X2099791Y-13756459D01*
X4186606Y-9960557D01*
X6158422Y-7610638D01*
X6170452Y-7676183D01*
G36*
X26962924Y-758327D02*
X31100908Y-2039247D01*
X31936827Y-2491227D01*
X27785546Y-11171178D01*
X27040196Y-10794675D01*
X24680153Y-10135739D01*
X22237068Y-9947754D01*
X19803998Y-10237880D01*
X18644566Y-10614602D01*
X18877720Y-10514679D01*
X18890543Y-10507630D01*
X18904107Y-10502132D01*
X18922535Y-10490043D01*
X18941855Y-10479423D01*
X18953070Y-10470013D01*
X18965302Y-10461989D01*
X18981030Y-10446553D01*
X18997920Y-10432381D01*
X19007090Y-10420977D01*
X19017535Y-10410725D01*
X19020868Y-10406687D01*
X19555186Y-9750056D01*
X19606254Y-9751126D01*
X19722133Y-9730694D01*
X19831835Y-9688143D01*
X19931184Y-9625094D01*
X20016395Y-9543949D01*
X20084221Y-9447799D01*
X20132080Y-9340306D01*
X20158149Y-9225564D01*
X20160026Y-9091167D01*
X20137171Y-8975742D01*
X20092332Y-8866954D01*
X20027216Y-8768948D01*
X19944305Y-8685455D01*
X19846755Y-8619657D01*
X19738283Y-8574060D01*
X19623021Y-8550400D01*
X19505357Y-8549578D01*
X19389775Y-8571627D01*
X19280677Y-8615705D01*
X19182219Y-8680135D01*
X19098150Y-8762461D01*
X19031672Y-8859549D01*
X18985318Y-8967700D01*
X18960854Y-9082795D01*
X18959211Y-9200450D01*
X18973248Y-9276930D01*
X18914059Y-9349668D01*
X18892332Y-9296954D01*
X18827216Y-9198948D01*
X18744305Y-9115455D01*
X18646755Y-9049657D01*
X18538283Y-9004060D01*
X18423021Y-8980400D01*
X18305357Y-8979578D01*
X18189775Y-9001627D01*
X18080677Y-9045705D01*
X17982219Y-9110135D01*
X17898150Y-9192461D01*
X17831672Y-9289549D01*
X17785318Y-9397700D01*
X17782790Y-9409593D01*
X16198951Y-10052538D01*
X16196072Y-10054049D01*
X16192974Y-10055025D01*
X16163705Y-10071038D01*
X16134148Y-10086552D01*
X16131619Y-10088592D01*
X16128768Y-10090152D01*
X16124462Y-10093132D01*
X14878548Y-10968238D01*
X14882080Y-10960306D01*
X14908149Y-10845564D01*
X14910026Y-10711167D01*
X14887171Y-10595742D01*
X14842332Y-10486954D01*
X14777216Y-10388948D01*
X14694305Y-10305455D01*
X14596755Y-10239657D01*
X14488283Y-10194060D01*
X14373021Y-10170400D01*
X14255357Y-10169578D01*
X14139775Y-10191627D01*
X14030677Y-10235705D01*
X13932219Y-10300135D01*
X13848150Y-10382461D01*
X13781672Y-10479549D01*
X13735318Y-10587700D01*
X13710854Y-10702795D01*
X13709211Y-10820450D01*
X13730452Y-10936183D01*
X13740882Y-10962525D01*
X12561342Y-10666294D01*
X12536891Y-10662641D01*
X12512726Y-10657442D01*
X12500776Y-10657246D01*
X12488958Y-10655480D01*
X12464265Y-10656645D01*
X12439548Y-10656239D01*
X12427790Y-10658367D01*
X12415853Y-10658930D01*
X12391864Y-10664868D01*
X12367531Y-10669271D01*
X12356404Y-10673645D01*
X12344808Y-10676515D01*
X12322427Y-10687000D01*
X12299416Y-10696045D01*
X12289355Y-10702493D01*
X12278534Y-10707563D01*
X12258610Y-10722200D01*
X12237800Y-10735538D01*
X12229185Y-10743817D01*
X12219552Y-10750893D01*
X12202846Y-10769126D01*
X12185028Y-10786247D01*
X12181652Y-10790250D01*
X10964638Y-12253956D01*
X10947171Y-12165742D01*
X10902332Y-12056954D01*
X10837216Y-11958948D01*
X10754305Y-11875455D01*
X10656755Y-11809657D01*
X10548283Y-11764060D01*
X10433021Y-11740400D01*
X10315357Y-11739578D01*
X10199775Y-11761627D01*
X10090677Y-11805705D01*
X9992219Y-11870135D01*
X9908150Y-11952461D01*
X9841672Y-12049549D01*
X9795318Y-12157700D01*
X9770854Y-12272795D01*
X9769211Y-12390450D01*
X9790452Y-12506183D01*
X9833768Y-12615586D01*
X9897509Y-12714492D01*
X9979247Y-12799134D01*
X10075868Y-12866287D01*
X10183693Y-12913395D01*
X10298614Y-12938662D01*
X10416254Y-12941126D01*
X10518451Y-12923106D01*
X10763460Y-13108839D01*
X10786363Y-13122909D01*
X10808527Y-13138166D01*
X10817503Y-13142039D01*
X10825820Y-13147149D01*
X10851020Y-13156503D01*
X10875724Y-13167164D01*
X10885275Y-13169219D01*
X10894432Y-13172618D01*
X10920978Y-13176900D01*
X10937828Y-13180526D01*
X10760480Y-13385772D01*
X9906819Y-13492479D01*
X7882874Y-12345045D01*
X7867171Y-12265742D01*
X7822332Y-12156954D01*
X7757216Y-12058948D01*
X7674305Y-11975455D01*
X7576755Y-11909657D01*
X7486258Y-11871616D01*
X7524221Y-11817799D01*
X7572080Y-11710306D01*
X7598149Y-11595564D01*
X7600026Y-11461167D01*
X7577171Y-11345742D01*
X7554382Y-11290450D01*
X8409211Y-11290450D01*
X8430452Y-11406183D01*
X8473768Y-11515586D01*
X8537509Y-11614492D01*
X8619247Y-11699134D01*
X8715868Y-11766287D01*
X8823693Y-11813395D01*
X8938614Y-11838662D01*
X9056254Y-11841126D01*
X9172133Y-11820694D01*
X9281835Y-11778143D01*
X9381184Y-11715094D01*
X9466395Y-11633949D01*
X9534221Y-11537799D01*
X9582080Y-11430306D01*
X9608149Y-11315564D01*
X9610026Y-11181167D01*
X9587171Y-11065742D01*
X9542332Y-10956954D01*
X9477216Y-10858948D01*
X9394305Y-10775455D01*
X9296755Y-10709657D01*
X9188283Y-10664060D01*
X9073021Y-10640400D01*
X8955357Y-10639578D01*
X8839775Y-10661627D01*
X8730677Y-10705705D01*
X8632219Y-10770135D01*
X8548150Y-10852461D01*
X8481672Y-10949549D01*
X8435318Y-11057700D01*
X8410854Y-11172795D01*
X8409211Y-11290450D01*
X7554382Y-11290450D01*
X7532332Y-11236954D01*
X7467216Y-11138948D01*
X7384305Y-11055455D01*
X7286755Y-10989657D01*
X7178283Y-10944060D01*
X7063021Y-10920400D01*
X6945357Y-10919578D01*
X6829775Y-10941627D01*
X6720677Y-10985705D01*
X6622219Y-11050135D01*
X6538150Y-11132461D01*
X6471672Y-11229549D01*
X6425318Y-11337700D01*
X6400854Y-11452795D01*
X6399318Y-11562771D01*
X5945963Y-10245374D01*
X6395767Y-9739755D01*
X6361672Y-9789549D01*
X6315318Y-9897700D01*
X6290854Y-10012795D01*
X6289211Y-10130450D01*
X6310452Y-10246183D01*
X6353768Y-10355586D01*
X6417509Y-10454492D01*
X6499247Y-10539134D01*
X6595868Y-10606287D01*
X6703693Y-10653395D01*
X6818614Y-10678662D01*
X6936254Y-10681126D01*
X7052133Y-10660694D01*
X7161835Y-10618143D01*
X7261184Y-10555094D01*
X7346395Y-10473949D01*
X7414221Y-10377799D01*
X7462080Y-10270306D01*
X7488149Y-10155564D01*
X7490026Y-10021167D01*
X7467171Y-9905742D01*
X7422332Y-9796954D01*
X7357216Y-9698948D01*
X7274305Y-9615455D01*
X7176755Y-9549657D01*
X7068283Y-9504060D01*
X6953021Y-9480400D01*
X6835357Y-9479578D01*
X6719775Y-9501627D01*
X6610677Y-9545705D01*
X6512219Y-9610135D01*
X6503364Y-9618807D01*
X8518140Y-7354022D01*
X9188279Y-6825952D01*
X9223768Y-6915586D01*
X9287509Y-7014492D01*
X9369247Y-7099134D01*
X9465868Y-7166287D01*
X9573693Y-7213395D01*
X9688614Y-7238662D01*
X9806254Y-7241126D01*
X9922133Y-7220694D01*
X10031835Y-7178143D01*
X10131184Y-7115094D01*
X10216395Y-7033949D01*
X10242575Y-6996836D01*
X10247509Y-7004492D01*
X10329247Y-7089134D01*
X10425868Y-7156287D01*
X10533693Y-7203395D01*
X10648614Y-7228662D01*
X10766254Y-7231126D01*
X10882133Y-7210694D01*
X10991835Y-7168143D01*
X11091184Y-7105094D01*
X11176395Y-7023949D01*
X11244221Y-6927799D01*
X11292080Y-6820306D01*
X11318149Y-6705564D01*
X11320026Y-6571167D01*
X11297171Y-6455742D01*
X11274275Y-6400191D01*
X11516271Y-6400191D01*
X11524748Y-6484592D01*
X11556404Y-6563291D01*
X11956404Y-7256111D01*
X11983590Y-7295579D01*
X12045836Y-7353206D01*
X12121672Y-7391210D01*
X12205094Y-7406582D01*
X12289495Y-7398105D01*
X12368193Y-7366449D01*
X12620181Y-7220963D01*
X12619211Y-7290450D01*
X12640452Y-7406183D01*
X12683768Y-7515586D01*
X12747509Y-7614492D01*
X12829247Y-7699134D01*
X12900449Y-7748621D01*
X12666743Y-7883551D01*
X12627274Y-7910737D01*
X12569647Y-7972983D01*
X12531643Y-8048820D01*
X12516271Y-8132241D01*
X12524748Y-8216642D01*
X12556404Y-8295341D01*
X12956404Y-8988161D01*
X12983590Y-9027629D01*
X13045836Y-9085256D01*
X13121672Y-9123260D01*
X13205094Y-9138632D01*
X13289495Y-9130155D01*
X13368193Y-9098499D01*
X13498172Y-9023456D01*
X13497681Y-9026120D01*
X13506158Y-9110522D01*
X13537814Y-9189220D01*
X13787814Y-9622232D01*
X13815000Y-9661700D01*
X13877246Y-9719327D01*
X13953082Y-9757331D01*
X14036504Y-9772703D01*
X14120905Y-9764226D01*
X14199603Y-9732570D01*
X14719219Y-9432570D01*
X14758688Y-9405384D01*
X14816315Y-9343138D01*
X14854319Y-9267301D01*
X14868489Y-9190405D01*
X14895320Y-9203637D01*
X14952401Y-9218931D01*
X15011370Y-9222797D01*
X15069959Y-9215083D01*
X15125918Y-9196087D01*
X15342032Y-9071314D01*
X15369484Y-8968862D01*
X15134484Y-8561830D01*
X15117163Y-8571830D01*
X15112163Y-8563170D01*
X15129484Y-8553170D01*
X15119484Y-8535849D01*
X15128144Y-8530849D01*
X15138144Y-8548170D01*
X15155465Y-8538170D01*
X15160465Y-8546830D01*
X15143144Y-8556830D01*
X15378144Y-8963862D01*
X15480596Y-8991314D01*
X15696710Y-8866540D01*
X15741140Y-8827577D01*
X15777115Y-8780694D01*
X15803252Y-8727692D01*
X15813570Y-8689185D01*
X15906254Y-8691126D01*
X16022133Y-8670694D01*
X16131835Y-8628143D01*
X16231184Y-8565094D01*
X16246079Y-8550910D01*
X16263768Y-8595586D01*
X16327509Y-8694492D01*
X16409247Y-8779134D01*
X16505868Y-8846287D01*
X16613693Y-8893395D01*
X16728614Y-8918662D01*
X16846254Y-8921126D01*
X16962133Y-8900694D01*
X17071835Y-8858143D01*
X17171184Y-8795094D01*
X17256395Y-8713949D01*
X17324221Y-8617799D01*
X17372015Y-8510450D01*
X24839211Y-8510450D01*
X24860452Y-8626183D01*
X24903768Y-8735586D01*
X24967509Y-8834492D01*
X25049247Y-8919134D01*
X25145868Y-8986287D01*
X25253693Y-9033395D01*
X25368614Y-9058662D01*
X25486254Y-9061126D01*
X25556457Y-9048748D01*
X25521672Y-9099549D01*
X25475318Y-9207700D01*
X25450854Y-9322795D01*
X25449211Y-9440450D01*
X25470452Y-9556183D01*
X25513768Y-9665586D01*
X25577509Y-9764492D01*
X25659247Y-9849134D01*
X25755868Y-9916287D01*
X25863693Y-9963395D01*
X25978614Y-9988662D01*
X26096254Y-9991126D01*
X26212133Y-9970694D01*
X26321835Y-9928143D01*
X26421184Y-9865094D01*
X26506395Y-9783949D01*
X26574221Y-9687799D01*
X26622080Y-9580306D01*
X26648149Y-9465564D01*
X26650026Y-9331167D01*
X26627171Y-9215742D01*
X26582332Y-9106954D01*
X26517216Y-9008948D01*
X26434305Y-8925455D01*
X26336755Y-8859657D01*
X26228283Y-8814060D01*
X26113021Y-8790400D01*
X25995357Y-8789578D01*
X25933476Y-8801383D01*
X25964221Y-8757799D01*
X26012080Y-8650306D01*
X26030541Y-8569052D01*
X26069247Y-8609134D01*
X26165868Y-8676287D01*
X26273693Y-8723395D01*
X26388614Y-8748662D01*
X26506254Y-8751126D01*
X26614449Y-8732049D01*
X26623768Y-8755586D01*
X26687509Y-8854492D01*
X26769247Y-8939134D01*
X26865868Y-9006287D01*
X26973693Y-9053395D01*
X27088614Y-9078662D01*
X27206254Y-9081126D01*
X27322133Y-9060694D01*
X27431835Y-9018143D01*
X27531184Y-8955094D01*
X27616395Y-8873949D01*
X27684221Y-8777799D01*
X27732080Y-8670306D01*
X27758149Y-8555564D01*
X27760026Y-8421167D01*
X27737171Y-8305742D01*
X27692332Y-8196954D01*
X27627216Y-8098948D01*
X27544305Y-8015455D01*
X27446755Y-7949657D01*
X27338283Y-7904060D01*
X27223021Y-7880400D01*
X27105357Y-7879578D01*
X27005395Y-7898647D01*
X26992332Y-7866954D01*
X26927216Y-7768948D01*
X26844305Y-7685455D01*
X26783464Y-7644417D01*
X26861184Y-7595094D01*
X26946395Y-7513949D01*
X27014221Y-7417799D01*
X27062080Y-7310306D01*
X27088149Y-7195564D01*
X27090026Y-7061167D01*
X27067171Y-6945742D01*
X27022332Y-6836954D01*
X26957216Y-6738948D01*
X26874305Y-6655455D01*
X26776755Y-6589657D01*
X26668283Y-6544060D01*
X26553021Y-6520400D01*
X26435357Y-6519578D01*
X26319775Y-6541627D01*
X26210677Y-6585705D01*
X26112219Y-6650135D01*
X26028150Y-6732461D01*
X25961672Y-6829549D01*
X25915318Y-6937700D01*
X25890854Y-7052795D01*
X25889211Y-7170450D01*
X25910452Y-7286183D01*
X25953768Y-7395586D01*
X26017509Y-7494492D01*
X26099247Y-7579134D01*
X26165838Y-7625416D01*
X26082219Y-7680135D01*
X25998150Y-7762461D01*
X25931672Y-7859549D01*
X25885318Y-7967700D01*
X25869702Y-8041170D01*
X25824305Y-7995455D01*
X25726755Y-7929657D01*
X25618283Y-7884060D01*
X25503021Y-7860400D01*
X25385357Y-7859578D01*
X25269775Y-7881627D01*
X25160677Y-7925705D01*
X25062219Y-7990135D01*
X24978150Y-8072461D01*
X24911672Y-8169549D01*
X24865318Y-8277700D01*
X24840854Y-8392795D01*
X24839211Y-8510450D01*
X17372015Y-8510450D01*
X17372080Y-8510306D01*
X17398149Y-8395564D01*
X17400026Y-8261167D01*
X17377171Y-8145742D01*
X17332332Y-8036954D01*
X17267216Y-7938948D01*
X17184305Y-7855455D01*
X17086755Y-7789657D01*
X16978283Y-7744060D01*
X16863021Y-7720400D01*
X16745357Y-7719578D01*
X16629775Y-7741627D01*
X16520677Y-7785705D01*
X16422219Y-7850135D01*
X16413606Y-7858569D01*
X16392332Y-7806954D01*
X16377102Y-7784031D01*
X16391184Y-7775094D01*
X16476395Y-7693949D01*
X16544221Y-7597799D01*
X16592080Y-7490306D01*
X16618149Y-7375564D01*
X16620026Y-7241167D01*
X16597171Y-7125742D01*
X16552332Y-7016954D01*
X16487216Y-6918948D01*
X16404305Y-6835455D01*
X16306755Y-6769657D01*
X16198283Y-6724060D01*
X16083021Y-6700400D01*
X16078548Y-6700369D01*
X15198214Y-5340450D01*
X16119211Y-5340450D01*
X16140452Y-5456183D01*
X16183768Y-5565586D01*
X16247509Y-5664492D01*
X16329247Y-5749134D01*
X16425868Y-5816287D01*
X16533693Y-5863395D01*
X16601023Y-5878198D01*
X16552219Y-5910135D01*
X16468150Y-5992461D01*
X16401672Y-6089549D01*
X16355318Y-6197700D01*
X16330854Y-6312795D01*
X16329211Y-6430450D01*
X16350452Y-6546183D01*
X16393768Y-6655586D01*
X16457509Y-6754492D01*
X16539247Y-6839134D01*
X16635868Y-6906287D01*
X16743693Y-6953395D01*
X16858614Y-6978662D01*
X16976254Y-6981126D01*
X17092133Y-6960694D01*
X17201835Y-6918143D01*
X17301184Y-6855094D01*
X17386395Y-6773949D01*
X17416683Y-6731012D01*
X17513693Y-6773395D01*
X17628614Y-6798662D01*
X17708366Y-6800332D01*
X17720452Y-6866183D01*
X17763768Y-6975586D01*
X17827509Y-7074492D01*
X17909247Y-7159134D01*
X18005868Y-7226287D01*
X18113693Y-7273395D01*
X18228614Y-7298662D01*
X18346254Y-7301126D01*
X18462133Y-7280694D01*
X18571835Y-7238143D01*
X18671184Y-7175094D01*
X18756395Y-7093949D01*
X18798127Y-7034790D01*
X18826879Y-7032394D01*
X18870012Y-7099323D01*
X18978995Y-7212179D01*
X19107824Y-7301717D01*
X19251590Y-7364527D01*
X19404818Y-7398216D01*
X19561672Y-7401502D01*
X19716177Y-7374258D01*
X19862447Y-7317524D01*
X19994912Y-7233459D01*
X20108526Y-7125266D01*
X20198962Y-6997066D01*
X20262774Y-6853741D01*
X20297532Y-6700752D01*
X20300034Y-6521556D01*
X20269561Y-6367656D01*
X20209776Y-6222605D01*
X20122955Y-6091930D01*
X20012407Y-5980607D01*
X19882341Y-5892876D01*
X19737711Y-5832079D01*
X19584027Y-5800533D01*
X19479786Y-5799805D01*
X19784721Y-5444047D01*
X19796364Y-5427420D01*
X19809418Y-5411863D01*
X19817310Y-5397507D01*
X19826701Y-5384096D01*
X19834893Y-5365523D01*
X19844676Y-5347728D01*
X19849627Y-5332119D01*
X19856237Y-5317134D01*
X19860666Y-5297319D01*
X19866805Y-5277967D01*
X19868631Y-5261690D01*
X19872203Y-5245709D01*
X19872699Y-5225416D01*
X19874963Y-5205236D01*
X19875000Y-5200000D01*
X19875000Y-5109558D01*
X19994912Y-5033459D01*
X20108526Y-4925266D01*
X20198962Y-4797066D01*
X20262774Y-4653741D01*
X20297532Y-4500752D01*
X20300034Y-4321556D01*
X20269561Y-4167656D01*
X20209776Y-4022605D01*
X20122955Y-3891930D01*
X20012407Y-3780607D01*
X19882341Y-3692876D01*
X19737711Y-3632079D01*
X19584027Y-3600533D01*
X19427143Y-3599437D01*
X19273034Y-3628835D01*
X19127570Y-3687607D01*
X18996291Y-3773513D01*
X18884199Y-3883282D01*
X18795562Y-4012732D01*
X18733758Y-4156934D01*
X18701139Y-4310393D01*
X18698948Y-4467266D01*
X18727270Y-4621577D01*
X18785024Y-4767448D01*
X18870012Y-4899323D01*
X18978995Y-5012179D01*
X19096866Y-5094101D01*
X18795025Y-5446250D01*
X18784305Y-5435455D01*
X18686755Y-5369657D01*
X18578283Y-5324060D01*
X18463021Y-5300400D01*
X18345357Y-5299578D01*
X18229775Y-5321627D01*
X18120677Y-5365705D01*
X18022219Y-5430135D01*
X17938150Y-5512461D01*
X17871672Y-5609549D01*
X17866490Y-5621639D01*
X17763021Y-5600400D01*
X17645357Y-5599578D01*
X17529775Y-5621627D01*
X17420677Y-5665705D01*
X17322219Y-5730135D01*
X17238150Y-5812461D01*
X17213592Y-5848327D01*
X17108283Y-5804060D01*
X17048969Y-5791885D01*
X17091184Y-5765094D01*
X17176395Y-5683949D01*
X17244221Y-5587799D01*
X17292080Y-5480306D01*
X17318149Y-5365564D01*
X17320026Y-5231167D01*
X17297171Y-5115742D01*
X17252332Y-5006954D01*
X17187216Y-4908948D01*
X17104305Y-4825455D01*
X17006755Y-4759657D01*
X16898283Y-4714060D01*
X16783021Y-4690400D01*
X16665357Y-4689578D01*
X16549775Y-4711627D01*
X16440677Y-4755705D01*
X16342219Y-4820135D01*
X16258150Y-4902461D01*
X16191672Y-4999549D01*
X16145318Y-5107700D01*
X16120854Y-5222795D01*
X16119211Y-5340450D01*
X15198214Y-5340450D01*
X14994798Y-5026218D01*
X14979205Y-5006627D01*
X14964832Y-4986081D01*
X14956448Y-4978035D01*
X14949221Y-4968954D01*
X14930115Y-4952761D01*
X14912030Y-4935403D01*
X14902246Y-4929140D01*
X14893390Y-4921634D01*
X14871504Y-4909461D01*
X14850390Y-4895945D01*
X14839573Y-4891701D01*
X14829430Y-4886059D01*
X14805590Y-4878366D01*
X14782260Y-4869212D01*
X14770832Y-4867151D01*
X14759779Y-4863584D01*
X14734897Y-4860669D01*
X14710235Y-4856220D01*
X14698618Y-4856418D01*
X14687089Y-4855067D01*
X14662120Y-4857039D01*
X14637058Y-4857466D01*
X14625705Y-4859916D01*
X14614129Y-4860830D01*
X14590007Y-4867618D01*
X14565518Y-4872902D01*
X14554861Y-4877508D01*
X14553025Y-4878025D01*
X14592080Y-4790306D01*
X14618149Y-4675564D01*
X14620026Y-4541167D01*
X14597171Y-4425742D01*
X14552332Y-4316954D01*
X14487216Y-4218948D01*
X14404305Y-4135455D01*
X14306755Y-4069657D01*
X14198283Y-4024060D01*
X14083021Y-4000400D01*
X13965357Y-3999578D01*
X13849775Y-4021627D01*
X13740677Y-4065705D01*
X13642219Y-4130135D01*
X13558150Y-4212461D01*
X13491672Y-4309549D01*
X13445318Y-4417700D01*
X13436808Y-4457735D01*
X13402186Y-4397768D01*
X13375000Y-4358300D01*
X13312754Y-4300673D01*
X13236918Y-4262669D01*
X13153496Y-4247297D01*
X13069095Y-4255774D01*
X12990397Y-4287430D01*
X12470781Y-4587430D01*
X12431312Y-4614616D01*
X12373685Y-4676862D01*
X12335681Y-4752699D01*
X12321511Y-4829595D01*
X12294680Y-4816363D01*
X12237599Y-4801069D01*
X12178630Y-4797203D01*
X12120041Y-4804917D01*
X12064082Y-4823913D01*
X11847968Y-4948686D01*
X11820516Y-5051138D01*
X12055516Y-5458170D01*
X12072837Y-5448170D01*
X12077837Y-5456830D01*
X12060516Y-5466830D01*
X12070516Y-5484151D01*
X12061856Y-5489151D01*
X12051856Y-5471830D01*
X11601523Y-5731830D01*
X11574071Y-5834282D01*
X11644297Y-5955918D01*
X11673845Y-6007096D01*
X11712809Y-6051525D01*
X11759692Y-6087500D01*
X11769348Y-6092262D01*
X11666743Y-6151501D01*
X11627274Y-6178687D01*
X11569647Y-6240933D01*
X11531643Y-6316770D01*
X11516271Y-6400191D01*
X11274275Y-6400191D01*
X11252332Y-6346954D01*
X11187216Y-6248948D01*
X11104305Y-6165455D01*
X11006755Y-6099657D01*
X10898283Y-6054060D01*
X10783021Y-6030400D01*
X10665357Y-6029578D01*
X10549775Y-6051627D01*
X10440677Y-6095705D01*
X10342219Y-6160135D01*
X10258150Y-6242461D01*
X10236891Y-6273509D01*
X10227216Y-6258948D01*
X10144305Y-6175455D01*
X10073980Y-6128020D01*
X10971307Y-5420926D01*
X10992937Y-5408356D01*
X11367588Y-5408356D01*
X11375302Y-5466946D01*
X11394297Y-5522904D01*
X11423844Y-5574082D01*
X11494071Y-5695718D01*
X11596523Y-5723170D01*
X12046856Y-5463170D01*
X11811856Y-5056138D01*
X11709404Y-5028686D01*
X11493290Y-5153460D01*
X11448860Y-5192423D01*
X11412885Y-5239306D01*
X11386748Y-5292308D01*
X11371453Y-5349388D01*
X11367588Y-5408356D01*
X10992937Y-5408356D01*
X13573175Y-3908897D01*
X16628612Y-2720125D01*
X18697503Y-2268730D01*
X18665459Y-2343495D01*
X18640995Y-2458590D01*
X18639352Y-2576245D01*
X18660593Y-2691978D01*
X18703909Y-2801381D01*
X18767650Y-2900287D01*
X18849388Y-2984929D01*
X18946009Y-3052082D01*
X19053834Y-3099190D01*
X19168755Y-3124457D01*
X19286395Y-3126921D01*
X19402274Y-3106489D01*
X19511976Y-3063938D01*
X19611325Y-3000889D01*
X19696536Y-2919744D01*
X19764362Y-2823594D01*
X19812221Y-2716101D01*
X19838290Y-2601359D01*
X19840167Y-2466962D01*
X19817312Y-2351537D01*
X19772473Y-2242749D01*
X19707357Y-2144743D01*
X19654323Y-2091337D01*
X21169622Y-1908456D01*
X21199247Y-1939134D01*
X21295868Y-2006287D01*
X21403693Y-2053395D01*
X21518614Y-2078662D01*
X21636254Y-2081126D01*
X21752133Y-2060694D01*
X21861835Y-2018143D01*
X21961184Y-1955094D01*
X22046395Y-1873949D01*
X22114221Y-1777799D01*
X22162080Y-1670306D01*
X22188149Y-1555564D01*
X22190026Y-1421167D01*
X22169004Y-1315000D01*
X22200125Y-1315000D01*
X22199211Y-1380450D01*
X22220452Y-1496183D01*
X22263768Y-1605586D01*
X22327509Y-1704492D01*
X22409247Y-1789134D01*
X22505868Y-1856287D01*
X22613693Y-1903395D01*
X22728614Y-1928662D01*
X22846254Y-1931126D01*
X22962133Y-1910694D01*
X23071835Y-1868143D01*
X23171184Y-1805094D01*
X23256395Y-1723949D01*
X23324221Y-1627799D01*
X23327544Y-1620336D01*
X23330452Y-1636183D01*
X23373768Y-1745586D01*
X23437509Y-1844492D01*
X23519247Y-1929134D01*
X23589578Y-1978015D01*
X23584199Y-1983282D01*
X23495562Y-2112732D01*
X23433758Y-2256934D01*
X23401139Y-2410393D01*
X23398948Y-2567266D01*
X23427270Y-2721577D01*
X23485024Y-2867448D01*
X23570012Y-2999323D01*
X23678995Y-3112179D01*
X23807824Y-3201717D01*
X23951590Y-3264527D01*
X24104818Y-3298216D01*
X24261672Y-3301502D01*
X24416177Y-3274258D01*
X24562447Y-3217524D01*
X24694912Y-3133459D01*
X24703854Y-3124944D01*
X24705053Y-3196302D01*
X24706592Y-3209680D01*
X24706468Y-3223156D01*
X24710767Y-3245969D01*
X24713418Y-3269009D01*
X24717526Y-3281833D01*
X24720022Y-3295077D01*
X24728667Y-3316611D01*
X24735745Y-3338707D01*
X24742270Y-3350496D01*
X24747288Y-3362996D01*
X24759949Y-3382439D01*
X24763182Y-3388280D01*
X24733758Y-3456934D01*
X24701139Y-3610393D01*
X24698948Y-3767266D01*
X24727270Y-3921577D01*
X24785024Y-4067448D01*
X24870012Y-4199323D01*
X24978995Y-4312179D01*
X25107824Y-4401717D01*
X25251590Y-4464527D01*
X25404818Y-4498216D01*
X25561672Y-4501502D01*
X25716177Y-4474258D01*
X25862447Y-4417524D01*
X25994912Y-4333459D01*
X26108526Y-4225266D01*
X26198962Y-4097066D01*
X26262774Y-3953741D01*
X26297532Y-3800752D01*
X26300034Y-3621556D01*
X26269561Y-3467656D01*
X26209776Y-3322605D01*
X26122955Y-3191930D01*
X26012407Y-3080607D01*
X25893275Y-3000251D01*
X26001835Y-2958143D01*
X26101184Y-2895094D01*
X26186395Y-2813949D01*
X26254221Y-2717799D01*
X26302080Y-2610306D01*
X26318845Y-2536514D01*
X26328614Y-2538662D01*
X26446254Y-2541126D01*
X26562133Y-2520694D01*
X26671835Y-2478143D01*
X26771184Y-2415094D01*
X26856395Y-2333949D01*
X26924221Y-2237799D01*
X26972080Y-2130306D01*
X26998149Y-2015564D01*
X27000026Y-1881167D01*
X26977171Y-1765742D01*
X26932332Y-1656954D01*
X26867216Y-1558948D01*
X26784305Y-1475455D01*
X26686755Y-1409657D01*
X26578283Y-1364060D01*
X26463021Y-1340400D01*
X26345357Y-1339578D01*
X26229775Y-1361627D01*
X26120677Y-1405705D01*
X26022219Y-1470135D01*
X25938150Y-1552461D01*
X25871672Y-1649549D01*
X25825318Y-1757700D01*
X25811198Y-1824131D01*
X25793021Y-1820400D01*
X25675357Y-1819578D01*
X25559775Y-1841627D01*
X25450677Y-1885705D01*
X25421413Y-1904855D01*
X25417076Y-1891315D01*
X25408448Y-1861405D01*
X25405932Y-1856529D01*
X25404255Y-1851293D01*
X25389162Y-1824024D01*
X25374892Y-1796364D01*
X25372019Y-1791987D01*
X25313474Y-1704170D01*
X25338149Y-1595564D01*
X25340026Y-1461167D01*
X25317171Y-1345742D01*
X25272332Y-1236954D01*
X25207216Y-1138948D01*
X25124305Y-1055455D01*
X25026755Y-989657D01*
X24918283Y-944060D01*
X24803021Y-920400D01*
X24685357Y-919578D01*
X24569775Y-941627D01*
X24460677Y-985705D01*
X24362219Y-1050135D01*
X24350282Y-1061825D01*
X24294305Y-1005455D01*
X24196755Y-939657D01*
X24088283Y-894060D01*
X23973021Y-870400D01*
X23855357Y-869578D01*
X23739775Y-891627D01*
X23630677Y-935705D01*
X23532219Y-1000135D01*
X23448150Y-1082461D01*
X23381837Y-1179308D01*
X23377171Y-1155742D01*
X23332332Y-1046954D01*
X23267216Y-948948D01*
X23184305Y-865455D01*
X23086755Y-799657D01*
X22978283Y-754060D01*
X22863021Y-730400D01*
X22811605Y-730041D01*
X22797234Y-711358D01*
X22781936Y-695050D01*
X22767927Y-677626D01*
X22756957Y-668421D01*
X22747163Y-657980D01*
X22728996Y-644958D01*
X22711863Y-630582D01*
X22699313Y-623683D01*
X22687678Y-615343D01*
X22667323Y-606096D01*
X22647728Y-595324D01*
X22634079Y-590994D01*
X22621044Y-585073D01*
X22599277Y-579955D01*
X22577967Y-573195D01*
X22563743Y-571600D01*
X22549800Y-568321D01*
X22527446Y-567528D01*
X22505236Y-565037D01*
X22500000Y-565000D01*
X21390000Y-565000D01*
X21362646Y-567682D01*
X21335170Y-569030D01*
X21326279Y-571248D01*
X21317162Y-572142D01*
X21290838Y-580090D01*
X21264160Y-586745D01*
X21255872Y-590646D01*
X21247099Y-593295D01*
X21222816Y-606207D01*
X21197943Y-617915D01*
X21193464Y-620628D01*
X20745382Y-896370D01*
X19179332Y-1067212D01*
X19161618Y-1070921D01*
X19143633Y-1072859D01*
X19138514Y-1073960D01*
X16308514Y-1703960D01*
X16283508Y-1712158D01*
X16258114Y-1718958D01*
X16253225Y-1720833D01*
X13113224Y-2950833D01*
X13089554Y-2962889D01*
X13065292Y-2973645D01*
X13060753Y-2976256D01*
X10340752Y-4566256D01*
X10321712Y-4580043D01*
X10301766Y-4592454D01*
X10297633Y-4595669D01*
X10293693Y-4598780D01*
X10272332Y-4546954D01*
X10207216Y-4448948D01*
X10124305Y-4365455D01*
X10026755Y-4299657D01*
X9933409Y-4260418D01*
X10346834Y-3928016D01*
X14185607Y-1921154D01*
X18341072Y-698134D01*
X22654949Y-305541D01*
X26962924Y-758327D01*
X26962924Y-758327D01*
G37*
X26962924Y-758327D02*
X31100908Y-2039247D01*
X31936827Y-2491227D01*
X27785546Y-11171178D01*
X27040196Y-10794675D01*
X24680153Y-10135739D01*
X22237068Y-9947754D01*
X19803998Y-10237880D01*
X18644566Y-10614602D01*
X18877720Y-10514679D01*
X18890543Y-10507630D01*
X18904107Y-10502132D01*
X18922535Y-10490043D01*
X18941855Y-10479423D01*
X18953070Y-10470013D01*
X18965302Y-10461989D01*
X18981030Y-10446553D01*
X18997920Y-10432381D01*
X19007090Y-10420977D01*
X19017535Y-10410725D01*
X19020868Y-10406687D01*
X19555186Y-9750056D01*
X19606254Y-9751126D01*
X19722133Y-9730694D01*
X19831835Y-9688143D01*
X19931184Y-9625094D01*
X20016395Y-9543949D01*
X20084221Y-9447799D01*
X20132080Y-9340306D01*
X20158149Y-9225564D01*
X20160026Y-9091167D01*
X20137171Y-8975742D01*
X20092332Y-8866954D01*
X20027216Y-8768948D01*
X19944305Y-8685455D01*
X19846755Y-8619657D01*
X19738283Y-8574060D01*
X19623021Y-8550400D01*
X19505357Y-8549578D01*
X19389775Y-8571627D01*
X19280677Y-8615705D01*
X19182219Y-8680135D01*
X19098150Y-8762461D01*
X19031672Y-8859549D01*
X18985318Y-8967700D01*
X18960854Y-9082795D01*
X18959211Y-9200450D01*
X18973248Y-9276930D01*
X18914059Y-9349668D01*
X18892332Y-9296954D01*
X18827216Y-9198948D01*
X18744305Y-9115455D01*
X18646755Y-9049657D01*
X18538283Y-9004060D01*
X18423021Y-8980400D01*
X18305357Y-8979578D01*
X18189775Y-9001627D01*
X18080677Y-9045705D01*
X17982219Y-9110135D01*
X17898150Y-9192461D01*
X17831672Y-9289549D01*
X17785318Y-9397700D01*
X17782790Y-9409593D01*
X16198951Y-10052538D01*
X16196072Y-10054049D01*
X16192974Y-10055025D01*
X16163705Y-10071038D01*
X16134148Y-10086552D01*
X16131619Y-10088592D01*
X16128768Y-10090152D01*
X16124462Y-10093132D01*
X14878548Y-10968238D01*
X14882080Y-10960306D01*
X14908149Y-10845564D01*
X14910026Y-10711167D01*
X14887171Y-10595742D01*
X14842332Y-10486954D01*
X14777216Y-10388948D01*
X14694305Y-10305455D01*
X14596755Y-10239657D01*
X14488283Y-10194060D01*
X14373021Y-10170400D01*
X14255357Y-10169578D01*
X14139775Y-10191627D01*
X14030677Y-10235705D01*
X13932219Y-10300135D01*
X13848150Y-10382461D01*
X13781672Y-10479549D01*
X13735318Y-10587700D01*
X13710854Y-10702795D01*
X13709211Y-10820450D01*
X13730452Y-10936183D01*
X13740882Y-10962525D01*
X12561342Y-10666294D01*
X12536891Y-10662641D01*
X12512726Y-10657442D01*
X12500776Y-10657246D01*
X12488958Y-10655480D01*
X12464265Y-10656645D01*
X12439548Y-10656239D01*
X12427790Y-10658367D01*
X12415853Y-10658930D01*
X12391864Y-10664868D01*
X12367531Y-10669271D01*
X12356404Y-10673645D01*
X12344808Y-10676515D01*
X12322427Y-10687000D01*
X12299416Y-10696045D01*
X12289355Y-10702493D01*
X12278534Y-10707563D01*
X12258610Y-10722200D01*
X12237800Y-10735538D01*
X12229185Y-10743817D01*
X12219552Y-10750893D01*
X12202846Y-10769126D01*
X12185028Y-10786247D01*
X12181652Y-10790250D01*
X10964638Y-12253956D01*
X10947171Y-12165742D01*
X10902332Y-12056954D01*
X10837216Y-11958948D01*
X10754305Y-11875455D01*
X10656755Y-11809657D01*
X10548283Y-11764060D01*
X10433021Y-11740400D01*
X10315357Y-11739578D01*
X10199775Y-11761627D01*
X10090677Y-11805705D01*
X9992219Y-11870135D01*
X9908150Y-11952461D01*
X9841672Y-12049549D01*
X9795318Y-12157700D01*
X9770854Y-12272795D01*
X9769211Y-12390450D01*
X9790452Y-12506183D01*
X9833768Y-12615586D01*
X9897509Y-12714492D01*
X9979247Y-12799134D01*
X10075868Y-12866287D01*
X10183693Y-12913395D01*
X10298614Y-12938662D01*
X10416254Y-12941126D01*
X10518451Y-12923106D01*
X10763460Y-13108839D01*
X10786363Y-13122909D01*
X10808527Y-13138166D01*
X10817503Y-13142039D01*
X10825820Y-13147149D01*
X10851020Y-13156503D01*
X10875724Y-13167164D01*
X10885275Y-13169219D01*
X10894432Y-13172618D01*
X10920978Y-13176900D01*
X10937828Y-13180526D01*
X10760480Y-13385772D01*
X9906819Y-13492479D01*
X7882874Y-12345045D01*
X7867171Y-12265742D01*
X7822332Y-12156954D01*
X7757216Y-12058948D01*
X7674305Y-11975455D01*
X7576755Y-11909657D01*
X7486258Y-11871616D01*
X7524221Y-11817799D01*
X7572080Y-11710306D01*
X7598149Y-11595564D01*
X7600026Y-11461167D01*
X7577171Y-11345742D01*
X7554382Y-11290450D01*
X8409211Y-11290450D01*
X8430452Y-11406183D01*
X8473768Y-11515586D01*
X8537509Y-11614492D01*
X8619247Y-11699134D01*
X8715868Y-11766287D01*
X8823693Y-11813395D01*
X8938614Y-11838662D01*
X9056254Y-11841126D01*
X9172133Y-11820694D01*
X9281835Y-11778143D01*
X9381184Y-11715094D01*
X9466395Y-11633949D01*
X9534221Y-11537799D01*
X9582080Y-11430306D01*
X9608149Y-11315564D01*
X9610026Y-11181167D01*
X9587171Y-11065742D01*
X9542332Y-10956954D01*
X9477216Y-10858948D01*
X9394305Y-10775455D01*
X9296755Y-10709657D01*
X9188283Y-10664060D01*
X9073021Y-10640400D01*
X8955357Y-10639578D01*
X8839775Y-10661627D01*
X8730677Y-10705705D01*
X8632219Y-10770135D01*
X8548150Y-10852461D01*
X8481672Y-10949549D01*
X8435318Y-11057700D01*
X8410854Y-11172795D01*
X8409211Y-11290450D01*
X7554382Y-11290450D01*
X7532332Y-11236954D01*
X7467216Y-11138948D01*
X7384305Y-11055455D01*
X7286755Y-10989657D01*
X7178283Y-10944060D01*
X7063021Y-10920400D01*
X6945357Y-10919578D01*
X6829775Y-10941627D01*
X6720677Y-10985705D01*
X6622219Y-11050135D01*
X6538150Y-11132461D01*
X6471672Y-11229549D01*
X6425318Y-11337700D01*
X6400854Y-11452795D01*
X6399318Y-11562771D01*
X5945963Y-10245374D01*
X6395767Y-9739755D01*
X6361672Y-9789549D01*
X6315318Y-9897700D01*
X6290854Y-10012795D01*
X6289211Y-10130450D01*
X6310452Y-10246183D01*
X6353768Y-10355586D01*
X6417509Y-10454492D01*
X6499247Y-10539134D01*
X6595868Y-10606287D01*
X6703693Y-10653395D01*
X6818614Y-10678662D01*
X6936254Y-10681126D01*
X7052133Y-10660694D01*
X7161835Y-10618143D01*
X7261184Y-10555094D01*
X7346395Y-10473949D01*
X7414221Y-10377799D01*
X7462080Y-10270306D01*
X7488149Y-10155564D01*
X7490026Y-10021167D01*
X7467171Y-9905742D01*
X7422332Y-9796954D01*
X7357216Y-9698948D01*
X7274305Y-9615455D01*
X7176755Y-9549657D01*
X7068283Y-9504060D01*
X6953021Y-9480400D01*
X6835357Y-9479578D01*
X6719775Y-9501627D01*
X6610677Y-9545705D01*
X6512219Y-9610135D01*
X6503364Y-9618807D01*
X8518140Y-7354022D01*
X9188279Y-6825952D01*
X9223768Y-6915586D01*
X9287509Y-7014492D01*
X9369247Y-7099134D01*
X9465868Y-7166287D01*
X9573693Y-7213395D01*
X9688614Y-7238662D01*
X9806254Y-7241126D01*
X9922133Y-7220694D01*
X10031835Y-7178143D01*
X10131184Y-7115094D01*
X10216395Y-7033949D01*
X10242575Y-6996836D01*
X10247509Y-7004492D01*
X10329247Y-7089134D01*
X10425868Y-7156287D01*
X10533693Y-7203395D01*
X10648614Y-7228662D01*
X10766254Y-7231126D01*
X10882133Y-7210694D01*
X10991835Y-7168143D01*
X11091184Y-7105094D01*
X11176395Y-7023949D01*
X11244221Y-6927799D01*
X11292080Y-6820306D01*
X11318149Y-6705564D01*
X11320026Y-6571167D01*
X11297171Y-6455742D01*
X11274275Y-6400191D01*
X11516271Y-6400191D01*
X11524748Y-6484592D01*
X11556404Y-6563291D01*
X11956404Y-7256111D01*
X11983590Y-7295579D01*
X12045836Y-7353206D01*
X12121672Y-7391210D01*
X12205094Y-7406582D01*
X12289495Y-7398105D01*
X12368193Y-7366449D01*
X12620181Y-7220963D01*
X12619211Y-7290450D01*
X12640452Y-7406183D01*
X12683768Y-7515586D01*
X12747509Y-7614492D01*
X12829247Y-7699134D01*
X12900449Y-7748621D01*
X12666743Y-7883551D01*
X12627274Y-7910737D01*
X12569647Y-7972983D01*
X12531643Y-8048820D01*
X12516271Y-8132241D01*
X12524748Y-8216642D01*
X12556404Y-8295341D01*
X12956404Y-8988161D01*
X12983590Y-9027629D01*
X13045836Y-9085256D01*
X13121672Y-9123260D01*
X13205094Y-9138632D01*
X13289495Y-9130155D01*
X13368193Y-9098499D01*
X13498172Y-9023456D01*
X13497681Y-9026120D01*
X13506158Y-9110522D01*
X13537814Y-9189220D01*
X13787814Y-9622232D01*
X13815000Y-9661700D01*
X13877246Y-9719327D01*
X13953082Y-9757331D01*
X14036504Y-9772703D01*
X14120905Y-9764226D01*
X14199603Y-9732570D01*
X14719219Y-9432570D01*
X14758688Y-9405384D01*
X14816315Y-9343138D01*
X14854319Y-9267301D01*
X14868489Y-9190405D01*
X14895320Y-9203637D01*
X14952401Y-9218931D01*
X15011370Y-9222797D01*
X15069959Y-9215083D01*
X15125918Y-9196087D01*
X15342032Y-9071314D01*
X15369484Y-8968862D01*
X15134484Y-8561830D01*
X15117163Y-8571830D01*
X15112163Y-8563170D01*
X15129484Y-8553170D01*
X15119484Y-8535849D01*
X15128144Y-8530849D01*
X15138144Y-8548170D01*
X15155465Y-8538170D01*
X15160465Y-8546830D01*
X15143144Y-8556830D01*
X15378144Y-8963862D01*
X15480596Y-8991314D01*
X15696710Y-8866540D01*
X15741140Y-8827577D01*
X15777115Y-8780694D01*
X15803252Y-8727692D01*
X15813570Y-8689185D01*
X15906254Y-8691126D01*
X16022133Y-8670694D01*
X16131835Y-8628143D01*
X16231184Y-8565094D01*
X16246079Y-8550910D01*
X16263768Y-8595586D01*
X16327509Y-8694492D01*
X16409247Y-8779134D01*
X16505868Y-8846287D01*
X16613693Y-8893395D01*
X16728614Y-8918662D01*
X16846254Y-8921126D01*
X16962133Y-8900694D01*
X17071835Y-8858143D01*
X17171184Y-8795094D01*
X17256395Y-8713949D01*
X17324221Y-8617799D01*
X17372015Y-8510450D01*
X24839211Y-8510450D01*
X24860452Y-8626183D01*
X24903768Y-8735586D01*
X24967509Y-8834492D01*
X25049247Y-8919134D01*
X25145868Y-8986287D01*
X25253693Y-9033395D01*
X25368614Y-9058662D01*
X25486254Y-9061126D01*
X25556457Y-9048748D01*
X25521672Y-9099549D01*
X25475318Y-9207700D01*
X25450854Y-9322795D01*
X25449211Y-9440450D01*
X25470452Y-9556183D01*
X25513768Y-9665586D01*
X25577509Y-9764492D01*
X25659247Y-9849134D01*
X25755868Y-9916287D01*
X25863693Y-9963395D01*
X25978614Y-9988662D01*
X26096254Y-9991126D01*
X26212133Y-9970694D01*
X26321835Y-9928143D01*
X26421184Y-9865094D01*
X26506395Y-9783949D01*
X26574221Y-9687799D01*
X26622080Y-9580306D01*
X26648149Y-9465564D01*
X26650026Y-9331167D01*
X26627171Y-9215742D01*
X26582332Y-9106954D01*
X26517216Y-9008948D01*
X26434305Y-8925455D01*
X26336755Y-8859657D01*
X26228283Y-8814060D01*
X26113021Y-8790400D01*
X25995357Y-8789578D01*
X25933476Y-8801383D01*
X25964221Y-8757799D01*
X26012080Y-8650306D01*
X26030541Y-8569052D01*
X26069247Y-8609134D01*
X26165868Y-8676287D01*
X26273693Y-8723395D01*
X26388614Y-8748662D01*
X26506254Y-8751126D01*
X26614449Y-8732049D01*
X26623768Y-8755586D01*
X26687509Y-8854492D01*
X26769247Y-8939134D01*
X26865868Y-9006287D01*
X26973693Y-9053395D01*
X27088614Y-9078662D01*
X27206254Y-9081126D01*
X27322133Y-9060694D01*
X27431835Y-9018143D01*
X27531184Y-8955094D01*
X27616395Y-8873949D01*
X27684221Y-8777799D01*
X27732080Y-8670306D01*
X27758149Y-8555564D01*
X27760026Y-8421167D01*
X27737171Y-8305742D01*
X27692332Y-8196954D01*
X27627216Y-8098948D01*
X27544305Y-8015455D01*
X27446755Y-7949657D01*
X27338283Y-7904060D01*
X27223021Y-7880400D01*
X27105357Y-7879578D01*
X27005395Y-7898647D01*
X26992332Y-7866954D01*
X26927216Y-7768948D01*
X26844305Y-7685455D01*
X26783464Y-7644417D01*
X26861184Y-7595094D01*
X26946395Y-7513949D01*
X27014221Y-7417799D01*
X27062080Y-7310306D01*
X27088149Y-7195564D01*
X27090026Y-7061167D01*
X27067171Y-6945742D01*
X27022332Y-6836954D01*
X26957216Y-6738948D01*
X26874305Y-6655455D01*
X26776755Y-6589657D01*
X26668283Y-6544060D01*
X26553021Y-6520400D01*
X26435357Y-6519578D01*
X26319775Y-6541627D01*
X26210677Y-6585705D01*
X26112219Y-6650135D01*
X26028150Y-6732461D01*
X25961672Y-6829549D01*
X25915318Y-6937700D01*
X25890854Y-7052795D01*
X25889211Y-7170450D01*
X25910452Y-7286183D01*
X25953768Y-7395586D01*
X26017509Y-7494492D01*
X26099247Y-7579134D01*
X26165838Y-7625416D01*
X26082219Y-7680135D01*
X25998150Y-7762461D01*
X25931672Y-7859549D01*
X25885318Y-7967700D01*
X25869702Y-8041170D01*
X25824305Y-7995455D01*
X25726755Y-7929657D01*
X25618283Y-7884060D01*
X25503021Y-7860400D01*
X25385357Y-7859578D01*
X25269775Y-7881627D01*
X25160677Y-7925705D01*
X25062219Y-7990135D01*
X24978150Y-8072461D01*
X24911672Y-8169549D01*
X24865318Y-8277700D01*
X24840854Y-8392795D01*
X24839211Y-8510450D01*
X17372015Y-8510450D01*
X17372080Y-8510306D01*
X17398149Y-8395564D01*
X17400026Y-8261167D01*
X17377171Y-8145742D01*
X17332332Y-8036954D01*
X17267216Y-7938948D01*
X17184305Y-7855455D01*
X17086755Y-7789657D01*
X16978283Y-7744060D01*
X16863021Y-7720400D01*
X16745357Y-7719578D01*
X16629775Y-7741627D01*
X16520677Y-7785705D01*
X16422219Y-7850135D01*
X16413606Y-7858569D01*
X16392332Y-7806954D01*
X16377102Y-7784031D01*
X16391184Y-7775094D01*
X16476395Y-7693949D01*
X16544221Y-7597799D01*
X16592080Y-7490306D01*
X16618149Y-7375564D01*
X16620026Y-7241167D01*
X16597171Y-7125742D01*
X16552332Y-7016954D01*
X16487216Y-6918948D01*
X16404305Y-6835455D01*
X16306755Y-6769657D01*
X16198283Y-6724060D01*
X16083021Y-6700400D01*
X16078548Y-6700369D01*
X15198214Y-5340450D01*
X16119211Y-5340450D01*
X16140452Y-5456183D01*
X16183768Y-5565586D01*
X16247509Y-5664492D01*
X16329247Y-5749134D01*
X16425868Y-5816287D01*
X16533693Y-5863395D01*
X16601023Y-5878198D01*
X16552219Y-5910135D01*
X16468150Y-5992461D01*
X16401672Y-6089549D01*
X16355318Y-6197700D01*
X16330854Y-6312795D01*
X16329211Y-6430450D01*
X16350452Y-6546183D01*
X16393768Y-6655586D01*
X16457509Y-6754492D01*
X16539247Y-6839134D01*
X16635868Y-6906287D01*
X16743693Y-6953395D01*
X16858614Y-6978662D01*
X16976254Y-6981126D01*
X17092133Y-6960694D01*
X17201835Y-6918143D01*
X17301184Y-6855094D01*
X17386395Y-6773949D01*
X17416683Y-6731012D01*
X17513693Y-6773395D01*
X17628614Y-6798662D01*
X17708366Y-6800332D01*
X17720452Y-6866183D01*
X17763768Y-6975586D01*
X17827509Y-7074492D01*
X17909247Y-7159134D01*
X18005868Y-7226287D01*
X18113693Y-7273395D01*
X18228614Y-7298662D01*
X18346254Y-7301126D01*
X18462133Y-7280694D01*
X18571835Y-7238143D01*
X18671184Y-7175094D01*
X18756395Y-7093949D01*
X18798127Y-7034790D01*
X18826879Y-7032394D01*
X18870012Y-7099323D01*
X18978995Y-7212179D01*
X19107824Y-7301717D01*
X19251590Y-7364527D01*
X19404818Y-7398216D01*
X19561672Y-7401502D01*
X19716177Y-7374258D01*
X19862447Y-7317524D01*
X19994912Y-7233459D01*
X20108526Y-7125266D01*
X20198962Y-6997066D01*
X20262774Y-6853741D01*
X20297532Y-6700752D01*
X20300034Y-6521556D01*
X20269561Y-6367656D01*
X20209776Y-6222605D01*
X20122955Y-6091930D01*
X20012407Y-5980607D01*
X19882341Y-5892876D01*
X19737711Y-5832079D01*
X19584027Y-5800533D01*
X19479786Y-5799805D01*
X19784721Y-5444047D01*
X19796364Y-5427420D01*
X19809418Y-5411863D01*
X19817310Y-5397507D01*
X19826701Y-5384096D01*
X19834893Y-5365523D01*
X19844676Y-5347728D01*
X19849627Y-5332119D01*
X19856237Y-5317134D01*
X19860666Y-5297319D01*
X19866805Y-5277967D01*
X19868631Y-5261690D01*
X19872203Y-5245709D01*
X19872699Y-5225416D01*
X19874963Y-5205236D01*
X19875000Y-5200000D01*
X19875000Y-5109558D01*
X19994912Y-5033459D01*
X20108526Y-4925266D01*
X20198962Y-4797066D01*
X20262774Y-4653741D01*
X20297532Y-4500752D01*
X20300034Y-4321556D01*
X20269561Y-4167656D01*
X20209776Y-4022605D01*
X20122955Y-3891930D01*
X20012407Y-3780607D01*
X19882341Y-3692876D01*
X19737711Y-3632079D01*
X19584027Y-3600533D01*
X19427143Y-3599437D01*
X19273034Y-3628835D01*
X19127570Y-3687607D01*
X18996291Y-3773513D01*
X18884199Y-3883282D01*
X18795562Y-4012732D01*
X18733758Y-4156934D01*
X18701139Y-4310393D01*
X18698948Y-4467266D01*
X18727270Y-4621577D01*
X18785024Y-4767448D01*
X18870012Y-4899323D01*
X18978995Y-5012179D01*
X19096866Y-5094101D01*
X18795025Y-5446250D01*
X18784305Y-5435455D01*
X18686755Y-5369657D01*
X18578283Y-5324060D01*
X18463021Y-5300400D01*
X18345357Y-5299578D01*
X18229775Y-5321627D01*
X18120677Y-5365705D01*
X18022219Y-5430135D01*
X17938150Y-5512461D01*
X17871672Y-5609549D01*
X17866490Y-5621639D01*
X17763021Y-5600400D01*
X17645357Y-5599578D01*
X17529775Y-5621627D01*
X17420677Y-5665705D01*
X17322219Y-5730135D01*
X17238150Y-5812461D01*
X17213592Y-5848327D01*
X17108283Y-5804060D01*
X17048969Y-5791885D01*
X17091184Y-5765094D01*
X17176395Y-5683949D01*
X17244221Y-5587799D01*
X17292080Y-5480306D01*
X17318149Y-5365564D01*
X17320026Y-5231167D01*
X17297171Y-5115742D01*
X17252332Y-5006954D01*
X17187216Y-4908948D01*
X17104305Y-4825455D01*
X17006755Y-4759657D01*
X16898283Y-4714060D01*
X16783021Y-4690400D01*
X16665357Y-4689578D01*
X16549775Y-4711627D01*
X16440677Y-4755705D01*
X16342219Y-4820135D01*
X16258150Y-4902461D01*
X16191672Y-4999549D01*
X16145318Y-5107700D01*
X16120854Y-5222795D01*
X16119211Y-5340450D01*
X15198214Y-5340450D01*
X14994798Y-5026218D01*
X14979205Y-5006627D01*
X14964832Y-4986081D01*
X14956448Y-4978035D01*
X14949221Y-4968954D01*
X14930115Y-4952761D01*
X14912030Y-4935403D01*
X14902246Y-4929140D01*
X14893390Y-4921634D01*
X14871504Y-4909461D01*
X14850390Y-4895945D01*
X14839573Y-4891701D01*
X14829430Y-4886059D01*
X14805590Y-4878366D01*
X14782260Y-4869212D01*
X14770832Y-4867151D01*
X14759779Y-4863584D01*
X14734897Y-4860669D01*
X14710235Y-4856220D01*
X14698618Y-4856418D01*
X14687089Y-4855067D01*
X14662120Y-4857039D01*
X14637058Y-4857466D01*
X14625705Y-4859916D01*
X14614129Y-4860830D01*
X14590007Y-4867618D01*
X14565518Y-4872902D01*
X14554861Y-4877508D01*
X14553025Y-4878025D01*
X14592080Y-4790306D01*
X14618149Y-4675564D01*
X14620026Y-4541167D01*
X14597171Y-4425742D01*
X14552332Y-4316954D01*
X14487216Y-4218948D01*
X14404305Y-4135455D01*
X14306755Y-4069657D01*
X14198283Y-4024060D01*
X14083021Y-4000400D01*
X13965357Y-3999578D01*
X13849775Y-4021627D01*
X13740677Y-4065705D01*
X13642219Y-4130135D01*
X13558150Y-4212461D01*
X13491672Y-4309549D01*
X13445318Y-4417700D01*
X13436808Y-4457735D01*
X13402186Y-4397768D01*
X13375000Y-4358300D01*
X13312754Y-4300673D01*
X13236918Y-4262669D01*
X13153496Y-4247297D01*
X13069095Y-4255774D01*
X12990397Y-4287430D01*
X12470781Y-4587430D01*
X12431312Y-4614616D01*
X12373685Y-4676862D01*
X12335681Y-4752699D01*
X12321511Y-4829595D01*
X12294680Y-4816363D01*
X12237599Y-4801069D01*
X12178630Y-4797203D01*
X12120041Y-4804917D01*
X12064082Y-4823913D01*
X11847968Y-4948686D01*
X11820516Y-5051138D01*
X12055516Y-5458170D01*
X12072837Y-5448170D01*
X12077837Y-5456830D01*
X12060516Y-5466830D01*
X12070516Y-5484151D01*
X12061856Y-5489151D01*
X12051856Y-5471830D01*
X11601523Y-5731830D01*
X11574071Y-5834282D01*
X11644297Y-5955918D01*
X11673845Y-6007096D01*
X11712809Y-6051525D01*
X11759692Y-6087500D01*
X11769348Y-6092262D01*
X11666743Y-6151501D01*
X11627274Y-6178687D01*
X11569647Y-6240933D01*
X11531643Y-6316770D01*
X11516271Y-6400191D01*
X11274275Y-6400191D01*
X11252332Y-6346954D01*
X11187216Y-6248948D01*
X11104305Y-6165455D01*
X11006755Y-6099657D01*
X10898283Y-6054060D01*
X10783021Y-6030400D01*
X10665357Y-6029578D01*
X10549775Y-6051627D01*
X10440677Y-6095705D01*
X10342219Y-6160135D01*
X10258150Y-6242461D01*
X10236891Y-6273509D01*
X10227216Y-6258948D01*
X10144305Y-6175455D01*
X10073980Y-6128020D01*
X10971307Y-5420926D01*
X10992937Y-5408356D01*
X11367588Y-5408356D01*
X11375302Y-5466946D01*
X11394297Y-5522904D01*
X11423844Y-5574082D01*
X11494071Y-5695718D01*
X11596523Y-5723170D01*
X12046856Y-5463170D01*
X11811856Y-5056138D01*
X11709404Y-5028686D01*
X11493290Y-5153460D01*
X11448860Y-5192423D01*
X11412885Y-5239306D01*
X11386748Y-5292308D01*
X11371453Y-5349388D01*
X11367588Y-5408356D01*
X10992937Y-5408356D01*
X13573175Y-3908897D01*
X16628612Y-2720125D01*
X18697503Y-2268730D01*
X18665459Y-2343495D01*
X18640995Y-2458590D01*
X18639352Y-2576245D01*
X18660593Y-2691978D01*
X18703909Y-2801381D01*
X18767650Y-2900287D01*
X18849388Y-2984929D01*
X18946009Y-3052082D01*
X19053834Y-3099190D01*
X19168755Y-3124457D01*
X19286395Y-3126921D01*
X19402274Y-3106489D01*
X19511976Y-3063938D01*
X19611325Y-3000889D01*
X19696536Y-2919744D01*
X19764362Y-2823594D01*
X19812221Y-2716101D01*
X19838290Y-2601359D01*
X19840167Y-2466962D01*
X19817312Y-2351537D01*
X19772473Y-2242749D01*
X19707357Y-2144743D01*
X19654323Y-2091337D01*
X21169622Y-1908456D01*
X21199247Y-1939134D01*
X21295868Y-2006287D01*
X21403693Y-2053395D01*
X21518614Y-2078662D01*
X21636254Y-2081126D01*
X21752133Y-2060694D01*
X21861835Y-2018143D01*
X21961184Y-1955094D01*
X22046395Y-1873949D01*
X22114221Y-1777799D01*
X22162080Y-1670306D01*
X22188149Y-1555564D01*
X22190026Y-1421167D01*
X22169004Y-1315000D01*
X22200125Y-1315000D01*
X22199211Y-1380450D01*
X22220452Y-1496183D01*
X22263768Y-1605586D01*
X22327509Y-1704492D01*
X22409247Y-1789134D01*
X22505868Y-1856287D01*
X22613693Y-1903395D01*
X22728614Y-1928662D01*
X22846254Y-1931126D01*
X22962133Y-1910694D01*
X23071835Y-1868143D01*
X23171184Y-1805094D01*
X23256395Y-1723949D01*
X23324221Y-1627799D01*
X23327544Y-1620336D01*
X23330452Y-1636183D01*
X23373768Y-1745586D01*
X23437509Y-1844492D01*
X23519247Y-1929134D01*
X23589578Y-1978015D01*
X23584199Y-1983282D01*
X23495562Y-2112732D01*
X23433758Y-2256934D01*
X23401139Y-2410393D01*
X23398948Y-2567266D01*
X23427270Y-2721577D01*
X23485024Y-2867448D01*
X23570012Y-2999323D01*
X23678995Y-3112179D01*
X23807824Y-3201717D01*
X23951590Y-3264527D01*
X24104818Y-3298216D01*
X24261672Y-3301502D01*
X24416177Y-3274258D01*
X24562447Y-3217524D01*
X24694912Y-3133459D01*
X24703854Y-3124944D01*
X24705053Y-3196302D01*
X24706592Y-3209680D01*
X24706468Y-3223156D01*
X24710767Y-3245969D01*
X24713418Y-3269009D01*
X24717526Y-3281833D01*
X24720022Y-3295077D01*
X24728667Y-3316611D01*
X24735745Y-3338707D01*
X24742270Y-3350496D01*
X24747288Y-3362996D01*
X24759949Y-3382439D01*
X24763182Y-3388280D01*
X24733758Y-3456934D01*
X24701139Y-3610393D01*
X24698948Y-3767266D01*
X24727270Y-3921577D01*
X24785024Y-4067448D01*
X24870012Y-4199323D01*
X24978995Y-4312179D01*
X25107824Y-4401717D01*
X25251590Y-4464527D01*
X25404818Y-4498216D01*
X25561672Y-4501502D01*
X25716177Y-4474258D01*
X25862447Y-4417524D01*
X25994912Y-4333459D01*
X26108526Y-4225266D01*
X26198962Y-4097066D01*
X26262774Y-3953741D01*
X26297532Y-3800752D01*
X26300034Y-3621556D01*
X26269561Y-3467656D01*
X26209776Y-3322605D01*
X26122955Y-3191930D01*
X26012407Y-3080607D01*
X25893275Y-3000251D01*
X26001835Y-2958143D01*
X26101184Y-2895094D01*
X26186395Y-2813949D01*
X26254221Y-2717799D01*
X26302080Y-2610306D01*
X26318845Y-2536514D01*
X26328614Y-2538662D01*
X26446254Y-2541126D01*
X26562133Y-2520694D01*
X26671835Y-2478143D01*
X26771184Y-2415094D01*
X26856395Y-2333949D01*
X26924221Y-2237799D01*
X26972080Y-2130306D01*
X26998149Y-2015564D01*
X27000026Y-1881167D01*
X26977171Y-1765742D01*
X26932332Y-1656954D01*
X26867216Y-1558948D01*
X26784305Y-1475455D01*
X26686755Y-1409657D01*
X26578283Y-1364060D01*
X26463021Y-1340400D01*
X26345357Y-1339578D01*
X26229775Y-1361627D01*
X26120677Y-1405705D01*
X26022219Y-1470135D01*
X25938150Y-1552461D01*
X25871672Y-1649549D01*
X25825318Y-1757700D01*
X25811198Y-1824131D01*
X25793021Y-1820400D01*
X25675357Y-1819578D01*
X25559775Y-1841627D01*
X25450677Y-1885705D01*
X25421413Y-1904855D01*
X25417076Y-1891315D01*
X25408448Y-1861405D01*
X25405932Y-1856529D01*
X25404255Y-1851293D01*
X25389162Y-1824024D01*
X25374892Y-1796364D01*
X25372019Y-1791987D01*
X25313474Y-1704170D01*
X25338149Y-1595564D01*
X25340026Y-1461167D01*
X25317171Y-1345742D01*
X25272332Y-1236954D01*
X25207216Y-1138948D01*
X25124305Y-1055455D01*
X25026755Y-989657D01*
X24918283Y-944060D01*
X24803021Y-920400D01*
X24685357Y-919578D01*
X24569775Y-941627D01*
X24460677Y-985705D01*
X24362219Y-1050135D01*
X24350282Y-1061825D01*
X24294305Y-1005455D01*
X24196755Y-939657D01*
X24088283Y-894060D01*
X23973021Y-870400D01*
X23855357Y-869578D01*
X23739775Y-891627D01*
X23630677Y-935705D01*
X23532219Y-1000135D01*
X23448150Y-1082461D01*
X23381837Y-1179308D01*
X23377171Y-1155742D01*
X23332332Y-1046954D01*
X23267216Y-948948D01*
X23184305Y-865455D01*
X23086755Y-799657D01*
X22978283Y-754060D01*
X22863021Y-730400D01*
X22811605Y-730041D01*
X22797234Y-711358D01*
X22781936Y-695050D01*
X22767927Y-677626D01*
X22756957Y-668421D01*
X22747163Y-657980D01*
X22728996Y-644958D01*
X22711863Y-630582D01*
X22699313Y-623683D01*
X22687678Y-615343D01*
X22667323Y-606096D01*
X22647728Y-595324D01*
X22634079Y-590994D01*
X22621044Y-585073D01*
X22599277Y-579955D01*
X22577967Y-573195D01*
X22563743Y-571600D01*
X22549800Y-568321D01*
X22527446Y-567528D01*
X22505236Y-565037D01*
X22500000Y-565000D01*
X21390000Y-565000D01*
X21362646Y-567682D01*
X21335170Y-569030D01*
X21326279Y-571248D01*
X21317162Y-572142D01*
X21290838Y-580090D01*
X21264160Y-586745D01*
X21255872Y-590646D01*
X21247099Y-593295D01*
X21222816Y-606207D01*
X21197943Y-617915D01*
X21193464Y-620628D01*
X20745382Y-896370D01*
X19179332Y-1067212D01*
X19161618Y-1070921D01*
X19143633Y-1072859D01*
X19138514Y-1073960D01*
X16308514Y-1703960D01*
X16283508Y-1712158D01*
X16258114Y-1718958D01*
X16253225Y-1720833D01*
X13113224Y-2950833D01*
X13089554Y-2962889D01*
X13065292Y-2973645D01*
X13060753Y-2976256D01*
X10340752Y-4566256D01*
X10321712Y-4580043D01*
X10301766Y-4592454D01*
X10297633Y-4595669D01*
X10293693Y-4598780D01*
X10272332Y-4546954D01*
X10207216Y-4448948D01*
X10124305Y-4365455D01*
X10026755Y-4299657D01*
X9933409Y-4260418D01*
X10346834Y-3928016D01*
X14185607Y-1921154D01*
X18341072Y-698134D01*
X22654949Y-305541D01*
X26962924Y-758327D01*
M02*
