G04 #@! TF.FileFunction,Copper,L1,Top,Signal*
%FSLAX46Y46*%
G04 Gerber Fmt 4.6, Leading zero omitted, Abs format (unit mm)*
G04 Created by KiCad (PCBNEW (2015-09-17 BZR 6202)-product) date 2015 September 30, Wednesday 13:53:37*
%MOMM*%
G01*
G04 APERTURE LIST*
%ADD10C,0.100000*%
%ADD11C,0.010000*%
%ADD12R,0.700000X1.450000*%
%ADD13R,0.600000X0.500000*%
%ADD14C,1.000000*%
%ADD15O,0.800000X0.240000*%
%ADD16O,0.240000X0.800000*%
%ADD17R,4.400000X4.400000*%
%ADD18C,1.300000*%
%ADD19R,0.800000X0.800000*%
%ADD20R,0.800000X2.500000*%
%ADD21C,0.600000*%
%ADD22C,0.300000*%
%ADD23C,0.150000*%
%ADD24C,0.500000*%
%ADD25C,1.500000*%
%ADD26C,0.200000*%
G04 APERTURE END LIST*
D10*
D11*
X45000000Y-22500000D02*
G75*
G03X45000000Y-22500000I-22500000J0D01*
G01*
X34750000Y-22500000D02*
G75*
G03X34750000Y-22500000I-12250000J0D01*
G01*
D12*
X6000000Y-19925000D03*
X6000000Y-25075000D03*
X8000000Y-25075000D03*
X8000000Y-19925000D03*
X1200000Y-19925000D03*
X1200000Y-25075000D03*
X3200000Y-25075000D03*
X3200000Y-19925000D03*
D10*
G36*
X14396766Y-5585640D02*
X14225756Y-5115794D01*
X14789572Y-4910582D01*
X14960582Y-5380428D01*
X14396766Y-5585640D01*
X14396766Y-5585640D01*
G37*
G36*
X15430428Y-5209418D02*
X15259418Y-4739572D01*
X15823234Y-4534360D01*
X15994244Y-5004206D01*
X15430428Y-5209418D01*
X15430428Y-5209418D01*
G37*
D13*
X22250000Y-700000D03*
X23350000Y-700000D03*
D10*
G36*
X16015640Y-3283234D02*
X15545794Y-3454244D01*
X15340582Y-2890428D01*
X15810428Y-2719418D01*
X16015640Y-3283234D01*
X16015640Y-3283234D01*
G37*
G36*
X15639418Y-2249572D02*
X15169572Y-2420582D01*
X14964360Y-1856766D01*
X15434206Y-1685756D01*
X15639418Y-2249572D01*
X15639418Y-2249572D01*
G37*
G36*
X11841506Y-5311122D02*
X11408494Y-5561122D01*
X11108494Y-5041506D01*
X11541506Y-4791506D01*
X11841506Y-5311122D01*
X11841506Y-5311122D01*
G37*
G36*
X11291506Y-4358494D02*
X10858494Y-4608494D01*
X10558494Y-4088878D01*
X10991506Y-3838878D01*
X11291506Y-4358494D01*
X11291506Y-4358494D01*
G37*
G36*
X17243668Y-9261477D02*
X17114258Y-8778514D01*
X17693814Y-8623223D01*
X17823224Y-9106186D01*
X17243668Y-9261477D01*
X17243668Y-9261477D01*
G37*
G36*
X18306186Y-8976777D02*
X18176776Y-8493814D01*
X18756332Y-8338523D01*
X18885742Y-8821486D01*
X18306186Y-8976777D01*
X18306186Y-8976777D01*
G37*
G36*
X27320498Y-981399D02*
X27233674Y-1473802D01*
X26642790Y-1369613D01*
X26729614Y-877210D01*
X27320498Y-981399D01*
X27320498Y-981399D01*
G37*
G36*
X26237210Y-790387D02*
X26150386Y-1282790D01*
X25559502Y-1178601D01*
X25646326Y-686198D01*
X26237210Y-790387D01*
X26237210Y-790387D01*
G37*
G36*
X16903668Y-4121477D02*
X16774258Y-3638514D01*
X17353814Y-3483223D01*
X17483224Y-3966186D01*
X16903668Y-4121477D01*
X16903668Y-4121477D01*
G37*
G36*
X17966186Y-3836777D02*
X17836776Y-3353814D01*
X18416332Y-3198523D01*
X18545742Y-3681486D01*
X17966186Y-3836777D01*
X17966186Y-3836777D01*
G37*
G36*
X28505742Y-4868514D02*
X28376332Y-5351477D01*
X27796776Y-5196186D01*
X27926186Y-4713223D01*
X28505742Y-4868514D01*
X28505742Y-4868514D01*
G37*
G36*
X27443224Y-4583814D02*
X27313814Y-5066777D01*
X26734258Y-4911486D01*
X26863668Y-4428523D01*
X27443224Y-4583814D01*
X27443224Y-4583814D01*
G37*
G36*
X28775742Y-3828514D02*
X28646332Y-4311477D01*
X28066776Y-4156186D01*
X28196186Y-3673223D01*
X28775742Y-3828514D01*
X28775742Y-3828514D01*
G37*
G36*
X27713224Y-3543814D02*
X27583814Y-4026777D01*
X27004258Y-3871486D01*
X27133668Y-3388523D01*
X27713224Y-3543814D01*
X27713224Y-3543814D01*
G37*
G36*
X33108494Y-3238878D02*
X33541506Y-3488878D01*
X33241506Y-4008494D01*
X32808494Y-3758494D01*
X33108494Y-3238878D01*
X33108494Y-3238878D01*
G37*
G36*
X32558494Y-4191506D02*
X32991506Y-4441506D01*
X32691506Y-4961122D01*
X32258494Y-4711122D01*
X32558494Y-4191506D01*
X32558494Y-4191506D01*
G37*
G36*
X29252649Y-6343984D02*
X29705802Y-6555293D01*
X29452231Y-7099078D01*
X28999078Y-6887769D01*
X29252649Y-6343984D01*
X29252649Y-6343984D01*
G37*
G36*
X28787769Y-7340922D02*
X29240922Y-7552231D01*
X28987351Y-8096016D01*
X28534198Y-7884707D01*
X28787769Y-7340922D01*
X28787769Y-7340922D01*
G37*
G36*
X27914048Y-1640561D02*
X28060233Y-1162408D01*
X28634016Y-1337831D01*
X28487831Y-1815984D01*
X27914048Y-1640561D01*
X27914048Y-1640561D01*
G37*
G36*
X28965984Y-1962169D02*
X29112169Y-1484016D01*
X29685952Y-1659439D01*
X29539767Y-2137592D01*
X28965984Y-1962169D01*
X28965984Y-1962169D01*
G37*
G36*
X32052752Y-7880326D02*
X32462328Y-8167114D01*
X32118182Y-8658606D01*
X31708606Y-8371818D01*
X32052752Y-7880326D01*
X32052752Y-7880326D01*
G37*
G36*
X31421818Y-8781394D02*
X31831394Y-9068182D01*
X31487248Y-9559674D01*
X31077672Y-9272886D01*
X31421818Y-8781394D01*
X31421818Y-8781394D01*
G37*
G36*
X32924858Y-8518166D02*
X33307880Y-8839560D01*
X32922208Y-9299186D01*
X32539186Y-8977792D01*
X32924858Y-8518166D01*
X32924858Y-8518166D01*
G37*
G36*
X32217792Y-9360814D02*
X32600814Y-9682208D01*
X32215142Y-10141834D01*
X31832120Y-9820440D01*
X32217792Y-9360814D01*
X32217792Y-9360814D01*
G37*
G36*
X18055377Y-10005979D02*
X18242681Y-10469571D01*
X17779089Y-10656875D01*
X17591785Y-10193283D01*
X18055377Y-10005979D01*
X18055377Y-10005979D01*
G37*
G36*
X17220911Y-10343125D02*
X17408215Y-10806717D01*
X16944623Y-10994021D01*
X16757319Y-10530429D01*
X17220911Y-10343125D01*
X17220911Y-10343125D01*
G37*
G36*
X26759929Y-10430744D02*
X26971239Y-9977590D01*
X27424393Y-10188900D01*
X27213083Y-10642054D01*
X26759929Y-10430744D01*
X26759929Y-10430744D01*
G37*
G36*
X27575607Y-10811100D02*
X27786917Y-10357946D01*
X28240071Y-10569256D01*
X28028761Y-11022410D01*
X27575607Y-10811100D01*
X27575607Y-10811100D01*
G37*
G36*
X19875024Y-1123131D02*
X19831446Y-625034D01*
X20429162Y-572741D01*
X20472740Y-1070838D01*
X19875024Y-1123131D01*
X19875024Y-1123131D01*
G37*
G36*
X20970838Y-1027259D02*
X20927260Y-529162D01*
X21524976Y-476869D01*
X21568554Y-974966D01*
X20970838Y-1027259D01*
X20970838Y-1027259D01*
G37*
G36*
X17524652Y-1807572D02*
X17385733Y-1019725D01*
X17976618Y-915536D01*
X18115537Y-1703383D01*
X17524652Y-1807572D01*
X17524652Y-1807572D01*
G37*
G36*
X18903382Y-1564464D02*
X18764463Y-776617D01*
X19355348Y-672428D01*
X19494267Y-1460275D01*
X18903382Y-1564464D01*
X18903382Y-1564464D01*
G37*
G36*
X29868878Y-7241506D02*
X30118878Y-6808494D01*
X30638494Y-7108494D01*
X30388494Y-7541506D01*
X29868878Y-7241506D01*
X29868878Y-7241506D01*
G37*
G36*
X30821506Y-7791506D02*
X31071506Y-7358494D01*
X31591122Y-7658494D01*
X31341122Y-8091506D01*
X30821506Y-7791506D01*
X30821506Y-7791506D01*
G37*
D14*
X14500000Y-41500000D03*
X34500000Y-5500000D03*
D10*
G36*
X4349879Y-29108447D02*
X5075016Y-28770310D01*
X5413153Y-29495447D01*
X4688016Y-29833584D01*
X4349879Y-29108447D01*
X4349879Y-29108447D01*
G37*
G36*
X5152854Y-30830432D02*
X5877991Y-30492295D01*
X6216128Y-31217432D01*
X5490991Y-31555569D01*
X5152854Y-30830432D01*
X5152854Y-30830432D01*
G37*
G36*
X6563058Y-29124634D02*
X7288195Y-28786497D01*
X7626332Y-29511634D01*
X6901195Y-29849771D01*
X6563058Y-29124634D01*
X6563058Y-29124634D01*
G37*
G36*
X16036710Y-10877390D02*
X16309030Y-11296725D01*
X15805828Y-11623508D01*
X15533508Y-11204173D01*
X16036710Y-10877390D01*
X16036710Y-10877390D01*
G37*
G36*
X15114172Y-11476492D02*
X15386492Y-11895827D01*
X14883290Y-12222610D01*
X14610970Y-11803275D01*
X15114172Y-11476492D01*
X15114172Y-11476492D01*
G37*
G36*
X28876016Y-9632649D02*
X28664707Y-10085802D01*
X28120922Y-9832231D01*
X28332231Y-9379078D01*
X28876016Y-9632649D01*
X28876016Y-9632649D01*
G37*
G36*
X27879078Y-9167769D02*
X27667769Y-9620922D01*
X27123984Y-9367351D01*
X27335293Y-8914198D01*
X27879078Y-9167769D01*
X27879078Y-9167769D01*
G37*
G36*
X3093674Y-26606198D02*
X3180498Y-27098601D01*
X2589614Y-27202790D01*
X2502790Y-26710387D01*
X3093674Y-26606198D01*
X3093674Y-26606198D01*
G37*
G36*
X2010386Y-26797210D02*
X2097210Y-27289613D01*
X1506326Y-27393802D01*
X1419502Y-26901399D01*
X2010386Y-26797210D01*
X2010386Y-26797210D01*
G37*
G36*
X28793253Y-6019850D02*
X28559356Y-6784893D01*
X27985573Y-6609470D01*
X28219470Y-5844427D01*
X28793253Y-6019850D01*
X28793253Y-6019850D01*
G37*
G36*
X27454427Y-5610530D02*
X27220530Y-6375573D01*
X26646747Y-6200150D01*
X26880644Y-5435107D01*
X27454427Y-5610530D01*
X27454427Y-5610530D01*
G37*
D15*
X19500000Y-3300000D03*
X19500000Y-3700000D03*
X19500000Y-4100000D03*
X19500000Y-4500000D03*
X19500000Y-4900000D03*
X19500000Y-5300000D03*
X19500000Y-5700000D03*
X19500000Y-6100000D03*
X19500000Y-6500000D03*
X19500000Y-6900000D03*
X19500000Y-7300000D03*
X19500000Y-7700000D03*
D16*
X20300000Y-8500000D03*
X20700000Y-8500000D03*
X21100000Y-8500000D03*
X21500000Y-8500000D03*
X21900000Y-8500000D03*
X22300000Y-8500000D03*
X22700000Y-8500000D03*
X23100000Y-8500000D03*
X23500000Y-8500000D03*
X23900000Y-8500000D03*
X24300000Y-8500000D03*
X24700000Y-8500000D03*
D15*
X25500000Y-7700000D03*
X25500000Y-7300000D03*
X25500000Y-6900000D03*
X25500000Y-6500000D03*
X25500000Y-6100000D03*
X25500000Y-5700000D03*
X25500000Y-5300000D03*
X25500000Y-4900000D03*
X25500000Y-4500000D03*
X25500000Y-4100000D03*
X25500000Y-3700000D03*
X25500000Y-3300000D03*
D16*
X24700000Y-2500000D03*
X24300000Y-2500000D03*
X23900000Y-2500000D03*
X23500000Y-2500000D03*
X23100000Y-2500000D03*
X22700000Y-2500000D03*
X22300000Y-2500000D03*
X21900000Y-2500000D03*
X21500000Y-2500000D03*
X21100000Y-2500000D03*
X20700000Y-2500000D03*
X20300000Y-2500000D03*
D17*
X22500000Y-5500000D03*
D10*
G36*
X12928831Y-8340321D02*
X13103831Y-8643429D01*
X12584215Y-8943429D01*
X12409215Y-8640321D01*
X12928831Y-8340321D01*
X12928831Y-8340321D01*
G37*
G36*
X12603831Y-7777404D02*
X12778831Y-8080512D01*
X12259215Y-8380512D01*
X12084215Y-8077404D01*
X12603831Y-7777404D01*
X12603831Y-7777404D01*
G37*
G36*
X12278831Y-7214488D02*
X12453831Y-7517596D01*
X11934215Y-7817596D01*
X11759215Y-7514488D01*
X12278831Y-7214488D01*
X12278831Y-7214488D01*
G37*
G36*
X11953831Y-6651571D02*
X12128831Y-6954679D01*
X11609215Y-7254679D01*
X11434215Y-6951571D01*
X11953831Y-6651571D01*
X11953831Y-6651571D01*
G37*
G36*
X13815785Y-5576571D02*
X13990785Y-5879679D01*
X13471169Y-6179679D01*
X13296169Y-5876571D01*
X13815785Y-5576571D01*
X13815785Y-5576571D01*
G37*
G36*
X14140785Y-6139488D02*
X14315785Y-6442596D01*
X13796169Y-6742596D01*
X13621169Y-6439488D01*
X14140785Y-6139488D01*
X14140785Y-6139488D01*
G37*
G36*
X14465785Y-6702404D02*
X14640785Y-7005512D01*
X14121169Y-7305512D01*
X13946169Y-7002404D01*
X14465785Y-6702404D01*
X14465785Y-6702404D01*
G37*
G36*
X14790785Y-7265321D02*
X14965785Y-7568429D01*
X14446169Y-7868429D01*
X14271169Y-7565321D01*
X14790785Y-7265321D01*
X14790785Y-7265321D01*
G37*
G36*
X10179379Y-8058058D02*
X10356156Y-8234835D01*
X10073313Y-8517678D01*
X9896536Y-8340901D01*
X10179379Y-8058058D01*
X10179379Y-8058058D01*
G37*
G36*
X9825825Y-7704505D02*
X10002602Y-7881282D01*
X9719759Y-8164125D01*
X9542982Y-7987348D01*
X9825825Y-7704505D01*
X9825825Y-7704505D01*
G37*
G36*
X9472272Y-7350951D02*
X9649049Y-7527728D01*
X9366206Y-7810571D01*
X9189429Y-7633794D01*
X9472272Y-7350951D01*
X9472272Y-7350951D01*
G37*
G36*
X9118718Y-6997398D02*
X9295495Y-7174175D01*
X9012652Y-7457018D01*
X8835875Y-7280241D01*
X9118718Y-6997398D01*
X9118718Y-6997398D01*
G37*
G36*
X8765165Y-6643844D02*
X8941942Y-6820621D01*
X8659099Y-7103464D01*
X8482322Y-6926687D01*
X8765165Y-6643844D01*
X8765165Y-6643844D01*
G37*
G36*
X7704505Y-7174175D02*
X7881282Y-6997398D01*
X8164125Y-7280241D01*
X7987348Y-7457018D01*
X7704505Y-7174175D01*
X7704505Y-7174175D01*
G37*
G36*
X7350951Y-7527728D02*
X7527728Y-7350951D01*
X7810571Y-7633794D01*
X7633794Y-7810571D01*
X7350951Y-7527728D01*
X7350951Y-7527728D01*
G37*
G36*
X6997398Y-7881282D02*
X7174175Y-7704505D01*
X7457018Y-7987348D01*
X7280241Y-8164125D01*
X6997398Y-7881282D01*
X6997398Y-7881282D01*
G37*
G36*
X6926687Y-8482322D02*
X7103464Y-8659099D01*
X6820621Y-8941942D01*
X6643844Y-8765165D01*
X6926687Y-8482322D01*
X6926687Y-8482322D01*
G37*
G36*
X7280241Y-8835875D02*
X7457018Y-9012652D01*
X7174175Y-9295495D01*
X6997398Y-9118718D01*
X7280241Y-8835875D01*
X7280241Y-8835875D01*
G37*
G36*
X7633794Y-9189429D02*
X7810571Y-9366206D01*
X7527728Y-9649049D01*
X7350951Y-9472272D01*
X7633794Y-9189429D01*
X7633794Y-9189429D01*
G37*
G36*
X7987348Y-9542982D02*
X8164125Y-9719759D01*
X7881282Y-10002602D01*
X7704505Y-9825825D01*
X7987348Y-9542982D01*
X7987348Y-9542982D01*
G37*
G36*
X8340901Y-9896536D02*
X8517678Y-10073313D01*
X8234835Y-10356156D01*
X8058058Y-10179379D01*
X8340901Y-9896536D01*
X8340901Y-9896536D01*
G37*
G36*
X8835875Y-9719759D02*
X9012652Y-9542982D01*
X9295495Y-9825825D01*
X9118718Y-10002602D01*
X8835875Y-9719759D01*
X8835875Y-9719759D01*
G37*
G36*
X9189429Y-9366206D02*
X9366206Y-9189429D01*
X9649049Y-9472272D01*
X9472272Y-9649049D01*
X9189429Y-9366206D01*
X9189429Y-9366206D01*
G37*
G36*
X9542982Y-9012652D02*
X9719759Y-8835875D01*
X10002602Y-9118718D01*
X9825825Y-9295495D01*
X9542982Y-9012652D01*
X9542982Y-9012652D01*
G37*
G36*
X14423128Y-2214080D02*
X15057056Y-3573542D01*
X14332010Y-3911636D01*
X13698082Y-2552174D01*
X14423128Y-2214080D01*
X14423128Y-2214080D01*
G37*
G36*
X12247990Y-3228364D02*
X12881918Y-4587826D01*
X12156872Y-4925920D01*
X11522944Y-3566458D01*
X12247990Y-3228364D01*
X12247990Y-3228364D01*
G37*
G36*
X29848865Y-5011545D02*
X29123819Y-4673451D01*
X29546437Y-3767143D01*
X30271483Y-4105237D01*
X29848865Y-5011545D01*
X29848865Y-5011545D01*
G37*
G36*
X31208327Y-5645472D02*
X30483281Y-5307378D01*
X30905899Y-4401070D01*
X31630945Y-4739164D01*
X31208327Y-5645472D01*
X31208327Y-5645472D01*
G37*
G36*
X32053563Y-3832857D02*
X31328517Y-3494763D01*
X31751135Y-2588455D01*
X32476181Y-2926549D01*
X32053563Y-3832857D01*
X32053563Y-3832857D01*
G37*
G36*
X30694101Y-3198930D02*
X29969055Y-2860836D01*
X30391673Y-1954528D01*
X31116719Y-2292622D01*
X30694101Y-3198930D01*
X30694101Y-3198930D01*
G37*
D18*
X32000000Y-13000000D03*
X13000000Y-32000000D03*
X32000000Y-32000000D03*
X13000000Y-13000000D03*
D10*
G36*
X2066143Y-14823499D02*
X2817897Y-15097115D01*
X2612685Y-15660931D01*
X1860931Y-15387315D01*
X2066143Y-14823499D01*
X2066143Y-14823499D01*
G37*
G36*
X1587315Y-16139069D02*
X2339069Y-16412685D01*
X2133857Y-16976501D01*
X1382103Y-16702885D01*
X1587315Y-16139069D01*
X1587315Y-16139069D01*
G37*
G36*
X9975736Y-11379950D02*
X9410050Y-10814264D01*
X9834314Y-10390000D01*
X10400000Y-10955686D01*
X9975736Y-11379950D01*
X9975736Y-11379950D01*
G37*
G36*
X10965686Y-10390000D02*
X10400000Y-9824314D01*
X10824264Y-9400050D01*
X11389950Y-9965736D01*
X10965686Y-10390000D01*
X10965686Y-10390000D01*
G37*
G36*
X16477602Y-3325189D02*
X16270547Y-2552448D01*
X16850102Y-2397157D01*
X17057157Y-3169898D01*
X16477602Y-3325189D01*
X16477602Y-3325189D01*
G37*
G36*
X17829898Y-2962843D02*
X17622843Y-2190102D01*
X18202398Y-2034811D01*
X18409453Y-2807552D01*
X17829898Y-2962843D01*
X17829898Y-2962843D01*
G37*
G36*
X10497115Y-17518320D02*
X10172115Y-18081236D01*
X8699871Y-17231236D01*
X9024871Y-16668320D01*
X10497115Y-17518320D01*
X10497115Y-17518320D01*
G37*
G36*
X11132115Y-16418468D02*
X10807115Y-16981384D01*
X9334871Y-16131384D01*
X9659871Y-15568468D01*
X11132115Y-16418468D01*
X11132115Y-16418468D01*
G37*
G36*
X11767115Y-15318616D02*
X11442115Y-15881532D01*
X9969871Y-15031532D01*
X10294871Y-14468616D01*
X11767115Y-15318616D01*
X11767115Y-15318616D01*
G37*
G36*
X12402115Y-14218764D02*
X12077115Y-14781680D01*
X10604871Y-13931680D01*
X10929871Y-13368764D01*
X12402115Y-14218764D01*
X12402115Y-14218764D01*
G37*
G36*
X6080129Y-10568764D02*
X5755129Y-11131680D01*
X4282885Y-10281680D01*
X4607885Y-9718764D01*
X6080129Y-10568764D01*
X6080129Y-10568764D01*
G37*
G36*
X5445129Y-11668616D02*
X5120129Y-12231532D01*
X3647885Y-11381532D01*
X3972885Y-10818616D01*
X5445129Y-11668616D01*
X5445129Y-11668616D01*
G37*
G36*
X4810129Y-12768468D02*
X4485129Y-13331384D01*
X3012885Y-12481384D01*
X3337885Y-11918468D01*
X4810129Y-12768468D01*
X4810129Y-12768468D01*
G37*
G36*
X4175129Y-13868320D02*
X3850129Y-14431236D01*
X2377885Y-13581236D01*
X2702885Y-13018320D01*
X4175129Y-13868320D01*
X4175129Y-13868320D01*
G37*
D19*
X19960000Y-41135000D03*
X19960000Y-39865000D03*
X21230000Y-41135000D03*
X21230000Y-39865000D03*
X22500000Y-41135000D03*
X22500000Y-39865000D03*
X23770000Y-41135000D03*
X23770000Y-39865000D03*
X25040000Y-41135000D03*
X25040000Y-39865000D03*
D20*
X19960000Y-42405000D03*
X19960000Y-38595000D03*
X21230000Y-42405000D03*
X21230000Y-38595000D03*
X22500000Y-42405000D03*
X22500000Y-38595000D03*
X23770000Y-42405000D03*
X23770000Y-38595000D03*
X25040000Y-42405000D03*
X25040000Y-38595000D03*
D21*
X6740000Y-30520000D03*
X4470000Y-31540000D03*
X6280000Y-32320000D03*
X9670000Y-14450000D03*
X16800000Y-8320000D03*
X14310000Y-10770000D03*
X9010000Y-11240000D03*
X3430000Y-15690000D03*
X1940000Y-28060000D03*
X8830000Y-35040000D03*
X27160000Y-8480000D03*
X14020000Y-4600000D03*
X19240141Y-2525795D03*
X26400000Y-1940000D03*
X5950000Y-28770000D03*
X4300000Y-28100000D03*
X3720000Y-29820000D03*
X9730000Y-13080000D03*
X13210000Y-9390000D03*
X16630000Y-9530000D03*
X27500000Y-1880000D03*
X24380000Y-820000D03*
X11020000Y-5600000D03*
X8480000Y-8520000D03*
X11620000Y-10660000D03*
X6010000Y-18370000D03*
X1220000Y-18480000D03*
X7940000Y-35910000D03*
X16520000Y-1490000D03*
X29240000Y-5440000D03*
X28490000Y-8570000D03*
X23500000Y-6500000D03*
X21500000Y-6500000D03*
X23500000Y-4500000D03*
X21500000Y-4500000D03*
X22500000Y-5500000D03*
X16020000Y-7300000D03*
X15860000Y-8090000D03*
X26490000Y-7120000D03*
X26460000Y-8150000D03*
X9480000Y-27180000D03*
X26050000Y-9390000D03*
X14600000Y-34000000D03*
X8020000Y-26880000D03*
X25440000Y-8460000D03*
X9380000Y-19130000D03*
X18400000Y-5900000D03*
X18300000Y-6700000D03*
X10370000Y-12340000D03*
X18360000Y-9580000D03*
X7030000Y-21360000D03*
X19560000Y-9150000D03*
X7290000Y-12440000D03*
X6750000Y-7510000D03*
X17700000Y-6200000D03*
X6970000Y-15810000D03*
X16930000Y-6380000D03*
X13220000Y-7240000D03*
X16720000Y-5290000D03*
X6890000Y-10080000D03*
X10720000Y-6630000D03*
X25730000Y-2420000D03*
X7000000Y-11520000D03*
X9740000Y-4830000D03*
X22800000Y-1330000D03*
X6110000Y-14040000D03*
X9760000Y-6640000D03*
X21590000Y-1480000D03*
X6370000Y-12630000D03*
X23910000Y-1470000D03*
X24740000Y-1520000D03*
X8600000Y-28540000D03*
D22*
X5684491Y-31023932D02*
X6740000Y-30520000D01*
X5684491Y-31023932D02*
X4470000Y-31540000D01*
X5684491Y-31023932D02*
X6280000Y-32320000D01*
X10868493Y-15175074D02*
X9670000Y-14450000D01*
X3276507Y-13724778D02*
X3911507Y-12624926D01*
X2339414Y-15242215D02*
X3276507Y-13724778D01*
D23*
X18531259Y-8657650D02*
X18110000Y-8130000D01*
X16930000Y-8420000D02*
X16800000Y-8320000D01*
X18110000Y-8130000D02*
X16930000Y-8420000D01*
X14998731Y-11849551D02*
X14310000Y-10770000D01*
X9905025Y-10884975D02*
X9510000Y-11290000D01*
X9510000Y-11290000D02*
X9010000Y-11240000D01*
X14618477Y-7566875D02*
X14870000Y-7290000D01*
X14480000Y-6190000D02*
X14400000Y-6180000D01*
X14910000Y-6950000D02*
X14480000Y-6190000D01*
X14870000Y-7290000D02*
X14910000Y-6950000D01*
X2339414Y-15242215D02*
X3430000Y-15690000D01*
X1758356Y-27095506D02*
X1940000Y-28060000D01*
X19960000Y-42405000D02*
X19960000Y-41135000D01*
X9820332Y-9720297D02*
X9768742Y-9774384D01*
X9768742Y-9774384D02*
X9420000Y-10140000D01*
X9419239Y-9419239D02*
X9631370Y-9631370D01*
X9631370Y-9631370D02*
X9631370Y-9637012D01*
X9631370Y-9637012D02*
X9768742Y-9774384D01*
X27501531Y-9267560D02*
X27160000Y-8480000D01*
X14593169Y-5248111D02*
X14020000Y-4600000D01*
X9065685Y-9772792D02*
X9420000Y-10140000D01*
X10126346Y-8287868D02*
X10660000Y-8840000D01*
X9420000Y-10140000D02*
X9811091Y-10588909D01*
X10660000Y-8840000D02*
X9820332Y-9720297D01*
X13968477Y-6441042D02*
X14400000Y-6180000D01*
X14400000Y-6180000D02*
X14430000Y-6035274D01*
X14430000Y-6035274D02*
X14593169Y-5248111D01*
X20300000Y-8500000D02*
X18531259Y-8657650D01*
X17931259Y-2557650D02*
X19240141Y-2525795D01*
X19240141Y-2525795D02*
X20300000Y-2500000D01*
X26171933Y-1981236D02*
X26400000Y-1940000D01*
X25500000Y-3300000D02*
X26350000Y-2630000D01*
X26350000Y-2630000D02*
X26171933Y-1981236D01*
X26171933Y-1981236D02*
X25898356Y-984494D01*
D22*
X4881516Y-29301947D02*
X5950000Y-28770000D01*
X4881516Y-29301947D02*
X4300000Y-28100000D01*
X4881516Y-29301947D02*
X3720000Y-29820000D01*
D23*
X11503493Y-14075222D02*
X9730000Y-13080000D01*
X15678111Y-3086831D02*
X16663852Y-2861173D01*
X17128741Y-3802350D02*
X16663852Y-2861173D01*
X12756523Y-8641875D02*
X13210000Y-9390000D01*
X14293477Y-7003958D02*
X12756523Y-8641875D01*
X17468741Y-8942350D02*
X16680000Y-9210000D01*
X16680000Y-9210000D02*
X16630000Y-9530000D01*
X28274032Y-1489196D02*
X28140000Y-1970000D01*
X27460000Y-1990000D02*
X27500000Y-1880000D01*
X27910000Y-2110000D02*
X27460000Y-1990000D01*
X28140000Y-1970000D02*
X27910000Y-2110000D01*
X23350000Y-700000D02*
X24380000Y-820000D01*
X11475000Y-5176314D02*
X11020000Y-5600000D01*
X8287868Y-10126346D02*
X8510000Y-9880000D01*
X8510000Y-9880000D02*
X8449576Y-9312013D01*
X7227208Y-9065685D02*
X7790000Y-8480000D01*
X8480000Y-8520000D02*
X8874365Y-8126689D01*
X7790000Y-8480000D02*
X8480000Y-8520000D01*
X10894975Y-9895025D02*
X11620000Y-10660000D01*
X6000000Y-19925000D02*
X6010000Y-18370000D01*
X1200000Y-19925000D02*
X1220000Y-18480000D01*
X25040000Y-42405000D02*
X25040000Y-41135000D01*
X22500000Y-42405000D02*
X22500000Y-41135000D01*
X21230000Y-42405000D02*
X21230000Y-41135000D01*
D22*
X21230000Y-41135000D02*
X22500000Y-41135000D01*
D23*
X9289670Y-8560747D02*
X8449576Y-9312013D01*
X8449576Y-9312013D02*
X8379963Y-9374265D01*
X8379963Y-9374265D02*
X7934315Y-9772792D01*
X9772792Y-9065685D02*
X9289670Y-8560747D01*
X9289670Y-8560747D02*
X8874365Y-8126689D01*
X8874365Y-8126689D02*
X8380000Y-7610000D01*
X8580000Y-7050000D02*
X8712132Y-6873654D01*
X8380000Y-7610000D02*
X8580000Y-7050000D01*
X16868741Y-2842350D02*
X16520000Y-1490000D01*
X33175000Y-3623686D02*
X33360000Y-4270000D01*
X29240000Y-5440000D02*
X29697651Y-4389344D01*
X29680000Y-5270000D02*
X29240000Y-5440000D01*
X31220000Y-5960000D02*
X29680000Y-5270000D01*
X32780000Y-5270000D02*
X31220000Y-5960000D01*
X33360000Y-4270000D02*
X32780000Y-5270000D01*
X33175000Y-3623686D02*
X31902349Y-3210656D01*
X28490000Y-8570000D02*
X27650000Y-8180000D01*
D24*
X28887560Y-7718469D02*
X28490000Y-8570000D01*
D23*
X27910000Y-5540000D02*
X28151259Y-5032350D01*
X27310000Y-7520000D02*
X27910000Y-5540000D01*
X27650000Y-8180000D02*
X27310000Y-7520000D01*
X25500000Y-5300000D02*
X26510000Y-5290000D01*
X26510000Y-5290000D02*
X26770000Y-5160000D01*
X26770000Y-5160000D02*
X27510000Y-5380000D01*
X27510000Y-5380000D02*
X28151259Y-5032350D01*
X21500000Y-2500000D02*
X21490000Y-3270000D01*
X21490000Y-3270000D02*
X22500000Y-5500000D01*
D24*
X31454533Y-9170534D02*
X30170000Y-8350000D01*
X30170000Y-8350000D02*
X28887560Y-7718469D01*
X32216467Y-9751324D02*
X31454533Y-9170534D01*
D23*
X22500000Y-5500000D02*
X23500000Y-6500000D01*
X22500000Y-5500000D02*
X21500000Y-6500000D01*
X22500000Y-5500000D02*
X23500000Y-4500000D01*
X22500000Y-5500000D02*
X21500000Y-4500000D01*
X21247907Y-752064D02*
X22250000Y-700000D01*
X21100000Y-2500000D02*
X21050000Y-1140000D01*
X21050000Y-1140000D02*
X21247907Y-752064D01*
X15511889Y-2083169D02*
X14690000Y-2450000D01*
X14690000Y-2450000D02*
X14427569Y-3052858D01*
X19500000Y-3700000D02*
X18980000Y-3790000D01*
X15540000Y-3760000D02*
X14427569Y-3052858D01*
X16790000Y-4400000D02*
X15540000Y-3760000D01*
X17540000Y-4200000D02*
X16790000Y-4400000D01*
X18380000Y-3990000D02*
X17540000Y-4200000D01*
X18980000Y-3790000D02*
X18380000Y-3990000D01*
X15180000Y-3920000D02*
X14470000Y-4220000D01*
X15610000Y-4140000D02*
X15180000Y-3920000D01*
X19500000Y-4100000D02*
X18910000Y-4130000D01*
X16710000Y-4730000D02*
X16290000Y-4530000D01*
X16980000Y-4680000D02*
X16710000Y-4730000D01*
X17680000Y-4480000D02*
X16980000Y-4680000D01*
X18620000Y-4240000D02*
X17680000Y-4480000D01*
X18910000Y-4130000D02*
X18620000Y-4240000D01*
X16290000Y-4530000D02*
X15610000Y-4140000D01*
X12830000Y-4120000D02*
X12312431Y-4007142D01*
X13500000Y-3810000D02*
X12830000Y-4120000D01*
X14470000Y-4220000D02*
X13500000Y-3810000D01*
X10925000Y-4223686D02*
X11720000Y-3770000D01*
X11720000Y-3770000D02*
X12312431Y-4007142D01*
X19500000Y-7300000D02*
X16110000Y-7400000D01*
X16110000Y-7400000D02*
X16020000Y-7300000D01*
X19500000Y-7700000D02*
X16440000Y-7730000D01*
X16440000Y-7730000D02*
X15860000Y-8090000D01*
X19500000Y-3300000D02*
X18131259Y-3457650D01*
X25500000Y-4900000D02*
X26300000Y-4880000D01*
X26300000Y-4880000D02*
X27088741Y-4747650D01*
X27358741Y-3707650D02*
X26500000Y-4390000D01*
X26360000Y-4470000D02*
X25500000Y-4500000D01*
X26500000Y-4390000D02*
X26360000Y-4470000D01*
X31057113Y-5023271D02*
X30452907Y-3862866D01*
X26290000Y-4110000D02*
X25500000Y-4100000D01*
X26540000Y-3920000D02*
X26290000Y-4110000D01*
X26780000Y-3130000D02*
X26540000Y-3920000D01*
X27424495Y-2747073D02*
X26780000Y-3130000D01*
X28239740Y-2940731D02*
X27424495Y-2747073D01*
X29407707Y-3358450D02*
X28239740Y-2940731D01*
X30452907Y-3862866D02*
X29407707Y-3358450D01*
X31057113Y-5023271D02*
X32625000Y-4576314D01*
D24*
X30253686Y-7175000D02*
X29352440Y-6721531D01*
X28389413Y-6314660D02*
X29352440Y-6721531D01*
D23*
X30542887Y-2576729D02*
X29560000Y-2100000D01*
X29560000Y-2100000D02*
X29325968Y-1810804D01*
X25500000Y-3700000D02*
X26170000Y-3730000D01*
X29456505Y-3057182D02*
X30542887Y-2576729D01*
X28601205Y-2690533D02*
X29456505Y-3057182D01*
X27300000Y-2400000D02*
X28601205Y-2690533D01*
X27270000Y-2420000D02*
X27300000Y-2400000D01*
X26470000Y-2960000D02*
X27270000Y-2420000D01*
X26460000Y-3000000D02*
X26470000Y-2960000D01*
X26290000Y-3640000D02*
X26460000Y-3000000D01*
X26170000Y-3730000D02*
X26290000Y-3640000D01*
D24*
X32923533Y-8908676D02*
X34490000Y-8790000D01*
D25*
X34490000Y-8790000D02*
X38170000Y-8530000D01*
X41790000Y-30810000D02*
X41080000Y-32290000D01*
X42330000Y-29440000D02*
X41790000Y-30810000D01*
X42830000Y-27790000D02*
X42330000Y-29440000D01*
X43190000Y-26130000D02*
X42830000Y-27790000D01*
X43440000Y-24210000D02*
X43190000Y-26130000D01*
X43500000Y-22490000D02*
X43440000Y-24210000D01*
X43430000Y-20780000D02*
X43500000Y-22490000D01*
X43220000Y-19040000D02*
X43430000Y-20780000D01*
X42930000Y-17620000D02*
X43220000Y-19040000D01*
X42550000Y-16280000D02*
X42930000Y-17620000D01*
X42130000Y-15010000D02*
X42550000Y-16280000D01*
X41590000Y-13700000D02*
X42130000Y-15010000D01*
X40980000Y-12520000D02*
X41590000Y-13700000D01*
X40300000Y-11360000D02*
X40980000Y-12520000D01*
X39300000Y-9910000D02*
X40300000Y-11360000D01*
X38170000Y-8530000D02*
X39300000Y-9910000D01*
D24*
X32085467Y-8269466D02*
X32923533Y-8908676D01*
X31206314Y-7725000D02*
X32085467Y-8269466D01*
D23*
X23100000Y-8500000D02*
X23100000Y-9480000D01*
X18220000Y-10410000D02*
X17917233Y-10331427D01*
X19040000Y-10150000D02*
X18220000Y-10410000D01*
X20220000Y-9930000D02*
X19040000Y-10150000D01*
X21480000Y-9760000D02*
X20220000Y-9930000D01*
X22780000Y-9770000D02*
X21480000Y-9760000D01*
X23100000Y-9480000D02*
X22780000Y-9770000D01*
X15921269Y-11250449D02*
X17082767Y-10668573D01*
X23900000Y-8500000D02*
X23890000Y-9010000D01*
X26520000Y-8900000D02*
X27092161Y-10309822D01*
X25910011Y-8748422D02*
X26520000Y-8900000D01*
X25400011Y-9188422D02*
X25910011Y-8748422D01*
X24020000Y-9140000D02*
X25400011Y-9188422D01*
X23890000Y-9010000D02*
X24020000Y-9140000D01*
X27907839Y-10690178D02*
X28240000Y-9900000D01*
X28240000Y-9900000D02*
X28498469Y-9732440D01*
X20152093Y-847936D02*
X19089365Y-1178446D01*
X17710635Y-1421554D02*
X18660000Y-1960000D01*
X20610000Y-1780000D02*
X20700000Y-2500000D01*
X20270000Y-1580000D02*
X20610000Y-1780000D01*
X18660000Y-1960000D02*
X20270000Y-1580000D01*
X19960000Y-38595000D02*
X19960000Y-39865000D01*
X26070000Y-7320000D02*
X26490000Y-7120000D01*
X25500000Y-7300000D02*
X26070000Y-7320000D01*
X21230000Y-38595000D02*
X21230000Y-39865000D01*
X26070000Y-7730000D02*
X26460000Y-8150000D01*
X25500000Y-7700000D02*
X26070000Y-7730000D01*
X23500000Y-8500000D02*
X23510000Y-9260000D01*
X25660000Y-9690000D02*
X26050000Y-9390000D01*
X23790000Y-9540000D02*
X25660000Y-9690000D01*
X23510000Y-9260000D02*
X23790000Y-9540000D01*
X22500000Y-38595000D02*
X22500000Y-39865000D01*
X8020000Y-26880000D02*
X8000000Y-25075000D01*
X25040000Y-38595000D02*
X25040000Y-39865000D01*
X25330000Y-8500000D02*
X25440000Y-8460000D01*
X24700000Y-8500000D02*
X25330000Y-8500000D01*
X9380000Y-19130000D02*
X8000000Y-19925000D01*
X8000000Y-25075000D02*
X8000000Y-19925000D01*
X18900000Y-6500000D02*
X18400000Y-5900000D01*
X18900000Y-6500000D02*
X19500000Y-6500000D01*
X18600000Y-6900000D02*
X19500000Y-6900000D01*
X18300000Y-6700000D02*
X18600000Y-6900000D01*
X21500000Y-8500000D02*
X21500000Y-9210000D01*
X18860000Y-9860000D02*
X18360000Y-9580000D01*
X20190000Y-9610000D02*
X18860000Y-9860000D01*
X21280000Y-9470000D02*
X20190000Y-9610000D01*
X21500000Y-9210000D02*
X21280000Y-9470000D01*
X7030000Y-21360000D02*
X3200000Y-21360000D01*
X3200000Y-25075000D02*
X3200000Y-21360000D01*
X3200000Y-21360000D02*
X3200000Y-19925000D01*
X3200000Y-25075000D02*
X2880000Y-25910000D01*
X2990000Y-26550000D02*
X2841644Y-26904494D01*
X2880000Y-25910000D02*
X2990000Y-26550000D01*
D22*
X27050587Y-5905340D02*
X26040000Y-5710000D01*
D26*
X26040000Y-5710000D02*
X25500000Y-5700000D01*
D23*
X20680000Y-9020000D02*
X20490000Y-9240000D01*
X20490000Y-9240000D02*
X19750000Y-9360000D01*
X19750000Y-9360000D02*
X19560000Y-9150000D01*
X20700000Y-8500000D02*
X20680000Y-9020000D01*
X6750000Y-7510000D02*
X7227208Y-7934315D01*
X8369238Y-16689389D02*
X9598493Y-17374778D01*
X19500000Y-5300000D02*
X18170000Y-5360000D01*
X17600000Y-5900000D02*
X17700000Y-6200000D01*
X18170000Y-5360000D02*
X17600000Y-5900000D01*
X6970000Y-15810000D02*
X8369238Y-16689389D01*
X8369238Y-16689389D02*
X8385769Y-16699778D01*
X18980000Y-4910000D02*
X18860000Y-4990000D01*
X18860000Y-4990000D02*
X18000000Y-5070000D01*
X18000000Y-5070000D02*
X17010000Y-6040000D01*
X17010000Y-6040000D02*
X16930000Y-6380000D01*
X19500000Y-4900000D02*
X18980000Y-4910000D01*
X12900000Y-7810000D02*
X13220000Y-7240000D01*
X12900000Y-7810000D02*
X12431523Y-8078958D01*
X18630000Y-4590000D02*
X17790000Y-4780000D01*
X17790000Y-4780000D02*
X16720000Y-5290000D01*
X19500000Y-4500000D02*
X18630000Y-4590000D01*
X6890000Y-10080000D02*
X7580761Y-9419239D01*
X7934315Y-7227208D02*
X7860000Y-6930000D01*
X9890000Y-5590000D02*
X10720000Y-6630000D01*
X9410000Y-5520000D02*
X9890000Y-5590000D01*
X8570000Y-6190000D02*
X9410000Y-5520000D01*
X7860000Y-6930000D02*
X8570000Y-6190000D01*
X12490000Y-7290000D02*
X12580000Y-6860000D01*
X12580000Y-6860000D02*
X12190000Y-6230000D01*
X12190000Y-6230000D02*
X11740000Y-6200000D01*
X11740000Y-6200000D02*
X10950000Y-6680000D01*
X10950000Y-6680000D02*
X10720000Y-6630000D01*
X12106523Y-7516042D02*
X12490000Y-7290000D01*
X24700000Y-2500000D02*
X25730000Y-2420000D01*
X7000000Y-11520000D02*
X5614231Y-10700222D01*
X9004665Y-15591296D02*
X10233493Y-16274926D01*
X9740000Y-4830000D02*
X8410000Y-5910000D01*
X7310000Y-7300000D02*
X7580761Y-7580761D01*
X7320000Y-7010000D02*
X7310000Y-7300000D01*
X8410000Y-5910000D02*
X7320000Y-7010000D01*
X13643477Y-5878125D02*
X12083043Y-5630799D01*
X10667363Y-6045593D02*
X9740000Y-4830000D01*
X11148809Y-6203069D02*
X10667363Y-6045593D01*
X12083043Y-5630799D02*
X11148809Y-6203069D01*
X23500000Y-2500000D02*
X23500000Y-2030000D01*
X23160000Y-1460000D02*
X22800000Y-1330000D01*
X23500000Y-2030000D02*
X23160000Y-1460000D01*
X6110000Y-14040000D02*
X9004665Y-15591296D01*
X9004665Y-15591296D02*
X9020769Y-15599926D01*
X9760000Y-6640000D02*
X10580000Y-7440000D01*
X10890000Y-7480000D02*
X11781523Y-6953125D01*
X10580000Y-7440000D02*
X10890000Y-7480000D01*
X9560000Y-6710000D02*
X9065685Y-7227208D01*
X9760000Y-6640000D02*
X9560000Y-6710000D01*
X23090000Y-2080000D02*
X22960000Y-1860000D01*
X22960000Y-1860000D02*
X21860000Y-1850000D01*
X21860000Y-1850000D02*
X21590000Y-1480000D01*
X23100000Y-2500000D02*
X23090000Y-2080000D01*
X6370000Y-12630000D02*
X4979231Y-11800074D01*
X23770000Y-42405000D02*
X23770000Y-41135000D01*
X23770000Y-38595000D02*
X23770000Y-39865000D01*
X23900000Y-2500000D02*
X23910000Y-1470000D01*
X24300000Y-2500000D02*
X24300000Y-2030000D01*
X24300000Y-2030000D02*
X24740000Y-1520000D01*
D24*
X8600000Y-28540000D02*
X7094695Y-29318134D01*
D26*
G36*
X15629819Y-4865480D02*
X15648614Y-4858639D01*
X15652033Y-4868037D01*
X15633240Y-4874877D01*
X15793989Y-5316533D01*
X15890117Y-5361358D01*
X16120088Y-5277656D01*
X16119211Y-5340450D01*
X16140452Y-5456183D01*
X16183768Y-5565586D01*
X16247509Y-5664492D01*
X16329247Y-5749134D01*
X16425868Y-5816287D01*
X16533693Y-5863395D01*
X16601023Y-5878198D01*
X16552219Y-5910135D01*
X16468150Y-5992461D01*
X16401672Y-6089549D01*
X16355318Y-6197700D01*
X16330854Y-6312795D01*
X16329211Y-6430450D01*
X16350452Y-6546183D01*
X16393768Y-6655586D01*
X16457509Y-6754492D01*
X16539247Y-6839134D01*
X16635868Y-6906287D01*
X16743693Y-6953395D01*
X16858614Y-6978662D01*
X16976254Y-6981126D01*
X17092133Y-6960694D01*
X17201835Y-6918143D01*
X17301184Y-6855094D01*
X17386395Y-6773949D01*
X17416683Y-6731012D01*
X17513693Y-6773395D01*
X17628614Y-6798662D01*
X17708366Y-6800332D01*
X17720452Y-6866183D01*
X17763768Y-6975586D01*
X17764063Y-6976044D01*
X16548966Y-7011888D01*
X16487216Y-6918948D01*
X16404305Y-6835455D01*
X16306755Y-6769657D01*
X16198283Y-6724060D01*
X16083021Y-6700400D01*
X15965357Y-6699578D01*
X15849775Y-6721627D01*
X15740677Y-6765705D01*
X15642219Y-6830135D01*
X15558150Y-6912461D01*
X15491672Y-7009549D01*
X15445318Y-7117700D01*
X15420854Y-7232795D01*
X15419211Y-7350450D01*
X15440452Y-7466183D01*
X15483768Y-7575586D01*
X15503502Y-7606207D01*
X15482219Y-7620135D01*
X15398150Y-7702461D01*
X15331672Y-7799549D01*
X15285318Y-7907700D01*
X15260854Y-8022795D01*
X15259211Y-8140450D01*
X15280452Y-8256183D01*
X15323768Y-8365586D01*
X15387509Y-8464492D01*
X15469247Y-8549134D01*
X15565868Y-8616287D01*
X15673693Y-8663395D01*
X15788614Y-8688662D01*
X15906254Y-8691126D01*
X16022133Y-8670694D01*
X16131835Y-8628143D01*
X16231184Y-8565094D01*
X16246079Y-8550910D01*
X16263768Y-8595586D01*
X16327509Y-8694492D01*
X16409247Y-8779134D01*
X16505868Y-8846287D01*
X16613693Y-8893395D01*
X16728614Y-8918662D01*
X16841864Y-8921034D01*
X16868480Y-9020367D01*
X16960336Y-9073400D01*
X17462617Y-8938814D01*
X17457441Y-8919496D01*
X17467101Y-8916907D01*
X17472277Y-8936226D01*
X17491595Y-8931050D01*
X17494184Y-8940710D01*
X17474865Y-8945886D01*
X17596510Y-9399871D01*
X17688366Y-9452904D01*
X17778731Y-9428691D01*
X17760854Y-9512795D01*
X17759211Y-9630450D01*
X17780452Y-9746183D01*
X17796067Y-9785622D01*
X17478859Y-9913783D01*
X17435991Y-9935211D01*
X17370262Y-9988832D01*
X17322074Y-10058641D01*
X17320991Y-10061889D01*
X17275083Y-10046581D01*
X17190323Y-10043230D01*
X17107985Y-10063625D01*
X16644393Y-10250929D01*
X16601525Y-10272357D01*
X16535796Y-10325978D01*
X16487608Y-10395787D01*
X16460775Y-10476257D01*
X16457424Y-10561017D01*
X16457734Y-10562270D01*
X16249786Y-10666446D01*
X16195137Y-10620926D01*
X16117415Y-10586943D01*
X16033304Y-10575958D01*
X15949462Y-10588841D01*
X15872528Y-10624572D01*
X15369326Y-10951355D01*
X15331334Y-10980570D01*
X15277044Y-11045747D01*
X15243061Y-11123468D01*
X15232727Y-11202594D01*
X15194877Y-11186045D01*
X15110766Y-11175060D01*
X15026924Y-11187943D01*
X15022706Y-11189902D01*
X14879675Y-10965708D01*
X14882080Y-10960306D01*
X14908149Y-10845564D01*
X14910026Y-10711167D01*
X14887171Y-10595742D01*
X14842332Y-10486954D01*
X14777216Y-10388948D01*
X14694305Y-10305455D01*
X14596755Y-10239657D01*
X14488283Y-10194060D01*
X14373021Y-10170400D01*
X14255357Y-10169578D01*
X14139775Y-10191627D01*
X14030677Y-10235705D01*
X13932219Y-10300135D01*
X13848150Y-10382461D01*
X13781672Y-10479549D01*
X13735318Y-10587700D01*
X13710854Y-10702795D01*
X13709211Y-10820450D01*
X13730452Y-10936183D01*
X13773768Y-11045586D01*
X13837509Y-11144492D01*
X13919247Y-11229134D01*
X14015868Y-11296287D01*
X14123693Y-11343395D01*
X14238614Y-11368662D01*
X14247232Y-11368843D01*
X14393473Y-11598068D01*
X14354506Y-11644849D01*
X14320523Y-11722570D01*
X14309538Y-11806682D01*
X14322421Y-11890524D01*
X14358152Y-11967457D01*
X14630472Y-12386792D01*
X14659686Y-12424784D01*
X14724863Y-12479074D01*
X14802585Y-12513057D01*
X14886696Y-12524042D01*
X14955097Y-12513532D01*
X13820150Y-13479447D01*
X13868992Y-13395106D01*
X13929375Y-13217982D01*
X13954044Y-13032482D01*
X13942049Y-12845733D01*
X13893852Y-12664912D01*
X13811305Y-12496968D01*
X13775213Y-12442955D01*
X13625495Y-12381576D01*
X13007071Y-13000000D01*
X13021214Y-13014143D01*
X13014143Y-13021214D01*
X13000000Y-13007071D01*
X12381576Y-13625495D01*
X12442955Y-13775213D01*
X12604894Y-13868992D01*
X12782018Y-13929375D01*
X12967518Y-13954044D01*
X13154267Y-13942049D01*
X13335088Y-13893852D01*
X13404260Y-13859853D01*
X11946686Y-15698853D01*
X10826656Y-17878196D01*
X10151260Y-20233582D01*
X9946224Y-22675295D01*
X10219357Y-25110331D01*
X10960256Y-27445941D01*
X12140700Y-29593161D01*
X13457829Y-31162853D01*
X13454029Y-31160290D01*
X13282282Y-31088094D01*
X13099783Y-31050632D01*
X12913482Y-31049332D01*
X12730478Y-31084242D01*
X12557739Y-31154033D01*
X12401846Y-31256046D01*
X12268736Y-31386397D01*
X12163480Y-31540119D01*
X12090087Y-31711359D01*
X12051352Y-31893592D01*
X12048751Y-32079879D01*
X12082382Y-32263123D01*
X12150966Y-32436344D01*
X12251889Y-32592946D01*
X12258641Y-32599937D01*
X6753792Y-38104786D01*
X6534253Y-37917943D01*
X4293210Y-35090450D01*
X8229211Y-35090450D01*
X8250452Y-35206183D01*
X8293768Y-35315586D01*
X8357509Y-35414492D01*
X8439247Y-35499134D01*
X8535868Y-35566287D01*
X8643693Y-35613395D01*
X8758614Y-35638662D01*
X8876254Y-35641126D01*
X8992133Y-35620694D01*
X9101835Y-35578143D01*
X9201184Y-35515094D01*
X9286395Y-35433949D01*
X9354221Y-35337799D01*
X9402080Y-35230306D01*
X9428149Y-35115564D01*
X9430026Y-34981167D01*
X9407171Y-34865742D01*
X9362332Y-34756954D01*
X9297216Y-34658948D01*
X9214305Y-34575455D01*
X9116755Y-34509657D01*
X9008283Y-34464060D01*
X8893021Y-34440400D01*
X8775357Y-34439578D01*
X8659775Y-34461627D01*
X8550677Y-34505705D01*
X8452219Y-34570135D01*
X8368150Y-34652461D01*
X8301672Y-34749549D01*
X8255318Y-34857700D01*
X8230854Y-34972795D01*
X8229211Y-35090450D01*
X4293210Y-35090450D01*
X3843624Y-34523214D01*
X2336389Y-31590450D01*
X3869211Y-31590450D01*
X3890452Y-31706183D01*
X3933768Y-31815586D01*
X3997509Y-31914492D01*
X4079247Y-31999134D01*
X4175868Y-32066287D01*
X4283693Y-32113395D01*
X4398614Y-32138662D01*
X4516254Y-32141126D01*
X4632133Y-32120694D01*
X4741835Y-32078143D01*
X4841184Y-32015094D01*
X4926395Y-31933949D01*
X4994221Y-31837799D01*
X5011580Y-31798810D01*
X5230681Y-31705709D01*
X5241426Y-31724655D01*
X5298413Y-31787488D01*
X5370649Y-31831957D01*
X5452413Y-31854541D01*
X5537232Y-31853452D01*
X5566339Y-31844602D01*
X5703955Y-32144110D01*
X5680854Y-32252795D01*
X5679211Y-32370450D01*
X5700452Y-32486183D01*
X5743768Y-32595586D01*
X5807509Y-32694492D01*
X5889247Y-32779134D01*
X5985868Y-32846287D01*
X6093693Y-32893395D01*
X6208614Y-32918662D01*
X6326254Y-32921126D01*
X6442133Y-32900694D01*
X6551835Y-32858143D01*
X6651184Y-32795094D01*
X6736395Y-32713949D01*
X6804221Y-32617799D01*
X6852080Y-32510306D01*
X6878149Y-32395564D01*
X6880026Y-32261167D01*
X6857171Y-32145742D01*
X6812332Y-32036954D01*
X6747216Y-31938948D01*
X6664305Y-31855455D01*
X6566755Y-31789657D01*
X6523122Y-31771315D01*
X6383692Y-31467860D01*
X6385214Y-31466997D01*
X6448047Y-31410010D01*
X6492516Y-31337774D01*
X6515100Y-31256010D01*
X6514011Y-31171191D01*
X6502159Y-31132209D01*
X6574071Y-31097875D01*
X6668614Y-31118662D01*
X6786254Y-31121126D01*
X6902133Y-31100694D01*
X7011835Y-31058143D01*
X7111184Y-30995094D01*
X7196395Y-30913949D01*
X7264221Y-30817799D01*
X7312080Y-30710306D01*
X7338149Y-30595564D01*
X7340026Y-30461167D01*
X7317171Y-30345742D01*
X7272332Y-30236954D01*
X7207216Y-30138948D01*
X7139843Y-30071102D01*
X7753731Y-29784841D01*
X7795418Y-29761199D01*
X7858251Y-29704212D01*
X7902720Y-29631976D01*
X7925304Y-29550212D01*
X7924764Y-29508186D01*
X8635289Y-29140896D01*
X8646254Y-29141126D01*
X8762133Y-29120694D01*
X8871835Y-29078143D01*
X8971184Y-29015094D01*
X9056395Y-28933949D01*
X9124221Y-28837799D01*
X9172080Y-28730306D01*
X9198149Y-28615564D01*
X9200026Y-28481167D01*
X9177171Y-28365742D01*
X9132332Y-28256954D01*
X9067216Y-28158948D01*
X8984305Y-28075455D01*
X8886755Y-28009657D01*
X8778283Y-27964060D01*
X8663021Y-27940400D01*
X8545357Y-27939578D01*
X8429775Y-27961627D01*
X8320677Y-28005705D01*
X8222219Y-28070135D01*
X8138150Y-28152461D01*
X8130579Y-28163519D01*
X7432071Y-28524597D01*
X7408537Y-28510109D01*
X7326773Y-28487525D01*
X7241954Y-28488614D01*
X7160796Y-28513290D01*
X6435659Y-28851427D01*
X6393972Y-28875069D01*
X6331139Y-28932056D01*
X6286670Y-29004292D01*
X6264086Y-29086056D01*
X6265175Y-29170875D01*
X6289851Y-29252033D01*
X6608013Y-29934333D01*
X6569775Y-29941627D01*
X6460677Y-29985705D01*
X6362219Y-30050135D01*
X6278150Y-30132461D01*
X6211672Y-30229549D01*
X6187943Y-30284913D01*
X6121565Y-30316604D01*
X6070569Y-30260376D01*
X5998333Y-30215907D01*
X5916569Y-30193323D01*
X5831750Y-30194412D01*
X5750592Y-30219088D01*
X5025455Y-30557225D01*
X4983768Y-30580867D01*
X4920935Y-30637854D01*
X4876466Y-30710090D01*
X4853882Y-30791854D01*
X4854971Y-30876673D01*
X4857879Y-30886239D01*
X4661582Y-30969650D01*
X4648283Y-30964060D01*
X4533021Y-30940400D01*
X4415357Y-30939578D01*
X4299775Y-30961627D01*
X4190677Y-31005705D01*
X4092219Y-31070135D01*
X4008150Y-31152461D01*
X3941672Y-31249549D01*
X3895318Y-31357700D01*
X3870854Y-31472795D01*
X3869211Y-31590450D01*
X2336389Y-31590450D01*
X1863611Y-30670524D01*
X1576804Y-29670306D01*
X4280865Y-29670306D01*
X4428611Y-29987148D01*
X4463554Y-30034804D01*
X4507123Y-30074729D01*
X4557645Y-30105386D01*
X4613175Y-30125597D01*
X4671582Y-30134587D01*
X4730621Y-30132009D01*
X4788022Y-30117964D01*
X4841580Y-30092989D01*
X5104865Y-29970217D01*
X5141142Y-29870548D01*
X4879098Y-29308592D01*
X4317141Y-29570636D01*
X4280865Y-29670306D01*
X1576804Y-29670306D01*
X1410981Y-29092014D01*
X4048876Y-29092014D01*
X4051454Y-29151053D01*
X4065500Y-29208454D01*
X4213246Y-29525296D01*
X4312915Y-29561573D01*
X4864500Y-29304365D01*
X4888161Y-29304365D01*
X5150205Y-29866322D01*
X5249875Y-29902598D01*
X5513160Y-29779826D01*
X5566718Y-29754852D01*
X5614374Y-29719908D01*
X5654298Y-29676339D01*
X5684955Y-29625818D01*
X5705166Y-29570288D01*
X5714156Y-29511880D01*
X5711578Y-29452841D01*
X5697532Y-29395440D01*
X5549786Y-29078598D01*
X5450117Y-29042321D01*
X4888161Y-29304365D01*
X4864500Y-29304365D01*
X4874871Y-29299529D01*
X4612827Y-28737572D01*
X4601216Y-28733346D01*
X4621890Y-28733346D01*
X4883934Y-29295302D01*
X5445891Y-29033258D01*
X5482167Y-28933588D01*
X5334421Y-28616746D01*
X5299478Y-28569090D01*
X5255909Y-28529165D01*
X5205387Y-28498508D01*
X5149857Y-28478297D01*
X5091450Y-28469307D01*
X5032411Y-28471885D01*
X4975010Y-28485930D01*
X4921452Y-28510905D01*
X4658167Y-28633677D01*
X4621890Y-28733346D01*
X4601216Y-28733346D01*
X4513157Y-28701296D01*
X4249872Y-28824068D01*
X4196314Y-28849042D01*
X4148658Y-28883986D01*
X4108734Y-28927555D01*
X4078077Y-28978076D01*
X4057866Y-29033606D01*
X4048876Y-29092014D01*
X1410981Y-29092014D01*
X773532Y-26868967D01*
X1119801Y-26868967D01*
X1122631Y-26953745D01*
X1209455Y-27446148D01*
X1221502Y-27492535D01*
X1260285Y-27567976D01*
X1318550Y-27629626D01*
X1391683Y-27672602D01*
X1465247Y-27691305D01*
X1411672Y-27769549D01*
X1365318Y-27877700D01*
X1340854Y-27992795D01*
X1339211Y-28110450D01*
X1360452Y-28226183D01*
X1403768Y-28335586D01*
X1467509Y-28434492D01*
X1549247Y-28519134D01*
X1645868Y-28586287D01*
X1753693Y-28633395D01*
X1868614Y-28658662D01*
X1986254Y-28661126D01*
X2102133Y-28640694D01*
X2211835Y-28598143D01*
X2311184Y-28535094D01*
X2396395Y-28453949D01*
X2464221Y-28357799D01*
X2512080Y-28250306D01*
X2538149Y-28135564D01*
X2540026Y-28001167D01*
X2517171Y-27885742D01*
X2472332Y-27776954D01*
X2407216Y-27678948D01*
X2324305Y-27595455D01*
X2251103Y-27546080D01*
X2271384Y-27535654D01*
X2333034Y-27477389D01*
X2373463Y-27408590D01*
X2401838Y-27438614D01*
X2474971Y-27481590D01*
X2557182Y-27502491D01*
X2641961Y-27499661D01*
X3232845Y-27395472D01*
X3279231Y-27383425D01*
X3354672Y-27344642D01*
X3416322Y-27286377D01*
X3459298Y-27213244D01*
X3480199Y-27131033D01*
X3477369Y-27046255D01*
X3390545Y-26553852D01*
X3378498Y-26507465D01*
X3355499Y-26462727D01*
X3293404Y-26101451D01*
X3550000Y-26101451D01*
X3597774Y-26097641D01*
X3678803Y-26072548D01*
X3749634Y-26025874D01*
X3804657Y-25961315D01*
X3839516Y-25883982D01*
X3851451Y-25800000D01*
X3851451Y-25155000D01*
X5350000Y-25155000D01*
X5350000Y-25829547D01*
X5361529Y-25887506D01*
X5384143Y-25942103D01*
X5416975Y-25991239D01*
X5458761Y-26033025D01*
X5507896Y-26065856D01*
X5562493Y-26088471D01*
X5620452Y-26100000D01*
X5920000Y-26100000D01*
X5995000Y-26025000D01*
X5995000Y-25080000D01*
X6005000Y-25080000D01*
X6005000Y-26025000D01*
X6080000Y-26100000D01*
X6379548Y-26100000D01*
X6437507Y-26088471D01*
X6492104Y-26065856D01*
X6541239Y-26033025D01*
X6583025Y-25991239D01*
X6615857Y-25942103D01*
X6638471Y-25887506D01*
X6650000Y-25829547D01*
X6650000Y-25155000D01*
X6575000Y-25080000D01*
X6005000Y-25080000D01*
X5995000Y-25080000D01*
X5425000Y-25080000D01*
X5350000Y-25155000D01*
X3851451Y-25155000D01*
X3851451Y-24350000D01*
X3849095Y-24320453D01*
X5350000Y-24320453D01*
X5350000Y-24995000D01*
X5425000Y-25070000D01*
X5995000Y-25070000D01*
X5995000Y-24125000D01*
X6005000Y-24125000D01*
X6005000Y-25070000D01*
X6575000Y-25070000D01*
X6650000Y-24995000D01*
X6650000Y-24320453D01*
X6638471Y-24262494D01*
X6615857Y-24207897D01*
X6583025Y-24158761D01*
X6541239Y-24116975D01*
X6492104Y-24084144D01*
X6437507Y-24061529D01*
X6379548Y-24050000D01*
X6080000Y-24050000D01*
X6005000Y-24125000D01*
X5995000Y-24125000D01*
X5920000Y-24050000D01*
X5620452Y-24050000D01*
X5562493Y-24061529D01*
X5507896Y-24084144D01*
X5458761Y-24116975D01*
X5416975Y-24158761D01*
X5384143Y-24207897D01*
X5361529Y-24262494D01*
X5350000Y-24320453D01*
X3849095Y-24320453D01*
X3847641Y-24302226D01*
X3822548Y-24221197D01*
X3775874Y-24150366D01*
X3711315Y-24095343D01*
X3633982Y-24060484D01*
X3575000Y-24052102D01*
X3575000Y-21735000D01*
X6558000Y-21735000D01*
X6639247Y-21819134D01*
X6735868Y-21886287D01*
X6843693Y-21933395D01*
X6958614Y-21958662D01*
X7076254Y-21961126D01*
X7192133Y-21940694D01*
X7301835Y-21898143D01*
X7401184Y-21835094D01*
X7486395Y-21753949D01*
X7554221Y-21657799D01*
X7602080Y-21550306D01*
X7625000Y-21449424D01*
X7625000Y-24050543D01*
X7602226Y-24052359D01*
X7521197Y-24077452D01*
X7450366Y-24124126D01*
X7395343Y-24188685D01*
X7360484Y-24266018D01*
X7348549Y-24350000D01*
X7348549Y-25800000D01*
X7352359Y-25847774D01*
X7377452Y-25928803D01*
X7424126Y-25999634D01*
X7488685Y-26054657D01*
X7566018Y-26089516D01*
X7636329Y-26099508D01*
X7639797Y-26412507D01*
X7558150Y-26492461D01*
X7491672Y-26589549D01*
X7445318Y-26697700D01*
X7420854Y-26812795D01*
X7419211Y-26930450D01*
X7440452Y-27046183D01*
X7483768Y-27155586D01*
X7547509Y-27254492D01*
X7629247Y-27339134D01*
X7725868Y-27406287D01*
X7833693Y-27453395D01*
X7948614Y-27478662D01*
X8066254Y-27481126D01*
X8182133Y-27460694D01*
X8291835Y-27418143D01*
X8391184Y-27355094D01*
X8476395Y-27273949D01*
X8507080Y-27230450D01*
X8879211Y-27230450D01*
X8900452Y-27346183D01*
X8943768Y-27455586D01*
X9007509Y-27554492D01*
X9089247Y-27639134D01*
X9185868Y-27706287D01*
X9293693Y-27753395D01*
X9408614Y-27778662D01*
X9526254Y-27781126D01*
X9642133Y-27760694D01*
X9751835Y-27718143D01*
X9851184Y-27655094D01*
X9936395Y-27573949D01*
X10004221Y-27477799D01*
X10052080Y-27370306D01*
X10078149Y-27255564D01*
X10080026Y-27121167D01*
X10057171Y-27005742D01*
X10012332Y-26896954D01*
X9947216Y-26798948D01*
X9864305Y-26715455D01*
X9766755Y-26649657D01*
X9658283Y-26604060D01*
X9543021Y-26580400D01*
X9425357Y-26579578D01*
X9309775Y-26601627D01*
X9200677Y-26645705D01*
X9102219Y-26710135D01*
X9018150Y-26792461D01*
X8951672Y-26889549D01*
X8905318Y-26997700D01*
X8880854Y-27112795D01*
X8879211Y-27230450D01*
X8507080Y-27230450D01*
X8544221Y-27177799D01*
X8592080Y-27070306D01*
X8618149Y-26955564D01*
X8620026Y-26821167D01*
X8597171Y-26705742D01*
X8552332Y-26596954D01*
X8487216Y-26498948D01*
X8404305Y-26415455D01*
X8389767Y-26405649D01*
X8386364Y-26098551D01*
X8397774Y-26097641D01*
X8478803Y-26072548D01*
X8549634Y-26025874D01*
X8604657Y-25961315D01*
X8639516Y-25883982D01*
X8651451Y-25800000D01*
X8651451Y-24350000D01*
X8647641Y-24302226D01*
X8622548Y-24221197D01*
X8575874Y-24150366D01*
X8511315Y-24095343D01*
X8433982Y-24060484D01*
X8375000Y-24052102D01*
X8375000Y-20949457D01*
X8397774Y-20947641D01*
X8478803Y-20922548D01*
X8549634Y-20875874D01*
X8604657Y-20811315D01*
X8639516Y-20733982D01*
X8651451Y-20650000D01*
X8651451Y-19982483D01*
X9160829Y-19689037D01*
X9193693Y-19703395D01*
X9308614Y-19728662D01*
X9426254Y-19731126D01*
X9542133Y-19710694D01*
X9651835Y-19668143D01*
X9751184Y-19605094D01*
X9836395Y-19523949D01*
X9904221Y-19427799D01*
X9952080Y-19320306D01*
X9978149Y-19205564D01*
X9980026Y-19071167D01*
X9957171Y-18955742D01*
X9912332Y-18846954D01*
X9847216Y-18748948D01*
X9764305Y-18665455D01*
X9666755Y-18599657D01*
X9558283Y-18554060D01*
X9443021Y-18530400D01*
X9325357Y-18529578D01*
X9209775Y-18551627D01*
X9100677Y-18595705D01*
X9002219Y-18660135D01*
X8918150Y-18742461D01*
X8851672Y-18839549D01*
X8805318Y-18947700D01*
X8785798Y-19039536D01*
X8638943Y-19124138D01*
X8622548Y-19071197D01*
X8575874Y-19000366D01*
X8511315Y-18945343D01*
X8433982Y-18910484D01*
X8350000Y-18898549D01*
X7650000Y-18898549D01*
X7602226Y-18902359D01*
X7521197Y-18927452D01*
X7450366Y-18974126D01*
X7395343Y-19038685D01*
X7360484Y-19116018D01*
X7348549Y-19200000D01*
X7348549Y-20650000D01*
X7352359Y-20697774D01*
X7377452Y-20778803D01*
X7424126Y-20849634D01*
X7488685Y-20904657D01*
X7566018Y-20939516D01*
X7625000Y-20947898D01*
X7625000Y-21275784D01*
X7607171Y-21185742D01*
X7562332Y-21076954D01*
X7497216Y-20978948D01*
X7414305Y-20895455D01*
X7316755Y-20829657D01*
X7208283Y-20784060D01*
X7093021Y-20760400D01*
X6975357Y-20759578D01*
X6859775Y-20781627D01*
X6750677Y-20825705D01*
X6652219Y-20890135D01*
X6568150Y-20972461D01*
X6559564Y-20985000D01*
X3575000Y-20985000D01*
X3575000Y-20949457D01*
X3597774Y-20947641D01*
X3678803Y-20922548D01*
X3749634Y-20875874D01*
X3804657Y-20811315D01*
X3839516Y-20733982D01*
X3851451Y-20650000D01*
X3851451Y-20005000D01*
X5350000Y-20005000D01*
X5350000Y-20679547D01*
X5361529Y-20737506D01*
X5384143Y-20792103D01*
X5416975Y-20841239D01*
X5458761Y-20883025D01*
X5507896Y-20915856D01*
X5562493Y-20938471D01*
X5620452Y-20950000D01*
X5920000Y-20950000D01*
X5995000Y-20875000D01*
X5995000Y-19930000D01*
X6005000Y-19930000D01*
X6005000Y-20875000D01*
X6080000Y-20950000D01*
X6379548Y-20950000D01*
X6437507Y-20938471D01*
X6492104Y-20915856D01*
X6541239Y-20883025D01*
X6583025Y-20841239D01*
X6615857Y-20792103D01*
X6638471Y-20737506D01*
X6650000Y-20679547D01*
X6650000Y-20005000D01*
X6575000Y-19930000D01*
X6005000Y-19930000D01*
X5995000Y-19930000D01*
X5425000Y-19930000D01*
X5350000Y-20005000D01*
X3851451Y-20005000D01*
X3851451Y-19200000D01*
X3849095Y-19170453D01*
X5350000Y-19170453D01*
X5350000Y-19845000D01*
X5425000Y-19920000D01*
X5995000Y-19920000D01*
X5995000Y-18975000D01*
X6005000Y-18975000D01*
X6005000Y-19920000D01*
X6575000Y-19920000D01*
X6650000Y-19845000D01*
X6650000Y-19170453D01*
X6638471Y-19112494D01*
X6615857Y-19057897D01*
X6583025Y-19008761D01*
X6541239Y-18966975D01*
X6492104Y-18934144D01*
X6437507Y-18911529D01*
X6379548Y-18900000D01*
X6080000Y-18900000D01*
X6005000Y-18975000D01*
X5995000Y-18975000D01*
X5920000Y-18900000D01*
X5620452Y-18900000D01*
X5562493Y-18911529D01*
X5507896Y-18934144D01*
X5458761Y-18966975D01*
X5416975Y-19008761D01*
X5384143Y-19057897D01*
X5361529Y-19112494D01*
X5350000Y-19170453D01*
X3849095Y-19170453D01*
X3847641Y-19152226D01*
X3822548Y-19071197D01*
X3775874Y-19000366D01*
X3711315Y-18945343D01*
X3633982Y-18910484D01*
X3550000Y-18898549D01*
X2850000Y-18898549D01*
X2802226Y-18902359D01*
X2721197Y-18927452D01*
X2650366Y-18974126D01*
X2595343Y-19038685D01*
X2560484Y-19116018D01*
X2548549Y-19200000D01*
X2548549Y-20650000D01*
X2552359Y-20697774D01*
X2577452Y-20778803D01*
X2624126Y-20849634D01*
X2688685Y-20904657D01*
X2766018Y-20939516D01*
X2825000Y-20947898D01*
X2825000Y-24050543D01*
X2802226Y-24052359D01*
X2721197Y-24077452D01*
X2650366Y-24124126D01*
X2595343Y-24188685D01*
X2560484Y-24266018D01*
X2548549Y-24350000D01*
X2548549Y-25726970D01*
X2529834Y-25775804D01*
X2523314Y-25799524D01*
X2515281Y-25822792D01*
X2513634Y-25834745D01*
X2510437Y-25846375D01*
X2508648Y-25870920D01*
X2505289Y-25895293D01*
X2505994Y-25907332D01*
X2505117Y-25919368D01*
X2508130Y-25943797D01*
X2509569Y-25968355D01*
X2510419Y-25973522D01*
X2582054Y-26390309D01*
X2450443Y-26413516D01*
X2404057Y-26425563D01*
X2328616Y-26464346D01*
X2266966Y-26522611D01*
X2226537Y-26591410D01*
X2198162Y-26561386D01*
X2125029Y-26518410D01*
X2042818Y-26497509D01*
X1958039Y-26500339D01*
X1367155Y-26604528D01*
X1320769Y-26616575D01*
X1245328Y-26655358D01*
X1183678Y-26713623D01*
X1140702Y-26786756D01*
X1119801Y-26868967D01*
X773532Y-26868967D01*
X669631Y-26506622D01*
X627213Y-26001477D01*
X658761Y-26033025D01*
X707896Y-26065856D01*
X762493Y-26088471D01*
X820452Y-26100000D01*
X1120000Y-26100000D01*
X1195000Y-26025000D01*
X1195000Y-25080000D01*
X1205000Y-25080000D01*
X1205000Y-26025000D01*
X1280000Y-26100000D01*
X1579548Y-26100000D01*
X1637507Y-26088471D01*
X1692104Y-26065856D01*
X1741239Y-26033025D01*
X1783025Y-25991239D01*
X1815857Y-25942103D01*
X1838471Y-25887506D01*
X1850000Y-25829547D01*
X1850000Y-25155000D01*
X1775000Y-25080000D01*
X1205000Y-25080000D01*
X1195000Y-25080000D01*
X625000Y-25080000D01*
X555657Y-25149343D01*
X486054Y-24320453D01*
X550000Y-24320453D01*
X550000Y-24995000D01*
X625000Y-25070000D01*
X1195000Y-25070000D01*
X1195000Y-24125000D01*
X1205000Y-24125000D01*
X1205000Y-25070000D01*
X1775000Y-25070000D01*
X1850000Y-24995000D01*
X1850000Y-24320453D01*
X1838471Y-24262494D01*
X1815857Y-24207897D01*
X1783025Y-24158761D01*
X1741239Y-24116975D01*
X1692104Y-24084144D01*
X1637507Y-24061529D01*
X1579548Y-24050000D01*
X1280000Y-24050000D01*
X1205000Y-24125000D01*
X1195000Y-24125000D01*
X1120000Y-24050000D01*
X820452Y-24050000D01*
X762493Y-24061529D01*
X707896Y-24084144D01*
X658761Y-24116975D01*
X616975Y-24158761D01*
X584143Y-24207897D01*
X561529Y-24262494D01*
X550000Y-24320453D01*
X486054Y-24320453D01*
X307163Y-22190109D01*
X550000Y-20025171D01*
X550000Y-20679547D01*
X561529Y-20737506D01*
X584143Y-20792103D01*
X616975Y-20841239D01*
X658761Y-20883025D01*
X707896Y-20915856D01*
X762493Y-20938471D01*
X820452Y-20950000D01*
X1120000Y-20950000D01*
X1195000Y-20875000D01*
X1195000Y-19930000D01*
X1205000Y-19930000D01*
X1205000Y-20875000D01*
X1280000Y-20950000D01*
X1579548Y-20950000D01*
X1637507Y-20938471D01*
X1692104Y-20915856D01*
X1741239Y-20883025D01*
X1783025Y-20841239D01*
X1815857Y-20792103D01*
X1838471Y-20737506D01*
X1850000Y-20679547D01*
X1850000Y-20005000D01*
X1775000Y-19930000D01*
X1205000Y-19930000D01*
X1195000Y-19930000D01*
X1175000Y-19930000D01*
X1175000Y-19920000D01*
X1195000Y-19920000D01*
X1195000Y-18975000D01*
X1205000Y-18975000D01*
X1205000Y-19920000D01*
X1775000Y-19920000D01*
X1850000Y-19845000D01*
X1850000Y-19170453D01*
X1838471Y-19112494D01*
X1815857Y-19057897D01*
X1783025Y-19008761D01*
X1741239Y-18966975D01*
X1692104Y-18934144D01*
X1637507Y-18911529D01*
X1579548Y-18900000D01*
X1280000Y-18900000D01*
X1205000Y-18975000D01*
X1195000Y-18975000D01*
X1120000Y-18900000D01*
X820452Y-18900000D01*
X762493Y-18911529D01*
X707896Y-18934144D01*
X669501Y-18959799D01*
X790014Y-17885400D01*
X1118960Y-16848432D01*
X1122698Y-16856449D01*
X1157641Y-16904105D01*
X1201210Y-16944030D01*
X1251731Y-16974687D01*
X1307262Y-16994898D01*
X1580199Y-17094239D01*
X1668992Y-17052834D01*
X1685724Y-17052834D01*
X1730549Y-17148962D01*
X2003486Y-17248303D01*
X2059017Y-17268515D01*
X2117424Y-17277504D01*
X2176463Y-17274926D01*
X2233864Y-17260880D01*
X2287421Y-17235906D01*
X2335079Y-17200962D01*
X2375002Y-17157392D01*
X2405659Y-17106872D01*
X2491009Y-16872375D01*
X2446184Y-16776246D01*
X1863574Y-16564194D01*
X1685724Y-17052834D01*
X1668992Y-17052834D01*
X1676327Y-17049414D01*
X1854177Y-16560773D01*
X1837758Y-16554797D01*
X1866995Y-16554797D01*
X2449604Y-16766849D01*
X2545732Y-16722024D01*
X2631083Y-16487526D01*
X2640072Y-16429119D01*
X2637495Y-16370081D01*
X2623449Y-16312679D01*
X2598474Y-16259121D01*
X2563531Y-16211465D01*
X2519962Y-16171540D01*
X2469441Y-16140883D01*
X2413910Y-16120672D01*
X2140973Y-16021331D01*
X2044845Y-16066156D01*
X1866995Y-16554797D01*
X1837758Y-16554797D01*
X1835384Y-16553933D01*
X1838803Y-16544535D01*
X1857598Y-16551376D01*
X2035448Y-16062736D01*
X1990623Y-15966608D01*
X1717686Y-15867267D01*
X1662155Y-15847055D01*
X1603748Y-15838066D01*
X1544709Y-15840644D01*
X1487308Y-15854690D01*
X1433751Y-15879664D01*
X1424004Y-15886811D01*
X1566279Y-15438304D01*
X1580400Y-15497656D01*
X1622247Y-15571442D01*
X1682993Y-15630648D01*
X1757829Y-15670586D01*
X2509583Y-15944202D01*
X2555778Y-15956962D01*
X2640504Y-15961096D01*
X2723026Y-15941462D01*
X2796812Y-15899615D01*
X2841513Y-15853752D01*
X2851038Y-15857663D01*
X2893768Y-15965586D01*
X2957509Y-16064492D01*
X3039247Y-16149134D01*
X3135868Y-16216287D01*
X3243693Y-16263395D01*
X3358614Y-16288662D01*
X3476254Y-16291126D01*
X3592133Y-16270694D01*
X3701835Y-16228143D01*
X3801184Y-16165094D01*
X3886395Y-16083949D01*
X3954221Y-15987799D01*
X4002080Y-15880306D01*
X4006591Y-15860450D01*
X6369211Y-15860450D01*
X6390452Y-15976183D01*
X6433768Y-16085586D01*
X6497509Y-16184492D01*
X6579247Y-16269134D01*
X6675868Y-16336287D01*
X6783693Y-16383395D01*
X6898614Y-16408662D01*
X7016254Y-16411126D01*
X7132133Y-16390694D01*
X7167442Y-16376998D01*
X8169695Y-17006891D01*
X8169700Y-17006894D01*
X8186231Y-17017283D01*
X8196263Y-17022295D01*
X8413732Y-17143548D01*
X8399436Y-17206509D01*
X8404442Y-17291187D01*
X8432840Y-17371118D01*
X8482382Y-17439973D01*
X8549146Y-17492300D01*
X10021390Y-18342300D01*
X10064668Y-18362888D01*
X10147388Y-18381671D01*
X10232066Y-18376665D01*
X10311997Y-18348267D01*
X10380852Y-18298725D01*
X10433179Y-18231962D01*
X10758179Y-17669046D01*
X10778767Y-17625767D01*
X10797550Y-17543047D01*
X10792544Y-17458369D01*
X10764146Y-17378438D01*
X10714604Y-17309583D01*
X10647840Y-17257256D01*
X9175596Y-16407256D01*
X9132318Y-16386668D01*
X9049598Y-16367885D01*
X8964920Y-16372891D01*
X8884989Y-16401289D01*
X8816134Y-16450831D01*
X8784292Y-16491458D01*
X8560450Y-16366651D01*
X7568449Y-15743201D01*
X7547171Y-15635742D01*
X7502332Y-15526954D01*
X7437216Y-15428948D01*
X7354305Y-15345455D01*
X7256755Y-15279657D01*
X7148283Y-15234060D01*
X7033021Y-15210400D01*
X6915357Y-15209578D01*
X6799775Y-15231627D01*
X6690677Y-15275705D01*
X6592219Y-15340135D01*
X6508150Y-15422461D01*
X6441672Y-15519549D01*
X6395318Y-15627700D01*
X6370854Y-15742795D01*
X6369211Y-15860450D01*
X4006591Y-15860450D01*
X4028149Y-15765564D01*
X4030026Y-15631167D01*
X4007171Y-15515742D01*
X3962332Y-15406954D01*
X3897216Y-15308948D01*
X3814305Y-15225455D01*
X3716755Y-15159657D01*
X3608283Y-15114060D01*
X3493021Y-15090400D01*
X3375357Y-15089578D01*
X3259775Y-15111627D01*
X3150677Y-15155705D01*
X3137316Y-15164448D01*
X3113724Y-15154761D01*
X3113928Y-15154022D01*
X3118062Y-15069296D01*
X3098428Y-14986774D01*
X3063781Y-14925683D01*
X3337088Y-14483117D01*
X3699404Y-14692300D01*
X3742682Y-14712888D01*
X3825402Y-14731671D01*
X3910080Y-14726665D01*
X3990011Y-14698267D01*
X4058866Y-14648725D01*
X4111193Y-14581962D01*
X4394967Y-14090450D01*
X5509211Y-14090450D01*
X5530452Y-14206183D01*
X5573768Y-14315586D01*
X5637509Y-14414492D01*
X5719247Y-14499134D01*
X5815868Y-14566287D01*
X5923693Y-14613395D01*
X6038614Y-14638662D01*
X6156254Y-14641126D01*
X6272133Y-14620694D01*
X6346119Y-14591996D01*
X8824912Y-15920420D01*
X9048482Y-16044798D01*
X9034436Y-16106657D01*
X9039442Y-16191335D01*
X9067840Y-16271266D01*
X9117382Y-16340121D01*
X9184146Y-16392448D01*
X10656390Y-17242448D01*
X10699668Y-17263036D01*
X10782388Y-17281819D01*
X10867066Y-17276813D01*
X10946997Y-17248415D01*
X11015852Y-17198873D01*
X11068179Y-17132110D01*
X11393179Y-16569194D01*
X11413767Y-16525915D01*
X11432550Y-16443195D01*
X11427544Y-16358517D01*
X11399146Y-16278586D01*
X11349604Y-16209731D01*
X11282840Y-16157404D01*
X9810596Y-15307404D01*
X9767318Y-15286816D01*
X9684598Y-15268033D01*
X9599920Y-15273039D01*
X9519989Y-15301437D01*
X9451134Y-15350979D01*
X9418619Y-15392464D01*
X9204961Y-15273601D01*
X9202496Y-15271901D01*
X9197898Y-15269396D01*
X9181794Y-15260765D01*
X9181791Y-15260764D01*
X7763071Y-14500450D01*
X9069211Y-14500450D01*
X9090452Y-14616183D01*
X9133768Y-14725586D01*
X9197509Y-14824492D01*
X9279247Y-14909134D01*
X9375868Y-14976287D01*
X9483693Y-15023395D01*
X9598614Y-15048662D01*
X9672001Y-15050199D01*
X9674442Y-15091483D01*
X9702840Y-15171414D01*
X9752382Y-15240269D01*
X9819146Y-15292596D01*
X11291390Y-16142596D01*
X11334668Y-16163184D01*
X11417388Y-16181967D01*
X11502066Y-16176961D01*
X11581997Y-16148563D01*
X11650852Y-16099021D01*
X11703179Y-16032258D01*
X12028179Y-15469342D01*
X12048767Y-15426063D01*
X12067550Y-15343343D01*
X12062544Y-15258665D01*
X12034146Y-15178734D01*
X11984604Y-15109879D01*
X11917840Y-15057552D01*
X10445596Y-14207552D01*
X10402318Y-14186964D01*
X10319598Y-14168181D01*
X10234920Y-14173187D01*
X10208735Y-14182490D01*
X10202332Y-14166954D01*
X10137216Y-14068948D01*
X10054305Y-13985455D01*
X9959959Y-13921818D01*
X10303581Y-13921818D01*
X10307446Y-13980786D01*
X10322741Y-14037866D01*
X10348878Y-14090868D01*
X10384853Y-14137750D01*
X10429283Y-14176714D01*
X11121711Y-14576488D01*
X11205502Y-14554036D01*
X11232823Y-14554036D01*
X11260275Y-14656488D01*
X11952703Y-15056261D01*
X12008662Y-15075256D01*
X12067251Y-15082971D01*
X12126220Y-15079105D01*
X12183301Y-15063811D01*
X12236301Y-15037674D01*
X12283184Y-15001699D01*
X12322148Y-14957270D01*
X12351696Y-14906092D01*
X12459422Y-14719504D01*
X12431970Y-14617052D01*
X11505323Y-14082052D01*
X11232823Y-14554036D01*
X11205502Y-14554036D01*
X11224163Y-14549036D01*
X11496663Y-14077052D01*
X11490324Y-14073392D01*
X11510323Y-14073392D01*
X12436970Y-14608392D01*
X12539422Y-14580940D01*
X12647149Y-14394352D01*
X12676696Y-14343174D01*
X12695691Y-14287216D01*
X12703405Y-14228626D01*
X12699540Y-14169658D01*
X12684245Y-14112578D01*
X12658108Y-14059576D01*
X12622133Y-14012694D01*
X12577703Y-13973730D01*
X11885275Y-13573956D01*
X11782823Y-13601408D01*
X11510323Y-14073392D01*
X11490324Y-14073392D01*
X10570016Y-13542052D01*
X10467564Y-13569504D01*
X10359837Y-13756092D01*
X10330290Y-13807270D01*
X10311295Y-13863228D01*
X10303581Y-13921818D01*
X9959959Y-13921818D01*
X9956755Y-13919657D01*
X9848283Y-13874060D01*
X9733021Y-13850400D01*
X9615357Y-13849578D01*
X9499775Y-13871627D01*
X9390677Y-13915705D01*
X9292219Y-13980135D01*
X9208150Y-14062461D01*
X9141672Y-14159549D01*
X9095318Y-14267700D01*
X9070854Y-14382795D01*
X9069211Y-14500450D01*
X7763071Y-14500450D01*
X6700045Y-13930758D01*
X6687171Y-13865742D01*
X6642332Y-13756954D01*
X6577216Y-13658948D01*
X6494305Y-13575455D01*
X6396755Y-13509657D01*
X6288283Y-13464060D01*
X6173021Y-13440400D01*
X6055357Y-13439578D01*
X5939775Y-13461627D01*
X5830677Y-13505705D01*
X5732219Y-13570135D01*
X5648150Y-13652461D01*
X5581672Y-13749549D01*
X5535318Y-13857700D01*
X5510854Y-13972795D01*
X5509211Y-14090450D01*
X4394967Y-14090450D01*
X4436193Y-14019046D01*
X4456781Y-13975767D01*
X4475564Y-13893047D01*
X4470558Y-13808369D01*
X4442160Y-13728438D01*
X4392618Y-13659583D01*
X4325854Y-13607256D01*
X3979444Y-13407256D01*
X3987993Y-13392448D01*
X4334404Y-13592448D01*
X4377682Y-13613036D01*
X4460402Y-13631819D01*
X4545080Y-13626813D01*
X4625011Y-13598415D01*
X4693866Y-13548873D01*
X4746193Y-13482110D01*
X4775736Y-13430940D01*
X10547564Y-13430940D01*
X10575016Y-13533392D01*
X11501663Y-14068392D01*
X11774163Y-13596408D01*
X11746711Y-13493956D01*
X11054283Y-13094183D01*
X10998324Y-13075188D01*
X10939735Y-13067473D01*
X10880766Y-13071339D01*
X10823685Y-13086633D01*
X10770685Y-13112770D01*
X10723802Y-13148745D01*
X10684838Y-13193174D01*
X10655290Y-13244352D01*
X10547564Y-13430940D01*
X4775736Y-13430940D01*
X5071193Y-12919194D01*
X5091781Y-12875915D01*
X5110564Y-12793195D01*
X5105558Y-12708517D01*
X5077160Y-12628586D01*
X5027618Y-12559731D01*
X4960854Y-12507404D01*
X3488610Y-11657404D01*
X3445332Y-11636816D01*
X3362612Y-11618033D01*
X3277934Y-11623039D01*
X3271366Y-11625373D01*
X3360309Y-11463586D01*
X3380854Y-11521414D01*
X3430396Y-11590269D01*
X3497160Y-11642596D01*
X4969404Y-12492596D01*
X5012682Y-12513184D01*
X5095402Y-12531967D01*
X5180080Y-12526961D01*
X5260011Y-12498563D01*
X5328866Y-12449021D01*
X5330795Y-12446559D01*
X5774926Y-12711589D01*
X5790452Y-12796183D01*
X5833768Y-12905586D01*
X5897509Y-13004492D01*
X5979247Y-13089134D01*
X6075868Y-13156287D01*
X6183693Y-13203395D01*
X6298614Y-13228662D01*
X6416254Y-13231126D01*
X6532133Y-13210694D01*
X6641835Y-13168143D01*
X6741184Y-13105094D01*
X6826395Y-13023949D01*
X6894221Y-12927799D01*
X6905155Y-12903240D01*
X6995868Y-12966287D01*
X7103693Y-13013395D01*
X7218614Y-13038662D01*
X7336254Y-13041126D01*
X7452133Y-13020694D01*
X7561835Y-12978143D01*
X7578577Y-12967518D01*
X12045956Y-12967518D01*
X12057951Y-13154267D01*
X12106148Y-13335088D01*
X12188695Y-13503032D01*
X12224787Y-13557045D01*
X12374505Y-13618424D01*
X12992929Y-13000000D01*
X12374505Y-12381576D01*
X12224787Y-12442955D01*
X12131008Y-12604894D01*
X12070625Y-12782018D01*
X12045956Y-12967518D01*
X7578577Y-12967518D01*
X7661184Y-12915094D01*
X7746395Y-12833949D01*
X7814221Y-12737799D01*
X7862080Y-12630306D01*
X7888149Y-12515564D01*
X7889896Y-12390450D01*
X9769211Y-12390450D01*
X9790452Y-12506183D01*
X9833768Y-12615586D01*
X9897509Y-12714492D01*
X9979247Y-12799134D01*
X10075868Y-12866287D01*
X10183693Y-12913395D01*
X10298614Y-12938662D01*
X10416254Y-12941126D01*
X10532133Y-12920694D01*
X10641835Y-12878143D01*
X10741184Y-12815094D01*
X10826395Y-12733949D01*
X10894221Y-12637799D01*
X10942080Y-12530306D01*
X10968149Y-12415564D01*
X10968722Y-12374505D01*
X12381576Y-12374505D01*
X13000000Y-12992929D01*
X13618424Y-12374505D01*
X13557045Y-12224787D01*
X13395106Y-12131008D01*
X13217982Y-12070625D01*
X13032482Y-12045956D01*
X12845733Y-12057951D01*
X12664912Y-12106148D01*
X12496968Y-12188695D01*
X12442955Y-12224787D01*
X12381576Y-12374505D01*
X10968722Y-12374505D01*
X10970026Y-12281167D01*
X10947171Y-12165742D01*
X10902332Y-12056954D01*
X10837216Y-11958948D01*
X10754305Y-11875455D01*
X10656755Y-11809657D01*
X10548283Y-11764060D01*
X10433021Y-11740400D01*
X10315357Y-11739578D01*
X10199775Y-11761627D01*
X10090677Y-11805705D01*
X9992219Y-11870135D01*
X9908150Y-11952461D01*
X9841672Y-12049549D01*
X9795318Y-12157700D01*
X9770854Y-12272795D01*
X9769211Y-12390450D01*
X7889896Y-12390450D01*
X7890026Y-12381167D01*
X7867171Y-12265742D01*
X7822332Y-12156954D01*
X7757216Y-12058948D01*
X7674305Y-11975455D01*
X7576755Y-11909657D01*
X7486258Y-11871616D01*
X7524221Y-11817799D01*
X7572080Y-11710306D01*
X7598149Y-11595564D01*
X7600026Y-11461167D01*
X7577171Y-11345742D01*
X7532332Y-11236954D01*
X7467216Y-11138948D01*
X7384305Y-11055455D01*
X7286755Y-10989657D01*
X7178283Y-10944060D01*
X7063021Y-10920400D01*
X6945357Y-10919578D01*
X6829775Y-10941627D01*
X6787619Y-10958659D01*
X6350445Y-10700040D01*
X6361781Y-10676211D01*
X6380564Y-10593491D01*
X6375558Y-10508813D01*
X6347160Y-10428882D01*
X6297618Y-10360027D01*
X6230854Y-10307700D01*
X5923848Y-10130450D01*
X6289211Y-10130450D01*
X6310452Y-10246183D01*
X6353768Y-10355586D01*
X6417509Y-10454492D01*
X6499247Y-10539134D01*
X6595868Y-10606287D01*
X6703693Y-10653395D01*
X6818614Y-10678662D01*
X6936254Y-10681126D01*
X7052133Y-10660694D01*
X7161835Y-10618143D01*
X7261184Y-10555094D01*
X7346395Y-10473949D01*
X7377113Y-10430402D01*
X7990883Y-10430402D01*
X7990883Y-10536468D01*
X8001810Y-10547395D01*
X8043597Y-10589181D01*
X8092732Y-10622012D01*
X8147329Y-10644627D01*
X8205288Y-10656156D01*
X8264382Y-10656156D01*
X8322342Y-10644627D01*
X8376939Y-10622012D01*
X8426074Y-10589181D01*
X8531820Y-10483435D01*
X8531820Y-10377369D01*
X8287868Y-10133417D01*
X7990883Y-10430402D01*
X7377113Y-10430402D01*
X7414221Y-10377799D01*
X7462080Y-10270306D01*
X7488149Y-10155564D01*
X7489248Y-10076848D01*
X7637330Y-10076848D01*
X7637330Y-10182914D01*
X7648257Y-10193841D01*
X7690044Y-10235627D01*
X7739179Y-10268458D01*
X7776671Y-10283988D01*
X7792202Y-10321482D01*
X7825033Y-10370617D01*
X7866819Y-10412404D01*
X7877746Y-10423331D01*
X7983812Y-10423331D01*
X8280797Y-10126346D01*
X8178267Y-10023816D01*
X8178267Y-10023815D01*
X7934315Y-9779863D01*
X7637330Y-10076848D01*
X7489248Y-10076848D01*
X7489827Y-10035411D01*
X7524193Y-10069777D01*
X7630259Y-10069777D01*
X7927244Y-9772792D01*
X7913102Y-9758650D01*
X7920173Y-9751579D01*
X7934315Y-9765721D01*
X8231300Y-9468736D01*
X8231300Y-9362670D01*
X8220373Y-9351743D01*
X8178586Y-9309957D01*
X8129451Y-9277126D01*
X8089745Y-9260679D01*
X8074674Y-9220871D01*
X8023729Y-9153048D01*
X7846952Y-8976271D01*
X7810477Y-8945184D01*
X7737955Y-8906958D01*
X7722874Y-8870549D01*
X7690043Y-8821414D01*
X7648257Y-8779627D01*
X7637330Y-8768700D01*
X7531264Y-8768700D01*
X7234279Y-9065685D01*
X7248422Y-9079828D01*
X7241351Y-9086899D01*
X7227208Y-9072756D01*
X6930223Y-9369741D01*
X6930223Y-9475807D01*
X6934688Y-9480272D01*
X6835357Y-9479578D01*
X6719775Y-9501627D01*
X6610677Y-9545705D01*
X6512219Y-9610135D01*
X6428150Y-9692461D01*
X6361672Y-9789549D01*
X6315318Y-9897700D01*
X6290854Y-10012795D01*
X6289211Y-10130450D01*
X5923848Y-10130450D01*
X4758610Y-9457700D01*
X4715332Y-9437112D01*
X4640153Y-9420041D01*
X6158422Y-7610638D01*
X6170452Y-7676183D01*
X6213768Y-7785586D01*
X6277509Y-7884492D01*
X6359247Y-7969134D01*
X6455868Y-8036287D01*
X6563693Y-8083395D01*
X6678614Y-8108662D01*
X6796254Y-8111126D01*
X6800226Y-8110426D01*
X6876707Y-8186907D01*
X6860684Y-8188185D01*
X6781352Y-8218219D01*
X6713529Y-8269164D01*
X6430686Y-8552007D01*
X6399599Y-8588482D01*
X6360046Y-8663522D01*
X6342965Y-8746611D01*
X6349707Y-8831168D01*
X6379741Y-8910500D01*
X6430686Y-8978323D01*
X6607463Y-9155100D01*
X6643938Y-9186187D01*
X6716461Y-9224414D01*
X6731542Y-9260821D01*
X6764373Y-9309956D01*
X6806159Y-9351743D01*
X6817086Y-9362670D01*
X6923152Y-9362670D01*
X7220137Y-9065685D01*
X7205995Y-9051543D01*
X7213066Y-9044472D01*
X7227208Y-9058614D01*
X7524193Y-8761629D01*
X7524193Y-8655563D01*
X7513266Y-8644636D01*
X7471479Y-8602850D01*
X7422344Y-8570019D01*
X7382638Y-8553572D01*
X7367567Y-8513764D01*
X7327028Y-8459794D01*
X7346244Y-8458262D01*
X7425576Y-8428228D01*
X7493399Y-8377283D01*
X7670176Y-8200506D01*
X7701263Y-8164031D01*
X7740692Y-8089226D01*
X7779129Y-8074674D01*
X7846952Y-8023729D01*
X8023729Y-7846952D01*
X8054816Y-7810477D01*
X8094244Y-7735673D01*
X8132683Y-7721121D01*
X8200506Y-7670176D01*
X8377283Y-7493399D01*
X8408370Y-7456924D01*
X8447923Y-7381884D01*
X8459064Y-7327692D01*
X8467861Y-7336489D01*
X8516996Y-7369320D01*
X8556701Y-7385766D01*
X8571772Y-7425576D01*
X8622717Y-7493399D01*
X8799494Y-7670176D01*
X8835969Y-7701263D01*
X8910774Y-7740692D01*
X8925326Y-7779129D01*
X8976271Y-7846952D01*
X9153048Y-8023729D01*
X9189523Y-8054816D01*
X9264327Y-8094244D01*
X9278879Y-8132683D01*
X9329824Y-8200506D01*
X9506601Y-8377283D01*
X9543076Y-8408370D01*
X9617881Y-8447799D01*
X9632433Y-8486236D01*
X9672383Y-8539421D01*
X9632253Y-8547404D01*
X9577656Y-8570019D01*
X9528521Y-8602850D01*
X9486734Y-8644636D01*
X9475807Y-8655563D01*
X9475807Y-8761629D01*
X9772792Y-9058614D01*
X9786935Y-9044472D01*
X9794006Y-9051543D01*
X9779863Y-9065685D01*
X9794006Y-9079828D01*
X9786935Y-9086899D01*
X9772792Y-9072756D01*
X9758650Y-9086899D01*
X9751579Y-9079828D01*
X9765721Y-9065685D01*
X9468736Y-8768700D01*
X9362670Y-8768700D01*
X9351743Y-8779627D01*
X9309957Y-8821414D01*
X9277126Y-8870549D01*
X9260679Y-8910255D01*
X9220871Y-8925326D01*
X9153048Y-8976271D01*
X8976271Y-9153048D01*
X8945184Y-9189523D01*
X8905756Y-9264327D01*
X8867317Y-9278879D01*
X8799494Y-9329824D01*
X8622717Y-9506601D01*
X8591630Y-9543076D01*
X8552077Y-9618116D01*
X8540936Y-9672308D01*
X8532139Y-9663511D01*
X8483004Y-9630680D01*
X8445512Y-9615150D01*
X8429981Y-9577656D01*
X8397150Y-9528521D01*
X8355364Y-9486734D01*
X8344437Y-9475807D01*
X8238371Y-9475807D01*
X7941386Y-9772792D01*
X8043916Y-9875322D01*
X8043916Y-9875323D01*
X8287868Y-10119275D01*
X8302011Y-10105133D01*
X8309082Y-10112204D01*
X8294939Y-10126346D01*
X8538891Y-10370298D01*
X8644957Y-10370298D01*
X8750703Y-10264552D01*
X8783534Y-10215417D01*
X8806149Y-10160820D01*
X8813527Y-10123727D01*
X8905560Y-10215760D01*
X8942035Y-10246847D01*
X9017075Y-10286400D01*
X9045869Y-10292319D01*
X9143506Y-10393510D01*
X9265015Y-10532983D01*
X9196892Y-10601106D01*
X9165805Y-10637581D01*
X9155405Y-10657311D01*
X9073021Y-10640400D01*
X8955357Y-10639578D01*
X8839775Y-10661627D01*
X8730677Y-10705705D01*
X8632219Y-10770135D01*
X8548150Y-10852461D01*
X8481672Y-10949549D01*
X8435318Y-11057700D01*
X8410854Y-11172795D01*
X8409211Y-11290450D01*
X8430452Y-11406183D01*
X8473768Y-11515586D01*
X8537509Y-11614492D01*
X8619247Y-11699134D01*
X8715868Y-11766287D01*
X8823693Y-11813395D01*
X8938614Y-11838662D01*
X9056254Y-11841126D01*
X9172133Y-11820694D01*
X9281835Y-11778143D01*
X9381184Y-11715094D01*
X9439253Y-11659796D01*
X9472686Y-11663139D01*
X9491768Y-11663176D01*
X9510760Y-11664999D01*
X9528273Y-11663246D01*
X9545873Y-11663280D01*
X9564597Y-11659610D01*
X9583583Y-11657710D01*
X9600418Y-11652590D01*
X9617694Y-11649204D01*
X9635355Y-11641964D01*
X9653604Y-11636414D01*
X9669125Y-11628121D01*
X9685413Y-11621444D01*
X9701328Y-11610914D01*
X9718154Y-11601924D01*
X9731767Y-11590775D01*
X9746450Y-11581061D01*
X9748502Y-11579032D01*
X9762578Y-11593108D01*
X9799053Y-11624195D01*
X9874093Y-11663748D01*
X9957182Y-11680829D01*
X10041739Y-11674087D01*
X10121071Y-11644053D01*
X10188894Y-11593108D01*
X10613158Y-11168844D01*
X10644245Y-11132369D01*
X10683798Y-11057329D01*
X10700879Y-10974240D01*
X10694137Y-10889683D01*
X10664103Y-10810351D01*
X10613158Y-10742528D01*
X10140422Y-10269792D01*
X10527279Y-10269792D01*
X10527279Y-10375858D01*
X10732661Y-10581239D01*
X10774447Y-10623025D01*
X10823583Y-10655856D01*
X10878180Y-10678471D01*
X10936139Y-10690000D01*
X10995233Y-10690000D01*
X11053193Y-10678471D01*
X11107789Y-10655856D01*
X11156925Y-10623025D01*
X11333381Y-10446568D01*
X11333381Y-10340502D01*
X10894975Y-9902096D01*
X10527279Y-10269792D01*
X10140422Y-10269792D01*
X10047472Y-10176842D01*
X10010997Y-10145755D01*
X9958927Y-10118309D01*
X10040095Y-10033214D01*
X10040099Y-10033209D01*
X10091687Y-9979124D01*
X10091687Y-9979123D01*
X10124959Y-9944242D01*
X10134144Y-9966417D01*
X10166975Y-10015553D01*
X10208761Y-10057339D01*
X10414142Y-10262721D01*
X10520208Y-10262721D01*
X10887904Y-9895025D01*
X10902046Y-9895025D01*
X11340452Y-10333431D01*
X11446518Y-10333431D01*
X11622975Y-10156975D01*
X11655806Y-10107839D01*
X11678421Y-10053243D01*
X11689950Y-9995283D01*
X11689950Y-9936189D01*
X11678421Y-9878230D01*
X11655806Y-9823633D01*
X11622975Y-9774497D01*
X11581189Y-9732711D01*
X11375808Y-9527329D01*
X11269742Y-9527329D01*
X10902046Y-9895025D01*
X10887904Y-9895025D01*
X10873762Y-9880883D01*
X10880833Y-9873812D01*
X10894975Y-9887954D01*
X11262671Y-9520258D01*
X11262671Y-9414192D01*
X11057289Y-9208811D01*
X11015503Y-9167025D01*
X10966367Y-9134194D01*
X10917090Y-9113782D01*
X10931353Y-9098829D01*
X10948422Y-9077018D01*
X10966524Y-9056029D01*
X10970943Y-9048242D01*
X10976459Y-9041194D01*
X10988970Y-9016476D01*
X10991988Y-9011157D01*
X12276908Y-9011157D01*
X12309634Y-9067841D01*
X12339182Y-9119019D01*
X12378146Y-9163448D01*
X12425029Y-9199423D01*
X12478029Y-9225560D01*
X12535110Y-9240855D01*
X12594079Y-9244720D01*
X12652668Y-9237006D01*
X12708627Y-9218011D01*
X12783271Y-9174915D01*
X16909891Y-9174915D01*
X16946243Y-9310583D01*
X16961538Y-9367664D01*
X16987675Y-9420664D01*
X17023650Y-9467548D01*
X17068079Y-9506511D01*
X17119257Y-9536058D01*
X17175216Y-9555054D01*
X17233805Y-9562767D01*
X17292774Y-9558902D01*
X17533817Y-9494315D01*
X17586850Y-9402459D01*
X17465205Y-8948474D01*
X16962924Y-9083060D01*
X16909891Y-9174915D01*
X12783271Y-9174915D01*
X12924741Y-9093237D01*
X12952193Y-8990785D01*
X12754693Y-8648705D01*
X12304360Y-8908705D01*
X12276908Y-9011157D01*
X10991988Y-9011157D01*
X11002646Y-8992377D01*
X11005469Y-8983879D01*
X11009510Y-8975895D01*
X11016977Y-8949235D01*
X11025718Y-8922921D01*
X11026837Y-8914031D01*
X11029249Y-8905419D01*
X11031397Y-8877807D01*
X11034858Y-8850307D01*
X11034230Y-8841378D01*
X11034924Y-8832453D01*
X11031667Y-8804953D01*
X11029722Y-8777300D01*
X11027368Y-8768651D01*
X11026317Y-8759773D01*
X11017785Y-8733440D01*
X11010502Y-8706682D01*
X11006515Y-8698660D01*
X11003758Y-8690150D01*
X10990262Y-8665955D01*
X10977931Y-8641142D01*
X10972469Y-8634056D01*
X10968106Y-8626234D01*
X10950160Y-8605113D01*
X10933251Y-8583176D01*
X10929639Y-8579385D01*
X10649584Y-8289633D01*
X10657035Y-8253389D01*
X10650293Y-8168832D01*
X10620259Y-8089500D01*
X10569314Y-8021677D01*
X10392537Y-7844900D01*
X10356062Y-7813813D01*
X10281257Y-7774384D01*
X10266705Y-7735947D01*
X10215760Y-7668124D01*
X10038983Y-7491347D01*
X10002508Y-7460260D01*
X9927704Y-7420832D01*
X9913152Y-7382393D01*
X9862207Y-7314570D01*
X9788389Y-7240752D01*
X9806254Y-7241126D01*
X9834118Y-7236213D01*
X10318128Y-7708418D01*
X10324630Y-7713626D01*
X10330282Y-7719762D01*
X10353167Y-7736481D01*
X10375252Y-7754170D01*
X10382643Y-7758016D01*
X10389378Y-7762937D01*
X10415058Y-7774886D01*
X10440173Y-7787956D01*
X10448175Y-7790295D01*
X10455734Y-7793812D01*
X10483246Y-7800545D01*
X10510422Y-7808488D01*
X10518724Y-7809228D01*
X10526823Y-7811210D01*
X10532011Y-7811917D01*
X10842011Y-7851917D01*
X10853599Y-7852272D01*
X10865032Y-7854168D01*
X10890097Y-7853388D01*
X10915164Y-7854155D01*
X10926597Y-7852252D01*
X10938184Y-7851892D01*
X10962618Y-7846259D01*
X10987358Y-7842142D01*
X10998208Y-7838053D01*
X11009500Y-7835450D01*
X11032371Y-7825180D01*
X11055845Y-7816334D01*
X11065694Y-7810216D01*
X11076265Y-7805469D01*
X11080791Y-7802837D01*
X11465393Y-7575544D01*
X11466495Y-7586516D01*
X11498151Y-7665214D01*
X11673151Y-7968322D01*
X11700337Y-8007790D01*
X11762583Y-8065417D01*
X11784142Y-8076221D01*
X11791495Y-8149432D01*
X11823151Y-8228130D01*
X11998151Y-8531238D01*
X12025337Y-8570706D01*
X12087583Y-8628333D01*
X12108665Y-8638898D01*
X12107925Y-8650183D01*
X12115639Y-8708773D01*
X12134634Y-8764731D01*
X12164181Y-8815909D01*
X12196908Y-8872593D01*
X12299360Y-8900045D01*
X12743353Y-8643705D01*
X12763353Y-8643705D01*
X12960853Y-8985785D01*
X13063305Y-9013237D01*
X13279419Y-8888464D01*
X13323849Y-8849500D01*
X13359824Y-8802617D01*
X13385961Y-8749616D01*
X13401256Y-8692535D01*
X13405121Y-8633567D01*
X13397407Y-8574977D01*
X13378412Y-8519019D01*
X13348865Y-8467841D01*
X13316138Y-8411157D01*
X13213686Y-8383705D01*
X12763353Y-8643705D01*
X12743353Y-8643705D01*
X12749693Y-8640045D01*
X12739693Y-8622724D01*
X12748353Y-8617724D01*
X12758353Y-8635045D01*
X13208686Y-8375045D01*
X13236138Y-8272593D01*
X13203412Y-8215909D01*
X13173864Y-8164731D01*
X13134900Y-8120302D01*
X13122736Y-8110968D01*
X13128234Y-8107547D01*
X13136785Y-8099548D01*
X13146322Y-8092755D01*
X13163456Y-8074598D01*
X13181680Y-8057550D01*
X13188511Y-8048047D01*
X13196551Y-8039527D01*
X13209838Y-8018379D01*
X13224398Y-7998123D01*
X13226994Y-7993576D01*
X13317669Y-7832060D01*
X13382133Y-7820694D01*
X13491835Y-7778143D01*
X13591184Y-7715094D01*
X13676395Y-7633949D01*
X13744221Y-7537799D01*
X13792080Y-7430306D01*
X13818149Y-7315564D01*
X13818591Y-7283910D01*
X13841313Y-7270791D01*
X13813862Y-7373240D01*
X13846588Y-7429924D01*
X13876136Y-7481102D01*
X13915100Y-7525531D01*
X13961983Y-7561506D01*
X13971293Y-7566097D01*
X13978449Y-7637349D01*
X14010105Y-7716047D01*
X14185105Y-8019155D01*
X14212291Y-8058623D01*
X14274537Y-8116250D01*
X14350373Y-8154254D01*
X14433795Y-8169626D01*
X14518196Y-8161149D01*
X14596894Y-8129493D01*
X15116510Y-7829493D01*
X15155979Y-7802307D01*
X15213606Y-7740061D01*
X15251610Y-7664224D01*
X15266982Y-7580803D01*
X15258505Y-7496401D01*
X15226849Y-7417703D01*
X15224036Y-7412830D01*
X15225183Y-7410291D01*
X15232629Y-7378316D01*
X15240732Y-7346419D01*
X15240932Y-7342664D01*
X15241783Y-7339011D01*
X15242431Y-7333815D01*
X15282431Y-6993815D01*
X15282546Y-6987874D01*
X15283630Y-6982026D01*
X15283254Y-6951321D01*
X15283849Y-6920642D01*
X15282808Y-6914790D01*
X15282735Y-6908844D01*
X15276405Y-6878810D01*
X15271027Y-6848587D01*
X15268867Y-6843045D01*
X15267642Y-6837231D01*
X15255604Y-6809010D01*
X15244453Y-6780394D01*
X15241258Y-6775377D01*
X15238927Y-6769912D01*
X15236381Y-6765337D01*
X14815746Y-6021889D01*
X14875821Y-5732076D01*
X15063684Y-5663699D01*
X15107274Y-5643780D01*
X15174834Y-5592486D01*
X15225430Y-5524401D01*
X15252737Y-5451132D01*
X15276864Y-5468823D01*
X15330422Y-5493798D01*
X15387824Y-5507844D01*
X15446862Y-5510421D01*
X15505269Y-5501432D01*
X15739767Y-5416082D01*
X15784592Y-5319953D01*
X15623843Y-4878298D01*
X15605048Y-4885139D01*
X15601629Y-4875741D01*
X15620422Y-4868901D01*
X15613581Y-4850106D01*
X15622979Y-4846687D01*
X15629819Y-4865480D01*
X15629819Y-4865480D01*
G37*
X15629819Y-4865480D02*
X15648614Y-4858639D01*
X15652033Y-4868037D01*
X15633240Y-4874877D01*
X15793989Y-5316533D01*
X15890117Y-5361358D01*
X16120088Y-5277656D01*
X16119211Y-5340450D01*
X16140452Y-5456183D01*
X16183768Y-5565586D01*
X16247509Y-5664492D01*
X16329247Y-5749134D01*
X16425868Y-5816287D01*
X16533693Y-5863395D01*
X16601023Y-5878198D01*
X16552219Y-5910135D01*
X16468150Y-5992461D01*
X16401672Y-6089549D01*
X16355318Y-6197700D01*
X16330854Y-6312795D01*
X16329211Y-6430450D01*
X16350452Y-6546183D01*
X16393768Y-6655586D01*
X16457509Y-6754492D01*
X16539247Y-6839134D01*
X16635868Y-6906287D01*
X16743693Y-6953395D01*
X16858614Y-6978662D01*
X16976254Y-6981126D01*
X17092133Y-6960694D01*
X17201835Y-6918143D01*
X17301184Y-6855094D01*
X17386395Y-6773949D01*
X17416683Y-6731012D01*
X17513693Y-6773395D01*
X17628614Y-6798662D01*
X17708366Y-6800332D01*
X17720452Y-6866183D01*
X17763768Y-6975586D01*
X17764063Y-6976044D01*
X16548966Y-7011888D01*
X16487216Y-6918948D01*
X16404305Y-6835455D01*
X16306755Y-6769657D01*
X16198283Y-6724060D01*
X16083021Y-6700400D01*
X15965357Y-6699578D01*
X15849775Y-6721627D01*
X15740677Y-6765705D01*
X15642219Y-6830135D01*
X15558150Y-6912461D01*
X15491672Y-7009549D01*
X15445318Y-7117700D01*
X15420854Y-7232795D01*
X15419211Y-7350450D01*
X15440452Y-7466183D01*
X15483768Y-7575586D01*
X15503502Y-7606207D01*
X15482219Y-7620135D01*
X15398150Y-7702461D01*
X15331672Y-7799549D01*
X15285318Y-7907700D01*
X15260854Y-8022795D01*
X15259211Y-8140450D01*
X15280452Y-8256183D01*
X15323768Y-8365586D01*
X15387509Y-8464492D01*
X15469247Y-8549134D01*
X15565868Y-8616287D01*
X15673693Y-8663395D01*
X15788614Y-8688662D01*
X15906254Y-8691126D01*
X16022133Y-8670694D01*
X16131835Y-8628143D01*
X16231184Y-8565094D01*
X16246079Y-8550910D01*
X16263768Y-8595586D01*
X16327509Y-8694492D01*
X16409247Y-8779134D01*
X16505868Y-8846287D01*
X16613693Y-8893395D01*
X16728614Y-8918662D01*
X16841864Y-8921034D01*
X16868480Y-9020367D01*
X16960336Y-9073400D01*
X17462617Y-8938814D01*
X17457441Y-8919496D01*
X17467101Y-8916907D01*
X17472277Y-8936226D01*
X17491595Y-8931050D01*
X17494184Y-8940710D01*
X17474865Y-8945886D01*
X17596510Y-9399871D01*
X17688366Y-9452904D01*
X17778731Y-9428691D01*
X17760854Y-9512795D01*
X17759211Y-9630450D01*
X17780452Y-9746183D01*
X17796067Y-9785622D01*
X17478859Y-9913783D01*
X17435991Y-9935211D01*
X17370262Y-9988832D01*
X17322074Y-10058641D01*
X17320991Y-10061889D01*
X17275083Y-10046581D01*
X17190323Y-10043230D01*
X17107985Y-10063625D01*
X16644393Y-10250929D01*
X16601525Y-10272357D01*
X16535796Y-10325978D01*
X16487608Y-10395787D01*
X16460775Y-10476257D01*
X16457424Y-10561017D01*
X16457734Y-10562270D01*
X16249786Y-10666446D01*
X16195137Y-10620926D01*
X16117415Y-10586943D01*
X16033304Y-10575958D01*
X15949462Y-10588841D01*
X15872528Y-10624572D01*
X15369326Y-10951355D01*
X15331334Y-10980570D01*
X15277044Y-11045747D01*
X15243061Y-11123468D01*
X15232727Y-11202594D01*
X15194877Y-11186045D01*
X15110766Y-11175060D01*
X15026924Y-11187943D01*
X15022706Y-11189902D01*
X14879675Y-10965708D01*
X14882080Y-10960306D01*
X14908149Y-10845564D01*
X14910026Y-10711167D01*
X14887171Y-10595742D01*
X14842332Y-10486954D01*
X14777216Y-10388948D01*
X14694305Y-10305455D01*
X14596755Y-10239657D01*
X14488283Y-10194060D01*
X14373021Y-10170400D01*
X14255357Y-10169578D01*
X14139775Y-10191627D01*
X14030677Y-10235705D01*
X13932219Y-10300135D01*
X13848150Y-10382461D01*
X13781672Y-10479549D01*
X13735318Y-10587700D01*
X13710854Y-10702795D01*
X13709211Y-10820450D01*
X13730452Y-10936183D01*
X13773768Y-11045586D01*
X13837509Y-11144492D01*
X13919247Y-11229134D01*
X14015868Y-11296287D01*
X14123693Y-11343395D01*
X14238614Y-11368662D01*
X14247232Y-11368843D01*
X14393473Y-11598068D01*
X14354506Y-11644849D01*
X14320523Y-11722570D01*
X14309538Y-11806682D01*
X14322421Y-11890524D01*
X14358152Y-11967457D01*
X14630472Y-12386792D01*
X14659686Y-12424784D01*
X14724863Y-12479074D01*
X14802585Y-12513057D01*
X14886696Y-12524042D01*
X14955097Y-12513532D01*
X13820150Y-13479447D01*
X13868992Y-13395106D01*
X13929375Y-13217982D01*
X13954044Y-13032482D01*
X13942049Y-12845733D01*
X13893852Y-12664912D01*
X13811305Y-12496968D01*
X13775213Y-12442955D01*
X13625495Y-12381576D01*
X13007071Y-13000000D01*
X13021214Y-13014143D01*
X13014143Y-13021214D01*
X13000000Y-13007071D01*
X12381576Y-13625495D01*
X12442955Y-13775213D01*
X12604894Y-13868992D01*
X12782018Y-13929375D01*
X12967518Y-13954044D01*
X13154267Y-13942049D01*
X13335088Y-13893852D01*
X13404260Y-13859853D01*
X11946686Y-15698853D01*
X10826656Y-17878196D01*
X10151260Y-20233582D01*
X9946224Y-22675295D01*
X10219357Y-25110331D01*
X10960256Y-27445941D01*
X12140700Y-29593161D01*
X13457829Y-31162853D01*
X13454029Y-31160290D01*
X13282282Y-31088094D01*
X13099783Y-31050632D01*
X12913482Y-31049332D01*
X12730478Y-31084242D01*
X12557739Y-31154033D01*
X12401846Y-31256046D01*
X12268736Y-31386397D01*
X12163480Y-31540119D01*
X12090087Y-31711359D01*
X12051352Y-31893592D01*
X12048751Y-32079879D01*
X12082382Y-32263123D01*
X12150966Y-32436344D01*
X12251889Y-32592946D01*
X12258641Y-32599937D01*
X6753792Y-38104786D01*
X6534253Y-37917943D01*
X4293210Y-35090450D01*
X8229211Y-35090450D01*
X8250452Y-35206183D01*
X8293768Y-35315586D01*
X8357509Y-35414492D01*
X8439247Y-35499134D01*
X8535868Y-35566287D01*
X8643693Y-35613395D01*
X8758614Y-35638662D01*
X8876254Y-35641126D01*
X8992133Y-35620694D01*
X9101835Y-35578143D01*
X9201184Y-35515094D01*
X9286395Y-35433949D01*
X9354221Y-35337799D01*
X9402080Y-35230306D01*
X9428149Y-35115564D01*
X9430026Y-34981167D01*
X9407171Y-34865742D01*
X9362332Y-34756954D01*
X9297216Y-34658948D01*
X9214305Y-34575455D01*
X9116755Y-34509657D01*
X9008283Y-34464060D01*
X8893021Y-34440400D01*
X8775357Y-34439578D01*
X8659775Y-34461627D01*
X8550677Y-34505705D01*
X8452219Y-34570135D01*
X8368150Y-34652461D01*
X8301672Y-34749549D01*
X8255318Y-34857700D01*
X8230854Y-34972795D01*
X8229211Y-35090450D01*
X4293210Y-35090450D01*
X3843624Y-34523214D01*
X2336389Y-31590450D01*
X3869211Y-31590450D01*
X3890452Y-31706183D01*
X3933768Y-31815586D01*
X3997509Y-31914492D01*
X4079247Y-31999134D01*
X4175868Y-32066287D01*
X4283693Y-32113395D01*
X4398614Y-32138662D01*
X4516254Y-32141126D01*
X4632133Y-32120694D01*
X4741835Y-32078143D01*
X4841184Y-32015094D01*
X4926395Y-31933949D01*
X4994221Y-31837799D01*
X5011580Y-31798810D01*
X5230681Y-31705709D01*
X5241426Y-31724655D01*
X5298413Y-31787488D01*
X5370649Y-31831957D01*
X5452413Y-31854541D01*
X5537232Y-31853452D01*
X5566339Y-31844602D01*
X5703955Y-32144110D01*
X5680854Y-32252795D01*
X5679211Y-32370450D01*
X5700452Y-32486183D01*
X5743768Y-32595586D01*
X5807509Y-32694492D01*
X5889247Y-32779134D01*
X5985868Y-32846287D01*
X6093693Y-32893395D01*
X6208614Y-32918662D01*
X6326254Y-32921126D01*
X6442133Y-32900694D01*
X6551835Y-32858143D01*
X6651184Y-32795094D01*
X6736395Y-32713949D01*
X6804221Y-32617799D01*
X6852080Y-32510306D01*
X6878149Y-32395564D01*
X6880026Y-32261167D01*
X6857171Y-32145742D01*
X6812332Y-32036954D01*
X6747216Y-31938948D01*
X6664305Y-31855455D01*
X6566755Y-31789657D01*
X6523122Y-31771315D01*
X6383692Y-31467860D01*
X6385214Y-31466997D01*
X6448047Y-31410010D01*
X6492516Y-31337774D01*
X6515100Y-31256010D01*
X6514011Y-31171191D01*
X6502159Y-31132209D01*
X6574071Y-31097875D01*
X6668614Y-31118662D01*
X6786254Y-31121126D01*
X6902133Y-31100694D01*
X7011835Y-31058143D01*
X7111184Y-30995094D01*
X7196395Y-30913949D01*
X7264221Y-30817799D01*
X7312080Y-30710306D01*
X7338149Y-30595564D01*
X7340026Y-30461167D01*
X7317171Y-30345742D01*
X7272332Y-30236954D01*
X7207216Y-30138948D01*
X7139843Y-30071102D01*
X7753731Y-29784841D01*
X7795418Y-29761199D01*
X7858251Y-29704212D01*
X7902720Y-29631976D01*
X7925304Y-29550212D01*
X7924764Y-29508186D01*
X8635289Y-29140896D01*
X8646254Y-29141126D01*
X8762133Y-29120694D01*
X8871835Y-29078143D01*
X8971184Y-29015094D01*
X9056395Y-28933949D01*
X9124221Y-28837799D01*
X9172080Y-28730306D01*
X9198149Y-28615564D01*
X9200026Y-28481167D01*
X9177171Y-28365742D01*
X9132332Y-28256954D01*
X9067216Y-28158948D01*
X8984305Y-28075455D01*
X8886755Y-28009657D01*
X8778283Y-27964060D01*
X8663021Y-27940400D01*
X8545357Y-27939578D01*
X8429775Y-27961627D01*
X8320677Y-28005705D01*
X8222219Y-28070135D01*
X8138150Y-28152461D01*
X8130579Y-28163519D01*
X7432071Y-28524597D01*
X7408537Y-28510109D01*
X7326773Y-28487525D01*
X7241954Y-28488614D01*
X7160796Y-28513290D01*
X6435659Y-28851427D01*
X6393972Y-28875069D01*
X6331139Y-28932056D01*
X6286670Y-29004292D01*
X6264086Y-29086056D01*
X6265175Y-29170875D01*
X6289851Y-29252033D01*
X6608013Y-29934333D01*
X6569775Y-29941627D01*
X6460677Y-29985705D01*
X6362219Y-30050135D01*
X6278150Y-30132461D01*
X6211672Y-30229549D01*
X6187943Y-30284913D01*
X6121565Y-30316604D01*
X6070569Y-30260376D01*
X5998333Y-30215907D01*
X5916569Y-30193323D01*
X5831750Y-30194412D01*
X5750592Y-30219088D01*
X5025455Y-30557225D01*
X4983768Y-30580867D01*
X4920935Y-30637854D01*
X4876466Y-30710090D01*
X4853882Y-30791854D01*
X4854971Y-30876673D01*
X4857879Y-30886239D01*
X4661582Y-30969650D01*
X4648283Y-30964060D01*
X4533021Y-30940400D01*
X4415357Y-30939578D01*
X4299775Y-30961627D01*
X4190677Y-31005705D01*
X4092219Y-31070135D01*
X4008150Y-31152461D01*
X3941672Y-31249549D01*
X3895318Y-31357700D01*
X3870854Y-31472795D01*
X3869211Y-31590450D01*
X2336389Y-31590450D01*
X1863611Y-30670524D01*
X1576804Y-29670306D01*
X4280865Y-29670306D01*
X4428611Y-29987148D01*
X4463554Y-30034804D01*
X4507123Y-30074729D01*
X4557645Y-30105386D01*
X4613175Y-30125597D01*
X4671582Y-30134587D01*
X4730621Y-30132009D01*
X4788022Y-30117964D01*
X4841580Y-30092989D01*
X5104865Y-29970217D01*
X5141142Y-29870548D01*
X4879098Y-29308592D01*
X4317141Y-29570636D01*
X4280865Y-29670306D01*
X1576804Y-29670306D01*
X1410981Y-29092014D01*
X4048876Y-29092014D01*
X4051454Y-29151053D01*
X4065500Y-29208454D01*
X4213246Y-29525296D01*
X4312915Y-29561573D01*
X4864500Y-29304365D01*
X4888161Y-29304365D01*
X5150205Y-29866322D01*
X5249875Y-29902598D01*
X5513160Y-29779826D01*
X5566718Y-29754852D01*
X5614374Y-29719908D01*
X5654298Y-29676339D01*
X5684955Y-29625818D01*
X5705166Y-29570288D01*
X5714156Y-29511880D01*
X5711578Y-29452841D01*
X5697532Y-29395440D01*
X5549786Y-29078598D01*
X5450117Y-29042321D01*
X4888161Y-29304365D01*
X4864500Y-29304365D01*
X4874871Y-29299529D01*
X4612827Y-28737572D01*
X4601216Y-28733346D01*
X4621890Y-28733346D01*
X4883934Y-29295302D01*
X5445891Y-29033258D01*
X5482167Y-28933588D01*
X5334421Y-28616746D01*
X5299478Y-28569090D01*
X5255909Y-28529165D01*
X5205387Y-28498508D01*
X5149857Y-28478297D01*
X5091450Y-28469307D01*
X5032411Y-28471885D01*
X4975010Y-28485930D01*
X4921452Y-28510905D01*
X4658167Y-28633677D01*
X4621890Y-28733346D01*
X4601216Y-28733346D01*
X4513157Y-28701296D01*
X4249872Y-28824068D01*
X4196314Y-28849042D01*
X4148658Y-28883986D01*
X4108734Y-28927555D01*
X4078077Y-28978076D01*
X4057866Y-29033606D01*
X4048876Y-29092014D01*
X1410981Y-29092014D01*
X773532Y-26868967D01*
X1119801Y-26868967D01*
X1122631Y-26953745D01*
X1209455Y-27446148D01*
X1221502Y-27492535D01*
X1260285Y-27567976D01*
X1318550Y-27629626D01*
X1391683Y-27672602D01*
X1465247Y-27691305D01*
X1411672Y-27769549D01*
X1365318Y-27877700D01*
X1340854Y-27992795D01*
X1339211Y-28110450D01*
X1360452Y-28226183D01*
X1403768Y-28335586D01*
X1467509Y-28434492D01*
X1549247Y-28519134D01*
X1645868Y-28586287D01*
X1753693Y-28633395D01*
X1868614Y-28658662D01*
X1986254Y-28661126D01*
X2102133Y-28640694D01*
X2211835Y-28598143D01*
X2311184Y-28535094D01*
X2396395Y-28453949D01*
X2464221Y-28357799D01*
X2512080Y-28250306D01*
X2538149Y-28135564D01*
X2540026Y-28001167D01*
X2517171Y-27885742D01*
X2472332Y-27776954D01*
X2407216Y-27678948D01*
X2324305Y-27595455D01*
X2251103Y-27546080D01*
X2271384Y-27535654D01*
X2333034Y-27477389D01*
X2373463Y-27408590D01*
X2401838Y-27438614D01*
X2474971Y-27481590D01*
X2557182Y-27502491D01*
X2641961Y-27499661D01*
X3232845Y-27395472D01*
X3279231Y-27383425D01*
X3354672Y-27344642D01*
X3416322Y-27286377D01*
X3459298Y-27213244D01*
X3480199Y-27131033D01*
X3477369Y-27046255D01*
X3390545Y-26553852D01*
X3378498Y-26507465D01*
X3355499Y-26462727D01*
X3293404Y-26101451D01*
X3550000Y-26101451D01*
X3597774Y-26097641D01*
X3678803Y-26072548D01*
X3749634Y-26025874D01*
X3804657Y-25961315D01*
X3839516Y-25883982D01*
X3851451Y-25800000D01*
X3851451Y-25155000D01*
X5350000Y-25155000D01*
X5350000Y-25829547D01*
X5361529Y-25887506D01*
X5384143Y-25942103D01*
X5416975Y-25991239D01*
X5458761Y-26033025D01*
X5507896Y-26065856D01*
X5562493Y-26088471D01*
X5620452Y-26100000D01*
X5920000Y-26100000D01*
X5995000Y-26025000D01*
X5995000Y-25080000D01*
X6005000Y-25080000D01*
X6005000Y-26025000D01*
X6080000Y-26100000D01*
X6379548Y-26100000D01*
X6437507Y-26088471D01*
X6492104Y-26065856D01*
X6541239Y-26033025D01*
X6583025Y-25991239D01*
X6615857Y-25942103D01*
X6638471Y-25887506D01*
X6650000Y-25829547D01*
X6650000Y-25155000D01*
X6575000Y-25080000D01*
X6005000Y-25080000D01*
X5995000Y-25080000D01*
X5425000Y-25080000D01*
X5350000Y-25155000D01*
X3851451Y-25155000D01*
X3851451Y-24350000D01*
X3849095Y-24320453D01*
X5350000Y-24320453D01*
X5350000Y-24995000D01*
X5425000Y-25070000D01*
X5995000Y-25070000D01*
X5995000Y-24125000D01*
X6005000Y-24125000D01*
X6005000Y-25070000D01*
X6575000Y-25070000D01*
X6650000Y-24995000D01*
X6650000Y-24320453D01*
X6638471Y-24262494D01*
X6615857Y-24207897D01*
X6583025Y-24158761D01*
X6541239Y-24116975D01*
X6492104Y-24084144D01*
X6437507Y-24061529D01*
X6379548Y-24050000D01*
X6080000Y-24050000D01*
X6005000Y-24125000D01*
X5995000Y-24125000D01*
X5920000Y-24050000D01*
X5620452Y-24050000D01*
X5562493Y-24061529D01*
X5507896Y-24084144D01*
X5458761Y-24116975D01*
X5416975Y-24158761D01*
X5384143Y-24207897D01*
X5361529Y-24262494D01*
X5350000Y-24320453D01*
X3849095Y-24320453D01*
X3847641Y-24302226D01*
X3822548Y-24221197D01*
X3775874Y-24150366D01*
X3711315Y-24095343D01*
X3633982Y-24060484D01*
X3575000Y-24052102D01*
X3575000Y-21735000D01*
X6558000Y-21735000D01*
X6639247Y-21819134D01*
X6735868Y-21886287D01*
X6843693Y-21933395D01*
X6958614Y-21958662D01*
X7076254Y-21961126D01*
X7192133Y-21940694D01*
X7301835Y-21898143D01*
X7401184Y-21835094D01*
X7486395Y-21753949D01*
X7554221Y-21657799D01*
X7602080Y-21550306D01*
X7625000Y-21449424D01*
X7625000Y-24050543D01*
X7602226Y-24052359D01*
X7521197Y-24077452D01*
X7450366Y-24124126D01*
X7395343Y-24188685D01*
X7360484Y-24266018D01*
X7348549Y-24350000D01*
X7348549Y-25800000D01*
X7352359Y-25847774D01*
X7377452Y-25928803D01*
X7424126Y-25999634D01*
X7488685Y-26054657D01*
X7566018Y-26089516D01*
X7636329Y-26099508D01*
X7639797Y-26412507D01*
X7558150Y-26492461D01*
X7491672Y-26589549D01*
X7445318Y-26697700D01*
X7420854Y-26812795D01*
X7419211Y-26930450D01*
X7440452Y-27046183D01*
X7483768Y-27155586D01*
X7547509Y-27254492D01*
X7629247Y-27339134D01*
X7725868Y-27406287D01*
X7833693Y-27453395D01*
X7948614Y-27478662D01*
X8066254Y-27481126D01*
X8182133Y-27460694D01*
X8291835Y-27418143D01*
X8391184Y-27355094D01*
X8476395Y-27273949D01*
X8507080Y-27230450D01*
X8879211Y-27230450D01*
X8900452Y-27346183D01*
X8943768Y-27455586D01*
X9007509Y-27554492D01*
X9089247Y-27639134D01*
X9185868Y-27706287D01*
X9293693Y-27753395D01*
X9408614Y-27778662D01*
X9526254Y-27781126D01*
X9642133Y-27760694D01*
X9751835Y-27718143D01*
X9851184Y-27655094D01*
X9936395Y-27573949D01*
X10004221Y-27477799D01*
X10052080Y-27370306D01*
X10078149Y-27255564D01*
X10080026Y-27121167D01*
X10057171Y-27005742D01*
X10012332Y-26896954D01*
X9947216Y-26798948D01*
X9864305Y-26715455D01*
X9766755Y-26649657D01*
X9658283Y-26604060D01*
X9543021Y-26580400D01*
X9425357Y-26579578D01*
X9309775Y-26601627D01*
X9200677Y-26645705D01*
X9102219Y-26710135D01*
X9018150Y-26792461D01*
X8951672Y-26889549D01*
X8905318Y-26997700D01*
X8880854Y-27112795D01*
X8879211Y-27230450D01*
X8507080Y-27230450D01*
X8544221Y-27177799D01*
X8592080Y-27070306D01*
X8618149Y-26955564D01*
X8620026Y-26821167D01*
X8597171Y-26705742D01*
X8552332Y-26596954D01*
X8487216Y-26498948D01*
X8404305Y-26415455D01*
X8389767Y-26405649D01*
X8386364Y-26098551D01*
X8397774Y-26097641D01*
X8478803Y-26072548D01*
X8549634Y-26025874D01*
X8604657Y-25961315D01*
X8639516Y-25883982D01*
X8651451Y-25800000D01*
X8651451Y-24350000D01*
X8647641Y-24302226D01*
X8622548Y-24221197D01*
X8575874Y-24150366D01*
X8511315Y-24095343D01*
X8433982Y-24060484D01*
X8375000Y-24052102D01*
X8375000Y-20949457D01*
X8397774Y-20947641D01*
X8478803Y-20922548D01*
X8549634Y-20875874D01*
X8604657Y-20811315D01*
X8639516Y-20733982D01*
X8651451Y-20650000D01*
X8651451Y-19982483D01*
X9160829Y-19689037D01*
X9193693Y-19703395D01*
X9308614Y-19728662D01*
X9426254Y-19731126D01*
X9542133Y-19710694D01*
X9651835Y-19668143D01*
X9751184Y-19605094D01*
X9836395Y-19523949D01*
X9904221Y-19427799D01*
X9952080Y-19320306D01*
X9978149Y-19205564D01*
X9980026Y-19071167D01*
X9957171Y-18955742D01*
X9912332Y-18846954D01*
X9847216Y-18748948D01*
X9764305Y-18665455D01*
X9666755Y-18599657D01*
X9558283Y-18554060D01*
X9443021Y-18530400D01*
X9325357Y-18529578D01*
X9209775Y-18551627D01*
X9100677Y-18595705D01*
X9002219Y-18660135D01*
X8918150Y-18742461D01*
X8851672Y-18839549D01*
X8805318Y-18947700D01*
X8785798Y-19039536D01*
X8638943Y-19124138D01*
X8622548Y-19071197D01*
X8575874Y-19000366D01*
X8511315Y-18945343D01*
X8433982Y-18910484D01*
X8350000Y-18898549D01*
X7650000Y-18898549D01*
X7602226Y-18902359D01*
X7521197Y-18927452D01*
X7450366Y-18974126D01*
X7395343Y-19038685D01*
X7360484Y-19116018D01*
X7348549Y-19200000D01*
X7348549Y-20650000D01*
X7352359Y-20697774D01*
X7377452Y-20778803D01*
X7424126Y-20849634D01*
X7488685Y-20904657D01*
X7566018Y-20939516D01*
X7625000Y-20947898D01*
X7625000Y-21275784D01*
X7607171Y-21185742D01*
X7562332Y-21076954D01*
X7497216Y-20978948D01*
X7414305Y-20895455D01*
X7316755Y-20829657D01*
X7208283Y-20784060D01*
X7093021Y-20760400D01*
X6975357Y-20759578D01*
X6859775Y-20781627D01*
X6750677Y-20825705D01*
X6652219Y-20890135D01*
X6568150Y-20972461D01*
X6559564Y-20985000D01*
X3575000Y-20985000D01*
X3575000Y-20949457D01*
X3597774Y-20947641D01*
X3678803Y-20922548D01*
X3749634Y-20875874D01*
X3804657Y-20811315D01*
X3839516Y-20733982D01*
X3851451Y-20650000D01*
X3851451Y-20005000D01*
X5350000Y-20005000D01*
X5350000Y-20679547D01*
X5361529Y-20737506D01*
X5384143Y-20792103D01*
X5416975Y-20841239D01*
X5458761Y-20883025D01*
X5507896Y-20915856D01*
X5562493Y-20938471D01*
X5620452Y-20950000D01*
X5920000Y-20950000D01*
X5995000Y-20875000D01*
X5995000Y-19930000D01*
X6005000Y-19930000D01*
X6005000Y-20875000D01*
X6080000Y-20950000D01*
X6379548Y-20950000D01*
X6437507Y-20938471D01*
X6492104Y-20915856D01*
X6541239Y-20883025D01*
X6583025Y-20841239D01*
X6615857Y-20792103D01*
X6638471Y-20737506D01*
X6650000Y-20679547D01*
X6650000Y-20005000D01*
X6575000Y-19930000D01*
X6005000Y-19930000D01*
X5995000Y-19930000D01*
X5425000Y-19930000D01*
X5350000Y-20005000D01*
X3851451Y-20005000D01*
X3851451Y-19200000D01*
X3849095Y-19170453D01*
X5350000Y-19170453D01*
X5350000Y-19845000D01*
X5425000Y-19920000D01*
X5995000Y-19920000D01*
X5995000Y-18975000D01*
X6005000Y-18975000D01*
X6005000Y-19920000D01*
X6575000Y-19920000D01*
X6650000Y-19845000D01*
X6650000Y-19170453D01*
X6638471Y-19112494D01*
X6615857Y-19057897D01*
X6583025Y-19008761D01*
X6541239Y-18966975D01*
X6492104Y-18934144D01*
X6437507Y-18911529D01*
X6379548Y-18900000D01*
X6080000Y-18900000D01*
X6005000Y-18975000D01*
X5995000Y-18975000D01*
X5920000Y-18900000D01*
X5620452Y-18900000D01*
X5562493Y-18911529D01*
X5507896Y-18934144D01*
X5458761Y-18966975D01*
X5416975Y-19008761D01*
X5384143Y-19057897D01*
X5361529Y-19112494D01*
X5350000Y-19170453D01*
X3849095Y-19170453D01*
X3847641Y-19152226D01*
X3822548Y-19071197D01*
X3775874Y-19000366D01*
X3711315Y-18945343D01*
X3633982Y-18910484D01*
X3550000Y-18898549D01*
X2850000Y-18898549D01*
X2802226Y-18902359D01*
X2721197Y-18927452D01*
X2650366Y-18974126D01*
X2595343Y-19038685D01*
X2560484Y-19116018D01*
X2548549Y-19200000D01*
X2548549Y-20650000D01*
X2552359Y-20697774D01*
X2577452Y-20778803D01*
X2624126Y-20849634D01*
X2688685Y-20904657D01*
X2766018Y-20939516D01*
X2825000Y-20947898D01*
X2825000Y-24050543D01*
X2802226Y-24052359D01*
X2721197Y-24077452D01*
X2650366Y-24124126D01*
X2595343Y-24188685D01*
X2560484Y-24266018D01*
X2548549Y-24350000D01*
X2548549Y-25726970D01*
X2529834Y-25775804D01*
X2523314Y-25799524D01*
X2515281Y-25822792D01*
X2513634Y-25834745D01*
X2510437Y-25846375D01*
X2508648Y-25870920D01*
X2505289Y-25895293D01*
X2505994Y-25907332D01*
X2505117Y-25919368D01*
X2508130Y-25943797D01*
X2509569Y-25968355D01*
X2510419Y-25973522D01*
X2582054Y-26390309D01*
X2450443Y-26413516D01*
X2404057Y-26425563D01*
X2328616Y-26464346D01*
X2266966Y-26522611D01*
X2226537Y-26591410D01*
X2198162Y-26561386D01*
X2125029Y-26518410D01*
X2042818Y-26497509D01*
X1958039Y-26500339D01*
X1367155Y-26604528D01*
X1320769Y-26616575D01*
X1245328Y-26655358D01*
X1183678Y-26713623D01*
X1140702Y-26786756D01*
X1119801Y-26868967D01*
X773532Y-26868967D01*
X669631Y-26506622D01*
X627213Y-26001477D01*
X658761Y-26033025D01*
X707896Y-26065856D01*
X762493Y-26088471D01*
X820452Y-26100000D01*
X1120000Y-26100000D01*
X1195000Y-26025000D01*
X1195000Y-25080000D01*
X1205000Y-25080000D01*
X1205000Y-26025000D01*
X1280000Y-26100000D01*
X1579548Y-26100000D01*
X1637507Y-26088471D01*
X1692104Y-26065856D01*
X1741239Y-26033025D01*
X1783025Y-25991239D01*
X1815857Y-25942103D01*
X1838471Y-25887506D01*
X1850000Y-25829547D01*
X1850000Y-25155000D01*
X1775000Y-25080000D01*
X1205000Y-25080000D01*
X1195000Y-25080000D01*
X625000Y-25080000D01*
X555657Y-25149343D01*
X486054Y-24320453D01*
X550000Y-24320453D01*
X550000Y-24995000D01*
X625000Y-25070000D01*
X1195000Y-25070000D01*
X1195000Y-24125000D01*
X1205000Y-24125000D01*
X1205000Y-25070000D01*
X1775000Y-25070000D01*
X1850000Y-24995000D01*
X1850000Y-24320453D01*
X1838471Y-24262494D01*
X1815857Y-24207897D01*
X1783025Y-24158761D01*
X1741239Y-24116975D01*
X1692104Y-24084144D01*
X1637507Y-24061529D01*
X1579548Y-24050000D01*
X1280000Y-24050000D01*
X1205000Y-24125000D01*
X1195000Y-24125000D01*
X1120000Y-24050000D01*
X820452Y-24050000D01*
X762493Y-24061529D01*
X707896Y-24084144D01*
X658761Y-24116975D01*
X616975Y-24158761D01*
X584143Y-24207897D01*
X561529Y-24262494D01*
X550000Y-24320453D01*
X486054Y-24320453D01*
X307163Y-22190109D01*
X550000Y-20025171D01*
X550000Y-20679547D01*
X561529Y-20737506D01*
X584143Y-20792103D01*
X616975Y-20841239D01*
X658761Y-20883025D01*
X707896Y-20915856D01*
X762493Y-20938471D01*
X820452Y-20950000D01*
X1120000Y-20950000D01*
X1195000Y-20875000D01*
X1195000Y-19930000D01*
X1205000Y-19930000D01*
X1205000Y-20875000D01*
X1280000Y-20950000D01*
X1579548Y-20950000D01*
X1637507Y-20938471D01*
X1692104Y-20915856D01*
X1741239Y-20883025D01*
X1783025Y-20841239D01*
X1815857Y-20792103D01*
X1838471Y-20737506D01*
X1850000Y-20679547D01*
X1850000Y-20005000D01*
X1775000Y-19930000D01*
X1205000Y-19930000D01*
X1195000Y-19930000D01*
X1175000Y-19930000D01*
X1175000Y-19920000D01*
X1195000Y-19920000D01*
X1195000Y-18975000D01*
X1205000Y-18975000D01*
X1205000Y-19920000D01*
X1775000Y-19920000D01*
X1850000Y-19845000D01*
X1850000Y-19170453D01*
X1838471Y-19112494D01*
X1815857Y-19057897D01*
X1783025Y-19008761D01*
X1741239Y-18966975D01*
X1692104Y-18934144D01*
X1637507Y-18911529D01*
X1579548Y-18900000D01*
X1280000Y-18900000D01*
X1205000Y-18975000D01*
X1195000Y-18975000D01*
X1120000Y-18900000D01*
X820452Y-18900000D01*
X762493Y-18911529D01*
X707896Y-18934144D01*
X669501Y-18959799D01*
X790014Y-17885400D01*
X1118960Y-16848432D01*
X1122698Y-16856449D01*
X1157641Y-16904105D01*
X1201210Y-16944030D01*
X1251731Y-16974687D01*
X1307262Y-16994898D01*
X1580199Y-17094239D01*
X1668992Y-17052834D01*
X1685724Y-17052834D01*
X1730549Y-17148962D01*
X2003486Y-17248303D01*
X2059017Y-17268515D01*
X2117424Y-17277504D01*
X2176463Y-17274926D01*
X2233864Y-17260880D01*
X2287421Y-17235906D01*
X2335079Y-17200962D01*
X2375002Y-17157392D01*
X2405659Y-17106872D01*
X2491009Y-16872375D01*
X2446184Y-16776246D01*
X1863574Y-16564194D01*
X1685724Y-17052834D01*
X1668992Y-17052834D01*
X1676327Y-17049414D01*
X1854177Y-16560773D01*
X1837758Y-16554797D01*
X1866995Y-16554797D01*
X2449604Y-16766849D01*
X2545732Y-16722024D01*
X2631083Y-16487526D01*
X2640072Y-16429119D01*
X2637495Y-16370081D01*
X2623449Y-16312679D01*
X2598474Y-16259121D01*
X2563531Y-16211465D01*
X2519962Y-16171540D01*
X2469441Y-16140883D01*
X2413910Y-16120672D01*
X2140973Y-16021331D01*
X2044845Y-16066156D01*
X1866995Y-16554797D01*
X1837758Y-16554797D01*
X1835384Y-16553933D01*
X1838803Y-16544535D01*
X1857598Y-16551376D01*
X2035448Y-16062736D01*
X1990623Y-15966608D01*
X1717686Y-15867267D01*
X1662155Y-15847055D01*
X1603748Y-15838066D01*
X1544709Y-15840644D01*
X1487308Y-15854690D01*
X1433751Y-15879664D01*
X1424004Y-15886811D01*
X1566279Y-15438304D01*
X1580400Y-15497656D01*
X1622247Y-15571442D01*
X1682993Y-15630648D01*
X1757829Y-15670586D01*
X2509583Y-15944202D01*
X2555778Y-15956962D01*
X2640504Y-15961096D01*
X2723026Y-15941462D01*
X2796812Y-15899615D01*
X2841513Y-15853752D01*
X2851038Y-15857663D01*
X2893768Y-15965586D01*
X2957509Y-16064492D01*
X3039247Y-16149134D01*
X3135868Y-16216287D01*
X3243693Y-16263395D01*
X3358614Y-16288662D01*
X3476254Y-16291126D01*
X3592133Y-16270694D01*
X3701835Y-16228143D01*
X3801184Y-16165094D01*
X3886395Y-16083949D01*
X3954221Y-15987799D01*
X4002080Y-15880306D01*
X4006591Y-15860450D01*
X6369211Y-15860450D01*
X6390452Y-15976183D01*
X6433768Y-16085586D01*
X6497509Y-16184492D01*
X6579247Y-16269134D01*
X6675868Y-16336287D01*
X6783693Y-16383395D01*
X6898614Y-16408662D01*
X7016254Y-16411126D01*
X7132133Y-16390694D01*
X7167442Y-16376998D01*
X8169695Y-17006891D01*
X8169700Y-17006894D01*
X8186231Y-17017283D01*
X8196263Y-17022295D01*
X8413732Y-17143548D01*
X8399436Y-17206509D01*
X8404442Y-17291187D01*
X8432840Y-17371118D01*
X8482382Y-17439973D01*
X8549146Y-17492300D01*
X10021390Y-18342300D01*
X10064668Y-18362888D01*
X10147388Y-18381671D01*
X10232066Y-18376665D01*
X10311997Y-18348267D01*
X10380852Y-18298725D01*
X10433179Y-18231962D01*
X10758179Y-17669046D01*
X10778767Y-17625767D01*
X10797550Y-17543047D01*
X10792544Y-17458369D01*
X10764146Y-17378438D01*
X10714604Y-17309583D01*
X10647840Y-17257256D01*
X9175596Y-16407256D01*
X9132318Y-16386668D01*
X9049598Y-16367885D01*
X8964920Y-16372891D01*
X8884989Y-16401289D01*
X8816134Y-16450831D01*
X8784292Y-16491458D01*
X8560450Y-16366651D01*
X7568449Y-15743201D01*
X7547171Y-15635742D01*
X7502332Y-15526954D01*
X7437216Y-15428948D01*
X7354305Y-15345455D01*
X7256755Y-15279657D01*
X7148283Y-15234060D01*
X7033021Y-15210400D01*
X6915357Y-15209578D01*
X6799775Y-15231627D01*
X6690677Y-15275705D01*
X6592219Y-15340135D01*
X6508150Y-15422461D01*
X6441672Y-15519549D01*
X6395318Y-15627700D01*
X6370854Y-15742795D01*
X6369211Y-15860450D01*
X4006591Y-15860450D01*
X4028149Y-15765564D01*
X4030026Y-15631167D01*
X4007171Y-15515742D01*
X3962332Y-15406954D01*
X3897216Y-15308948D01*
X3814305Y-15225455D01*
X3716755Y-15159657D01*
X3608283Y-15114060D01*
X3493021Y-15090400D01*
X3375357Y-15089578D01*
X3259775Y-15111627D01*
X3150677Y-15155705D01*
X3137316Y-15164448D01*
X3113724Y-15154761D01*
X3113928Y-15154022D01*
X3118062Y-15069296D01*
X3098428Y-14986774D01*
X3063781Y-14925683D01*
X3337088Y-14483117D01*
X3699404Y-14692300D01*
X3742682Y-14712888D01*
X3825402Y-14731671D01*
X3910080Y-14726665D01*
X3990011Y-14698267D01*
X4058866Y-14648725D01*
X4111193Y-14581962D01*
X4394967Y-14090450D01*
X5509211Y-14090450D01*
X5530452Y-14206183D01*
X5573768Y-14315586D01*
X5637509Y-14414492D01*
X5719247Y-14499134D01*
X5815868Y-14566287D01*
X5923693Y-14613395D01*
X6038614Y-14638662D01*
X6156254Y-14641126D01*
X6272133Y-14620694D01*
X6346119Y-14591996D01*
X8824912Y-15920420D01*
X9048482Y-16044798D01*
X9034436Y-16106657D01*
X9039442Y-16191335D01*
X9067840Y-16271266D01*
X9117382Y-16340121D01*
X9184146Y-16392448D01*
X10656390Y-17242448D01*
X10699668Y-17263036D01*
X10782388Y-17281819D01*
X10867066Y-17276813D01*
X10946997Y-17248415D01*
X11015852Y-17198873D01*
X11068179Y-17132110D01*
X11393179Y-16569194D01*
X11413767Y-16525915D01*
X11432550Y-16443195D01*
X11427544Y-16358517D01*
X11399146Y-16278586D01*
X11349604Y-16209731D01*
X11282840Y-16157404D01*
X9810596Y-15307404D01*
X9767318Y-15286816D01*
X9684598Y-15268033D01*
X9599920Y-15273039D01*
X9519989Y-15301437D01*
X9451134Y-15350979D01*
X9418619Y-15392464D01*
X9204961Y-15273601D01*
X9202496Y-15271901D01*
X9197898Y-15269396D01*
X9181794Y-15260765D01*
X9181791Y-15260764D01*
X7763071Y-14500450D01*
X9069211Y-14500450D01*
X9090452Y-14616183D01*
X9133768Y-14725586D01*
X9197509Y-14824492D01*
X9279247Y-14909134D01*
X9375868Y-14976287D01*
X9483693Y-15023395D01*
X9598614Y-15048662D01*
X9672001Y-15050199D01*
X9674442Y-15091483D01*
X9702840Y-15171414D01*
X9752382Y-15240269D01*
X9819146Y-15292596D01*
X11291390Y-16142596D01*
X11334668Y-16163184D01*
X11417388Y-16181967D01*
X11502066Y-16176961D01*
X11581997Y-16148563D01*
X11650852Y-16099021D01*
X11703179Y-16032258D01*
X12028179Y-15469342D01*
X12048767Y-15426063D01*
X12067550Y-15343343D01*
X12062544Y-15258665D01*
X12034146Y-15178734D01*
X11984604Y-15109879D01*
X11917840Y-15057552D01*
X10445596Y-14207552D01*
X10402318Y-14186964D01*
X10319598Y-14168181D01*
X10234920Y-14173187D01*
X10208735Y-14182490D01*
X10202332Y-14166954D01*
X10137216Y-14068948D01*
X10054305Y-13985455D01*
X9959959Y-13921818D01*
X10303581Y-13921818D01*
X10307446Y-13980786D01*
X10322741Y-14037866D01*
X10348878Y-14090868D01*
X10384853Y-14137750D01*
X10429283Y-14176714D01*
X11121711Y-14576488D01*
X11205502Y-14554036D01*
X11232823Y-14554036D01*
X11260275Y-14656488D01*
X11952703Y-15056261D01*
X12008662Y-15075256D01*
X12067251Y-15082971D01*
X12126220Y-15079105D01*
X12183301Y-15063811D01*
X12236301Y-15037674D01*
X12283184Y-15001699D01*
X12322148Y-14957270D01*
X12351696Y-14906092D01*
X12459422Y-14719504D01*
X12431970Y-14617052D01*
X11505323Y-14082052D01*
X11232823Y-14554036D01*
X11205502Y-14554036D01*
X11224163Y-14549036D01*
X11496663Y-14077052D01*
X11490324Y-14073392D01*
X11510323Y-14073392D01*
X12436970Y-14608392D01*
X12539422Y-14580940D01*
X12647149Y-14394352D01*
X12676696Y-14343174D01*
X12695691Y-14287216D01*
X12703405Y-14228626D01*
X12699540Y-14169658D01*
X12684245Y-14112578D01*
X12658108Y-14059576D01*
X12622133Y-14012694D01*
X12577703Y-13973730D01*
X11885275Y-13573956D01*
X11782823Y-13601408D01*
X11510323Y-14073392D01*
X11490324Y-14073392D01*
X10570016Y-13542052D01*
X10467564Y-13569504D01*
X10359837Y-13756092D01*
X10330290Y-13807270D01*
X10311295Y-13863228D01*
X10303581Y-13921818D01*
X9959959Y-13921818D01*
X9956755Y-13919657D01*
X9848283Y-13874060D01*
X9733021Y-13850400D01*
X9615357Y-13849578D01*
X9499775Y-13871627D01*
X9390677Y-13915705D01*
X9292219Y-13980135D01*
X9208150Y-14062461D01*
X9141672Y-14159549D01*
X9095318Y-14267700D01*
X9070854Y-14382795D01*
X9069211Y-14500450D01*
X7763071Y-14500450D01*
X6700045Y-13930758D01*
X6687171Y-13865742D01*
X6642332Y-13756954D01*
X6577216Y-13658948D01*
X6494305Y-13575455D01*
X6396755Y-13509657D01*
X6288283Y-13464060D01*
X6173021Y-13440400D01*
X6055357Y-13439578D01*
X5939775Y-13461627D01*
X5830677Y-13505705D01*
X5732219Y-13570135D01*
X5648150Y-13652461D01*
X5581672Y-13749549D01*
X5535318Y-13857700D01*
X5510854Y-13972795D01*
X5509211Y-14090450D01*
X4394967Y-14090450D01*
X4436193Y-14019046D01*
X4456781Y-13975767D01*
X4475564Y-13893047D01*
X4470558Y-13808369D01*
X4442160Y-13728438D01*
X4392618Y-13659583D01*
X4325854Y-13607256D01*
X3979444Y-13407256D01*
X3987993Y-13392448D01*
X4334404Y-13592448D01*
X4377682Y-13613036D01*
X4460402Y-13631819D01*
X4545080Y-13626813D01*
X4625011Y-13598415D01*
X4693866Y-13548873D01*
X4746193Y-13482110D01*
X4775736Y-13430940D01*
X10547564Y-13430940D01*
X10575016Y-13533392D01*
X11501663Y-14068392D01*
X11774163Y-13596408D01*
X11746711Y-13493956D01*
X11054283Y-13094183D01*
X10998324Y-13075188D01*
X10939735Y-13067473D01*
X10880766Y-13071339D01*
X10823685Y-13086633D01*
X10770685Y-13112770D01*
X10723802Y-13148745D01*
X10684838Y-13193174D01*
X10655290Y-13244352D01*
X10547564Y-13430940D01*
X4775736Y-13430940D01*
X5071193Y-12919194D01*
X5091781Y-12875915D01*
X5110564Y-12793195D01*
X5105558Y-12708517D01*
X5077160Y-12628586D01*
X5027618Y-12559731D01*
X4960854Y-12507404D01*
X3488610Y-11657404D01*
X3445332Y-11636816D01*
X3362612Y-11618033D01*
X3277934Y-11623039D01*
X3271366Y-11625373D01*
X3360309Y-11463586D01*
X3380854Y-11521414D01*
X3430396Y-11590269D01*
X3497160Y-11642596D01*
X4969404Y-12492596D01*
X5012682Y-12513184D01*
X5095402Y-12531967D01*
X5180080Y-12526961D01*
X5260011Y-12498563D01*
X5328866Y-12449021D01*
X5330795Y-12446559D01*
X5774926Y-12711589D01*
X5790452Y-12796183D01*
X5833768Y-12905586D01*
X5897509Y-13004492D01*
X5979247Y-13089134D01*
X6075868Y-13156287D01*
X6183693Y-13203395D01*
X6298614Y-13228662D01*
X6416254Y-13231126D01*
X6532133Y-13210694D01*
X6641835Y-13168143D01*
X6741184Y-13105094D01*
X6826395Y-13023949D01*
X6894221Y-12927799D01*
X6905155Y-12903240D01*
X6995868Y-12966287D01*
X7103693Y-13013395D01*
X7218614Y-13038662D01*
X7336254Y-13041126D01*
X7452133Y-13020694D01*
X7561835Y-12978143D01*
X7578577Y-12967518D01*
X12045956Y-12967518D01*
X12057951Y-13154267D01*
X12106148Y-13335088D01*
X12188695Y-13503032D01*
X12224787Y-13557045D01*
X12374505Y-13618424D01*
X12992929Y-13000000D01*
X12374505Y-12381576D01*
X12224787Y-12442955D01*
X12131008Y-12604894D01*
X12070625Y-12782018D01*
X12045956Y-12967518D01*
X7578577Y-12967518D01*
X7661184Y-12915094D01*
X7746395Y-12833949D01*
X7814221Y-12737799D01*
X7862080Y-12630306D01*
X7888149Y-12515564D01*
X7889896Y-12390450D01*
X9769211Y-12390450D01*
X9790452Y-12506183D01*
X9833768Y-12615586D01*
X9897509Y-12714492D01*
X9979247Y-12799134D01*
X10075868Y-12866287D01*
X10183693Y-12913395D01*
X10298614Y-12938662D01*
X10416254Y-12941126D01*
X10532133Y-12920694D01*
X10641835Y-12878143D01*
X10741184Y-12815094D01*
X10826395Y-12733949D01*
X10894221Y-12637799D01*
X10942080Y-12530306D01*
X10968149Y-12415564D01*
X10968722Y-12374505D01*
X12381576Y-12374505D01*
X13000000Y-12992929D01*
X13618424Y-12374505D01*
X13557045Y-12224787D01*
X13395106Y-12131008D01*
X13217982Y-12070625D01*
X13032482Y-12045956D01*
X12845733Y-12057951D01*
X12664912Y-12106148D01*
X12496968Y-12188695D01*
X12442955Y-12224787D01*
X12381576Y-12374505D01*
X10968722Y-12374505D01*
X10970026Y-12281167D01*
X10947171Y-12165742D01*
X10902332Y-12056954D01*
X10837216Y-11958948D01*
X10754305Y-11875455D01*
X10656755Y-11809657D01*
X10548283Y-11764060D01*
X10433021Y-11740400D01*
X10315357Y-11739578D01*
X10199775Y-11761627D01*
X10090677Y-11805705D01*
X9992219Y-11870135D01*
X9908150Y-11952461D01*
X9841672Y-12049549D01*
X9795318Y-12157700D01*
X9770854Y-12272795D01*
X9769211Y-12390450D01*
X7889896Y-12390450D01*
X7890026Y-12381167D01*
X7867171Y-12265742D01*
X7822332Y-12156954D01*
X7757216Y-12058948D01*
X7674305Y-11975455D01*
X7576755Y-11909657D01*
X7486258Y-11871616D01*
X7524221Y-11817799D01*
X7572080Y-11710306D01*
X7598149Y-11595564D01*
X7600026Y-11461167D01*
X7577171Y-11345742D01*
X7532332Y-11236954D01*
X7467216Y-11138948D01*
X7384305Y-11055455D01*
X7286755Y-10989657D01*
X7178283Y-10944060D01*
X7063021Y-10920400D01*
X6945357Y-10919578D01*
X6829775Y-10941627D01*
X6787619Y-10958659D01*
X6350445Y-10700040D01*
X6361781Y-10676211D01*
X6380564Y-10593491D01*
X6375558Y-10508813D01*
X6347160Y-10428882D01*
X6297618Y-10360027D01*
X6230854Y-10307700D01*
X5923848Y-10130450D01*
X6289211Y-10130450D01*
X6310452Y-10246183D01*
X6353768Y-10355586D01*
X6417509Y-10454492D01*
X6499247Y-10539134D01*
X6595868Y-10606287D01*
X6703693Y-10653395D01*
X6818614Y-10678662D01*
X6936254Y-10681126D01*
X7052133Y-10660694D01*
X7161835Y-10618143D01*
X7261184Y-10555094D01*
X7346395Y-10473949D01*
X7377113Y-10430402D01*
X7990883Y-10430402D01*
X7990883Y-10536468D01*
X8001810Y-10547395D01*
X8043597Y-10589181D01*
X8092732Y-10622012D01*
X8147329Y-10644627D01*
X8205288Y-10656156D01*
X8264382Y-10656156D01*
X8322342Y-10644627D01*
X8376939Y-10622012D01*
X8426074Y-10589181D01*
X8531820Y-10483435D01*
X8531820Y-10377369D01*
X8287868Y-10133417D01*
X7990883Y-10430402D01*
X7377113Y-10430402D01*
X7414221Y-10377799D01*
X7462080Y-10270306D01*
X7488149Y-10155564D01*
X7489248Y-10076848D01*
X7637330Y-10076848D01*
X7637330Y-10182914D01*
X7648257Y-10193841D01*
X7690044Y-10235627D01*
X7739179Y-10268458D01*
X7776671Y-10283988D01*
X7792202Y-10321482D01*
X7825033Y-10370617D01*
X7866819Y-10412404D01*
X7877746Y-10423331D01*
X7983812Y-10423331D01*
X8280797Y-10126346D01*
X8178267Y-10023816D01*
X8178267Y-10023815D01*
X7934315Y-9779863D01*
X7637330Y-10076848D01*
X7489248Y-10076848D01*
X7489827Y-10035411D01*
X7524193Y-10069777D01*
X7630259Y-10069777D01*
X7927244Y-9772792D01*
X7913102Y-9758650D01*
X7920173Y-9751579D01*
X7934315Y-9765721D01*
X8231300Y-9468736D01*
X8231300Y-9362670D01*
X8220373Y-9351743D01*
X8178586Y-9309957D01*
X8129451Y-9277126D01*
X8089745Y-9260679D01*
X8074674Y-9220871D01*
X8023729Y-9153048D01*
X7846952Y-8976271D01*
X7810477Y-8945184D01*
X7737955Y-8906958D01*
X7722874Y-8870549D01*
X7690043Y-8821414D01*
X7648257Y-8779627D01*
X7637330Y-8768700D01*
X7531264Y-8768700D01*
X7234279Y-9065685D01*
X7248422Y-9079828D01*
X7241351Y-9086899D01*
X7227208Y-9072756D01*
X6930223Y-9369741D01*
X6930223Y-9475807D01*
X6934688Y-9480272D01*
X6835357Y-9479578D01*
X6719775Y-9501627D01*
X6610677Y-9545705D01*
X6512219Y-9610135D01*
X6428150Y-9692461D01*
X6361672Y-9789549D01*
X6315318Y-9897700D01*
X6290854Y-10012795D01*
X6289211Y-10130450D01*
X5923848Y-10130450D01*
X4758610Y-9457700D01*
X4715332Y-9437112D01*
X4640153Y-9420041D01*
X6158422Y-7610638D01*
X6170452Y-7676183D01*
X6213768Y-7785586D01*
X6277509Y-7884492D01*
X6359247Y-7969134D01*
X6455868Y-8036287D01*
X6563693Y-8083395D01*
X6678614Y-8108662D01*
X6796254Y-8111126D01*
X6800226Y-8110426D01*
X6876707Y-8186907D01*
X6860684Y-8188185D01*
X6781352Y-8218219D01*
X6713529Y-8269164D01*
X6430686Y-8552007D01*
X6399599Y-8588482D01*
X6360046Y-8663522D01*
X6342965Y-8746611D01*
X6349707Y-8831168D01*
X6379741Y-8910500D01*
X6430686Y-8978323D01*
X6607463Y-9155100D01*
X6643938Y-9186187D01*
X6716461Y-9224414D01*
X6731542Y-9260821D01*
X6764373Y-9309956D01*
X6806159Y-9351743D01*
X6817086Y-9362670D01*
X6923152Y-9362670D01*
X7220137Y-9065685D01*
X7205995Y-9051543D01*
X7213066Y-9044472D01*
X7227208Y-9058614D01*
X7524193Y-8761629D01*
X7524193Y-8655563D01*
X7513266Y-8644636D01*
X7471479Y-8602850D01*
X7422344Y-8570019D01*
X7382638Y-8553572D01*
X7367567Y-8513764D01*
X7327028Y-8459794D01*
X7346244Y-8458262D01*
X7425576Y-8428228D01*
X7493399Y-8377283D01*
X7670176Y-8200506D01*
X7701263Y-8164031D01*
X7740692Y-8089226D01*
X7779129Y-8074674D01*
X7846952Y-8023729D01*
X8023729Y-7846952D01*
X8054816Y-7810477D01*
X8094244Y-7735673D01*
X8132683Y-7721121D01*
X8200506Y-7670176D01*
X8377283Y-7493399D01*
X8408370Y-7456924D01*
X8447923Y-7381884D01*
X8459064Y-7327692D01*
X8467861Y-7336489D01*
X8516996Y-7369320D01*
X8556701Y-7385766D01*
X8571772Y-7425576D01*
X8622717Y-7493399D01*
X8799494Y-7670176D01*
X8835969Y-7701263D01*
X8910774Y-7740692D01*
X8925326Y-7779129D01*
X8976271Y-7846952D01*
X9153048Y-8023729D01*
X9189523Y-8054816D01*
X9264327Y-8094244D01*
X9278879Y-8132683D01*
X9329824Y-8200506D01*
X9506601Y-8377283D01*
X9543076Y-8408370D01*
X9617881Y-8447799D01*
X9632433Y-8486236D01*
X9672383Y-8539421D01*
X9632253Y-8547404D01*
X9577656Y-8570019D01*
X9528521Y-8602850D01*
X9486734Y-8644636D01*
X9475807Y-8655563D01*
X9475807Y-8761629D01*
X9772792Y-9058614D01*
X9786935Y-9044472D01*
X9794006Y-9051543D01*
X9779863Y-9065685D01*
X9794006Y-9079828D01*
X9786935Y-9086899D01*
X9772792Y-9072756D01*
X9758650Y-9086899D01*
X9751579Y-9079828D01*
X9765721Y-9065685D01*
X9468736Y-8768700D01*
X9362670Y-8768700D01*
X9351743Y-8779627D01*
X9309957Y-8821414D01*
X9277126Y-8870549D01*
X9260679Y-8910255D01*
X9220871Y-8925326D01*
X9153048Y-8976271D01*
X8976271Y-9153048D01*
X8945184Y-9189523D01*
X8905756Y-9264327D01*
X8867317Y-9278879D01*
X8799494Y-9329824D01*
X8622717Y-9506601D01*
X8591630Y-9543076D01*
X8552077Y-9618116D01*
X8540936Y-9672308D01*
X8532139Y-9663511D01*
X8483004Y-9630680D01*
X8445512Y-9615150D01*
X8429981Y-9577656D01*
X8397150Y-9528521D01*
X8355364Y-9486734D01*
X8344437Y-9475807D01*
X8238371Y-9475807D01*
X7941386Y-9772792D01*
X8043916Y-9875322D01*
X8043916Y-9875323D01*
X8287868Y-10119275D01*
X8302011Y-10105133D01*
X8309082Y-10112204D01*
X8294939Y-10126346D01*
X8538891Y-10370298D01*
X8644957Y-10370298D01*
X8750703Y-10264552D01*
X8783534Y-10215417D01*
X8806149Y-10160820D01*
X8813527Y-10123727D01*
X8905560Y-10215760D01*
X8942035Y-10246847D01*
X9017075Y-10286400D01*
X9045869Y-10292319D01*
X9143506Y-10393510D01*
X9265015Y-10532983D01*
X9196892Y-10601106D01*
X9165805Y-10637581D01*
X9155405Y-10657311D01*
X9073021Y-10640400D01*
X8955357Y-10639578D01*
X8839775Y-10661627D01*
X8730677Y-10705705D01*
X8632219Y-10770135D01*
X8548150Y-10852461D01*
X8481672Y-10949549D01*
X8435318Y-11057700D01*
X8410854Y-11172795D01*
X8409211Y-11290450D01*
X8430452Y-11406183D01*
X8473768Y-11515586D01*
X8537509Y-11614492D01*
X8619247Y-11699134D01*
X8715868Y-11766287D01*
X8823693Y-11813395D01*
X8938614Y-11838662D01*
X9056254Y-11841126D01*
X9172133Y-11820694D01*
X9281835Y-11778143D01*
X9381184Y-11715094D01*
X9439253Y-11659796D01*
X9472686Y-11663139D01*
X9491768Y-11663176D01*
X9510760Y-11664999D01*
X9528273Y-11663246D01*
X9545873Y-11663280D01*
X9564597Y-11659610D01*
X9583583Y-11657710D01*
X9600418Y-11652590D01*
X9617694Y-11649204D01*
X9635355Y-11641964D01*
X9653604Y-11636414D01*
X9669125Y-11628121D01*
X9685413Y-11621444D01*
X9701328Y-11610914D01*
X9718154Y-11601924D01*
X9731767Y-11590775D01*
X9746450Y-11581061D01*
X9748502Y-11579032D01*
X9762578Y-11593108D01*
X9799053Y-11624195D01*
X9874093Y-11663748D01*
X9957182Y-11680829D01*
X10041739Y-11674087D01*
X10121071Y-11644053D01*
X10188894Y-11593108D01*
X10613158Y-11168844D01*
X10644245Y-11132369D01*
X10683798Y-11057329D01*
X10700879Y-10974240D01*
X10694137Y-10889683D01*
X10664103Y-10810351D01*
X10613158Y-10742528D01*
X10140422Y-10269792D01*
X10527279Y-10269792D01*
X10527279Y-10375858D01*
X10732661Y-10581239D01*
X10774447Y-10623025D01*
X10823583Y-10655856D01*
X10878180Y-10678471D01*
X10936139Y-10690000D01*
X10995233Y-10690000D01*
X11053193Y-10678471D01*
X11107789Y-10655856D01*
X11156925Y-10623025D01*
X11333381Y-10446568D01*
X11333381Y-10340502D01*
X10894975Y-9902096D01*
X10527279Y-10269792D01*
X10140422Y-10269792D01*
X10047472Y-10176842D01*
X10010997Y-10145755D01*
X9958927Y-10118309D01*
X10040095Y-10033214D01*
X10040099Y-10033209D01*
X10091687Y-9979124D01*
X10091687Y-9979123D01*
X10124959Y-9944242D01*
X10134144Y-9966417D01*
X10166975Y-10015553D01*
X10208761Y-10057339D01*
X10414142Y-10262721D01*
X10520208Y-10262721D01*
X10887904Y-9895025D01*
X10902046Y-9895025D01*
X11340452Y-10333431D01*
X11446518Y-10333431D01*
X11622975Y-10156975D01*
X11655806Y-10107839D01*
X11678421Y-10053243D01*
X11689950Y-9995283D01*
X11689950Y-9936189D01*
X11678421Y-9878230D01*
X11655806Y-9823633D01*
X11622975Y-9774497D01*
X11581189Y-9732711D01*
X11375808Y-9527329D01*
X11269742Y-9527329D01*
X10902046Y-9895025D01*
X10887904Y-9895025D01*
X10873762Y-9880883D01*
X10880833Y-9873812D01*
X10894975Y-9887954D01*
X11262671Y-9520258D01*
X11262671Y-9414192D01*
X11057289Y-9208811D01*
X11015503Y-9167025D01*
X10966367Y-9134194D01*
X10917090Y-9113782D01*
X10931353Y-9098829D01*
X10948422Y-9077018D01*
X10966524Y-9056029D01*
X10970943Y-9048242D01*
X10976459Y-9041194D01*
X10988970Y-9016476D01*
X10991988Y-9011157D01*
X12276908Y-9011157D01*
X12309634Y-9067841D01*
X12339182Y-9119019D01*
X12378146Y-9163448D01*
X12425029Y-9199423D01*
X12478029Y-9225560D01*
X12535110Y-9240855D01*
X12594079Y-9244720D01*
X12652668Y-9237006D01*
X12708627Y-9218011D01*
X12783271Y-9174915D01*
X16909891Y-9174915D01*
X16946243Y-9310583D01*
X16961538Y-9367664D01*
X16987675Y-9420664D01*
X17023650Y-9467548D01*
X17068079Y-9506511D01*
X17119257Y-9536058D01*
X17175216Y-9555054D01*
X17233805Y-9562767D01*
X17292774Y-9558902D01*
X17533817Y-9494315D01*
X17586850Y-9402459D01*
X17465205Y-8948474D01*
X16962924Y-9083060D01*
X16909891Y-9174915D01*
X12783271Y-9174915D01*
X12924741Y-9093237D01*
X12952193Y-8990785D01*
X12754693Y-8648705D01*
X12304360Y-8908705D01*
X12276908Y-9011157D01*
X10991988Y-9011157D01*
X11002646Y-8992377D01*
X11005469Y-8983879D01*
X11009510Y-8975895D01*
X11016977Y-8949235D01*
X11025718Y-8922921D01*
X11026837Y-8914031D01*
X11029249Y-8905419D01*
X11031397Y-8877807D01*
X11034858Y-8850307D01*
X11034230Y-8841378D01*
X11034924Y-8832453D01*
X11031667Y-8804953D01*
X11029722Y-8777300D01*
X11027368Y-8768651D01*
X11026317Y-8759773D01*
X11017785Y-8733440D01*
X11010502Y-8706682D01*
X11006515Y-8698660D01*
X11003758Y-8690150D01*
X10990262Y-8665955D01*
X10977931Y-8641142D01*
X10972469Y-8634056D01*
X10968106Y-8626234D01*
X10950160Y-8605113D01*
X10933251Y-8583176D01*
X10929639Y-8579385D01*
X10649584Y-8289633D01*
X10657035Y-8253389D01*
X10650293Y-8168832D01*
X10620259Y-8089500D01*
X10569314Y-8021677D01*
X10392537Y-7844900D01*
X10356062Y-7813813D01*
X10281257Y-7774384D01*
X10266705Y-7735947D01*
X10215760Y-7668124D01*
X10038983Y-7491347D01*
X10002508Y-7460260D01*
X9927704Y-7420832D01*
X9913152Y-7382393D01*
X9862207Y-7314570D01*
X9788389Y-7240752D01*
X9806254Y-7241126D01*
X9834118Y-7236213D01*
X10318128Y-7708418D01*
X10324630Y-7713626D01*
X10330282Y-7719762D01*
X10353167Y-7736481D01*
X10375252Y-7754170D01*
X10382643Y-7758016D01*
X10389378Y-7762937D01*
X10415058Y-7774886D01*
X10440173Y-7787956D01*
X10448175Y-7790295D01*
X10455734Y-7793812D01*
X10483246Y-7800545D01*
X10510422Y-7808488D01*
X10518724Y-7809228D01*
X10526823Y-7811210D01*
X10532011Y-7811917D01*
X10842011Y-7851917D01*
X10853599Y-7852272D01*
X10865032Y-7854168D01*
X10890097Y-7853388D01*
X10915164Y-7854155D01*
X10926597Y-7852252D01*
X10938184Y-7851892D01*
X10962618Y-7846259D01*
X10987358Y-7842142D01*
X10998208Y-7838053D01*
X11009500Y-7835450D01*
X11032371Y-7825180D01*
X11055845Y-7816334D01*
X11065694Y-7810216D01*
X11076265Y-7805469D01*
X11080791Y-7802837D01*
X11465393Y-7575544D01*
X11466495Y-7586516D01*
X11498151Y-7665214D01*
X11673151Y-7968322D01*
X11700337Y-8007790D01*
X11762583Y-8065417D01*
X11784142Y-8076221D01*
X11791495Y-8149432D01*
X11823151Y-8228130D01*
X11998151Y-8531238D01*
X12025337Y-8570706D01*
X12087583Y-8628333D01*
X12108665Y-8638898D01*
X12107925Y-8650183D01*
X12115639Y-8708773D01*
X12134634Y-8764731D01*
X12164181Y-8815909D01*
X12196908Y-8872593D01*
X12299360Y-8900045D01*
X12743353Y-8643705D01*
X12763353Y-8643705D01*
X12960853Y-8985785D01*
X13063305Y-9013237D01*
X13279419Y-8888464D01*
X13323849Y-8849500D01*
X13359824Y-8802617D01*
X13385961Y-8749616D01*
X13401256Y-8692535D01*
X13405121Y-8633567D01*
X13397407Y-8574977D01*
X13378412Y-8519019D01*
X13348865Y-8467841D01*
X13316138Y-8411157D01*
X13213686Y-8383705D01*
X12763353Y-8643705D01*
X12743353Y-8643705D01*
X12749693Y-8640045D01*
X12739693Y-8622724D01*
X12748353Y-8617724D01*
X12758353Y-8635045D01*
X13208686Y-8375045D01*
X13236138Y-8272593D01*
X13203412Y-8215909D01*
X13173864Y-8164731D01*
X13134900Y-8120302D01*
X13122736Y-8110968D01*
X13128234Y-8107547D01*
X13136785Y-8099548D01*
X13146322Y-8092755D01*
X13163456Y-8074598D01*
X13181680Y-8057550D01*
X13188511Y-8048047D01*
X13196551Y-8039527D01*
X13209838Y-8018379D01*
X13224398Y-7998123D01*
X13226994Y-7993576D01*
X13317669Y-7832060D01*
X13382133Y-7820694D01*
X13491835Y-7778143D01*
X13591184Y-7715094D01*
X13676395Y-7633949D01*
X13744221Y-7537799D01*
X13792080Y-7430306D01*
X13818149Y-7315564D01*
X13818591Y-7283910D01*
X13841313Y-7270791D01*
X13813862Y-7373240D01*
X13846588Y-7429924D01*
X13876136Y-7481102D01*
X13915100Y-7525531D01*
X13961983Y-7561506D01*
X13971293Y-7566097D01*
X13978449Y-7637349D01*
X14010105Y-7716047D01*
X14185105Y-8019155D01*
X14212291Y-8058623D01*
X14274537Y-8116250D01*
X14350373Y-8154254D01*
X14433795Y-8169626D01*
X14518196Y-8161149D01*
X14596894Y-8129493D01*
X15116510Y-7829493D01*
X15155979Y-7802307D01*
X15213606Y-7740061D01*
X15251610Y-7664224D01*
X15266982Y-7580803D01*
X15258505Y-7496401D01*
X15226849Y-7417703D01*
X15224036Y-7412830D01*
X15225183Y-7410291D01*
X15232629Y-7378316D01*
X15240732Y-7346419D01*
X15240932Y-7342664D01*
X15241783Y-7339011D01*
X15242431Y-7333815D01*
X15282431Y-6993815D01*
X15282546Y-6987874D01*
X15283630Y-6982026D01*
X15283254Y-6951321D01*
X15283849Y-6920642D01*
X15282808Y-6914790D01*
X15282735Y-6908844D01*
X15276405Y-6878810D01*
X15271027Y-6848587D01*
X15268867Y-6843045D01*
X15267642Y-6837231D01*
X15255604Y-6809010D01*
X15244453Y-6780394D01*
X15241258Y-6775377D01*
X15238927Y-6769912D01*
X15236381Y-6765337D01*
X14815746Y-6021889D01*
X14875821Y-5732076D01*
X15063684Y-5663699D01*
X15107274Y-5643780D01*
X15174834Y-5592486D01*
X15225430Y-5524401D01*
X15252737Y-5451132D01*
X15276864Y-5468823D01*
X15330422Y-5493798D01*
X15387824Y-5507844D01*
X15446862Y-5510421D01*
X15505269Y-5501432D01*
X15739767Y-5416082D01*
X15784592Y-5319953D01*
X15623843Y-4878298D01*
X15605048Y-4885139D01*
X15601629Y-4875741D01*
X15620422Y-4868901D01*
X15613581Y-4850106D01*
X15622979Y-4846687D01*
X15629819Y-4865480D01*
G36*
X28132943Y-3300797D02*
X28640173Y-3482206D01*
X28549028Y-3534829D01*
X28427383Y-3988814D01*
X28929664Y-4123400D01*
X29021520Y-4070367D01*
X29057872Y-3934700D01*
X29073167Y-3877619D01*
X29077032Y-3818651D01*
X29069318Y-3760061D01*
X29050323Y-3704103D01*
X29020776Y-3652926D01*
X28981811Y-3608495D01*
X28971795Y-3600809D01*
X29247077Y-3699263D01*
X29097045Y-4021007D01*
X29133322Y-4120676D01*
X29695233Y-4382699D01*
X29703685Y-4364573D01*
X29712749Y-4368799D01*
X29704296Y-4386926D01*
X30266206Y-4648949D01*
X30365876Y-4612672D01*
X30391698Y-4557297D01*
X30449062Y-4667467D01*
X30210074Y-5179979D01*
X30193336Y-5224887D01*
X30181834Y-5308930D01*
X30194201Y-5392850D01*
X30229458Y-5470001D01*
X30284812Y-5534277D01*
X30355882Y-5580585D01*
X30440448Y-5620019D01*
X30042133Y-6452858D01*
X29970707Y-6416919D01*
X29959626Y-6392670D01*
X29904271Y-6328395D01*
X29833201Y-6282086D01*
X29380048Y-6070777D01*
X29335140Y-6054039D01*
X29251097Y-6042537D01*
X29182476Y-6052650D01*
X29091687Y-6014292D01*
X29091550Y-5976360D01*
X29067625Y-5894978D01*
X29021973Y-5823484D01*
X28958212Y-5767538D01*
X28881389Y-5731571D01*
X28513043Y-5618956D01*
X28551921Y-5596511D01*
X28596350Y-5557548D01*
X28632325Y-5510664D01*
X28658462Y-5457664D01*
X28673757Y-5400583D01*
X28710109Y-5264915D01*
X28657076Y-5173060D01*
X28154795Y-5038474D01*
X28033150Y-5492459D01*
X28082434Y-5577822D01*
X28023104Y-5615707D01*
X27967158Y-5679468D01*
X27931191Y-5756291D01*
X27697294Y-6521334D01*
X27686969Y-6568134D01*
X27687276Y-6652960D01*
X27711201Y-6734342D01*
X27756853Y-6805836D01*
X27820614Y-6861782D01*
X27897437Y-6897749D01*
X28471220Y-7073172D01*
X28518020Y-7083497D01*
X28602846Y-7083190D01*
X28684228Y-7059265D01*
X28705882Y-7045438D01*
X28713785Y-7048777D01*
X28712928Y-7048909D01*
X28657397Y-7069120D01*
X28606876Y-7099777D01*
X28563307Y-7139702D01*
X28528363Y-7187358D01*
X28422900Y-7413524D01*
X28459177Y-7513194D01*
X28885142Y-7711824D01*
X28893594Y-7693698D01*
X28902658Y-7697924D01*
X28894205Y-7716051D01*
X28912331Y-7724503D01*
X28908105Y-7733567D01*
X28889978Y-7725114D01*
X28670217Y-8196394D01*
X28706494Y-8296063D01*
X28833787Y-8355421D01*
X28887346Y-8380396D01*
X28944747Y-8394441D01*
X29003786Y-8397019D01*
X29062192Y-8388029D01*
X29117723Y-8367818D01*
X29129783Y-8360500D01*
X28716103Y-9225466D01*
X28459630Y-9105871D01*
X28414722Y-9089133D01*
X28330679Y-9077631D01*
X28246760Y-9089998D01*
X28174180Y-9123165D01*
X28168158Y-9082298D01*
X28132901Y-9005146D01*
X28077547Y-8940871D01*
X28006477Y-8894562D01*
X27696575Y-8750052D01*
X27732080Y-8670306D01*
X27758149Y-8555564D01*
X27760026Y-8421167D01*
X27737171Y-8305742D01*
X27692332Y-8196954D01*
X27627216Y-8098948D01*
X27544305Y-8015455D01*
X27446755Y-7949657D01*
X27338283Y-7904060D01*
X27324058Y-7901140D01*
X28233194Y-7901140D01*
X28242184Y-7959548D01*
X28262396Y-8015078D01*
X28293052Y-8065598D01*
X28332976Y-8109168D01*
X28380633Y-8144112D01*
X28434191Y-8169086D01*
X28561484Y-8228444D01*
X28661154Y-8192167D01*
X28880915Y-7720887D01*
X28454951Y-7522257D01*
X28355281Y-7558534D01*
X28249818Y-7784700D01*
X28235772Y-7842101D01*
X28233194Y-7901140D01*
X27324058Y-7901140D01*
X27223021Y-7880400D01*
X27105357Y-7879578D01*
X27005395Y-7898647D01*
X26992332Y-7866954D01*
X26927216Y-7768948D01*
X26844305Y-7685455D01*
X26783464Y-7644417D01*
X26861184Y-7595094D01*
X26946395Y-7513949D01*
X27014221Y-7417799D01*
X27062080Y-7310306D01*
X27088149Y-7195564D01*
X27090026Y-7061167D01*
X27067171Y-6945742D01*
X27022332Y-6836954D01*
X26957216Y-6738948D01*
X26874305Y-6655455D01*
X26776755Y-6589657D01*
X26668283Y-6544060D01*
X26553021Y-6520400D01*
X26435357Y-6519578D01*
X26319775Y-6541627D01*
X26210677Y-6585705D01*
X26190292Y-6599045D01*
X26194809Y-6584453D01*
X26203377Y-6502932D01*
X26195948Y-6421300D01*
X26172804Y-6342665D01*
X26150467Y-6299937D01*
X26170570Y-6262757D01*
X26190778Y-6197474D01*
X26348393Y-6227940D01*
X26348450Y-6243640D01*
X26372375Y-6325022D01*
X26418027Y-6396516D01*
X26481788Y-6452462D01*
X26558611Y-6488429D01*
X27132394Y-6663852D01*
X27179194Y-6674177D01*
X27264020Y-6673870D01*
X27345402Y-6649945D01*
X27416896Y-6604293D01*
X27472842Y-6540532D01*
X27508809Y-6463709D01*
X27742706Y-5698666D01*
X27753031Y-5651866D01*
X27752724Y-5567040D01*
X27729723Y-5488802D01*
X27931634Y-5542904D01*
X28023490Y-5489871D01*
X28145135Y-5035886D01*
X28125816Y-5030710D01*
X28126324Y-5028814D01*
X28157383Y-5028814D01*
X28659664Y-5163400D01*
X28751520Y-5110367D01*
X28787872Y-4974700D01*
X28803167Y-4917619D01*
X28807032Y-4858651D01*
X28799318Y-4800061D01*
X28780323Y-4744103D01*
X28750776Y-4692926D01*
X28711811Y-4648495D01*
X28664928Y-4612521D01*
X28663482Y-4611808D01*
X28714784Y-4605054D01*
X28770743Y-4586058D01*
X28821921Y-4556511D01*
X28864918Y-4518804D01*
X28839439Y-4573444D01*
X28825394Y-4630845D01*
X28822815Y-4689884D01*
X28831805Y-4748291D01*
X28852017Y-4803822D01*
X28882673Y-4854342D01*
X28922597Y-4897912D01*
X28970254Y-4932855D01*
X29023812Y-4957830D01*
X29287052Y-5080581D01*
X29375110Y-5048530D01*
X29395784Y-5048530D01*
X29432061Y-5148200D01*
X29695301Y-5270950D01*
X29748859Y-5295925D01*
X29806260Y-5309971D01*
X29865299Y-5312548D01*
X29923706Y-5303559D01*
X29979236Y-5283347D01*
X30029758Y-5252690D01*
X30073327Y-5212766D01*
X30108270Y-5165109D01*
X30298257Y-4757681D01*
X30261980Y-4658012D01*
X29700069Y-4395989D01*
X29395784Y-5048530D01*
X29375110Y-5048530D01*
X29386721Y-5044304D01*
X29691006Y-4391762D01*
X29129096Y-4129739D01*
X29029426Y-4166016D01*
X28950591Y-4335078D01*
X28980109Y-4224915D01*
X28927076Y-4133060D01*
X28424795Y-3998474D01*
X28303150Y-4452459D01*
X28350107Y-4533791D01*
X28279028Y-4574829D01*
X28157383Y-5028814D01*
X28126324Y-5028814D01*
X28128405Y-5021050D01*
X28147723Y-5026226D01*
X28269368Y-4572241D01*
X28222411Y-4490909D01*
X28293490Y-4449871D01*
X28415135Y-3995886D01*
X28395816Y-3990710D01*
X28398405Y-3981050D01*
X28417723Y-3986226D01*
X28539368Y-3532241D01*
X28486335Y-3440385D01*
X28245292Y-3375798D01*
X28186323Y-3371933D01*
X28127734Y-3379646D01*
X28071775Y-3398642D01*
X28020597Y-3428189D01*
X27996363Y-3449442D01*
X27983070Y-3409443D01*
X27934952Y-3339585D01*
X27869277Y-3285899D01*
X27791245Y-3252635D01*
X27458023Y-3163349D01*
X27485529Y-3147006D01*
X28132943Y-3300797D01*
X28132943Y-3300797D01*
G37*
X28132943Y-3300797D02*
X28640173Y-3482206D01*
X28549028Y-3534829D01*
X28427383Y-3988814D01*
X28929664Y-4123400D01*
X29021520Y-4070367D01*
X29057872Y-3934700D01*
X29073167Y-3877619D01*
X29077032Y-3818651D01*
X29069318Y-3760061D01*
X29050323Y-3704103D01*
X29020776Y-3652926D01*
X28981811Y-3608495D01*
X28971795Y-3600809D01*
X29247077Y-3699263D01*
X29097045Y-4021007D01*
X29133322Y-4120676D01*
X29695233Y-4382699D01*
X29703685Y-4364573D01*
X29712749Y-4368799D01*
X29704296Y-4386926D01*
X30266206Y-4648949D01*
X30365876Y-4612672D01*
X30391698Y-4557297D01*
X30449062Y-4667467D01*
X30210074Y-5179979D01*
X30193336Y-5224887D01*
X30181834Y-5308930D01*
X30194201Y-5392850D01*
X30229458Y-5470001D01*
X30284812Y-5534277D01*
X30355882Y-5580585D01*
X30440448Y-5620019D01*
X30042133Y-6452858D01*
X29970707Y-6416919D01*
X29959626Y-6392670D01*
X29904271Y-6328395D01*
X29833201Y-6282086D01*
X29380048Y-6070777D01*
X29335140Y-6054039D01*
X29251097Y-6042537D01*
X29182476Y-6052650D01*
X29091687Y-6014292D01*
X29091550Y-5976360D01*
X29067625Y-5894978D01*
X29021973Y-5823484D01*
X28958212Y-5767538D01*
X28881389Y-5731571D01*
X28513043Y-5618956D01*
X28551921Y-5596511D01*
X28596350Y-5557548D01*
X28632325Y-5510664D01*
X28658462Y-5457664D01*
X28673757Y-5400583D01*
X28710109Y-5264915D01*
X28657076Y-5173060D01*
X28154795Y-5038474D01*
X28033150Y-5492459D01*
X28082434Y-5577822D01*
X28023104Y-5615707D01*
X27967158Y-5679468D01*
X27931191Y-5756291D01*
X27697294Y-6521334D01*
X27686969Y-6568134D01*
X27687276Y-6652960D01*
X27711201Y-6734342D01*
X27756853Y-6805836D01*
X27820614Y-6861782D01*
X27897437Y-6897749D01*
X28471220Y-7073172D01*
X28518020Y-7083497D01*
X28602846Y-7083190D01*
X28684228Y-7059265D01*
X28705882Y-7045438D01*
X28713785Y-7048777D01*
X28712928Y-7048909D01*
X28657397Y-7069120D01*
X28606876Y-7099777D01*
X28563307Y-7139702D01*
X28528363Y-7187358D01*
X28422900Y-7413524D01*
X28459177Y-7513194D01*
X28885142Y-7711824D01*
X28893594Y-7693698D01*
X28902658Y-7697924D01*
X28894205Y-7716051D01*
X28912331Y-7724503D01*
X28908105Y-7733567D01*
X28889978Y-7725114D01*
X28670217Y-8196394D01*
X28706494Y-8296063D01*
X28833787Y-8355421D01*
X28887346Y-8380396D01*
X28944747Y-8394441D01*
X29003786Y-8397019D01*
X29062192Y-8388029D01*
X29117723Y-8367818D01*
X29129783Y-8360500D01*
X28716103Y-9225466D01*
X28459630Y-9105871D01*
X28414722Y-9089133D01*
X28330679Y-9077631D01*
X28246760Y-9089998D01*
X28174180Y-9123165D01*
X28168158Y-9082298D01*
X28132901Y-9005146D01*
X28077547Y-8940871D01*
X28006477Y-8894562D01*
X27696575Y-8750052D01*
X27732080Y-8670306D01*
X27758149Y-8555564D01*
X27760026Y-8421167D01*
X27737171Y-8305742D01*
X27692332Y-8196954D01*
X27627216Y-8098948D01*
X27544305Y-8015455D01*
X27446755Y-7949657D01*
X27338283Y-7904060D01*
X27324058Y-7901140D01*
X28233194Y-7901140D01*
X28242184Y-7959548D01*
X28262396Y-8015078D01*
X28293052Y-8065598D01*
X28332976Y-8109168D01*
X28380633Y-8144112D01*
X28434191Y-8169086D01*
X28561484Y-8228444D01*
X28661154Y-8192167D01*
X28880915Y-7720887D01*
X28454951Y-7522257D01*
X28355281Y-7558534D01*
X28249818Y-7784700D01*
X28235772Y-7842101D01*
X28233194Y-7901140D01*
X27324058Y-7901140D01*
X27223021Y-7880400D01*
X27105357Y-7879578D01*
X27005395Y-7898647D01*
X26992332Y-7866954D01*
X26927216Y-7768948D01*
X26844305Y-7685455D01*
X26783464Y-7644417D01*
X26861184Y-7595094D01*
X26946395Y-7513949D01*
X27014221Y-7417799D01*
X27062080Y-7310306D01*
X27088149Y-7195564D01*
X27090026Y-7061167D01*
X27067171Y-6945742D01*
X27022332Y-6836954D01*
X26957216Y-6738948D01*
X26874305Y-6655455D01*
X26776755Y-6589657D01*
X26668283Y-6544060D01*
X26553021Y-6520400D01*
X26435357Y-6519578D01*
X26319775Y-6541627D01*
X26210677Y-6585705D01*
X26190292Y-6599045D01*
X26194809Y-6584453D01*
X26203377Y-6502932D01*
X26195948Y-6421300D01*
X26172804Y-6342665D01*
X26150467Y-6299937D01*
X26170570Y-6262757D01*
X26190778Y-6197474D01*
X26348393Y-6227940D01*
X26348450Y-6243640D01*
X26372375Y-6325022D01*
X26418027Y-6396516D01*
X26481788Y-6452462D01*
X26558611Y-6488429D01*
X27132394Y-6663852D01*
X27179194Y-6674177D01*
X27264020Y-6673870D01*
X27345402Y-6649945D01*
X27416896Y-6604293D01*
X27472842Y-6540532D01*
X27508809Y-6463709D01*
X27742706Y-5698666D01*
X27753031Y-5651866D01*
X27752724Y-5567040D01*
X27729723Y-5488802D01*
X27931634Y-5542904D01*
X28023490Y-5489871D01*
X28145135Y-5035886D01*
X28125816Y-5030710D01*
X28126324Y-5028814D01*
X28157383Y-5028814D01*
X28659664Y-5163400D01*
X28751520Y-5110367D01*
X28787872Y-4974700D01*
X28803167Y-4917619D01*
X28807032Y-4858651D01*
X28799318Y-4800061D01*
X28780323Y-4744103D01*
X28750776Y-4692926D01*
X28711811Y-4648495D01*
X28664928Y-4612521D01*
X28663482Y-4611808D01*
X28714784Y-4605054D01*
X28770743Y-4586058D01*
X28821921Y-4556511D01*
X28864918Y-4518804D01*
X28839439Y-4573444D01*
X28825394Y-4630845D01*
X28822815Y-4689884D01*
X28831805Y-4748291D01*
X28852017Y-4803822D01*
X28882673Y-4854342D01*
X28922597Y-4897912D01*
X28970254Y-4932855D01*
X29023812Y-4957830D01*
X29287052Y-5080581D01*
X29375110Y-5048530D01*
X29395784Y-5048530D01*
X29432061Y-5148200D01*
X29695301Y-5270950D01*
X29748859Y-5295925D01*
X29806260Y-5309971D01*
X29865299Y-5312548D01*
X29923706Y-5303559D01*
X29979236Y-5283347D01*
X30029758Y-5252690D01*
X30073327Y-5212766D01*
X30108270Y-5165109D01*
X30298257Y-4757681D01*
X30261980Y-4658012D01*
X29700069Y-4395989D01*
X29395784Y-5048530D01*
X29375110Y-5048530D01*
X29386721Y-5044304D01*
X29691006Y-4391762D01*
X29129096Y-4129739D01*
X29029426Y-4166016D01*
X28950591Y-4335078D01*
X28980109Y-4224915D01*
X28927076Y-4133060D01*
X28424795Y-3998474D01*
X28303150Y-4452459D01*
X28350107Y-4533791D01*
X28279028Y-4574829D01*
X28157383Y-5028814D01*
X28126324Y-5028814D01*
X28128405Y-5021050D01*
X28147723Y-5026226D01*
X28269368Y-4572241D01*
X28222411Y-4490909D01*
X28293490Y-4449871D01*
X28415135Y-3995886D01*
X28395816Y-3990710D01*
X28398405Y-3981050D01*
X28417723Y-3986226D01*
X28539368Y-3532241D01*
X28486335Y-3440385D01*
X28245292Y-3375798D01*
X28186323Y-3371933D01*
X28127734Y-3379646D01*
X28071775Y-3398642D01*
X28020597Y-3428189D01*
X27996363Y-3449442D01*
X27983070Y-3409443D01*
X27934952Y-3339585D01*
X27869277Y-3285899D01*
X27791245Y-3252635D01*
X27458023Y-3163349D01*
X27485529Y-3147006D01*
X28132943Y-3300797D01*
G36*
X14295307Y-6997128D02*
X14312628Y-6987128D01*
X14317628Y-6995788D01*
X14300307Y-7005788D01*
X14310307Y-7023109D01*
X14301647Y-7028109D01*
X14291647Y-7010788D01*
X14274326Y-7020788D01*
X14269326Y-7012128D01*
X14286647Y-7002128D01*
X14276647Y-6984807D01*
X14285307Y-6979807D01*
X14295307Y-6997128D01*
X14295307Y-6997128D01*
G37*
X14295307Y-6997128D02*
X14312628Y-6987128D01*
X14317628Y-6995788D01*
X14300307Y-7005788D01*
X14310307Y-7023109D01*
X14301647Y-7028109D01*
X14291647Y-7010788D01*
X14274326Y-7020788D01*
X14269326Y-7012128D01*
X14286647Y-7002128D01*
X14276647Y-6984807D01*
X14285307Y-6979807D01*
X14295307Y-6997128D01*
G36*
X9689301Y-5939698D02*
X9769370Y-6040025D01*
X9705357Y-6039578D01*
X9589775Y-6061627D01*
X9480677Y-6105705D01*
X9382219Y-6170135D01*
X9298150Y-6252461D01*
X9231672Y-6349549D01*
X9185318Y-6457700D01*
X9160854Y-6572795D01*
X9160683Y-6585062D01*
X9146004Y-6600420D01*
X9133181Y-6587596D01*
X9122254Y-6576669D01*
X9016188Y-6576669D01*
X8719203Y-6873654D01*
X8733346Y-6887797D01*
X8726275Y-6894868D01*
X8712132Y-6880725D01*
X8697990Y-6894868D01*
X8690919Y-6887797D01*
X8705061Y-6873654D01*
X8690919Y-6859512D01*
X8697990Y-6852441D01*
X8712132Y-6866583D01*
X9009117Y-6569598D01*
X9009117Y-6463532D01*
X8998190Y-6452605D01*
X8956403Y-6410819D01*
X8922739Y-6388326D01*
X9516747Y-5914534D01*
X9689301Y-5939698D01*
X9689301Y-5939698D01*
G37*
X9689301Y-5939698D02*
X9769370Y-6040025D01*
X9705357Y-6039578D01*
X9589775Y-6061627D01*
X9480677Y-6105705D01*
X9382219Y-6170135D01*
X9298150Y-6252461D01*
X9231672Y-6349549D01*
X9185318Y-6457700D01*
X9160854Y-6572795D01*
X9160683Y-6585062D01*
X9146004Y-6600420D01*
X9133181Y-6587596D01*
X9122254Y-6576669D01*
X9016188Y-6576669D01*
X8719203Y-6873654D01*
X8733346Y-6887797D01*
X8726275Y-6894868D01*
X8712132Y-6880725D01*
X8697990Y-6894868D01*
X8690919Y-6887797D01*
X8705061Y-6873654D01*
X8690919Y-6859512D01*
X8697990Y-6852441D01*
X8712132Y-6866583D01*
X9009117Y-6569598D01*
X9009117Y-6463532D01*
X8998190Y-6452605D01*
X8956403Y-6410819D01*
X8922739Y-6388326D01*
X9516747Y-5914534D01*
X9689301Y-5939698D01*
G36*
X10272669Y-3993082D02*
X10257297Y-4076504D01*
X10265774Y-4160905D01*
X10297430Y-4239603D01*
X10597430Y-4759219D01*
X10624616Y-4798688D01*
X10686862Y-4856315D01*
X10762699Y-4894319D01*
X10839595Y-4908489D01*
X10826363Y-4935320D01*
X10811069Y-4992401D01*
X10807203Y-5051370D01*
X10814917Y-5109959D01*
X10833913Y-5165918D01*
X10958686Y-5382032D01*
X11061138Y-5409484D01*
X11468170Y-5174484D01*
X11458170Y-5157163D01*
X11466830Y-5152163D01*
X11476830Y-5169484D01*
X11494151Y-5159484D01*
X11499151Y-5168144D01*
X11481830Y-5178144D01*
X11491830Y-5195465D01*
X11483170Y-5200465D01*
X11473170Y-5183144D01*
X11066138Y-5418144D01*
X11038686Y-5520596D01*
X11163460Y-5736710D01*
X11173513Y-5748174D01*
X11100693Y-5792780D01*
X10894779Y-5725428D01*
X10322353Y-4975089D01*
X10338149Y-4905564D01*
X10340026Y-4771167D01*
X10317171Y-4655742D01*
X10272332Y-4546954D01*
X10207216Y-4448948D01*
X10124305Y-4365455D01*
X10026755Y-4299657D01*
X9933409Y-4260418D01*
X10277231Y-3983978D01*
X10272669Y-3993082D01*
X10272669Y-3993082D01*
G37*
X10272669Y-3993082D02*
X10257297Y-4076504D01*
X10265774Y-4160905D01*
X10297430Y-4239603D01*
X10597430Y-4759219D01*
X10624616Y-4798688D01*
X10686862Y-4856315D01*
X10762699Y-4894319D01*
X10839595Y-4908489D01*
X10826363Y-4935320D01*
X10811069Y-4992401D01*
X10807203Y-5051370D01*
X10814917Y-5109959D01*
X10833913Y-5165918D01*
X10958686Y-5382032D01*
X11061138Y-5409484D01*
X11468170Y-5174484D01*
X11458170Y-5157163D01*
X11466830Y-5152163D01*
X11476830Y-5169484D01*
X11494151Y-5159484D01*
X11499151Y-5168144D01*
X11481830Y-5178144D01*
X11491830Y-5195465D01*
X11483170Y-5200465D01*
X11473170Y-5183144D01*
X11066138Y-5418144D01*
X11038686Y-5520596D01*
X11163460Y-5736710D01*
X11173513Y-5748174D01*
X11100693Y-5792780D01*
X10894779Y-5725428D01*
X10322353Y-4975089D01*
X10338149Y-4905564D01*
X10340026Y-4771167D01*
X10317171Y-4655742D01*
X10272332Y-4546954D01*
X10207216Y-4448948D01*
X10124305Y-4365455D01*
X10026755Y-4299657D01*
X9933409Y-4260418D01*
X10277231Y-3983978D01*
X10272669Y-3993082D01*
G36*
X22505000Y-5495000D02*
X22525000Y-5495000D01*
X22525000Y-5505000D01*
X22505000Y-5505000D01*
X22505000Y-5525000D01*
X22495000Y-5525000D01*
X22495000Y-5505000D01*
X22475000Y-5505000D01*
X22475000Y-5495000D01*
X22495000Y-5495000D01*
X22495000Y-5475000D01*
X22505000Y-5475000D01*
X22505000Y-5495000D01*
X22505000Y-5495000D01*
G37*
X22505000Y-5495000D02*
X22525000Y-5495000D01*
X22525000Y-5505000D01*
X22505000Y-5505000D01*
X22505000Y-5525000D01*
X22495000Y-5525000D01*
X22495000Y-5505000D01*
X22475000Y-5505000D01*
X22475000Y-5495000D01*
X22495000Y-5495000D01*
X22495000Y-5475000D01*
X22505000Y-5475000D01*
X22505000Y-5495000D01*
G36*
X26656237Y-5202665D02*
X26681584Y-5209457D01*
X26628332Y-5270148D01*
X26592365Y-5346971D01*
X26589054Y-5357799D01*
X26148488Y-5272640D01*
X26163328Y-5258534D01*
X26309372Y-5254883D01*
X26333061Y-5251961D01*
X26356887Y-5250660D01*
X26362057Y-5249830D01*
X26652537Y-5201088D01*
X26656237Y-5202665D01*
X26656237Y-5202665D01*
G37*
X26656237Y-5202665D02*
X26681584Y-5209457D01*
X26628332Y-5270148D01*
X26592365Y-5346971D01*
X26589054Y-5357799D01*
X26148488Y-5272640D01*
X26163328Y-5258534D01*
X26309372Y-5254883D01*
X26333061Y-5251961D01*
X26356887Y-5250660D01*
X26362057Y-5249830D01*
X26652537Y-5201088D01*
X26656237Y-5202665D01*
G36*
X17132277Y-3796226D02*
X17151595Y-3791050D01*
X17154184Y-3800710D01*
X17134865Y-3805886D01*
X17140041Y-3825204D01*
X17130381Y-3827793D01*
X17125205Y-3808474D01*
X17105887Y-3813650D01*
X17103298Y-3803990D01*
X17122617Y-3798814D01*
X17117441Y-3779496D01*
X17127101Y-3776907D01*
X17132277Y-3796226D01*
X17132277Y-3796226D01*
G37*
X17132277Y-3796226D02*
X17151595Y-3791050D01*
X17154184Y-3800710D01*
X17134865Y-3805886D01*
X17140041Y-3825204D01*
X17130381Y-3827793D01*
X17125205Y-3808474D01*
X17105887Y-3813650D01*
X17103298Y-3803990D01*
X17122617Y-3798814D01*
X17117441Y-3779496D01*
X17127101Y-3776907D01*
X17132277Y-3796226D01*
G36*
X17088862Y-1072072D02*
X17227781Y-1859919D01*
X17239828Y-1906305D01*
X17278611Y-1981746D01*
X17336876Y-2043396D01*
X17356614Y-2054995D01*
X17335112Y-2100194D01*
X17321456Y-2183914D01*
X17331664Y-2268123D01*
X17538719Y-3040864D01*
X17554763Y-3086024D01*
X17599974Y-3157798D01*
X17606527Y-3163619D01*
X17585484Y-3187306D01*
X17551895Y-3257914D01*
X17529403Y-3238189D01*
X17478225Y-3208642D01*
X17422266Y-3189646D01*
X17363677Y-3181933D01*
X17358113Y-3182298D01*
X17358447Y-3179761D01*
X17354583Y-3120793D01*
X17339288Y-3063712D01*
X17264113Y-2783156D01*
X17172257Y-2730123D01*
X16669976Y-2864709D01*
X16675152Y-2884027D01*
X16665492Y-2886616D01*
X16660316Y-2867297D01*
X16640998Y-2872473D01*
X16638409Y-2862813D01*
X16657728Y-2857637D01*
X16497260Y-2258763D01*
X16492778Y-2256175D01*
X16506920Y-2256175D01*
X16667388Y-2855049D01*
X17169669Y-2720463D01*
X17222702Y-2628608D01*
X17147527Y-2348051D01*
X17132232Y-2290970D01*
X17106095Y-2237970D01*
X17070120Y-2191086D01*
X17025691Y-2152123D01*
X16974514Y-2122576D01*
X16918554Y-2103580D01*
X16859965Y-2095867D01*
X16800997Y-2099732D01*
X16559953Y-2164319D01*
X16506920Y-2256175D01*
X16492778Y-2256175D01*
X16405405Y-2205730D01*
X16164361Y-2270318D01*
X16111361Y-2296455D01*
X16064477Y-2332429D01*
X16025513Y-2376860D01*
X15995965Y-2428037D01*
X15980902Y-2472412D01*
X15963992Y-2460013D01*
X15910435Y-2435039D01*
X15879124Y-2427377D01*
X15904266Y-2393545D01*
X15933890Y-2314060D01*
X15940198Y-2229469D01*
X15922689Y-2146470D01*
X15881936Y-2034503D01*
X15878067Y-2002307D01*
X15855388Y-1932723D01*
X15825412Y-1879203D01*
X15717477Y-1582654D01*
X15697558Y-1539064D01*
X15658523Y-1487651D01*
X17088684Y-1066732D01*
X17088862Y-1072072D01*
X17088862Y-1072072D01*
G37*
X17088862Y-1072072D02*
X17227781Y-1859919D01*
X17239828Y-1906305D01*
X17278611Y-1981746D01*
X17336876Y-2043396D01*
X17356614Y-2054995D01*
X17335112Y-2100194D01*
X17321456Y-2183914D01*
X17331664Y-2268123D01*
X17538719Y-3040864D01*
X17554763Y-3086024D01*
X17599974Y-3157798D01*
X17606527Y-3163619D01*
X17585484Y-3187306D01*
X17551895Y-3257914D01*
X17529403Y-3238189D01*
X17478225Y-3208642D01*
X17422266Y-3189646D01*
X17363677Y-3181933D01*
X17358113Y-3182298D01*
X17358447Y-3179761D01*
X17354583Y-3120793D01*
X17339288Y-3063712D01*
X17264113Y-2783156D01*
X17172257Y-2730123D01*
X16669976Y-2864709D01*
X16675152Y-2884027D01*
X16665492Y-2886616D01*
X16660316Y-2867297D01*
X16640998Y-2872473D01*
X16638409Y-2862813D01*
X16657728Y-2857637D01*
X16497260Y-2258763D01*
X16492778Y-2256175D01*
X16506920Y-2256175D01*
X16667388Y-2855049D01*
X17169669Y-2720463D01*
X17222702Y-2628608D01*
X17147527Y-2348051D01*
X17132232Y-2290970D01*
X17106095Y-2237970D01*
X17070120Y-2191086D01*
X17025691Y-2152123D01*
X16974514Y-2122576D01*
X16918554Y-2103580D01*
X16859965Y-2095867D01*
X16800997Y-2099732D01*
X16559953Y-2164319D01*
X16506920Y-2256175D01*
X16492778Y-2256175D01*
X16405405Y-2205730D01*
X16164361Y-2270318D01*
X16111361Y-2296455D01*
X16064477Y-2332429D01*
X16025513Y-2376860D01*
X15995965Y-2428037D01*
X15980902Y-2472412D01*
X15963992Y-2460013D01*
X15910435Y-2435039D01*
X15879124Y-2427377D01*
X15904266Y-2393545D01*
X15933890Y-2314060D01*
X15940198Y-2229469D01*
X15922689Y-2146470D01*
X15881936Y-2034503D01*
X15878067Y-2002307D01*
X15855388Y-1932723D01*
X15825412Y-1879203D01*
X15717477Y-1582654D01*
X15697558Y-1539064D01*
X15658523Y-1487651D01*
X17088684Y-1066732D01*
X17088862Y-1072072D01*
G36*
X15681099Y-3080422D02*
X15699894Y-3073581D01*
X15703313Y-3082979D01*
X15684520Y-3089819D01*
X15691361Y-3108614D01*
X15681963Y-3112033D01*
X15675123Y-3093240D01*
X15656328Y-3100081D01*
X15652909Y-3090683D01*
X15671702Y-3083843D01*
X15664861Y-3065048D01*
X15674259Y-3061629D01*
X15681099Y-3080422D01*
X15681099Y-3080422D01*
G37*
X15681099Y-3080422D02*
X15699894Y-3073581D01*
X15703313Y-3082979D01*
X15684520Y-3089819D01*
X15691361Y-3108614D01*
X15681963Y-3112033D01*
X15675123Y-3093240D01*
X15656328Y-3100081D01*
X15652909Y-3090683D01*
X15671702Y-3083843D01*
X15664861Y-3065048D01*
X15674259Y-3061629D01*
X15681099Y-3080422D01*
G36*
X27797908Y-1016798D02*
X27781981Y-1046440D01*
X27764703Y-1102953D01*
X27723639Y-1237269D01*
X27773434Y-1330919D01*
X28270712Y-1482953D01*
X28276560Y-1463826D01*
X28286122Y-1466750D01*
X28280275Y-1485876D01*
X28299402Y-1491724D01*
X28296478Y-1501286D01*
X28277352Y-1495439D01*
X28139937Y-1944903D01*
X28189732Y-2038553D01*
X28428375Y-2111514D01*
X28487172Y-2117434D01*
X28545995Y-2111771D01*
X28602583Y-2094739D01*
X28654761Y-2066996D01*
X28679723Y-2046601D01*
X28691612Y-2087041D01*
X28737264Y-2158535D01*
X28801025Y-2214481D01*
X28877848Y-2250448D01*
X29316421Y-2384533D01*
X29319866Y-2388029D01*
X29325145Y-2391619D01*
X29329774Y-2396008D01*
X29355345Y-2412157D01*
X29380384Y-2429186D01*
X29386262Y-2431683D01*
X29391653Y-2435088D01*
X29396348Y-2437406D01*
X29651228Y-2561030D01*
X29454172Y-2648178D01*
X28748956Y-2345867D01*
X28718368Y-2336162D01*
X28688025Y-2325722D01*
X28682923Y-2324545D01*
X27381718Y-2034012D01*
X27379513Y-2033742D01*
X27377390Y-2033072D01*
X27343145Y-2029285D01*
X27309074Y-2025110D01*
X27306862Y-2025273D01*
X27304647Y-2025028D01*
X27270321Y-2027965D01*
X27236085Y-2030487D01*
X27233944Y-2031077D01*
X27231726Y-2031267D01*
X27198653Y-2040807D01*
X27165530Y-2049939D01*
X27163543Y-2050935D01*
X27161406Y-2051551D01*
X27130861Y-2067310D01*
X27100097Y-2082724D01*
X27098338Y-2084089D01*
X27096365Y-2085107D01*
X27091988Y-2087981D01*
X27061987Y-2107981D01*
X27061915Y-2108040D01*
X27060197Y-2109182D01*
X26947666Y-2185140D01*
X26972080Y-2130306D01*
X26998149Y-2015564D01*
X27000026Y-1881167D01*
X26977171Y-1765742D01*
X26959931Y-1723914D01*
X26964922Y-1731042D01*
X27210678Y-1774376D01*
X27269758Y-1773086D01*
X27327453Y-1760296D01*
X27381544Y-1736496D01*
X27429951Y-1702600D01*
X27470815Y-1659913D01*
X27483562Y-1639903D01*
X27612597Y-1639903D01*
X27618261Y-1698727D01*
X27635292Y-1755314D01*
X27663035Y-1807491D01*
X27700425Y-1853254D01*
X27746024Y-1890843D01*
X27798080Y-1918813D01*
X28036723Y-1991774D01*
X28130374Y-1941979D01*
X28267789Y-1492516D01*
X27770510Y-1340482D01*
X27676859Y-1390277D01*
X27635795Y-1524593D01*
X27618517Y-1581106D01*
X27612597Y-1639903D01*
X27483562Y-1639903D01*
X27502567Y-1610072D01*
X27523986Y-1554996D01*
X27534247Y-1496799D01*
X27558637Y-1358480D01*
X27497800Y-1271595D01*
X26985700Y-1181298D01*
X26982227Y-1200995D01*
X26972379Y-1199258D01*
X26975852Y-1179562D01*
X26956155Y-1176089D01*
X26957892Y-1166241D01*
X26977588Y-1169714D01*
X26981061Y-1150017D01*
X26990909Y-1151754D01*
X26987436Y-1171450D01*
X27499536Y-1261747D01*
X27586421Y-1200910D01*
X27610810Y-1062591D01*
X27621072Y-1004394D01*
X27620141Y-961770D01*
X27797908Y-1016798D01*
X27797908Y-1016798D01*
G37*
X27797908Y-1016798D02*
X27781981Y-1046440D01*
X27764703Y-1102953D01*
X27723639Y-1237269D01*
X27773434Y-1330919D01*
X28270712Y-1482953D01*
X28276560Y-1463826D01*
X28286122Y-1466750D01*
X28280275Y-1485876D01*
X28299402Y-1491724D01*
X28296478Y-1501286D01*
X28277352Y-1495439D01*
X28139937Y-1944903D01*
X28189732Y-2038553D01*
X28428375Y-2111514D01*
X28487172Y-2117434D01*
X28545995Y-2111771D01*
X28602583Y-2094739D01*
X28654761Y-2066996D01*
X28679723Y-2046601D01*
X28691612Y-2087041D01*
X28737264Y-2158535D01*
X28801025Y-2214481D01*
X28877848Y-2250448D01*
X29316421Y-2384533D01*
X29319866Y-2388029D01*
X29325145Y-2391619D01*
X29329774Y-2396008D01*
X29355345Y-2412157D01*
X29380384Y-2429186D01*
X29386262Y-2431683D01*
X29391653Y-2435088D01*
X29396348Y-2437406D01*
X29651228Y-2561030D01*
X29454172Y-2648178D01*
X28748956Y-2345867D01*
X28718368Y-2336162D01*
X28688025Y-2325722D01*
X28682923Y-2324545D01*
X27381718Y-2034012D01*
X27379513Y-2033742D01*
X27377390Y-2033072D01*
X27343145Y-2029285D01*
X27309074Y-2025110D01*
X27306862Y-2025273D01*
X27304647Y-2025028D01*
X27270321Y-2027965D01*
X27236085Y-2030487D01*
X27233944Y-2031077D01*
X27231726Y-2031267D01*
X27198653Y-2040807D01*
X27165530Y-2049939D01*
X27163543Y-2050935D01*
X27161406Y-2051551D01*
X27130861Y-2067310D01*
X27100097Y-2082724D01*
X27098338Y-2084089D01*
X27096365Y-2085107D01*
X27091988Y-2087981D01*
X27061987Y-2107981D01*
X27061915Y-2108040D01*
X27060197Y-2109182D01*
X26947666Y-2185140D01*
X26972080Y-2130306D01*
X26998149Y-2015564D01*
X27000026Y-1881167D01*
X26977171Y-1765742D01*
X26959931Y-1723914D01*
X26964922Y-1731042D01*
X27210678Y-1774376D01*
X27269758Y-1773086D01*
X27327453Y-1760296D01*
X27381544Y-1736496D01*
X27429951Y-1702600D01*
X27470815Y-1659913D01*
X27483562Y-1639903D01*
X27612597Y-1639903D01*
X27618261Y-1698727D01*
X27635292Y-1755314D01*
X27663035Y-1807491D01*
X27700425Y-1853254D01*
X27746024Y-1890843D01*
X27798080Y-1918813D01*
X28036723Y-1991774D01*
X28130374Y-1941979D01*
X28267789Y-1492516D01*
X27770510Y-1340482D01*
X27676859Y-1390277D01*
X27635795Y-1524593D01*
X27618517Y-1581106D01*
X27612597Y-1639903D01*
X27483562Y-1639903D01*
X27502567Y-1610072D01*
X27523986Y-1554996D01*
X27534247Y-1496799D01*
X27558637Y-1358480D01*
X27497800Y-1271595D01*
X26985700Y-1181298D01*
X26982227Y-1200995D01*
X26972379Y-1199258D01*
X26975852Y-1179562D01*
X26956155Y-1176089D01*
X26957892Y-1166241D01*
X26977588Y-1169714D01*
X26981061Y-1150017D01*
X26990909Y-1151754D01*
X26987436Y-1171450D01*
X27499536Y-1261747D01*
X27586421Y-1200910D01*
X27610810Y-1062591D01*
X27621072Y-1004394D01*
X27620141Y-961770D01*
X27797908Y-1016798D01*
G36*
X25363699Y-590242D02*
X25349455Y-633852D01*
X25262631Y-1126255D01*
X25258087Y-1173964D01*
X25264576Y-1225280D01*
X25207216Y-1138948D01*
X25124305Y-1055455D01*
X25026755Y-989657D01*
X24918283Y-944060D01*
X24803021Y-920400D01*
X24685357Y-919578D01*
X24569775Y-941627D01*
X24460677Y-985705D01*
X24362219Y-1050135D01*
X24350282Y-1061825D01*
X24294305Y-1005455D01*
X24196755Y-939657D01*
X24088283Y-894060D01*
X23973021Y-870400D01*
X23950000Y-870239D01*
X23950000Y-780000D01*
X23875000Y-705000D01*
X23355000Y-705000D01*
X23355000Y-725000D01*
X23345000Y-725000D01*
X23345000Y-705000D01*
X23325000Y-705000D01*
X23325000Y-695000D01*
X23345000Y-695000D01*
X23345000Y-675000D01*
X23355000Y-675000D01*
X23355000Y-695000D01*
X23875000Y-695000D01*
X23950000Y-620000D01*
X23950000Y-441656D01*
X25363699Y-590242D01*
X25363699Y-590242D01*
G37*
X25363699Y-590242D02*
X25349455Y-633852D01*
X25262631Y-1126255D01*
X25258087Y-1173964D01*
X25264576Y-1225280D01*
X25207216Y-1138948D01*
X25124305Y-1055455D01*
X25026755Y-989657D01*
X24918283Y-944060D01*
X24803021Y-920400D01*
X24685357Y-919578D01*
X24569775Y-941627D01*
X24460677Y-985705D01*
X24362219Y-1050135D01*
X24350282Y-1061825D01*
X24294305Y-1005455D01*
X24196755Y-939657D01*
X24088283Y-894060D01*
X23973021Y-870400D01*
X23950000Y-870239D01*
X23950000Y-780000D01*
X23875000Y-705000D01*
X23355000Y-705000D01*
X23355000Y-725000D01*
X23345000Y-725000D01*
X23345000Y-705000D01*
X23325000Y-705000D01*
X23325000Y-695000D01*
X23345000Y-695000D01*
X23345000Y-675000D01*
X23355000Y-675000D01*
X23355000Y-695000D01*
X23875000Y-695000D01*
X23950000Y-620000D01*
X23950000Y-441656D01*
X25363699Y-590242D01*
M02*
