G04 #@! TF.FileFunction,Soldermask,Top*
%FSLAX46Y46*%
G04 Gerber Fmt 4.6, Leading zero omitted, Abs format (unit mm)*
G04 Created by KiCad (PCBNEW (2015-09-17 BZR 6202)-product) date 2015 September 30, Wednesday 13:53:37*
%MOMM*%
G01*
G04 APERTURE LIST*
%ADD10C,0.100000*%
%ADD11C,0.010000*%
%ADD12R,0.840000X1.590000*%
%ADD13R,0.740000X0.640000*%
%ADD14C,1.800000*%
%ADD15O,0.960000X0.400000*%
%ADD16O,0.400000X0.960000*%
%ADD17R,4.480000X4.480000*%
%ADD18C,1.440000*%
%ADD19R,0.940000X0.940000*%
%ADD20R,0.940000X2.640000*%
G04 APERTURE END LIST*
D10*
D11*
X45000000Y-22500000D02*
G75*
G03X45000000Y-22500000I-22500000J0D01*
G01*
X34750000Y-22500000D02*
G75*
G03X34750000Y-22500000I-12250000J0D01*
G01*
D12*
X6000000Y-19925000D03*
X6000000Y-25075000D03*
X8000000Y-25075000D03*
X8000000Y-19925000D03*
X1200000Y-19925000D03*
X1200000Y-25075000D03*
X3200000Y-25075000D03*
X3200000Y-19925000D03*
D10*
G36*
X14354929Y-5675360D02*
X14136036Y-5073957D01*
X14831409Y-4820862D01*
X15050302Y-5422265D01*
X14354929Y-5675360D01*
X14354929Y-5675360D01*
G37*
G36*
X15388591Y-5299138D02*
X15169698Y-4697735D01*
X15865071Y-4444640D01*
X16083964Y-5046043D01*
X15388591Y-5299138D01*
X15388591Y-5299138D01*
G37*
D13*
X22250000Y-700000D03*
X23350000Y-700000D03*
D10*
G36*
X16105360Y-3325071D02*
X15503957Y-3543964D01*
X15250862Y-2848591D01*
X15852265Y-2629698D01*
X16105360Y-3325071D01*
X16105360Y-3325071D01*
G37*
G36*
X15729138Y-2291409D02*
X15127735Y-2510302D01*
X14874640Y-1814929D01*
X15476043Y-1596036D01*
X15729138Y-2291409D01*
X15729138Y-2291409D01*
G37*
G36*
X11937128Y-5336743D02*
X11382872Y-5656743D01*
X11012872Y-5015885D01*
X11567128Y-4695885D01*
X11937128Y-5336743D01*
X11937128Y-5336743D01*
G37*
G36*
X11387128Y-4384115D02*
X10832872Y-4704115D01*
X10462872Y-4063257D01*
X11017128Y-3743257D01*
X11387128Y-4384115D01*
X11387128Y-4384115D01*
G37*
G36*
X17194171Y-9347209D02*
X17028526Y-8729017D01*
X17743311Y-8537491D01*
X17908956Y-9155683D01*
X17194171Y-9347209D01*
X17194171Y-9347209D01*
G37*
G36*
X18256689Y-9062509D02*
X18091044Y-8444317D01*
X18805829Y-8252791D01*
X18971474Y-8870983D01*
X18256689Y-9062509D01*
X18256689Y-9062509D01*
G37*
G36*
X27401590Y-924617D02*
X27290455Y-1554894D01*
X26561698Y-1426395D01*
X26672833Y-796118D01*
X27401590Y-924617D01*
X27401590Y-924617D01*
G37*
G36*
X26318302Y-733605D02*
X26207167Y-1363882D01*
X25478410Y-1235383D01*
X25589545Y-605106D01*
X26318302Y-733605D01*
X26318302Y-733605D01*
G37*
G36*
X16854171Y-4207209D02*
X16688526Y-3589017D01*
X17403311Y-3397491D01*
X17568956Y-4015683D01*
X16854171Y-4207209D01*
X16854171Y-4207209D01*
G37*
G36*
X17916689Y-3922509D02*
X17751044Y-3304317D01*
X18465829Y-3112791D01*
X18631474Y-3730983D01*
X17916689Y-3922509D01*
X17916689Y-3922509D01*
G37*
G36*
X28591474Y-4819017D02*
X28425829Y-5437209D01*
X27711044Y-5245683D01*
X27876689Y-4627491D01*
X28591474Y-4819017D01*
X28591474Y-4819017D01*
G37*
G36*
X27528956Y-4534317D02*
X27363311Y-5152509D01*
X26648526Y-4960983D01*
X26814171Y-4342791D01*
X27528956Y-4534317D01*
X27528956Y-4534317D01*
G37*
G36*
X28861474Y-3779017D02*
X28695829Y-4397209D01*
X27981044Y-4205683D01*
X28146689Y-3587491D01*
X28861474Y-3779017D01*
X28861474Y-3779017D01*
G37*
G36*
X27798956Y-3494317D02*
X27633311Y-4112509D01*
X26918526Y-3920983D01*
X27084171Y-3302791D01*
X27798956Y-3494317D01*
X27798956Y-3494317D01*
G37*
G36*
X33082872Y-3143257D02*
X33637128Y-3463257D01*
X33267128Y-4104115D01*
X32712872Y-3784115D01*
X33082872Y-3143257D01*
X33082872Y-3143257D01*
G37*
G36*
X32532872Y-4095885D02*
X33087128Y-4415885D01*
X32717128Y-5056743D01*
X32162872Y-4736743D01*
X32532872Y-4095885D01*
X32532872Y-4095885D01*
G37*
G36*
X29218790Y-6250959D02*
X29798827Y-6521435D01*
X29486090Y-7192103D01*
X28906053Y-6921627D01*
X29218790Y-6250959D01*
X29218790Y-6250959D01*
G37*
G36*
X28753910Y-7247897D02*
X29333947Y-7518373D01*
X29021210Y-8189041D01*
X28441173Y-7918565D01*
X28753910Y-7247897D01*
X28753910Y-7247897D01*
G37*
G36*
X27826640Y-1687036D02*
X28013758Y-1075001D01*
X28721424Y-1291356D01*
X28534306Y-1903391D01*
X27826640Y-1687036D01*
X27826640Y-1687036D01*
G37*
G36*
X28878576Y-2008644D02*
X29065694Y-1396609D01*
X29773360Y-1612964D01*
X29586242Y-2224999D01*
X28878576Y-2008644D01*
X28878576Y-2008644D01*
G37*
G36*
X32035562Y-7782835D02*
X32559819Y-8149924D01*
X32135372Y-8756097D01*
X31611115Y-8389008D01*
X32035562Y-7782835D01*
X32035562Y-7782835D01*
G37*
G36*
X31404628Y-8683903D02*
X31928885Y-9050992D01*
X31504438Y-9657165D01*
X30980181Y-9290076D01*
X31404628Y-8683903D01*
X31404628Y-8683903D01*
G37*
G36*
X32916230Y-8419548D02*
X33406499Y-8830932D01*
X32930836Y-9397804D01*
X32440567Y-8986420D01*
X32916230Y-8419548D01*
X32916230Y-8419548D01*
G37*
G36*
X32209164Y-9262196D02*
X32699433Y-9673580D01*
X32223770Y-10240452D01*
X31733501Y-9829068D01*
X32209164Y-9262196D01*
X32209164Y-9262196D01*
G37*
G36*
X18094058Y-9914854D02*
X18333806Y-10508252D01*
X17740408Y-10748000D01*
X17500660Y-10154602D01*
X18094058Y-9914854D01*
X18094058Y-9914854D01*
G37*
G36*
X17259592Y-10252000D02*
X17499340Y-10845398D01*
X16905942Y-11085146D01*
X16666194Y-10491748D01*
X17259592Y-10252000D01*
X17259592Y-10252000D01*
G37*
G36*
X26666905Y-10464603D02*
X26937380Y-9884566D01*
X27517417Y-10155041D01*
X27246942Y-10735078D01*
X26666905Y-10464603D01*
X26666905Y-10464603D01*
G37*
G36*
X27482583Y-10844959D02*
X27753058Y-10264922D01*
X28333095Y-10535397D01*
X28062620Y-11115434D01*
X27482583Y-10844959D01*
X27482583Y-10844959D01*
G37*
G36*
X19811391Y-1198966D02*
X19755611Y-561401D01*
X20492795Y-496906D01*
X20548575Y-1134471D01*
X19811391Y-1198966D01*
X19811391Y-1198966D01*
G37*
G36*
X20907205Y-1103094D02*
X20851425Y-465529D01*
X21588609Y-401034D01*
X21644389Y-1038599D01*
X20907205Y-1103094D01*
X20907205Y-1103094D01*
G37*
G36*
X17467871Y-1888663D02*
X17304641Y-962944D01*
X18033399Y-834445D01*
X18196629Y-1760164D01*
X17467871Y-1888663D01*
X17467871Y-1888663D01*
G37*
G36*
X18846601Y-1645555D02*
X18683371Y-719836D01*
X19412129Y-591337D01*
X19575359Y-1517056D01*
X18846601Y-1645555D01*
X18846601Y-1645555D01*
G37*
G36*
X29773257Y-7267128D02*
X30093257Y-6712872D01*
X30734115Y-7082872D01*
X30414115Y-7637128D01*
X29773257Y-7267128D01*
X29773257Y-7267128D01*
G37*
G36*
X30725885Y-7817128D02*
X31045885Y-7262872D01*
X31686743Y-7632872D01*
X31366743Y-8187128D01*
X30725885Y-7817128D01*
X30725885Y-7817128D01*
G37*
D14*
X14500000Y-41500000D03*
X34500000Y-5500000D03*
D10*
G36*
X4256854Y-29074589D02*
X5108874Y-28677285D01*
X5506178Y-29529305D01*
X4654158Y-29926609D01*
X4256854Y-29074589D01*
X4256854Y-29074589D01*
G37*
G36*
X5059829Y-30796574D02*
X5911849Y-30399270D01*
X6309153Y-31251290D01*
X5457133Y-31648594D01*
X5059829Y-30796574D01*
X5059829Y-30796574D01*
G37*
G36*
X6470033Y-29090776D02*
X7322053Y-28693472D01*
X7719357Y-29545492D01*
X6867337Y-29942796D01*
X6470033Y-29090776D01*
X6470033Y-29090776D01*
G37*
G36*
X16057293Y-10780558D02*
X16405862Y-11317307D01*
X15785245Y-11720340D01*
X15436676Y-11183591D01*
X16057293Y-10780558D01*
X16057293Y-10780558D01*
G37*
G36*
X15134755Y-11379660D02*
X15483324Y-11916409D01*
X14862707Y-12319442D01*
X14514138Y-11782693D01*
X15134755Y-11379660D01*
X15134755Y-11379660D01*
G37*
G36*
X28969041Y-9598790D02*
X28698565Y-10178827D01*
X28027897Y-9866090D01*
X28298373Y-9286053D01*
X28969041Y-9598790D01*
X28969041Y-9598790D01*
G37*
G36*
X27972103Y-9133910D02*
X27701627Y-9713947D01*
X27030959Y-9401210D01*
X27301435Y-8821173D01*
X27972103Y-9133910D01*
X27972103Y-9133910D01*
G37*
G36*
X3150455Y-26525106D02*
X3261590Y-27155383D01*
X2532833Y-27283882D01*
X2421698Y-26653605D01*
X3150455Y-26525106D01*
X3150455Y-26525106D01*
G37*
G36*
X2067167Y-26716118D02*
X2178302Y-27346395D01*
X1449545Y-27474894D01*
X1338410Y-26844617D01*
X2067167Y-26716118D01*
X2067167Y-26716118D01*
G37*
G36*
X28880660Y-5973374D02*
X28605831Y-6872301D01*
X27898166Y-6655946D01*
X28172995Y-5757019D01*
X28880660Y-5973374D01*
X28880660Y-5973374D01*
G37*
G36*
X27541834Y-5564054D02*
X27267005Y-6462981D01*
X26559340Y-6246626D01*
X26834169Y-5347699D01*
X27541834Y-5564054D01*
X27541834Y-5564054D01*
G37*
D15*
X19500000Y-3300000D03*
X19500000Y-3700000D03*
X19500000Y-4100000D03*
X19500000Y-4500000D03*
X19500000Y-4900000D03*
X19500000Y-5300000D03*
X19500000Y-5700000D03*
X19500000Y-6100000D03*
X19500000Y-6500000D03*
X19500000Y-6900000D03*
X19500000Y-7300000D03*
X19500000Y-7700000D03*
D16*
X20300000Y-8500000D03*
X20700000Y-8500000D03*
X21100000Y-8500000D03*
X21500000Y-8500000D03*
X21900000Y-8500000D03*
X22300000Y-8500000D03*
X22700000Y-8500000D03*
X23100000Y-8500000D03*
X23500000Y-8500000D03*
X23900000Y-8500000D03*
X24300000Y-8500000D03*
X24700000Y-8500000D03*
D15*
X25500000Y-7700000D03*
X25500000Y-7300000D03*
X25500000Y-6900000D03*
X25500000Y-6500000D03*
X25500000Y-6100000D03*
X25500000Y-5700000D03*
X25500000Y-5300000D03*
X25500000Y-4900000D03*
X25500000Y-4500000D03*
X25500000Y-4100000D03*
X25500000Y-3700000D03*
X25500000Y-3300000D03*
D16*
X24700000Y-2500000D03*
X24300000Y-2500000D03*
X23900000Y-2500000D03*
X23500000Y-2500000D03*
X23100000Y-2500000D03*
X22700000Y-2500000D03*
X22300000Y-2500000D03*
X21900000Y-2500000D03*
X21500000Y-2500000D03*
X21100000Y-2500000D03*
X20700000Y-2500000D03*
X20300000Y-2500000D03*
D17*
X22500000Y-5500000D03*
D10*
G36*
X12950792Y-8258359D02*
X13185792Y-8665391D01*
X12562254Y-9025391D01*
X12327254Y-8618359D01*
X12950792Y-8258359D01*
X12950792Y-8258359D01*
G37*
G36*
X12625792Y-7695442D02*
X12860792Y-8102474D01*
X12237254Y-8462474D01*
X12002254Y-8055442D01*
X12625792Y-7695442D01*
X12625792Y-7695442D01*
G37*
G36*
X12300792Y-7132526D02*
X12535792Y-7539558D01*
X11912254Y-7899558D01*
X11677254Y-7492526D01*
X12300792Y-7132526D01*
X12300792Y-7132526D01*
G37*
G36*
X11975792Y-6569609D02*
X12210792Y-6976641D01*
X11587254Y-7336641D01*
X11352254Y-6929609D01*
X11975792Y-6569609D01*
X11975792Y-6569609D01*
G37*
G36*
X13837746Y-5494609D02*
X14072746Y-5901641D01*
X13449208Y-6261641D01*
X13214208Y-5854609D01*
X13837746Y-5494609D01*
X13837746Y-5494609D01*
G37*
G36*
X14162746Y-6057526D02*
X14397746Y-6464558D01*
X13774208Y-6824558D01*
X13539208Y-6417526D01*
X14162746Y-6057526D01*
X14162746Y-6057526D01*
G37*
G36*
X14487746Y-6620442D02*
X14722746Y-7027474D01*
X14099208Y-7387474D01*
X13864208Y-6980442D01*
X14487746Y-6620442D01*
X14487746Y-6620442D01*
G37*
G36*
X14812746Y-7183359D02*
X15047746Y-7590391D01*
X14424208Y-7950391D01*
X14189208Y-7543359D01*
X14812746Y-7183359D01*
X14812746Y-7183359D01*
G37*
G36*
X10179379Y-7959063D02*
X10455151Y-8234835D01*
X10073313Y-8616673D01*
X9797541Y-8340901D01*
X10179379Y-7959063D01*
X10179379Y-7959063D01*
G37*
G36*
X9825825Y-7605510D02*
X10101597Y-7881282D01*
X9719759Y-8263120D01*
X9443987Y-7987348D01*
X9825825Y-7605510D01*
X9825825Y-7605510D01*
G37*
G36*
X9472272Y-7251956D02*
X9748044Y-7527728D01*
X9366206Y-7909566D01*
X9090434Y-7633794D01*
X9472272Y-7251956D01*
X9472272Y-7251956D01*
G37*
G36*
X9118718Y-6898403D02*
X9394490Y-7174175D01*
X9012652Y-7556013D01*
X8736880Y-7280241D01*
X9118718Y-6898403D01*
X9118718Y-6898403D01*
G37*
G36*
X8765165Y-6544849D02*
X9040937Y-6820621D01*
X8659099Y-7202459D01*
X8383327Y-6926687D01*
X8765165Y-6544849D01*
X8765165Y-6544849D01*
G37*
G36*
X7605510Y-7174175D02*
X7881282Y-6898403D01*
X8263120Y-7280241D01*
X7987348Y-7556013D01*
X7605510Y-7174175D01*
X7605510Y-7174175D01*
G37*
G36*
X7251956Y-7527728D02*
X7527728Y-7251956D01*
X7909566Y-7633794D01*
X7633794Y-7909566D01*
X7251956Y-7527728D01*
X7251956Y-7527728D01*
G37*
G36*
X6898403Y-7881282D02*
X7174175Y-7605510D01*
X7556013Y-7987348D01*
X7280241Y-8263120D01*
X6898403Y-7881282D01*
X6898403Y-7881282D01*
G37*
G36*
X6926687Y-8383327D02*
X7202459Y-8659099D01*
X6820621Y-9040937D01*
X6544849Y-8765165D01*
X6926687Y-8383327D01*
X6926687Y-8383327D01*
G37*
G36*
X7280241Y-8736880D02*
X7556013Y-9012652D01*
X7174175Y-9394490D01*
X6898403Y-9118718D01*
X7280241Y-8736880D01*
X7280241Y-8736880D01*
G37*
G36*
X7633794Y-9090434D02*
X7909566Y-9366206D01*
X7527728Y-9748044D01*
X7251956Y-9472272D01*
X7633794Y-9090434D01*
X7633794Y-9090434D01*
G37*
G36*
X7987348Y-9443987D02*
X8263120Y-9719759D01*
X7881282Y-10101597D01*
X7605510Y-9825825D01*
X7987348Y-9443987D01*
X7987348Y-9443987D01*
G37*
G36*
X8340901Y-9797541D02*
X8616673Y-10073313D01*
X8234835Y-10455151D01*
X7959063Y-10179379D01*
X8340901Y-9797541D01*
X8340901Y-9797541D01*
G37*
G36*
X8736880Y-9719759D02*
X9012652Y-9443987D01*
X9394490Y-9825825D01*
X9118718Y-10101597D01*
X8736880Y-9719759D01*
X8736880Y-9719759D01*
G37*
G36*
X9090434Y-9366206D02*
X9366206Y-9090434D01*
X9748044Y-9472272D01*
X9472272Y-9748044D01*
X9090434Y-9366206D01*
X9090434Y-9366206D01*
G37*
G36*
X9443987Y-9012652D02*
X9719759Y-8736880D01*
X10101597Y-9118718D01*
X9825825Y-9394490D01*
X9443987Y-9012652D01*
X9443987Y-9012652D01*
G37*
G36*
X14456987Y-2121055D02*
X15150081Y-3607400D01*
X14298151Y-4004661D01*
X13605057Y-2518316D01*
X14456987Y-2121055D01*
X14456987Y-2121055D01*
G37*
G36*
X12281849Y-3135339D02*
X12974943Y-4621684D01*
X12123013Y-5018945D01*
X11429919Y-3532600D01*
X12281849Y-3135339D01*
X12281849Y-3135339D01*
G37*
G36*
X29882723Y-5104570D02*
X29030794Y-4707309D01*
X29512579Y-3674118D01*
X30364508Y-4071379D01*
X29882723Y-5104570D01*
X29882723Y-5104570D01*
G37*
G36*
X31242185Y-5738497D02*
X30390256Y-5341236D01*
X30872041Y-4308045D01*
X31723970Y-4705306D01*
X31242185Y-5738497D01*
X31242185Y-5738497D01*
G37*
G36*
X32087421Y-3925882D02*
X31235492Y-3528621D01*
X31717277Y-2495430D01*
X32569206Y-2892691D01*
X32087421Y-3925882D01*
X32087421Y-3925882D01*
G37*
G36*
X30727959Y-3291955D02*
X29876030Y-2894694D01*
X30357815Y-1861503D01*
X31209744Y-2258764D01*
X30727959Y-3291955D01*
X30727959Y-3291955D01*
G37*
D18*
X32000000Y-13000000D03*
X13000000Y-32000000D03*
X32000000Y-32000000D03*
X13000000Y-13000000D03*
D10*
G36*
X2024306Y-14733779D02*
X2907617Y-15055278D01*
X2654522Y-15750651D01*
X1771211Y-15429152D01*
X2024306Y-14733779D01*
X2024306Y-14733779D01*
G37*
G36*
X1545478Y-16049349D02*
X2428789Y-16370848D01*
X2175694Y-17066221D01*
X1292383Y-16744722D01*
X1545478Y-16049349D01*
X1545478Y-16049349D01*
G37*
G36*
X9975736Y-11478945D02*
X9311055Y-10814264D01*
X9834314Y-10291005D01*
X10498995Y-10955686D01*
X9975736Y-11478945D01*
X9975736Y-11478945D01*
G37*
G36*
X10965686Y-10488995D02*
X10301005Y-9824314D01*
X10824264Y-9301055D01*
X11488945Y-9965736D01*
X10965686Y-10488995D01*
X10965686Y-10488995D01*
G37*
G36*
X16428104Y-3410921D02*
X16184814Y-2502951D01*
X16899600Y-2311425D01*
X17142890Y-3219395D01*
X16428104Y-3410921D01*
X16428104Y-3410921D01*
G37*
G36*
X17780400Y-3048575D02*
X17537110Y-2140605D01*
X18251896Y-1949079D01*
X18495186Y-2857049D01*
X17780400Y-3048575D01*
X17780400Y-3048575D01*
G37*
G36*
X10592736Y-17492698D02*
X10197736Y-18176858D01*
X8604250Y-17256858D01*
X8999250Y-16572698D01*
X10592736Y-17492698D01*
X10592736Y-17492698D01*
G37*
G36*
X11227736Y-16392846D02*
X10832736Y-17077006D01*
X9239250Y-16157006D01*
X9634250Y-15472846D01*
X11227736Y-16392846D01*
X11227736Y-16392846D01*
G37*
G36*
X11862736Y-15292994D02*
X11467736Y-15977154D01*
X9874250Y-15057154D01*
X10269250Y-14372994D01*
X11862736Y-15292994D01*
X11862736Y-15292994D01*
G37*
G36*
X12497736Y-14193142D02*
X12102736Y-14877302D01*
X10509250Y-13957302D01*
X10904250Y-13273142D01*
X12497736Y-14193142D01*
X12497736Y-14193142D01*
G37*
G36*
X6175750Y-10543142D02*
X5780750Y-11227302D01*
X4187264Y-10307302D01*
X4582264Y-9623142D01*
X6175750Y-10543142D01*
X6175750Y-10543142D01*
G37*
G36*
X5540750Y-11642994D02*
X5145750Y-12327154D01*
X3552264Y-11407154D01*
X3947264Y-10722994D01*
X5540750Y-11642994D01*
X5540750Y-11642994D01*
G37*
G36*
X4905750Y-12742846D02*
X4510750Y-13427006D01*
X2917264Y-12507006D01*
X3312264Y-11822846D01*
X4905750Y-12742846D01*
X4905750Y-12742846D01*
G37*
G36*
X4270750Y-13842698D02*
X3875750Y-14526858D01*
X2282264Y-13606858D01*
X2677264Y-12922698D01*
X4270750Y-13842698D01*
X4270750Y-13842698D01*
G37*
D19*
X19960000Y-41135000D03*
X19960000Y-39865000D03*
X21230000Y-41135000D03*
X21230000Y-39865000D03*
X22500000Y-41135000D03*
X22500000Y-39865000D03*
X23770000Y-41135000D03*
X23770000Y-39865000D03*
X25040000Y-41135000D03*
X25040000Y-39865000D03*
D20*
X19960000Y-42405000D03*
X19960000Y-38595000D03*
X21230000Y-42405000D03*
X21230000Y-38595000D03*
X22500000Y-42405000D03*
X22500000Y-38595000D03*
X23770000Y-42405000D03*
X23770000Y-38595000D03*
X25040000Y-42405000D03*
X25040000Y-38595000D03*
M02*
