G04 #@! TF.FileFunction,Soldermask,Bot*
%FSLAX46Y46*%
G04 Gerber Fmt 4.6, Leading zero omitted, Abs format (unit mm)*
G04 Created by KiCad (PCBNEW (2015-09-17 BZR 6202)-product) date 2015 September 30, Wednesday 13:53:37*
%MOMM*%
G01*
G04 APERTURE LIST*
%ADD10C,0.100000*%
%ADD11C,0.010000*%
%ADD12C,0.200000*%
%ADD13C,1.140000*%
%ADD14C,1.440000*%
%ADD15R,0.940000X0.940000*%
G04 APERTURE END LIST*
D10*
D11*
X45000000Y-22500000D02*
G75*
G03X45000000Y-22500000I-22500000J0D01*
G01*
X34750000Y-22500000D02*
G75*
G03X34750000Y-22500000I-12250000J0D01*
G01*
D12*
X25937500Y-43452381D02*
X25854166Y-42785714D01*
X25877976Y-42976190D02*
X25818452Y-42880952D01*
X25764881Y-42833333D01*
X25663690Y-42785714D01*
X25568451Y-42785714D01*
X24806546Y-42785714D02*
X24889880Y-43452381D01*
X25235118Y-42785714D02*
X25300594Y-43309524D01*
X25264880Y-43404762D01*
X25175595Y-43452381D01*
X25032737Y-43452381D01*
X24931546Y-43404762D01*
X24877975Y-43357143D01*
X23901784Y-42785714D02*
X23985118Y-43452381D01*
X24330356Y-42785714D02*
X24395832Y-43309524D01*
X24360118Y-43404762D01*
X24270833Y-43452381D01*
X24127975Y-43452381D01*
X24026784Y-43404762D01*
X23973213Y-43357143D01*
X23520832Y-42785714D02*
X23366071Y-43452381D01*
X23044641Y-42785714D01*
X22747023Y-43452381D02*
X22663689Y-42785714D01*
X22622023Y-42452381D02*
X22675594Y-42500000D01*
X22633927Y-42547619D01*
X22580356Y-42500000D01*
X22622023Y-42452381D01*
X22633927Y-42547619D01*
X22258928Y-43357143D02*
X22217261Y-43404762D01*
X22270833Y-43452381D01*
X22312499Y-43404762D01*
X22258928Y-43357143D01*
X22270833Y-43452381D01*
X21360118Y-43404762D02*
X21461309Y-43452381D01*
X21651786Y-43452381D01*
X21741071Y-43404762D01*
X21782738Y-43357143D01*
X21818452Y-43261905D01*
X21782738Y-42976190D01*
X21723214Y-42880952D01*
X21669643Y-42833333D01*
X21568452Y-42785714D01*
X21377975Y-42785714D01*
X21288690Y-42833333D01*
X20794643Y-43452381D02*
X20883928Y-43404762D01*
X20925595Y-43357143D01*
X20961309Y-43261905D01*
X20925595Y-42976190D01*
X20866071Y-42880952D01*
X20812500Y-42833333D01*
X20711309Y-42785714D01*
X20568451Y-42785714D01*
X20479166Y-42833333D01*
X20437499Y-42880952D01*
X20401785Y-42976190D01*
X20437499Y-43261905D01*
X20497023Y-43357143D01*
X20550594Y-43404762D01*
X20651785Y-43452381D01*
X20794643Y-43452381D01*
X20032738Y-43452381D02*
X19949404Y-42785714D01*
X19961309Y-42880952D02*
X19907738Y-42833333D01*
X19806547Y-42785714D01*
X19663689Y-42785714D01*
X19574404Y-42833333D01*
X19538689Y-42928571D01*
X19604166Y-43452381D01*
X19538689Y-42928571D02*
X19479166Y-42833333D01*
X19377975Y-42785714D01*
X19235118Y-42785714D01*
X19145833Y-42833333D01*
X19110118Y-42928571D01*
X19175595Y-43452381D01*
D11*
G36*
X25521688Y-37570966D02*
X25389539Y-37592511D01*
X25280206Y-37632977D01*
X25194912Y-37691565D01*
X25134884Y-37767474D01*
X25105151Y-37842958D01*
X25099706Y-37881610D01*
X25095153Y-37949094D01*
X25091588Y-38042501D01*
X25089106Y-38158922D01*
X25087804Y-38295449D01*
X25087625Y-38373842D01*
X25087625Y-38835125D01*
X25325750Y-38835125D01*
X25325750Y-38779562D01*
X25331061Y-38738324D01*
X25345095Y-38725189D01*
X25365006Y-38741685D01*
X25372636Y-38754367D01*
X25405600Y-38786322D01*
X25462779Y-38812229D01*
X25536969Y-38830598D01*
X25620963Y-38839939D01*
X25707555Y-38838762D01*
X25753523Y-38833118D01*
X25836815Y-38810334D01*
X25916834Y-38773169D01*
X25981227Y-38727740D01*
X25995882Y-38713159D01*
X26044463Y-38638982D01*
X26075375Y-38548829D01*
X26084571Y-38455398D01*
X26084457Y-38453532D01*
X25853955Y-38453532D01*
X25844834Y-38516178D01*
X25814046Y-38560225D01*
X25762319Y-38590873D01*
X25717682Y-38602328D01*
X25653789Y-38609205D01*
X25581176Y-38611450D01*
X25510380Y-38609012D01*
X25451937Y-38601838D01*
X25421000Y-38592576D01*
X25376653Y-38553908D01*
X25344404Y-38492060D01*
X25327509Y-38414344D01*
X25325775Y-38378718D01*
X25325750Y-38295375D01*
X25504344Y-38295463D01*
X25622243Y-38298348D01*
X25712009Y-38307833D01*
X25776839Y-38325364D01*
X25819929Y-38352386D01*
X25844475Y-38390345D01*
X25853674Y-38440684D01*
X25853955Y-38453532D01*
X26084457Y-38453532D01*
X26083508Y-38438081D01*
X26066800Y-38345460D01*
X26032554Y-38271026D01*
X25982398Y-38210227D01*
X25946105Y-38176315D01*
X25911035Y-38151209D01*
X25871423Y-38133375D01*
X25821506Y-38121280D01*
X25755519Y-38113390D01*
X25667697Y-38108172D01*
X25587688Y-38105206D01*
X25333688Y-38096937D01*
X25328755Y-38019210D01*
X25332337Y-37939740D01*
X25352590Y-37876791D01*
X25387442Y-37836327D01*
X25393457Y-37832748D01*
X25454039Y-37811589D01*
X25530001Y-37801056D01*
X25611923Y-37800691D01*
X25690386Y-37810033D01*
X25755968Y-37828623D01*
X25795662Y-37852377D01*
X25832314Y-37886809D01*
X25928475Y-37815351D01*
X26024635Y-37743893D01*
X25974557Y-37694932D01*
X25888022Y-37632019D01*
X25779941Y-37589969D01*
X25653420Y-37569631D01*
X25521688Y-37570966D01*
X25521688Y-37570966D01*
G37*
X25521688Y-37570966D02*
X25389539Y-37592511D01*
X25280206Y-37632977D01*
X25194912Y-37691565D01*
X25134884Y-37767474D01*
X25105151Y-37842958D01*
X25099706Y-37881610D01*
X25095153Y-37949094D01*
X25091588Y-38042501D01*
X25089106Y-38158922D01*
X25087804Y-38295449D01*
X25087625Y-38373842D01*
X25087625Y-38835125D01*
X25325750Y-38835125D01*
X25325750Y-38779562D01*
X25331061Y-38738324D01*
X25345095Y-38725189D01*
X25365006Y-38741685D01*
X25372636Y-38754367D01*
X25405600Y-38786322D01*
X25462779Y-38812229D01*
X25536969Y-38830598D01*
X25620963Y-38839939D01*
X25707555Y-38838762D01*
X25753523Y-38833118D01*
X25836815Y-38810334D01*
X25916834Y-38773169D01*
X25981227Y-38727740D01*
X25995882Y-38713159D01*
X26044463Y-38638982D01*
X26075375Y-38548829D01*
X26084571Y-38455398D01*
X26084457Y-38453532D01*
X25853955Y-38453532D01*
X25844834Y-38516178D01*
X25814046Y-38560225D01*
X25762319Y-38590873D01*
X25717682Y-38602328D01*
X25653789Y-38609205D01*
X25581176Y-38611450D01*
X25510380Y-38609012D01*
X25451937Y-38601838D01*
X25421000Y-38592576D01*
X25376653Y-38553908D01*
X25344404Y-38492060D01*
X25327509Y-38414344D01*
X25325775Y-38378718D01*
X25325750Y-38295375D01*
X25504344Y-38295463D01*
X25622243Y-38298348D01*
X25712009Y-38307833D01*
X25776839Y-38325364D01*
X25819929Y-38352386D01*
X25844475Y-38390345D01*
X25853674Y-38440684D01*
X25853955Y-38453532D01*
X26084457Y-38453532D01*
X26083508Y-38438081D01*
X26066800Y-38345460D01*
X26032554Y-38271026D01*
X25982398Y-38210227D01*
X25946105Y-38176315D01*
X25911035Y-38151209D01*
X25871423Y-38133375D01*
X25821506Y-38121280D01*
X25755519Y-38113390D01*
X25667697Y-38108172D01*
X25587688Y-38105206D01*
X25333688Y-38096937D01*
X25328755Y-38019210D01*
X25332337Y-37939740D01*
X25352590Y-37876791D01*
X25387442Y-37836327D01*
X25393457Y-37832748D01*
X25454039Y-37811589D01*
X25530001Y-37801056D01*
X25611923Y-37800691D01*
X25690386Y-37810033D01*
X25755968Y-37828623D01*
X25795662Y-37852377D01*
X25832314Y-37886809D01*
X25928475Y-37815351D01*
X26024635Y-37743893D01*
X25974557Y-37694932D01*
X25888022Y-37632019D01*
X25779941Y-37589969D01*
X25653420Y-37569631D01*
X25521688Y-37570966D01*
G36*
X22944500Y-38835125D02*
X23182625Y-38835125D01*
X23182625Y-38771625D01*
X23184418Y-38731842D01*
X23188897Y-38709733D01*
X23190700Y-38708125D01*
X23207113Y-38716657D01*
X23240108Y-38738443D01*
X23263391Y-38754932D01*
X23367271Y-38812272D01*
X23478200Y-38838673D01*
X23596873Y-38834301D01*
X23596916Y-38834294D01*
X23682188Y-38812496D01*
X23752767Y-38773793D01*
X23819796Y-38711822D01*
X23828647Y-38701934D01*
X23865411Y-38655901D01*
X23892533Y-38609385D01*
X23911784Y-38556010D01*
X23924938Y-38489400D01*
X23933767Y-38403181D01*
X23939492Y-38303312D01*
X23941667Y-38200592D01*
X23694741Y-38200592D01*
X23692598Y-38307489D01*
X23685271Y-38388532D01*
X23671415Y-38449381D01*
X23649685Y-38495699D01*
X23618735Y-38533149D01*
X23614852Y-38536838D01*
X23579056Y-38567368D01*
X23546383Y-38584901D01*
X23506499Y-38592378D01*
X23449072Y-38592740D01*
X23422110Y-38591695D01*
X23365062Y-38587844D01*
X23328331Y-38579331D01*
X23300485Y-38561366D01*
X23270090Y-38529159D01*
X23268508Y-38527331D01*
X23238890Y-38487349D01*
X23217978Y-38442895D01*
X23204509Y-38387858D01*
X23197224Y-38316127D01*
X23194861Y-38221590D01*
X23195054Y-38171357D01*
X23202585Y-38050220D01*
X23223510Y-37956472D01*
X23259227Y-37888106D01*
X23311131Y-37843115D01*
X23380618Y-37819493D01*
X23443286Y-37814589D01*
X23524816Y-37822130D01*
X23588239Y-37846468D01*
X23635232Y-37890175D01*
X23667470Y-37955824D01*
X23686629Y-38045989D01*
X23694385Y-38163240D01*
X23694741Y-38200592D01*
X23941667Y-38200592D01*
X23942949Y-38140072D01*
X23936421Y-38004107D01*
X23918971Y-37892259D01*
X23889661Y-37801369D01*
X23847551Y-37728280D01*
X23791705Y-37669831D01*
X23740644Y-37633945D01*
X23634375Y-37587399D01*
X23524622Y-37571683D01*
X23414709Y-37586615D01*
X23307960Y-37632014D01*
X23265094Y-37659959D01*
X23226027Y-37687219D01*
X23198321Y-37704627D01*
X23190700Y-37708000D01*
X23188246Y-37692917D01*
X23186092Y-37650837D01*
X23184359Y-37586512D01*
X23183169Y-37504695D01*
X23182641Y-37410138D01*
X23182625Y-37390500D01*
X23182625Y-37073000D01*
X22944500Y-37073000D01*
X22944500Y-38835125D01*
X22944500Y-38835125D01*
G37*
X22944500Y-38835125D02*
X23182625Y-38835125D01*
X23182625Y-38771625D01*
X23184418Y-38731842D01*
X23188897Y-38709733D01*
X23190700Y-38708125D01*
X23207113Y-38716657D01*
X23240108Y-38738443D01*
X23263391Y-38754932D01*
X23367271Y-38812272D01*
X23478200Y-38838673D01*
X23596873Y-38834301D01*
X23596916Y-38834294D01*
X23682188Y-38812496D01*
X23752767Y-38773793D01*
X23819796Y-38711822D01*
X23828647Y-38701934D01*
X23865411Y-38655901D01*
X23892533Y-38609385D01*
X23911784Y-38556010D01*
X23924938Y-38489400D01*
X23933767Y-38403181D01*
X23939492Y-38303312D01*
X23941667Y-38200592D01*
X23694741Y-38200592D01*
X23692598Y-38307489D01*
X23685271Y-38388532D01*
X23671415Y-38449381D01*
X23649685Y-38495699D01*
X23618735Y-38533149D01*
X23614852Y-38536838D01*
X23579056Y-38567368D01*
X23546383Y-38584901D01*
X23506499Y-38592378D01*
X23449072Y-38592740D01*
X23422110Y-38591695D01*
X23365062Y-38587844D01*
X23328331Y-38579331D01*
X23300485Y-38561366D01*
X23270090Y-38529159D01*
X23268508Y-38527331D01*
X23238890Y-38487349D01*
X23217978Y-38442895D01*
X23204509Y-38387858D01*
X23197224Y-38316127D01*
X23194861Y-38221590D01*
X23195054Y-38171357D01*
X23202585Y-38050220D01*
X23223510Y-37956472D01*
X23259227Y-37888106D01*
X23311131Y-37843115D01*
X23380618Y-37819493D01*
X23443286Y-37814589D01*
X23524816Y-37822130D01*
X23588239Y-37846468D01*
X23635232Y-37890175D01*
X23667470Y-37955824D01*
X23686629Y-38045989D01*
X23694385Y-38163240D01*
X23694741Y-38200592D01*
X23941667Y-38200592D01*
X23942949Y-38140072D01*
X23936421Y-38004107D01*
X23918971Y-37892259D01*
X23889661Y-37801369D01*
X23847551Y-37728280D01*
X23791705Y-37669831D01*
X23740644Y-37633945D01*
X23634375Y-37587399D01*
X23524622Y-37571683D01*
X23414709Y-37586615D01*
X23307960Y-37632014D01*
X23265094Y-37659959D01*
X23226027Y-37687219D01*
X23198321Y-37704627D01*
X23190700Y-37708000D01*
X23188246Y-37692917D01*
X23186092Y-37650837D01*
X23184359Y-37586512D01*
X23183169Y-37504695D01*
X23182641Y-37410138D01*
X23182625Y-37390500D01*
X23182625Y-37073000D01*
X22944500Y-37073000D01*
X22944500Y-38835125D01*
G36*
X20373605Y-37576554D02*
X20249030Y-37606984D01*
X20150053Y-37655946D01*
X20076235Y-37723808D01*
X20027132Y-37810936D01*
X20007738Y-37880823D01*
X20003462Y-37919569D01*
X19999618Y-37984864D01*
X19996365Y-38071508D01*
X19993863Y-38174301D01*
X19992272Y-38288043D01*
X19991750Y-38400729D01*
X19991750Y-38835125D01*
X20229875Y-38835125D01*
X20229875Y-38779562D01*
X20233549Y-38738750D01*
X20246605Y-38726650D01*
X20272098Y-38742469D01*
X20292943Y-38763226D01*
X20349640Y-38802903D01*
X20429228Y-38829367D01*
X20525167Y-38841309D01*
X20630913Y-38837420D01*
X20650898Y-38834879D01*
X20755794Y-38806845D01*
X20847549Y-38756503D01*
X20920765Y-38687945D01*
X20970041Y-38605268D01*
X20976309Y-38588127D01*
X20986980Y-38531359D01*
X20989377Y-38458594D01*
X20987976Y-38432384D01*
X20765466Y-38432384D01*
X20759961Y-38490197D01*
X20728606Y-38544446D01*
X20691872Y-38576622D01*
X20637823Y-38599251D01*
X20564380Y-38612324D01*
X20482470Y-38615699D01*
X20403023Y-38609233D01*
X20336965Y-38592783D01*
X20313645Y-38581558D01*
X20281553Y-38557639D01*
X20261003Y-38528086D01*
X20249064Y-38485160D01*
X20242807Y-38421122D01*
X20241349Y-38390625D01*
X20237813Y-38303312D01*
X20413648Y-38298849D01*
X20523727Y-38299009D01*
X20607451Y-38306594D01*
X20669585Y-38322756D01*
X20714898Y-38348644D01*
X20743202Y-38378416D01*
X20765466Y-38432384D01*
X20987976Y-38432384D01*
X20987716Y-38427531D01*
X20967699Y-38326173D01*
X20924078Y-38244506D01*
X20854401Y-38178542D01*
X20821575Y-38157346D01*
X20791507Y-38140541D01*
X20763419Y-38128370D01*
X20731254Y-38119869D01*
X20688953Y-38114075D01*
X20630457Y-38110023D01*
X20549710Y-38106749D01*
X20491813Y-38104875D01*
X20237813Y-38096937D01*
X20232949Y-38038459D01*
X20235883Y-37950517D01*
X20259996Y-37881909D01*
X20304135Y-37835475D01*
X20318707Y-37827405D01*
X20378087Y-37808456D01*
X20449467Y-37799403D01*
X20525439Y-37799464D01*
X20598595Y-37807857D01*
X20661525Y-37823800D01*
X20706820Y-37846511D01*
X20725867Y-37870384D01*
X20738710Y-37875884D01*
X20768953Y-37863027D01*
X20818506Y-37830725D01*
X20889274Y-37777889D01*
X20892825Y-37775137D01*
X20916885Y-37752798D01*
X20917099Y-37733018D01*
X20904000Y-37712013D01*
X20851216Y-37661263D01*
X20774022Y-37619898D01*
X20678798Y-37589548D01*
X20571923Y-37571842D01*
X20459776Y-37568409D01*
X20373605Y-37576554D01*
X20373605Y-37576554D01*
G37*
X20373605Y-37576554D02*
X20249030Y-37606984D01*
X20150053Y-37655946D01*
X20076235Y-37723808D01*
X20027132Y-37810936D01*
X20007738Y-37880823D01*
X20003462Y-37919569D01*
X19999618Y-37984864D01*
X19996365Y-38071508D01*
X19993863Y-38174301D01*
X19992272Y-38288043D01*
X19991750Y-38400729D01*
X19991750Y-38835125D01*
X20229875Y-38835125D01*
X20229875Y-38779562D01*
X20233549Y-38738750D01*
X20246605Y-38726650D01*
X20272098Y-38742469D01*
X20292943Y-38763226D01*
X20349640Y-38802903D01*
X20429228Y-38829367D01*
X20525167Y-38841309D01*
X20630913Y-38837420D01*
X20650898Y-38834879D01*
X20755794Y-38806845D01*
X20847549Y-38756503D01*
X20920765Y-38687945D01*
X20970041Y-38605268D01*
X20976309Y-38588127D01*
X20986980Y-38531359D01*
X20989377Y-38458594D01*
X20987976Y-38432384D01*
X20765466Y-38432384D01*
X20759961Y-38490197D01*
X20728606Y-38544446D01*
X20691872Y-38576622D01*
X20637823Y-38599251D01*
X20564380Y-38612324D01*
X20482470Y-38615699D01*
X20403023Y-38609233D01*
X20336965Y-38592783D01*
X20313645Y-38581558D01*
X20281553Y-38557639D01*
X20261003Y-38528086D01*
X20249064Y-38485160D01*
X20242807Y-38421122D01*
X20241349Y-38390625D01*
X20237813Y-38303312D01*
X20413648Y-38298849D01*
X20523727Y-38299009D01*
X20607451Y-38306594D01*
X20669585Y-38322756D01*
X20714898Y-38348644D01*
X20743202Y-38378416D01*
X20765466Y-38432384D01*
X20987976Y-38432384D01*
X20987716Y-38427531D01*
X20967699Y-38326173D01*
X20924078Y-38244506D01*
X20854401Y-38178542D01*
X20821575Y-38157346D01*
X20791507Y-38140541D01*
X20763419Y-38128370D01*
X20731254Y-38119869D01*
X20688953Y-38114075D01*
X20630457Y-38110023D01*
X20549710Y-38106749D01*
X20491813Y-38104875D01*
X20237813Y-38096937D01*
X20232949Y-38038459D01*
X20235883Y-37950517D01*
X20259996Y-37881909D01*
X20304135Y-37835475D01*
X20318707Y-37827405D01*
X20378087Y-37808456D01*
X20449467Y-37799403D01*
X20525439Y-37799464D01*
X20598595Y-37807857D01*
X20661525Y-37823800D01*
X20706820Y-37846511D01*
X20725867Y-37870384D01*
X20738710Y-37875884D01*
X20768953Y-37863027D01*
X20818506Y-37830725D01*
X20889274Y-37777889D01*
X20892825Y-37775137D01*
X20916885Y-37752798D01*
X20917099Y-37733018D01*
X20904000Y-37712013D01*
X20851216Y-37661263D01*
X20774022Y-37619898D01*
X20678798Y-37589548D01*
X20571923Y-37571842D01*
X20459776Y-37568409D01*
X20373605Y-37576554D01*
G36*
X18254520Y-37577682D02*
X18235488Y-37581293D01*
X18151062Y-37602909D01*
X18084706Y-37631892D01*
X18022748Y-37675053D01*
X17989319Y-37703921D01*
X17924681Y-37777406D01*
X17876299Y-37867924D01*
X17843101Y-37978763D01*
X17824014Y-38113210D01*
X17818380Y-38227906D01*
X17817104Y-38295375D01*
X18213865Y-38295375D01*
X18339333Y-38295246D01*
X18436377Y-38295532D01*
X18508316Y-38297242D01*
X18558471Y-38301387D01*
X18590160Y-38308975D01*
X18606704Y-38321017D01*
X18611423Y-38338521D01*
X18607636Y-38362496D01*
X18598664Y-38393954D01*
X18593796Y-38410902D01*
X18562064Y-38480188D01*
X18511550Y-38542166D01*
X18451308Y-38586778D01*
X18425587Y-38597817D01*
X18335735Y-38612673D01*
X18237807Y-38604236D01*
X18143399Y-38574137D01*
X18102651Y-38552419D01*
X18021178Y-38501773D01*
X17942847Y-38569230D01*
X17902717Y-38605305D01*
X17874466Y-38633596D01*
X17864508Y-38647356D01*
X17875599Y-38662747D01*
X17904165Y-38691076D01*
X17930710Y-38714698D01*
X18031190Y-38780364D01*
X18149437Y-38822493D01*
X18280669Y-38839904D01*
X18409221Y-38833011D01*
X18529135Y-38801801D01*
X18631497Y-38744898D01*
X18715331Y-38663691D01*
X18779660Y-38559567D01*
X18823509Y-38433912D01*
X18845904Y-38288114D01*
X18848750Y-38208062D01*
X18840959Y-38104875D01*
X18614683Y-38104875D01*
X18070875Y-38104875D01*
X18070875Y-38060613D01*
X18081297Y-38007377D01*
X18108011Y-37945361D01*
X18144197Y-37887548D01*
X18183032Y-37846925D01*
X18183229Y-37846781D01*
X18257894Y-37810652D01*
X18342260Y-37798921D01*
X18426221Y-37811566D01*
X18498272Y-37847511D01*
X18556493Y-37910173D01*
X18594315Y-37994175D01*
X18603908Y-38037487D01*
X18614683Y-38104875D01*
X18840959Y-38104875D01*
X18837294Y-38056339D01*
X18804166Y-37921647D01*
X18751227Y-37805889D01*
X18680339Y-37710966D01*
X18593363Y-37638782D01*
X18492160Y-37591239D01*
X18378592Y-37570238D01*
X18254520Y-37577682D01*
X18254520Y-37577682D01*
G37*
X18254520Y-37577682D02*
X18235488Y-37581293D01*
X18151062Y-37602909D01*
X18084706Y-37631892D01*
X18022748Y-37675053D01*
X17989319Y-37703921D01*
X17924681Y-37777406D01*
X17876299Y-37867924D01*
X17843101Y-37978763D01*
X17824014Y-38113210D01*
X17818380Y-38227906D01*
X17817104Y-38295375D01*
X18213865Y-38295375D01*
X18339333Y-38295246D01*
X18436377Y-38295532D01*
X18508316Y-38297242D01*
X18558471Y-38301387D01*
X18590160Y-38308975D01*
X18606704Y-38321017D01*
X18611423Y-38338521D01*
X18607636Y-38362496D01*
X18598664Y-38393954D01*
X18593796Y-38410902D01*
X18562064Y-38480188D01*
X18511550Y-38542166D01*
X18451308Y-38586778D01*
X18425587Y-38597817D01*
X18335735Y-38612673D01*
X18237807Y-38604236D01*
X18143399Y-38574137D01*
X18102651Y-38552419D01*
X18021178Y-38501773D01*
X17942847Y-38569230D01*
X17902717Y-38605305D01*
X17874466Y-38633596D01*
X17864508Y-38647356D01*
X17875599Y-38662747D01*
X17904165Y-38691076D01*
X17930710Y-38714698D01*
X18031190Y-38780364D01*
X18149437Y-38822493D01*
X18280669Y-38839904D01*
X18409221Y-38833011D01*
X18529135Y-38801801D01*
X18631497Y-38744898D01*
X18715331Y-38663691D01*
X18779660Y-38559567D01*
X18823509Y-38433912D01*
X18845904Y-38288114D01*
X18848750Y-38208062D01*
X18840959Y-38104875D01*
X18614683Y-38104875D01*
X18070875Y-38104875D01*
X18070875Y-38060613D01*
X18081297Y-38007377D01*
X18108011Y-37945361D01*
X18144197Y-37887548D01*
X18183032Y-37846925D01*
X18183229Y-37846781D01*
X18257894Y-37810652D01*
X18342260Y-37798921D01*
X18426221Y-37811566D01*
X18498272Y-37847511D01*
X18556493Y-37910173D01*
X18594315Y-37994175D01*
X18603908Y-38037487D01*
X18614683Y-38104875D01*
X18840959Y-38104875D01*
X18837294Y-38056339D01*
X18804166Y-37921647D01*
X18751227Y-37805889D01*
X18680339Y-37710966D01*
X18593363Y-37638782D01*
X18492160Y-37591239D01*
X18378592Y-37570238D01*
X18254520Y-37577682D01*
G36*
X26588889Y-35595181D02*
X26523430Y-35618432D01*
X26446468Y-35667116D01*
X26377845Y-35733966D01*
X26326165Y-35809512D01*
X26306054Y-35857719D01*
X26298200Y-35901834D01*
X26292329Y-35970773D01*
X26288428Y-36057674D01*
X26286483Y-36155675D01*
X26286481Y-36257914D01*
X26288407Y-36357527D01*
X26292249Y-36447653D01*
X26297991Y-36521429D01*
X26305620Y-36571992D01*
X26307503Y-36579160D01*
X26338095Y-36642308D01*
X26388957Y-36708292D01*
X26451363Y-36768323D01*
X26516593Y-36813612D01*
X26557905Y-36831444D01*
X26669339Y-36849218D01*
X26781646Y-36839556D01*
X26887280Y-36804137D01*
X26978692Y-36744637D01*
X26988657Y-36735670D01*
X27024375Y-36702340D01*
X27024375Y-37713534D01*
X26988657Y-37680487D01*
X26907622Y-37624308D01*
X26811872Y-37587680D01*
X26710018Y-37571934D01*
X26610672Y-37578402D01*
X26522464Y-37608405D01*
X26435222Y-37663243D01*
X26371472Y-37725382D01*
X26325545Y-37797631D01*
X26314389Y-37820186D01*
X26305528Y-37841859D01*
X26298653Y-37866528D01*
X26293454Y-37898068D01*
X26289623Y-37940357D01*
X26286852Y-37997272D01*
X26284831Y-38072688D01*
X26283253Y-38170485D01*
X26281808Y-38294537D01*
X26281172Y-38354906D01*
X26276156Y-38835125D01*
X26514071Y-38835125D01*
X26519192Y-38410468D01*
X26520848Y-38282776D01*
X26522591Y-38182799D01*
X26524756Y-38106504D01*
X26527677Y-38049858D01*
X26531686Y-38008828D01*
X26537119Y-37979379D01*
X26544308Y-37957479D01*
X26553588Y-37939094D01*
X26558935Y-37930250D01*
X26615993Y-37864661D01*
X26689241Y-37825999D01*
X26779995Y-37813581D01*
X26783516Y-37813614D01*
X26859497Y-37823402D01*
X26920336Y-37853746D01*
X26975443Y-37909667D01*
X26983707Y-37920453D01*
X26993445Y-37935055D01*
X27001106Y-37952321D01*
X27006990Y-37976119D01*
X27011399Y-38010315D01*
X27014636Y-38058776D01*
X27017002Y-38125368D01*
X27018800Y-38213959D01*
X27020331Y-38328415D01*
X27021125Y-38399691D01*
X27025811Y-38835125D01*
X27278375Y-38835125D01*
X27278375Y-36223687D01*
X27016438Y-36223687D01*
X27016073Y-36313188D01*
X27014406Y-36377344D01*
X27010574Y-36422559D01*
X27003719Y-36455235D01*
X26992979Y-36481775D01*
X26978330Y-36507239D01*
X26943221Y-36550911D01*
X26902381Y-36584678D01*
X26891017Y-36590841D01*
X26831219Y-36605969D01*
X26759497Y-36607355D01*
X26689411Y-36596058D01*
X26634523Y-36573135D01*
X26630811Y-36570552D01*
X26589311Y-36533369D01*
X26559571Y-36488208D01*
X26539951Y-36429607D01*
X26528812Y-36352102D01*
X26524514Y-36250230D01*
X26524313Y-36215750D01*
X26526963Y-36105787D01*
X26535997Y-36021775D01*
X26553042Y-35958273D01*
X26579725Y-35909840D01*
X26617673Y-35871036D01*
X26630287Y-35861339D01*
X26694520Y-35831783D01*
X26771869Y-35821748D01*
X26849932Y-35831860D01*
X26892392Y-35848082D01*
X26936429Y-35874981D01*
X26968940Y-35907602D01*
X26991556Y-35950886D01*
X27005909Y-36009772D01*
X27013629Y-36089201D01*
X27016348Y-36194113D01*
X27016438Y-36223687D01*
X27278375Y-36223687D01*
X27278375Y-35596625D01*
X27024375Y-35596625D01*
X27024375Y-35663095D01*
X27024376Y-35729565D01*
X26980719Y-35687928D01*
X26897794Y-35629640D01*
X26799457Y-35593933D01*
X26693794Y-35582038D01*
X26588889Y-35595181D01*
X26588889Y-35595181D01*
G37*
X26588889Y-35595181D02*
X26523430Y-35618432D01*
X26446468Y-35667116D01*
X26377845Y-35733966D01*
X26326165Y-35809512D01*
X26306054Y-35857719D01*
X26298200Y-35901834D01*
X26292329Y-35970773D01*
X26288428Y-36057674D01*
X26286483Y-36155675D01*
X26286481Y-36257914D01*
X26288407Y-36357527D01*
X26292249Y-36447653D01*
X26297991Y-36521429D01*
X26305620Y-36571992D01*
X26307503Y-36579160D01*
X26338095Y-36642308D01*
X26388957Y-36708292D01*
X26451363Y-36768323D01*
X26516593Y-36813612D01*
X26557905Y-36831444D01*
X26669339Y-36849218D01*
X26781646Y-36839556D01*
X26887280Y-36804137D01*
X26978692Y-36744637D01*
X26988657Y-36735670D01*
X27024375Y-36702340D01*
X27024375Y-37713534D01*
X26988657Y-37680487D01*
X26907622Y-37624308D01*
X26811872Y-37587680D01*
X26710018Y-37571934D01*
X26610672Y-37578402D01*
X26522464Y-37608405D01*
X26435222Y-37663243D01*
X26371472Y-37725382D01*
X26325545Y-37797631D01*
X26314389Y-37820186D01*
X26305528Y-37841859D01*
X26298653Y-37866528D01*
X26293454Y-37898068D01*
X26289623Y-37940357D01*
X26286852Y-37997272D01*
X26284831Y-38072688D01*
X26283253Y-38170485D01*
X26281808Y-38294537D01*
X26281172Y-38354906D01*
X26276156Y-38835125D01*
X26514071Y-38835125D01*
X26519192Y-38410468D01*
X26520848Y-38282776D01*
X26522591Y-38182799D01*
X26524756Y-38106504D01*
X26527677Y-38049858D01*
X26531686Y-38008828D01*
X26537119Y-37979379D01*
X26544308Y-37957479D01*
X26553588Y-37939094D01*
X26558935Y-37930250D01*
X26615993Y-37864661D01*
X26689241Y-37825999D01*
X26779995Y-37813581D01*
X26783516Y-37813614D01*
X26859497Y-37823402D01*
X26920336Y-37853746D01*
X26975443Y-37909667D01*
X26983707Y-37920453D01*
X26993445Y-37935055D01*
X27001106Y-37952321D01*
X27006990Y-37976119D01*
X27011399Y-38010315D01*
X27014636Y-38058776D01*
X27017002Y-38125368D01*
X27018800Y-38213959D01*
X27020331Y-38328415D01*
X27021125Y-38399691D01*
X27025811Y-38835125D01*
X27278375Y-38835125D01*
X27278375Y-36223687D01*
X27016438Y-36223687D01*
X27016073Y-36313188D01*
X27014406Y-36377344D01*
X27010574Y-36422559D01*
X27003719Y-36455235D01*
X26992979Y-36481775D01*
X26978330Y-36507239D01*
X26943221Y-36550911D01*
X26902381Y-36584678D01*
X26891017Y-36590841D01*
X26831219Y-36605969D01*
X26759497Y-36607355D01*
X26689411Y-36596058D01*
X26634523Y-36573135D01*
X26630811Y-36570552D01*
X26589311Y-36533369D01*
X26559571Y-36488208D01*
X26539951Y-36429607D01*
X26528812Y-36352102D01*
X26524514Y-36250230D01*
X26524313Y-36215750D01*
X26526963Y-36105787D01*
X26535997Y-36021775D01*
X26553042Y-35958273D01*
X26579725Y-35909840D01*
X26617673Y-35871036D01*
X26630287Y-35861339D01*
X26694520Y-35831783D01*
X26771869Y-35821748D01*
X26849932Y-35831860D01*
X26892392Y-35848082D01*
X26936429Y-35874981D01*
X26968940Y-35907602D01*
X26991556Y-35950886D01*
X27005909Y-36009772D01*
X27013629Y-36089201D01*
X27016348Y-36194113D01*
X27016438Y-36223687D01*
X27278375Y-36223687D01*
X27278375Y-35596625D01*
X27024375Y-35596625D01*
X27024375Y-35663095D01*
X27024376Y-35729565D01*
X26980719Y-35687928D01*
X26897794Y-35629640D01*
X26799457Y-35593933D01*
X26693794Y-35582038D01*
X26588889Y-35595181D01*
G36*
X24130473Y-37579375D02*
X24043844Y-37609487D01*
X24004311Y-37633696D01*
X23980030Y-37654954D01*
X23976375Y-37662510D01*
X23986157Y-37682063D01*
X24012052Y-37718083D01*
X24048884Y-37763484D01*
X24057079Y-37773033D01*
X24137783Y-37866191D01*
X24188048Y-37839911D01*
X24252696Y-37819796D01*
X24328085Y-37816135D01*
X24399446Y-37828707D01*
X24433627Y-37843617D01*
X24472879Y-37876431D01*
X24508902Y-37921477D01*
X24514629Y-37930981D01*
X24524645Y-37950381D01*
X24532423Y-37971341D01*
X24538244Y-37997944D01*
X24542390Y-38034270D01*
X24545143Y-38084401D01*
X24546785Y-38152417D01*
X24547597Y-38242400D01*
X24547860Y-38358431D01*
X24547875Y-38412630D01*
X24547875Y-38835125D01*
X24801875Y-38835125D01*
X24801875Y-37581000D01*
X24547875Y-37581000D01*
X24547875Y-37713534D01*
X24512157Y-37680487D01*
X24430168Y-37623682D01*
X24333536Y-37587033D01*
X24230794Y-37571833D01*
X24130473Y-37579375D01*
X24130473Y-37579375D01*
G37*
X24130473Y-37579375D02*
X24043844Y-37609487D01*
X24004311Y-37633696D01*
X23980030Y-37654954D01*
X23976375Y-37662510D01*
X23986157Y-37682063D01*
X24012052Y-37718083D01*
X24048884Y-37763484D01*
X24057079Y-37773033D01*
X24137783Y-37866191D01*
X24188048Y-37839911D01*
X24252696Y-37819796D01*
X24328085Y-37816135D01*
X24399446Y-37828707D01*
X24433627Y-37843617D01*
X24472879Y-37876431D01*
X24508902Y-37921477D01*
X24514629Y-37930981D01*
X24524645Y-37950381D01*
X24532423Y-37971341D01*
X24538244Y-37997944D01*
X24542390Y-38034270D01*
X24545143Y-38084401D01*
X24546785Y-38152417D01*
X24547597Y-38242400D01*
X24547860Y-38358431D01*
X24547875Y-38412630D01*
X24547875Y-38835125D01*
X24801875Y-38835125D01*
X24801875Y-37581000D01*
X24547875Y-37581000D01*
X24547875Y-37713534D01*
X24512157Y-37680487D01*
X24430168Y-37623682D01*
X24333536Y-37587033D01*
X24230794Y-37571833D01*
X24130473Y-37579375D01*
G36*
X22669383Y-37584351D02*
X22540231Y-37588937D01*
X22422386Y-38021531D01*
X22391635Y-38133150D01*
X22363166Y-38234086D01*
X22338122Y-38320473D01*
X22317647Y-38388446D01*
X22302885Y-38434137D01*
X22294980Y-38453681D01*
X22294399Y-38454125D01*
X22287126Y-38439624D01*
X22271542Y-38398635D01*
X22248951Y-38334930D01*
X22220660Y-38252278D01*
X22187974Y-38154451D01*
X22152198Y-38045218D01*
X22143245Y-38017562D01*
X22002233Y-37581000D01*
X21822401Y-37581000D01*
X21802691Y-37648468D01*
X21782516Y-37715488D01*
X21756899Y-37797498D01*
X21727367Y-37889914D01*
X21695451Y-37988153D01*
X21662680Y-38087629D01*
X21630582Y-38183760D01*
X21600687Y-38271962D01*
X21574523Y-38347650D01*
X21553621Y-38406241D01*
X21539510Y-38443152D01*
X21533948Y-38454060D01*
X21527340Y-38439339D01*
X21513733Y-38397780D01*
X21494259Y-38333235D01*
X21470049Y-38249557D01*
X21442233Y-38150600D01*
X21411943Y-38040216D01*
X21405793Y-38017498D01*
X21287899Y-37580999D01*
X21163700Y-37581000D01*
X21105373Y-37582401D01*
X21061629Y-37586118D01*
X21040096Y-37591423D01*
X21039078Y-37592906D01*
X21043633Y-37610147D01*
X21056812Y-37654382D01*
X21077603Y-37722351D01*
X21104995Y-37810798D01*
X21137979Y-37916461D01*
X21175541Y-38036083D01*
X21216672Y-38166405D01*
X21233547Y-38219695D01*
X21428438Y-38834577D01*
X21534913Y-38834851D01*
X21641387Y-38835125D01*
X21688720Y-38680343D01*
X21709575Y-38611658D01*
X21736708Y-38521582D01*
X21767401Y-38419176D01*
X21798937Y-38313498D01*
X21818480Y-38247750D01*
X21845325Y-38158510D01*
X21869681Y-38079859D01*
X21889927Y-38016850D01*
X21904442Y-37974537D01*
X21911399Y-37958161D01*
X21916865Y-37964058D01*
X21927512Y-37989499D01*
X21943792Y-38035926D01*
X21966159Y-38104779D01*
X21995062Y-38197498D01*
X22030954Y-38315525D01*
X22074287Y-38460300D01*
X22125513Y-38633264D01*
X22162735Y-38759718D01*
X22184889Y-38835125D01*
X22398643Y-38835125D01*
X22521169Y-38450156D01*
X22560223Y-38327474D01*
X22601250Y-38198638D01*
X22641633Y-38071856D01*
X22678758Y-37955338D01*
X22710011Y-37857294D01*
X22721115Y-37822476D01*
X22798534Y-37579765D01*
X22669383Y-37584351D01*
X22669383Y-37584351D01*
G37*
X22669383Y-37584351D02*
X22540231Y-37588937D01*
X22422386Y-38021531D01*
X22391635Y-38133150D01*
X22363166Y-38234086D01*
X22338122Y-38320473D01*
X22317647Y-38388446D01*
X22302885Y-38434137D01*
X22294980Y-38453681D01*
X22294399Y-38454125D01*
X22287126Y-38439624D01*
X22271542Y-38398635D01*
X22248951Y-38334930D01*
X22220660Y-38252278D01*
X22187974Y-38154451D01*
X22152198Y-38045218D01*
X22143245Y-38017562D01*
X22002233Y-37581000D01*
X21822401Y-37581000D01*
X21802691Y-37648468D01*
X21782516Y-37715488D01*
X21756899Y-37797498D01*
X21727367Y-37889914D01*
X21695451Y-37988153D01*
X21662680Y-38087629D01*
X21630582Y-38183760D01*
X21600687Y-38271962D01*
X21574523Y-38347650D01*
X21553621Y-38406241D01*
X21539510Y-38443152D01*
X21533948Y-38454060D01*
X21527340Y-38439339D01*
X21513733Y-38397780D01*
X21494259Y-38333235D01*
X21470049Y-38249557D01*
X21442233Y-38150600D01*
X21411943Y-38040216D01*
X21405793Y-38017498D01*
X21287899Y-37580999D01*
X21163700Y-37581000D01*
X21105373Y-37582401D01*
X21061629Y-37586118D01*
X21040096Y-37591423D01*
X21039078Y-37592906D01*
X21043633Y-37610147D01*
X21056812Y-37654382D01*
X21077603Y-37722351D01*
X21104995Y-37810798D01*
X21137979Y-37916461D01*
X21175541Y-38036083D01*
X21216672Y-38166405D01*
X21233547Y-38219695D01*
X21428438Y-38834577D01*
X21534913Y-38834851D01*
X21641387Y-38835125D01*
X21688720Y-38680343D01*
X21709575Y-38611658D01*
X21736708Y-38521582D01*
X21767401Y-38419176D01*
X21798937Y-38313498D01*
X21818480Y-38247750D01*
X21845325Y-38158510D01*
X21869681Y-38079859D01*
X21889927Y-38016850D01*
X21904442Y-37974537D01*
X21911399Y-37958161D01*
X21916865Y-37964058D01*
X21927512Y-37989499D01*
X21943792Y-38035926D01*
X21966159Y-38104779D01*
X21995062Y-38197498D01*
X22030954Y-38315525D01*
X22074287Y-38460300D01*
X22125513Y-38633264D01*
X22162735Y-38759718D01*
X22184889Y-38835125D01*
X22398643Y-38835125D01*
X22521169Y-38450156D01*
X22560223Y-38327474D01*
X22601250Y-38198638D01*
X22641633Y-38071856D01*
X22678758Y-37955338D01*
X22710011Y-37857294D01*
X22721115Y-37822476D01*
X22798534Y-37579765D01*
X22669383Y-37584351D01*
G36*
X19074455Y-37570607D02*
X19024518Y-37584596D01*
X18970835Y-37603405D01*
X18923551Y-37623348D01*
X18892809Y-37640738D01*
X18887379Y-37646213D01*
X18887914Y-37662865D01*
X18904323Y-37692977D01*
X18938592Y-37739493D01*
X18992711Y-37805358D01*
X19003041Y-37817533D01*
X19048988Y-37871503D01*
X19093617Y-37842261D01*
X19161751Y-37815289D01*
X19237866Y-37813254D01*
X19313518Y-37833916D01*
X19380269Y-37875038D01*
X19427626Y-37930811D01*
X19437389Y-37949364D01*
X19445052Y-37970547D01*
X19450931Y-37998388D01*
X19455336Y-38036915D01*
X19458580Y-38090157D01*
X19460977Y-38162141D01*
X19462838Y-38256897D01*
X19464477Y-38378451D01*
X19464854Y-38410468D01*
X19469769Y-38835125D01*
X19706000Y-38835125D01*
X19706000Y-37581000D01*
X19467875Y-37581000D01*
X19467875Y-37644500D01*
X19466144Y-37684282D01*
X19461818Y-37706392D01*
X19460075Y-37708000D01*
X19444212Y-37699145D01*
X19411444Y-37676295D01*
X19381406Y-37653904D01*
X19302660Y-37608756D01*
X19208741Y-37577500D01*
X19114963Y-37565155D01*
X19110502Y-37565124D01*
X19074455Y-37570607D01*
X19074455Y-37570607D01*
G37*
X19074455Y-37570607D02*
X19024518Y-37584596D01*
X18970835Y-37603405D01*
X18923551Y-37623348D01*
X18892809Y-37640738D01*
X18887379Y-37646213D01*
X18887914Y-37662865D01*
X18904323Y-37692977D01*
X18938592Y-37739493D01*
X18992711Y-37805358D01*
X19003041Y-37817533D01*
X19048988Y-37871503D01*
X19093617Y-37842261D01*
X19161751Y-37815289D01*
X19237866Y-37813254D01*
X19313518Y-37833916D01*
X19380269Y-37875038D01*
X19427626Y-37930811D01*
X19437389Y-37949364D01*
X19445052Y-37970547D01*
X19450931Y-37998388D01*
X19455336Y-38036915D01*
X19458580Y-38090157D01*
X19460977Y-38162141D01*
X19462838Y-38256897D01*
X19464477Y-38378451D01*
X19464854Y-38410468D01*
X19469769Y-38835125D01*
X19706000Y-38835125D01*
X19706000Y-37581000D01*
X19467875Y-37581000D01*
X19467875Y-37644500D01*
X19466144Y-37684282D01*
X19461818Y-37706392D01*
X19460075Y-37708000D01*
X19444212Y-37699145D01*
X19411444Y-37676295D01*
X19381406Y-37653904D01*
X19302660Y-37608756D01*
X19208741Y-37577500D01*
X19114963Y-37565155D01*
X19110502Y-37565124D01*
X19074455Y-37570607D01*
G36*
X27908052Y-35591590D02*
X27799811Y-35626495D01*
X27700319Y-35686030D01*
X27649581Y-35731066D01*
X27600249Y-35786029D01*
X27563607Y-35840287D01*
X27537896Y-35899884D01*
X27521358Y-35970864D01*
X27512234Y-36059271D01*
X27508766Y-36171152D01*
X27508563Y-36215750D01*
X27510505Y-36337016D01*
X27517502Y-36432749D01*
X27531314Y-36508993D01*
X27553699Y-36571792D01*
X27586416Y-36627191D01*
X27631223Y-36681235D01*
X27649581Y-36700433D01*
X27745371Y-36776190D01*
X27856256Y-36826608D01*
X27976494Y-36850300D01*
X28100342Y-36845883D01*
X28178104Y-36827898D01*
X28288932Y-36777542D01*
X28382016Y-36702962D01*
X28453193Y-36607901D01*
X28477265Y-36558728D01*
X28499316Y-36482769D01*
X28513699Y-36384704D01*
X28520501Y-36273190D01*
X28520043Y-36196088D01*
X28280008Y-36196088D01*
X28278292Y-36289477D01*
X28270242Y-36375058D01*
X28255838Y-36443134D01*
X28248252Y-36463383D01*
X28200376Y-36533860D01*
X28132296Y-36588076D01*
X28103875Y-36602024D01*
X28058814Y-36609728D01*
X27998019Y-36607190D01*
X27935114Y-36596263D01*
X27883722Y-36578798D01*
X27869061Y-36570117D01*
X27806941Y-36509243D01*
X27766945Y-36432664D01*
X27746085Y-36334609D01*
X27745812Y-36332099D01*
X27740825Y-36245843D01*
X27742739Y-36155844D01*
X27750744Y-36071360D01*
X27764034Y-36001650D01*
X27778092Y-35962418D01*
X27828734Y-35894569D01*
X27894859Y-35848889D01*
X27970249Y-35825328D01*
X28048683Y-35823840D01*
X28123942Y-35844377D01*
X28189807Y-35886889D01*
X28240056Y-35951329D01*
X28247325Y-35966046D01*
X28264506Y-36024675D01*
X28275407Y-36104588D01*
X28280008Y-36196088D01*
X28520043Y-36196088D01*
X28519809Y-36156881D01*
X28511710Y-36044432D01*
X28496291Y-35944499D01*
X28473640Y-35865738D01*
X28470212Y-35857604D01*
X28411109Y-35760399D01*
X28331717Y-35683347D01*
X28236875Y-35627194D01*
X28131424Y-35592686D01*
X28020203Y-35580569D01*
X27908052Y-35591590D01*
X27908052Y-35591590D01*
G37*
X27908052Y-35591590D02*
X27799811Y-35626495D01*
X27700319Y-35686030D01*
X27649581Y-35731066D01*
X27600249Y-35786029D01*
X27563607Y-35840287D01*
X27537896Y-35899884D01*
X27521358Y-35970864D01*
X27512234Y-36059271D01*
X27508766Y-36171152D01*
X27508563Y-36215750D01*
X27510505Y-36337016D01*
X27517502Y-36432749D01*
X27531314Y-36508993D01*
X27553699Y-36571792D01*
X27586416Y-36627191D01*
X27631223Y-36681235D01*
X27649581Y-36700433D01*
X27745371Y-36776190D01*
X27856256Y-36826608D01*
X27976494Y-36850300D01*
X28100342Y-36845883D01*
X28178104Y-36827898D01*
X28288932Y-36777542D01*
X28382016Y-36702962D01*
X28453193Y-36607901D01*
X28477265Y-36558728D01*
X28499316Y-36482769D01*
X28513699Y-36384704D01*
X28520501Y-36273190D01*
X28520043Y-36196088D01*
X28280008Y-36196088D01*
X28278292Y-36289477D01*
X28270242Y-36375058D01*
X28255838Y-36443134D01*
X28248252Y-36463383D01*
X28200376Y-36533860D01*
X28132296Y-36588076D01*
X28103875Y-36602024D01*
X28058814Y-36609728D01*
X27998019Y-36607190D01*
X27935114Y-36596263D01*
X27883722Y-36578798D01*
X27869061Y-36570117D01*
X27806941Y-36509243D01*
X27766945Y-36432664D01*
X27746085Y-36334609D01*
X27745812Y-36332099D01*
X27740825Y-36245843D01*
X27742739Y-36155844D01*
X27750744Y-36071360D01*
X27764034Y-36001650D01*
X27778092Y-35962418D01*
X27828734Y-35894569D01*
X27894859Y-35848889D01*
X27970249Y-35825328D01*
X28048683Y-35823840D01*
X28123942Y-35844377D01*
X28189807Y-35886889D01*
X28240056Y-35951329D01*
X28247325Y-35966046D01*
X28264506Y-36024675D01*
X28275407Y-36104588D01*
X28280008Y-36196088D01*
X28520043Y-36196088D01*
X28519809Y-36156881D01*
X28511710Y-36044432D01*
X28496291Y-35944499D01*
X28473640Y-35865738D01*
X28470212Y-35857604D01*
X28411109Y-35760399D01*
X28331717Y-35683347D01*
X28236875Y-35627194D01*
X28131424Y-35592686D01*
X28020203Y-35580569D01*
X27908052Y-35591590D01*
G36*
X25485569Y-35590028D02*
X25373292Y-35623139D01*
X25270093Y-35685429D01*
X25233424Y-35716073D01*
X25173231Y-35778176D01*
X25129872Y-35844102D01*
X25100748Y-35920676D01*
X25083261Y-36014723D01*
X25074832Y-36132406D01*
X25068324Y-36311000D01*
X25849625Y-36311000D01*
X25849277Y-36354656D01*
X25842415Y-36396837D01*
X25825738Y-36448403D01*
X25819521Y-36463060D01*
X25769447Y-36539139D01*
X25701524Y-36591628D01*
X25619705Y-36620024D01*
X25527939Y-36623821D01*
X25430177Y-36602515D01*
X25330371Y-36555600D01*
X25292028Y-36530455D01*
X25273623Y-36523949D01*
X25249642Y-36531840D01*
X25213486Y-36557225D01*
X25184872Y-36580731D01*
X25143684Y-36617195D01*
X25114416Y-36646414D01*
X25103500Y-36661861D01*
X25116518Y-36680610D01*
X25150739Y-36708844D01*
X25198918Y-36741952D01*
X25253809Y-36775324D01*
X25308167Y-36804347D01*
X25354745Y-36824413D01*
X25363330Y-36827197D01*
X25458331Y-36845216D01*
X25565119Y-36849306D01*
X25669655Y-36839739D01*
X25750123Y-36819710D01*
X25860000Y-36766629D01*
X25947476Y-36693908D01*
X26013228Y-36600357D01*
X26057934Y-36484783D01*
X26082270Y-36345996D01*
X26087562Y-36225984D01*
X26076972Y-36062866D01*
X26076225Y-36059496D01*
X25849625Y-36059496D01*
X25849625Y-36104625D01*
X25579750Y-36104625D01*
X25475689Y-36104049D01*
X25400029Y-36102161D01*
X25349440Y-36098714D01*
X25320590Y-36093464D01*
X25310149Y-36086165D01*
X25309964Y-36084781D01*
X25319708Y-36027990D01*
X25344330Y-35963238D01*
X25377552Y-35906237D01*
X25385151Y-35896584D01*
X25452936Y-35838285D01*
X25531657Y-35808594D01*
X25616985Y-35808275D01*
X25704594Y-35838096D01*
X25707385Y-35839555D01*
X25766866Y-35885021D01*
X25814648Y-35947658D01*
X25843855Y-36016838D01*
X25849625Y-36059496D01*
X26076225Y-36059496D01*
X26045867Y-35922674D01*
X25994633Y-35805929D01*
X25923654Y-35713149D01*
X25833316Y-35644852D01*
X25724004Y-35601560D01*
X25611500Y-35584504D01*
X25485569Y-35590028D01*
X25485569Y-35590028D01*
G37*
X25485569Y-35590028D02*
X25373292Y-35623139D01*
X25270093Y-35685429D01*
X25233424Y-35716073D01*
X25173231Y-35778176D01*
X25129872Y-35844102D01*
X25100748Y-35920676D01*
X25083261Y-36014723D01*
X25074832Y-36132406D01*
X25068324Y-36311000D01*
X25849625Y-36311000D01*
X25849277Y-36354656D01*
X25842415Y-36396837D01*
X25825738Y-36448403D01*
X25819521Y-36463060D01*
X25769447Y-36539139D01*
X25701524Y-36591628D01*
X25619705Y-36620024D01*
X25527939Y-36623821D01*
X25430177Y-36602515D01*
X25330371Y-36555600D01*
X25292028Y-36530455D01*
X25273623Y-36523949D01*
X25249642Y-36531840D01*
X25213486Y-36557225D01*
X25184872Y-36580731D01*
X25143684Y-36617195D01*
X25114416Y-36646414D01*
X25103500Y-36661861D01*
X25116518Y-36680610D01*
X25150739Y-36708844D01*
X25198918Y-36741952D01*
X25253809Y-36775324D01*
X25308167Y-36804347D01*
X25354745Y-36824413D01*
X25363330Y-36827197D01*
X25458331Y-36845216D01*
X25565119Y-36849306D01*
X25669655Y-36839739D01*
X25750123Y-36819710D01*
X25860000Y-36766629D01*
X25947476Y-36693908D01*
X26013228Y-36600357D01*
X26057934Y-36484783D01*
X26082270Y-36345996D01*
X26087562Y-36225984D01*
X26076972Y-36062866D01*
X26076225Y-36059496D01*
X25849625Y-36059496D01*
X25849625Y-36104625D01*
X25579750Y-36104625D01*
X25475689Y-36104049D01*
X25400029Y-36102161D01*
X25349440Y-36098714D01*
X25320590Y-36093464D01*
X25310149Y-36086165D01*
X25309964Y-36084781D01*
X25319708Y-36027990D01*
X25344330Y-35963238D01*
X25377552Y-35906237D01*
X25385151Y-35896584D01*
X25452936Y-35838285D01*
X25531657Y-35808594D01*
X25616985Y-35808275D01*
X25704594Y-35838096D01*
X25707385Y-35839555D01*
X25766866Y-35885021D01*
X25814648Y-35947658D01*
X25843855Y-36016838D01*
X25849625Y-36059496D01*
X26076225Y-36059496D01*
X26045867Y-35922674D01*
X25994633Y-35805929D01*
X25923654Y-35713149D01*
X25833316Y-35644852D01*
X25724004Y-35601560D01*
X25611500Y-35584504D01*
X25485569Y-35590028D01*
G36*
X22477959Y-35589260D02*
X22337254Y-35621750D01*
X22207881Y-35682537D01*
X22193250Y-35691599D01*
X22116687Y-35740267D01*
X22182782Y-35819210D01*
X22218781Y-35861147D01*
X22247455Y-35892630D01*
X22261568Y-35905997D01*
X22281590Y-35903418D01*
X22318615Y-35888148D01*
X22343474Y-35875209D01*
X22432261Y-35835509D01*
X22521837Y-35812823D01*
X22607463Y-35806413D01*
X22684401Y-35815539D01*
X22747910Y-35839461D01*
X22793253Y-35877441D01*
X22815689Y-35928739D01*
X22817257Y-35949122D01*
X22813259Y-35991416D01*
X22799006Y-36023678D01*
X22770447Y-36047952D01*
X22723526Y-36066281D01*
X22654191Y-36080706D01*
X22558388Y-36093270D01*
X22523817Y-36096989D01*
X22398520Y-36114551D01*
X22300453Y-36139635D01*
X22225514Y-36174635D01*
X22169598Y-36221944D01*
X22128604Y-36283957D01*
X22105318Y-36341150D01*
X22085406Y-36445958D01*
X22095573Y-36546023D01*
X22134174Y-36637890D01*
X22199565Y-36718103D01*
X22290101Y-36783207D01*
X22323837Y-36800158D01*
X22408725Y-36827657D01*
X22512082Y-36844044D01*
X22622449Y-36848817D01*
X22728371Y-36841472D01*
X22817500Y-36821807D01*
X22956017Y-36765229D01*
X23070419Y-36695545D01*
X23090395Y-36680192D01*
X23148977Y-36633478D01*
X23064631Y-36550179D01*
X22980284Y-36466880D01*
X22906190Y-36523438D01*
X22826341Y-36573923D01*
X22741061Y-36604660D01*
X22640685Y-36618581D01*
X22587313Y-36620143D01*
X22495812Y-36614269D01*
X22427339Y-36594215D01*
X22375417Y-36557523D01*
X22352905Y-36531183D01*
X22331848Y-36479273D01*
X22336490Y-36424400D01*
X22364967Y-36377828D01*
X22380358Y-36365482D01*
X22411425Y-36353856D01*
X22467544Y-36341246D01*
X22542095Y-36328942D01*
X22615249Y-36319664D01*
X22733761Y-36303643D01*
X22821670Y-36285274D01*
X22876681Y-36265578D01*
X22959301Y-36207742D01*
X23018208Y-36134079D01*
X23053586Y-36049666D01*
X23065619Y-35959582D01*
X23054490Y-35868904D01*
X23020382Y-35782711D01*
X22963479Y-35706081D01*
X22883964Y-35644092D01*
X22853653Y-35628120D01*
X22793904Y-35606059D01*
X22721047Y-35591990D01*
X22632702Y-35584408D01*
X22477959Y-35589260D01*
X22477959Y-35589260D01*
G37*
X22477959Y-35589260D02*
X22337254Y-35621750D01*
X22207881Y-35682537D01*
X22193250Y-35691599D01*
X22116687Y-35740267D01*
X22182782Y-35819210D01*
X22218781Y-35861147D01*
X22247455Y-35892630D01*
X22261568Y-35905997D01*
X22281590Y-35903418D01*
X22318615Y-35888148D01*
X22343474Y-35875209D01*
X22432261Y-35835509D01*
X22521837Y-35812823D01*
X22607463Y-35806413D01*
X22684401Y-35815539D01*
X22747910Y-35839461D01*
X22793253Y-35877441D01*
X22815689Y-35928739D01*
X22817257Y-35949122D01*
X22813259Y-35991416D01*
X22799006Y-36023678D01*
X22770447Y-36047952D01*
X22723526Y-36066281D01*
X22654191Y-36080706D01*
X22558388Y-36093270D01*
X22523817Y-36096989D01*
X22398520Y-36114551D01*
X22300453Y-36139635D01*
X22225514Y-36174635D01*
X22169598Y-36221944D01*
X22128604Y-36283957D01*
X22105318Y-36341150D01*
X22085406Y-36445958D01*
X22095573Y-36546023D01*
X22134174Y-36637890D01*
X22199565Y-36718103D01*
X22290101Y-36783207D01*
X22323837Y-36800158D01*
X22408725Y-36827657D01*
X22512082Y-36844044D01*
X22622449Y-36848817D01*
X22728371Y-36841472D01*
X22817500Y-36821807D01*
X22956017Y-36765229D01*
X23070419Y-36695545D01*
X23090395Y-36680192D01*
X23148977Y-36633478D01*
X23064631Y-36550179D01*
X22980284Y-36466880D01*
X22906190Y-36523438D01*
X22826341Y-36573923D01*
X22741061Y-36604660D01*
X22640685Y-36618581D01*
X22587313Y-36620143D01*
X22495812Y-36614269D01*
X22427339Y-36594215D01*
X22375417Y-36557523D01*
X22352905Y-36531183D01*
X22331848Y-36479273D01*
X22336490Y-36424400D01*
X22364967Y-36377828D01*
X22380358Y-36365482D01*
X22411425Y-36353856D01*
X22467544Y-36341246D01*
X22542095Y-36328942D01*
X22615249Y-36319664D01*
X22733761Y-36303643D01*
X22821670Y-36285274D01*
X22876681Y-36265578D01*
X22959301Y-36207742D01*
X23018208Y-36134079D01*
X23053586Y-36049666D01*
X23065619Y-35959582D01*
X23054490Y-35868904D01*
X23020382Y-35782711D01*
X22963479Y-35706081D01*
X22883964Y-35644092D01*
X22853653Y-35628120D01*
X22793904Y-35606059D01*
X22721047Y-35591990D01*
X22632702Y-35584408D01*
X22477959Y-35589260D01*
G36*
X21250591Y-35605073D02*
X21149092Y-35649342D01*
X21060290Y-35715015D01*
X20989012Y-35801342D01*
X20958395Y-35858777D01*
X20936040Y-35930925D01*
X20920373Y-36025639D01*
X20911472Y-36134429D01*
X20909415Y-36248805D01*
X20914281Y-36360277D01*
X20926148Y-36460358D01*
X20945096Y-36540557D01*
X20951918Y-36558864D01*
X21007525Y-36654361D01*
X21085985Y-36737115D01*
X21176865Y-36797070D01*
X21273232Y-36830371D01*
X21384079Y-36846722D01*
X21496550Y-36845322D01*
X21597790Y-36825371D01*
X21603063Y-36823623D01*
X21679039Y-36785478D01*
X21758835Y-36720450D01*
X21771177Y-36708420D01*
X21822912Y-36652719D01*
X21861431Y-36598729D01*
X21888575Y-36540381D01*
X21906184Y-36471607D01*
X21916097Y-36386338D01*
X21920155Y-36278508D01*
X21920563Y-36215750D01*
X21919676Y-36160324D01*
X21688936Y-36160324D01*
X21688387Y-36244847D01*
X21682588Y-36328144D01*
X21672266Y-36400905D01*
X21658150Y-36453823D01*
X21653865Y-36463343D01*
X21599540Y-36537060D01*
X21529050Y-36586580D01*
X21448148Y-36610136D01*
X21362588Y-36605958D01*
X21285563Y-36576579D01*
X21233263Y-36539671D01*
X21195516Y-36492952D01*
X21170443Y-36431395D01*
X21156163Y-36349971D01*
X21150797Y-36243654D01*
X21150625Y-36215749D01*
X21153967Y-36104271D01*
X21165334Y-36018865D01*
X21186740Y-35954428D01*
X21220197Y-35905855D01*
X21267719Y-35868045D01*
X21293500Y-35853555D01*
X21380224Y-35824273D01*
X21463697Y-35824244D01*
X21539719Y-35850987D01*
X21604084Y-35902018D01*
X21652592Y-35974858D01*
X21681038Y-36067022D01*
X21683509Y-36083883D01*
X21688936Y-36160324D01*
X21919676Y-36160324D01*
X21918621Y-36094483D01*
X21911624Y-35998750D01*
X21897812Y-35922506D01*
X21875427Y-35859707D01*
X21842710Y-35804308D01*
X21797903Y-35750264D01*
X21779545Y-35731066D01*
X21686987Y-35657052D01*
X21582984Y-35608197D01*
X21472365Y-35583749D01*
X21359958Y-35582958D01*
X21250591Y-35605073D01*
X21250591Y-35605073D01*
G37*
X21250591Y-35605073D02*
X21149092Y-35649342D01*
X21060290Y-35715015D01*
X20989012Y-35801342D01*
X20958395Y-35858777D01*
X20936040Y-35930925D01*
X20920373Y-36025639D01*
X20911472Y-36134429D01*
X20909415Y-36248805D01*
X20914281Y-36360277D01*
X20926148Y-36460358D01*
X20945096Y-36540557D01*
X20951918Y-36558864D01*
X21007525Y-36654361D01*
X21085985Y-36737115D01*
X21176865Y-36797070D01*
X21273232Y-36830371D01*
X21384079Y-36846722D01*
X21496550Y-36845322D01*
X21597790Y-36825371D01*
X21603063Y-36823623D01*
X21679039Y-36785478D01*
X21758835Y-36720450D01*
X21771177Y-36708420D01*
X21822912Y-36652719D01*
X21861431Y-36598729D01*
X21888575Y-36540381D01*
X21906184Y-36471607D01*
X21916097Y-36386338D01*
X21920155Y-36278508D01*
X21920563Y-36215750D01*
X21919676Y-36160324D01*
X21688936Y-36160324D01*
X21688387Y-36244847D01*
X21682588Y-36328144D01*
X21672266Y-36400905D01*
X21658150Y-36453823D01*
X21653865Y-36463343D01*
X21599540Y-36537060D01*
X21529050Y-36586580D01*
X21448148Y-36610136D01*
X21362588Y-36605958D01*
X21285563Y-36576579D01*
X21233263Y-36539671D01*
X21195516Y-36492952D01*
X21170443Y-36431395D01*
X21156163Y-36349971D01*
X21150797Y-36243654D01*
X21150625Y-36215749D01*
X21153967Y-36104271D01*
X21165334Y-36018865D01*
X21186740Y-35954428D01*
X21220197Y-35905855D01*
X21267719Y-35868045D01*
X21293500Y-35853555D01*
X21380224Y-35824273D01*
X21463697Y-35824244D01*
X21539719Y-35850987D01*
X21604084Y-35902018D01*
X21652592Y-35974858D01*
X21681038Y-36067022D01*
X21683509Y-36083883D01*
X21688936Y-36160324D01*
X21919676Y-36160324D01*
X21918621Y-36094483D01*
X21911624Y-35998750D01*
X21897812Y-35922506D01*
X21875427Y-35859707D01*
X21842710Y-35804308D01*
X21797903Y-35750264D01*
X21779545Y-35731066D01*
X21686987Y-35657052D01*
X21582984Y-35608197D01*
X21472365Y-35583749D01*
X21359958Y-35582958D01*
X21250591Y-35605073D01*
G36*
X20433243Y-36013343D02*
X20431579Y-36140458D01*
X20429742Y-36239887D01*
X20427417Y-36315692D01*
X20424285Y-36371937D01*
X20420032Y-36412686D01*
X20414339Y-36442002D01*
X20406891Y-36463948D01*
X20397370Y-36482587D01*
X20396563Y-36483965D01*
X20339186Y-36553765D01*
X20267242Y-36596316D01*
X20184294Y-36610435D01*
X20093908Y-36594937D01*
X20078805Y-36589557D01*
X20020625Y-36558613D01*
X19978353Y-36511731D01*
X19967809Y-36494774D01*
X19955866Y-36473746D01*
X19946606Y-36453610D01*
X19939690Y-36430197D01*
X19934774Y-36399337D01*
X19931517Y-36356861D01*
X19929578Y-36298599D01*
X19928615Y-36220381D01*
X19928286Y-36118040D01*
X19928250Y-36011949D01*
X19928250Y-35596625D01*
X19674250Y-35596625D01*
X19674250Y-36834875D01*
X19928250Y-36834875D01*
X19928250Y-36701934D01*
X19971907Y-36743656D01*
X20055940Y-36803055D01*
X20154874Y-36839021D01*
X20260958Y-36850369D01*
X20366441Y-36835916D01*
X20428313Y-36813398D01*
X20487927Y-36777950D01*
X20546194Y-36731497D01*
X20566323Y-36711312D01*
X20595494Y-36676637D01*
X20618931Y-36641583D01*
X20637252Y-36602299D01*
X20651077Y-36554937D01*
X20661022Y-36495647D01*
X20667705Y-36420579D01*
X20671746Y-36325884D01*
X20673760Y-36207713D01*
X20674368Y-36062215D01*
X20674375Y-36038243D01*
X20674375Y-35596625D01*
X20556274Y-35596624D01*
X20438173Y-35596624D01*
X20433243Y-36013343D01*
X20433243Y-36013343D01*
G37*
X20433243Y-36013343D02*
X20431579Y-36140458D01*
X20429742Y-36239887D01*
X20427417Y-36315692D01*
X20424285Y-36371937D01*
X20420032Y-36412686D01*
X20414339Y-36442002D01*
X20406891Y-36463948D01*
X20397370Y-36482587D01*
X20396563Y-36483965D01*
X20339186Y-36553765D01*
X20267242Y-36596316D01*
X20184294Y-36610435D01*
X20093908Y-36594937D01*
X20078805Y-36589557D01*
X20020625Y-36558613D01*
X19978353Y-36511731D01*
X19967809Y-36494774D01*
X19955866Y-36473746D01*
X19946606Y-36453610D01*
X19939690Y-36430197D01*
X19934774Y-36399337D01*
X19931517Y-36356861D01*
X19929578Y-36298599D01*
X19928615Y-36220381D01*
X19928286Y-36118040D01*
X19928250Y-36011949D01*
X19928250Y-35596625D01*
X19674250Y-35596625D01*
X19674250Y-36834875D01*
X19928250Y-36834875D01*
X19928250Y-36701934D01*
X19971907Y-36743656D01*
X20055940Y-36803055D01*
X20154874Y-36839021D01*
X20260958Y-36850369D01*
X20366441Y-36835916D01*
X20428313Y-36813398D01*
X20487927Y-36777950D01*
X20546194Y-36731497D01*
X20566323Y-36711312D01*
X20595494Y-36676637D01*
X20618931Y-36641583D01*
X20637252Y-36602299D01*
X20651077Y-36554937D01*
X20661022Y-36495647D01*
X20667705Y-36420579D01*
X20671746Y-36325884D01*
X20673760Y-36207713D01*
X20674368Y-36062215D01*
X20674375Y-36038243D01*
X20674375Y-35596625D01*
X20556274Y-35596624D01*
X20438173Y-35596624D01*
X20433243Y-36013343D01*
G36*
X17919839Y-35588230D02*
X17804093Y-35618787D01*
X17696374Y-35677832D01*
X17616565Y-35743101D01*
X17567067Y-35789291D01*
X17652634Y-35870217D01*
X17738202Y-35951143D01*
X17781507Y-35909663D01*
X17859165Y-35854362D01*
X17944905Y-35825021D01*
X18033113Y-35820325D01*
X18118176Y-35838959D01*
X18194480Y-35879608D01*
X18256411Y-35940957D01*
X18298355Y-36021691D01*
X18301436Y-36031458D01*
X18320593Y-36127520D01*
X18324909Y-36229137D01*
X18315454Y-36328550D01*
X18293295Y-36418000D01*
X18259503Y-36489726D01*
X18233967Y-36521142D01*
X18154232Y-36577045D01*
X18063916Y-36606379D01*
X17969669Y-36609133D01*
X17878136Y-36585297D01*
X17795968Y-36534862D01*
X17781507Y-36521836D01*
X17738202Y-36480356D01*
X17652682Y-36561237D01*
X17567163Y-36642117D01*
X17624550Y-36697738D01*
X17719796Y-36772080D01*
X17826772Y-36819999D01*
X17950391Y-36843481D01*
X17991500Y-36846059D01*
X18072489Y-36846767D01*
X18133331Y-36840879D01*
X18185189Y-36827065D01*
X18200840Y-36821105D01*
X18319093Y-36761651D01*
X18412477Y-36687586D01*
X18482376Y-36596579D01*
X18530174Y-36486300D01*
X18557254Y-36354416D01*
X18565056Y-36207812D01*
X18552647Y-36054183D01*
X18517036Y-35919908D01*
X18459273Y-35806257D01*
X18380410Y-35714498D01*
X18281498Y-35645902D01*
X18163588Y-35601737D01*
X18048633Y-35584316D01*
X17919839Y-35588230D01*
X17919839Y-35588230D01*
G37*
X17919839Y-35588230D02*
X17804093Y-35618787D01*
X17696374Y-35677832D01*
X17616565Y-35743101D01*
X17567067Y-35789291D01*
X17652634Y-35870217D01*
X17738202Y-35951143D01*
X17781507Y-35909663D01*
X17859165Y-35854362D01*
X17944905Y-35825021D01*
X18033113Y-35820325D01*
X18118176Y-35838959D01*
X18194480Y-35879608D01*
X18256411Y-35940957D01*
X18298355Y-36021691D01*
X18301436Y-36031458D01*
X18320593Y-36127520D01*
X18324909Y-36229137D01*
X18315454Y-36328550D01*
X18293295Y-36418000D01*
X18259503Y-36489726D01*
X18233967Y-36521142D01*
X18154232Y-36577045D01*
X18063916Y-36606379D01*
X17969669Y-36609133D01*
X17878136Y-36585297D01*
X17795968Y-36534862D01*
X17781507Y-36521836D01*
X17738202Y-36480356D01*
X17652682Y-36561237D01*
X17567163Y-36642117D01*
X17624550Y-36697738D01*
X17719796Y-36772080D01*
X17826772Y-36819999D01*
X17950391Y-36843481D01*
X17991500Y-36846059D01*
X18072489Y-36846767D01*
X18133331Y-36840879D01*
X18185189Y-36827065D01*
X18200840Y-36821105D01*
X18319093Y-36761651D01*
X18412477Y-36687586D01*
X18482376Y-36596579D01*
X18530174Y-36486300D01*
X18557254Y-36354416D01*
X18565056Y-36207812D01*
X18552647Y-36054183D01*
X18517036Y-35919908D01*
X18459273Y-35806257D01*
X18380410Y-35714498D01*
X18281498Y-35645902D01*
X18163588Y-35601737D01*
X18048633Y-35584316D01*
X17919839Y-35588230D01*
G36*
X16857011Y-35594571D02*
X16747524Y-35632650D01*
X16646660Y-35695696D01*
X16595057Y-35742732D01*
X16540751Y-35811641D01*
X16501346Y-35892322D01*
X16474847Y-35990590D01*
X16459260Y-36112258D01*
X16456926Y-36145507D01*
X16446801Y-36311000D01*
X17248909Y-36311000D01*
X17237879Y-36369792D01*
X17206165Y-36466323D01*
X17153642Y-36541495D01*
X17084151Y-36593957D01*
X17001537Y-36622359D01*
X16909641Y-36625350D01*
X16812306Y-36601580D01*
X16717750Y-36552617D01*
X16658436Y-36513444D01*
X16486496Y-36652312D01*
X16534353Y-36702542D01*
X16616773Y-36767261D01*
X16721137Y-36813878D01*
X16841984Y-36840328D01*
X16912000Y-36845493D01*
X16980818Y-36845664D01*
X17043007Y-36843027D01*
X17087438Y-36838123D01*
X17094563Y-36836583D01*
X17208467Y-36791156D01*
X17306222Y-36719881D01*
X17383559Y-36626293D01*
X17412907Y-36572937D01*
X17451983Y-36461206D01*
X17473668Y-36334476D01*
X17478458Y-36200405D01*
X17470144Y-36104625D01*
X17246814Y-36104625D01*
X16701445Y-36104625D01*
X16709902Y-36041571D01*
X16734857Y-35956995D01*
X16782388Y-35886281D01*
X16847312Y-35836871D01*
X16854923Y-35833224D01*
X16945983Y-35806708D01*
X17031551Y-35809716D01*
X17107688Y-35840058D01*
X17170459Y-35895546D01*
X17215925Y-35973992D01*
X17236036Y-36045093D01*
X17246814Y-36104625D01*
X17470144Y-36104625D01*
X17466847Y-36066655D01*
X17439332Y-35940884D01*
X17396407Y-35830752D01*
X17361125Y-35772081D01*
X17282522Y-35688155D01*
X17187876Y-35628253D01*
X17082120Y-35592562D01*
X16970187Y-35581272D01*
X16857011Y-35594571D01*
X16857011Y-35594571D01*
G37*
X16857011Y-35594571D02*
X16747524Y-35632650D01*
X16646660Y-35695696D01*
X16595057Y-35742732D01*
X16540751Y-35811641D01*
X16501346Y-35892322D01*
X16474847Y-35990590D01*
X16459260Y-36112258D01*
X16456926Y-36145507D01*
X16446801Y-36311000D01*
X17248909Y-36311000D01*
X17237879Y-36369792D01*
X17206165Y-36466323D01*
X17153642Y-36541495D01*
X17084151Y-36593957D01*
X17001537Y-36622359D01*
X16909641Y-36625350D01*
X16812306Y-36601580D01*
X16717750Y-36552617D01*
X16658436Y-36513444D01*
X16486496Y-36652312D01*
X16534353Y-36702542D01*
X16616773Y-36767261D01*
X16721137Y-36813878D01*
X16841984Y-36840328D01*
X16912000Y-36845493D01*
X16980818Y-36845664D01*
X17043007Y-36843027D01*
X17087438Y-36838123D01*
X17094563Y-36836583D01*
X17208467Y-36791156D01*
X17306222Y-36719881D01*
X17383559Y-36626293D01*
X17412907Y-36572937D01*
X17451983Y-36461206D01*
X17473668Y-36334476D01*
X17478458Y-36200405D01*
X17470144Y-36104625D01*
X17246814Y-36104625D01*
X16701445Y-36104625D01*
X16709902Y-36041571D01*
X16734857Y-35956995D01*
X16782388Y-35886281D01*
X16847312Y-35836871D01*
X16854923Y-35833224D01*
X16945983Y-35806708D01*
X17031551Y-35809716D01*
X17107688Y-35840058D01*
X17170459Y-35895546D01*
X17215925Y-35973992D01*
X17236036Y-36045093D01*
X17246814Y-36104625D01*
X17470144Y-36104625D01*
X17466847Y-36066655D01*
X17439332Y-35940884D01*
X17396407Y-35830752D01*
X17361125Y-35772081D01*
X17282522Y-35688155D01*
X17187876Y-35628253D01*
X17082120Y-35592562D01*
X16970187Y-35581272D01*
X16857011Y-35594571D01*
G36*
X24207097Y-35584491D02*
X24099334Y-35616253D01*
X24093783Y-35618790D01*
X24006681Y-35670597D01*
X23940160Y-35738153D01*
X23887605Y-35826812D01*
X23876695Y-35850489D01*
X23868106Y-35873255D01*
X23861560Y-35899094D01*
X23856776Y-35931990D01*
X23853477Y-35975928D01*
X23851383Y-36034893D01*
X23850215Y-36112869D01*
X23849694Y-36213840D01*
X23849541Y-36341792D01*
X23849531Y-36370531D01*
X23849375Y-36834875D01*
X24087500Y-36834875D01*
X24087500Y-36433426D01*
X24087618Y-36309644D01*
X24088191Y-36213294D01*
X24089544Y-36140059D01*
X24092006Y-36085620D01*
X24095903Y-36045661D01*
X24101563Y-36015862D01*
X24109314Y-35991907D01*
X24119481Y-35969479D01*
X24123219Y-35962074D01*
X24168194Y-35892288D01*
X24221238Y-35849703D01*
X24289679Y-35829778D01*
X24341500Y-35826812D01*
X24420284Y-35834720D01*
X24482093Y-35861859D01*
X24536924Y-35913349D01*
X24554832Y-35936077D01*
X24564653Y-35950819D01*
X24572360Y-35968260D01*
X24578263Y-35992310D01*
X24582673Y-36026878D01*
X24585902Y-36075873D01*
X24588258Y-36143206D01*
X24590052Y-36232786D01*
X24591596Y-36348522D01*
X24592261Y-36407378D01*
X24596958Y-36834875D01*
X24833625Y-36834875D01*
X24833625Y-35596625D01*
X24595500Y-35596625D01*
X24595500Y-35723415D01*
X24523689Y-35668600D01*
X24424210Y-35611237D01*
X24317034Y-35583010D01*
X24207097Y-35584491D01*
X24207097Y-35584491D01*
G37*
X24207097Y-35584491D02*
X24099334Y-35616253D01*
X24093783Y-35618790D01*
X24006681Y-35670597D01*
X23940160Y-35738153D01*
X23887605Y-35826812D01*
X23876695Y-35850489D01*
X23868106Y-35873255D01*
X23861560Y-35899094D01*
X23856776Y-35931990D01*
X23853477Y-35975928D01*
X23851383Y-36034893D01*
X23850215Y-36112869D01*
X23849694Y-36213840D01*
X23849541Y-36341792D01*
X23849531Y-36370531D01*
X23849375Y-36834875D01*
X24087500Y-36834875D01*
X24087500Y-36433426D01*
X24087618Y-36309644D01*
X24088191Y-36213294D01*
X24089544Y-36140059D01*
X24092006Y-36085620D01*
X24095903Y-36045661D01*
X24101563Y-36015862D01*
X24109314Y-35991907D01*
X24119481Y-35969479D01*
X24123219Y-35962074D01*
X24168194Y-35892288D01*
X24221238Y-35849703D01*
X24289679Y-35829778D01*
X24341500Y-35826812D01*
X24420284Y-35834720D01*
X24482093Y-35861859D01*
X24536924Y-35913349D01*
X24554832Y-35936077D01*
X24564653Y-35950819D01*
X24572360Y-35968260D01*
X24578263Y-35992310D01*
X24582673Y-36026878D01*
X24585902Y-36075873D01*
X24588258Y-36143206D01*
X24590052Y-36232786D01*
X24591596Y-36348522D01*
X24592261Y-36407378D01*
X24596958Y-36834875D01*
X24833625Y-36834875D01*
X24833625Y-35596625D01*
X24595500Y-35596625D01*
X24595500Y-35723415D01*
X24523689Y-35668600D01*
X24424210Y-35611237D01*
X24317034Y-35583010D01*
X24207097Y-35584491D01*
G36*
X18666529Y-35611086D02*
X18646344Y-35619862D01*
X18601503Y-35642294D01*
X18571247Y-35660409D01*
X18563000Y-35668504D01*
X18572589Y-35684341D01*
X18598098Y-35717841D01*
X18634648Y-35762680D01*
X18647637Y-35778108D01*
X18732273Y-35877872D01*
X18793205Y-35846612D01*
X18873346Y-35821900D01*
X18954144Y-35827104D01*
X19030790Y-35860865D01*
X19098475Y-35921824D01*
X19109707Y-35936077D01*
X19119528Y-35950819D01*
X19127235Y-35968260D01*
X19133138Y-35992310D01*
X19137548Y-36026878D01*
X19140777Y-36075873D01*
X19143133Y-36143206D01*
X19144927Y-36232786D01*
X19146471Y-36348522D01*
X19147136Y-36407378D01*
X19151833Y-36834875D01*
X19388500Y-36834875D01*
X19388500Y-35596625D01*
X19150375Y-35596625D01*
X19150375Y-35660125D01*
X19148293Y-35699905D01*
X19143090Y-35722015D01*
X19140993Y-35723624D01*
X19124580Y-35714145D01*
X19092848Y-35689893D01*
X19069676Y-35670611D01*
X18980190Y-35614010D01*
X18879278Y-35584755D01*
X18772779Y-35583547D01*
X18666529Y-35611086D01*
X18666529Y-35611086D01*
G37*
X18666529Y-35611086D02*
X18646344Y-35619862D01*
X18601503Y-35642294D01*
X18571247Y-35660409D01*
X18563000Y-35668504D01*
X18572589Y-35684341D01*
X18598098Y-35717841D01*
X18634648Y-35762680D01*
X18647637Y-35778108D01*
X18732273Y-35877872D01*
X18793205Y-35846612D01*
X18873346Y-35821900D01*
X18954144Y-35827104D01*
X19030790Y-35860865D01*
X19098475Y-35921824D01*
X19109707Y-35936077D01*
X19119528Y-35950819D01*
X19127235Y-35968260D01*
X19133138Y-35992310D01*
X19137548Y-36026878D01*
X19140777Y-36075873D01*
X19143133Y-36143206D01*
X19144927Y-36232786D01*
X19146471Y-36348522D01*
X19147136Y-36407378D01*
X19151833Y-36834875D01*
X19388500Y-36834875D01*
X19388500Y-35596625D01*
X19150375Y-35596625D01*
X19150375Y-35660125D01*
X19148293Y-35699905D01*
X19143090Y-35722015D01*
X19140993Y-35723624D01*
X19124580Y-35714145D01*
X19092848Y-35689893D01*
X19069676Y-35670611D01*
X18980190Y-35614010D01*
X18879278Y-35584755D01*
X18772779Y-35583547D01*
X18666529Y-35611086D01*
D10*
G36*
X14008154Y-5066943D02*
X14478154Y-5881007D01*
X12191846Y-7201007D01*
X11721846Y-6386943D01*
X14008154Y-5066943D01*
X14008154Y-5066943D01*
G37*
G36*
X15008154Y-6798993D02*
X15478154Y-7613057D01*
X13191846Y-8933057D01*
X12721846Y-8118993D01*
X15008154Y-6798993D01*
X15008154Y-6798993D01*
G37*
G36*
X11893257Y-5927128D02*
X11573257Y-5372872D01*
X12214115Y-5002872D01*
X12534115Y-5557128D01*
X11893257Y-5927128D01*
X11893257Y-5927128D01*
G37*
G36*
X12845885Y-5377128D02*
X12525885Y-4822872D01*
X13166743Y-4452872D01*
X13486743Y-5007128D01*
X12845885Y-5377128D01*
X12845885Y-5377128D01*
G37*
G36*
X14023257Y-9567128D02*
X13703257Y-9012872D01*
X14344115Y-8642872D01*
X14664115Y-9197128D01*
X14023257Y-9567128D01*
X14023257Y-9567128D01*
G37*
G36*
X14975885Y-9017128D02*
X14655885Y-8462872D01*
X15296743Y-8092872D01*
X15616743Y-8647128D01*
X14975885Y-9017128D01*
X14975885Y-9017128D01*
G37*
D13*
X19500000Y-4400000D03*
X19500000Y-6600000D03*
X24200000Y-2500000D03*
X25500000Y-3700000D03*
D14*
X32000000Y-13000000D03*
X13000000Y-32000000D03*
X32000000Y-32000000D03*
X13000000Y-13000000D03*
D15*
X19960000Y-41135000D03*
X19960000Y-39865000D03*
X21230000Y-41135000D03*
X21230000Y-39865000D03*
X22500000Y-41135000D03*
X22500000Y-39865000D03*
X23770000Y-41135000D03*
X23770000Y-39865000D03*
X25040000Y-41135000D03*
X25040000Y-39865000D03*
M02*
