%FSLAX45Y45*%
G04 Gerber Fmt 4.5, Leading zero omitted, Abs format (unit mm)*
G04 Created by KiCad (PCBNEW (2015-09-17 BZR 6202)-product) date 2015 September 30, Wednesday 13:53:40*
%MOMM*%
G01*
G04 APERTURE LIST*
%ADD10C,0.127000*%
%ADD11C,0.010000*%
%ADD12C,0.200000*%
%ADD13C,0.300000*%
G04 APERTURE END LIST*
D10*
D11*
X4500000Y-2250000D02*
G75*
G03X4500000Y-2250000I-2250000J0D01*
G01*
X3475000Y-2250000D02*
G75*
G03X3475000Y-2250000I-1225000J0D01*
G01*
D12*
X102000Y-1828000D02*
X142000Y-1868000D01*
X142000Y-1828000D02*
X102000Y-1868000D01*
X174000Y-2786000D02*
X214000Y-2826000D01*
X214000Y-2786000D02*
X174000Y-2826000D01*
X323000Y-1549000D02*
X363000Y-1589000D01*
X363000Y-1549000D02*
X323000Y-1589000D01*
X352000Y-2962000D02*
X392000Y-3002000D01*
X392000Y-2962000D02*
X352000Y-3002000D01*
X410000Y-2790000D02*
X450000Y-2830000D01*
X450000Y-2790000D02*
X410000Y-2830000D01*
X427000Y-3134000D02*
X467000Y-3174000D01*
X467000Y-3134000D02*
X427000Y-3174000D01*
X575000Y-2857000D02*
X615000Y-2897000D01*
X615000Y-2857000D02*
X575000Y-2897000D01*
X581000Y-1817000D02*
X621000Y-1857000D01*
X621000Y-1817000D02*
X581000Y-1857000D01*
X591000Y-1384000D02*
X631000Y-1424000D01*
X631000Y-1384000D02*
X591000Y-1424000D01*
X608000Y-3212000D02*
X648000Y-3252000D01*
X648000Y-3212000D02*
X608000Y-3252000D01*
X617000Y-1243000D02*
X657000Y-1283000D01*
X657000Y-1243000D02*
X617000Y-1283000D01*
X654000Y-3032000D02*
X694000Y-3072000D01*
X694000Y-3032000D02*
X654000Y-3072000D01*
X655000Y-731000D02*
X695000Y-771000D01*
X695000Y-731000D02*
X655000Y-771000D01*
X669000Y-988000D02*
X709000Y-1028000D01*
X709000Y-988000D02*
X669000Y-1028000D01*
X677000Y-1561000D02*
X717000Y-1601000D01*
X717000Y-1561000D02*
X677000Y-1601000D01*
X680000Y-1132000D02*
X720000Y-1172000D01*
X720000Y-1132000D02*
X680000Y-1172000D01*
X683000Y-2116000D02*
X723000Y-2156000D01*
X723000Y-2116000D02*
X683000Y-2156000D01*
X709000Y-1224000D02*
X749000Y-1264000D01*
X749000Y-1224000D02*
X709000Y-1264000D01*
X774000Y-3571000D02*
X814000Y-3611000D01*
X814000Y-3571000D02*
X774000Y-3611000D01*
X782000Y-2668000D02*
X822000Y-2708000D01*
X822000Y-2668000D02*
X782000Y-2708000D01*
X828000Y-832000D02*
X868000Y-872000D01*
X868000Y-832000D02*
X828000Y-872000D01*
X840000Y-2834000D02*
X880000Y-2874000D01*
X880000Y-2834000D02*
X840000Y-2874000D01*
X863000Y-3484000D02*
X903000Y-3524000D01*
X903000Y-3484000D02*
X863000Y-3524000D01*
X881000Y-1104000D02*
X921000Y-1144000D01*
X921000Y-1104000D02*
X881000Y-1144000D01*
X918000Y-1893000D02*
X958000Y-1933000D01*
X958000Y-1893000D02*
X918000Y-1933000D01*
X928000Y-2698000D02*
X968000Y-2738000D01*
X968000Y-2698000D02*
X928000Y-2738000D01*
X947000Y-1425000D02*
X987000Y-1465000D01*
X987000Y-1425000D02*
X947000Y-1465000D01*
X953000Y-1288000D02*
X993000Y-1328000D01*
X993000Y-1288000D02*
X953000Y-1328000D01*
X954000Y-463000D02*
X994000Y-503000D01*
X994000Y-463000D02*
X954000Y-503000D01*
X956000Y-644000D02*
X996000Y-684000D01*
X996000Y-644000D02*
X956000Y-684000D01*
X1017000Y-1214000D02*
X1057000Y-1254000D01*
X1057000Y-1214000D02*
X1017000Y-1254000D01*
X1052000Y-643000D02*
X1092000Y-683000D01*
X1092000Y-643000D02*
X1052000Y-683000D01*
X1082000Y-540000D02*
X1122000Y-580000D01*
X1122000Y-540000D02*
X1082000Y-580000D01*
X1142000Y-1046000D02*
X1182000Y-1086000D01*
X1182000Y-1046000D02*
X1142000Y-1086000D01*
X1301000Y-919000D02*
X1341000Y-959000D01*
X1341000Y-919000D02*
X1301000Y-959000D01*
X1302000Y-704000D02*
X1342000Y-744000D01*
X1342000Y-704000D02*
X1302000Y-744000D01*
X1382000Y-440000D02*
X1422000Y-480000D01*
X1422000Y-440000D02*
X1382000Y-480000D01*
X1411000Y-1057000D02*
X1451000Y-1097000D01*
X1451000Y-1057000D02*
X1411000Y-1097000D01*
X1440000Y-3380000D02*
X1480000Y-3420000D01*
X1480000Y-3380000D02*
X1440000Y-3420000D01*
X1566000Y-789000D02*
X1606000Y-829000D01*
X1606000Y-789000D02*
X1566000Y-829000D01*
X1582000Y-710000D02*
X1622000Y-750000D01*
X1622000Y-710000D02*
X1582000Y-750000D01*
X1632000Y-129000D02*
X1672000Y-169000D01*
X1672000Y-129000D02*
X1632000Y-169000D01*
X1643000Y-933000D02*
X1683000Y-973000D01*
X1683000Y-933000D02*
X1643000Y-973000D01*
X1652000Y-509000D02*
X1692000Y-549000D01*
X1692000Y-509000D02*
X1652000Y-549000D01*
X1660000Y-812000D02*
X1700000Y-852000D01*
X1700000Y-812000D02*
X1660000Y-852000D01*
X1673000Y-618000D02*
X1713000Y-658000D01*
X1713000Y-618000D02*
X1673000Y-658000D01*
X1750000Y-600000D02*
X1790000Y-640000D01*
X1790000Y-600000D02*
X1750000Y-640000D01*
X1810000Y-650000D02*
X1850000Y-690000D01*
X1850000Y-650000D02*
X1810000Y-690000D01*
X1816000Y-938000D02*
X1856000Y-978000D01*
X1856000Y-938000D02*
X1816000Y-978000D01*
X1820000Y-570000D02*
X1860000Y-610000D01*
X1860000Y-570000D02*
X1820000Y-610000D01*
X1904014Y-232579D02*
X1944014Y-272580D01*
X1944014Y-232579D02*
X1904014Y-272580D01*
X1936000Y-895000D02*
X1976000Y-935000D01*
X1976000Y-895000D02*
X1936000Y-935000D01*
X2130000Y-430000D02*
X2170000Y-470000D01*
X2170000Y-430000D02*
X2130000Y-470000D01*
X2130000Y-630000D02*
X2170000Y-670000D01*
X2170000Y-630000D02*
X2130000Y-670000D01*
X2139000Y-128000D02*
X2179000Y-168000D01*
X2179000Y-128000D02*
X2139000Y-168000D01*
X2230000Y-530000D02*
X2270000Y-570000D01*
X2270000Y-530000D02*
X2230000Y-570000D01*
X2260000Y-113000D02*
X2300000Y-153000D01*
X2300000Y-113000D02*
X2260000Y-153000D01*
X2330000Y-430000D02*
X2370000Y-470000D01*
X2370000Y-430000D02*
X2330000Y-470000D01*
X2330000Y-630000D02*
X2370000Y-670000D01*
X2370000Y-630000D02*
X2330000Y-670000D01*
X2371000Y-127000D02*
X2411000Y-167000D01*
X2411000Y-127000D02*
X2371000Y-167000D01*
X2418000Y-62000D02*
X2458000Y-102000D01*
X2458000Y-62000D02*
X2418000Y-102000D01*
X2454000Y-132000D02*
X2494000Y-172000D01*
X2494000Y-132000D02*
X2454000Y-172000D01*
X2524000Y-826000D02*
X2564000Y-866000D01*
X2564000Y-826000D02*
X2524000Y-866000D01*
X2553000Y-222000D02*
X2593000Y-262000D01*
X2593000Y-222000D02*
X2553000Y-262000D01*
X2585000Y-919000D02*
X2625000Y-959000D01*
X2625000Y-919000D02*
X2585000Y-959000D01*
X2620000Y-174000D02*
X2660000Y-214000D01*
X2660000Y-174000D02*
X2620000Y-214000D01*
X2626000Y-795000D02*
X2666000Y-835000D01*
X2666000Y-795000D02*
X2626000Y-835000D01*
X2629000Y-692000D02*
X2669000Y-732000D01*
X2669000Y-692000D02*
X2629000Y-732000D01*
X2696000Y-828000D02*
X2736000Y-868000D01*
X2736000Y-828000D02*
X2696000Y-868000D01*
X2730000Y-168000D02*
X2770000Y-208000D01*
X2770000Y-168000D02*
X2730000Y-208000D01*
X2829000Y-837000D02*
X2869000Y-877000D01*
X2869000Y-837000D02*
X2829000Y-877000D01*
X2904000Y-524000D02*
X2944000Y-564000D01*
X2944000Y-524000D02*
X2904000Y-564000D01*
X2021000Y-3986500D02*
G75*
G03X2021000Y-3986500I-25000J0D01*
G01*
X2021000Y-4113500D02*
G75*
G03X2021000Y-4113500I-25000J0D01*
G01*
X2148000Y-3986500D02*
G75*
G03X2148000Y-3986500I-25000J0D01*
G01*
X2148000Y-4113500D02*
G75*
G03X2148000Y-4113500I-25000J0D01*
G01*
X2275000Y-3986500D02*
G75*
G03X2275000Y-3986500I-25000J0D01*
G01*
X2275000Y-4113500D02*
G75*
G03X2275000Y-4113500I-25000J0D01*
G01*
X2402000Y-3986500D02*
G75*
G03X2402000Y-3986500I-25000J0D01*
G01*
X2402000Y-4113500D02*
G75*
G03X2402000Y-4113500I-25000J0D01*
G01*
X2529000Y-3986500D02*
G75*
G03X2529000Y-3986500I-25000J0D01*
G01*
X2529000Y-4113500D02*
G75*
G03X2529000Y-4113500I-25000J0D01*
G01*
X1300000Y-1255000D02*
X1300000Y-1345000D01*
X1255000Y-1300000D02*
X1345000Y-1300000D01*
X1300000Y-3155000D02*
X1300000Y-3245000D01*
X1255000Y-3200000D02*
X1345000Y-3200000D01*
X3200000Y-1255000D02*
X3200000Y-1345000D01*
X3155000Y-1300000D02*
X3245000Y-1300000D01*
X3200000Y-3155000D02*
X3200000Y-3245000D01*
X3155000Y-3200000D02*
X3245000Y-3200000D01*
D13*
X270929Y-4966214D02*
X270929Y-4666214D01*
X342357Y-4666214D01*
X385214Y-4680500D01*
X413786Y-4709072D01*
X428071Y-4737643D01*
X442357Y-4794786D01*
X442357Y-4837643D01*
X428071Y-4894786D01*
X413786Y-4923357D01*
X385214Y-4951929D01*
X342357Y-4966214D01*
X270929Y-4966214D01*
X570929Y-4966214D02*
X570929Y-4766214D01*
X570929Y-4823357D02*
X585214Y-4794786D01*
X599500Y-4780500D01*
X628071Y-4766214D01*
X656643Y-4766214D01*
X756643Y-4966214D02*
X756643Y-4766214D01*
X756643Y-4666214D02*
X742357Y-4680500D01*
X756643Y-4694786D01*
X770928Y-4680500D01*
X756643Y-4666214D01*
X756643Y-4694786D01*
X942357Y-4966214D02*
X913786Y-4951929D01*
X899500Y-4923357D01*
X899500Y-4666214D01*
X1099500Y-4966214D02*
X1070929Y-4951929D01*
X1056643Y-4923357D01*
X1056643Y-4666214D01*
X1442357Y-4966214D02*
X1442357Y-4666214D01*
X1542357Y-4880500D01*
X1642357Y-4666214D01*
X1642357Y-4966214D01*
X1913786Y-4966214D02*
X1913786Y-4809072D01*
X1899500Y-4780500D01*
X1870928Y-4766214D01*
X1813786Y-4766214D01*
X1785214Y-4780500D01*
X1913786Y-4951929D02*
X1885214Y-4966214D01*
X1813786Y-4966214D01*
X1785214Y-4951929D01*
X1770928Y-4923357D01*
X1770928Y-4894786D01*
X1785214Y-4866214D01*
X1813786Y-4851929D01*
X1885214Y-4851929D01*
X1913786Y-4837643D01*
X2056643Y-4766214D02*
X2056643Y-5066214D01*
X2056643Y-4780500D02*
X2085214Y-4766214D01*
X2142357Y-4766214D01*
X2170929Y-4780500D01*
X2185214Y-4794786D01*
X2199500Y-4823357D01*
X2199500Y-4909072D01*
X2185214Y-4937643D01*
X2170929Y-4951929D01*
X2142357Y-4966214D01*
X2085214Y-4966214D01*
X2056643Y-4951929D01*
X2328071Y-4937643D02*
X2342357Y-4951929D01*
X2328071Y-4966214D01*
X2313786Y-4951929D01*
X2328071Y-4937643D01*
X2328071Y-4966214D01*
X2328071Y-4780500D02*
X2342357Y-4794786D01*
X2328071Y-4809072D01*
X2313786Y-4794786D01*
X2328071Y-4780500D01*
X2328071Y-4809072D01*
X-40500Y-5440500D02*
X-500Y-5480500D01*
X-500Y-5440500D02*
X-40500Y-5480500D01*
X328071Y-5296214D02*
X356643Y-5296214D01*
X385214Y-5310500D01*
X399500Y-5324786D01*
X413786Y-5353357D01*
X428071Y-5410500D01*
X428071Y-5481929D01*
X413786Y-5539072D01*
X399500Y-5567643D01*
X385214Y-5581929D01*
X356643Y-5596214D01*
X328071Y-5596214D01*
X299500Y-5581929D01*
X285214Y-5567643D01*
X270929Y-5539072D01*
X256643Y-5481929D01*
X256643Y-5410500D01*
X270929Y-5353357D01*
X285214Y-5324786D01*
X299500Y-5310500D01*
X328071Y-5296214D01*
X556643Y-5567643D02*
X570929Y-5581929D01*
X556643Y-5596214D01*
X542357Y-5581929D01*
X556643Y-5567643D01*
X556643Y-5596214D01*
X828071Y-5396214D02*
X828071Y-5596214D01*
X756643Y-5281929D02*
X685214Y-5496214D01*
X870928Y-5496214D01*
X1042357Y-5296214D02*
X1070929Y-5296214D01*
X1099500Y-5310500D01*
X1113786Y-5324786D01*
X1128071Y-5353357D01*
X1142357Y-5410500D01*
X1142357Y-5481929D01*
X1128071Y-5539072D01*
X1113786Y-5567643D01*
X1099500Y-5581929D01*
X1070929Y-5596214D01*
X1042357Y-5596214D01*
X1013786Y-5581929D01*
X999500Y-5567643D01*
X985214Y-5539072D01*
X970928Y-5481929D01*
X970928Y-5410500D01*
X985214Y-5353357D01*
X999500Y-5324786D01*
X1013786Y-5310500D01*
X1042357Y-5296214D01*
X1270929Y-5596214D02*
X1270929Y-5396214D01*
X1270929Y-5424786D02*
X1285214Y-5410500D01*
X1313786Y-5396214D01*
X1356643Y-5396214D01*
X1385214Y-5410500D01*
X1399500Y-5439072D01*
X1399500Y-5596214D01*
X1399500Y-5439072D02*
X1413786Y-5410500D01*
X1442357Y-5396214D01*
X1485214Y-5396214D01*
X1513786Y-5410500D01*
X1528071Y-5439072D01*
X1528071Y-5596214D01*
X1670928Y-5596214D02*
X1670928Y-5396214D01*
X1670928Y-5424786D02*
X1685214Y-5410500D01*
X1713786Y-5396214D01*
X1756643Y-5396214D01*
X1785214Y-5410500D01*
X1799500Y-5439072D01*
X1799500Y-5596214D01*
X1799500Y-5439072D02*
X1813786Y-5410500D01*
X1842357Y-5396214D01*
X1885214Y-5396214D01*
X1913786Y-5410500D01*
X1928071Y-5439072D01*
X1928071Y-5596214D01*
X2513786Y-5281929D02*
X2256643Y-5667643D01*
X2899500Y-5296214D02*
X2928071Y-5296214D01*
X2956643Y-5310500D01*
X2970928Y-5324786D01*
X2985214Y-5353357D01*
X2999500Y-5410500D01*
X2999500Y-5481929D01*
X2985214Y-5539072D01*
X2970928Y-5567643D01*
X2956643Y-5581929D01*
X2928071Y-5596214D01*
X2899500Y-5596214D01*
X2870928Y-5581929D01*
X2856643Y-5567643D01*
X2842357Y-5539072D01*
X2828071Y-5481929D01*
X2828071Y-5410500D01*
X2842357Y-5353357D01*
X2856643Y-5324786D01*
X2870928Y-5310500D01*
X2899500Y-5296214D01*
X3128071Y-5567643D02*
X3142357Y-5581929D01*
X3128071Y-5596214D01*
X3113786Y-5581929D01*
X3128071Y-5567643D01*
X3128071Y-5596214D01*
X3328071Y-5296214D02*
X3356643Y-5296214D01*
X3385214Y-5310500D01*
X3399500Y-5324786D01*
X3413785Y-5353357D01*
X3428071Y-5410500D01*
X3428071Y-5481929D01*
X3413785Y-5539072D01*
X3399500Y-5567643D01*
X3385214Y-5581929D01*
X3356643Y-5596214D01*
X3328071Y-5596214D01*
X3299500Y-5581929D01*
X3285214Y-5567643D01*
X3270928Y-5539072D01*
X3256643Y-5481929D01*
X3256643Y-5410500D01*
X3270928Y-5353357D01*
X3285214Y-5324786D01*
X3299500Y-5310500D01*
X3328071Y-5296214D01*
X3713785Y-5596214D02*
X3542357Y-5596214D01*
X3628071Y-5596214D02*
X3628071Y-5296214D01*
X3599500Y-5339072D01*
X3570928Y-5367643D01*
X3542357Y-5381929D01*
X3970928Y-5296214D02*
X3913785Y-5296214D01*
X3885214Y-5310500D01*
X3870928Y-5324786D01*
X3842357Y-5367643D01*
X3828071Y-5424786D01*
X3828071Y-5539072D01*
X3842357Y-5567643D01*
X3856643Y-5581929D01*
X3885214Y-5596214D01*
X3942357Y-5596214D01*
X3970928Y-5581929D01*
X3985214Y-5567643D01*
X3999500Y-5539072D01*
X3999500Y-5467643D01*
X3985214Y-5439072D01*
X3970928Y-5424786D01*
X3942357Y-5410500D01*
X3885214Y-5410500D01*
X3856643Y-5424786D01*
X3842357Y-5439072D01*
X3828071Y-5467643D01*
X4113786Y-5296214D02*
X4113786Y-5353357D01*
X4228071Y-5296214D02*
X4228071Y-5353357D01*
X4670928Y-5710500D02*
X4656643Y-5696214D01*
X4628071Y-5653357D01*
X4613786Y-5624786D01*
X4599500Y-5581929D01*
X4585214Y-5510500D01*
X4585214Y-5453357D01*
X4599500Y-5381929D01*
X4613786Y-5339072D01*
X4628071Y-5310500D01*
X4656643Y-5267643D01*
X4670928Y-5253357D01*
X4756643Y-5296214D02*
X4956643Y-5296214D01*
X4828071Y-5596214D01*
X5056643Y-5324786D02*
X5070928Y-5310500D01*
X5099500Y-5296214D01*
X5170928Y-5296214D01*
X5199500Y-5310500D01*
X5213786Y-5324786D01*
X5228071Y-5353357D01*
X5228071Y-5381929D01*
X5213786Y-5424786D01*
X5042357Y-5596214D01*
X5228071Y-5596214D01*
X5585214Y-5596214D02*
X5585214Y-5296214D01*
X5713785Y-5596214D02*
X5713785Y-5439072D01*
X5699500Y-5410500D01*
X5670928Y-5396214D01*
X5628071Y-5396214D01*
X5599500Y-5410500D01*
X5585214Y-5424786D01*
X5899500Y-5596214D02*
X5870928Y-5581929D01*
X5856643Y-5567643D01*
X5842357Y-5539072D01*
X5842357Y-5453357D01*
X5856643Y-5424786D01*
X5870928Y-5410500D01*
X5899500Y-5396214D01*
X5942357Y-5396214D01*
X5970928Y-5410500D01*
X5985214Y-5424786D01*
X5999500Y-5453357D01*
X5999500Y-5539072D01*
X5985214Y-5567643D01*
X5970928Y-5581929D01*
X5942357Y-5596214D01*
X5899500Y-5596214D01*
X6170928Y-5596214D02*
X6142357Y-5581929D01*
X6128071Y-5553357D01*
X6128071Y-5296214D01*
X6399500Y-5581929D02*
X6370928Y-5596214D01*
X6313786Y-5596214D01*
X6285214Y-5581929D01*
X6270928Y-5553357D01*
X6270928Y-5439072D01*
X6285214Y-5410500D01*
X6313786Y-5396214D01*
X6370928Y-5396214D01*
X6399500Y-5410500D01*
X6413786Y-5439072D01*
X6413786Y-5467643D01*
X6270928Y-5496214D01*
X6528071Y-5581929D02*
X6556643Y-5596214D01*
X6613786Y-5596214D01*
X6642357Y-5581929D01*
X6656643Y-5553357D01*
X6656643Y-5539072D01*
X6642357Y-5510500D01*
X6613786Y-5496214D01*
X6570928Y-5496214D01*
X6542357Y-5481929D01*
X6528071Y-5453357D01*
X6528071Y-5439072D01*
X6542357Y-5410500D01*
X6570928Y-5396214D01*
X6613786Y-5396214D01*
X6642357Y-5410500D01*
X6756643Y-5710500D02*
X6770928Y-5696214D01*
X6799500Y-5653357D01*
X6813786Y-5624786D01*
X6828071Y-5581929D01*
X6842357Y-5510500D01*
X6842357Y-5453357D01*
X6828071Y-5381929D01*
X6813786Y-5339072D01*
X6799500Y-5310500D01*
X6770928Y-5267643D01*
X6756643Y-5253357D01*
X-500Y-5856500D02*
G75*
G03X-500Y-5856500I-25000J0D01*
G01*
X328071Y-5692214D02*
X356643Y-5692214D01*
X385214Y-5706500D01*
X399500Y-5720786D01*
X413786Y-5749357D01*
X428071Y-5806500D01*
X428071Y-5877929D01*
X413786Y-5935071D01*
X399500Y-5963643D01*
X385214Y-5977929D01*
X356643Y-5992214D01*
X328071Y-5992214D01*
X299500Y-5977929D01*
X285214Y-5963643D01*
X270929Y-5935071D01*
X256643Y-5877929D01*
X256643Y-5806500D01*
X270929Y-5749357D01*
X285214Y-5720786D01*
X299500Y-5706500D01*
X328071Y-5692214D01*
X556643Y-5963643D02*
X570929Y-5977929D01*
X556643Y-5992214D01*
X542357Y-5977929D01*
X556643Y-5963643D01*
X556643Y-5992214D01*
X842357Y-5692214D02*
X699500Y-5692214D01*
X685214Y-5835071D01*
X699500Y-5820786D01*
X728071Y-5806500D01*
X799500Y-5806500D01*
X828071Y-5820786D01*
X842357Y-5835071D01*
X856643Y-5863643D01*
X856643Y-5935071D01*
X842357Y-5963643D01*
X828071Y-5977929D01*
X799500Y-5992214D01*
X728071Y-5992214D01*
X699500Y-5977929D01*
X685214Y-5963643D01*
X1042357Y-5692214D02*
X1070929Y-5692214D01*
X1099500Y-5706500D01*
X1113786Y-5720786D01*
X1128071Y-5749357D01*
X1142357Y-5806500D01*
X1142357Y-5877929D01*
X1128071Y-5935071D01*
X1113786Y-5963643D01*
X1099500Y-5977929D01*
X1070929Y-5992214D01*
X1042357Y-5992214D01*
X1013786Y-5977929D01*
X999500Y-5963643D01*
X985214Y-5935071D01*
X970928Y-5877929D01*
X970928Y-5806500D01*
X985214Y-5749357D01*
X999500Y-5720786D01*
X1013786Y-5706500D01*
X1042357Y-5692214D01*
X1270929Y-5992214D02*
X1270929Y-5792214D01*
X1270929Y-5820786D02*
X1285214Y-5806500D01*
X1313786Y-5792214D01*
X1356643Y-5792214D01*
X1385214Y-5806500D01*
X1399500Y-5835071D01*
X1399500Y-5992214D01*
X1399500Y-5835071D02*
X1413786Y-5806500D01*
X1442357Y-5792214D01*
X1485214Y-5792214D01*
X1513786Y-5806500D01*
X1528071Y-5835071D01*
X1528071Y-5992214D01*
X1670928Y-5992214D02*
X1670928Y-5792214D01*
X1670928Y-5820786D02*
X1685214Y-5806500D01*
X1713786Y-5792214D01*
X1756643Y-5792214D01*
X1785214Y-5806500D01*
X1799500Y-5835071D01*
X1799500Y-5992214D01*
X1799500Y-5835071D02*
X1813786Y-5806500D01*
X1842357Y-5792214D01*
X1885214Y-5792214D01*
X1913786Y-5806500D01*
X1928071Y-5835071D01*
X1928071Y-5992214D01*
X2513786Y-5677929D02*
X2256643Y-6063643D01*
X2899500Y-5692214D02*
X2928071Y-5692214D01*
X2956643Y-5706500D01*
X2970928Y-5720786D01*
X2985214Y-5749357D01*
X2999500Y-5806500D01*
X2999500Y-5877929D01*
X2985214Y-5935071D01*
X2970928Y-5963643D01*
X2956643Y-5977929D01*
X2928071Y-5992214D01*
X2899500Y-5992214D01*
X2870928Y-5977929D01*
X2856643Y-5963643D01*
X2842357Y-5935071D01*
X2828071Y-5877929D01*
X2828071Y-5806500D01*
X2842357Y-5749357D01*
X2856643Y-5720786D01*
X2870928Y-5706500D01*
X2899500Y-5692214D01*
X3128071Y-5963643D02*
X3142357Y-5977929D01*
X3128071Y-5992214D01*
X3113786Y-5977929D01*
X3128071Y-5963643D01*
X3128071Y-5992214D01*
X3328071Y-5692214D02*
X3356643Y-5692214D01*
X3385214Y-5706500D01*
X3399500Y-5720786D01*
X3413785Y-5749357D01*
X3428071Y-5806500D01*
X3428071Y-5877929D01*
X3413785Y-5935071D01*
X3399500Y-5963643D01*
X3385214Y-5977929D01*
X3356643Y-5992214D01*
X3328071Y-5992214D01*
X3299500Y-5977929D01*
X3285214Y-5963643D01*
X3270928Y-5935071D01*
X3256643Y-5877929D01*
X3256643Y-5806500D01*
X3270928Y-5749357D01*
X3285214Y-5720786D01*
X3299500Y-5706500D01*
X3328071Y-5692214D01*
X3542357Y-5720786D02*
X3556643Y-5706500D01*
X3585214Y-5692214D01*
X3656643Y-5692214D01*
X3685214Y-5706500D01*
X3699500Y-5720786D01*
X3713785Y-5749357D01*
X3713785Y-5777929D01*
X3699500Y-5820786D01*
X3528071Y-5992214D01*
X3713785Y-5992214D01*
X3899500Y-5692214D02*
X3928071Y-5692214D01*
X3956643Y-5706500D01*
X3970928Y-5720786D01*
X3985214Y-5749357D01*
X3999500Y-5806500D01*
X3999500Y-5877929D01*
X3985214Y-5935071D01*
X3970928Y-5963643D01*
X3956643Y-5977929D01*
X3928071Y-5992214D01*
X3899500Y-5992214D01*
X3870928Y-5977929D01*
X3856643Y-5963643D01*
X3842357Y-5935071D01*
X3828071Y-5877929D01*
X3828071Y-5806500D01*
X3842357Y-5749357D01*
X3856643Y-5720786D01*
X3870928Y-5706500D01*
X3899500Y-5692214D01*
X4113786Y-5692214D02*
X4113786Y-5749357D01*
X4228071Y-5692214D02*
X4228071Y-5749357D01*
X4670928Y-6106500D02*
X4656643Y-6092214D01*
X4628071Y-6049357D01*
X4613786Y-6020786D01*
X4599500Y-5977929D01*
X4585214Y-5906500D01*
X4585214Y-5849357D01*
X4599500Y-5777929D01*
X4613786Y-5735071D01*
X4628071Y-5706500D01*
X4656643Y-5663643D01*
X4670928Y-5649357D01*
X4942357Y-5992214D02*
X4770928Y-5992214D01*
X4856643Y-5992214D02*
X4856643Y-5692214D01*
X4828071Y-5735071D01*
X4799500Y-5763643D01*
X4770928Y-5777929D01*
X5128071Y-5692214D02*
X5156643Y-5692214D01*
X5185214Y-5706500D01*
X5199500Y-5720786D01*
X5213786Y-5749357D01*
X5228071Y-5806500D01*
X5228071Y-5877929D01*
X5213786Y-5935071D01*
X5199500Y-5963643D01*
X5185214Y-5977929D01*
X5156643Y-5992214D01*
X5128071Y-5992214D01*
X5099500Y-5977929D01*
X5085214Y-5963643D01*
X5070928Y-5935071D01*
X5056643Y-5877929D01*
X5056643Y-5806500D01*
X5070928Y-5749357D01*
X5085214Y-5720786D01*
X5099500Y-5706500D01*
X5128071Y-5692214D01*
X5585214Y-5992214D02*
X5585214Y-5692214D01*
X5713785Y-5992214D02*
X5713785Y-5835071D01*
X5699500Y-5806500D01*
X5670928Y-5792214D01*
X5628071Y-5792214D01*
X5599500Y-5806500D01*
X5585214Y-5820786D01*
X5899500Y-5992214D02*
X5870928Y-5977929D01*
X5856643Y-5963643D01*
X5842357Y-5935071D01*
X5842357Y-5849357D01*
X5856643Y-5820786D01*
X5870928Y-5806500D01*
X5899500Y-5792214D01*
X5942357Y-5792214D01*
X5970928Y-5806500D01*
X5985214Y-5820786D01*
X5999500Y-5849357D01*
X5999500Y-5935071D01*
X5985214Y-5963643D01*
X5970928Y-5977929D01*
X5942357Y-5992214D01*
X5899500Y-5992214D01*
X6170928Y-5992214D02*
X6142357Y-5977929D01*
X6128071Y-5949357D01*
X6128071Y-5692214D01*
X6399500Y-5977929D02*
X6370928Y-5992214D01*
X6313786Y-5992214D01*
X6285214Y-5977929D01*
X6270928Y-5949357D01*
X6270928Y-5835071D01*
X6285214Y-5806500D01*
X6313786Y-5792214D01*
X6370928Y-5792214D01*
X6399500Y-5806500D01*
X6413786Y-5835071D01*
X6413786Y-5863643D01*
X6270928Y-5892214D01*
X6528071Y-5977929D02*
X6556643Y-5992214D01*
X6613786Y-5992214D01*
X6642357Y-5977929D01*
X6656643Y-5949357D01*
X6656643Y-5935071D01*
X6642357Y-5906500D01*
X6613786Y-5892214D01*
X6570928Y-5892214D01*
X6542357Y-5877929D01*
X6528071Y-5849357D01*
X6528071Y-5835071D01*
X6542357Y-5806500D01*
X6570928Y-5792214D01*
X6613786Y-5792214D01*
X6642357Y-5806500D01*
X6756643Y-6106500D02*
X6770928Y-6092214D01*
X6799500Y-6049357D01*
X6813786Y-6020786D01*
X6828071Y-5977929D01*
X6842357Y-5906500D01*
X6842357Y-5849357D01*
X6828071Y-5777929D01*
X6813786Y-5735071D01*
X6799500Y-5706500D01*
X6770928Y-5663643D01*
X6756643Y-5649357D01*
X-45500Y-6207500D02*
X-45500Y-6297500D01*
X-90500Y-6252500D02*
X-500Y-6252500D01*
X328071Y-6088214D02*
X356643Y-6088214D01*
X385214Y-6102500D01*
X399500Y-6116786D01*
X413786Y-6145357D01*
X428071Y-6202500D01*
X428071Y-6273929D01*
X413786Y-6331071D01*
X399500Y-6359643D01*
X385214Y-6373929D01*
X356643Y-6388214D01*
X328071Y-6388214D01*
X299500Y-6373929D01*
X285214Y-6359643D01*
X270929Y-6331071D01*
X256643Y-6273929D01*
X256643Y-6202500D01*
X270929Y-6145357D01*
X285214Y-6116786D01*
X299500Y-6102500D01*
X328071Y-6088214D01*
X556643Y-6359643D02*
X570929Y-6373929D01*
X556643Y-6388214D01*
X542357Y-6373929D01*
X556643Y-6359643D01*
X556643Y-6388214D01*
X713786Y-6388214D02*
X770928Y-6388214D01*
X799500Y-6373929D01*
X813786Y-6359643D01*
X842357Y-6316786D01*
X856643Y-6259643D01*
X856643Y-6145357D01*
X842357Y-6116786D01*
X828071Y-6102500D01*
X799500Y-6088214D01*
X742357Y-6088214D01*
X713786Y-6102500D01*
X699500Y-6116786D01*
X685214Y-6145357D01*
X685214Y-6216786D01*
X699500Y-6245357D01*
X713786Y-6259643D01*
X742357Y-6273929D01*
X799500Y-6273929D01*
X828071Y-6259643D01*
X842357Y-6245357D01*
X856643Y-6216786D01*
X1042357Y-6088214D02*
X1070929Y-6088214D01*
X1099500Y-6102500D01*
X1113786Y-6116786D01*
X1128071Y-6145357D01*
X1142357Y-6202500D01*
X1142357Y-6273929D01*
X1128071Y-6331071D01*
X1113786Y-6359643D01*
X1099500Y-6373929D01*
X1070929Y-6388214D01*
X1042357Y-6388214D01*
X1013786Y-6373929D01*
X999500Y-6359643D01*
X985214Y-6331071D01*
X970928Y-6273929D01*
X970928Y-6202500D01*
X985214Y-6145357D01*
X999500Y-6116786D01*
X1013786Y-6102500D01*
X1042357Y-6088214D01*
X1270929Y-6388214D02*
X1270929Y-6188214D01*
X1270929Y-6216786D02*
X1285214Y-6202500D01*
X1313786Y-6188214D01*
X1356643Y-6188214D01*
X1385214Y-6202500D01*
X1399500Y-6231071D01*
X1399500Y-6388214D01*
X1399500Y-6231071D02*
X1413786Y-6202500D01*
X1442357Y-6188214D01*
X1485214Y-6188214D01*
X1513786Y-6202500D01*
X1528071Y-6231071D01*
X1528071Y-6388214D01*
X1670928Y-6388214D02*
X1670928Y-6188214D01*
X1670928Y-6216786D02*
X1685214Y-6202500D01*
X1713786Y-6188214D01*
X1756643Y-6188214D01*
X1785214Y-6202500D01*
X1799500Y-6231071D01*
X1799500Y-6388214D01*
X1799500Y-6231071D02*
X1813786Y-6202500D01*
X1842357Y-6188214D01*
X1885214Y-6188214D01*
X1913786Y-6202500D01*
X1928071Y-6231071D01*
X1928071Y-6388214D01*
X2513786Y-6073929D02*
X2256643Y-6459643D01*
X2899500Y-6088214D02*
X2928071Y-6088214D01*
X2956643Y-6102500D01*
X2970928Y-6116786D01*
X2985214Y-6145357D01*
X2999500Y-6202500D01*
X2999500Y-6273929D01*
X2985214Y-6331071D01*
X2970928Y-6359643D01*
X2956643Y-6373929D01*
X2928071Y-6388214D01*
X2899500Y-6388214D01*
X2870928Y-6373929D01*
X2856643Y-6359643D01*
X2842357Y-6331071D01*
X2828071Y-6273929D01*
X2828071Y-6202500D01*
X2842357Y-6145357D01*
X2856643Y-6116786D01*
X2870928Y-6102500D01*
X2899500Y-6088214D01*
X3128071Y-6359643D02*
X3142357Y-6373929D01*
X3128071Y-6388214D01*
X3113786Y-6373929D01*
X3128071Y-6359643D01*
X3128071Y-6388214D01*
X3328071Y-6088214D02*
X3356643Y-6088214D01*
X3385214Y-6102500D01*
X3399500Y-6116786D01*
X3413785Y-6145357D01*
X3428071Y-6202500D01*
X3428071Y-6273929D01*
X3413785Y-6331071D01*
X3399500Y-6359643D01*
X3385214Y-6373929D01*
X3356643Y-6388214D01*
X3328071Y-6388214D01*
X3299500Y-6373929D01*
X3285214Y-6359643D01*
X3270928Y-6331071D01*
X3256643Y-6273929D01*
X3256643Y-6202500D01*
X3270928Y-6145357D01*
X3285214Y-6116786D01*
X3299500Y-6102500D01*
X3328071Y-6088214D01*
X3528071Y-6088214D02*
X3713785Y-6088214D01*
X3613785Y-6202500D01*
X3656643Y-6202500D01*
X3685214Y-6216786D01*
X3699500Y-6231071D01*
X3713785Y-6259643D01*
X3713785Y-6331071D01*
X3699500Y-6359643D01*
X3685214Y-6373929D01*
X3656643Y-6388214D01*
X3570928Y-6388214D01*
X3542357Y-6373929D01*
X3528071Y-6359643D01*
X3985214Y-6088214D02*
X3842357Y-6088214D01*
X3828071Y-6231071D01*
X3842357Y-6216786D01*
X3870928Y-6202500D01*
X3942357Y-6202500D01*
X3970928Y-6216786D01*
X3985214Y-6231071D01*
X3999500Y-6259643D01*
X3999500Y-6331071D01*
X3985214Y-6359643D01*
X3970928Y-6373929D01*
X3942357Y-6388214D01*
X3870928Y-6388214D01*
X3842357Y-6373929D01*
X3828071Y-6359643D01*
X4113786Y-6088214D02*
X4113786Y-6145357D01*
X4228071Y-6088214D02*
X4228071Y-6145357D01*
X4670928Y-6502500D02*
X4656643Y-6488214D01*
X4628071Y-6445357D01*
X4613786Y-6416786D01*
X4599500Y-6373929D01*
X4585214Y-6302500D01*
X4585214Y-6245357D01*
X4599500Y-6173929D01*
X4613786Y-6131071D01*
X4628071Y-6102500D01*
X4656643Y-6059643D01*
X4670928Y-6045357D01*
X4913786Y-6188214D02*
X4913786Y-6388214D01*
X4842357Y-6073929D02*
X4770928Y-6288214D01*
X4956643Y-6288214D01*
X5299500Y-6388214D02*
X5299500Y-6088214D01*
X5428071Y-6388214D02*
X5428071Y-6231071D01*
X5413786Y-6202500D01*
X5385214Y-6188214D01*
X5342357Y-6188214D01*
X5313786Y-6202500D01*
X5299500Y-6216786D01*
X5613785Y-6388214D02*
X5585214Y-6373929D01*
X5570928Y-6359643D01*
X5556643Y-6331071D01*
X5556643Y-6245357D01*
X5570928Y-6216786D01*
X5585214Y-6202500D01*
X5613785Y-6188214D01*
X5656643Y-6188214D01*
X5685214Y-6202500D01*
X5699500Y-6216786D01*
X5713785Y-6245357D01*
X5713785Y-6331071D01*
X5699500Y-6359643D01*
X5685214Y-6373929D01*
X5656643Y-6388214D01*
X5613785Y-6388214D01*
X5885214Y-6388214D02*
X5856643Y-6373929D01*
X5842357Y-6345357D01*
X5842357Y-6088214D01*
X6113786Y-6373929D02*
X6085214Y-6388214D01*
X6028071Y-6388214D01*
X5999500Y-6373929D01*
X5985214Y-6345357D01*
X5985214Y-6231071D01*
X5999500Y-6202500D01*
X6028071Y-6188214D01*
X6085214Y-6188214D01*
X6113786Y-6202500D01*
X6128071Y-6231071D01*
X6128071Y-6259643D01*
X5985214Y-6288214D01*
X6242357Y-6373929D02*
X6270928Y-6388214D01*
X6328071Y-6388214D01*
X6356643Y-6373929D01*
X6370928Y-6345357D01*
X6370928Y-6331071D01*
X6356643Y-6302500D01*
X6328071Y-6288214D01*
X6285214Y-6288214D01*
X6256643Y-6273929D01*
X6242357Y-6245357D01*
X6242357Y-6231071D01*
X6256643Y-6202500D01*
X6285214Y-6188214D01*
X6328071Y-6188214D01*
X6356643Y-6202500D01*
X6470928Y-6502500D02*
X6485214Y-6488214D01*
X6513786Y-6445357D01*
X6528071Y-6416786D01*
X6542357Y-6373929D01*
X6556643Y-6302500D01*
X6556643Y-6245357D01*
X6542357Y-6173929D01*
X6528071Y-6131071D01*
X6513786Y-6102500D01*
X6485214Y-6059643D01*
X6470928Y-6045357D01*
M02*
