%FSLAX45Y45*%
G04 Gerber Fmt 4.5, Leading zero omitted, Abs format (unit mm)*
G04 Created by KiCad (PCBNEW 0.201503110816+5502~22~ubuntu14.04.1-product) date ថ្ងៃ​អាទិត្យ ថ្ងៃ 29 ខែ មិនា ឆ្នាំ  2015, 13 ម៉ោង m នាទី 20 វិនាទី​*
%MOMM*%
G01*
G04 APERTURE LIST*
%ADD10C,0.127000*%
%ADD11C,0.050000*%
%ADD12C,0.200000*%
%ADD13C,0.300000*%
G04 APERTURE END LIST*
D10*
D11*
X9300000Y-10646000D02*
X9335000Y-10641000D01*
X9064000Y-10641000D02*
X9100000Y-10646000D01*
X9036000Y-10606000D02*
X9037000Y-10610000D01*
X9034000Y-10602000D02*
X9036000Y-10606000D01*
X9030000Y-10598000D02*
X9034000Y-10602000D01*
X9026000Y-10596000D02*
X9030000Y-10598000D01*
X9037000Y-10610000D02*
X9039000Y-10617000D01*
X9060000Y-10640000D02*
X9064000Y-10641000D01*
X9052000Y-10636000D02*
X9060000Y-10640000D01*
X9046000Y-10630000D02*
X9052000Y-10636000D01*
X9042000Y-10624000D02*
X9046000Y-10630000D01*
X9039000Y-10617000D02*
X9042000Y-10624000D01*
X9343000Y-10639000D02*
X9335000Y-10641000D01*
X9351000Y-10634000D02*
X9343000Y-10639000D01*
X9357000Y-10626000D02*
X9351000Y-10634000D01*
X9362000Y-10614000D02*
X9357000Y-10626000D01*
X9378000Y-8707000D02*
X9400000Y-8610000D01*
X9024000Y-8707000D02*
X9378000Y-8707000D01*
X9000000Y-8610000D02*
X9024000Y-8707000D01*
X8368000Y-9957000D02*
X8270000Y-9995000D01*
X8555000Y-10244000D02*
X8368000Y-9957000D01*
X8485000Y-10315000D02*
X8555000Y-10244000D01*
X10033000Y-9957000D02*
X10125000Y-10000000D01*
X9844000Y-10245000D02*
X10033000Y-9957000D01*
X9915000Y-10315000D02*
X9844000Y-10245000D01*
X9375000Y-10596000D02*
X9400000Y-10590000D01*
X9369000Y-10600000D02*
X9375000Y-10596000D01*
X9365000Y-10604000D02*
X9369000Y-10600000D01*
X9362000Y-10612000D02*
X9365000Y-10604000D01*
X9100000Y-10646000D02*
X9300000Y-10646000D01*
X9000000Y-10590000D02*
X9026000Y-10596000D01*
X9915000Y-10315000D02*
X9830000Y-10390000D01*
X10140000Y-9970000D02*
X10125000Y-10000000D01*
X8485000Y-10315000D02*
X8500000Y-10330000D01*
X8260000Y-9970000D02*
X8270000Y-9995000D01*
X9640000Y-8690000D02*
X9570000Y-8660000D01*
X9730000Y-8740000D02*
X9640000Y-8690000D01*
X9830000Y-8810000D02*
X9730000Y-8740000D01*
X9910000Y-8880000D02*
X9830000Y-8810000D01*
X9990000Y-8970000D02*
X9910000Y-8880000D01*
X10060000Y-9070000D02*
X9990000Y-8970000D01*
X10120000Y-9180000D02*
X10060000Y-9070000D01*
X10170000Y-9310000D02*
X10120000Y-9180000D01*
X10200000Y-9450000D02*
X10170000Y-9310000D01*
X10210000Y-9560000D02*
X10200000Y-9450000D01*
X10210000Y-9650000D02*
X10210000Y-9560000D01*
X10200000Y-9750000D02*
X10210000Y-9650000D01*
X10170000Y-9880000D02*
X10200000Y-9750000D01*
X10140000Y-9970000D02*
X10170000Y-9880000D01*
X9730000Y-10460000D02*
X9830000Y-10390000D01*
X9600000Y-10530000D02*
X9730000Y-10460000D01*
X9480000Y-10570000D02*
X9600000Y-10530000D01*
X9400000Y-10590000D02*
X9480000Y-10570000D01*
X8890000Y-10560000D02*
X9000000Y-10590000D01*
X8760000Y-10510000D02*
X8890000Y-10560000D01*
X8670000Y-10460000D02*
X8760000Y-10510000D01*
X8580000Y-10400000D02*
X8670000Y-10460000D01*
X8500000Y-10330000D02*
X8580000Y-10400000D01*
X8220000Y-9850000D02*
X8260000Y-9970000D01*
X8200000Y-9740000D02*
X8220000Y-9850000D01*
X8190000Y-9640000D02*
X8200000Y-9740000D01*
X8190000Y-9560000D02*
X8190000Y-9640000D01*
X8200000Y-9460000D02*
X8190000Y-9560000D01*
X8210000Y-9400000D02*
X8200000Y-9460000D01*
X8230000Y-9320000D02*
X8210000Y-9400000D01*
X8260000Y-9230000D02*
X8230000Y-9320000D01*
X8290000Y-9160000D02*
X8260000Y-9230000D01*
X8310000Y-9120000D02*
X8290000Y-9160000D01*
X8360000Y-9040000D02*
X8310000Y-9120000D01*
X8410000Y-8970000D02*
X8360000Y-9040000D01*
X8490000Y-8880000D02*
X8410000Y-8970000D01*
X8570000Y-8810000D02*
X8490000Y-8880000D01*
X8640000Y-8760000D02*
X8570000Y-8810000D01*
X8720000Y-8710000D02*
X8640000Y-8760000D01*
X8830000Y-8660000D02*
X8720000Y-8710000D01*
X8920000Y-8630000D02*
X8830000Y-8660000D01*
X9000000Y-8610000D02*
X8920000Y-8630000D01*
X9480000Y-8630000D02*
X9400000Y-8610000D01*
X9570000Y-8660000D02*
X9480000Y-8630000D01*
X10700000Y-9600000D02*
G75*
G03X10700000Y-9600000I-1500000J0D01*
G01*
D12*
X7959000Y-9106000D02*
X7969000Y-9116000D01*
X7969000Y-9106000D02*
X7959000Y-9116000D01*
X7992000Y-9027000D02*
X8002000Y-9037000D01*
X8002000Y-9027000D02*
X7992000Y-9037000D01*
X8600000Y-8484000D02*
X8610000Y-8494000D01*
X8610000Y-8484000D02*
X8600000Y-8494000D01*
X8601000Y-10600000D02*
X8611000Y-10610000D01*
X8611000Y-10600000D02*
X8601000Y-10610000D01*
X8705000Y-8252000D02*
X8715000Y-8262000D01*
X8715000Y-8252000D02*
X8705000Y-8262000D01*
X8731000Y-8318000D02*
X8741000Y-8328000D01*
X8741000Y-8318000D02*
X8731000Y-8328000D01*
X8841000Y-8318000D02*
X8851000Y-8328000D01*
X8851000Y-8318000D02*
X8841000Y-8328000D01*
D13*
X7968928Y-11568214D02*
X7968928Y-11268214D01*
X8040357Y-11268214D01*
X8083214Y-11282500D01*
X8111786Y-11311071D01*
X8126071Y-11339643D01*
X8140357Y-11396786D01*
X8140357Y-11439643D01*
X8126071Y-11496786D01*
X8111786Y-11525357D01*
X8083214Y-11553929D01*
X8040357Y-11568214D01*
X7968928Y-11568214D01*
X8268928Y-11568214D02*
X8268928Y-11368214D01*
X8268928Y-11425357D02*
X8283214Y-11396786D01*
X8297500Y-11382500D01*
X8326071Y-11368214D01*
X8354643Y-11368214D01*
X8454643Y-11568214D02*
X8454643Y-11368214D01*
X8454643Y-11268214D02*
X8440357Y-11282500D01*
X8454643Y-11296786D01*
X8468929Y-11282500D01*
X8454643Y-11268214D01*
X8454643Y-11296786D01*
X8640357Y-11568214D02*
X8611786Y-11553929D01*
X8597500Y-11525357D01*
X8597500Y-11268214D01*
X8797500Y-11568214D02*
X8768929Y-11553929D01*
X8754643Y-11525357D01*
X8754643Y-11268214D01*
X9140357Y-11568214D02*
X9140357Y-11268214D01*
X9240357Y-11482500D01*
X9340357Y-11268214D01*
X9340357Y-11568214D01*
X9611786Y-11568214D02*
X9611786Y-11411071D01*
X9597500Y-11382500D01*
X9568929Y-11368214D01*
X9511786Y-11368214D01*
X9483214Y-11382500D01*
X9611786Y-11553929D02*
X9583214Y-11568214D01*
X9511786Y-11568214D01*
X9483214Y-11553929D01*
X9468929Y-11525357D01*
X9468929Y-11496786D01*
X9483214Y-11468214D01*
X9511786Y-11453929D01*
X9583214Y-11453929D01*
X9611786Y-11439643D01*
X9754643Y-11368214D02*
X9754643Y-11668214D01*
X9754643Y-11382500D02*
X9783214Y-11368214D01*
X9840357Y-11368214D01*
X9868929Y-11382500D01*
X9883214Y-11396786D01*
X9897500Y-11425357D01*
X9897500Y-11511071D01*
X9883214Y-11539643D01*
X9868929Y-11553929D01*
X9840357Y-11568214D01*
X9783214Y-11568214D01*
X9754643Y-11553929D01*
X10026071Y-11539643D02*
X10040357Y-11553929D01*
X10026071Y-11568214D01*
X10011786Y-11553929D01*
X10026071Y-11539643D01*
X10026071Y-11568214D01*
X10026071Y-11382500D02*
X10040357Y-11396786D01*
X10026071Y-11411071D01*
X10011786Y-11396786D01*
X10026071Y-11382500D01*
X10026071Y-11411071D01*
X7687500Y-12057500D02*
X7697500Y-12067500D01*
X7697500Y-12057500D02*
X7687500Y-12067500D01*
X8026071Y-11898214D02*
X8054643Y-11898214D01*
X8083214Y-11912500D01*
X8097500Y-11926786D01*
X8111786Y-11955357D01*
X8126071Y-12012500D01*
X8126071Y-12083929D01*
X8111786Y-12141071D01*
X8097500Y-12169643D01*
X8083214Y-12183929D01*
X8054643Y-12198214D01*
X8026071Y-12198214D01*
X7997500Y-12183929D01*
X7983214Y-12169643D01*
X7968928Y-12141071D01*
X7954643Y-12083929D01*
X7954643Y-12012500D01*
X7968928Y-11955357D01*
X7983214Y-11926786D01*
X7997500Y-11912500D01*
X8026071Y-11898214D01*
X8254643Y-12169643D02*
X8268928Y-12183929D01*
X8254643Y-12198214D01*
X8240357Y-12183929D01*
X8254643Y-12169643D01*
X8254643Y-12198214D01*
X8554643Y-12198214D02*
X8383214Y-12198214D01*
X8468928Y-12198214D02*
X8468928Y-11898214D01*
X8440357Y-11941071D01*
X8411786Y-11969643D01*
X8383214Y-11983929D01*
X8740357Y-11898214D02*
X8768929Y-11898214D01*
X8797500Y-11912500D01*
X8811786Y-11926786D01*
X8826071Y-11955357D01*
X8840357Y-12012500D01*
X8840357Y-12083929D01*
X8826071Y-12141071D01*
X8811786Y-12169643D01*
X8797500Y-12183929D01*
X8768929Y-12198214D01*
X8740357Y-12198214D01*
X8711786Y-12183929D01*
X8697500Y-12169643D01*
X8683214Y-12141071D01*
X8668929Y-12083929D01*
X8668929Y-12012500D01*
X8683214Y-11955357D01*
X8697500Y-11926786D01*
X8711786Y-11912500D01*
X8740357Y-11898214D01*
X8968929Y-12198214D02*
X8968929Y-11998214D01*
X8968929Y-12026786D02*
X8983214Y-12012500D01*
X9011786Y-11998214D01*
X9054643Y-11998214D01*
X9083214Y-12012500D01*
X9097500Y-12041071D01*
X9097500Y-12198214D01*
X9097500Y-12041071D02*
X9111786Y-12012500D01*
X9140357Y-11998214D01*
X9183214Y-11998214D01*
X9211786Y-12012500D01*
X9226071Y-12041071D01*
X9226071Y-12198214D01*
X9368929Y-12198214D02*
X9368929Y-11998214D01*
X9368929Y-12026786D02*
X9383214Y-12012500D01*
X9411786Y-11998214D01*
X9454643Y-11998214D01*
X9483214Y-12012500D01*
X9497500Y-12041071D01*
X9497500Y-12198214D01*
X9497500Y-12041071D02*
X9511786Y-12012500D01*
X9540357Y-11998214D01*
X9583214Y-11998214D01*
X9611786Y-12012500D01*
X9626071Y-12041071D01*
X9626071Y-12198214D01*
X10211786Y-11883929D02*
X9954643Y-12269643D01*
X10597500Y-11898214D02*
X10626071Y-11898214D01*
X10654643Y-11912500D01*
X10668928Y-11926786D01*
X10683214Y-11955357D01*
X10697500Y-12012500D01*
X10697500Y-12083929D01*
X10683214Y-12141071D01*
X10668928Y-12169643D01*
X10654643Y-12183929D01*
X10626071Y-12198214D01*
X10597500Y-12198214D01*
X10568928Y-12183929D01*
X10554643Y-12169643D01*
X10540357Y-12141071D01*
X10526071Y-12083929D01*
X10526071Y-12012500D01*
X10540357Y-11955357D01*
X10554643Y-11926786D01*
X10568928Y-11912500D01*
X10597500Y-11898214D01*
X10826071Y-12169643D02*
X10840357Y-12183929D01*
X10826071Y-12198214D01*
X10811786Y-12183929D01*
X10826071Y-12169643D01*
X10826071Y-12198214D01*
X11026071Y-11898214D02*
X11054643Y-11898214D01*
X11083214Y-11912500D01*
X11097500Y-11926786D01*
X11111786Y-11955357D01*
X11126071Y-12012500D01*
X11126071Y-12083929D01*
X11111786Y-12141071D01*
X11097500Y-12169643D01*
X11083214Y-12183929D01*
X11054643Y-12198214D01*
X11026071Y-12198214D01*
X10997500Y-12183929D01*
X10983214Y-12169643D01*
X10968928Y-12141071D01*
X10954643Y-12083929D01*
X10954643Y-12012500D01*
X10968928Y-11955357D01*
X10983214Y-11926786D01*
X10997500Y-11912500D01*
X11026071Y-11898214D01*
X11311785Y-11898214D02*
X11340357Y-11898214D01*
X11368928Y-11912500D01*
X11383214Y-11926786D01*
X11397500Y-11955357D01*
X11411785Y-12012500D01*
X11411785Y-12083929D01*
X11397500Y-12141071D01*
X11383214Y-12169643D01*
X11368928Y-12183929D01*
X11340357Y-12198214D01*
X11311785Y-12198214D01*
X11283214Y-12183929D01*
X11268928Y-12169643D01*
X11254643Y-12141071D01*
X11240357Y-12083929D01*
X11240357Y-12012500D01*
X11254643Y-11955357D01*
X11268928Y-11926786D01*
X11283214Y-11912500D01*
X11311785Y-11898214D01*
X11668928Y-11998214D02*
X11668928Y-12198214D01*
X11597500Y-11883929D02*
X11526071Y-12098214D01*
X11711785Y-12098214D01*
X11811786Y-11898214D02*
X11811786Y-11955357D01*
X11926071Y-11898214D02*
X11926071Y-11955357D01*
X12368928Y-12312500D02*
X12354643Y-12298214D01*
X12326071Y-12255357D01*
X12311785Y-12226786D01*
X12297500Y-12183929D01*
X12283214Y-12112500D01*
X12283214Y-12055357D01*
X12297500Y-11983929D01*
X12311785Y-11941071D01*
X12326071Y-11912500D01*
X12354643Y-11869643D01*
X12368928Y-11855357D01*
X12454643Y-11898214D02*
X12654643Y-11898214D01*
X12526071Y-12198214D01*
X12997500Y-12198214D02*
X12997500Y-11898214D01*
X13126071Y-12198214D02*
X13126071Y-12041071D01*
X13111785Y-12012500D01*
X13083214Y-11998214D01*
X13040357Y-11998214D01*
X13011785Y-12012500D01*
X12997500Y-12026786D01*
X13311785Y-12198214D02*
X13283214Y-12183929D01*
X13268928Y-12169643D01*
X13254643Y-12141071D01*
X13254643Y-12055357D01*
X13268928Y-12026786D01*
X13283214Y-12012500D01*
X13311785Y-11998214D01*
X13354643Y-11998214D01*
X13383214Y-12012500D01*
X13397500Y-12026786D01*
X13411785Y-12055357D01*
X13411785Y-12141071D01*
X13397500Y-12169643D01*
X13383214Y-12183929D01*
X13354643Y-12198214D01*
X13311785Y-12198214D01*
X13583214Y-12198214D02*
X13554643Y-12183929D01*
X13540357Y-12155357D01*
X13540357Y-11898214D01*
X13811786Y-12183929D02*
X13783214Y-12198214D01*
X13726071Y-12198214D01*
X13697500Y-12183929D01*
X13683214Y-12155357D01*
X13683214Y-12041071D01*
X13697500Y-12012500D01*
X13726071Y-11998214D01*
X13783214Y-11998214D01*
X13811786Y-12012500D01*
X13826071Y-12041071D01*
X13826071Y-12069643D01*
X13683214Y-12098214D01*
X13940357Y-12183929D02*
X13968928Y-12198214D01*
X14026071Y-12198214D01*
X14054643Y-12183929D01*
X14068928Y-12155357D01*
X14068928Y-12141071D01*
X14054643Y-12112500D01*
X14026071Y-12098214D01*
X13983214Y-12098214D01*
X13954643Y-12083929D01*
X13940357Y-12055357D01*
X13940357Y-12041071D01*
X13954643Y-12012500D01*
X13983214Y-11998214D01*
X14026071Y-11998214D01*
X14054643Y-12012500D01*
X14168928Y-12312500D02*
X14183214Y-12298214D01*
X14211786Y-12255357D01*
X14226071Y-12226786D01*
X14240357Y-12183929D01*
X14254643Y-12112500D01*
X14254643Y-12055357D01*
X14240357Y-11983929D01*
X14226071Y-11941071D01*
X14211786Y-11912500D01*
X14183214Y-11869643D01*
X14168928Y-11855357D01*
M02*
