%FSLAX45Y45*%
G04 Gerber Fmt 4.5, Leading zero omitted, Abs format (unit mm)*
G04 Created by KiCad (PCBNEW 0.201503110816+5502~22~ubuntu14.04.1-product) date ថ្ងៃ​អាទិត្យ ថ្ងៃ 29 ខែ មិនា ឆ្នាំ  2015, 13 ម៉ោង m នាទី 20 វិនាទី​*
%MOMM*%
G01*
G04 APERTURE LIST*
%ADD10C,0.127000*%
%ADD11C,0.050000*%
%ADD12C,0.200000*%
%ADD13C,0.300000*%
G04 APERTURE END LIST*
D10*
D11*
X9300000Y-10646000D02*
X9335000Y-10641000D01*
X9064000Y-10641000D02*
X9100000Y-10646000D01*
X9036000Y-10606000D02*
X9037000Y-10610000D01*
X9034000Y-10602000D02*
X9036000Y-10606000D01*
X9030000Y-10598000D02*
X9034000Y-10602000D01*
X9026000Y-10596000D02*
X9030000Y-10598000D01*
X9037000Y-10610000D02*
X9039000Y-10617000D01*
X9060000Y-10640000D02*
X9064000Y-10641000D01*
X9052000Y-10636000D02*
X9060000Y-10640000D01*
X9046000Y-10630000D02*
X9052000Y-10636000D01*
X9042000Y-10624000D02*
X9046000Y-10630000D01*
X9039000Y-10617000D02*
X9042000Y-10624000D01*
X9343000Y-10639000D02*
X9335000Y-10641000D01*
X9351000Y-10634000D02*
X9343000Y-10639000D01*
X9357000Y-10626000D02*
X9351000Y-10634000D01*
X9362000Y-10614000D02*
X9357000Y-10626000D01*
X9378000Y-8707000D02*
X9400000Y-8610000D01*
X9024000Y-8707000D02*
X9378000Y-8707000D01*
X9000000Y-8610000D02*
X9024000Y-8707000D01*
X8368000Y-9957000D02*
X8270000Y-9995000D01*
X8555000Y-10244000D02*
X8368000Y-9957000D01*
X8485000Y-10315000D02*
X8555000Y-10244000D01*
X10033000Y-9957000D02*
X10125000Y-10000000D01*
X9844000Y-10245000D02*
X10033000Y-9957000D01*
X9915000Y-10315000D02*
X9844000Y-10245000D01*
X9375000Y-10596000D02*
X9400000Y-10590000D01*
X9369000Y-10600000D02*
X9375000Y-10596000D01*
X9365000Y-10604000D02*
X9369000Y-10600000D01*
X9362000Y-10612000D02*
X9365000Y-10604000D01*
X9100000Y-10646000D02*
X9300000Y-10646000D01*
X9000000Y-10590000D02*
X9026000Y-10596000D01*
X9915000Y-10315000D02*
X9830000Y-10390000D01*
X10140000Y-9970000D02*
X10125000Y-10000000D01*
X8485000Y-10315000D02*
X8500000Y-10330000D01*
X8260000Y-9970000D02*
X8270000Y-9995000D01*
X9640000Y-8690000D02*
X9570000Y-8660000D01*
X9730000Y-8740000D02*
X9640000Y-8690000D01*
X9830000Y-8810000D02*
X9730000Y-8740000D01*
X9910000Y-8880000D02*
X9830000Y-8810000D01*
X9990000Y-8970000D02*
X9910000Y-8880000D01*
X10060000Y-9070000D02*
X9990000Y-8970000D01*
X10120000Y-9180000D02*
X10060000Y-9070000D01*
X10170000Y-9310000D02*
X10120000Y-9180000D01*
X10200000Y-9450000D02*
X10170000Y-9310000D01*
X10210000Y-9560000D02*
X10200000Y-9450000D01*
X10210000Y-9650000D02*
X10210000Y-9560000D01*
X10200000Y-9750000D02*
X10210000Y-9650000D01*
X10170000Y-9880000D02*
X10200000Y-9750000D01*
X10140000Y-9970000D02*
X10170000Y-9880000D01*
X9730000Y-10460000D02*
X9830000Y-10390000D01*
X9600000Y-10530000D02*
X9730000Y-10460000D01*
X9480000Y-10570000D02*
X9600000Y-10530000D01*
X9400000Y-10590000D02*
X9480000Y-10570000D01*
X8890000Y-10560000D02*
X9000000Y-10590000D01*
X8760000Y-10510000D02*
X8890000Y-10560000D01*
X8670000Y-10460000D02*
X8760000Y-10510000D01*
X8580000Y-10400000D02*
X8670000Y-10460000D01*
X8500000Y-10330000D02*
X8580000Y-10400000D01*
X8220000Y-9850000D02*
X8260000Y-9970000D01*
X8200000Y-9740000D02*
X8220000Y-9850000D01*
X8190000Y-9640000D02*
X8200000Y-9740000D01*
X8190000Y-9560000D02*
X8190000Y-9640000D01*
X8200000Y-9460000D02*
X8190000Y-9560000D01*
X8210000Y-9400000D02*
X8200000Y-9460000D01*
X8230000Y-9320000D02*
X8210000Y-9400000D01*
X8260000Y-9230000D02*
X8230000Y-9320000D01*
X8290000Y-9160000D02*
X8260000Y-9230000D01*
X8310000Y-9120000D02*
X8290000Y-9160000D01*
X8360000Y-9040000D02*
X8310000Y-9120000D01*
X8410000Y-8970000D02*
X8360000Y-9040000D01*
X8490000Y-8880000D02*
X8410000Y-8970000D01*
X8570000Y-8810000D02*
X8490000Y-8880000D01*
X8640000Y-8760000D02*
X8570000Y-8810000D01*
X8720000Y-8710000D02*
X8640000Y-8760000D01*
X8830000Y-8660000D02*
X8720000Y-8710000D01*
X8920000Y-8630000D02*
X8830000Y-8660000D01*
X9000000Y-8610000D02*
X8920000Y-8630000D01*
X9480000Y-8630000D02*
X9400000Y-8610000D01*
X9570000Y-8660000D02*
X9480000Y-8630000D01*
X10700000Y-9600000D02*
G75*
G03X10700000Y-9600000I-1500000J0D01*
G01*
D12*
X7870142Y-9280495D02*
X7880142Y-9290495D01*
X7880142Y-9280495D02*
X7870142Y-9290495D01*
X7880495Y-9241858D02*
X7890495Y-9251858D01*
X7890495Y-9241858D02*
X7880495Y-9251858D01*
X7896000Y-8987000D02*
X7906000Y-8997000D01*
X7906000Y-8987000D02*
X7896000Y-8997000D01*
X7945000Y-9595000D02*
X7955000Y-9605000D01*
X7955000Y-9595000D02*
X7945000Y-9605000D01*
X7945000Y-9740000D02*
X7955000Y-9750000D01*
X7955000Y-9740000D02*
X7945000Y-9750000D01*
X7951813Y-9088271D02*
X7961813Y-9098271D01*
X7961813Y-9088271D02*
X7951813Y-9098271D01*
X7980197Y-10225371D02*
X7990197Y-10235371D01*
X7990197Y-10225371D02*
X7980197Y-10235371D01*
X7999000Y-9790000D02*
X8009000Y-9800000D01*
X8009000Y-9790000D02*
X7999000Y-9800000D01*
X8004000Y-9931000D02*
X8014000Y-9941000D01*
X8014000Y-9931000D02*
X8004000Y-9941000D01*
X8012000Y-9845000D02*
X8022000Y-9855000D01*
X8022000Y-9845000D02*
X8012000Y-9855000D01*
X8059947Y-10376547D02*
X8069947Y-10386547D01*
X8069947Y-10376547D02*
X8059947Y-10386547D01*
X8073643Y-8905146D02*
X8083643Y-8915146D01*
X8083643Y-8905146D02*
X8073643Y-8915146D01*
X8089803Y-9964629D02*
X8099803Y-9974629D01*
X8099803Y-9964629D02*
X8089803Y-9974629D01*
X8126187Y-9163729D02*
X8136187Y-9173729D01*
X8136187Y-9163729D02*
X8126187Y-9173729D01*
X8130197Y-8715490D02*
X8140197Y-8725490D01*
X8140197Y-8715490D02*
X8130197Y-8725490D01*
X8149357Y-8986854D02*
X8159357Y-8996854D01*
X8159357Y-8986854D02*
X8149357Y-8996854D01*
X8152001Y-9104075D02*
X8162001Y-9114075D01*
X8162001Y-9104075D02*
X8152001Y-9114075D01*
X8201931Y-10501851D02*
X8211931Y-10511851D01*
X8211931Y-10501851D02*
X8201931Y-10511851D01*
X8223847Y-10434901D02*
X8233847Y-10444901D01*
X8233847Y-10434901D02*
X8223847Y-10444901D01*
X8246471Y-8929453D02*
X8256471Y-8939453D01*
X8256471Y-8929453D02*
X8246471Y-8939453D01*
X8273528Y-8602547D02*
X8283528Y-8612547D01*
X8283528Y-8602547D02*
X8273528Y-8612547D01*
X8287000Y-8679000D02*
X8297000Y-8689000D01*
X8297000Y-8679000D02*
X8287000Y-8689000D01*
X8324000Y-8891000D02*
X8334000Y-8901000D01*
X8334000Y-8891000D02*
X8324000Y-8901000D01*
X8347492Y-8669848D02*
X8357492Y-8679848D01*
X8357492Y-8669848D02*
X8347492Y-8679848D01*
X8376089Y-10415281D02*
X8386089Y-10425281D01*
X8386089Y-10415281D02*
X8376089Y-10425281D01*
X8384473Y-8703499D02*
X8394473Y-8713499D01*
X8394473Y-8703499D02*
X8384473Y-8713499D01*
X8393403Y-8506756D02*
X8403403Y-8516756D01*
X8403403Y-8506756D02*
X8393403Y-8516756D01*
X8418069Y-10458150D02*
X8428069Y-10468150D01*
X8428069Y-10458150D02*
X8418069Y-10468150D01*
X8484597Y-8445244D02*
X8494597Y-8455244D01*
X8494597Y-8445244D02*
X8484597Y-8455244D01*
X8566000Y-10480000D02*
X8576000Y-10490000D01*
X8576000Y-10480000D02*
X8566000Y-10490000D01*
X8577000Y-8444000D02*
X8587000Y-8454000D01*
X8587000Y-8444000D02*
X8577000Y-8454000D01*
X8593643Y-10643146D02*
X8603643Y-10653146D01*
X8603643Y-10643146D02*
X8593643Y-10653146D01*
X8595330Y-8366604D02*
X8605330Y-8376604D01*
X8605330Y-8366604D02*
X8595330Y-8376604D01*
X8656000Y-8400000D02*
X8666000Y-8410000D01*
X8666000Y-8400000D02*
X8656000Y-8410000D01*
X8660000Y-8278000D02*
X8670000Y-8288000D01*
X8670000Y-8278000D02*
X8660000Y-8288000D01*
X8689790Y-8598072D02*
X8699790Y-8608072D01*
X8699790Y-8598072D02*
X8689790Y-8608072D01*
X8743000Y-10604000D02*
X8753000Y-10614000D01*
X8753000Y-10604000D02*
X8743000Y-10614000D01*
X8776000Y-10575000D02*
X8786000Y-10585000D01*
X8786000Y-10575000D02*
X8776000Y-10585000D01*
X8782000Y-8390000D02*
X8792000Y-8400000D01*
X8792000Y-8390000D02*
X8782000Y-8400000D01*
X8785047Y-8250293D02*
X8795047Y-8260293D01*
X8795047Y-8250293D02*
X8785047Y-8260293D01*
X8797958Y-8287669D02*
X8807958Y-8297669D01*
X8807958Y-8287669D02*
X8797958Y-8297669D01*
X8811285Y-8326247D02*
X8821285Y-8336247D01*
X8821285Y-8326247D02*
X8811285Y-8336247D01*
X8816288Y-8366522D02*
X8826288Y-8376522D01*
X8826288Y-8366522D02*
X8816288Y-8376522D01*
X8829405Y-8401850D02*
X8839405Y-8411850D01*
X8839405Y-8401850D02*
X8829405Y-8411850D01*
X8866408Y-8451564D02*
X8876408Y-8461564D01*
X8876408Y-8451564D02*
X8866408Y-8461564D01*
X8890187Y-8473800D02*
X8900187Y-8483800D01*
X8900187Y-8473800D02*
X8890187Y-8483800D01*
X8903000Y-8367000D02*
X8913000Y-8377000D01*
X8913000Y-8367000D02*
X8903000Y-8377000D01*
X8923011Y-8504495D02*
X8933011Y-8514495D01*
X8933011Y-8504495D02*
X8923011Y-8514495D01*
X8948051Y-8460158D02*
X8958051Y-8470158D01*
X8958051Y-8460158D02*
X8948051Y-8470158D01*
X8976802Y-8435920D02*
X8986802Y-8445920D01*
X8986802Y-8435920D02*
X8976802Y-8445920D01*
X9015163Y-8428887D02*
X9025163Y-8438887D01*
X9025163Y-8428887D02*
X9015163Y-8438887D01*
X9020000Y-8288000D02*
X9030000Y-8298000D01*
X9030000Y-8288000D02*
X9020000Y-8298000D01*
X9020000Y-8334000D02*
X9030000Y-8344000D01*
X9030000Y-8334000D02*
X9020000Y-8344000D01*
X9020000Y-8384000D02*
X9030000Y-8394000D01*
X9030000Y-8384000D02*
X9020000Y-8394000D01*
X9082000Y-10991000D02*
X9092000Y-11001000D01*
X9092000Y-10991000D02*
X9082000Y-11001000D01*
X9103000Y-8217000D02*
X9113000Y-8227000D01*
X9113000Y-8217000D02*
X9103000Y-8227000D01*
X9477079Y-8447836D02*
X9487079Y-8457836D01*
X9487079Y-8447836D02*
X9477079Y-8457836D01*
X9500469Y-8371332D02*
X9510469Y-8381332D01*
X9510469Y-8371332D02*
X9500469Y-8381332D01*
X9512164Y-8333079D02*
X9522164Y-8343079D01*
X9522164Y-8333079D02*
X9512164Y-8343079D01*
X9515332Y-8459531D02*
X9525332Y-8469531D01*
X9525332Y-8459531D02*
X9515332Y-8469531D01*
X9550416Y-8344774D02*
X9560416Y-8354774D01*
X9560416Y-8344774D02*
X9550416Y-8354774D01*
X9553584Y-8471226D02*
X9563584Y-8481226D01*
X9563584Y-8471226D02*
X9553584Y-8481226D01*
X9576974Y-8394721D02*
X9586974Y-8404721D01*
X9586974Y-8394721D02*
X9576974Y-8404721D01*
X9591836Y-8482921D02*
X9601836Y-8492921D01*
X9601836Y-8482921D02*
X9591836Y-8492921D01*
X9603531Y-8444668D02*
X9613531Y-8454668D01*
X9613531Y-8444668D02*
X9603531Y-8454668D01*
X9653478Y-8418111D02*
X9663478Y-8428111D01*
X9663478Y-8418111D02*
X9653478Y-8428111D01*
X9781500Y-8647631D02*
X9791500Y-8657631D01*
X9791500Y-8647631D02*
X9781500Y-8657631D01*
D13*
X7968928Y-11568214D02*
X7968928Y-11268214D01*
X8040357Y-11268214D01*
X8083214Y-11282500D01*
X8111786Y-11311071D01*
X8126071Y-11339643D01*
X8140357Y-11396786D01*
X8140357Y-11439643D01*
X8126071Y-11496786D01*
X8111786Y-11525357D01*
X8083214Y-11553929D01*
X8040357Y-11568214D01*
X7968928Y-11568214D01*
X8268928Y-11568214D02*
X8268928Y-11368214D01*
X8268928Y-11425357D02*
X8283214Y-11396786D01*
X8297500Y-11382500D01*
X8326071Y-11368214D01*
X8354643Y-11368214D01*
X8454643Y-11568214D02*
X8454643Y-11368214D01*
X8454643Y-11268214D02*
X8440357Y-11282500D01*
X8454643Y-11296786D01*
X8468929Y-11282500D01*
X8454643Y-11268214D01*
X8454643Y-11296786D01*
X8640357Y-11568214D02*
X8611786Y-11553929D01*
X8597500Y-11525357D01*
X8597500Y-11268214D01*
X8797500Y-11568214D02*
X8768929Y-11553929D01*
X8754643Y-11525357D01*
X8754643Y-11268214D01*
X9140357Y-11568214D02*
X9140357Y-11268214D01*
X9240357Y-11482500D01*
X9340357Y-11268214D01*
X9340357Y-11568214D01*
X9611786Y-11568214D02*
X9611786Y-11411071D01*
X9597500Y-11382500D01*
X9568929Y-11368214D01*
X9511786Y-11368214D01*
X9483214Y-11382500D01*
X9611786Y-11553929D02*
X9583214Y-11568214D01*
X9511786Y-11568214D01*
X9483214Y-11553929D01*
X9468929Y-11525357D01*
X9468929Y-11496786D01*
X9483214Y-11468214D01*
X9511786Y-11453929D01*
X9583214Y-11453929D01*
X9611786Y-11439643D01*
X9754643Y-11368214D02*
X9754643Y-11668214D01*
X9754643Y-11382500D02*
X9783214Y-11368214D01*
X9840357Y-11368214D01*
X9868929Y-11382500D01*
X9883214Y-11396786D01*
X9897500Y-11425357D01*
X9897500Y-11511071D01*
X9883214Y-11539643D01*
X9868929Y-11553929D01*
X9840357Y-11568214D01*
X9783214Y-11568214D01*
X9754643Y-11553929D01*
X10026071Y-11539643D02*
X10040357Y-11553929D01*
X10026071Y-11568214D01*
X10011786Y-11553929D01*
X10026071Y-11539643D01*
X10026071Y-11568214D01*
X10026071Y-11382500D02*
X10040357Y-11396786D01*
X10026071Y-11411071D01*
X10011786Y-11396786D01*
X10026071Y-11382500D01*
X10026071Y-11411071D01*
X7687500Y-12057500D02*
X7697500Y-12067500D01*
X7697500Y-12057500D02*
X7687500Y-12067500D01*
X8026071Y-11898214D02*
X8054643Y-11898214D01*
X8083214Y-11912500D01*
X8097500Y-11926786D01*
X8111786Y-11955357D01*
X8126071Y-12012500D01*
X8126071Y-12083929D01*
X8111786Y-12141071D01*
X8097500Y-12169643D01*
X8083214Y-12183929D01*
X8054643Y-12198214D01*
X8026071Y-12198214D01*
X7997500Y-12183929D01*
X7983214Y-12169643D01*
X7968928Y-12141071D01*
X7954643Y-12083929D01*
X7954643Y-12012500D01*
X7968928Y-11955357D01*
X7983214Y-11926786D01*
X7997500Y-11912500D01*
X8026071Y-11898214D01*
X8254643Y-12169643D02*
X8268928Y-12183929D01*
X8254643Y-12198214D01*
X8240357Y-12183929D01*
X8254643Y-12169643D01*
X8254643Y-12198214D01*
X8554643Y-12198214D02*
X8383214Y-12198214D01*
X8468928Y-12198214D02*
X8468928Y-11898214D01*
X8440357Y-11941071D01*
X8411786Y-11969643D01*
X8383214Y-11983929D01*
X8740357Y-11898214D02*
X8768929Y-11898214D01*
X8797500Y-11912500D01*
X8811786Y-11926786D01*
X8826071Y-11955357D01*
X8840357Y-12012500D01*
X8840357Y-12083929D01*
X8826071Y-12141071D01*
X8811786Y-12169643D01*
X8797500Y-12183929D01*
X8768929Y-12198214D01*
X8740357Y-12198214D01*
X8711786Y-12183929D01*
X8697500Y-12169643D01*
X8683214Y-12141071D01*
X8668929Y-12083929D01*
X8668929Y-12012500D01*
X8683214Y-11955357D01*
X8697500Y-11926786D01*
X8711786Y-11912500D01*
X8740357Y-11898214D01*
X8968929Y-12198214D02*
X8968929Y-11998214D01*
X8968929Y-12026786D02*
X8983214Y-12012500D01*
X9011786Y-11998214D01*
X9054643Y-11998214D01*
X9083214Y-12012500D01*
X9097500Y-12041071D01*
X9097500Y-12198214D01*
X9097500Y-12041071D02*
X9111786Y-12012500D01*
X9140357Y-11998214D01*
X9183214Y-11998214D01*
X9211786Y-12012500D01*
X9226071Y-12041071D01*
X9226071Y-12198214D01*
X9368929Y-12198214D02*
X9368929Y-11998214D01*
X9368929Y-12026786D02*
X9383214Y-12012500D01*
X9411786Y-11998214D01*
X9454643Y-11998214D01*
X9483214Y-12012500D01*
X9497500Y-12041071D01*
X9497500Y-12198214D01*
X9497500Y-12041071D02*
X9511786Y-12012500D01*
X9540357Y-11998214D01*
X9583214Y-11998214D01*
X9611786Y-12012500D01*
X9626071Y-12041071D01*
X9626071Y-12198214D01*
X10211786Y-11883929D02*
X9954643Y-12269643D01*
X10597500Y-11898214D02*
X10626071Y-11898214D01*
X10654643Y-11912500D01*
X10668928Y-11926786D01*
X10683214Y-11955357D01*
X10697500Y-12012500D01*
X10697500Y-12083929D01*
X10683214Y-12141071D01*
X10668928Y-12169643D01*
X10654643Y-12183929D01*
X10626071Y-12198214D01*
X10597500Y-12198214D01*
X10568928Y-12183929D01*
X10554643Y-12169643D01*
X10540357Y-12141071D01*
X10526071Y-12083929D01*
X10526071Y-12012500D01*
X10540357Y-11955357D01*
X10554643Y-11926786D01*
X10568928Y-11912500D01*
X10597500Y-11898214D01*
X10826071Y-12169643D02*
X10840357Y-12183929D01*
X10826071Y-12198214D01*
X10811786Y-12183929D01*
X10826071Y-12169643D01*
X10826071Y-12198214D01*
X11026071Y-11898214D02*
X11054643Y-11898214D01*
X11083214Y-11912500D01*
X11097500Y-11926786D01*
X11111786Y-11955357D01*
X11126071Y-12012500D01*
X11126071Y-12083929D01*
X11111786Y-12141071D01*
X11097500Y-12169643D01*
X11083214Y-12183929D01*
X11054643Y-12198214D01*
X11026071Y-12198214D01*
X10997500Y-12183929D01*
X10983214Y-12169643D01*
X10968928Y-12141071D01*
X10954643Y-12083929D01*
X10954643Y-12012500D01*
X10968928Y-11955357D01*
X10983214Y-11926786D01*
X10997500Y-11912500D01*
X11026071Y-11898214D01*
X11311785Y-11898214D02*
X11340357Y-11898214D01*
X11368928Y-11912500D01*
X11383214Y-11926786D01*
X11397500Y-11955357D01*
X11411785Y-12012500D01*
X11411785Y-12083929D01*
X11397500Y-12141071D01*
X11383214Y-12169643D01*
X11368928Y-12183929D01*
X11340357Y-12198214D01*
X11311785Y-12198214D01*
X11283214Y-12183929D01*
X11268928Y-12169643D01*
X11254643Y-12141071D01*
X11240357Y-12083929D01*
X11240357Y-12012500D01*
X11254643Y-11955357D01*
X11268928Y-11926786D01*
X11283214Y-11912500D01*
X11311785Y-11898214D01*
X11668928Y-11998214D02*
X11668928Y-12198214D01*
X11597500Y-11883929D02*
X11526071Y-12098214D01*
X11711785Y-12098214D01*
X11811786Y-11898214D02*
X11811786Y-11955357D01*
X11926071Y-11898214D02*
X11926071Y-11955357D01*
X12368928Y-12312500D02*
X12354643Y-12298214D01*
X12326071Y-12255357D01*
X12311785Y-12226786D01*
X12297500Y-12183929D01*
X12283214Y-12112500D01*
X12283214Y-12055357D01*
X12297500Y-11983929D01*
X12311785Y-11941071D01*
X12326071Y-11912500D01*
X12354643Y-11869643D01*
X12368928Y-11855357D01*
X12611785Y-11898214D02*
X12554643Y-11898214D01*
X12526071Y-11912500D01*
X12511785Y-11926786D01*
X12483214Y-11969643D01*
X12468928Y-12026786D01*
X12468928Y-12141071D01*
X12483214Y-12169643D01*
X12497500Y-12183929D01*
X12526071Y-12198214D01*
X12583214Y-12198214D01*
X12611785Y-12183929D01*
X12626071Y-12169643D01*
X12640357Y-12141071D01*
X12640357Y-12069643D01*
X12626071Y-12041071D01*
X12611785Y-12026786D01*
X12583214Y-12012500D01*
X12526071Y-12012500D01*
X12497500Y-12026786D01*
X12483214Y-12041071D01*
X12468928Y-12069643D01*
X12740357Y-11898214D02*
X12940357Y-11898214D01*
X12811785Y-12198214D01*
X13283214Y-12198214D02*
X13283214Y-11898214D01*
X13411785Y-12198214D02*
X13411785Y-12041071D01*
X13397500Y-12012500D01*
X13368928Y-11998214D01*
X13326071Y-11998214D01*
X13297500Y-12012500D01*
X13283214Y-12026786D01*
X13597500Y-12198214D02*
X13568928Y-12183929D01*
X13554643Y-12169643D01*
X13540357Y-12141071D01*
X13540357Y-12055357D01*
X13554643Y-12026786D01*
X13568928Y-12012500D01*
X13597500Y-11998214D01*
X13640357Y-11998214D01*
X13668928Y-12012500D01*
X13683214Y-12026786D01*
X13697500Y-12055357D01*
X13697500Y-12141071D01*
X13683214Y-12169643D01*
X13668928Y-12183929D01*
X13640357Y-12198214D01*
X13597500Y-12198214D01*
X13868928Y-12198214D02*
X13840357Y-12183929D01*
X13826071Y-12155357D01*
X13826071Y-11898214D01*
X14097500Y-12183929D02*
X14068928Y-12198214D01*
X14011786Y-12198214D01*
X13983214Y-12183929D01*
X13968928Y-12155357D01*
X13968928Y-12041071D01*
X13983214Y-12012500D01*
X14011786Y-11998214D01*
X14068928Y-11998214D01*
X14097500Y-12012500D01*
X14111786Y-12041071D01*
X14111786Y-12069643D01*
X13968928Y-12098214D01*
X14226071Y-12183929D02*
X14254643Y-12198214D01*
X14311786Y-12198214D01*
X14340357Y-12183929D01*
X14354643Y-12155357D01*
X14354643Y-12141071D01*
X14340357Y-12112500D01*
X14311786Y-12098214D01*
X14268928Y-12098214D01*
X14240357Y-12083929D01*
X14226071Y-12055357D01*
X14226071Y-12041071D01*
X14240357Y-12012500D01*
X14268928Y-11998214D01*
X14311786Y-11998214D01*
X14340357Y-12012500D01*
X14454643Y-12312500D02*
X14468928Y-12298214D01*
X14497500Y-12255357D01*
X14511786Y-12226786D01*
X14526071Y-12183929D01*
X14540357Y-12112500D01*
X14540357Y-12055357D01*
X14526071Y-11983929D01*
X14511786Y-11941071D01*
X14497500Y-11912500D01*
X14468928Y-11869643D01*
X14454643Y-11855357D01*
M02*
