M48
;DRILL file {kicad 0.201503110816+5502~22~ubuntu14.04.1-product} date ថ្ងៃ​អាទិត្យ ថ្ងៃ 29 ខែ មិនា ឆ្នាំ  2015, 13 ម៉ោង m នាទី 19 វិនាទី​
;FORMAT={-:-/ absolute / metric / decimal}
FMAT,2
METRIC,TZ
T1C0.100
%
G90
G05
M71
T1
X78.751Y-92.855
X78.855Y-92.469
X79.01Y-89.92
X79.5Y-96.
X79.5Y-97.45
X79.568Y-90.933
X79.852Y-102.304
X80.04Y-97.95
X80.09Y-99.36
X80.17Y-98.5
X80.649Y-103.815
X80.786Y-89.101
X80.948Y-99.696
X81.312Y-91.687
X81.352Y-87.205
X81.544Y-89.919
X81.57Y-91.091
X82.069Y-105.069
X82.288Y-104.399
X82.515Y-89.345
X82.785Y-86.075
X82.92Y-86.84
X83.29Y-88.96
X83.525Y-86.748
X83.811Y-104.203
X83.895Y-87.085
X83.984Y-85.118
X84.231Y-104.631
X84.896Y-84.502
X85.71Y-104.85
X85.82Y-84.49
X85.986Y-106.481
X86.003Y-83.716
X86.61Y-84.05
X86.65Y-82.83
X86.948Y-86.031
X87.48Y-106.09
X87.81Y-105.8
X87.87Y-83.95
X87.9Y-82.553
X88.03Y-82.927
X88.163Y-83.312
X88.213Y-83.715
X88.344Y-84.068
X88.714Y-84.566
X88.952Y-84.788
X89.08Y-83.72
X89.28Y-85.095
X89.531Y-84.652
X89.818Y-84.409
X90.202Y-84.339
X90.25Y-82.93
X90.25Y-83.39
X90.25Y-83.89
X90.87Y-109.96
X91.08Y-82.22
X94.821Y-84.528
X95.055Y-83.763
X95.172Y-83.381
X95.203Y-84.645
X95.554Y-83.498
X95.586Y-84.762
X95.82Y-83.997
X95.968Y-84.879
X96.085Y-84.497
X96.585Y-84.231
X97.865Y-86.526
T0
M30
