M48
;DRILL file {kicad 0.201503110816+5502~22~ubuntu14.04.1-product} date ថ្ងៃ​អាទិត្យ ថ្ងៃ 29 ខែ មិនា ឆ្នាំ  2015, 13 ម៉ោង m នាទី 19 វិនាទី​
;FORMAT={-:-/ absolute / metric / decimal}
FMAT,2
METRIC,TZ
T1C0.200
T2C0.500
T3C0.900
T4C1.200
%
G90
G05
M71
T1
X80.09Y-93.73
X80.44Y-89.87
X81.13Y-97.58
X81.29Y-90.53
X81.51Y-92.73
X81.84Y-100.39
X81.96Y-91.6
X82.21Y-88.19
X82.27Y-102.63
X82.76Y-88.54
X83.05Y-87.39
X83.135Y-104.824
X83.47Y-103.05
X84.25Y-105.97
X84.78Y-105.1
X84.92Y-87.21
X86.98Y-85.25
X88.03Y-82.15
X88.22Y-84.8
X88.22Y-106.56
X90.31Y-82.23
X91.11Y-85.
X91.77Y-85.
X91.99Y-83.36
X92.44Y-109.55
X92.55Y-85.02
X93.06Y-83.59
X93.21Y-82.15
X93.5Y-85.15
X94.13Y-85.42
X94.74Y-82.36
X94.75Y-85.63
X95.38Y-85.83
X95.63Y-82.56
X96.02Y-86.07
X96.26Y-82.73
X96.97Y-86.02
X97.41Y-83.27
X97.57Y-85.6
X97.94Y-85.04
X97.99Y-82.9
X98.63Y-86.34
X98.66Y-84.08
X99.12Y-87.93
X99.81Y-87.7
T2
X77.42Y-92.47
X77.76Y-91.3
X78.2Y-90.17
X78.71Y-89.06
X80.01Y-86.98
X80.78Y-86.03
X81.63Y-85.16
X83.57Y-83.6
X84.6Y-82.95
X85.68Y-82.39
X86.81Y-81.93
T3
X85.4Y-86.2
X85.65Y-108.32
X88.19Y-108.32
X89.46Y-106.92
X90.73Y-108.32
X93.27Y-108.32
X94.55Y-106.92
X95.82Y-108.32
X98.35Y-108.32
X98.6Y-105.8
T4
X85.243Y-102.738G85X83.157Y-99.562
G05
X90.1Y-86.65G85X93.9Y-86.65
G05
X91.6Y-106.5G85X92.4Y-106.5
G05
X100.846Y-99.564G85X98.754Y-102.736
G05
T0
M30
