G04 #@! TF.FileFunction,Paste,Top*
%FSLAX46Y46*%
G04 Gerber Fmt 4.6, Leading zero omitted, Abs format (unit mm)*
G04 Created by KiCad (PCBNEW 0.201503110816+5502~22~ubuntu14.04.1-product) date ថ្ងៃ​អាទិត្យ ថ្ងៃ 29 ខែ មិនា ឆ្នាំ  2015, 13 ម៉ោង m នាទី 44 វិនាទី​*
%MOMM*%
G01*
G04 APERTURE LIST*
%ADD10C,0.020000*%
%ADD11C,0.210000*%
%ADD12O,0.410000X0.810000*%
%ADD13R,0.760000X0.760000*%
%ADD14C,0.210000*%
%ADD15R,0.460000X0.460000*%
%ADD16R,0.800000X0.600000*%
%ADD17R,0.560000X0.460000*%
G04 APERTURE END LIST*
D10*
D11*
X96818676Y-83466067D03*
X96701728Y-83848589D03*
X96584779Y-84231111D03*
X96467830Y-84613633D03*
X96350882Y-84996155D03*
X96233933Y-85378676D03*
X96436155Y-83349118D03*
X96319206Y-83731640D03*
X96085309Y-84496684D03*
X95968360Y-84879206D03*
X95851411Y-85261728D03*
X96053633Y-83232170D03*
X95936684Y-83614691D03*
X95819735Y-83997213D03*
X95585838Y-84762257D03*
X95468889Y-85144779D03*
X95671111Y-83115221D03*
X95554162Y-83497743D03*
X95437213Y-83880265D03*
X95320265Y-84262787D03*
X95203316Y-84645309D03*
X95086367Y-85027830D03*
X95288589Y-82998272D03*
X95171640Y-83380794D03*
X95054691Y-83763316D03*
X94937743Y-84145838D03*
X94820794Y-84528360D03*
X94703845Y-84910882D03*
X94906067Y-82881324D03*
X94789118Y-83263845D03*
X94672170Y-83646367D03*
X94555221Y-84028889D03*
X94438272Y-84411411D03*
X94321324Y-84793933D03*
D10*
G36*
X87226874Y-83022298D02*
X87421307Y-82942951D01*
X87557330Y-83276264D01*
X87362897Y-83355611D01*
X87226874Y-83022298D01*
X87226874Y-83022298D01*
G37*
G36*
X86763939Y-83211219D02*
X86958372Y-83131872D01*
X87094395Y-83465185D01*
X86899962Y-83544532D01*
X86763939Y-83211219D01*
X86763939Y-83211219D01*
G37*
G36*
X86301003Y-83400139D02*
X86495436Y-83320792D01*
X86631459Y-83654105D01*
X86437026Y-83733452D01*
X86301003Y-83400139D01*
X86301003Y-83400139D01*
G37*
G36*
X85838068Y-83589059D02*
X86032501Y-83509712D01*
X86168524Y-83843025D01*
X85974091Y-83922372D01*
X85838068Y-83589059D01*
X85838068Y-83589059D01*
G37*
G36*
X86782670Y-85903736D02*
X86977103Y-85824389D01*
X87113126Y-86157702D01*
X86918693Y-86237049D01*
X86782670Y-85903736D01*
X86782670Y-85903736D01*
G37*
G36*
X87245605Y-85714815D02*
X87440038Y-85635468D01*
X87576061Y-85968781D01*
X87381628Y-86048128D01*
X87245605Y-85714815D01*
X87245605Y-85714815D01*
G37*
G36*
X87708541Y-85525895D02*
X87902974Y-85446548D01*
X88038997Y-85779861D01*
X87844564Y-85859208D01*
X87708541Y-85525895D01*
X87708541Y-85525895D01*
G37*
G36*
X88171476Y-85336975D02*
X88365909Y-85257628D01*
X88501932Y-85590941D01*
X88307499Y-85670288D01*
X88171476Y-85336975D01*
X88171476Y-85336975D01*
G37*
G36*
X80991972Y-88202308D02*
X80836649Y-88060975D01*
X81078934Y-87794708D01*
X81234257Y-87936041D01*
X80991972Y-88202308D01*
X80991972Y-88202308D01*
G37*
G36*
X81361787Y-88538814D02*
X81206464Y-88397481D01*
X81448749Y-88131214D01*
X81604072Y-88272547D01*
X81361787Y-88538814D01*
X81361787Y-88538814D01*
G37*
G36*
X81731603Y-88875320D02*
X81576280Y-88733987D01*
X81818565Y-88467720D01*
X81973888Y-88609053D01*
X81731603Y-88875320D01*
X81731603Y-88875320D01*
G37*
G36*
X82101418Y-89211827D02*
X81946095Y-89070494D01*
X82188380Y-88804227D01*
X82343703Y-88945560D01*
X82101418Y-89211827D01*
X82101418Y-89211827D01*
G37*
G36*
X82471234Y-89548333D02*
X82315911Y-89407000D01*
X82558196Y-89140733D01*
X82713519Y-89282066D01*
X82471234Y-89548333D01*
X82471234Y-89548333D01*
G37*
G36*
X83478814Y-88998213D02*
X83337481Y-89153536D01*
X83071214Y-88911251D01*
X83212547Y-88755928D01*
X83478814Y-88998213D01*
X83478814Y-88998213D01*
G37*
G36*
X83815320Y-88628397D02*
X83673987Y-88783720D01*
X83407720Y-88541435D01*
X83549053Y-88386112D01*
X83815320Y-88628397D01*
X83815320Y-88628397D01*
G37*
G36*
X84151827Y-88258582D02*
X84010494Y-88413905D01*
X83744227Y-88171620D01*
X83885560Y-88016297D01*
X84151827Y-88258582D01*
X84151827Y-88258582D01*
G37*
G36*
X84221066Y-87625292D02*
X84065743Y-87483959D01*
X84308028Y-87217692D01*
X84463351Y-87359025D01*
X84221066Y-87625292D01*
X84221066Y-87625292D01*
G37*
G36*
X83851251Y-87288786D02*
X83695928Y-87147453D01*
X83938213Y-86881186D01*
X84093536Y-87022519D01*
X83851251Y-87288786D01*
X83851251Y-87288786D01*
G37*
G36*
X83481435Y-86952280D02*
X83326112Y-86810947D01*
X83568397Y-86544680D01*
X83723720Y-86686013D01*
X83481435Y-86952280D01*
X83481435Y-86952280D01*
G37*
G36*
X83111620Y-86615773D02*
X82956297Y-86474440D01*
X83198582Y-86208173D01*
X83353905Y-86349506D01*
X83111620Y-86615773D01*
X83111620Y-86615773D01*
G37*
G36*
X82741804Y-86279267D02*
X82586481Y-86137934D01*
X82828766Y-85871667D01*
X82984089Y-86013000D01*
X82741804Y-86279267D01*
X82741804Y-86279267D01*
G37*
G36*
X82228786Y-86508749D02*
X82087453Y-86664072D01*
X81821186Y-86421787D01*
X81962519Y-86266464D01*
X82228786Y-86508749D01*
X82228786Y-86508749D01*
G37*
G36*
X81892280Y-86878565D02*
X81750947Y-87033888D01*
X81484680Y-86791603D01*
X81626013Y-86636280D01*
X81892280Y-86878565D01*
X81892280Y-86878565D01*
G37*
G36*
X81555773Y-87248380D02*
X81414440Y-87403703D01*
X81148173Y-87161418D01*
X81289506Y-87006095D01*
X81555773Y-87248380D01*
X81555773Y-87248380D01*
G37*
D11*
X78854949Y-92468579D03*
X78751421Y-92854949D03*
X78468579Y-92365051D03*
X78365051Y-92751421D03*
D12*
X78500000Y-97450000D03*
X79500000Y-97450000D03*
X80500000Y-97450000D03*
X80500000Y-94550000D03*
X79500000Y-94550000D03*
X78500000Y-94550000D03*
D13*
X78800000Y-96000000D03*
X80200000Y-96000000D03*
D14*
X81168440Y-92333474D02*
X80939002Y-92234188D01*
X81426586Y-91736933D02*
X81197148Y-91637647D01*
X81684732Y-91140393D02*
X81455294Y-91041107D01*
X79940998Y-90385812D02*
X79711560Y-90286526D01*
X79682852Y-90982353D02*
X79453414Y-90883067D01*
X79424706Y-91578893D02*
X79195268Y-91479607D01*
D10*
G36*
X80471935Y-91563535D02*
X80368677Y-91802151D01*
X80130061Y-91698893D01*
X80233319Y-91460277D01*
X80471935Y-91563535D01*
X80471935Y-91563535D01*
G37*
G36*
X80730081Y-90966995D02*
X80626823Y-91205611D01*
X80388207Y-91102353D01*
X80491465Y-90863737D01*
X80730081Y-90966995D01*
X80730081Y-90966995D01*
G37*
G36*
X82480841Y-103923703D02*
X82666603Y-103741791D01*
X82953465Y-104034725D01*
X82767703Y-104216637D01*
X82480841Y-103923703D01*
X82480841Y-103923703D01*
G37*
G36*
X82052158Y-104343501D02*
X82237920Y-104161589D01*
X82524782Y-104454523D01*
X82339020Y-104636435D01*
X82052158Y-104343501D01*
X82052158Y-104343501D01*
G37*
G36*
X82013804Y-105304817D02*
X81831892Y-105119055D01*
X82124826Y-104832193D01*
X82306738Y-105017955D01*
X82013804Y-105304817D01*
X82013804Y-105304817D01*
G37*
G36*
X82433602Y-105733501D02*
X82251690Y-105547739D01*
X82544624Y-105260877D01*
X82726536Y-105446639D01*
X82433602Y-105733501D01*
X82433602Y-105733501D01*
G37*
G36*
X82853400Y-106162184D02*
X82671488Y-105976422D01*
X82964422Y-105689560D01*
X83146334Y-105875322D01*
X82853400Y-106162184D01*
X82853400Y-106162184D01*
G37*
G36*
X83346535Y-105665275D02*
X83532297Y-105483363D01*
X83819159Y-105776297D01*
X83633397Y-105958209D01*
X83346535Y-105665275D01*
X83346535Y-105665275D01*
G37*
G36*
X83775218Y-105245477D02*
X83960980Y-105063565D01*
X84247842Y-105356499D01*
X84062080Y-105538411D01*
X83775218Y-105245477D01*
X83775218Y-105245477D01*
G37*
G36*
X84175174Y-104867807D02*
X83993262Y-104682045D01*
X84286196Y-104395183D01*
X84468108Y-104580945D01*
X84175174Y-104867807D01*
X84175174Y-104867807D01*
G37*
G36*
X83755376Y-104439123D02*
X83573464Y-104253361D01*
X83866398Y-103966499D01*
X84048310Y-104152261D01*
X83755376Y-104439123D01*
X83755376Y-104439123D01*
G37*
G36*
X83335578Y-104010440D02*
X83153666Y-103824678D01*
X83446600Y-103537816D01*
X83628512Y-103723578D01*
X83335578Y-104010440D01*
X83335578Y-104010440D01*
G37*
G36*
X94219390Y-82356859D02*
X94153151Y-83113967D01*
X93595282Y-83065159D01*
X93661521Y-82308051D01*
X94219390Y-82356859D01*
X94219390Y-82356859D01*
G37*
G36*
X92824718Y-82234841D02*
X92758479Y-82991949D01*
X92200610Y-82943141D01*
X92266849Y-82186033D01*
X92824718Y-82234841D01*
X92824718Y-82234841D01*
G37*
D15*
X92450000Y-110250000D03*
X91550000Y-110250000D03*
D10*
G36*
X81840718Y-101222102D02*
X82029639Y-101685037D01*
X81566704Y-101873958D01*
X81377783Y-101411023D01*
X81840718Y-101222102D01*
X81840718Y-101222102D01*
G37*
G36*
X81085037Y-99370361D02*
X81273958Y-99833296D01*
X80811023Y-100022217D01*
X80622102Y-99559282D01*
X81085037Y-99370361D01*
X81085037Y-99370361D01*
G37*
G36*
X79233296Y-100126042D02*
X79422217Y-100588977D01*
X78959282Y-100777898D01*
X78770361Y-100314963D01*
X79233296Y-100126042D01*
X79233296Y-100126042D01*
G37*
G36*
X79988977Y-101977783D02*
X80177898Y-102440718D01*
X79714963Y-102629639D01*
X79526042Y-102166704D01*
X79988977Y-101977783D01*
X79988977Y-101977783D01*
G37*
D16*
X89080000Y-82220000D03*
X89080000Y-83720000D03*
X91080000Y-83720000D03*
X91080000Y-82220000D03*
D10*
G36*
X99405820Y-85888715D02*
X99773192Y-86165550D01*
X99436176Y-86612785D01*
X99068804Y-86335950D01*
X99405820Y-85888715D01*
X99405820Y-85888715D01*
G37*
G36*
X98743824Y-86767215D02*
X99111196Y-87044050D01*
X98774180Y-87491285D01*
X98406808Y-87214450D01*
X98743824Y-86767215D01*
X98743824Y-86767215D01*
G37*
G36*
X98668181Y-84822337D02*
X98932026Y-84445527D01*
X99390751Y-84766729D01*
X99126906Y-85143539D01*
X98668181Y-84822337D01*
X98668181Y-84822337D01*
G37*
G36*
X99569249Y-85453271D02*
X99833094Y-85076461D01*
X100291819Y-85397663D01*
X100027974Y-85774473D01*
X99569249Y-85453271D01*
X99569249Y-85453271D01*
G37*
G36*
X77789807Y-99195490D02*
X77701247Y-98744096D01*
X78250771Y-98636284D01*
X78339331Y-99087678D01*
X77789807Y-99195490D01*
X77789807Y-99195490D01*
G37*
G36*
X78869229Y-98983716D02*
X78780669Y-98532322D01*
X79330193Y-98424510D01*
X79418753Y-98875904D01*
X78869229Y-98983716D01*
X78869229Y-98983716D01*
G37*
G36*
X79939807Y-98775490D02*
X79851247Y-98324096D01*
X80400771Y-98216284D01*
X80489331Y-98667678D01*
X79939807Y-98775490D01*
X79939807Y-98775490D01*
G37*
G36*
X81019229Y-98563716D02*
X80930669Y-98112322D01*
X81480193Y-98004510D01*
X81568753Y-98455904D01*
X81019229Y-98563716D01*
X81019229Y-98563716D01*
G37*
G36*
X85324239Y-105015218D02*
X85568002Y-104625116D01*
X86042909Y-104921870D01*
X85799146Y-105311972D01*
X85324239Y-105015218D01*
X85324239Y-105015218D01*
G37*
G36*
X86257091Y-105598130D02*
X86500854Y-105208028D01*
X86975761Y-105504782D01*
X86731998Y-105894884D01*
X86257091Y-105598130D01*
X86257091Y-105598130D01*
G37*
G36*
X100236342Y-84512677D02*
X100532025Y-84160296D01*
X100961010Y-84520257D01*
X100665327Y-84872638D01*
X100236342Y-84512677D01*
X100236342Y-84512677D01*
G37*
G36*
X101078990Y-85219743D02*
X101374673Y-84867362D01*
X101803658Y-85227323D01*
X101507975Y-85579704D01*
X101078990Y-85219743D01*
X101078990Y-85219743D01*
G37*
G36*
X97924186Y-86883801D02*
X97525814Y-86653801D01*
X97805814Y-86168827D01*
X98204186Y-86398827D01*
X97924186Y-86883801D01*
X97924186Y-86883801D01*
G37*
G36*
X98474186Y-85931173D02*
X98075814Y-85701173D01*
X98355814Y-85216199D01*
X98754186Y-85446199D01*
X98474186Y-85931173D01*
X98474186Y-85931173D01*
G37*
D17*
X93510000Y-84370000D03*
X92410000Y-84370000D03*
D10*
G36*
X84694239Y-105945218D02*
X84938002Y-105555116D01*
X85412909Y-105851870D01*
X85169146Y-106241972D01*
X84694239Y-105945218D01*
X84694239Y-105945218D01*
G37*
G36*
X85627091Y-106528130D02*
X85870854Y-106138028D01*
X86345761Y-106434782D01*
X86101998Y-106824884D01*
X85627091Y-106528130D01*
X85627091Y-106528130D01*
G37*
G36*
X79494239Y-88565218D02*
X79738002Y-88175116D01*
X80212909Y-88471870D01*
X79969146Y-88861972D01*
X79494239Y-88565218D01*
X79494239Y-88565218D01*
G37*
G36*
X80427091Y-89148130D02*
X80670854Y-88758028D01*
X81145761Y-89054782D01*
X80901998Y-89444884D01*
X80427091Y-89148130D01*
X80427091Y-89148130D01*
G37*
G36*
X100897847Y-85746116D02*
X101234270Y-86059836D01*
X100852351Y-86469394D01*
X100515928Y-86155674D01*
X100897847Y-85746116D01*
X100897847Y-85746116D01*
G37*
G36*
X100147649Y-86550606D02*
X100484072Y-86864326D01*
X100102153Y-87273884D01*
X99765730Y-86960164D01*
X100147649Y-86550606D01*
X100147649Y-86550606D01*
G37*
G36*
X81647974Y-102835527D02*
X81911819Y-103212337D01*
X81453094Y-103533539D01*
X81189249Y-103156729D01*
X81647974Y-102835527D01*
X81647974Y-102835527D01*
G37*
G36*
X80746906Y-103466461D02*
X81010751Y-103843271D01*
X80552026Y-104164473D01*
X80288181Y-103787663D01*
X80746906Y-103466461D01*
X80746906Y-103466461D01*
G37*
G36*
X82835761Y-90454782D02*
X82591998Y-90844884D01*
X82117091Y-90548130D01*
X82360854Y-90158028D01*
X82835761Y-90454782D01*
X82835761Y-90454782D01*
G37*
G36*
X81902909Y-89871870D02*
X81659146Y-90261972D01*
X81184239Y-89965218D01*
X81428002Y-89575116D01*
X81902909Y-89871870D01*
X81902909Y-89871870D01*
G37*
G36*
X79658753Y-93147344D02*
X79777810Y-92703018D01*
X80318729Y-92847956D01*
X80199672Y-93292282D01*
X79658753Y-93147344D01*
X79658753Y-93147344D01*
G37*
G36*
X80721271Y-93432044D02*
X80840328Y-92987718D01*
X81381247Y-93132656D01*
X81262190Y-93576982D01*
X80721271Y-93432044D01*
X80721271Y-93432044D01*
G37*
G36*
X84999487Y-84155191D02*
X85256716Y-84536549D01*
X84792455Y-84849697D01*
X84535226Y-84468339D01*
X84999487Y-84155191D01*
X84999487Y-84155191D01*
G37*
G36*
X84087545Y-84770303D02*
X84344774Y-85151661D01*
X83880513Y-85464809D01*
X83623284Y-85083451D01*
X84087545Y-84770303D01*
X84087545Y-84770303D01*
G37*
G36*
X90590865Y-84605854D02*
X90678637Y-85057403D01*
X90128925Y-85164256D01*
X90041153Y-84712707D01*
X90590865Y-84605854D01*
X90590865Y-84605854D01*
G37*
G36*
X89511075Y-84815744D02*
X89598847Y-85267293D01*
X89049135Y-85374146D01*
X88961363Y-84922597D01*
X89511075Y-84815744D01*
X89511075Y-84815744D01*
G37*
G36*
X98356199Y-83354186D02*
X98586199Y-82955814D01*
X99071173Y-83235814D01*
X98841173Y-83634186D01*
X98356199Y-83354186D01*
X98356199Y-83354186D01*
G37*
G36*
X99308827Y-83904186D02*
X99538827Y-83505814D01*
X100023801Y-83785814D01*
X99793801Y-84184186D01*
X99308827Y-83904186D01*
X99308827Y-83904186D01*
G37*
M02*
