G04 #@! TF.FileFunction,Other,ECO1*
%FSLAX46Y46*%
G04 Gerber Fmt 4.6, Leading zero omitted, Abs format (unit mm)*
G04 Created by KiCad (PCBNEW 0.201503110816+5502~22~ubuntu14.04.1-product) date ថ្ងៃ​អាទិត្យ ថ្ងៃ 29 ខែ មិនា ឆ្នាំ  2015, 13 ម៉ោង m នាទី 44 វិនាទី​*
%MOMM*%
G01*
G04 APERTURE LIST*
%ADD10C,0.020000*%
%ADD11C,0.050000*%
G04 APERTURE END LIST*
D10*
D11*
X139007143Y-99826191D02*
X138864286Y-99445239D01*
X138721429Y-99826191D01*
X138864286Y-100064287D02*
X138864286Y-100445239D01*
X139007143Y-101778572D02*
X138673810Y-101897619D01*
X139007143Y-102016667D01*
X138864286Y-102207143D02*
X138864286Y-102588095D01*
X138697619Y-103040476D02*
X138673810Y-102992857D01*
X138673810Y-102897619D01*
X138697619Y-102850000D01*
X138721429Y-102826191D01*
X138769048Y-102802381D01*
X138911905Y-102802381D01*
X138959524Y-102826191D01*
X138983333Y-102850000D01*
X139007143Y-102897619D01*
X139007143Y-102992857D01*
X138983333Y-103040476D01*
X139007143Y-103469047D02*
X138673810Y-103469047D01*
X139007143Y-103254762D02*
X138745238Y-103254762D01*
X138697619Y-103278571D01*
X138673810Y-103326190D01*
X138673810Y-103397619D01*
X138697619Y-103445238D01*
X138721429Y-103469047D01*
X139007143Y-103635714D02*
X139007143Y-103826190D01*
X139173810Y-103707143D02*
X138745238Y-103707143D01*
X138697619Y-103730952D01*
X138673810Y-103778571D01*
X138673810Y-103826190D01*
X141307143Y-99826191D02*
X141164286Y-99445239D01*
X141021429Y-99826191D01*
X141164286Y-100064287D02*
X141164286Y-100445239D01*
X141307143Y-101778572D02*
X140973810Y-101897619D01*
X141307143Y-102016667D01*
X141164286Y-102207143D02*
X141164286Y-102588095D01*
X140997619Y-103040476D02*
X140973810Y-102992857D01*
X140973810Y-102897619D01*
X140997619Y-102850000D01*
X141021429Y-102826191D01*
X141069048Y-102802381D01*
X141211905Y-102802381D01*
X141259524Y-102826191D01*
X141283333Y-102850000D01*
X141307143Y-102897619D01*
X141307143Y-102992857D01*
X141283333Y-103040476D01*
X141307143Y-103469047D02*
X140973810Y-103469047D01*
X141307143Y-103254762D02*
X141045238Y-103254762D01*
X140997619Y-103278571D01*
X140973810Y-103326190D01*
X140973810Y-103397619D01*
X140997619Y-103445238D01*
X141021429Y-103469047D01*
X141307143Y-103635714D02*
X141307143Y-103826190D01*
X141473810Y-103707143D02*
X141045238Y-103707143D01*
X140997619Y-103730952D01*
X140973810Y-103778571D01*
X140973810Y-103826190D01*
X134323810Y-94428573D02*
X134323810Y-94190478D01*
X134085714Y-94166668D01*
X134109524Y-94190478D01*
X134133333Y-94238097D01*
X134133333Y-94357144D01*
X134109524Y-94404763D01*
X134085714Y-94428573D01*
X134038095Y-94452382D01*
X133919048Y-94452382D01*
X133871429Y-94428573D01*
X133847619Y-94404763D01*
X133823810Y-94357144D01*
X133823810Y-94238097D01*
X133847619Y-94190478D01*
X133871429Y-94166668D01*
X133871429Y-94666668D02*
X133847619Y-94690477D01*
X133823810Y-94666668D01*
X133847619Y-94642858D01*
X133871429Y-94666668D01*
X133823810Y-94666668D01*
X134323810Y-95000001D02*
X134323810Y-95047620D01*
X134300000Y-95095239D01*
X134276190Y-95119048D01*
X134228571Y-95142858D01*
X134133333Y-95166667D01*
X134014286Y-95166667D01*
X133919048Y-95142858D01*
X133871429Y-95119048D01*
X133847619Y-95095239D01*
X133823810Y-95047620D01*
X133823810Y-95000001D01*
X133847619Y-94952382D01*
X133871429Y-94928572D01*
X133919048Y-94904763D01*
X134014286Y-94880953D01*
X134133333Y-94880953D01*
X134228571Y-94904763D01*
X134276190Y-94928572D01*
X134300000Y-94952382D01*
X134323810Y-95000001D01*
X134323810Y-95476191D02*
X134323810Y-95523810D01*
X134300000Y-95571429D01*
X134276190Y-95595238D01*
X134228571Y-95619048D01*
X134133333Y-95642857D01*
X134014286Y-95642857D01*
X133919048Y-95619048D01*
X133871429Y-95595238D01*
X133847619Y-95571429D01*
X133823810Y-95523810D01*
X133823810Y-95476191D01*
X133847619Y-95428572D01*
X133871429Y-95404762D01*
X133919048Y-95380953D01*
X134014286Y-95357143D01*
X134133333Y-95357143D01*
X134228571Y-95380953D01*
X134276190Y-95404762D01*
X134300000Y-95428572D01*
X134323810Y-95476191D01*
X134323810Y-95952381D02*
X134323810Y-96000000D01*
X134300000Y-96047619D01*
X134276190Y-96071428D01*
X134228571Y-96095238D01*
X134133333Y-96119047D01*
X134014286Y-96119047D01*
X133919048Y-96095238D01*
X133871429Y-96071428D01*
X133847619Y-96047619D01*
X133823810Y-96000000D01*
X133823810Y-95952381D01*
X133847619Y-95904762D01*
X133871429Y-95880952D01*
X133919048Y-95857143D01*
X134014286Y-95833333D01*
X134133333Y-95833333D01*
X134228571Y-95857143D01*
X134276190Y-95880952D01*
X134300000Y-95904762D01*
X134323810Y-95952381D01*
X133823810Y-96714285D02*
X134157143Y-96714285D01*
X134109524Y-96714285D02*
X134133333Y-96738094D01*
X134157143Y-96785713D01*
X134157143Y-96857142D01*
X134133333Y-96904761D01*
X134085714Y-96928570D01*
X133823810Y-96928570D01*
X134085714Y-96928570D02*
X134133333Y-96952380D01*
X134157143Y-96999999D01*
X134157143Y-97071427D01*
X134133333Y-97119047D01*
X134085714Y-97142856D01*
X133823810Y-97142856D01*
X133823810Y-97380952D02*
X134157143Y-97380952D01*
X134109524Y-97380952D02*
X134133333Y-97404761D01*
X134157143Y-97452380D01*
X134157143Y-97523809D01*
X134133333Y-97571428D01*
X134085714Y-97595237D01*
X133823810Y-97595237D01*
X134085714Y-97595237D02*
X134133333Y-97619047D01*
X134157143Y-97666666D01*
X134157143Y-97738094D01*
X134133333Y-97785714D01*
X134085714Y-97809523D01*
X133823810Y-97809523D01*
X135400000Y-93500000D02*
X135400000Y-98500000D01*
X137600000Y-93500000D02*
X132700000Y-93500000D01*
X137600000Y-98500000D02*
X132700000Y-98500000D01*
X135400000Y-98500000D02*
X134813579Y-97373496D01*
X135400000Y-98500000D02*
X135986421Y-97373496D01*
X135400000Y-93500000D02*
X134813579Y-94626504D01*
X135400000Y-93500000D02*
X135986421Y-94626504D01*
X138800000Y-98500000D02*
X141200000Y-98500000D01*
X138800000Y-93500000D02*
X141200000Y-93500000D01*
X71000000Y-181000000D02*
X71000000Y-75000000D01*
X177000000Y-181000000D02*
X71000000Y-181000000D01*
X177000000Y-75000000D02*
X177000000Y-181000000D01*
X71000000Y-75000000D02*
X177000000Y-75000000D01*
X75000000Y-177000000D02*
X75000000Y-79000000D01*
X173000000Y-177000000D02*
X75000000Y-177000000D01*
X173000000Y-79000000D02*
X173000000Y-177000000D01*
X75000000Y-79000000D02*
X173000000Y-79000000D01*
X138166668Y-77423810D02*
X138190478Y-77400000D01*
X138238097Y-77376190D01*
X138357144Y-77376190D01*
X138404763Y-77400000D01*
X138428573Y-77423810D01*
X138452382Y-77471429D01*
X138452382Y-77519048D01*
X138428573Y-77590476D01*
X138142859Y-77876190D01*
X138452382Y-77876190D01*
X138666668Y-77828571D02*
X138690477Y-77852381D01*
X138666668Y-77876190D01*
X138642858Y-77852381D01*
X138666668Y-77828571D01*
X138666668Y-77876190D01*
X139000001Y-77376190D02*
X139047620Y-77376190D01*
X139095239Y-77400000D01*
X139119048Y-77423810D01*
X139142858Y-77471429D01*
X139166667Y-77566667D01*
X139166667Y-77685714D01*
X139142858Y-77780952D01*
X139119048Y-77828571D01*
X139095239Y-77852381D01*
X139047620Y-77876190D01*
X139000001Y-77876190D01*
X138952382Y-77852381D01*
X138928572Y-77828571D01*
X138904763Y-77780952D01*
X138880953Y-77685714D01*
X138880953Y-77566667D01*
X138904763Y-77471429D01*
X138928572Y-77423810D01*
X138952382Y-77400000D01*
X139000001Y-77376190D01*
X139476191Y-77376190D02*
X139523810Y-77376190D01*
X139571429Y-77400000D01*
X139595238Y-77423810D01*
X139619048Y-77471429D01*
X139642857Y-77566667D01*
X139642857Y-77685714D01*
X139619048Y-77780952D01*
X139595238Y-77828571D01*
X139571429Y-77852381D01*
X139523810Y-77876190D01*
X139476191Y-77876190D01*
X139428572Y-77852381D01*
X139404762Y-77828571D01*
X139380953Y-77780952D01*
X139357143Y-77685714D01*
X139357143Y-77566667D01*
X139380953Y-77471429D01*
X139404762Y-77423810D01*
X139428572Y-77400000D01*
X139476191Y-77376190D01*
X139952381Y-77376190D02*
X140000000Y-77376190D01*
X140047619Y-77400000D01*
X140071428Y-77423810D01*
X140095238Y-77471429D01*
X140119047Y-77566667D01*
X140119047Y-77685714D01*
X140095238Y-77780952D01*
X140071428Y-77828571D01*
X140047619Y-77852381D01*
X140000000Y-77876190D01*
X139952381Y-77876190D01*
X139904762Y-77852381D01*
X139880952Y-77828571D01*
X139857143Y-77780952D01*
X139833333Y-77685714D01*
X139833333Y-77566667D01*
X139857143Y-77471429D01*
X139880952Y-77423810D01*
X139904762Y-77400000D01*
X139952381Y-77376190D01*
X140714285Y-77876190D02*
X140714285Y-77542857D01*
X140714285Y-77590476D02*
X140738094Y-77566667D01*
X140785713Y-77542857D01*
X140857142Y-77542857D01*
X140904761Y-77566667D01*
X140928570Y-77614286D01*
X140928570Y-77876190D01*
X140928570Y-77614286D02*
X140952380Y-77566667D01*
X140999999Y-77542857D01*
X141071427Y-77542857D01*
X141119047Y-77566667D01*
X141142856Y-77614286D01*
X141142856Y-77876190D01*
X141380952Y-77876190D02*
X141380952Y-77542857D01*
X141380952Y-77590476D02*
X141404761Y-77566667D01*
X141452380Y-77542857D01*
X141523809Y-77542857D01*
X141571428Y-77566667D01*
X141595237Y-77614286D01*
X141595237Y-77876190D01*
X141595237Y-77614286D02*
X141619047Y-77566667D01*
X141666666Y-77542857D01*
X141738094Y-77542857D01*
X141785714Y-77566667D01*
X141809523Y-77614286D01*
X141809523Y-77876190D01*
X139000000Y-79000000D02*
X141000000Y-79000000D01*
X139000000Y-92000000D02*
X139000000Y-76300000D01*
X141000000Y-92000000D02*
X141000000Y-76300000D01*
X141000000Y-79000000D02*
X139873496Y-79586421D01*
X141000000Y-79000000D02*
X139873496Y-78413579D01*
X139000000Y-79000000D02*
X140126504Y-79586421D01*
X139000000Y-79000000D02*
X140126504Y-78413579D01*
X139000000Y-160000000D02*
G75*
G03X139000000Y-160000000I-15000000J0D01*
G01*
X107000000Y-160000000D02*
G75*
G03X107000000Y-160000000I-15000000J0D01*
G01*
X171000000Y-160000000D02*
G75*
G03X171000000Y-160000000I-15000000J0D01*
G01*
X171000000Y-96000000D02*
G75*
G03X171000000Y-96000000I-15000000J0D01*
G01*
X171000000Y-128000000D02*
G75*
G03X171000000Y-128000000I-15000000J0D01*
G01*
X107000000Y-128000000D02*
G75*
G03X107000000Y-128000000I-15000000J0D01*
G01*
X139000000Y-128000000D02*
G75*
G03X139000000Y-128000000I-15000000J0D01*
G01*
X139000000Y-96000000D02*
G75*
G03X139000000Y-96000000I-15000000J0D01*
G01*
X94500000Y-111500000D02*
X89500000Y-111500000D01*
X94500000Y-110500000D02*
X94500000Y-111500000D01*
X89500000Y-110500000D02*
X94500000Y-110500000D01*
X89500000Y-111500000D02*
X89500000Y-110500000D01*
X94500000Y-80500000D02*
X89500000Y-80500000D01*
X94500000Y-81500000D02*
X94500000Y-80500000D01*
X89500000Y-81500000D02*
X94500000Y-81500000D01*
X89500000Y-80500000D02*
X89500000Y-81500000D01*
X76500000Y-98500000D02*
X76500000Y-93500000D01*
X77500000Y-98500000D02*
X76500000Y-98500000D01*
X77500000Y-93500000D02*
X77500000Y-98500000D01*
X76500000Y-93500000D02*
X77500000Y-93500000D01*
X106500000Y-93500000D02*
X107500000Y-93500000D01*
X106500000Y-98500000D02*
X106500000Y-93500000D01*
X107500000Y-98500000D02*
X106500000Y-98500000D01*
X107500000Y-93500000D02*
X107500000Y-98500000D01*
M02*
