G04 #@! TF.FileFunction,Copper,L4,Bot,Signal*
%FSLAX46Y46*%
G04 Gerber Fmt 4.6, Leading zero omitted, Abs format (unit mm)*
G04 Created by KiCad (PCBNEW 0.201503110816+5502~22~ubuntu14.04.1-product) date ថ្ងៃ​អាទិត្យ ថ្ងៃ 29 ខែ មិនា ឆ្នាំ  2015, 13 ម៉ោង m នាទី 44 វិនាទី​*
%MOMM*%
G01*
G04 APERTURE LIST*
%ADD10C,0.020000*%
%ADD11C,1.600000*%
%ADD12O,5.400000X1.600000*%
%ADD13O,2.400000X1.600000*%
%ADD14C,1.300000*%
%ADD15C,0.500000*%
%ADD16C,0.250000*%
%ADD17C,0.100000*%
%ADD18C,0.200000*%
G04 APERTURE END LIST*
D10*
D11*
X100845913Y-99563789D02*
X98754087Y-102736211D01*
D12*
X92000000Y-86650000D03*
D11*
X85243143Y-102738034D02*
X83156857Y-99561966D01*
D13*
X92000000Y-106500000D03*
D14*
X85650000Y-108320000D03*
X90730000Y-108320000D03*
X88190000Y-108320000D03*
X93270000Y-108320000D03*
X85400000Y-86200000D03*
X98600000Y-105800000D03*
X98350000Y-108320000D03*
X95820000Y-108320000D03*
X89460000Y-106920000D03*
X94550000Y-106920000D03*
D10*
G36*
X82195599Y-85169873D02*
X81620127Y-85725599D01*
X81064401Y-85150127D01*
X81639873Y-84594401D01*
X82195599Y-85169873D01*
X82195599Y-85169873D01*
G37*
G36*
X87322685Y-82169069D02*
X86570931Y-82442685D01*
X86297315Y-81690931D01*
X87049069Y-81417315D01*
X87322685Y-82169069D01*
X87322685Y-82169069D01*
G37*
G36*
X86211570Y-82583476D02*
X85486524Y-82921570D01*
X85148430Y-82196524D01*
X85873476Y-81858430D01*
X86211570Y-82583476D01*
X86211570Y-82583476D01*
G37*
G36*
X85146410Y-83096410D02*
X84453590Y-83496410D01*
X84053590Y-82803590D01*
X84746410Y-82403590D01*
X85146410Y-83096410D01*
X85146410Y-83096410D01*
G37*
G36*
X80568721Y-86891507D02*
X80098493Y-87538721D01*
X79451279Y-87068493D01*
X79921507Y-86421279D01*
X80568721Y-86891507D01*
X80568721Y-86891507D01*
G37*
G36*
X81344910Y-86000394D02*
X80809606Y-86594910D01*
X80215090Y-86059606D01*
X80750394Y-85465090D01*
X81344910Y-86000394D01*
X81344910Y-86000394D01*
G37*
G36*
X84127091Y-83698230D02*
X83471770Y-84157091D01*
X83012909Y-83501770D01*
X83668230Y-83042909D01*
X84127091Y-83698230D01*
X84127091Y-83698230D01*
G37*
G36*
X78268435Y-91052020D02*
X78007980Y-91808435D01*
X77251565Y-91547980D01*
X77512020Y-90791565D01*
X78268435Y-91052020D01*
X78268435Y-91052020D01*
G37*
G36*
X78725961Y-89961757D02*
X78408243Y-90695961D01*
X77674039Y-90378243D01*
X77991757Y-89644039D01*
X78725961Y-89961757D01*
X78725961Y-89961757D01*
G37*
G36*
X79250968Y-88894610D02*
X78875390Y-89600968D01*
X78169032Y-89225390D01*
X78544610Y-88519032D01*
X79250968Y-88894610D01*
X79250968Y-88894610D01*
G37*
G36*
X77904887Y-92178650D02*
X77711350Y-92954887D01*
X76935113Y-92761350D01*
X77128650Y-91985113D01*
X77904887Y-92178650D01*
X77904887Y-92178650D01*
G37*
D15*
X91990000Y-83360000D03*
X88030000Y-82150000D03*
X93060000Y-83590000D03*
X97410000Y-83270000D03*
X90310000Y-82230000D03*
X94740000Y-82360000D03*
X98630000Y-86340000D03*
X97940000Y-85040000D03*
X98660000Y-84080000D03*
X82270000Y-102630000D03*
X84780000Y-105100000D03*
X83050000Y-87390000D03*
X80090000Y-93730000D03*
D16*
X79640000Y-91110000D03*
X79970000Y-90320000D03*
X86060000Y-106050000D03*
D15*
X99120000Y-87930000D03*
X86980000Y-85250000D03*
D16*
X86050000Y-84890000D03*
D15*
X82210000Y-88190000D03*
X96020000Y-86070000D03*
D16*
X88460000Y-83230000D03*
D15*
X97570000Y-85600000D03*
X96970000Y-86020000D03*
X95380000Y-85830000D03*
X80440000Y-89870000D03*
X88220000Y-84800000D03*
X94750000Y-85630000D03*
X82760000Y-88540000D03*
X94130000Y-85420000D03*
X84920000Y-87210000D03*
X81290000Y-90530000D03*
X84250000Y-105970000D03*
X93500000Y-85150000D03*
X81510000Y-92730000D03*
X91110000Y-85000000D03*
X81840000Y-100390000D03*
X83470000Y-103050000D03*
X81130000Y-97580000D03*
X81960000Y-91600000D03*
X92550000Y-85020000D03*
X83134786Y-104823552D03*
D16*
X87360000Y-83230000D03*
D15*
X95630000Y-82560000D03*
D16*
X87100000Y-82570000D03*
D15*
X96260000Y-82730000D03*
X91770000Y-85000000D03*
X92440000Y-109550000D03*
X99810000Y-87700000D03*
X88220000Y-106560000D03*
X97990000Y-82900000D03*
X93210000Y-82150000D03*
D17*
X79970000Y-90320000D02*
X79640000Y-91110000D01*
X80090000Y-90910000D02*
X80690000Y-90670000D01*
X80690000Y-90670000D02*
X81080000Y-89960000D01*
X81080000Y-89960000D02*
X80850000Y-89360000D01*
X85700000Y-84290000D02*
X85460000Y-84190000D01*
X85460000Y-84190000D02*
X85430000Y-84180000D01*
X85430000Y-84180000D02*
X85100000Y-84360000D01*
X85100000Y-84360000D02*
X84520000Y-84780000D01*
X84520000Y-84780000D02*
X83660000Y-85400000D01*
X83660000Y-85400000D02*
X83600000Y-85450000D01*
X83600000Y-85450000D02*
X83540000Y-85490000D01*
X83540000Y-85490000D02*
X83879347Y-87330697D01*
X83879347Y-87330697D02*
X83880000Y-87330000D01*
X83850000Y-106500000D02*
X84220000Y-106790000D01*
X84220000Y-106790000D02*
X86060000Y-106050000D01*
X90100000Y-83710000D02*
X89820000Y-84310000D01*
X89820000Y-84310000D02*
X89040000Y-84450000D01*
X89040000Y-84450000D02*
X88710000Y-84580000D01*
X88710000Y-84580000D02*
X88250000Y-84240000D01*
X88250000Y-84240000D02*
X88230000Y-84240000D01*
X88230000Y-84240000D02*
X88190000Y-84220000D01*
X88190000Y-84220000D02*
X87210000Y-84560000D01*
X87210000Y-84560000D02*
X86610000Y-84830000D01*
X86610000Y-84830000D02*
X85700000Y-84290000D01*
X83880000Y-87330000D02*
X83290000Y-87960000D01*
X83290000Y-87960000D02*
X82210000Y-87580000D01*
X82210000Y-87580000D02*
X82110000Y-87530000D01*
X82110000Y-87530000D02*
X81560000Y-88200000D01*
X81560000Y-88200000D02*
X80850000Y-89360000D01*
X80090000Y-90910000D02*
X79420000Y-92900000D01*
X79420000Y-92900000D02*
X79120000Y-94780000D01*
X79120000Y-94780000D02*
X79070000Y-96530000D01*
X79070000Y-96530000D02*
X79230000Y-98330000D01*
X79230000Y-98330000D02*
X79680000Y-100040000D01*
X79680000Y-100040000D02*
X80330000Y-101640000D01*
X80330000Y-101640000D02*
X81200000Y-103170000D01*
X81200000Y-103170000D02*
X81980000Y-104260000D01*
X81980000Y-104260000D02*
X82360000Y-104710000D01*
X82360000Y-104710000D02*
X82300000Y-105120000D01*
X82300000Y-105120000D02*
X82930000Y-105760000D01*
X82930000Y-105760000D02*
X83850000Y-106500000D01*
X99120000Y-87930000D02*
X99000000Y-87090000D01*
X99000000Y-87090000D02*
X99810000Y-86110000D01*
X99810000Y-86110000D02*
X99800000Y-85680000D01*
X99800000Y-85680000D02*
X99040000Y-85120000D01*
X99040000Y-85120000D02*
X98080000Y-84590000D01*
X98080000Y-84590000D02*
X97550000Y-84330000D01*
X97550000Y-84330000D02*
X96590000Y-83950000D01*
X96590000Y-83950000D02*
X95620000Y-83620000D01*
X95620000Y-83620000D02*
X94480000Y-83340000D01*
X94480000Y-83340000D02*
X93400000Y-83170000D01*
X93400000Y-83170000D02*
X93170000Y-82900000D01*
X93170000Y-82900000D02*
X92460000Y-82830000D01*
X92460000Y-82830000D02*
X91570000Y-82830000D01*
X91570000Y-82830000D02*
X90920000Y-83710000D01*
X90920000Y-83710000D02*
X90100000Y-83710000D01*
X86050000Y-84890000D02*
X86700000Y-85230000D01*
X86700000Y-85230000D02*
X86980000Y-85250000D01*
X86050000Y-84890000D02*
X85920000Y-84880000D01*
X85920000Y-84880000D02*
X85290000Y-84540000D01*
X85290000Y-84540000D02*
X83820000Y-85600000D01*
X83820000Y-85600000D02*
X84180000Y-87420000D01*
X84180000Y-87420000D02*
X83360000Y-88260000D01*
X83360000Y-88260000D02*
X82570000Y-87980000D01*
X82570000Y-87980000D02*
X82210000Y-88190000D01*
X88460000Y-83230000D02*
X86810000Y-81930000D01*
X94120000Y-84430000D02*
X93410000Y-84400000D01*
X93410000Y-84400000D02*
X92910000Y-84020000D01*
X92910000Y-84020000D02*
X91730000Y-84000000D01*
X91730000Y-84000000D02*
X91450000Y-84000000D01*
X91450000Y-84000000D02*
X90300000Y-83990000D01*
X90300000Y-83990000D02*
X90000000Y-84570000D01*
X90000000Y-84570000D02*
X89190000Y-84690000D01*
X89190000Y-84690000D02*
X88460000Y-84940000D01*
X88460000Y-84940000D02*
X88220000Y-84800000D01*
X94750000Y-85630000D02*
X94120000Y-84430000D01*
X83580000Y-88420000D02*
X83420000Y-88590000D01*
X83420000Y-88590000D02*
X82880000Y-88410000D01*
X82880000Y-88410000D02*
X82760000Y-88540000D01*
X93790000Y-84680000D02*
X93270000Y-84640000D01*
X93270000Y-84640000D02*
X92820000Y-84300000D01*
X92820000Y-84300000D02*
X91370000Y-84250000D01*
X91370000Y-84250000D02*
X90630000Y-84310000D01*
X90630000Y-84310000D02*
X90520000Y-84320000D01*
X90520000Y-84320000D02*
X90230000Y-84800000D01*
X90230000Y-84800000D02*
X89270000Y-84950000D01*
X89270000Y-84950000D02*
X87860000Y-85420000D01*
X87860000Y-85420000D02*
X87040000Y-85820000D01*
X87040000Y-85820000D02*
X85370000Y-84880000D01*
X85370000Y-84880000D02*
X85340000Y-84860000D01*
X85340000Y-84860000D02*
X84130000Y-85710000D01*
X84130000Y-85710000D02*
X84470000Y-87510000D01*
X84470000Y-87510000D02*
X83580000Y-88420000D01*
X94130000Y-85420000D02*
X93790000Y-84680000D01*
X84920000Y-87210000D02*
X84686272Y-87256253D01*
X84686272Y-87256253D02*
X84686272Y-87256255D01*
X81240000Y-98820000D02*
X80180000Y-97570000D01*
X80180000Y-97570000D02*
X80950000Y-95560000D01*
X82570000Y-90180000D02*
X81290000Y-90530000D01*
X81049279Y-92328009D02*
X81040000Y-91030000D01*
X81040000Y-91030000D02*
X81290000Y-90530000D01*
X83070000Y-105470000D02*
X83600000Y-105960000D01*
X83600000Y-105960000D02*
X84250000Y-105970000D01*
X92730000Y-84560000D02*
X91640000Y-84510000D01*
X91640000Y-84510000D02*
X90770000Y-84550000D01*
X90770000Y-84550000D02*
X90500000Y-85010000D01*
X90500000Y-85010000D02*
X89660000Y-85150000D01*
X89660000Y-85150000D02*
X88340000Y-85540000D01*
X88340000Y-85540000D02*
X87030000Y-86110000D01*
X87030000Y-86110000D02*
X85360000Y-85170000D01*
X85360000Y-85170000D02*
X84420000Y-85820000D01*
X84420000Y-85820000D02*
X84686272Y-87256255D01*
X84686272Y-87256255D02*
X84750000Y-87600000D01*
X84750000Y-87600000D02*
X83750000Y-88610000D01*
X83750000Y-88610000D02*
X83000000Y-89600000D01*
X83000000Y-89600000D02*
X82570000Y-90180000D01*
X93500000Y-85150000D02*
X92730000Y-84560000D01*
X83070000Y-105470000D02*
X82590000Y-104970000D01*
X82590000Y-104970000D02*
X83040000Y-102760000D01*
X83040000Y-102760000D02*
X82890000Y-102320000D01*
X82890000Y-102320000D02*
X81340000Y-100550000D01*
X81340000Y-100550000D02*
X81240000Y-98820000D01*
X80950000Y-95560000D02*
X81060000Y-94290000D01*
X81060000Y-94290000D02*
X81049279Y-92328009D01*
X81210000Y-95600000D02*
X80480000Y-97510000D01*
X80480000Y-97510000D02*
X81600000Y-98850000D01*
X81600000Y-98850000D02*
X81660000Y-99050000D01*
X81310000Y-92220000D02*
X81340000Y-92560000D01*
X82910000Y-90160000D02*
X82730000Y-90410000D01*
X82730000Y-90410000D02*
X81780000Y-90670000D01*
X81780000Y-90670000D02*
X81450000Y-91390000D01*
X81450000Y-91390000D02*
X81300000Y-91900000D01*
X81300000Y-91900000D02*
X81310000Y-92220000D01*
X81340000Y-92560000D02*
X81510000Y-92730000D01*
X90860000Y-85230000D02*
X89870000Y-85380000D01*
X89870000Y-85380000D02*
X88420000Y-85790000D01*
X88420000Y-85790000D02*
X87160000Y-86340000D01*
X87160000Y-86340000D02*
X85990000Y-87020000D01*
X85990000Y-87020000D02*
X84860000Y-87890000D01*
X84860000Y-87890000D02*
X83900000Y-88860000D01*
X83900000Y-88860000D02*
X83000000Y-90050000D01*
X83000000Y-90050000D02*
X82910000Y-90160000D01*
X81340000Y-94050000D02*
X81340000Y-94240000D01*
X81340000Y-92560000D02*
X81340000Y-94050000D01*
X81340000Y-94240000D02*
X81210000Y-95600000D01*
X81660000Y-99050000D02*
X82040000Y-100310000D01*
X91110000Y-85000000D02*
X90860000Y-85230000D01*
X82040000Y-100310000D02*
X81840000Y-100390000D01*
X83470000Y-103050000D02*
X83370000Y-102570000D01*
X82040000Y-100310000D02*
X82710000Y-101520000D01*
X82710000Y-101520000D02*
X83370000Y-102570000D01*
X81564699Y-97326423D02*
X81130000Y-97580000D01*
X82400324Y-91816260D02*
X81960000Y-91600000D01*
X82087980Y-92624676D02*
X81900000Y-93160000D01*
X81900000Y-93160000D02*
X81620000Y-94220000D01*
X84060000Y-89080000D02*
X83170000Y-90240000D01*
X83170000Y-90240000D02*
X82620857Y-91245472D01*
X82620857Y-91245472D02*
X82400324Y-91816260D01*
X82400324Y-91816260D02*
X82399789Y-91817645D01*
X82399789Y-91817645D02*
X82087980Y-92624676D01*
X81620000Y-94220000D02*
X81470000Y-95620000D01*
X81470000Y-95620000D02*
X81500000Y-96880000D01*
X81500000Y-96880000D02*
X81564699Y-97326423D01*
X92550000Y-85020000D02*
X92130000Y-85450000D01*
X86200000Y-87200000D02*
X85070000Y-88060000D01*
X87360000Y-86530000D02*
X86200000Y-87200000D01*
X88630000Y-86010000D02*
X87360000Y-86530000D01*
X89820000Y-85670000D02*
X88630000Y-86010000D01*
X90930000Y-85500000D02*
X89820000Y-85670000D01*
X92130000Y-85450000D02*
X90930000Y-85500000D01*
X85070000Y-88060000D02*
X84060000Y-89080000D01*
X84030000Y-102940000D02*
X83134786Y-104823552D01*
X83540000Y-102330000D02*
X84030000Y-102940000D01*
X82800000Y-101140000D02*
X83540000Y-102330000D01*
X82230000Y-100000000D02*
X82800000Y-101140000D01*
X81700000Y-98260000D02*
X82230000Y-100000000D01*
X81564699Y-97326423D02*
X81572413Y-97379650D01*
X81572413Y-97379650D02*
X81700000Y-98260000D01*
X87360000Y-83230000D02*
X86910000Y-82920000D01*
X86910000Y-82920000D02*
X85930000Y-83320000D01*
X85930000Y-83320000D02*
X84600000Y-84060000D01*
X84600000Y-84060000D02*
X83350000Y-84950000D01*
X83350000Y-84950000D02*
X82170000Y-85990000D01*
X82170000Y-85990000D02*
X81300000Y-86900000D01*
X81300000Y-86900000D02*
X80490000Y-87990000D01*
X80490000Y-87990000D02*
X79750000Y-89270000D01*
X79750000Y-89270000D02*
X78970000Y-90970000D01*
X78970000Y-90970000D02*
X78550000Y-92220000D01*
X78550000Y-92220000D02*
X78170000Y-93930000D01*
X78170000Y-93930000D02*
X78050000Y-95360000D01*
X78050000Y-95360000D02*
X78050000Y-97250000D01*
X78050000Y-97250000D02*
X78250000Y-98620000D01*
X78250000Y-98620000D02*
X78560000Y-99940000D01*
X78560000Y-99940000D02*
X79030000Y-101290000D01*
X79030000Y-101290000D02*
X79680000Y-102720000D01*
X79680000Y-102720000D02*
X80420000Y-103860000D01*
X80420000Y-103860000D02*
X81080000Y-104770000D01*
X81080000Y-104770000D02*
X82150000Y-105960000D01*
X82150000Y-105960000D02*
X83410000Y-107110000D01*
X83410000Y-107110000D02*
X84180000Y-107640000D01*
X84180000Y-107640000D02*
X85850000Y-106950000D01*
X85850000Y-106950000D02*
X86640000Y-107410000D01*
X86640000Y-107410000D02*
X87780000Y-106990000D01*
X87780000Y-106990000D02*
X88280000Y-107150000D01*
X88280000Y-107150000D02*
X88770000Y-107310000D01*
X88770000Y-107310000D02*
X89010000Y-107390000D01*
X89010000Y-107390000D02*
X89460000Y-106920000D01*
X80950000Y-105030000D02*
X82020000Y-106200000D01*
X82020000Y-106200000D02*
X83290000Y-107340000D01*
X83290000Y-107340000D02*
X84150000Y-107940000D01*
X84150000Y-107940000D02*
X85810000Y-107250000D01*
X85810000Y-107250000D02*
X86300000Y-107530000D01*
X86300000Y-107530000D02*
X86460000Y-107620000D01*
X86460000Y-107620000D02*
X86830000Y-109360000D01*
X86830000Y-109360000D02*
X87920000Y-109750000D01*
X87920000Y-109750000D02*
X89670000Y-110150000D01*
X89670000Y-110150000D02*
X91260000Y-110350000D01*
X91260000Y-110350000D02*
X93110000Y-110310000D01*
X93110000Y-110310000D02*
X94700000Y-110090000D01*
X94700000Y-110090000D02*
X95040000Y-109640000D01*
X95040000Y-109640000D02*
X94550000Y-106920000D01*
X77970000Y-98600000D02*
X78290000Y-99970000D01*
X78290000Y-99970000D02*
X78770000Y-101350000D01*
X78770000Y-101350000D02*
X79480000Y-102880000D01*
X79480000Y-102880000D02*
X80230000Y-104070000D01*
X80230000Y-104070000D02*
X80950000Y-105030000D01*
X87100000Y-82570000D02*
X85830000Y-83080000D01*
X85830000Y-83080000D02*
X84540000Y-83790000D01*
X84540000Y-83790000D02*
X83270000Y-84670000D01*
X83270000Y-84670000D02*
X82040000Y-85750000D01*
X82040000Y-85750000D02*
X81070000Y-86770000D01*
X81070000Y-86770000D02*
X80230000Y-87910000D01*
X80230000Y-87910000D02*
X79460000Y-89250000D01*
X79460000Y-89250000D02*
X78680000Y-90990000D01*
X78680000Y-90990000D02*
X78270000Y-92230000D01*
X78270000Y-92230000D02*
X77910000Y-93920000D01*
X77910000Y-93920000D02*
X77770000Y-95420000D01*
X77770000Y-95420000D02*
X77780000Y-97260000D01*
X77780000Y-97260000D02*
X77970000Y-98600000D01*
X90730000Y-108320000D02*
X91660000Y-109290000D01*
X91660000Y-109290000D02*
X91910000Y-109600000D01*
X91910000Y-109600000D02*
X92440000Y-109550000D01*
X100130000Y-86730000D02*
X100150000Y-87290000D01*
X100150000Y-87290000D02*
X99810000Y-87700000D01*
X85500000Y-83860000D02*
X85040000Y-84100000D01*
X85040000Y-84100000D02*
X84700000Y-84300000D01*
X84700000Y-84300000D02*
X84090000Y-84740000D01*
X84090000Y-84740000D02*
X83410000Y-85250000D01*
X83410000Y-85250000D02*
X83230000Y-85400000D01*
X83230000Y-85400000D02*
X82440000Y-86090000D01*
X82440000Y-86090000D02*
X81620000Y-86940000D01*
X81620000Y-86940000D02*
X80810000Y-88000000D01*
X80810000Y-88000000D02*
X80190000Y-89040000D01*
X80190000Y-89040000D02*
X79890000Y-89570000D01*
X79890000Y-89570000D02*
X79200000Y-91080000D01*
X79200000Y-91080000D02*
X78790000Y-92320000D01*
X78790000Y-92320000D02*
X78440000Y-93960000D01*
X78440000Y-93960000D02*
X78310000Y-95390000D01*
X78310000Y-95390000D02*
X78310000Y-97180000D01*
X78310000Y-97180000D02*
X78790000Y-99730000D01*
X78790000Y-99730000D02*
X79290000Y-101210000D01*
X79290000Y-101210000D02*
X79980000Y-102690000D01*
X79980000Y-102690000D02*
X81210000Y-104490000D01*
X81210000Y-104490000D02*
X82280000Y-105720000D01*
X82280000Y-105720000D02*
X83340000Y-106710000D01*
X83340000Y-106710000D02*
X84200000Y-107340000D01*
X84200000Y-107340000D02*
X85890000Y-106630000D01*
X85890000Y-106630000D02*
X86660000Y-107100000D01*
X86660000Y-107100000D02*
X88220000Y-106560000D01*
X91500000Y-82570000D02*
X91430000Y-82570000D01*
X91430000Y-82570000D02*
X90780000Y-83450000D01*
X90780000Y-83450000D02*
X90000000Y-83460000D01*
X90000000Y-83460000D02*
X89920000Y-83470000D01*
X89920000Y-83470000D02*
X89610000Y-84090000D01*
X89610000Y-84090000D02*
X88960000Y-84190000D01*
X88960000Y-84190000D02*
X88730000Y-84270000D01*
X88730000Y-84270000D02*
X88210000Y-83900000D01*
X88210000Y-83900000D02*
X87270000Y-84240000D01*
X87270000Y-84240000D02*
X86620000Y-84530000D01*
X86620000Y-84530000D02*
X85500000Y-83860000D01*
X100130000Y-86730000D02*
X100070000Y-85530000D01*
X100070000Y-85530000D02*
X99150000Y-84860000D01*
X99150000Y-84860000D02*
X97830000Y-84150000D01*
X97830000Y-84150000D02*
X96220000Y-83520000D01*
X96220000Y-83520000D02*
X95050000Y-83170000D01*
X95050000Y-83170000D02*
X93540000Y-82890000D01*
X93540000Y-82890000D02*
X93300000Y-82640000D01*
X93300000Y-82640000D02*
X92380000Y-82560000D01*
X92380000Y-82560000D02*
X91500000Y-82570000D01*
D18*
X93630000Y-81600000D02*
X93350000Y-81790000D01*
X97990000Y-82900000D02*
X97880000Y-82720000D01*
X96870000Y-82340000D02*
X95800000Y-82010000D01*
X95800000Y-82010000D02*
X94750000Y-81760000D01*
X94750000Y-81760000D02*
X93880000Y-81620000D01*
X97880000Y-82720000D02*
X96870000Y-82340000D01*
X93880000Y-81620000D02*
X93630000Y-81600000D01*
X93210000Y-82150000D02*
X93350000Y-81790000D01*
M02*
