G04 #@! TF.FileFunction,Legend,Bot*
%FSLAX46Y46*%
G04 Gerber Fmt 4.6, Leading zero omitted, Abs format (unit mm)*
G04 Created by KiCad (PCBNEW 0.201503110816+5502~22~ubuntu14.04.1-product) date ថ្ងៃ​អាទិត្យ ថ្ងៃ 29 ខែ មិនា ឆ្នាំ  2015, 13 ម៉ោង m នាទី 44 វិនាទី​*
%MOMM*%
G01*
G04 APERTURE LIST*
%ADD10C,0.020000*%
%ADD11C,0.100000*%
G04 APERTURE END LIST*
D10*
D11*
X92200000Y-108300000D02*
X92370000Y-108300000D01*
X92150000Y-108300000D02*
X92200000Y-108300000D01*
X92080000Y-108320000D02*
X92150000Y-108300000D01*
X92050000Y-108340000D02*
X92080000Y-108320000D01*
X92010000Y-108410000D02*
X92050000Y-108340000D01*
X92000000Y-108480000D02*
X92010000Y-108410000D01*
X92000000Y-108650000D02*
X92000000Y-107550000D01*
X84160545Y-86844559D02*
X84184710Y-86779703D01*
X84252621Y-86716374D01*
X84341642Y-86675683D01*
X84429135Y-86678738D01*
X84493991Y-86702903D01*
X84601066Y-86772342D01*
X84664394Y-86840254D01*
X84726195Y-86951912D01*
X84745777Y-87018295D01*
X84742722Y-87105788D01*
X84695920Y-87191754D01*
X84650646Y-87233973D01*
X84561625Y-87274664D01*
X84517878Y-87273136D01*
X84370112Y-87114676D01*
X84460660Y-87030239D01*
X84356363Y-87508396D02*
X83913064Y-87033017D01*
X84084718Y-87761710D01*
X83641419Y-87286330D01*
X83858346Y-87972805D02*
X83415047Y-87497425D01*
X83301861Y-87602972D01*
X83255059Y-87688937D01*
X83252004Y-87776431D01*
X83271586Y-87842815D01*
X83333387Y-87954472D01*
X83396715Y-88022383D01*
X83503790Y-88091823D01*
X83568646Y-88115987D01*
X83656139Y-88119043D01*
X83745160Y-88078352D01*
X83858346Y-87972805D01*
X92475238Y-84874048D02*
X92072857Y-84874048D01*
X92289524Y-85121667D01*
X92196666Y-85121667D01*
X92134762Y-85152619D01*
X92103809Y-85183571D01*
X92072857Y-85245476D01*
X92072857Y-85400238D01*
X92103809Y-85462143D01*
X92134762Y-85493095D01*
X92196666Y-85524048D01*
X92382381Y-85524048D01*
X92444285Y-85493095D01*
X92475238Y-85462143D01*
X91887142Y-84874048D02*
X91670476Y-85524048D01*
X91453809Y-84874048D01*
X82427969Y-101598475D02*
X82652977Y-101932064D01*
X82737104Y-101613972D01*
X82789030Y-101690955D01*
X82849306Y-101724967D01*
X82892276Y-101733320D01*
X82960905Y-101724364D01*
X83089209Y-101637822D01*
X83123222Y-101577545D01*
X83131574Y-101534576D01*
X83122619Y-101465946D01*
X83018768Y-101311981D01*
X82958491Y-101277969D01*
X82915522Y-101269616D01*
X82756828Y-102086029D02*
X83416860Y-101902177D01*
X82999145Y-102445278D01*
X99829455Y-105135441D02*
X99805290Y-105200297D01*
X99737379Y-105263626D01*
X99648358Y-105304317D01*
X99560865Y-105301262D01*
X99496009Y-105277097D01*
X99388934Y-105207658D01*
X99325606Y-105139746D01*
X99263805Y-105028088D01*
X99244223Y-104961705D01*
X99247278Y-104874212D01*
X99294080Y-104788246D01*
X99339354Y-104746027D01*
X99428375Y-104705336D01*
X99472122Y-104706864D01*
X99619888Y-104865324D01*
X99529340Y-104949761D01*
X99633637Y-104471604D02*
X100076936Y-104946983D01*
X99905282Y-104218290D01*
X100348581Y-104693670D01*
X100131654Y-104007195D02*
X100574953Y-104482575D01*
X100688139Y-104377028D01*
X100734941Y-104291063D01*
X100737996Y-104203569D01*
X100718414Y-104137185D01*
X100656613Y-104025528D01*
X100593285Y-103957617D01*
X100486210Y-103888177D01*
X100421354Y-103864013D01*
X100333861Y-103860957D01*
X100244840Y-103901648D01*
X100131654Y-104007195D01*
X95266021Y-106329488D02*
X95339402Y-106264713D01*
X95481861Y-106204243D01*
X95550938Y-106208547D01*
X95591524Y-106224945D01*
X95644204Y-106269835D01*
X95668392Y-106326818D01*
X95664088Y-106395895D01*
X95647690Y-106436482D01*
X95602801Y-106489161D01*
X95500928Y-106566030D01*
X95456038Y-106618710D01*
X95439640Y-106659295D01*
X95435337Y-106728373D01*
X95459525Y-106785357D01*
X95512205Y-106830247D01*
X95552790Y-106846644D01*
X95621868Y-106850947D01*
X95764327Y-106790477D01*
X95837709Y-106725704D01*
X96049246Y-106669536D02*
X95937730Y-106010738D01*
X96233108Y-106389739D01*
X96165664Y-105913986D01*
X96562099Y-106451843D01*
X96902147Y-105668618D02*
X96861562Y-105652221D01*
X96763992Y-105660010D01*
X96707008Y-105684199D01*
X96633627Y-105748973D01*
X96600832Y-105830145D01*
X96596528Y-105899222D01*
X96616413Y-106025284D01*
X96652695Y-106110759D01*
X96729563Y-106212632D01*
X96782242Y-106257522D01*
X96863414Y-106290317D01*
X96960984Y-106282527D01*
X97017968Y-106258338D01*
X97091349Y-106193565D01*
X97107747Y-106152979D01*
X97134386Y-105502788D02*
X97388361Y-106101116D01*
X97476287Y-105357659D02*
X97364990Y-105808408D01*
X97730263Y-105955987D02*
X97243233Y-105759214D01*
X86172859Y-105299449D02*
X86270097Y-105310639D01*
X86410359Y-105376044D01*
X86453382Y-105430259D01*
X86468354Y-105471392D01*
X86470244Y-105540578D01*
X86444081Y-105596683D01*
X86389868Y-105639706D01*
X86348733Y-105654678D01*
X86279548Y-105656568D01*
X86154257Y-105632297D01*
X86085071Y-105634187D01*
X86043938Y-105649158D01*
X85989724Y-105692182D01*
X85963562Y-105748287D01*
X85965452Y-105817473D01*
X85980423Y-105858606D01*
X86023447Y-105912820D01*
X86163709Y-105978225D01*
X86260947Y-105989416D01*
X86444233Y-106109036D02*
X86859197Y-105585341D01*
X86775191Y-106058451D01*
X87083616Y-105689989D01*
X86949176Y-106344495D01*
X87448297Y-105860043D02*
X87173595Y-106449143D01*
X87313857Y-106514548D01*
X87411095Y-106525739D01*
X87493362Y-106495796D01*
X87547576Y-106452772D01*
X87627952Y-106353644D01*
X87667195Y-106269487D01*
X87691468Y-106144196D01*
X87689578Y-106075011D01*
X87659635Y-105992744D01*
X87588559Y-105925448D01*
X87448297Y-105860043D01*
X88037397Y-106134745D02*
X87762695Y-106723845D01*
X88155428Y-106906979D02*
X88267638Y-106959304D01*
X88336824Y-106957414D01*
X88419090Y-106927471D01*
X88499467Y-106828343D01*
X88591035Y-106631976D01*
X88615306Y-106506685D01*
X88585364Y-106424419D01*
X88542340Y-106370204D01*
X88430130Y-106317879D01*
X88360945Y-106319770D01*
X88278678Y-106349713D01*
X88198302Y-106448841D01*
X88106734Y-106645208D01*
X88082462Y-106770498D01*
X88112405Y-106852765D01*
X88155428Y-106906979D01*
X84409356Y-107233135D02*
X84208165Y-107581607D01*
X84530943Y-107517778D01*
X84484514Y-107598195D01*
X84480367Y-107667282D01*
X84491696Y-107709564D01*
X84529831Y-107767321D01*
X84663859Y-107844702D01*
X84732946Y-107848850D01*
X84775228Y-107837520D01*
X84832986Y-107799386D01*
X84925844Y-107638552D01*
X84929989Y-107569465D01*
X84918661Y-107527183D01*
X84115308Y-107742441D02*
X84569891Y-108255080D01*
X83898641Y-108117719D01*
X87073367Y-109028770D02*
X86856614Y-108719307D01*
X87200403Y-108679742D02*
X86589603Y-108457428D01*
X86504912Y-108690114D01*
X86512825Y-108758872D01*
X86531324Y-108798544D01*
X86578909Y-108848802D01*
X86666166Y-108880561D01*
X86734924Y-108872648D01*
X86774596Y-108854149D01*
X86824855Y-108806564D01*
X86909546Y-108573878D01*
X86388462Y-109010057D02*
X86851054Y-109639570D01*
X86240254Y-109417257D02*
X86999263Y-109232370D01*
X88985453Y-109320475D02*
X88920955Y-109686261D01*
X89593329Y-109616239D02*
X88953204Y-109503368D01*
X88894081Y-109838671D02*
X89458959Y-110378292D01*
X88818833Y-110265421D02*
X89534206Y-109951543D01*
X91705000Y-109334762D02*
X91674048Y-109272857D01*
X91674048Y-109180000D01*
X91705000Y-109087143D01*
X91766905Y-109025238D01*
X91828810Y-108994286D01*
X91952619Y-108963334D01*
X92045476Y-108963334D01*
X92169286Y-108994286D01*
X92231190Y-109025238D01*
X92293095Y-109087143D01*
X92324048Y-109180000D01*
X92324048Y-109241905D01*
X92293095Y-109334762D01*
X92262143Y-109365714D01*
X92045476Y-109365714D01*
X92045476Y-109241905D01*
X92324048Y-109644286D02*
X91674048Y-109644286D01*
X92324048Y-110015714D01*
X91674048Y-110015714D01*
X92324048Y-110325238D02*
X91674048Y-110325238D01*
X91674048Y-110480000D01*
X91705000Y-110572857D01*
X91766905Y-110634762D01*
X91828810Y-110665714D01*
X91952619Y-110696666D01*
X92045476Y-110696666D01*
X92169286Y-110665714D01*
X92231190Y-110634762D01*
X92293095Y-110572857D01*
X92324048Y-110480000D01*
X92324048Y-110325238D01*
X95107770Y-109248394D02*
X94765325Y-109088768D01*
X95043272Y-108882609D02*
X94403147Y-108995480D01*
X94446146Y-109239337D01*
X94487377Y-109294927D01*
X94523234Y-109320034D01*
X94589573Y-109339766D01*
X94681019Y-109323641D01*
X94736609Y-109282410D01*
X94761716Y-109246553D01*
X94781449Y-109180214D01*
X94738451Y-108936357D01*
X95120286Y-109497627D02*
X95166893Y-109583698D01*
X95193768Y-109736109D01*
X95174034Y-109802448D01*
X95148927Y-109838305D01*
X95093338Y-109879536D01*
X95032373Y-109890286D01*
X94966035Y-109870554D01*
X94930177Y-109845446D01*
X94888946Y-109789857D01*
X94836964Y-109673303D01*
X94795732Y-109617713D01*
X94759876Y-109592606D01*
X94693536Y-109572874D01*
X94632572Y-109583624D01*
X94576982Y-109624855D01*
X94551875Y-109660712D01*
X94532143Y-109727051D01*
X94559017Y-109879462D01*
X94605623Y-109965534D01*
X94607391Y-110153802D02*
X94671889Y-110519587D01*
X95279765Y-110223823D02*
X94639640Y-110336695D01*
X96738495Y-108405485D02*
X96780840Y-108521829D01*
X96831098Y-108569414D01*
X96910442Y-108606412D01*
X97037371Y-108593153D01*
X97240972Y-108519049D01*
X97346727Y-108447617D01*
X97383727Y-108368274D01*
X97391640Y-108299515D01*
X97349295Y-108183172D01*
X97299036Y-108135588D01*
X97219692Y-108098589D01*
X97092763Y-108111849D01*
X96889163Y-108185953D01*
X96783406Y-108257384D01*
X96746407Y-108336728D01*
X96738495Y-108405485D01*
X96897290Y-108841771D02*
X97024326Y-109190800D01*
X97571608Y-108793972D02*
X96960808Y-109016285D01*
X97709230Y-109172087D02*
X97098430Y-109394400D01*
X97183121Y-109627086D01*
X97233379Y-109674671D01*
X97273050Y-109693170D01*
X97341808Y-109701083D01*
X97429065Y-109669324D01*
X97476651Y-109619066D01*
X97495150Y-109579394D01*
X97503064Y-109510636D01*
X97418373Y-109277950D01*
G36*
X100957679Y-89003463D02*
X100929773Y-88965255D01*
X100903146Y-88931863D01*
X100880744Y-88906866D01*
X100869786Y-88896768D01*
X100840206Y-88873480D01*
X100802086Y-88900172D01*
X100763967Y-88926863D01*
X100787107Y-88939132D01*
X100827156Y-88967796D01*
X100863497Y-89007276D01*
X100892362Y-89052450D01*
X100909977Y-89098202D01*
X100912143Y-89108886D01*
X100912745Y-89161076D01*
X100897034Y-89209927D01*
X100864863Y-89255716D01*
X100816082Y-89298722D01*
X100806867Y-89305267D01*
X100762921Y-89332072D01*
X100724042Y-89346876D01*
X100685065Y-89351206D01*
X100658053Y-89349233D01*
X100613509Y-89335652D01*
X100570427Y-89308131D01*
X100532010Y-89269602D01*
X100501460Y-89222996D01*
X100488985Y-89194467D01*
X100473293Y-89151101D01*
X100440319Y-89174190D01*
X100423742Y-89186656D01*
X100414209Y-89198104D01*
X100412138Y-89211531D01*
X100417946Y-89229934D01*
X100432053Y-89256312D01*
X100454877Y-89293661D01*
X100457610Y-89298041D01*
X100507682Y-89367025D01*
X100561472Y-89419478D01*
X100618972Y-89455393D01*
X100680166Y-89474763D01*
X100745047Y-89477582D01*
X100759819Y-89475980D01*
X100785883Y-89471204D01*
X100809855Y-89463193D01*
X100836645Y-89449797D01*
X100871164Y-89428864D01*
X100879382Y-89423614D01*
X100914998Y-89399977D01*
X100940067Y-89380910D01*
X100958818Y-89362665D01*
X100975484Y-89341491D01*
X100981074Y-89333473D01*
X101011001Y-89275114D01*
X101025940Y-89211059D01*
X101025088Y-89144913D01*
X101024290Y-89139482D01*
X101019957Y-89115727D01*
X101014169Y-89095797D01*
X101004973Y-89075702D01*
X100990415Y-89051452D01*
X100968540Y-89019058D01*
X100957679Y-89003463D01*
X100957679Y-89003463D01*
X100957679Y-89003463D01*
G37*
X100957679Y-89003463D02*
X100929773Y-88965255D01*
X100903146Y-88931863D01*
X100880744Y-88906866D01*
X100869786Y-88896768D01*
X100840206Y-88873480D01*
X100802086Y-88900172D01*
X100763967Y-88926863D01*
X100787107Y-88939132D01*
X100827156Y-88967796D01*
X100863497Y-89007276D01*
X100892362Y-89052450D01*
X100909977Y-89098202D01*
X100912143Y-89108886D01*
X100912745Y-89161076D01*
X100897034Y-89209927D01*
X100864863Y-89255716D01*
X100816082Y-89298722D01*
X100806867Y-89305267D01*
X100762921Y-89332072D01*
X100724042Y-89346876D01*
X100685065Y-89351206D01*
X100658053Y-89349233D01*
X100613509Y-89335652D01*
X100570427Y-89308131D01*
X100532010Y-89269602D01*
X100501460Y-89222996D01*
X100488985Y-89194467D01*
X100473293Y-89151101D01*
X100440319Y-89174190D01*
X100423742Y-89186656D01*
X100414209Y-89198104D01*
X100412138Y-89211531D01*
X100417946Y-89229934D01*
X100432053Y-89256312D01*
X100454877Y-89293661D01*
X100457610Y-89298041D01*
X100507682Y-89367025D01*
X100561472Y-89419478D01*
X100618972Y-89455393D01*
X100680166Y-89474763D01*
X100745047Y-89477582D01*
X100759819Y-89475980D01*
X100785883Y-89471204D01*
X100809855Y-89463193D01*
X100836645Y-89449797D01*
X100871164Y-89428864D01*
X100879382Y-89423614D01*
X100914998Y-89399977D01*
X100940067Y-89380910D01*
X100958818Y-89362665D01*
X100975484Y-89341491D01*
X100981074Y-89333473D01*
X101011001Y-89275114D01*
X101025940Y-89211059D01*
X101025088Y-89144913D01*
X101024290Y-89139482D01*
X101019957Y-89115727D01*
X101014169Y-89095797D01*
X101004973Y-89075702D01*
X100990415Y-89051452D01*
X100968540Y-89019058D01*
X100957679Y-89003463D01*
X100957679Y-89003463D01*
G36*
X101329521Y-89512063D02*
X101279984Y-89457077D01*
X101279584Y-89456705D01*
X101247500Y-89426894D01*
X101212596Y-89451333D01*
X101192544Y-89466272D01*
X101184881Y-89475469D01*
X101187555Y-89482084D01*
X101190929Y-89484624D01*
X101236455Y-89523115D01*
X101271482Y-89569195D01*
X101294783Y-89619827D01*
X101305130Y-89671974D01*
X101301297Y-89722595D01*
X101295141Y-89742730D01*
X101270178Y-89787490D01*
X101233540Y-89827082D01*
X101188808Y-89859416D01*
X101139567Y-89882401D01*
X101089403Y-89893947D01*
X101041899Y-89891963D01*
X101040006Y-89891549D01*
X100992805Y-89872706D01*
X100949409Y-89839972D01*
X100912714Y-89796391D01*
X100885614Y-89745010D01*
X100877414Y-89720495D01*
X100870710Y-89698318D01*
X100864815Y-89688893D01*
X100856352Y-89688536D01*
X100850030Y-89690634D01*
X100829272Y-89700537D01*
X100813749Y-89710046D01*
X100802543Y-89720725D01*
X100800299Y-89734600D01*
X100806142Y-89757626D01*
X100806568Y-89758933D01*
X100816978Y-89782121D01*
X100835439Y-89814789D01*
X100859630Y-89852997D01*
X100876711Y-89878057D01*
X100902778Y-89914642D01*
X100922575Y-89940321D01*
X100939177Y-89958338D01*
X100955661Y-89971940D01*
X100975104Y-89984373D01*
X100980476Y-89987498D01*
X101038286Y-90012163D01*
X101100045Y-90023281D01*
X101160718Y-90020093D01*
X101175318Y-90016922D01*
X101222002Y-89999434D01*
X101271951Y-89971525D01*
X101319360Y-89937102D01*
X101358425Y-89900077D01*
X101370292Y-89885581D01*
X101394208Y-89842938D01*
X101410855Y-89792252D01*
X101418325Y-89740772D01*
X101417063Y-89708089D01*
X101400570Y-89642159D01*
X101370552Y-89575287D01*
X101329521Y-89512063D01*
X101329521Y-89512063D01*
X101329521Y-89512063D01*
G37*
X101329521Y-89512063D02*
X101279984Y-89457077D01*
X101279584Y-89456705D01*
X101247500Y-89426894D01*
X101212596Y-89451333D01*
X101192544Y-89466272D01*
X101184881Y-89475469D01*
X101187555Y-89482084D01*
X101190929Y-89484624D01*
X101236455Y-89523115D01*
X101271482Y-89569195D01*
X101294783Y-89619827D01*
X101305130Y-89671974D01*
X101301297Y-89722595D01*
X101295141Y-89742730D01*
X101270178Y-89787490D01*
X101233540Y-89827082D01*
X101188808Y-89859416D01*
X101139567Y-89882401D01*
X101089403Y-89893947D01*
X101041899Y-89891963D01*
X101040006Y-89891549D01*
X100992805Y-89872706D01*
X100949409Y-89839972D01*
X100912714Y-89796391D01*
X100885614Y-89745010D01*
X100877414Y-89720495D01*
X100870710Y-89698318D01*
X100864815Y-89688893D01*
X100856352Y-89688536D01*
X100850030Y-89690634D01*
X100829272Y-89700537D01*
X100813749Y-89710046D01*
X100802543Y-89720725D01*
X100800299Y-89734600D01*
X100806142Y-89757626D01*
X100806568Y-89758933D01*
X100816978Y-89782121D01*
X100835439Y-89814789D01*
X100859630Y-89852997D01*
X100876711Y-89878057D01*
X100902778Y-89914642D01*
X100922575Y-89940321D01*
X100939177Y-89958338D01*
X100955661Y-89971940D01*
X100975104Y-89984373D01*
X100980476Y-89987498D01*
X101038286Y-90012163D01*
X101100045Y-90023281D01*
X101160718Y-90020093D01*
X101175318Y-90016922D01*
X101222002Y-89999434D01*
X101271951Y-89971525D01*
X101319360Y-89937102D01*
X101358425Y-89900077D01*
X101370292Y-89885581D01*
X101394208Y-89842938D01*
X101410855Y-89792252D01*
X101418325Y-89740772D01*
X101417063Y-89708089D01*
X101400570Y-89642159D01*
X101370552Y-89575287D01*
X101329521Y-89512063D01*
X101329521Y-89512063D01*
G36*
X101296498Y-90231190D02*
X101259380Y-90257067D01*
X101231797Y-90275095D01*
X101204554Y-90291048D01*
X101194341Y-90296325D01*
X101176748Y-90305838D01*
X101171539Y-90315235D01*
X101176685Y-90330979D01*
X101180756Y-90339600D01*
X101195846Y-90367591D01*
X101213457Y-90395842D01*
X101215112Y-90398249D01*
X101235134Y-90427006D01*
X101298150Y-90390273D01*
X101326619Y-90373286D01*
X101348510Y-90359477D01*
X101360417Y-90351027D01*
X101361620Y-90349644D01*
X101357919Y-90340963D01*
X101347701Y-90321460D01*
X101332992Y-90294972D01*
X101329287Y-90288469D01*
X101296498Y-90231190D01*
X101296498Y-90231190D01*
X101296498Y-90231190D01*
G37*
X101296498Y-90231190D02*
X101259380Y-90257067D01*
X101231797Y-90275095D01*
X101204554Y-90291048D01*
X101194341Y-90296325D01*
X101176748Y-90305838D01*
X101171539Y-90315235D01*
X101176685Y-90330979D01*
X101180756Y-90339600D01*
X101195846Y-90367591D01*
X101213457Y-90395842D01*
X101215112Y-90398249D01*
X101235134Y-90427006D01*
X101298150Y-90390273D01*
X101326619Y-90373286D01*
X101348510Y-90359477D01*
X101360417Y-90351027D01*
X101361620Y-90349644D01*
X101357919Y-90340963D01*
X101347701Y-90321460D01*
X101332992Y-90294972D01*
X101329287Y-90288469D01*
X101296498Y-90231190D01*
X101296498Y-90231190D01*
G36*
X101854791Y-90391309D02*
X101817861Y-90410769D01*
X101800083Y-90420379D01*
X101770083Y-90436867D01*
X101730434Y-90458806D01*
X101683706Y-90484774D01*
X101632467Y-90513345D01*
X101598697Y-90532225D01*
X101546827Y-90561207D01*
X101498660Y-90588028D01*
X101456564Y-90611375D01*
X101422909Y-90629936D01*
X101400064Y-90642401D01*
X101391909Y-90646726D01*
X101375736Y-90656808D01*
X101372887Y-90667754D01*
X101379438Y-90683713D01*
X101391210Y-90707035D01*
X101405728Y-90735130D01*
X101409882Y-90743052D01*
X101428243Y-90777908D01*
X101460729Y-90760872D01*
X101491203Y-90744561D01*
X101530103Y-90723235D01*
X101575296Y-90698114D01*
X101624650Y-90670417D01*
X101676032Y-90641361D01*
X101727310Y-90612162D01*
X101776352Y-90584040D01*
X101821024Y-90558214D01*
X101859194Y-90535900D01*
X101888729Y-90518317D01*
X101907499Y-90506684D01*
X101913421Y-90502310D01*
X101910049Y-90492362D01*
X101900139Y-90472063D01*
X101885779Y-90445665D01*
X101884656Y-90443689D01*
X101854791Y-90391309D01*
X101854791Y-90391309D01*
X101854791Y-90391309D01*
G37*
X101854791Y-90391309D02*
X101817861Y-90410769D01*
X101800083Y-90420379D01*
X101770083Y-90436867D01*
X101730434Y-90458806D01*
X101683706Y-90484774D01*
X101632467Y-90513345D01*
X101598697Y-90532225D01*
X101546827Y-90561207D01*
X101498660Y-90588028D01*
X101456564Y-90611375D01*
X101422909Y-90629936D01*
X101400064Y-90642401D01*
X101391909Y-90646726D01*
X101375736Y-90656808D01*
X101372887Y-90667754D01*
X101379438Y-90683713D01*
X101391210Y-90707035D01*
X101405728Y-90735130D01*
X101409882Y-90743052D01*
X101428243Y-90777908D01*
X101460729Y-90760872D01*
X101491203Y-90744561D01*
X101530103Y-90723235D01*
X101575296Y-90698114D01*
X101624650Y-90670417D01*
X101676032Y-90641361D01*
X101727310Y-90612162D01*
X101776352Y-90584040D01*
X101821024Y-90558214D01*
X101859194Y-90535900D01*
X101888729Y-90518317D01*
X101907499Y-90506684D01*
X101913421Y-90502310D01*
X101910049Y-90492362D01*
X101900139Y-90472063D01*
X101885779Y-90445665D01*
X101884656Y-90443689D01*
X101854791Y-90391309D01*
X101854791Y-90391309D01*
G36*
X102072394Y-90281430D02*
X102062374Y-90277878D01*
X102044978Y-90284264D01*
X102040270Y-90286498D01*
X102009661Y-90302064D01*
X101992495Y-90314164D01*
X101986490Y-90325691D01*
X101989365Y-90339536D01*
X101992692Y-90346781D01*
X102011668Y-90384789D01*
X102024955Y-90409905D01*
X102034367Y-90424446D01*
X102041717Y-90430730D01*
X102048818Y-90431077D01*
X102056415Y-90428265D01*
X102076173Y-90418740D01*
X102099997Y-90405950D01*
X102101916Y-90404861D01*
X102129430Y-90389160D01*
X102111310Y-90354786D01*
X102097109Y-90327506D01*
X102084123Y-90302029D01*
X102081341Y-90296450D01*
X102072394Y-90281430D01*
X102072394Y-90281430D01*
X102072394Y-90281430D01*
G37*
X102072394Y-90281430D02*
X102062374Y-90277878D01*
X102044978Y-90284264D01*
X102040270Y-90286498D01*
X102009661Y-90302064D01*
X101992495Y-90314164D01*
X101986490Y-90325691D01*
X101989365Y-90339536D01*
X101992692Y-90346781D01*
X102011668Y-90384789D01*
X102024955Y-90409905D01*
X102034367Y-90424446D01*
X102041717Y-90430730D01*
X102048818Y-90431077D01*
X102056415Y-90428265D01*
X102076173Y-90418740D01*
X102099997Y-90405950D01*
X102101916Y-90404861D01*
X102129430Y-90389160D01*
X102111310Y-90354786D01*
X102097109Y-90327506D01*
X102084123Y-90302029D01*
X102081341Y-90296450D01*
X102072394Y-90281430D01*
X102072394Y-90281430D01*
G36*
X102030179Y-90710306D02*
X102022127Y-90701617D01*
X102014073Y-90702912D01*
X102008188Y-90707015D01*
X101998953Y-90715887D01*
X101979757Y-90735699D01*
X101952082Y-90764876D01*
X101917413Y-90801840D01*
X101877230Y-90845013D01*
X101833016Y-90892818D01*
X101805115Y-90923128D01*
X101759888Y-90972411D01*
X101718516Y-91017618D01*
X101682351Y-91057265D01*
X101652747Y-91089858D01*
X101631059Y-91113912D01*
X101618638Y-91127937D01*
X101616177Y-91130964D01*
X101619082Y-91140027D01*
X101627784Y-91159944D01*
X101640313Y-91186701D01*
X101654699Y-91216281D01*
X101668970Y-91244670D01*
X101681157Y-91267848D01*
X101689290Y-91281803D01*
X101691302Y-91284089D01*
X101700545Y-91283476D01*
X101724709Y-91281435D01*
X101761827Y-91278146D01*
X101809936Y-91273786D01*
X101867068Y-91268533D01*
X101931260Y-91262565D01*
X101987326Y-91257305D01*
X102067201Y-91249853D01*
X102131613Y-91243720D01*
X102181957Y-91238360D01*
X102219625Y-91233228D01*
X102246016Y-91227779D01*
X102262524Y-91221464D01*
X102270543Y-91213740D01*
X102271468Y-91204061D01*
X102266695Y-91191879D01*
X102257619Y-91176650D01*
X102245633Y-91157828D01*
X102244835Y-91156546D01*
X102219504Y-91115719D01*
X101966427Y-91146114D01*
X101892244Y-91154694D01*
X101830546Y-91161144D01*
X101782208Y-91165394D01*
X101748103Y-91167380D01*
X101729103Y-91167032D01*
X101725716Y-91164594D01*
X101734696Y-91155614D01*
X101753905Y-91136180D01*
X101781703Y-91107958D01*
X101816450Y-91072613D01*
X101856510Y-91031813D01*
X101900242Y-90987224D01*
X101906782Y-90980552D01*
X101956591Y-90929909D01*
X101995814Y-90889893D01*
X102025421Y-90858713D01*
X102046384Y-90834581D01*
X102059673Y-90815709D01*
X102066260Y-90800306D01*
X102067115Y-90786585D01*
X102063211Y-90772756D01*
X102055516Y-90757029D01*
X102045003Y-90737618D01*
X102041876Y-90731645D01*
X102030179Y-90710306D01*
X102030179Y-90710306D01*
X102030179Y-90710306D01*
G37*
X102030179Y-90710306D02*
X102022127Y-90701617D01*
X102014073Y-90702912D01*
X102008188Y-90707015D01*
X101998953Y-90715887D01*
X101979757Y-90735699D01*
X101952082Y-90764876D01*
X101917413Y-90801840D01*
X101877230Y-90845013D01*
X101833016Y-90892818D01*
X101805115Y-90923128D01*
X101759888Y-90972411D01*
X101718516Y-91017618D01*
X101682351Y-91057265D01*
X101652747Y-91089858D01*
X101631059Y-91113912D01*
X101618638Y-91127937D01*
X101616177Y-91130964D01*
X101619082Y-91140027D01*
X101627784Y-91159944D01*
X101640313Y-91186701D01*
X101654699Y-91216281D01*
X101668970Y-91244670D01*
X101681157Y-91267848D01*
X101689290Y-91281803D01*
X101691302Y-91284089D01*
X101700545Y-91283476D01*
X101724709Y-91281435D01*
X101761827Y-91278146D01*
X101809936Y-91273786D01*
X101867068Y-91268533D01*
X101931260Y-91262565D01*
X101987326Y-91257305D01*
X102067201Y-91249853D01*
X102131613Y-91243720D01*
X102181957Y-91238360D01*
X102219625Y-91233228D01*
X102246016Y-91227779D01*
X102262524Y-91221464D01*
X102270543Y-91213740D01*
X102271468Y-91204061D01*
X102266695Y-91191879D01*
X102257619Y-91176650D01*
X102245633Y-91157828D01*
X102244835Y-91156546D01*
X102219504Y-91115719D01*
X101966427Y-91146114D01*
X101892244Y-91154694D01*
X101830546Y-91161144D01*
X101782208Y-91165394D01*
X101748103Y-91167380D01*
X101729103Y-91167032D01*
X101725716Y-91164594D01*
X101734696Y-91155614D01*
X101753905Y-91136180D01*
X101781703Y-91107958D01*
X101816450Y-91072613D01*
X101856510Y-91031813D01*
X101900242Y-90987224D01*
X101906782Y-90980552D01*
X101956591Y-90929909D01*
X101995814Y-90889893D01*
X102025421Y-90858713D01*
X102046384Y-90834581D01*
X102059673Y-90815709D01*
X102066260Y-90800306D01*
X102067115Y-90786585D01*
X102063211Y-90772756D01*
X102055516Y-90757029D01*
X102045003Y-90737618D01*
X102041876Y-90731645D01*
X102030179Y-90710306D01*
X102030179Y-90710306D01*
G36*
X102374355Y-91444705D02*
X102367502Y-91438634D01*
X102359973Y-91439065D01*
X102359123Y-91439337D01*
X102348145Y-91443633D01*
X102324190Y-91453402D01*
X102289563Y-91467684D01*
X102246567Y-91485514D01*
X102197506Y-91505927D01*
X102144683Y-91527961D01*
X102090402Y-91550653D01*
X102036968Y-91573040D01*
X101986682Y-91594156D01*
X101941850Y-91613039D01*
X101904774Y-91628727D01*
X101877758Y-91640253D01*
X101863107Y-91646656D01*
X101861180Y-91647597D01*
X101862259Y-91656112D01*
X101868509Y-91676215D01*
X101878634Y-91703813D01*
X101880334Y-91708160D01*
X101892027Y-91736358D01*
X101901794Y-91757245D01*
X101907741Y-91766810D01*
X101908147Y-91767015D01*
X101917875Y-91764510D01*
X101939045Y-91757084D01*
X101967408Y-91746246D01*
X101972617Y-91744180D01*
X102002518Y-91732518D01*
X102019376Y-91727177D01*
X102025842Y-91728035D01*
X102024560Y-91734966D01*
X102021228Y-91741881D01*
X101992847Y-91804596D01*
X101974201Y-91861280D01*
X101965989Y-91909482D01*
X101966375Y-91933395D01*
X101979520Y-91990964D01*
X102004036Y-92037800D01*
X102038719Y-92072658D01*
X102082366Y-92094297D01*
X102129089Y-92101455D01*
X102147858Y-92101198D01*
X102166589Y-92099332D01*
X102187435Y-92095154D01*
X102212550Y-92087957D01*
X102244089Y-92077040D01*
X102284208Y-92061697D01*
X102335059Y-92041225D01*
X102398799Y-92014919D01*
X102416854Y-92007408D01*
X102575214Y-91941475D01*
X102564357Y-91911925D01*
X102553527Y-91883562D01*
X102541307Y-91853031D01*
X102539802Y-91849388D01*
X102526106Y-91816402D01*
X102441590Y-91852621D01*
X102364126Y-91885182D01*
X102295708Y-91912649D01*
X102237770Y-91934490D01*
X102191743Y-91950173D01*
X102159060Y-91959164D01*
X102151292Y-91960595D01*
X102111639Y-91959083D01*
X102077923Y-91944042D01*
X102051439Y-91918252D01*
X102033481Y-91884498D01*
X102025342Y-91845563D01*
X102028318Y-91804229D01*
X102043702Y-91763278D01*
X102052795Y-91748787D01*
X102067497Y-91730195D01*
X102084937Y-91713397D01*
X102107329Y-91697110D01*
X102136886Y-91680051D01*
X102175823Y-91660936D01*
X102226352Y-91638481D01*
X102287491Y-91612730D01*
X102330482Y-91594434D01*
X102367454Y-91577808D01*
X102395765Y-91564112D01*
X102412774Y-91554608D01*
X102416535Y-91551179D01*
X102413991Y-91539564D01*
X102406309Y-91517228D01*
X102395150Y-91488989D01*
X102395068Y-91488792D01*
X102382791Y-91460389D01*
X102374355Y-91444705D01*
X102374355Y-91444705D01*
X102374355Y-91444705D01*
G37*
X102374355Y-91444705D02*
X102367502Y-91438634D01*
X102359973Y-91439065D01*
X102359123Y-91439337D01*
X102348145Y-91443633D01*
X102324190Y-91453402D01*
X102289563Y-91467684D01*
X102246567Y-91485514D01*
X102197506Y-91505927D01*
X102144683Y-91527961D01*
X102090402Y-91550653D01*
X102036968Y-91573040D01*
X101986682Y-91594156D01*
X101941850Y-91613039D01*
X101904774Y-91628727D01*
X101877758Y-91640253D01*
X101863107Y-91646656D01*
X101861180Y-91647597D01*
X101862259Y-91656112D01*
X101868509Y-91676215D01*
X101878634Y-91703813D01*
X101880334Y-91708160D01*
X101892027Y-91736358D01*
X101901794Y-91757245D01*
X101907741Y-91766810D01*
X101908147Y-91767015D01*
X101917875Y-91764510D01*
X101939045Y-91757084D01*
X101967408Y-91746246D01*
X101972617Y-91744180D01*
X102002518Y-91732518D01*
X102019376Y-91727177D01*
X102025842Y-91728035D01*
X102024560Y-91734966D01*
X102021228Y-91741881D01*
X101992847Y-91804596D01*
X101974201Y-91861280D01*
X101965989Y-91909482D01*
X101966375Y-91933395D01*
X101979520Y-91990964D01*
X102004036Y-92037800D01*
X102038719Y-92072658D01*
X102082366Y-92094297D01*
X102129089Y-92101455D01*
X102147858Y-92101198D01*
X102166589Y-92099332D01*
X102187435Y-92095154D01*
X102212550Y-92087957D01*
X102244089Y-92077040D01*
X102284208Y-92061697D01*
X102335059Y-92041225D01*
X102398799Y-92014919D01*
X102416854Y-92007408D01*
X102575214Y-91941475D01*
X102564357Y-91911925D01*
X102553527Y-91883562D01*
X102541307Y-91853031D01*
X102539802Y-91849388D01*
X102526106Y-91816402D01*
X102441590Y-91852621D01*
X102364126Y-91885182D01*
X102295708Y-91912649D01*
X102237770Y-91934490D01*
X102191743Y-91950173D01*
X102159060Y-91959164D01*
X102151292Y-91960595D01*
X102111639Y-91959083D01*
X102077923Y-91944042D01*
X102051439Y-91918252D01*
X102033481Y-91884498D01*
X102025342Y-91845563D01*
X102028318Y-91804229D01*
X102043702Y-91763278D01*
X102052795Y-91748787D01*
X102067497Y-91730195D01*
X102084937Y-91713397D01*
X102107329Y-91697110D01*
X102136886Y-91680051D01*
X102175823Y-91660936D01*
X102226352Y-91638481D01*
X102287491Y-91612730D01*
X102330482Y-91594434D01*
X102367454Y-91577808D01*
X102395765Y-91564112D01*
X102412774Y-91554608D01*
X102416535Y-91551179D01*
X102413991Y-91539564D01*
X102406309Y-91517228D01*
X102395150Y-91488989D01*
X102395068Y-91488792D01*
X102382791Y-91460389D01*
X102374355Y-91444705D01*
X102374355Y-91444705D01*
G36*
X102671362Y-92212007D02*
X102662588Y-92213128D01*
X102639735Y-92219181D01*
X102604755Y-92229562D01*
X102559602Y-92243667D01*
X102506228Y-92260891D01*
X102446586Y-92280631D01*
X102413929Y-92291627D01*
X102351459Y-92312759D01*
X102293991Y-92332154D01*
X102243539Y-92349139D01*
X102202115Y-92363036D01*
X102171730Y-92373171D01*
X102154398Y-92378868D01*
X102151265Y-92379838D01*
X102149065Y-92388469D01*
X102152259Y-92409174D01*
X102160219Y-92438170D01*
X102161731Y-92442834D01*
X102172158Y-92472047D01*
X102181447Y-92493898D01*
X102187828Y-92504302D01*
X102188484Y-92504636D01*
X102199419Y-92502853D01*
X102221698Y-92496942D01*
X102250583Y-92488165D01*
X102251748Y-92487792D01*
X102308231Y-92469659D01*
X102279178Y-92524274D01*
X102253313Y-92577881D01*
X102237963Y-92623124D01*
X102232114Y-92664080D01*
X102234514Y-92703293D01*
X102246505Y-92747348D01*
X102267298Y-92788292D01*
X102293857Y-92821153D01*
X102316790Y-92838061D01*
X102357538Y-92851644D01*
X102406591Y-92856148D01*
X102442784Y-92853417D01*
X102458587Y-92849663D01*
X102486924Y-92841561D01*
X102524936Y-92830037D01*
X102569766Y-92816021D01*
X102618554Y-92800442D01*
X102668443Y-92784230D01*
X102716574Y-92768313D01*
X102760091Y-92753622D01*
X102796134Y-92741085D01*
X102821844Y-92731631D01*
X102834365Y-92726191D01*
X102834620Y-92726022D01*
X102834270Y-92717249D01*
X102829607Y-92697413D01*
X102822153Y-92671376D01*
X102813429Y-92644001D01*
X102804954Y-92620153D01*
X102798251Y-92604693D01*
X102795659Y-92601455D01*
X102786755Y-92603837D01*
X102764439Y-92610878D01*
X102731338Y-92621717D01*
X102690079Y-92635497D01*
X102647736Y-92649839D01*
X102578371Y-92673171D01*
X102522831Y-92691001D01*
X102479057Y-92703777D01*
X102444992Y-92711949D01*
X102418576Y-92715964D01*
X102397751Y-92716271D01*
X102380459Y-92713317D01*
X102370870Y-92710146D01*
X102335672Y-92688353D01*
X102311260Y-92656353D01*
X102298284Y-92617533D01*
X102297394Y-92575285D01*
X102309236Y-92532997D01*
X102330432Y-92498774D01*
X102349490Y-92478954D01*
X102373822Y-92460591D01*
X102405614Y-92442605D01*
X102447052Y-92423917D01*
X102500320Y-92403445D01*
X102567605Y-92380111D01*
X102576765Y-92377054D01*
X102712807Y-92331804D01*
X102694223Y-92274959D01*
X102684412Y-92245882D01*
X102676260Y-92223390D01*
X102671469Y-92212170D01*
X102671362Y-92212007D01*
X102671362Y-92212007D01*
X102671362Y-92212007D01*
G37*
X102671362Y-92212007D02*
X102662588Y-92213128D01*
X102639735Y-92219181D01*
X102604755Y-92229562D01*
X102559602Y-92243667D01*
X102506228Y-92260891D01*
X102446586Y-92280631D01*
X102413929Y-92291627D01*
X102351459Y-92312759D01*
X102293991Y-92332154D01*
X102243539Y-92349139D01*
X102202115Y-92363036D01*
X102171730Y-92373171D01*
X102154398Y-92378868D01*
X102151265Y-92379838D01*
X102149065Y-92388469D01*
X102152259Y-92409174D01*
X102160219Y-92438170D01*
X102161731Y-92442834D01*
X102172158Y-92472047D01*
X102181447Y-92493898D01*
X102187828Y-92504302D01*
X102188484Y-92504636D01*
X102199419Y-92502853D01*
X102221698Y-92496942D01*
X102250583Y-92488165D01*
X102251748Y-92487792D01*
X102308231Y-92469659D01*
X102279178Y-92524274D01*
X102253313Y-92577881D01*
X102237963Y-92623124D01*
X102232114Y-92664080D01*
X102234514Y-92703293D01*
X102246505Y-92747348D01*
X102267298Y-92788292D01*
X102293857Y-92821153D01*
X102316790Y-92838061D01*
X102357538Y-92851644D01*
X102406591Y-92856148D01*
X102442784Y-92853417D01*
X102458587Y-92849663D01*
X102486924Y-92841561D01*
X102524936Y-92830037D01*
X102569766Y-92816021D01*
X102618554Y-92800442D01*
X102668443Y-92784230D01*
X102716574Y-92768313D01*
X102760091Y-92753622D01*
X102796134Y-92741085D01*
X102821844Y-92731631D01*
X102834365Y-92726191D01*
X102834620Y-92726022D01*
X102834270Y-92717249D01*
X102829607Y-92697413D01*
X102822153Y-92671376D01*
X102813429Y-92644001D01*
X102804954Y-92620153D01*
X102798251Y-92604693D01*
X102795659Y-92601455D01*
X102786755Y-92603837D01*
X102764439Y-92610878D01*
X102731338Y-92621717D01*
X102690079Y-92635497D01*
X102647736Y-92649839D01*
X102578371Y-92673171D01*
X102522831Y-92691001D01*
X102479057Y-92703777D01*
X102444992Y-92711949D01*
X102418576Y-92715964D01*
X102397751Y-92716271D01*
X102380459Y-92713317D01*
X102370870Y-92710146D01*
X102335672Y-92688353D01*
X102311260Y-92656353D01*
X102298284Y-92617533D01*
X102297394Y-92575285D01*
X102309236Y-92532997D01*
X102330432Y-92498774D01*
X102349490Y-92478954D01*
X102373822Y-92460591D01*
X102405614Y-92442605D01*
X102447052Y-92423917D01*
X102500320Y-92403445D01*
X102567605Y-92380111D01*
X102576765Y-92377054D01*
X102712807Y-92331804D01*
X102694223Y-92274959D01*
X102684412Y-92245882D01*
X102676260Y-92223390D01*
X102671469Y-92212170D01*
X102671362Y-92212007D01*
X102671362Y-92212007D01*
G36*
X102904389Y-92916889D02*
X102890173Y-92909313D01*
X102866073Y-92911487D01*
X102848662Y-92915685D01*
X102800893Y-92928286D01*
X102815644Y-92971639D01*
X102829146Y-93030194D01*
X102827414Y-93082575D01*
X102815310Y-93120352D01*
X102805008Y-93139830D01*
X102792420Y-93155313D01*
X102773447Y-93170759D01*
X102743995Y-93190124D01*
X102741380Y-93191762D01*
X102714892Y-93207242D01*
X102687721Y-93220336D01*
X102656069Y-93232471D01*
X102616138Y-93245070D01*
X102564131Y-93259562D01*
X102552843Y-93262575D01*
X102508358Y-93274819D01*
X102470113Y-93286157D01*
X102440920Y-93295694D01*
X102423586Y-93302529D01*
X102420023Y-93305043D01*
X102421069Y-93316572D01*
X102425594Y-93339604D01*
X102432638Y-93369274D01*
X102433052Y-93370896D01*
X102447958Y-93429063D01*
X102705688Y-93358070D01*
X102769350Y-93340489D01*
X102827964Y-93324220D01*
X102879472Y-93309840D01*
X102921813Y-93297927D01*
X102952929Y-93289059D01*
X102970759Y-93283813D01*
X102974029Y-93282738D01*
X102976503Y-93273536D01*
X102975335Y-93253068D01*
X102971425Y-93226413D01*
X102965661Y-93198650D01*
X102958940Y-93174859D01*
X102952556Y-93160671D01*
X102943016Y-93159881D01*
X102922503Y-93163681D01*
X102903867Y-93168762D01*
X102877573Y-93176468D01*
X102857752Y-93181740D01*
X102850934Y-93183134D01*
X102850690Y-93176444D01*
X102856814Y-93157900D01*
X102868113Y-93130826D01*
X102875385Y-93115014D01*
X102893353Y-93076572D01*
X102905136Y-93049041D01*
X102911918Y-93028058D01*
X102914887Y-93009259D01*
X102915229Y-92988280D01*
X102914579Y-92970836D01*
X102911573Y-92936601D01*
X102904389Y-92916889D01*
X102904389Y-92916889D01*
X102904389Y-92916889D01*
G37*
X102904389Y-92916889D02*
X102890173Y-92909313D01*
X102866073Y-92911487D01*
X102848662Y-92915685D01*
X102800893Y-92928286D01*
X102815644Y-92971639D01*
X102829146Y-93030194D01*
X102827414Y-93082575D01*
X102815310Y-93120352D01*
X102805008Y-93139830D01*
X102792420Y-93155313D01*
X102773447Y-93170759D01*
X102743995Y-93190124D01*
X102741380Y-93191762D01*
X102714892Y-93207242D01*
X102687721Y-93220336D01*
X102656069Y-93232471D01*
X102616138Y-93245070D01*
X102564131Y-93259562D01*
X102552843Y-93262575D01*
X102508358Y-93274819D01*
X102470113Y-93286157D01*
X102440920Y-93295694D01*
X102423586Y-93302529D01*
X102420023Y-93305043D01*
X102421069Y-93316572D01*
X102425594Y-93339604D01*
X102432638Y-93369274D01*
X102433052Y-93370896D01*
X102447958Y-93429063D01*
X102705688Y-93358070D01*
X102769350Y-93340489D01*
X102827964Y-93324220D01*
X102879472Y-93309840D01*
X102921813Y-93297927D01*
X102952929Y-93289059D01*
X102970759Y-93283813D01*
X102974029Y-93282738D01*
X102976503Y-93273536D01*
X102975335Y-93253068D01*
X102971425Y-93226413D01*
X102965661Y-93198650D01*
X102958940Y-93174859D01*
X102952556Y-93160671D01*
X102943016Y-93159881D01*
X102922503Y-93163681D01*
X102903867Y-93168762D01*
X102877573Y-93176468D01*
X102857752Y-93181740D01*
X102850934Y-93183134D01*
X102850690Y-93176444D01*
X102856814Y-93157900D01*
X102868113Y-93130826D01*
X102875385Y-93115014D01*
X102893353Y-93076572D01*
X102905136Y-93049041D01*
X102911918Y-93028058D01*
X102914887Y-93009259D01*
X102915229Y-92988280D01*
X102914579Y-92970836D01*
X102911573Y-92936601D01*
X102904389Y-92916889D01*
X102904389Y-92916889D01*
G36*
X103462781Y-94897650D02*
X103134364Y-94933603D01*
X103061443Y-94941538D01*
X102993751Y-94948811D01*
X102933156Y-94955228D01*
X102881522Y-94960597D01*
X102840715Y-94964723D01*
X102812601Y-94967414D01*
X102799043Y-94968476D01*
X102798175Y-94968469D01*
X102793818Y-94961366D01*
X102789660Y-94940686D01*
X102785580Y-94905482D01*
X102781457Y-94854807D01*
X102779030Y-94818466D01*
X102777061Y-94787206D01*
X102733688Y-94791611D01*
X102690313Y-94796016D01*
X102710121Y-95027107D01*
X102715396Y-95089045D01*
X102720216Y-95146361D01*
X102724377Y-95196604D01*
X102727680Y-95237326D01*
X102729923Y-95266075D01*
X102730906Y-95280402D01*
X102730909Y-95280471D01*
X102732602Y-95293222D01*
X102739046Y-95298828D01*
X102754507Y-95298713D01*
X102775987Y-95295496D01*
X102801206Y-95289764D01*
X102815862Y-95283166D01*
X102817940Y-95279399D01*
X102814622Y-95258405D01*
X102812154Y-95228982D01*
X102810618Y-95195506D01*
X102810098Y-95162351D01*
X102810674Y-95133892D01*
X102812430Y-95114504D01*
X102814713Y-95108476D01*
X102825697Y-95106442D01*
X102850810Y-95103043D01*
X102887689Y-95098530D01*
X102933966Y-95093152D01*
X102987276Y-95087162D01*
X103045254Y-95080809D01*
X103105537Y-95074345D01*
X103165757Y-95068020D01*
X103223548Y-95062085D01*
X103276546Y-95056791D01*
X103322386Y-95052389D01*
X103358702Y-95049130D01*
X103383129Y-95047263D01*
X103393302Y-95047040D01*
X103393442Y-95047117D01*
X103393516Y-95056502D01*
X103391736Y-95079050D01*
X103388434Y-95111105D01*
X103385124Y-95139449D01*
X103380503Y-95182174D01*
X103379805Y-95210526D01*
X103384182Y-95226867D01*
X103394789Y-95233555D01*
X103412781Y-95232953D01*
X103429244Y-95229714D01*
X103442131Y-95226235D01*
X103450640Y-95220404D01*
X103456309Y-95208759D01*
X103460673Y-95187837D01*
X103465270Y-95154178D01*
X103466265Y-95146306D01*
X103470011Y-95100949D01*
X103471417Y-95048168D01*
X103470302Y-94997367D01*
X103469401Y-94983296D01*
X103462781Y-94897650D01*
X103462781Y-94897650D01*
X103462781Y-94897650D01*
G37*
X103462781Y-94897650D02*
X103134364Y-94933603D01*
X103061443Y-94941538D01*
X102993751Y-94948811D01*
X102933156Y-94955228D01*
X102881522Y-94960597D01*
X102840715Y-94964723D01*
X102812601Y-94967414D01*
X102799043Y-94968476D01*
X102798175Y-94968469D01*
X102793818Y-94961366D01*
X102789660Y-94940686D01*
X102785580Y-94905482D01*
X102781457Y-94854807D01*
X102779030Y-94818466D01*
X102777061Y-94787206D01*
X102733688Y-94791611D01*
X102690313Y-94796016D01*
X102710121Y-95027107D01*
X102715396Y-95089045D01*
X102720216Y-95146361D01*
X102724377Y-95196604D01*
X102727680Y-95237326D01*
X102729923Y-95266075D01*
X102730906Y-95280402D01*
X102730909Y-95280471D01*
X102732602Y-95293222D01*
X102739046Y-95298828D01*
X102754507Y-95298713D01*
X102775987Y-95295496D01*
X102801206Y-95289764D01*
X102815862Y-95283166D01*
X102817940Y-95279399D01*
X102814622Y-95258405D01*
X102812154Y-95228982D01*
X102810618Y-95195506D01*
X102810098Y-95162351D01*
X102810674Y-95133892D01*
X102812430Y-95114504D01*
X102814713Y-95108476D01*
X102825697Y-95106442D01*
X102850810Y-95103043D01*
X102887689Y-95098530D01*
X102933966Y-95093152D01*
X102987276Y-95087162D01*
X103045254Y-95080809D01*
X103105537Y-95074345D01*
X103165757Y-95068020D01*
X103223548Y-95062085D01*
X103276546Y-95056791D01*
X103322386Y-95052389D01*
X103358702Y-95049130D01*
X103383129Y-95047263D01*
X103393302Y-95047040D01*
X103393442Y-95047117D01*
X103393516Y-95056502D01*
X103391736Y-95079050D01*
X103388434Y-95111105D01*
X103385124Y-95139449D01*
X103380503Y-95182174D01*
X103379805Y-95210526D01*
X103384182Y-95226867D01*
X103394789Y-95233555D01*
X103412781Y-95232953D01*
X103429244Y-95229714D01*
X103442131Y-95226235D01*
X103450640Y-95220404D01*
X103456309Y-95208759D01*
X103460673Y-95187837D01*
X103465270Y-95154178D01*
X103466265Y-95146306D01*
X103470011Y-95100949D01*
X103471417Y-95048168D01*
X103470302Y-94997367D01*
X103469401Y-94983296D01*
X103462781Y-94897650D01*
X103462781Y-94897650D01*
G36*
X103511701Y-95760938D02*
X103307170Y-95693294D01*
X103429823Y-95868461D01*
X103429800Y-95868538D01*
X103421510Y-95872553D01*
X103399843Y-95881518D01*
X103367318Y-95894475D01*
X103326456Y-95910461D01*
X103279776Y-95928518D01*
X103229799Y-95947683D01*
X103179046Y-95966996D01*
X103130035Y-95985496D01*
X103085288Y-96002224D01*
X103047324Y-96016218D01*
X103018664Y-96026517D01*
X103001828Y-96032162D01*
X102998516Y-96032933D01*
X102996571Y-96024930D01*
X102995255Y-96004699D01*
X102994883Y-95982179D01*
X102994833Y-95952710D01*
X102994664Y-95912182D01*
X102994404Y-95866493D01*
X102994161Y-95831445D01*
X102993396Y-95730934D01*
X103213239Y-95797107D01*
X103270930Y-95814693D01*
X103322721Y-95830904D01*
X103366559Y-95845063D01*
X103400391Y-95856495D01*
X103422165Y-95864520D01*
X103429823Y-95868461D01*
X103307170Y-95693294D01*
X103137961Y-95637331D01*
X103061788Y-95612148D01*
X102990508Y-95588601D01*
X102925743Y-95567226D01*
X102869119Y-95548556D01*
X102822263Y-95533129D01*
X102786798Y-95521479D01*
X102764350Y-95514144D01*
X102756623Y-95511672D01*
X102753255Y-95518525D01*
X102750798Y-95538577D01*
X102749630Y-95568073D01*
X102749606Y-95581339D01*
X102751219Y-95618701D01*
X102755087Y-95645065D01*
X102760778Y-95657626D01*
X102761484Y-95658040D01*
X102774641Y-95662783D01*
X102799198Y-95670809D01*
X102830303Y-95680539D01*
X102836625Y-95682473D01*
X102900468Y-95701921D01*
X102902499Y-95884824D01*
X102903089Y-95938623D01*
X102903600Y-95986360D01*
X102904006Y-96025553D01*
X102904283Y-96053718D01*
X102904402Y-96068371D01*
X102904401Y-96069887D01*
X102896973Y-96073609D01*
X102877122Y-96081834D01*
X102848324Y-96093148D01*
X102829377Y-96100386D01*
X102754479Y-96128723D01*
X102756187Y-96199727D01*
X102757346Y-96232064D01*
X102758956Y-96256739D01*
X102760731Y-96269813D01*
X102761357Y-96270922D01*
X102769931Y-96267906D01*
X102792250Y-96259243D01*
X102826456Y-96245687D01*
X102870690Y-96227993D01*
X102923095Y-96206919D01*
X102981814Y-96183218D01*
X103044988Y-96157645D01*
X103110759Y-96130957D01*
X103177270Y-96103909D01*
X103242663Y-96077257D01*
X103305081Y-96051754D01*
X103362664Y-96028158D01*
X103413557Y-96007222D01*
X103455900Y-95989705D01*
X103487836Y-95976359D01*
X103507507Y-95967942D01*
X103513199Y-95965215D01*
X103513102Y-95956204D01*
X103512918Y-95933641D01*
X103512673Y-95900938D01*
X103512396Y-95861747D01*
X103511701Y-95760938D01*
X103511701Y-95760938D01*
X103511701Y-95760938D01*
G37*
X103511701Y-95760938D02*
X103307170Y-95693294D01*
X103429823Y-95868461D01*
X103429800Y-95868538D01*
X103421510Y-95872553D01*
X103399843Y-95881518D01*
X103367318Y-95894475D01*
X103326456Y-95910461D01*
X103279776Y-95928518D01*
X103229799Y-95947683D01*
X103179046Y-95966996D01*
X103130035Y-95985496D01*
X103085288Y-96002224D01*
X103047324Y-96016218D01*
X103018664Y-96026517D01*
X103001828Y-96032162D01*
X102998516Y-96032933D01*
X102996571Y-96024930D01*
X102995255Y-96004699D01*
X102994883Y-95982179D01*
X102994833Y-95952710D01*
X102994664Y-95912182D01*
X102994404Y-95866493D01*
X102994161Y-95831445D01*
X102993396Y-95730934D01*
X103213239Y-95797107D01*
X103270930Y-95814693D01*
X103322721Y-95830904D01*
X103366559Y-95845063D01*
X103400391Y-95856495D01*
X103422165Y-95864520D01*
X103429823Y-95868461D01*
X103307170Y-95693294D01*
X103137961Y-95637331D01*
X103061788Y-95612148D01*
X102990508Y-95588601D01*
X102925743Y-95567226D01*
X102869119Y-95548556D01*
X102822263Y-95533129D01*
X102786798Y-95521479D01*
X102764350Y-95514144D01*
X102756623Y-95511672D01*
X102753255Y-95518525D01*
X102750798Y-95538577D01*
X102749630Y-95568073D01*
X102749606Y-95581339D01*
X102751219Y-95618701D01*
X102755087Y-95645065D01*
X102760778Y-95657626D01*
X102761484Y-95658040D01*
X102774641Y-95662783D01*
X102799198Y-95670809D01*
X102830303Y-95680539D01*
X102836625Y-95682473D01*
X102900468Y-95701921D01*
X102902499Y-95884824D01*
X102903089Y-95938623D01*
X102903600Y-95986360D01*
X102904006Y-96025553D01*
X102904283Y-96053718D01*
X102904402Y-96068371D01*
X102904401Y-96069887D01*
X102896973Y-96073609D01*
X102877122Y-96081834D01*
X102848324Y-96093148D01*
X102829377Y-96100386D01*
X102754479Y-96128723D01*
X102756187Y-96199727D01*
X102757346Y-96232064D01*
X102758956Y-96256739D01*
X102760731Y-96269813D01*
X102761357Y-96270922D01*
X102769931Y-96267906D01*
X102792250Y-96259243D01*
X102826456Y-96245687D01*
X102870690Y-96227993D01*
X102923095Y-96206919D01*
X102981814Y-96183218D01*
X103044988Y-96157645D01*
X103110759Y-96130957D01*
X103177270Y-96103909D01*
X103242663Y-96077257D01*
X103305081Y-96051754D01*
X103362664Y-96028158D01*
X103413557Y-96007222D01*
X103455900Y-95989705D01*
X103487836Y-95976359D01*
X103507507Y-95967942D01*
X103513199Y-95965215D01*
X103513102Y-95956204D01*
X103512918Y-95933641D01*
X103512673Y-95900938D01*
X103512396Y-95861747D01*
X103511701Y-95760938D01*
X103511701Y-95760938D01*
G36*
X102890097Y-96481267D02*
X102880167Y-96477385D01*
X102858336Y-96473980D01*
X102829667Y-96471353D01*
X102799221Y-96469802D01*
X102772059Y-96469627D01*
X102753243Y-96471128D01*
X102748170Y-96472864D01*
X102745291Y-96482815D01*
X102742691Y-96504718D01*
X102741121Y-96529983D01*
X102740413Y-96559718D01*
X102740730Y-96583335D01*
X102741749Y-96594153D01*
X102750548Y-96598491D01*
X102771450Y-96602253D01*
X102799599Y-96605138D01*
X102830138Y-96606841D01*
X102858211Y-96607058D01*
X102878962Y-96605488D01*
X102886498Y-96603186D01*
X102889713Y-96593120D01*
X102892091Y-96571607D01*
X102893467Y-96544143D01*
X102893679Y-96516229D01*
X102892566Y-96493363D01*
X102890097Y-96481267D01*
X102890097Y-96481267D01*
X102890097Y-96481267D01*
G37*
X102890097Y-96481267D02*
X102880167Y-96477385D01*
X102858336Y-96473980D01*
X102829667Y-96471353D01*
X102799221Y-96469802D01*
X102772059Y-96469627D01*
X102753243Y-96471128D01*
X102748170Y-96472864D01*
X102745291Y-96482815D01*
X102742691Y-96504718D01*
X102741121Y-96529983D01*
X102740413Y-96559718D01*
X102740730Y-96583335D01*
X102741749Y-96594153D01*
X102750548Y-96598491D01*
X102771450Y-96602253D01*
X102799599Y-96605138D01*
X102830138Y-96606841D01*
X102858211Y-96607058D01*
X102878962Y-96605488D01*
X102886498Y-96603186D01*
X102889713Y-96593120D01*
X102892091Y-96571607D01*
X102893467Y-96544143D01*
X102893679Y-96516229D01*
X102892566Y-96493363D01*
X102890097Y-96481267D01*
X102890097Y-96481267D01*
G36*
X103282138Y-96763366D02*
X103276408Y-96760133D01*
X103258959Y-96765268D01*
X103228979Y-96774440D01*
X103188747Y-96786924D01*
X103140548Y-96801997D01*
X103086665Y-96818937D01*
X103029382Y-96837017D01*
X102970981Y-96855514D01*
X102913746Y-96873706D01*
X102859959Y-96890868D01*
X102811903Y-96906275D01*
X102771863Y-96919204D01*
X102742122Y-96928931D01*
X102724961Y-96934733D01*
X102721674Y-96936013D01*
X102718224Y-96945882D01*
X102714170Y-96968771D01*
X102710126Y-97000780D01*
X102707950Y-97022873D01*
X102704919Y-97061223D01*
X102704319Y-97086230D01*
X102706607Y-97101396D01*
X102712239Y-97110225D01*
X102720012Y-97115370D01*
X102732082Y-97121349D01*
X102756694Y-97133286D01*
X102791643Y-97150124D01*
X102834719Y-97170811D01*
X102883713Y-97194290D01*
X102936418Y-97219507D01*
X102990625Y-97245407D01*
X103044126Y-97270937D01*
X103094712Y-97295039D01*
X103140175Y-97316661D01*
X103178307Y-97334748D01*
X103206898Y-97348243D01*
X103223743Y-97356094D01*
X103227297Y-97357658D01*
X103230137Y-97350734D01*
X103233589Y-97331760D01*
X103237033Y-97305606D01*
X103239853Y-97277141D01*
X103241430Y-97251231D01*
X103241562Y-97245346D01*
X103239298Y-97239366D01*
X103231373Y-97231944D01*
X103216271Y-97222305D01*
X103192478Y-97209670D01*
X103158476Y-97193259D01*
X103112749Y-97172297D01*
X103053783Y-97146006D01*
X103012638Y-97127885D01*
X102955007Y-97102409D01*
X102902998Y-97079090D01*
X102858482Y-97058791D01*
X102823324Y-97042374D01*
X102799393Y-97030706D01*
X102788558Y-97024650D01*
X102788160Y-97024039D01*
X102797212Y-97021011D01*
X102820517Y-97014053D01*
X102855992Y-97003764D01*
X102901543Y-96990745D01*
X102955081Y-96975595D01*
X103014519Y-96958913D01*
X103028890Y-96954899D01*
X103089562Y-96937699D01*
X103144921Y-96921493D01*
X103192850Y-96906939D01*
X103231230Y-96894699D01*
X103257945Y-96885436D01*
X103270875Y-96879808D01*
X103271661Y-96879122D01*
X103275784Y-96866009D01*
X103280004Y-96841462D01*
X103283187Y-96813077D01*
X103284703Y-96780522D01*
X103282138Y-96763366D01*
X103282138Y-96763366D01*
X103282138Y-96763366D01*
G37*
X103282138Y-96763366D02*
X103276408Y-96760133D01*
X103258959Y-96765268D01*
X103228979Y-96774440D01*
X103188747Y-96786924D01*
X103140548Y-96801997D01*
X103086665Y-96818937D01*
X103029382Y-96837017D01*
X102970981Y-96855514D01*
X102913746Y-96873706D01*
X102859959Y-96890868D01*
X102811903Y-96906275D01*
X102771863Y-96919204D01*
X102742122Y-96928931D01*
X102724961Y-96934733D01*
X102721674Y-96936013D01*
X102718224Y-96945882D01*
X102714170Y-96968771D01*
X102710126Y-97000780D01*
X102707950Y-97022873D01*
X102704919Y-97061223D01*
X102704319Y-97086230D01*
X102706607Y-97101396D01*
X102712239Y-97110225D01*
X102720012Y-97115370D01*
X102732082Y-97121349D01*
X102756694Y-97133286D01*
X102791643Y-97150124D01*
X102834719Y-97170811D01*
X102883713Y-97194290D01*
X102936418Y-97219507D01*
X102990625Y-97245407D01*
X103044126Y-97270937D01*
X103094712Y-97295039D01*
X103140175Y-97316661D01*
X103178307Y-97334748D01*
X103206898Y-97348243D01*
X103223743Y-97356094D01*
X103227297Y-97357658D01*
X103230137Y-97350734D01*
X103233589Y-97331760D01*
X103237033Y-97305606D01*
X103239853Y-97277141D01*
X103241430Y-97251231D01*
X103241562Y-97245346D01*
X103239298Y-97239366D01*
X103231373Y-97231944D01*
X103216271Y-97222305D01*
X103192478Y-97209670D01*
X103158476Y-97193259D01*
X103112749Y-97172297D01*
X103053783Y-97146006D01*
X103012638Y-97127885D01*
X102955007Y-97102409D01*
X102902998Y-97079090D01*
X102858482Y-97058791D01*
X102823324Y-97042374D01*
X102799393Y-97030706D01*
X102788558Y-97024650D01*
X102788160Y-97024039D01*
X102797212Y-97021011D01*
X102820517Y-97014053D01*
X102855992Y-97003764D01*
X102901543Y-96990745D01*
X102955081Y-96975595D01*
X103014519Y-96958913D01*
X103028890Y-96954899D01*
X103089562Y-96937699D01*
X103144921Y-96921493D01*
X103192850Y-96906939D01*
X103231230Y-96894699D01*
X103257945Y-96885436D01*
X103270875Y-96879808D01*
X103271661Y-96879122D01*
X103275784Y-96866009D01*
X103280004Y-96841462D01*
X103283187Y-96813077D01*
X103284703Y-96780522D01*
X103282138Y-96763366D01*
X103282138Y-96763366D01*
G36*
X103135674Y-97614146D02*
X103100255Y-97572459D01*
X103059092Y-97542168D01*
X103008198Y-97520795D01*
X102969094Y-97510742D01*
X102938266Y-97504191D01*
X103079167Y-97705418D01*
X103102372Y-97740454D01*
X103109678Y-97761531D01*
X103111171Y-97797134D01*
X103103448Y-97838114D01*
X103088456Y-97877082D01*
X103072767Y-97901568D01*
X103049098Y-97924536D01*
X103020361Y-97940752D01*
X102982106Y-97952267D01*
X102949500Y-97958283D01*
X102900328Y-97965964D01*
X102927809Y-97809172D01*
X102936851Y-97759819D01*
X102945521Y-97716581D01*
X102953229Y-97682099D01*
X102959382Y-97659016D01*
X102963388Y-97649974D01*
X102963445Y-97649953D01*
X102975905Y-97650687D01*
X102998042Y-97655335D01*
X103009845Y-97658504D01*
X103046716Y-97676441D01*
X103079167Y-97705418D01*
X102938266Y-97504191D01*
X102915260Y-97499300D01*
X102877944Y-97727315D01*
X102840629Y-97955330D01*
X102814632Y-97947650D01*
X102758509Y-97924634D01*
X102716823Y-97892853D01*
X102689401Y-97852021D01*
X102676069Y-97801844D01*
X102676656Y-97742034D01*
X102679613Y-97721621D01*
X102690158Y-97676993D01*
X102706271Y-97627685D01*
X102725386Y-97580632D01*
X102744945Y-97542770D01*
X102746756Y-97539867D01*
X102755880Y-97521514D01*
X102753065Y-97510586D01*
X102736512Y-97505034D01*
X102714532Y-97503189D01*
X102681625Y-97501673D01*
X102648231Y-97587670D01*
X102619250Y-97676563D01*
X102603421Y-97759294D01*
X102600631Y-97834938D01*
X102610761Y-97902574D01*
X102633699Y-97961279D01*
X102669327Y-98010129D01*
X102704801Y-98040084D01*
X102750410Y-98063568D01*
X102806232Y-98080594D01*
X102866378Y-98090028D01*
X102924959Y-98090740D01*
X102951482Y-98087530D01*
X103013962Y-98068509D01*
X103067655Y-98035014D01*
X103112336Y-97987207D01*
X103134118Y-97952833D01*
X103159377Y-97894627D01*
X103175854Y-97830606D01*
X103182404Y-97766859D01*
X103178817Y-97714467D01*
X103170117Y-97677898D01*
X103156116Y-97646119D01*
X103135674Y-97614146D01*
X103135674Y-97614146D01*
X103135674Y-97614146D01*
G37*
X103135674Y-97614146D02*
X103100255Y-97572459D01*
X103059092Y-97542168D01*
X103008198Y-97520795D01*
X102969094Y-97510742D01*
X102938266Y-97504191D01*
X103079167Y-97705418D01*
X103102372Y-97740454D01*
X103109678Y-97761531D01*
X103111171Y-97797134D01*
X103103448Y-97838114D01*
X103088456Y-97877082D01*
X103072767Y-97901568D01*
X103049098Y-97924536D01*
X103020361Y-97940752D01*
X102982106Y-97952267D01*
X102949500Y-97958283D01*
X102900328Y-97965964D01*
X102927809Y-97809172D01*
X102936851Y-97759819D01*
X102945521Y-97716581D01*
X102953229Y-97682099D01*
X102959382Y-97659016D01*
X102963388Y-97649974D01*
X102963445Y-97649953D01*
X102975905Y-97650687D01*
X102998042Y-97655335D01*
X103009845Y-97658504D01*
X103046716Y-97676441D01*
X103079167Y-97705418D01*
X102938266Y-97504191D01*
X102915260Y-97499300D01*
X102877944Y-97727315D01*
X102840629Y-97955330D01*
X102814632Y-97947650D01*
X102758509Y-97924634D01*
X102716823Y-97892853D01*
X102689401Y-97852021D01*
X102676069Y-97801844D01*
X102676656Y-97742034D01*
X102679613Y-97721621D01*
X102690158Y-97676993D01*
X102706271Y-97627685D01*
X102725386Y-97580632D01*
X102744945Y-97542770D01*
X102746756Y-97539867D01*
X102755880Y-97521514D01*
X102753065Y-97510586D01*
X102736512Y-97505034D01*
X102714532Y-97503189D01*
X102681625Y-97501673D01*
X102648231Y-97587670D01*
X102619250Y-97676563D01*
X102603421Y-97759294D01*
X102600631Y-97834938D01*
X102610761Y-97902574D01*
X102633699Y-97961279D01*
X102669327Y-98010129D01*
X102704801Y-98040084D01*
X102750410Y-98063568D01*
X102806232Y-98080594D01*
X102866378Y-98090028D01*
X102924959Y-98090740D01*
X102951482Y-98087530D01*
X103013962Y-98068509D01*
X103067655Y-98035014D01*
X103112336Y-97987207D01*
X103134118Y-97952833D01*
X103159377Y-97894627D01*
X103175854Y-97830606D01*
X103182404Y-97766859D01*
X103178817Y-97714467D01*
X103170117Y-97677898D01*
X103156116Y-97646119D01*
X103135674Y-97614146D01*
X103135674Y-97614146D01*
G36*
X103192856Y-98476484D02*
X103162637Y-98439685D01*
X103120432Y-98413565D01*
X103067402Y-98398902D01*
X103020955Y-98395899D01*
X102975755Y-98402415D01*
X102965205Y-98407445D01*
X103102890Y-98604079D01*
X103106965Y-98625216D01*
X103107460Y-98657993D01*
X103104823Y-98697571D01*
X103099501Y-98739116D01*
X103091940Y-98777787D01*
X103084424Y-98803851D01*
X103075300Y-98829550D01*
X102945311Y-98803002D01*
X102815322Y-98776455D01*
X102826717Y-98724329D01*
X102842021Y-98661989D01*
X102858106Y-98614716D01*
X102876464Y-98580631D01*
X102898588Y-98557854D01*
X102925972Y-98544507D01*
X102960107Y-98538709D01*
X102974646Y-98538103D01*
X103015332Y-98543083D01*
X103053656Y-98557694D01*
X103084705Y-98579404D01*
X103102890Y-98604079D01*
X102965205Y-98407445D01*
X102935202Y-98421747D01*
X102897141Y-98455300D01*
X102863377Y-98498606D01*
X102845993Y-98522984D01*
X102832147Y-98540499D01*
X102824612Y-98547663D01*
X102824334Y-98547679D01*
X102820726Y-98539537D01*
X102816281Y-98519247D01*
X102812671Y-98496181D01*
X102805742Y-98461799D01*
X102793588Y-98430598D01*
X102774403Y-98400258D01*
X102746382Y-98368457D01*
X102707717Y-98332872D01*
X102656606Y-98291185D01*
X102647918Y-98284389D01*
X102612832Y-98257448D01*
X102582625Y-98234989D01*
X102559713Y-98218750D01*
X102546514Y-98210471D01*
X102544334Y-98209836D01*
X102540862Y-98218983D01*
X102534876Y-98240717D01*
X102527448Y-98271047D01*
X102524276Y-98284847D01*
X102508058Y-98356717D01*
X102604612Y-98432619D01*
X102657883Y-98475969D01*
X102698045Y-98512909D01*
X102726433Y-98545913D01*
X102744388Y-98577458D01*
X102753245Y-98610018D01*
X102754343Y-98646070D01*
X102749020Y-98688088D01*
X102747410Y-98696863D01*
X102735335Y-98760390D01*
X102583726Y-98729724D01*
X102432118Y-98699058D01*
X102420374Y-98738894D01*
X102411925Y-98771199D01*
X102405066Y-98803571D01*
X102403626Y-98812192D01*
X102398623Y-98845653D01*
X102762160Y-98919289D01*
X102838333Y-98934601D01*
X102909354Y-98948651D01*
X102973503Y-98961116D01*
X103029062Y-98971672D01*
X103074317Y-98979997D01*
X103107546Y-98985767D01*
X103127037Y-98988658D01*
X103131556Y-98988822D01*
X103135701Y-98979152D01*
X103142473Y-98955744D01*
X103151228Y-98921506D01*
X103161323Y-98879344D01*
X103172115Y-98832163D01*
X103182959Y-98782869D01*
X103193214Y-98734369D01*
X103202235Y-98689568D01*
X103209379Y-98651375D01*
X103214002Y-98622693D01*
X103215370Y-98610245D01*
X103215368Y-98573870D01*
X103211992Y-98535714D01*
X103209931Y-98523179D01*
X103192856Y-98476484D01*
X103192856Y-98476484D01*
X103192856Y-98476484D01*
G37*
X103192856Y-98476484D02*
X103162637Y-98439685D01*
X103120432Y-98413565D01*
X103067402Y-98398902D01*
X103020955Y-98395899D01*
X102975755Y-98402415D01*
X102965205Y-98407445D01*
X103102890Y-98604079D01*
X103106965Y-98625216D01*
X103107460Y-98657993D01*
X103104823Y-98697571D01*
X103099501Y-98739116D01*
X103091940Y-98777787D01*
X103084424Y-98803851D01*
X103075300Y-98829550D01*
X102945311Y-98803002D01*
X102815322Y-98776455D01*
X102826717Y-98724329D01*
X102842021Y-98661989D01*
X102858106Y-98614716D01*
X102876464Y-98580631D01*
X102898588Y-98557854D01*
X102925972Y-98544507D01*
X102960107Y-98538709D01*
X102974646Y-98538103D01*
X103015332Y-98543083D01*
X103053656Y-98557694D01*
X103084705Y-98579404D01*
X103102890Y-98604079D01*
X102965205Y-98407445D01*
X102935202Y-98421747D01*
X102897141Y-98455300D01*
X102863377Y-98498606D01*
X102845993Y-98522984D01*
X102832147Y-98540499D01*
X102824612Y-98547663D01*
X102824334Y-98547679D01*
X102820726Y-98539537D01*
X102816281Y-98519247D01*
X102812671Y-98496181D01*
X102805742Y-98461799D01*
X102793588Y-98430598D01*
X102774403Y-98400258D01*
X102746382Y-98368457D01*
X102707717Y-98332872D01*
X102656606Y-98291185D01*
X102647918Y-98284389D01*
X102612832Y-98257448D01*
X102582625Y-98234989D01*
X102559713Y-98218750D01*
X102546514Y-98210471D01*
X102544334Y-98209836D01*
X102540862Y-98218983D01*
X102534876Y-98240717D01*
X102527448Y-98271047D01*
X102524276Y-98284847D01*
X102508058Y-98356717D01*
X102604612Y-98432619D01*
X102657883Y-98475969D01*
X102698045Y-98512909D01*
X102726433Y-98545913D01*
X102744388Y-98577458D01*
X102753245Y-98610018D01*
X102754343Y-98646070D01*
X102749020Y-98688088D01*
X102747410Y-98696863D01*
X102735335Y-98760390D01*
X102583726Y-98729724D01*
X102432118Y-98699058D01*
X102420374Y-98738894D01*
X102411925Y-98771199D01*
X102405066Y-98803571D01*
X102403626Y-98812192D01*
X102398623Y-98845653D01*
X102762160Y-98919289D01*
X102838333Y-98934601D01*
X102909354Y-98948651D01*
X102973503Y-98961116D01*
X103029062Y-98971672D01*
X103074317Y-98979997D01*
X103107546Y-98985767D01*
X103127037Y-98988658D01*
X103131556Y-98988822D01*
X103135701Y-98979152D01*
X103142473Y-98955744D01*
X103151228Y-98921506D01*
X103161323Y-98879344D01*
X103172115Y-98832163D01*
X103182959Y-98782869D01*
X103193214Y-98734369D01*
X103202235Y-98689568D01*
X103209379Y-98651375D01*
X103214002Y-98622693D01*
X103215370Y-98610245D01*
X103215368Y-98573870D01*
X103211992Y-98535714D01*
X103209931Y-98523179D01*
X103192856Y-98476484D01*
X103192856Y-98476484D01*
M02*
