G04 #@! TF.FileFunction,Legend,Top*
%FSLAX46Y46*%
G04 Gerber Fmt 4.6, Leading zero omitted, Abs format (unit mm)*
G04 Created by KiCad (PCBNEW 0.201503110816+5502~22~ubuntu14.04.1-product) date ថ្ងៃ​អាទិត្យ ថ្ងៃ 29 ខែ មិនា ឆ្នាំ  2015, 14 ម៉ោង m នាទី 51 វិនាទី​*
%MOMM*%
G01*
G04 APERTURE LIST*
%ADD10C,0.020000*%
%ADD11C,0.100000*%
G04 APERTURE END LIST*
D10*
D11*
G36*
X103678362Y-98952995D02*
X103662032Y-99056207D01*
X103632477Y-99168080D01*
X103589681Y-99289276D01*
X103541583Y-99402993D01*
X103526651Y-99435179D01*
X103513854Y-99461154D01*
X103505036Y-99477252D01*
X103502573Y-99480551D01*
X103492494Y-99480396D01*
X103469287Y-99476777D01*
X103461385Y-99475226D01*
X103509593Y-98924198D01*
X103504245Y-98861153D01*
X103487032Y-98803127D01*
X103457879Y-98748275D01*
X103437791Y-98720154D01*
X103388531Y-98666960D01*
X103330951Y-98624539D01*
X103263429Y-98592150D01*
X103184344Y-98569051D01*
X103092073Y-98554498D01*
X103071633Y-98552525D01*
X103024761Y-98548637D01*
X102990684Y-98546689D01*
X102965320Y-98546918D01*
X102944592Y-98549557D01*
X102924415Y-98554844D01*
X102902779Y-98562266D01*
X102839964Y-98593474D01*
X102787148Y-98637623D01*
X102745067Y-98693450D01*
X102714453Y-98759687D01*
X102696040Y-98835072D01*
X102690563Y-98918337D01*
X102690778Y-98927837D01*
X102693920Y-98969689D01*
X102700148Y-99010639D01*
X102708472Y-99045841D01*
X102717898Y-99070446D01*
X102720916Y-99075199D01*
X102730026Y-99078599D01*
X102753539Y-99085312D01*
X102789336Y-99094823D01*
X102835291Y-99106621D01*
X102889286Y-99120188D01*
X102949199Y-99135016D01*
X103012908Y-99150589D01*
X103078292Y-99166395D01*
X103143230Y-99181921D01*
X103205600Y-99196652D01*
X103263279Y-99210077D01*
X103314148Y-99221682D01*
X103356086Y-99230953D01*
X103386969Y-99237379D01*
X103403377Y-99240279D01*
X103413396Y-99240554D01*
X103421474Y-99236379D01*
X103429435Y-99224991D01*
X103439101Y-99203633D01*
X103452296Y-99169547D01*
X103455168Y-99161897D01*
X103484982Y-99072726D01*
X103503148Y-98994107D01*
X103509593Y-98924198D01*
X103461385Y-99475226D01*
X103436290Y-99470302D01*
X103396844Y-99461576D01*
X103392315Y-99460519D01*
X103363716Y-99453838D01*
X103320600Y-99443805D01*
X103264974Y-99430885D01*
X103198846Y-99415543D01*
X103124226Y-99398246D01*
X103043121Y-99379457D01*
X102957539Y-99359645D01*
X102869488Y-99339274D01*
X102840780Y-99332635D01*
X102754160Y-99312449D01*
X102670845Y-99292733D01*
X102592618Y-99273931D01*
X102521264Y-99256485D01*
X102458568Y-99240837D01*
X102406315Y-99227430D01*
X102366290Y-99216705D01*
X102340276Y-99209108D01*
X102333993Y-99206968D01*
X102247326Y-99167208D01*
X102174490Y-99117950D01*
X102115657Y-99059392D01*
X102070996Y-98991730D01*
X102040679Y-98915161D01*
X102027887Y-98855031D01*
X102023547Y-98792468D01*
X102026299Y-98718709D01*
X102035545Y-98637678D01*
X102050689Y-98553296D01*
X102071130Y-98469487D01*
X102096274Y-98390173D01*
X102100509Y-98378652D01*
X102114890Y-98342406D01*
X102131587Y-98303562D01*
X102149000Y-98265464D01*
X102165532Y-98231460D01*
X102179583Y-98204896D01*
X102189554Y-98189120D01*
X102192362Y-98186392D01*
X102202420Y-98188293D01*
X102223357Y-98195943D01*
X102250917Y-98207431D01*
X102280849Y-98220849D01*
X102308894Y-98234287D01*
X102330800Y-98245833D01*
X102342311Y-98253578D01*
X102342504Y-98253793D01*
X102341563Y-98264030D01*
X102333556Y-98284698D01*
X102320133Y-98311678D01*
X102317275Y-98316873D01*
X102285330Y-98381667D01*
X102256954Y-98453766D01*
X102233203Y-98529173D01*
X102215136Y-98603888D01*
X102203811Y-98673915D01*
X102200286Y-98735254D01*
X102201217Y-98755520D01*
X102214671Y-98824822D01*
X102242469Y-98885353D01*
X102283992Y-98936333D01*
X102338620Y-98976979D01*
X102397911Y-99003882D01*
X102416486Y-99009557D01*
X102443582Y-99016918D01*
X102475015Y-99024944D01*
X102506602Y-99032620D01*
X102534158Y-99038928D01*
X102553501Y-99042848D01*
X102560459Y-99043431D01*
X102559346Y-99034698D01*
X102556181Y-99012664D01*
X102551472Y-98980797D01*
X102546518Y-98947822D01*
X102540129Y-98901004D01*
X102537221Y-98863664D01*
X102537718Y-98828694D01*
X102541542Y-98788986D01*
X102544551Y-98766063D01*
X102565286Y-98667830D01*
X102598453Y-98580782D01*
X102643324Y-98505406D01*
X102699172Y-98442185D01*
X102765267Y-98391606D01*
X102840881Y-98354152D01*
X102925286Y-98330311D01*
X103017755Y-98320566D01*
X103117559Y-98325403D01*
X103188383Y-98337088D01*
X103291450Y-98364496D01*
X103381259Y-98401100D01*
X103459311Y-98447725D01*
X103527106Y-98505203D01*
X103562176Y-98543667D01*
X103611737Y-98613509D01*
X103648153Y-98688701D01*
X103671406Y-98769904D01*
X103681481Y-98857782D01*
X103678362Y-98952995D01*
X103678362Y-98952995D01*
X103678362Y-98952995D01*
G37*
X103678362Y-98952995D02*
X103662032Y-99056207D01*
X103632477Y-99168080D01*
X103589681Y-99289276D01*
X103541583Y-99402993D01*
X103526651Y-99435179D01*
X103513854Y-99461154D01*
X103505036Y-99477252D01*
X103502573Y-99480551D01*
X103492494Y-99480396D01*
X103469287Y-99476777D01*
X103461385Y-99475226D01*
X103509593Y-98924198D01*
X103504245Y-98861153D01*
X103487032Y-98803127D01*
X103457879Y-98748275D01*
X103437791Y-98720154D01*
X103388531Y-98666960D01*
X103330951Y-98624539D01*
X103263429Y-98592150D01*
X103184344Y-98569051D01*
X103092073Y-98554498D01*
X103071633Y-98552525D01*
X103024761Y-98548637D01*
X102990684Y-98546689D01*
X102965320Y-98546918D01*
X102944592Y-98549557D01*
X102924415Y-98554844D01*
X102902779Y-98562266D01*
X102839964Y-98593474D01*
X102787148Y-98637623D01*
X102745067Y-98693450D01*
X102714453Y-98759687D01*
X102696040Y-98835072D01*
X102690563Y-98918337D01*
X102690778Y-98927837D01*
X102693920Y-98969689D01*
X102700148Y-99010639D01*
X102708472Y-99045841D01*
X102717898Y-99070446D01*
X102720916Y-99075199D01*
X102730026Y-99078599D01*
X102753539Y-99085312D01*
X102789336Y-99094823D01*
X102835291Y-99106621D01*
X102889286Y-99120188D01*
X102949199Y-99135016D01*
X103012908Y-99150589D01*
X103078292Y-99166395D01*
X103143230Y-99181921D01*
X103205600Y-99196652D01*
X103263279Y-99210077D01*
X103314148Y-99221682D01*
X103356086Y-99230953D01*
X103386969Y-99237379D01*
X103403377Y-99240279D01*
X103413396Y-99240554D01*
X103421474Y-99236379D01*
X103429435Y-99224991D01*
X103439101Y-99203633D01*
X103452296Y-99169547D01*
X103455168Y-99161897D01*
X103484982Y-99072726D01*
X103503148Y-98994107D01*
X103509593Y-98924198D01*
X103461385Y-99475226D01*
X103436290Y-99470302D01*
X103396844Y-99461576D01*
X103392315Y-99460519D01*
X103363716Y-99453838D01*
X103320600Y-99443805D01*
X103264974Y-99430885D01*
X103198846Y-99415543D01*
X103124226Y-99398246D01*
X103043121Y-99379457D01*
X102957539Y-99359645D01*
X102869488Y-99339274D01*
X102840780Y-99332635D01*
X102754160Y-99312449D01*
X102670845Y-99292733D01*
X102592618Y-99273931D01*
X102521264Y-99256485D01*
X102458568Y-99240837D01*
X102406315Y-99227430D01*
X102366290Y-99216705D01*
X102340276Y-99209108D01*
X102333993Y-99206968D01*
X102247326Y-99167208D01*
X102174490Y-99117950D01*
X102115657Y-99059392D01*
X102070996Y-98991730D01*
X102040679Y-98915161D01*
X102027887Y-98855031D01*
X102023547Y-98792468D01*
X102026299Y-98718709D01*
X102035545Y-98637678D01*
X102050689Y-98553296D01*
X102071130Y-98469487D01*
X102096274Y-98390173D01*
X102100509Y-98378652D01*
X102114890Y-98342406D01*
X102131587Y-98303562D01*
X102149000Y-98265464D01*
X102165532Y-98231460D01*
X102179583Y-98204896D01*
X102189554Y-98189120D01*
X102192362Y-98186392D01*
X102202420Y-98188293D01*
X102223357Y-98195943D01*
X102250917Y-98207431D01*
X102280849Y-98220849D01*
X102308894Y-98234287D01*
X102330800Y-98245833D01*
X102342311Y-98253578D01*
X102342504Y-98253793D01*
X102341563Y-98264030D01*
X102333556Y-98284698D01*
X102320133Y-98311678D01*
X102317275Y-98316873D01*
X102285330Y-98381667D01*
X102256954Y-98453766D01*
X102233203Y-98529173D01*
X102215136Y-98603888D01*
X102203811Y-98673915D01*
X102200286Y-98735254D01*
X102201217Y-98755520D01*
X102214671Y-98824822D01*
X102242469Y-98885353D01*
X102283992Y-98936333D01*
X102338620Y-98976979D01*
X102397911Y-99003882D01*
X102416486Y-99009557D01*
X102443582Y-99016918D01*
X102475015Y-99024944D01*
X102506602Y-99032620D01*
X102534158Y-99038928D01*
X102553501Y-99042848D01*
X102560459Y-99043431D01*
X102559346Y-99034698D01*
X102556181Y-99012664D01*
X102551472Y-98980797D01*
X102546518Y-98947822D01*
X102540129Y-98901004D01*
X102537221Y-98863664D01*
X102537718Y-98828694D01*
X102541542Y-98788986D01*
X102544551Y-98766063D01*
X102565286Y-98667830D01*
X102598453Y-98580782D01*
X102643324Y-98505406D01*
X102699172Y-98442185D01*
X102765267Y-98391606D01*
X102840881Y-98354152D01*
X102925286Y-98330311D01*
X103017755Y-98320566D01*
X103117559Y-98325403D01*
X103188383Y-98337088D01*
X103291450Y-98364496D01*
X103381259Y-98401100D01*
X103459311Y-98447725D01*
X103527106Y-98505203D01*
X103562176Y-98543667D01*
X103611737Y-98613509D01*
X103648153Y-98688701D01*
X103671406Y-98769904D01*
X103681481Y-98857782D01*
X103678362Y-98952995D01*
X103678362Y-98952995D01*
G36*
X103925371Y-97506523D02*
X103919050Y-97569919D01*
X103911263Y-97628255D01*
X103902342Y-97677708D01*
X103892615Y-97714456D01*
X103891495Y-97717598D01*
X103856766Y-97794825D01*
X103814584Y-97857239D01*
X103763801Y-97905774D01*
X103703267Y-97941362D01*
X103631833Y-97964937D01*
X103574871Y-97974775D01*
X103546474Y-97976725D01*
X103508306Y-97976778D01*
X103459475Y-97974862D01*
X103399092Y-97970904D01*
X103326267Y-97964831D01*
X103240107Y-97956568D01*
X103221019Y-97954566D01*
X103259252Y-97517559D01*
X103263547Y-97467438D01*
X103265786Y-97430350D01*
X103265886Y-97402483D01*
X103263765Y-97380024D01*
X103259336Y-97359160D01*
X103255481Y-97345631D01*
X103234397Y-97297865D01*
X103203317Y-97255735D01*
X103165839Y-97223398D01*
X103136787Y-97208470D01*
X103088146Y-97196983D01*
X103036311Y-97195423D01*
X102985881Y-97203070D01*
X102941458Y-97219203D01*
X102907643Y-97243106D01*
X102906285Y-97244521D01*
X102876857Y-97286663D01*
X102853014Y-97343981D01*
X102834975Y-97415562D01*
X102822959Y-97500493D01*
X102817183Y-97597861D01*
X102816802Y-97618310D01*
X102815792Y-97699487D01*
X102892923Y-97709141D01*
X102931482Y-97713585D01*
X102980841Y-97718719D01*
X103034889Y-97723933D01*
X103087514Y-97728619D01*
X103091940Y-97728991D01*
X103213827Y-97739185D01*
X103230942Y-97689603D01*
X103240999Y-97651236D01*
X103250108Y-97597811D01*
X103257958Y-97531217D01*
X103259252Y-97517559D01*
X103221019Y-97954566D01*
X103139725Y-97946043D01*
X103024227Y-97933182D01*
X102910710Y-97920029D01*
X102849612Y-97912772D01*
X102794282Y-97906055D01*
X102746882Y-97900153D01*
X102709570Y-97895341D01*
X102684502Y-97891890D01*
X102673840Y-97890075D01*
X102673623Y-97889972D01*
X102672310Y-97881071D01*
X102670202Y-97858676D01*
X102667596Y-97826216D01*
X102664921Y-97789063D01*
X102663133Y-97739053D01*
X102663614Y-97679106D01*
X102666094Y-97612367D01*
X102670306Y-97541979D01*
X102675978Y-97471088D01*
X102682844Y-97402837D01*
X102690633Y-97340372D01*
X102699076Y-97286835D01*
X102707904Y-97245371D01*
X102712868Y-97228733D01*
X102746499Y-97150551D01*
X102787384Y-97087459D01*
X102836158Y-97038922D01*
X102893464Y-97004412D01*
X102959940Y-96983397D01*
X103016838Y-96976132D01*
X103099632Y-96978119D01*
X103174271Y-96994264D01*
X103239962Y-97024139D01*
X103295918Y-97067312D01*
X103341344Y-97123354D01*
X103364131Y-97164924D01*
X103388096Y-97233521D01*
X103402075Y-97313249D01*
X103406077Y-97401537D01*
X103400120Y-97495820D01*
X103384217Y-97593527D01*
X103361339Y-97682502D01*
X103350981Y-97717917D01*
X103345668Y-97740487D01*
X103344973Y-97753423D01*
X103348471Y-97759936D01*
X103350885Y-97761430D01*
X103363968Y-97764190D01*
X103389778Y-97767026D01*
X103424088Y-97769532D01*
X103449108Y-97770800D01*
X103502467Y-97771523D01*
X103543040Y-97768363D01*
X103574621Y-97761013D01*
X103575514Y-97760710D01*
X103635588Y-97731534D01*
X103685107Y-97689373D01*
X103723097Y-97635230D01*
X103743746Y-97586429D01*
X103750430Y-97557207D01*
X103756349Y-97515361D01*
X103761235Y-97465221D01*
X103764826Y-97411116D01*
X103766858Y-97357377D01*
X103767062Y-97308333D01*
X103765177Y-97268314D01*
X103763912Y-97256777D01*
X103761053Y-97230991D01*
X103760244Y-97213142D01*
X103761057Y-97208160D01*
X103770902Y-97206231D01*
X103792753Y-97204377D01*
X103821909Y-97202770D01*
X103853674Y-97201579D01*
X103883346Y-97200975D01*
X103906229Y-97201127D01*
X103917623Y-97202206D01*
X103918061Y-97202470D01*
X103920413Y-97212111D01*
X103923884Y-97234490D01*
X103927860Y-97265475D01*
X103929396Y-97278825D01*
X103932239Y-97324220D01*
X103932296Y-97379851D01*
X103929896Y-97441893D01*
X103925371Y-97506523D01*
X103925371Y-97506523D01*
X103925371Y-97506523D01*
G37*
X103925371Y-97506523D02*
X103919050Y-97569919D01*
X103911263Y-97628255D01*
X103902342Y-97677708D01*
X103892615Y-97714456D01*
X103891495Y-97717598D01*
X103856766Y-97794825D01*
X103814584Y-97857239D01*
X103763801Y-97905774D01*
X103703267Y-97941362D01*
X103631833Y-97964937D01*
X103574871Y-97974775D01*
X103546474Y-97976725D01*
X103508306Y-97976778D01*
X103459475Y-97974862D01*
X103399092Y-97970904D01*
X103326267Y-97964831D01*
X103240107Y-97956568D01*
X103221019Y-97954566D01*
X103259252Y-97517559D01*
X103263547Y-97467438D01*
X103265786Y-97430350D01*
X103265886Y-97402483D01*
X103263765Y-97380024D01*
X103259336Y-97359160D01*
X103255481Y-97345631D01*
X103234397Y-97297865D01*
X103203317Y-97255735D01*
X103165839Y-97223398D01*
X103136787Y-97208470D01*
X103088146Y-97196983D01*
X103036311Y-97195423D01*
X102985881Y-97203070D01*
X102941458Y-97219203D01*
X102907643Y-97243106D01*
X102906285Y-97244521D01*
X102876857Y-97286663D01*
X102853014Y-97343981D01*
X102834975Y-97415562D01*
X102822959Y-97500493D01*
X102817183Y-97597861D01*
X102816802Y-97618310D01*
X102815792Y-97699487D01*
X102892923Y-97709141D01*
X102931482Y-97713585D01*
X102980841Y-97718719D01*
X103034889Y-97723933D01*
X103087514Y-97728619D01*
X103091940Y-97728991D01*
X103213827Y-97739185D01*
X103230942Y-97689603D01*
X103240999Y-97651236D01*
X103250108Y-97597811D01*
X103257958Y-97531217D01*
X103259252Y-97517559D01*
X103221019Y-97954566D01*
X103139725Y-97946043D01*
X103024227Y-97933182D01*
X102910710Y-97920029D01*
X102849612Y-97912772D01*
X102794282Y-97906055D01*
X102746882Y-97900153D01*
X102709570Y-97895341D01*
X102684502Y-97891890D01*
X102673840Y-97890075D01*
X102673623Y-97889972D01*
X102672310Y-97881071D01*
X102670202Y-97858676D01*
X102667596Y-97826216D01*
X102664921Y-97789063D01*
X102663133Y-97739053D01*
X102663614Y-97679106D01*
X102666094Y-97612367D01*
X102670306Y-97541979D01*
X102675978Y-97471088D01*
X102682844Y-97402837D01*
X102690633Y-97340372D01*
X102699076Y-97286835D01*
X102707904Y-97245371D01*
X102712868Y-97228733D01*
X102746499Y-97150551D01*
X102787384Y-97087459D01*
X102836158Y-97038922D01*
X102893464Y-97004412D01*
X102959940Y-96983397D01*
X103016838Y-96976132D01*
X103099632Y-96978119D01*
X103174271Y-96994264D01*
X103239962Y-97024139D01*
X103295918Y-97067312D01*
X103341344Y-97123354D01*
X103364131Y-97164924D01*
X103388096Y-97233521D01*
X103402075Y-97313249D01*
X103406077Y-97401537D01*
X103400120Y-97495820D01*
X103384217Y-97593527D01*
X103361339Y-97682502D01*
X103350981Y-97717917D01*
X103345668Y-97740487D01*
X103344973Y-97753423D01*
X103348471Y-97759936D01*
X103350885Y-97761430D01*
X103363968Y-97764190D01*
X103389778Y-97767026D01*
X103424088Y-97769532D01*
X103449108Y-97770800D01*
X103502467Y-97771523D01*
X103543040Y-97768363D01*
X103574621Y-97761013D01*
X103575514Y-97760710D01*
X103635588Y-97731534D01*
X103685107Y-97689373D01*
X103723097Y-97635230D01*
X103743746Y-97586429D01*
X103750430Y-97557207D01*
X103756349Y-97515361D01*
X103761235Y-97465221D01*
X103764826Y-97411116D01*
X103766858Y-97357377D01*
X103767062Y-97308333D01*
X103765177Y-97268314D01*
X103763912Y-97256777D01*
X103761053Y-97230991D01*
X103760244Y-97213142D01*
X103761057Y-97208160D01*
X103770902Y-97206231D01*
X103792753Y-97204377D01*
X103821909Y-97202770D01*
X103853674Y-97201579D01*
X103883346Y-97200975D01*
X103906229Y-97201127D01*
X103917623Y-97202206D01*
X103918061Y-97202470D01*
X103920413Y-97212111D01*
X103923884Y-97234490D01*
X103927860Y-97265475D01*
X103929396Y-97278825D01*
X103932239Y-97324220D01*
X103932296Y-97379851D01*
X103929896Y-97441893D01*
X103925371Y-97506523D01*
X103925371Y-97506523D01*
G36*
X104382261Y-96887833D02*
X104373011Y-96888752D01*
X104350425Y-96889181D01*
X104318122Y-96889091D01*
X104287740Y-96888626D01*
X104196386Y-96886763D01*
X104197967Y-96866585D01*
X104198577Y-96850647D01*
X104199077Y-96821545D01*
X104199470Y-96781860D01*
X104199754Y-96734171D01*
X104199930Y-96681058D01*
X104200000Y-96625100D01*
X104199965Y-96568876D01*
X104199826Y-96514968D01*
X104199582Y-96465953D01*
X104199235Y-96424412D01*
X104198787Y-96392923D01*
X104198236Y-96374068D01*
X104197806Y-96369780D01*
X104189108Y-96369265D01*
X104164697Y-96368711D01*
X104125819Y-96368129D01*
X104073724Y-96367527D01*
X104009658Y-96366917D01*
X103934870Y-96366309D01*
X103850608Y-96365714D01*
X103758118Y-96365142D01*
X103658649Y-96364604D01*
X103553450Y-96364109D01*
X103485655Y-96363828D01*
X103377526Y-96363369D01*
X103274356Y-96362863D01*
X103177395Y-96362320D01*
X103087887Y-96361753D01*
X103007080Y-96361169D01*
X102936223Y-96360579D01*
X102876561Y-96359994D01*
X102829342Y-96359422D01*
X102795814Y-96358876D01*
X102777224Y-96358364D01*
X102773745Y-96358066D01*
X102772468Y-96348529D01*
X102771591Y-96326050D01*
X102771097Y-96294533D01*
X102770970Y-96257877D01*
X102771192Y-96219986D01*
X102771747Y-96184759D01*
X102772617Y-96156097D01*
X102773786Y-96137902D01*
X102774720Y-96133516D01*
X102783629Y-96133024D01*
X102808248Y-96132620D01*
X102847324Y-96132301D01*
X102899608Y-96132071D01*
X102963848Y-96131931D01*
X103038791Y-96131882D01*
X103123187Y-96131925D01*
X103215782Y-96132060D01*
X103315328Y-96132290D01*
X103420571Y-96132615D01*
X103487643Y-96132864D01*
X103595735Y-96133260D01*
X103698875Y-96133585D01*
X103795812Y-96133836D01*
X103885299Y-96134013D01*
X103966086Y-96134117D01*
X104036926Y-96134144D01*
X104096571Y-96134095D01*
X104143770Y-96133970D01*
X104177277Y-96133768D01*
X104195841Y-96133487D01*
X104199299Y-96133274D01*
X104200033Y-96124526D01*
X104200744Y-96100918D01*
X104201403Y-96064549D01*
X104201982Y-96017521D01*
X104202450Y-95961934D01*
X104202779Y-95899889D01*
X104202857Y-95876913D01*
X104203281Y-95812893D01*
X104204130Y-95754412D01*
X104205336Y-95703606D01*
X104206831Y-95662616D01*
X104208549Y-95633579D01*
X104210419Y-95618632D01*
X104211083Y-95617136D01*
X104222253Y-95614873D01*
X104246418Y-95613374D01*
X104279618Y-95612811D01*
X104305693Y-95613056D01*
X104346133Y-95614267D01*
X104372204Y-95616251D01*
X104386494Y-95619401D01*
X104391593Y-95624104D01*
X104391706Y-95625994D01*
X104391493Y-95636111D01*
X104391224Y-95661835D01*
X104390907Y-95701808D01*
X104390549Y-95754676D01*
X104390159Y-95819083D01*
X104389744Y-95893674D01*
X104389312Y-95977092D01*
X104388872Y-96067982D01*
X104388430Y-96164989D01*
X104388018Y-96261199D01*
X104387556Y-96362480D01*
X104387035Y-96458730D01*
X104386469Y-96548617D01*
X104385869Y-96630809D01*
X104385247Y-96703975D01*
X104384615Y-96766786D01*
X104383987Y-96817909D01*
X104383374Y-96856013D01*
X104382787Y-96879765D01*
X104382261Y-96887833D01*
X104382261Y-96887833D01*
X104382261Y-96887833D01*
G37*
X104382261Y-96887833D02*
X104373011Y-96888752D01*
X104350425Y-96889181D01*
X104318122Y-96889091D01*
X104287740Y-96888626D01*
X104196386Y-96886763D01*
X104197967Y-96866585D01*
X104198577Y-96850647D01*
X104199077Y-96821545D01*
X104199470Y-96781860D01*
X104199754Y-96734171D01*
X104199930Y-96681058D01*
X104200000Y-96625100D01*
X104199965Y-96568876D01*
X104199826Y-96514968D01*
X104199582Y-96465953D01*
X104199235Y-96424412D01*
X104198787Y-96392923D01*
X104198236Y-96374068D01*
X104197806Y-96369780D01*
X104189108Y-96369265D01*
X104164697Y-96368711D01*
X104125819Y-96368129D01*
X104073724Y-96367527D01*
X104009658Y-96366917D01*
X103934870Y-96366309D01*
X103850608Y-96365714D01*
X103758118Y-96365142D01*
X103658649Y-96364604D01*
X103553450Y-96364109D01*
X103485655Y-96363828D01*
X103377526Y-96363369D01*
X103274356Y-96362863D01*
X103177395Y-96362320D01*
X103087887Y-96361753D01*
X103007080Y-96361169D01*
X102936223Y-96360579D01*
X102876561Y-96359994D01*
X102829342Y-96359422D01*
X102795814Y-96358876D01*
X102777224Y-96358364D01*
X102773745Y-96358066D01*
X102772468Y-96348529D01*
X102771591Y-96326050D01*
X102771097Y-96294533D01*
X102770970Y-96257877D01*
X102771192Y-96219986D01*
X102771747Y-96184759D01*
X102772617Y-96156097D01*
X102773786Y-96137902D01*
X102774720Y-96133516D01*
X102783629Y-96133024D01*
X102808248Y-96132620D01*
X102847324Y-96132301D01*
X102899608Y-96132071D01*
X102963848Y-96131931D01*
X103038791Y-96131882D01*
X103123187Y-96131925D01*
X103215782Y-96132060D01*
X103315328Y-96132290D01*
X103420571Y-96132615D01*
X103487643Y-96132864D01*
X103595735Y-96133260D01*
X103698875Y-96133585D01*
X103795812Y-96133836D01*
X103885299Y-96134013D01*
X103966086Y-96134117D01*
X104036926Y-96134144D01*
X104096571Y-96134095D01*
X104143770Y-96133970D01*
X104177277Y-96133768D01*
X104195841Y-96133487D01*
X104199299Y-96133274D01*
X104200033Y-96124526D01*
X104200744Y-96100918D01*
X104201403Y-96064549D01*
X104201982Y-96017521D01*
X104202450Y-95961934D01*
X104202779Y-95899889D01*
X104202857Y-95876913D01*
X104203281Y-95812893D01*
X104204130Y-95754412D01*
X104205336Y-95703606D01*
X104206831Y-95662616D01*
X104208549Y-95633579D01*
X104210419Y-95618632D01*
X104211083Y-95617136D01*
X104222253Y-95614873D01*
X104246418Y-95613374D01*
X104279618Y-95612811D01*
X104305693Y-95613056D01*
X104346133Y-95614267D01*
X104372204Y-95616251D01*
X104386494Y-95619401D01*
X104391593Y-95624104D01*
X104391706Y-95625994D01*
X104391493Y-95636111D01*
X104391224Y-95661835D01*
X104390907Y-95701808D01*
X104390549Y-95754676D01*
X104390159Y-95819083D01*
X104389744Y-95893674D01*
X104389312Y-95977092D01*
X104388872Y-96067982D01*
X104388430Y-96164989D01*
X104388018Y-96261199D01*
X104387556Y-96362480D01*
X104387035Y-96458730D01*
X104386469Y-96548617D01*
X104385869Y-96630809D01*
X104385247Y-96703975D01*
X104384615Y-96766786D01*
X104383987Y-96817909D01*
X104383374Y-96856013D01*
X104382787Y-96879765D01*
X104382261Y-96887833D01*
X104382261Y-96887833D01*
G36*
X103937087Y-95272322D02*
X103936966Y-95272460D01*
X103928065Y-95273544D01*
X103903617Y-95275812D01*
X103864983Y-95279151D01*
X103813528Y-95283452D01*
X103750617Y-95288603D01*
X103677610Y-95294492D01*
X103595875Y-95301009D01*
X103506774Y-95308044D01*
X103411670Y-95315485D01*
X103339802Y-95321065D01*
X102746597Y-95366983D01*
X102744098Y-95344836D01*
X102741014Y-95314048D01*
X102737980Y-95277938D01*
X102735242Y-95240370D01*
X102733046Y-95205207D01*
X102731640Y-95176316D01*
X102731269Y-95157558D01*
X102731820Y-95152465D01*
X102740410Y-95151577D01*
X102764254Y-95149526D01*
X102801697Y-95146443D01*
X102851079Y-95142455D01*
X102910744Y-95137691D01*
X102979034Y-95132280D01*
X103054292Y-95126350D01*
X103134859Y-95120030D01*
X103219080Y-95113451D01*
X103305297Y-95106738D01*
X103391850Y-95100024D01*
X103477085Y-95093434D01*
X103559342Y-95087098D01*
X103636965Y-95081147D01*
X103708297Y-95075706D01*
X103771678Y-95070907D01*
X103825453Y-95066877D01*
X103867964Y-95063746D01*
X103897554Y-95061641D01*
X103912564Y-95060692D01*
X103913261Y-95060664D01*
X103919060Y-95064374D01*
X103923753Y-95077405D01*
X103927758Y-95101940D01*
X103931498Y-95140163D01*
X103933395Y-95165001D01*
X103935965Y-95205158D01*
X103937511Y-95238648D01*
X103937921Y-95262144D01*
X103937087Y-95272322D01*
X103937087Y-95272322D01*
X103937087Y-95272322D01*
G37*
X103937087Y-95272322D02*
X103936966Y-95272460D01*
X103928065Y-95273544D01*
X103903617Y-95275812D01*
X103864983Y-95279151D01*
X103813528Y-95283452D01*
X103750617Y-95288603D01*
X103677610Y-95294492D01*
X103595875Y-95301009D01*
X103506774Y-95308044D01*
X103411670Y-95315485D01*
X103339802Y-95321065D01*
X102746597Y-95366983D01*
X102744098Y-95344836D01*
X102741014Y-95314048D01*
X102737980Y-95277938D01*
X102735242Y-95240370D01*
X102733046Y-95205207D01*
X102731640Y-95176316D01*
X102731269Y-95157558D01*
X102731820Y-95152465D01*
X102740410Y-95151577D01*
X102764254Y-95149526D01*
X102801697Y-95146443D01*
X102851079Y-95142455D01*
X102910744Y-95137691D01*
X102979034Y-95132280D01*
X103054292Y-95126350D01*
X103134859Y-95120030D01*
X103219080Y-95113451D01*
X103305297Y-95106738D01*
X103391850Y-95100024D01*
X103477085Y-95093434D01*
X103559342Y-95087098D01*
X103636965Y-95081147D01*
X103708297Y-95075706D01*
X103771678Y-95070907D01*
X103825453Y-95066877D01*
X103867964Y-95063746D01*
X103897554Y-95061641D01*
X103912564Y-95060692D01*
X103913261Y-95060664D01*
X103919060Y-95064374D01*
X103923753Y-95077405D01*
X103927758Y-95101940D01*
X103931498Y-95140163D01*
X103933395Y-95165001D01*
X103935965Y-95205158D01*
X103937511Y-95238648D01*
X103937921Y-95262144D01*
X103937087Y-95272322D01*
X103937087Y-95272322D01*
G36*
X104488011Y-95136241D02*
X104481953Y-95179783D01*
X104465677Y-95213706D01*
X104437728Y-95244625D01*
X104405068Y-95262563D01*
X104363485Y-95269452D01*
X104344165Y-95269567D01*
X104311939Y-95267584D01*
X104290030Y-95262375D01*
X104271840Y-95251991D01*
X104264104Y-95245935D01*
X104232906Y-95215546D01*
X104215534Y-95184669D01*
X104209634Y-95147729D01*
X104210696Y-95119443D01*
X104221221Y-95069601D01*
X104243295Y-95032180D01*
X104276892Y-95007201D01*
X104321984Y-94994690D01*
X104355758Y-94993207D01*
X104387993Y-94995192D01*
X104409919Y-95000408D01*
X104428138Y-95010802D01*
X104435862Y-95016844D01*
X104464250Y-95050051D01*
X104481872Y-95091423D01*
X104488011Y-95136241D01*
X104488011Y-95136241D01*
X104488011Y-95136241D01*
G37*
X104488011Y-95136241D02*
X104481953Y-95179783D01*
X104465677Y-95213706D01*
X104437728Y-95244625D01*
X104405068Y-95262563D01*
X104363485Y-95269452D01*
X104344165Y-95269567D01*
X104311939Y-95267584D01*
X104290030Y-95262375D01*
X104271840Y-95251991D01*
X104264104Y-95245935D01*
X104232906Y-95215546D01*
X104215534Y-95184669D01*
X104209634Y-95147729D01*
X104210696Y-95119443D01*
X104221221Y-95069601D01*
X104243295Y-95032180D01*
X104276892Y-95007201D01*
X104321984Y-94994690D01*
X104355758Y-94993207D01*
X104387993Y-94995192D01*
X104409919Y-95000408D01*
X104428138Y-95010802D01*
X104435862Y-95016844D01*
X104464250Y-95050051D01*
X104481872Y-95091423D01*
X104488011Y-95136241D01*
X104488011Y-95136241D01*
G36*
X103902349Y-94704876D02*
X103857939Y-94699768D01*
X103831717Y-94696424D01*
X103793966Y-94691191D01*
X103749915Y-94684809D01*
X103708520Y-94678593D01*
X103477834Y-94639345D01*
X103235861Y-94590422D01*
X103110616Y-94562345D01*
X103053123Y-94548804D01*
X102992102Y-94533984D01*
X102929778Y-94518472D01*
X102868378Y-94502853D01*
X102810128Y-94487710D01*
X102757253Y-94473631D01*
X102711981Y-94461201D01*
X102676537Y-94451004D01*
X102653147Y-94443628D01*
X102644049Y-94439673D01*
X102640484Y-94427703D01*
X102636132Y-94403772D01*
X102631469Y-94371936D01*
X102626967Y-94336256D01*
X102623103Y-94300790D01*
X102620349Y-94269597D01*
X102619182Y-94246734D01*
X102620075Y-94236262D01*
X102620245Y-94236084D01*
X102682252Y-94193110D01*
X102756133Y-94144048D01*
X102838804Y-94090806D01*
X102927180Y-94035292D01*
X103018178Y-93979413D01*
X103108712Y-93925077D01*
X103195698Y-93874192D01*
X103276053Y-93828665D01*
X103302679Y-93813999D01*
X103353535Y-93786584D01*
X103407944Y-93757858D01*
X103463847Y-93728846D01*
X103519193Y-93700571D01*
X103571923Y-93674058D01*
X103619983Y-93650332D01*
X103661318Y-93630417D01*
X103693871Y-93615337D01*
X103715589Y-93606115D01*
X103724414Y-93603779D01*
X103724448Y-93603813D01*
X103727136Y-93613484D01*
X103731529Y-93635957D01*
X103736990Y-93667232D01*
X103742890Y-93703312D01*
X103748595Y-93740197D01*
X103753472Y-93773891D01*
X103756888Y-93800393D01*
X103758211Y-93815706D01*
X103758180Y-93816936D01*
X103749535Y-93828202D01*
X103725777Y-93843232D01*
X103688527Y-93861073D01*
X103622149Y-93890974D01*
X103545253Y-93927179D01*
X103462061Y-93967600D01*
X103376791Y-94010148D01*
X103293667Y-94052734D01*
X103216910Y-94093271D01*
X103192442Y-94106526D01*
X103134968Y-94138190D01*
X103077528Y-94170352D01*
X103022083Y-94201866D01*
X102970589Y-94231587D01*
X102925009Y-94258367D01*
X102887300Y-94281061D01*
X102859422Y-94298522D01*
X102843332Y-94309605D01*
X102840191Y-94312622D01*
X102846852Y-94316915D01*
X102868535Y-94323412D01*
X102903491Y-94331803D01*
X102949967Y-94341776D01*
X103006215Y-94353021D01*
X103070482Y-94365225D01*
X103141018Y-94378080D01*
X103216073Y-94391274D01*
X103293894Y-94404494D01*
X103372731Y-94417434D01*
X103450833Y-94429778D01*
X103526450Y-94441219D01*
X103597830Y-94451443D01*
X103663223Y-94460141D01*
X103689043Y-94463333D01*
X103865959Y-94484606D01*
X103880411Y-94571002D01*
X103886922Y-94610051D01*
X103892735Y-94645157D01*
X103897045Y-94671434D01*
X103898606Y-94681137D01*
X103902349Y-94704876D01*
X103902349Y-94704876D01*
X103902349Y-94704876D01*
G37*
X103902349Y-94704876D02*
X103857939Y-94699768D01*
X103831717Y-94696424D01*
X103793966Y-94691191D01*
X103749915Y-94684809D01*
X103708520Y-94678593D01*
X103477834Y-94639345D01*
X103235861Y-94590422D01*
X103110616Y-94562345D01*
X103053123Y-94548804D01*
X102992102Y-94533984D01*
X102929778Y-94518472D01*
X102868378Y-94502853D01*
X102810128Y-94487710D01*
X102757253Y-94473631D01*
X102711981Y-94461201D01*
X102676537Y-94451004D01*
X102653147Y-94443628D01*
X102644049Y-94439673D01*
X102640484Y-94427703D01*
X102636132Y-94403772D01*
X102631469Y-94371936D01*
X102626967Y-94336256D01*
X102623103Y-94300790D01*
X102620349Y-94269597D01*
X102619182Y-94246734D01*
X102620075Y-94236262D01*
X102620245Y-94236084D01*
X102682252Y-94193110D01*
X102756133Y-94144048D01*
X102838804Y-94090806D01*
X102927180Y-94035292D01*
X103018178Y-93979413D01*
X103108712Y-93925077D01*
X103195698Y-93874192D01*
X103276053Y-93828665D01*
X103302679Y-93813999D01*
X103353535Y-93786584D01*
X103407944Y-93757858D01*
X103463847Y-93728846D01*
X103519193Y-93700571D01*
X103571923Y-93674058D01*
X103619983Y-93650332D01*
X103661318Y-93630417D01*
X103693871Y-93615337D01*
X103715589Y-93606115D01*
X103724414Y-93603779D01*
X103724448Y-93603813D01*
X103727136Y-93613484D01*
X103731529Y-93635957D01*
X103736990Y-93667232D01*
X103742890Y-93703312D01*
X103748595Y-93740197D01*
X103753472Y-93773891D01*
X103756888Y-93800393D01*
X103758211Y-93815706D01*
X103758180Y-93816936D01*
X103749535Y-93828202D01*
X103725777Y-93843232D01*
X103688527Y-93861073D01*
X103622149Y-93890974D01*
X103545253Y-93927179D01*
X103462061Y-93967600D01*
X103376791Y-94010148D01*
X103293667Y-94052734D01*
X103216910Y-94093271D01*
X103192442Y-94106526D01*
X103134968Y-94138190D01*
X103077528Y-94170352D01*
X103022083Y-94201866D01*
X102970589Y-94231587D01*
X102925009Y-94258367D01*
X102887300Y-94281061D01*
X102859422Y-94298522D01*
X102843332Y-94309605D01*
X102840191Y-94312622D01*
X102846852Y-94316915D01*
X102868535Y-94323412D01*
X102903491Y-94331803D01*
X102949967Y-94341776D01*
X103006215Y-94353021D01*
X103070482Y-94365225D01*
X103141018Y-94378080D01*
X103216073Y-94391274D01*
X103293894Y-94404494D01*
X103372731Y-94417434D01*
X103450833Y-94429778D01*
X103526450Y-94441219D01*
X103597830Y-94451443D01*
X103663223Y-94460141D01*
X103689043Y-94463333D01*
X103865959Y-94484606D01*
X103880411Y-94571002D01*
X103886922Y-94610051D01*
X103892735Y-94645157D01*
X103897045Y-94671434D01*
X103898606Y-94681137D01*
X103902349Y-94704876D01*
X103902349Y-94704876D01*
G36*
X103631870Y-93209042D02*
X103631456Y-93211916D01*
X103622920Y-93214573D01*
X103599398Y-93221414D01*
X103562238Y-93232058D01*
X103512793Y-93246122D01*
X103452408Y-93263225D01*
X103382435Y-93282986D01*
X103304221Y-93305021D01*
X103219117Y-93328949D01*
X103128473Y-93354389D01*
X103082600Y-93367247D01*
X102989383Y-93393366D01*
X102900768Y-93418200D01*
X102818142Y-93441360D01*
X102742890Y-93462457D01*
X102676396Y-93481103D01*
X102620047Y-93496910D01*
X102575226Y-93509490D01*
X102543320Y-93518452D01*
X102525714Y-93523410D01*
X102522778Y-93524246D01*
X102514859Y-93522634D01*
X102504942Y-93512242D01*
X102491746Y-93491144D01*
X102473987Y-93457413D01*
X102461550Y-93432239D01*
X102406735Y-93312541D01*
X102362317Y-93200134D01*
X102328574Y-93095996D01*
X102305784Y-93001108D01*
X102294225Y-92916447D01*
X102294173Y-92842994D01*
X102294224Y-92842408D01*
X102304165Y-92787394D01*
X102323159Y-92729247D01*
X102348225Y-92676787D01*
X102352852Y-92669107D01*
X102389849Y-92622879D01*
X102441371Y-92577766D01*
X102504989Y-92535403D01*
X102578274Y-92497429D01*
X102650536Y-92468342D01*
X102669579Y-92462190D01*
X102701596Y-92452472D01*
X102744535Y-92439770D01*
X102796346Y-92424664D01*
X102854978Y-92407735D01*
X102918378Y-92389563D01*
X102984496Y-92370728D01*
X103051280Y-92351811D01*
X103116678Y-92333394D01*
X103178640Y-92316056D01*
X103235114Y-92300379D01*
X103284049Y-92286941D01*
X103323394Y-92276326D01*
X103351097Y-92269112D01*
X103365106Y-92265882D01*
X103366269Y-92265767D01*
X103370728Y-92273589D01*
X103378168Y-92294046D01*
X103387504Y-92323301D01*
X103397648Y-92357525D01*
X103407516Y-92392882D01*
X103416020Y-92425540D01*
X103422076Y-92451664D01*
X103424597Y-92467423D01*
X103424190Y-92470219D01*
X103415454Y-92473117D01*
X103392194Y-92480031D01*
X103356228Y-92490444D01*
X103309375Y-92503835D01*
X103253453Y-92519684D01*
X103190281Y-92537473D01*
X103121679Y-92556682D01*
X103115044Y-92558535D01*
X103010283Y-92588083D01*
X102920560Y-92614126D01*
X102844434Y-92637178D01*
X102780464Y-92657750D01*
X102727209Y-92676355D01*
X102683227Y-92693504D01*
X102647077Y-92709711D01*
X102617319Y-92725487D01*
X102592512Y-92741343D01*
X102584731Y-92747009D01*
X102544423Y-92780841D01*
X102517191Y-92813822D01*
X102500218Y-92851031D01*
X102490686Y-92897547D01*
X102488226Y-92921083D01*
X102485894Y-92958780D01*
X102486822Y-92989657D01*
X102491805Y-93020575D01*
X102501640Y-93058398D01*
X102505815Y-93072656D01*
X102517833Y-93110425D01*
X102531973Y-93150777D01*
X102546943Y-93190488D01*
X102561449Y-93226338D01*
X102574197Y-93255107D01*
X102583893Y-93273571D01*
X102588569Y-93278759D01*
X102597362Y-93276631D01*
X102621049Y-93270309D01*
X102658194Y-93260189D01*
X102707363Y-93246669D01*
X102767120Y-93230143D01*
X102836029Y-93211010D01*
X102912658Y-93189667D01*
X102995570Y-93166510D01*
X103079315Y-93143061D01*
X103166973Y-93118529D01*
X103249788Y-93095437D01*
X103326315Y-93074181D01*
X103395109Y-93055158D01*
X103454727Y-93038765D01*
X103503725Y-93025401D01*
X103540657Y-93015461D01*
X103564080Y-93009342D01*
X103572504Y-93007432D01*
X103577014Y-93015243D01*
X103584561Y-93035672D01*
X103594041Y-93064891D01*
X103604353Y-93099080D01*
X103614394Y-93134414D01*
X103623062Y-93167068D01*
X103629256Y-93193218D01*
X103631870Y-93209042D01*
X103631870Y-93209042D01*
X103631870Y-93209042D01*
G37*
X103631870Y-93209042D02*
X103631456Y-93211916D01*
X103622920Y-93214573D01*
X103599398Y-93221414D01*
X103562238Y-93232058D01*
X103512793Y-93246122D01*
X103452408Y-93263225D01*
X103382435Y-93282986D01*
X103304221Y-93305021D01*
X103219117Y-93328949D01*
X103128473Y-93354389D01*
X103082600Y-93367247D01*
X102989383Y-93393366D01*
X102900768Y-93418200D01*
X102818142Y-93441360D01*
X102742890Y-93462457D01*
X102676396Y-93481103D01*
X102620047Y-93496910D01*
X102575226Y-93509490D01*
X102543320Y-93518452D01*
X102525714Y-93523410D01*
X102522778Y-93524246D01*
X102514859Y-93522634D01*
X102504942Y-93512242D01*
X102491746Y-93491144D01*
X102473987Y-93457413D01*
X102461550Y-93432239D01*
X102406735Y-93312541D01*
X102362317Y-93200134D01*
X102328574Y-93095996D01*
X102305784Y-93001108D01*
X102294225Y-92916447D01*
X102294173Y-92842994D01*
X102294224Y-92842408D01*
X102304165Y-92787394D01*
X102323159Y-92729247D01*
X102348225Y-92676787D01*
X102352852Y-92669107D01*
X102389849Y-92622879D01*
X102441371Y-92577766D01*
X102504989Y-92535403D01*
X102578274Y-92497429D01*
X102650536Y-92468342D01*
X102669579Y-92462190D01*
X102701596Y-92452472D01*
X102744535Y-92439770D01*
X102796346Y-92424664D01*
X102854978Y-92407735D01*
X102918378Y-92389563D01*
X102984496Y-92370728D01*
X103051280Y-92351811D01*
X103116678Y-92333394D01*
X103178640Y-92316056D01*
X103235114Y-92300379D01*
X103284049Y-92286941D01*
X103323394Y-92276326D01*
X103351097Y-92269112D01*
X103365106Y-92265882D01*
X103366269Y-92265767D01*
X103370728Y-92273589D01*
X103378168Y-92294046D01*
X103387504Y-92323301D01*
X103397648Y-92357525D01*
X103407516Y-92392882D01*
X103416020Y-92425540D01*
X103422076Y-92451664D01*
X103424597Y-92467423D01*
X103424190Y-92470219D01*
X103415454Y-92473117D01*
X103392194Y-92480031D01*
X103356228Y-92490444D01*
X103309375Y-92503835D01*
X103253453Y-92519684D01*
X103190281Y-92537473D01*
X103121679Y-92556682D01*
X103115044Y-92558535D01*
X103010283Y-92588083D01*
X102920560Y-92614126D01*
X102844434Y-92637178D01*
X102780464Y-92657750D01*
X102727209Y-92676355D01*
X102683227Y-92693504D01*
X102647077Y-92709711D01*
X102617319Y-92725487D01*
X102592512Y-92741343D01*
X102584731Y-92747009D01*
X102544423Y-92780841D01*
X102517191Y-92813822D01*
X102500218Y-92851031D01*
X102490686Y-92897547D01*
X102488226Y-92921083D01*
X102485894Y-92958780D01*
X102486822Y-92989657D01*
X102491805Y-93020575D01*
X102501640Y-93058398D01*
X102505815Y-93072656D01*
X102517833Y-93110425D01*
X102531973Y-93150777D01*
X102546943Y-93190488D01*
X102561449Y-93226338D01*
X102574197Y-93255107D01*
X102583893Y-93273571D01*
X102588569Y-93278759D01*
X102597362Y-93276631D01*
X102621049Y-93270309D01*
X102658194Y-93260189D01*
X102707363Y-93246669D01*
X102767120Y-93230143D01*
X102836029Y-93211010D01*
X102912658Y-93189667D01*
X102995570Y-93166510D01*
X103079315Y-93143061D01*
X103166973Y-93118529D01*
X103249788Y-93095437D01*
X103326315Y-93074181D01*
X103395109Y-93055158D01*
X103454727Y-93038765D01*
X103503725Y-93025401D01*
X103540657Y-93015461D01*
X103564080Y-93009342D01*
X103572504Y-93007432D01*
X103577014Y-93015243D01*
X103584561Y-93035672D01*
X103594041Y-93064891D01*
X103604353Y-93099080D01*
X103614394Y-93134414D01*
X103623062Y-93167068D01*
X103629256Y-93193218D01*
X103631870Y-93209042D01*
X103631870Y-93209042D01*
G36*
X103188913Y-91759153D02*
X103188759Y-91759345D01*
X103180433Y-91763026D01*
X103157736Y-91772657D01*
X103121970Y-91787695D01*
X103074430Y-91807596D01*
X103016419Y-91831821D01*
X102949236Y-91859825D01*
X102874179Y-91891068D01*
X102792549Y-91925005D01*
X102705645Y-91961094D01*
X102663504Y-91978581D01*
X102574240Y-92015613D01*
X102489376Y-92050820D01*
X102410244Y-92083648D01*
X102338179Y-92113545D01*
X102274516Y-92139956D01*
X102220587Y-92162328D01*
X102177726Y-92180110D01*
X102147267Y-92192746D01*
X102130544Y-92199684D01*
X102127858Y-92200798D01*
X102119885Y-92200536D01*
X102109348Y-92192540D01*
X102094666Y-92174976D01*
X102074258Y-92146009D01*
X102053472Y-92114509D01*
X101998539Y-92025618D01*
X101949162Y-91937108D01*
X101906422Y-91851339D01*
X101871406Y-91770667D01*
X101845196Y-91697453D01*
X101828878Y-91634053D01*
X101826639Y-91621121D01*
X101822080Y-91563917D01*
X101824492Y-91503243D01*
X101833173Y-91444465D01*
X101847419Y-91392944D01*
X101860387Y-91363963D01*
X101904818Y-91300684D01*
X101964990Y-91241279D01*
X102039969Y-91186522D01*
X102128820Y-91137188D01*
X102141732Y-91131030D01*
X102163218Y-91121358D01*
X102196701Y-91106784D01*
X102240169Y-91088146D01*
X102291607Y-91066282D01*
X102349007Y-91042037D01*
X102410353Y-91016245D01*
X102473636Y-90989749D01*
X102536842Y-90963389D01*
X102597959Y-90938002D01*
X102654976Y-90914428D01*
X102705881Y-90893509D01*
X102748660Y-90876084D01*
X102781303Y-90862990D01*
X102801797Y-90855070D01*
X102807910Y-90853039D01*
X102814836Y-90859759D01*
X102826559Y-90879274D01*
X102841500Y-90908664D01*
X102858079Y-90945008D01*
X102859772Y-90948925D01*
X102901694Y-91046431D01*
X102600431Y-91171820D01*
X102508912Y-91209991D01*
X102431583Y-91242477D01*
X102366933Y-91269999D01*
X102313443Y-91293278D01*
X102269601Y-91313037D01*
X102233893Y-91329994D01*
X102204805Y-91344871D01*
X102180822Y-91358391D01*
X102160428Y-91371275D01*
X102142111Y-91384242D01*
X102124356Y-91398015D01*
X102122758Y-91399299D01*
X102083719Y-91433584D01*
X102056672Y-91465381D01*
X102038338Y-91499566D01*
X102025433Y-91541020D01*
X102024369Y-91545518D01*
X102017968Y-91604050D01*
X102025501Y-91666655D01*
X102047166Y-91735485D01*
X102059885Y-91764900D01*
X102076592Y-91799762D01*
X102095563Y-91836910D01*
X102115072Y-91873182D01*
X102133395Y-91905420D01*
X102148806Y-91930459D01*
X102159580Y-91945141D01*
X102162953Y-91947660D01*
X102172104Y-91944625D01*
X102195518Y-91935624D01*
X102231808Y-91921221D01*
X102279583Y-91901981D01*
X102337455Y-91878468D01*
X102404034Y-91851247D01*
X102477929Y-91820882D01*
X102557753Y-91787937D01*
X102638415Y-91754514D01*
X102746799Y-91709683D01*
X102840139Y-91671439D01*
X102918935Y-91639585D01*
X102983691Y-91613928D01*
X103034910Y-91594272D01*
X103073095Y-91580423D01*
X103098746Y-91572185D01*
X103112368Y-91569366D01*
X103114776Y-91569875D01*
X103121434Y-91580972D01*
X103131778Y-91603191D01*
X103144339Y-91632765D01*
X103157644Y-91665926D01*
X103170225Y-91698912D01*
X103180610Y-91727955D01*
X103187329Y-91749291D01*
X103188913Y-91759153D01*
X103188913Y-91759153D01*
X103188913Y-91759153D01*
G37*
X103188913Y-91759153D02*
X103188759Y-91759345D01*
X103180433Y-91763026D01*
X103157736Y-91772657D01*
X103121970Y-91787695D01*
X103074430Y-91807596D01*
X103016419Y-91831821D01*
X102949236Y-91859825D01*
X102874179Y-91891068D01*
X102792549Y-91925005D01*
X102705645Y-91961094D01*
X102663504Y-91978581D01*
X102574240Y-92015613D01*
X102489376Y-92050820D01*
X102410244Y-92083648D01*
X102338179Y-92113545D01*
X102274516Y-92139956D01*
X102220587Y-92162328D01*
X102177726Y-92180110D01*
X102147267Y-92192746D01*
X102130544Y-92199684D01*
X102127858Y-92200798D01*
X102119885Y-92200536D01*
X102109348Y-92192540D01*
X102094666Y-92174976D01*
X102074258Y-92146009D01*
X102053472Y-92114509D01*
X101998539Y-92025618D01*
X101949162Y-91937108D01*
X101906422Y-91851339D01*
X101871406Y-91770667D01*
X101845196Y-91697453D01*
X101828878Y-91634053D01*
X101826639Y-91621121D01*
X101822080Y-91563917D01*
X101824492Y-91503243D01*
X101833173Y-91444465D01*
X101847419Y-91392944D01*
X101860387Y-91363963D01*
X101904818Y-91300684D01*
X101964990Y-91241279D01*
X102039969Y-91186522D01*
X102128820Y-91137188D01*
X102141732Y-91131030D01*
X102163218Y-91121358D01*
X102196701Y-91106784D01*
X102240169Y-91088146D01*
X102291607Y-91066282D01*
X102349007Y-91042037D01*
X102410353Y-91016245D01*
X102473636Y-90989749D01*
X102536842Y-90963389D01*
X102597959Y-90938002D01*
X102654976Y-90914428D01*
X102705881Y-90893509D01*
X102748660Y-90876084D01*
X102781303Y-90862990D01*
X102801797Y-90855070D01*
X102807910Y-90853039D01*
X102814836Y-90859759D01*
X102826559Y-90879274D01*
X102841500Y-90908664D01*
X102858079Y-90945008D01*
X102859772Y-90948925D01*
X102901694Y-91046431D01*
X102600431Y-91171820D01*
X102508912Y-91209991D01*
X102431583Y-91242477D01*
X102366933Y-91269999D01*
X102313443Y-91293278D01*
X102269601Y-91313037D01*
X102233893Y-91329994D01*
X102204805Y-91344871D01*
X102180822Y-91358391D01*
X102160428Y-91371275D01*
X102142111Y-91384242D01*
X102124356Y-91398015D01*
X102122758Y-91399299D01*
X102083719Y-91433584D01*
X102056672Y-91465381D01*
X102038338Y-91499566D01*
X102025433Y-91541020D01*
X102024369Y-91545518D01*
X102017968Y-91604050D01*
X102025501Y-91666655D01*
X102047166Y-91735485D01*
X102059885Y-91764900D01*
X102076592Y-91799762D01*
X102095563Y-91836910D01*
X102115072Y-91873182D01*
X102133395Y-91905420D01*
X102148806Y-91930459D01*
X102159580Y-91945141D01*
X102162953Y-91947660D01*
X102172104Y-91944625D01*
X102195518Y-91935624D01*
X102231808Y-91921221D01*
X102279583Y-91901981D01*
X102337455Y-91878468D01*
X102404034Y-91851247D01*
X102477929Y-91820882D01*
X102557753Y-91787937D01*
X102638415Y-91754514D01*
X102746799Y-91709683D01*
X102840139Y-91671439D01*
X102918935Y-91639585D01*
X102983691Y-91613928D01*
X103034910Y-91594272D01*
X103073095Y-91580423D01*
X103098746Y-91572185D01*
X103112368Y-91569366D01*
X103114776Y-91569875D01*
X103121434Y-91580972D01*
X103131778Y-91603191D01*
X103144339Y-91632765D01*
X103157644Y-91665926D01*
X103170225Y-91698912D01*
X103180610Y-91727955D01*
X103187329Y-91749291D01*
X103188913Y-91759153D01*
X103188913Y-91759153D01*
G36*
X102782418Y-90076943D02*
X102770799Y-90160153D01*
X102744773Y-90235659D01*
X102704285Y-90302933D01*
X102703181Y-90304382D01*
X102650394Y-90361237D01*
X102584621Y-90412458D01*
X102535793Y-90440517D01*
X102570917Y-90039046D01*
X102575838Y-89982422D01*
X102569419Y-89920605D01*
X102551274Y-89851111D01*
X102534745Y-89805066D01*
X102521379Y-89774183D01*
X102502957Y-89736337D01*
X102480988Y-89694157D01*
X102456987Y-89650270D01*
X102432466Y-89607302D01*
X102408938Y-89567885D01*
X102387915Y-89534643D01*
X102370910Y-89510206D01*
X102359438Y-89497200D01*
X102356693Y-89495783D01*
X102348023Y-89499684D01*
X102326713Y-89510906D01*
X102294811Y-89528286D01*
X102254366Y-89550664D01*
X102207426Y-89576878D01*
X102156041Y-89605766D01*
X102102257Y-89636170D01*
X102048125Y-89666924D01*
X101995691Y-89696869D01*
X101947007Y-89724844D01*
X101904118Y-89749688D01*
X101869075Y-89770238D01*
X101843926Y-89785333D01*
X101830717Y-89793813D01*
X101829958Y-89794390D01*
X101824799Y-89801844D01*
X101825898Y-89813692D01*
X101834231Y-89833327D01*
X101849156Y-89861244D01*
X101902493Y-89954051D01*
X101951163Y-90032100D01*
X101996073Y-90096655D01*
X102038125Y-90148978D01*
X102078223Y-90190335D01*
X102095138Y-90205101D01*
X102139252Y-90236649D01*
X102183206Y-90256380D01*
X102234200Y-90267265D01*
X102250151Y-90269077D01*
X102286252Y-90271167D01*
X102315721Y-90268326D01*
X102347310Y-90259299D01*
X102365228Y-90252624D01*
X102432905Y-90219511D01*
X102489033Y-90177796D01*
X102532206Y-90128942D01*
X102561014Y-90074411D01*
X102570917Y-90039046D01*
X102535793Y-90440517D01*
X102509529Y-90455611D01*
X102428790Y-90488262D01*
X102423418Y-90489967D01*
X102394695Y-90497320D01*
X102365115Y-90500775D01*
X102329053Y-90500685D01*
X102290741Y-90498212D01*
X102234118Y-90491724D01*
X102186462Y-90481002D01*
X102142669Y-90464055D01*
X102097642Y-90438887D01*
X102046280Y-90403502D01*
X102043627Y-90401556D01*
X101971802Y-90348758D01*
X101922338Y-90465106D01*
X101877674Y-90566961D01*
X101833368Y-90660821D01*
X101785604Y-90754534D01*
X101745147Y-90829571D01*
X101722711Y-90869752D01*
X101698578Y-90911909D01*
X101674286Y-90953475D01*
X101651373Y-90991888D01*
X101631377Y-91024584D01*
X101615838Y-91048997D01*
X101606293Y-91062564D01*
X101604193Y-91064482D01*
X101599307Y-91057453D01*
X101587575Y-91038244D01*
X101570524Y-91009429D01*
X101549688Y-90973573D01*
X101538911Y-90954828D01*
X101476211Y-90845398D01*
X101543912Y-90726730D01*
X101575401Y-90670175D01*
X101610370Y-90605052D01*
X101647105Y-90534756D01*
X101683888Y-90462686D01*
X101719005Y-90392239D01*
X101750738Y-90326810D01*
X101777372Y-90269796D01*
X101795138Y-90229497D01*
X101824731Y-90159353D01*
X101749115Y-90027525D01*
X101724521Y-89984933D01*
X101702666Y-89947619D01*
X101684997Y-89918015D01*
X101672964Y-89898550D01*
X101668155Y-89891711D01*
X101659839Y-89894875D01*
X101638513Y-89905629D01*
X101605846Y-89923062D01*
X101563503Y-89946261D01*
X101513151Y-89974311D01*
X101456457Y-90006301D01*
X101395086Y-90041316D01*
X101394070Y-90041900D01*
X101332392Y-90077118D01*
X101275161Y-90109482D01*
X101224080Y-90138050D01*
X101180855Y-90161884D01*
X101147192Y-90180041D01*
X101124795Y-90191583D01*
X101115369Y-90195569D01*
X101115365Y-90195569D01*
X101107686Y-90188442D01*
X101094168Y-90169807D01*
X101076883Y-90143162D01*
X101057899Y-90112002D01*
X101039288Y-90079828D01*
X101023115Y-90050134D01*
X101011454Y-90026421D01*
X101006372Y-90012184D01*
X101006302Y-90011249D01*
X101013502Y-90005486D01*
X101034428Y-89991940D01*
X101068059Y-89971213D01*
X101113373Y-89943906D01*
X101169353Y-89910618D01*
X101234978Y-89871951D01*
X101309226Y-89828506D01*
X101391078Y-89780883D01*
X101479513Y-89729682D01*
X101573513Y-89675503D01*
X101672055Y-89618949D01*
X101696341Y-89605047D01*
X101812769Y-89538453D01*
X101915380Y-89479823D01*
X102005067Y-89428675D01*
X102082722Y-89384529D01*
X102149236Y-89346904D01*
X102205504Y-89315320D01*
X102252419Y-89289296D01*
X102290871Y-89268352D01*
X102321755Y-89252005D01*
X102345964Y-89239776D01*
X102364390Y-89231184D01*
X102377926Y-89225748D01*
X102387464Y-89222988D01*
X102393896Y-89222422D01*
X102398117Y-89223570D01*
X102400796Y-89225709D01*
X102414068Y-89242177D01*
X102434530Y-89270272D01*
X102460350Y-89307252D01*
X102489702Y-89350375D01*
X102520758Y-89396904D01*
X102551688Y-89444095D01*
X102580665Y-89489208D01*
X102605860Y-89529504D01*
X102625445Y-89562242D01*
X102626320Y-89563763D01*
X102685917Y-89677592D01*
X102731379Y-89786353D01*
X102762654Y-89889515D01*
X102779685Y-89986555D01*
X102782418Y-90076943D01*
X102782418Y-90076943D01*
X102782418Y-90076943D01*
G37*
X102782418Y-90076943D02*
X102770799Y-90160153D01*
X102744773Y-90235659D01*
X102704285Y-90302933D01*
X102703181Y-90304382D01*
X102650394Y-90361237D01*
X102584621Y-90412458D01*
X102535793Y-90440517D01*
X102570917Y-90039046D01*
X102575838Y-89982422D01*
X102569419Y-89920605D01*
X102551274Y-89851111D01*
X102534745Y-89805066D01*
X102521379Y-89774183D01*
X102502957Y-89736337D01*
X102480988Y-89694157D01*
X102456987Y-89650270D01*
X102432466Y-89607302D01*
X102408938Y-89567885D01*
X102387915Y-89534643D01*
X102370910Y-89510206D01*
X102359438Y-89497200D01*
X102356693Y-89495783D01*
X102348023Y-89499684D01*
X102326713Y-89510906D01*
X102294811Y-89528286D01*
X102254366Y-89550664D01*
X102207426Y-89576878D01*
X102156041Y-89605766D01*
X102102257Y-89636170D01*
X102048125Y-89666924D01*
X101995691Y-89696869D01*
X101947007Y-89724844D01*
X101904118Y-89749688D01*
X101869075Y-89770238D01*
X101843926Y-89785333D01*
X101830717Y-89793813D01*
X101829958Y-89794390D01*
X101824799Y-89801844D01*
X101825898Y-89813692D01*
X101834231Y-89833327D01*
X101849156Y-89861244D01*
X101902493Y-89954051D01*
X101951163Y-90032100D01*
X101996073Y-90096655D01*
X102038125Y-90148978D01*
X102078223Y-90190335D01*
X102095138Y-90205101D01*
X102139252Y-90236649D01*
X102183206Y-90256380D01*
X102234200Y-90267265D01*
X102250151Y-90269077D01*
X102286252Y-90271167D01*
X102315721Y-90268326D01*
X102347310Y-90259299D01*
X102365228Y-90252624D01*
X102432905Y-90219511D01*
X102489033Y-90177796D01*
X102532206Y-90128942D01*
X102561014Y-90074411D01*
X102570917Y-90039046D01*
X102535793Y-90440517D01*
X102509529Y-90455611D01*
X102428790Y-90488262D01*
X102423418Y-90489967D01*
X102394695Y-90497320D01*
X102365115Y-90500775D01*
X102329053Y-90500685D01*
X102290741Y-90498212D01*
X102234118Y-90491724D01*
X102186462Y-90481002D01*
X102142669Y-90464055D01*
X102097642Y-90438887D01*
X102046280Y-90403502D01*
X102043627Y-90401556D01*
X101971802Y-90348758D01*
X101922338Y-90465106D01*
X101877674Y-90566961D01*
X101833368Y-90660821D01*
X101785604Y-90754534D01*
X101745147Y-90829571D01*
X101722711Y-90869752D01*
X101698578Y-90911909D01*
X101674286Y-90953475D01*
X101651373Y-90991888D01*
X101631377Y-91024584D01*
X101615838Y-91048997D01*
X101606293Y-91062564D01*
X101604193Y-91064482D01*
X101599307Y-91057453D01*
X101587575Y-91038244D01*
X101570524Y-91009429D01*
X101549688Y-90973573D01*
X101538911Y-90954828D01*
X101476211Y-90845398D01*
X101543912Y-90726730D01*
X101575401Y-90670175D01*
X101610370Y-90605052D01*
X101647105Y-90534756D01*
X101683888Y-90462686D01*
X101719005Y-90392239D01*
X101750738Y-90326810D01*
X101777372Y-90269796D01*
X101795138Y-90229497D01*
X101824731Y-90159353D01*
X101749115Y-90027525D01*
X101724521Y-89984933D01*
X101702666Y-89947619D01*
X101684997Y-89918015D01*
X101672964Y-89898550D01*
X101668155Y-89891711D01*
X101659839Y-89894875D01*
X101638513Y-89905629D01*
X101605846Y-89923062D01*
X101563503Y-89946261D01*
X101513151Y-89974311D01*
X101456457Y-90006301D01*
X101395086Y-90041316D01*
X101394070Y-90041900D01*
X101332392Y-90077118D01*
X101275161Y-90109482D01*
X101224080Y-90138050D01*
X101180855Y-90161884D01*
X101147192Y-90180041D01*
X101124795Y-90191583D01*
X101115369Y-90195569D01*
X101115365Y-90195569D01*
X101107686Y-90188442D01*
X101094168Y-90169807D01*
X101076883Y-90143162D01*
X101057899Y-90112002D01*
X101039288Y-90079828D01*
X101023115Y-90050134D01*
X101011454Y-90026421D01*
X101006372Y-90012184D01*
X101006302Y-90011249D01*
X101013502Y-90005486D01*
X101034428Y-89991940D01*
X101068059Y-89971213D01*
X101113373Y-89943906D01*
X101169353Y-89910618D01*
X101234978Y-89871951D01*
X101309226Y-89828506D01*
X101391078Y-89780883D01*
X101479513Y-89729682D01*
X101573513Y-89675503D01*
X101672055Y-89618949D01*
X101696341Y-89605047D01*
X101812769Y-89538453D01*
X101915380Y-89479823D01*
X102005067Y-89428675D01*
X102082722Y-89384529D01*
X102149236Y-89346904D01*
X102205504Y-89315320D01*
X102252419Y-89289296D01*
X102290871Y-89268352D01*
X102321755Y-89252005D01*
X102345964Y-89239776D01*
X102364390Y-89231184D01*
X102377926Y-89225748D01*
X102387464Y-89222988D01*
X102393896Y-89222422D01*
X102398117Y-89223570D01*
X102400796Y-89225709D01*
X102414068Y-89242177D01*
X102434530Y-89270272D01*
X102460350Y-89307252D01*
X102489702Y-89350375D01*
X102520758Y-89396904D01*
X102551688Y-89444095D01*
X102580665Y-89489208D01*
X102605860Y-89529504D01*
X102625445Y-89562242D01*
X102626320Y-89563763D01*
X102685917Y-89677592D01*
X102731379Y-89786353D01*
X102762654Y-89889515D01*
X102779685Y-89986555D01*
X102782418Y-90076943D01*
X102782418Y-90076943D01*
M02*
