G04 #@! TF.FileFunction,Soldermask,Top*
%FSLAX46Y46*%
G04 Gerber Fmt 4.6, Leading zero omitted, Abs format (unit mm)*
G04 Created by KiCad (PCBNEW 0.201503110816+5502~22~ubuntu14.04.1-product) date ថ្ងៃ​អាទិត្យ ថ្ងៃ 29 ខែ មិនា ឆ្នាំ  2015, 13 ម៉ោង m នាទី 44 វិនាទី​*
%MOMM*%
G01*
G04 APERTURE LIST*
%ADD10C,0.020000*%
%ADD11C,0.300000*%
%ADD12C,0.350000*%
%ADD13O,0.550000X0.950000*%
%ADD14R,2.500000X1.600000*%
%ADD15C,0.350000*%
%ADD16R,0.600000X0.600000*%
%ADD17C,1.700000*%
%ADD18O,5.500000X1.700000*%
%ADD19O,2.500000X1.700000*%
%ADD20C,1.400000*%
%ADD21R,1.100000X0.900000*%
%ADD22R,0.700000X0.600000*%
%ADD23C,1.800000*%
%ADD24C,0.010000*%
G04 APERTURE END LIST*
D10*
D11*
X102220357Y-106060000D02*
G75*
G03X102220357Y-106060000I-140357J0D01*
G01*
X101360000Y-105180000D02*
G75*
G03X101360000Y-105180000I-150000J0D01*
G01*
X102900333Y-103320000D02*
G75*
G03X102900333Y-103320000I-150333J0D01*
G01*
X103950000Y-103950000D02*
G75*
G03X103950000Y-103950000I-150000J0D01*
G01*
X105221421Y-101620000D02*
G75*
G03X105221421Y-101620000I-141421J0D01*
G01*
X104102971Y-101080000D02*
G75*
G03X104102971Y-101080000I-152971J0D01*
G01*
X104910357Y-98630000D02*
G75*
G03X104910357Y-98630000I-140357J0D01*
G01*
X106111327Y-98830000D02*
G75*
G03X106111327Y-98830000I-151327J0D01*
G01*
X106401327Y-95990000D02*
G75*
G03X106401327Y-95990000I-151327J0D01*
G01*
X105130357Y-95970000D02*
G75*
G03X105130357Y-95970000I-140357J0D01*
G01*
X104900333Y-93400000D02*
G75*
G03X104900333Y-93400000I-150333J0D01*
G01*
X106090333Y-93110000D02*
G75*
G03X106090333Y-93110000I-150333J0D01*
G01*
X104110333Y-90850000D02*
G75*
G03X104110333Y-90850000I-150333J0D01*
G01*
X105240000Y-90400000D02*
G75*
G03X105240000Y-90400000I-150000J0D01*
G01*
X102940000Y-88700000D02*
G75*
G03X102940000Y-88700000I-150000J0D01*
G01*
X103910333Y-87950000D02*
G75*
G03X103910333Y-87950000I-150333J0D01*
G01*
X101190000Y-105180000D02*
X102090000Y-106090000D01*
X102750000Y-103290000D02*
X101190000Y-105180000D01*
X103820000Y-104010000D02*
X102750000Y-103290000D01*
X105110000Y-101620000D02*
X103820000Y-104010000D01*
X103950000Y-101100000D02*
X105110000Y-101620000D01*
X104740000Y-98630000D02*
X103950000Y-101100000D01*
X105980000Y-98870000D02*
X104740000Y-98630000D01*
X106260000Y-96000000D02*
X105980000Y-98870000D01*
X105000000Y-95990000D02*
X106260000Y-96000000D01*
X104740000Y-93380000D02*
X105000000Y-95990000D01*
X105960000Y-93120000D02*
X104740000Y-93380000D01*
X105090000Y-90380000D02*
X105960000Y-93120000D01*
X103960000Y-90860000D02*
X105090000Y-90380000D01*
X102770000Y-88700000D02*
X103960000Y-90860000D01*
X103790000Y-87960000D02*
X102770000Y-88700000D01*
X102080000Y-85860000D02*
X103790000Y-87960000D01*
D12*
X96818676Y-83466067D03*
X96701728Y-83848589D03*
X96584779Y-84231111D03*
X96467830Y-84613633D03*
X96350882Y-84996155D03*
X96233933Y-85378676D03*
X96436155Y-83349118D03*
X96319206Y-83731640D03*
X96085309Y-84496684D03*
X95968360Y-84879206D03*
X95851411Y-85261728D03*
X96053633Y-83232170D03*
X95936684Y-83614691D03*
X95819735Y-83997213D03*
X95585838Y-84762257D03*
X95468889Y-85144779D03*
X95671111Y-83115221D03*
X95554162Y-83497743D03*
X95437213Y-83880265D03*
X95320265Y-84262787D03*
X95203316Y-84645309D03*
X95086367Y-85027830D03*
X95288589Y-82998272D03*
X95171640Y-83380794D03*
X95054691Y-83763316D03*
X94937743Y-84145838D03*
X94820794Y-84528360D03*
X94703845Y-84910882D03*
X94906067Y-82881324D03*
X94789118Y-83263845D03*
X94672170Y-83646367D03*
X94555221Y-84028889D03*
X94438272Y-84411411D03*
X94321324Y-84793933D03*
D10*
G36*
X87135614Y-82983935D02*
X87459669Y-82851691D01*
X87648590Y-83314627D01*
X87324535Y-83446871D01*
X87135614Y-82983935D01*
X87135614Y-82983935D01*
G37*
G36*
X86672679Y-83172856D02*
X86996734Y-83040612D01*
X87185655Y-83503548D01*
X86861600Y-83635792D01*
X86672679Y-83172856D01*
X86672679Y-83172856D01*
G37*
G36*
X86209743Y-83361776D02*
X86533798Y-83229532D01*
X86722719Y-83692468D01*
X86398664Y-83824712D01*
X86209743Y-83361776D01*
X86209743Y-83361776D01*
G37*
G36*
X85746808Y-83550696D02*
X86070863Y-83418452D01*
X86259784Y-83881388D01*
X85935729Y-84013632D01*
X85746808Y-83550696D01*
X85746808Y-83550696D01*
G37*
G36*
X86691410Y-85865373D02*
X87015465Y-85733129D01*
X87204386Y-86196065D01*
X86880331Y-86328309D01*
X86691410Y-85865373D01*
X86691410Y-85865373D01*
G37*
G36*
X87154345Y-85676452D02*
X87478400Y-85544208D01*
X87667321Y-86007144D01*
X87343266Y-86139388D01*
X87154345Y-85676452D01*
X87154345Y-85676452D01*
G37*
G36*
X87617281Y-85487532D02*
X87941336Y-85355288D01*
X88130257Y-85818224D01*
X87806202Y-85950468D01*
X87617281Y-85487532D01*
X87617281Y-85487532D01*
G37*
G36*
X88080216Y-85298612D02*
X88404271Y-85166368D01*
X88593192Y-85629304D01*
X88269137Y-85761548D01*
X88080216Y-85298612D01*
X88080216Y-85298612D01*
G37*
G36*
X80996635Y-88301193D02*
X80737764Y-88065639D01*
X81074271Y-87695823D01*
X81333142Y-87931377D01*
X80996635Y-88301193D01*
X80996635Y-88301193D01*
G37*
G36*
X81366450Y-88637699D02*
X81107579Y-88402145D01*
X81444086Y-88032329D01*
X81702957Y-88267883D01*
X81366450Y-88637699D01*
X81366450Y-88637699D01*
G37*
G36*
X81736266Y-88974205D02*
X81477395Y-88738651D01*
X81813902Y-88368835D01*
X82072773Y-88604389D01*
X81736266Y-88974205D01*
X81736266Y-88974205D01*
G37*
G36*
X82106081Y-89310712D02*
X81847210Y-89075158D01*
X82183717Y-88705342D01*
X82442588Y-88940896D01*
X82106081Y-89310712D01*
X82106081Y-89310712D01*
G37*
G36*
X82475897Y-89647218D02*
X82217026Y-89411664D01*
X82553533Y-89041848D01*
X82812404Y-89277402D01*
X82475897Y-89647218D01*
X82475897Y-89647218D01*
G37*
G36*
X83577699Y-88993550D02*
X83342145Y-89252421D01*
X82972329Y-88915914D01*
X83207883Y-88657043D01*
X83577699Y-88993550D01*
X83577699Y-88993550D01*
G37*
G36*
X83914205Y-88623734D02*
X83678651Y-88882605D01*
X83308835Y-88546098D01*
X83544389Y-88287227D01*
X83914205Y-88623734D01*
X83914205Y-88623734D01*
G37*
G36*
X84250712Y-88253919D02*
X84015158Y-88512790D01*
X83645342Y-88176283D01*
X83880896Y-87917412D01*
X84250712Y-88253919D01*
X84250712Y-88253919D01*
G37*
G36*
X84225729Y-87724177D02*
X83966858Y-87488623D01*
X84303365Y-87118807D01*
X84562236Y-87354361D01*
X84225729Y-87724177D01*
X84225729Y-87724177D01*
G37*
G36*
X83855914Y-87387671D02*
X83597043Y-87152117D01*
X83933550Y-86782301D01*
X84192421Y-87017855D01*
X83855914Y-87387671D01*
X83855914Y-87387671D01*
G37*
G36*
X83486098Y-87051165D02*
X83227227Y-86815611D01*
X83563734Y-86445795D01*
X83822605Y-86681349D01*
X83486098Y-87051165D01*
X83486098Y-87051165D01*
G37*
G36*
X83116283Y-86714658D02*
X82857412Y-86479104D01*
X83193919Y-86109288D01*
X83452790Y-86344842D01*
X83116283Y-86714658D01*
X83116283Y-86714658D01*
G37*
G36*
X82746467Y-86378152D02*
X82487596Y-86142598D01*
X82824103Y-85772782D01*
X83082974Y-86008336D01*
X82746467Y-86378152D01*
X82746467Y-86378152D01*
G37*
G36*
X82327671Y-86504086D02*
X82092117Y-86762957D01*
X81722301Y-86426450D01*
X81957855Y-86167579D01*
X82327671Y-86504086D01*
X82327671Y-86504086D01*
G37*
G36*
X81991165Y-86873902D02*
X81755611Y-87132773D01*
X81385795Y-86796266D01*
X81621349Y-86537395D01*
X81991165Y-86873902D01*
X81991165Y-86873902D01*
G37*
G36*
X81654658Y-87243717D02*
X81419104Y-87502588D01*
X81049288Y-87166081D01*
X81284842Y-86907210D01*
X81654658Y-87243717D01*
X81654658Y-87243717D01*
G37*
D12*
X78854949Y-92468579D03*
X78751421Y-92854949D03*
X78468579Y-92365051D03*
X78365051Y-92751421D03*
D13*
X78500000Y-97450000D03*
X79500000Y-97450000D03*
X80500000Y-97450000D03*
X80500000Y-94550000D03*
X79500000Y-94550000D03*
X78500000Y-94550000D03*
D14*
X79500000Y-96000000D03*
D15*
X81168440Y-92333474D02*
X80939002Y-92234188D01*
X81426586Y-91736933D02*
X81197148Y-91637647D01*
X81684732Y-91140393D02*
X81455294Y-91041107D01*
X79940998Y-90385812D02*
X79711560Y-90286526D01*
X79682852Y-90982353D02*
X79453414Y-90883067D01*
X79424706Y-91578893D02*
X79195268Y-91479607D01*
D10*
G36*
X81072090Y-90793558D02*
X80496226Y-92124303D01*
X79807910Y-91826442D01*
X80383774Y-90495697D01*
X81072090Y-90793558D01*
X81072090Y-90793558D01*
G37*
G36*
X82381851Y-103922667D02*
X82667640Y-103642801D01*
X83052455Y-104035761D01*
X82766666Y-104315627D01*
X82381851Y-103922667D01*
X82381851Y-103922667D01*
G37*
G36*
X81953168Y-104342465D02*
X82238957Y-104062599D01*
X82623772Y-104455559D01*
X82337983Y-104735425D01*
X81953168Y-104342465D01*
X81953168Y-104342465D01*
G37*
G36*
X82012768Y-105403807D02*
X81732902Y-105118018D01*
X82125862Y-104733203D01*
X82405728Y-105018992D01*
X82012768Y-105403807D01*
X82012768Y-105403807D01*
G37*
G36*
X82432566Y-105832491D02*
X82152700Y-105546702D01*
X82545660Y-105161887D01*
X82825526Y-105447676D01*
X82432566Y-105832491D01*
X82432566Y-105832491D01*
G37*
G36*
X82852364Y-106261174D02*
X82572498Y-105975385D01*
X82965458Y-105590570D01*
X83245324Y-105876359D01*
X82852364Y-106261174D01*
X82852364Y-106261174D01*
G37*
G36*
X83247545Y-105664239D02*
X83533334Y-105384373D01*
X83918149Y-105777333D01*
X83632360Y-106057199D01*
X83247545Y-105664239D01*
X83247545Y-105664239D01*
G37*
G36*
X83676228Y-105244441D02*
X83962017Y-104964575D01*
X84346832Y-105357535D01*
X84061043Y-105637401D01*
X83676228Y-105244441D01*
X83676228Y-105244441D01*
G37*
G36*
X84174138Y-104966797D02*
X83894272Y-104681008D01*
X84287232Y-104296193D01*
X84567098Y-104581982D01*
X84174138Y-104966797D01*
X84174138Y-104966797D01*
G37*
G36*
X83754340Y-104538113D02*
X83474474Y-104252324D01*
X83867434Y-103867509D01*
X84147300Y-104153298D01*
X83754340Y-104538113D01*
X83754340Y-104538113D01*
G37*
G36*
X83334542Y-104109430D02*
X83054676Y-103823641D01*
X83447636Y-103438826D01*
X83727502Y-103724615D01*
X83334542Y-104109430D01*
X83334542Y-104109430D01*
G37*
G36*
X94295224Y-82293226D02*
X94216784Y-83189801D01*
X93519448Y-83128792D01*
X93597888Y-82232217D01*
X94295224Y-82293226D01*
X94295224Y-82293226D01*
G37*
G36*
X92900552Y-82171208D02*
X92822112Y-83067783D01*
X92124776Y-83006774D01*
X92203216Y-82110199D01*
X92900552Y-82171208D01*
X92900552Y-82171208D01*
G37*
D16*
X92450000Y-110250000D03*
X91550000Y-110250000D03*
D17*
X100845913Y-99563789D02*
X98754087Y-102736211D01*
D18*
X92000000Y-86650000D03*
D17*
X85243143Y-102738034D02*
X83156857Y-99561966D01*
D19*
X92000000Y-106500000D03*
D20*
X85650000Y-108320000D03*
X90730000Y-108320000D03*
X88190000Y-108320000D03*
X93270000Y-108320000D03*
X85400000Y-86200000D03*
X98600000Y-105800000D03*
X98350000Y-108320000D03*
X95820000Y-108320000D03*
X89460000Y-106920000D03*
X94550000Y-106920000D03*
D10*
G36*
X82266299Y-85171107D02*
X81618893Y-85796299D01*
X80993701Y-85148893D01*
X81641107Y-84523701D01*
X82266299Y-85171107D01*
X82266299Y-85171107D01*
G37*
G36*
X87386771Y-82198953D02*
X86541047Y-82506771D01*
X86233229Y-81661047D01*
X87078953Y-81353229D01*
X87386771Y-82198953D01*
X87386771Y-82198953D01*
G37*
G36*
X86278017Y-82607660D02*
X85462340Y-82988017D01*
X85081983Y-82172340D01*
X85897660Y-81791983D01*
X86278017Y-82607660D01*
X86278017Y-82607660D01*
G37*
G36*
X85214711Y-83114711D02*
X84435289Y-83564711D01*
X83985289Y-82785289D01*
X84764711Y-82335289D01*
X85214711Y-83114711D01*
X85214711Y-83114711D01*
G37*
G36*
X80638561Y-86880446D02*
X80109554Y-87608561D01*
X79381439Y-87079554D01*
X79910446Y-86351439D01*
X80638561Y-86880446D01*
X80638561Y-86880446D01*
G37*
G36*
X81415524Y-85996694D02*
X80813306Y-86665524D01*
X80144476Y-86063306D01*
X80746694Y-85394476D01*
X81415524Y-85996694D01*
X81415524Y-85996694D01*
G37*
G36*
X84196728Y-83710509D02*
X83459491Y-84226728D01*
X82943272Y-83489491D01*
X83680509Y-82973272D01*
X84196728Y-83710509D01*
X84196728Y-83710509D01*
G37*
G36*
X78331989Y-91021022D02*
X78038978Y-91871989D01*
X77188011Y-91578978D01*
X77481022Y-90728011D01*
X78331989Y-91021022D01*
X78331989Y-91021022D01*
G37*
G36*
X78791706Y-89935727D02*
X78434273Y-90761706D01*
X77608294Y-90404273D01*
X77965727Y-89578294D01*
X78791706Y-89935727D01*
X78791706Y-89935727D01*
G37*
G36*
X79318589Y-88873936D02*
X78896064Y-89668589D01*
X78101411Y-89246064D01*
X78523936Y-88451411D01*
X79318589Y-88873936D01*
X79318589Y-88873936D01*
G37*
G36*
X77965498Y-92142232D02*
X77747768Y-93015498D01*
X76874502Y-92797768D01*
X77092232Y-91924502D01*
X77965498Y-92142232D01*
X77965498Y-92142232D01*
G37*
G36*
X81950324Y-100961360D02*
X82290381Y-101794643D01*
X81457098Y-102134700D01*
X81117041Y-101301417D01*
X81950324Y-100961360D01*
X81950324Y-100961360D01*
G37*
G36*
X81194643Y-99109619D02*
X81534700Y-99942902D01*
X80701417Y-100282959D01*
X80361360Y-99449676D01*
X81194643Y-99109619D01*
X81194643Y-99109619D01*
G37*
G36*
X79342902Y-99865300D02*
X79682959Y-100698583D01*
X78849676Y-101038640D01*
X78509619Y-100205357D01*
X79342902Y-99865300D01*
X79342902Y-99865300D01*
G37*
G36*
X80098583Y-101717041D02*
X80438640Y-102550324D01*
X79605357Y-102890381D01*
X79265300Y-102057098D01*
X80098583Y-101717041D01*
X80098583Y-101717041D01*
G37*
D21*
X89080000Y-82220000D03*
X89080000Y-83720000D03*
X91080000Y-83720000D03*
X91080000Y-82220000D03*
D10*
G36*
X99392043Y-85790683D02*
X99871224Y-86151772D01*
X99449953Y-86710817D01*
X98970772Y-86349728D01*
X99392043Y-85790683D01*
X99392043Y-85790683D01*
G37*
G36*
X98730047Y-86669183D02*
X99209228Y-87030272D01*
X98787957Y-87589317D01*
X98308776Y-87228228D01*
X98730047Y-86669183D01*
X98730047Y-86669183D01*
G37*
G36*
X98570690Y-84839527D02*
X98914836Y-84348036D01*
X99488242Y-84749539D01*
X99144096Y-85241030D01*
X98570690Y-84839527D01*
X98570690Y-84839527D01*
G37*
G36*
X99471758Y-85470461D02*
X99815904Y-84978970D01*
X100389310Y-85380473D01*
X100045164Y-85871964D01*
X99471758Y-85470461D01*
X99471758Y-85470461D01*
G37*
G36*
X77734593Y-99277657D02*
X77619080Y-98688882D01*
X78305985Y-98554117D01*
X78421498Y-99142892D01*
X77734593Y-99277657D01*
X77734593Y-99277657D01*
G37*
G36*
X78814015Y-99065883D02*
X78698502Y-98477108D01*
X79385407Y-98342343D01*
X79500920Y-98931118D01*
X78814015Y-99065883D01*
X78814015Y-99065883D01*
G37*
G36*
X79884593Y-98857657D02*
X79769080Y-98268882D01*
X80455985Y-98134117D01*
X80571498Y-98722892D01*
X79884593Y-98857657D01*
X79884593Y-98857657D01*
G37*
G36*
X80964015Y-98645883D02*
X80848502Y-98057108D01*
X81535407Y-97922343D01*
X81650920Y-98511118D01*
X80964015Y-98645883D01*
X80964015Y-98645883D01*
G37*
G36*
X85227781Y-105037487D02*
X85545733Y-104528658D01*
X86139367Y-104899601D01*
X85821415Y-105408430D01*
X85227781Y-105037487D01*
X85227781Y-105037487D01*
G37*
G36*
X86160633Y-105620399D02*
X86478585Y-105111570D01*
X87072219Y-105482513D01*
X86754267Y-105991342D01*
X86160633Y-105620399D01*
X86160633Y-105620399D01*
G37*
G36*
X100137724Y-84521305D02*
X100523397Y-84061678D01*
X101059628Y-84511629D01*
X100673955Y-84971256D01*
X100137724Y-84521305D01*
X100137724Y-84521305D01*
G37*
G36*
X100980372Y-85228371D02*
X101366045Y-84768744D01*
X101902276Y-85218695D01*
X101516603Y-85678322D01*
X100980372Y-85228371D01*
X100980372Y-85228371D01*
G37*
G36*
X97949808Y-86979423D02*
X97430192Y-86679423D01*
X97780192Y-86073205D01*
X98299808Y-86373205D01*
X97949808Y-86979423D01*
X97949808Y-86979423D01*
G37*
G36*
X98499808Y-86026795D02*
X97980192Y-85726795D01*
X98330192Y-85120577D01*
X98849808Y-85420577D01*
X98499808Y-86026795D01*
X98499808Y-86026795D01*
G37*
D22*
X93510000Y-84370000D03*
X92410000Y-84370000D03*
D10*
G36*
X84597781Y-105967487D02*
X84915733Y-105458658D01*
X85509367Y-105829601D01*
X85191415Y-106338430D01*
X84597781Y-105967487D01*
X84597781Y-105967487D01*
G37*
G36*
X85530633Y-106550399D02*
X85848585Y-106041570D01*
X86442219Y-106412513D01*
X86124267Y-106921342D01*
X85530633Y-106550399D01*
X85530633Y-106550399D01*
G37*
G36*
X79397781Y-88587487D02*
X79715733Y-88078658D01*
X80309367Y-88449601D01*
X79991415Y-88958430D01*
X79397781Y-88587487D01*
X79397781Y-88587487D01*
G37*
G36*
X80330633Y-89170399D02*
X80648585Y-88661570D01*
X81242219Y-89032513D01*
X80924267Y-89541342D01*
X80330633Y-89170399D01*
X80330633Y-89170399D01*
G37*
G36*
X100894392Y-85647182D02*
X101333205Y-86056381D01*
X100855806Y-86568328D01*
X100416993Y-86159129D01*
X100894392Y-85647182D01*
X100894392Y-85647182D01*
G37*
G36*
X100144194Y-86451672D02*
X100583007Y-86860871D01*
X100105608Y-87372818D01*
X99666795Y-86963619D01*
X100144194Y-86451672D01*
X100144194Y-86451672D01*
G37*
G36*
X81665164Y-102738036D02*
X82009310Y-103229527D01*
X81435904Y-103631030D01*
X81091758Y-103139539D01*
X81665164Y-102738036D01*
X81665164Y-102738036D01*
G37*
G36*
X80764096Y-103368970D02*
X81108242Y-103860461D01*
X80534836Y-104261964D01*
X80190690Y-103770473D01*
X80764096Y-103368970D01*
X80764096Y-103368970D01*
G37*
G36*
X82932219Y-90432513D02*
X82614267Y-90941342D01*
X82020633Y-90570399D01*
X82338585Y-90061570D01*
X82932219Y-90432513D01*
X82932219Y-90432513D01*
G37*
G36*
X81999367Y-89849601D02*
X81681415Y-90358430D01*
X81087781Y-89987487D01*
X81405733Y-89478658D01*
X81999367Y-89849601D01*
X81999367Y-89849601D01*
G37*
G36*
X79573021Y-93196841D02*
X79728313Y-92617286D01*
X80404461Y-92798459D01*
X80249169Y-93378014D01*
X79573021Y-93196841D01*
X79573021Y-93196841D01*
G37*
G36*
X80635539Y-93481541D02*
X80790831Y-92901986D01*
X81466979Y-93083159D01*
X81311687Y-93662714D01*
X80635539Y-93481541D01*
X80635539Y-93481541D01*
G37*
G36*
X85018376Y-84058015D02*
X85353892Y-84555438D01*
X84773566Y-84946873D01*
X84438050Y-84449450D01*
X85018376Y-84058015D01*
X85018376Y-84058015D01*
G37*
G36*
X84106434Y-84673127D02*
X84441950Y-85170550D01*
X83861624Y-85561985D01*
X83526108Y-85064562D01*
X84106434Y-84673127D01*
X84106434Y-84673127D01*
G37*
G36*
X90646222Y-84523784D02*
X90760707Y-85112760D01*
X90073568Y-85246326D01*
X89959083Y-84657350D01*
X90646222Y-84523784D01*
X90646222Y-84523784D01*
G37*
G36*
X89566432Y-84733674D02*
X89680917Y-85322650D01*
X88993778Y-85456216D01*
X88879293Y-84867240D01*
X89566432Y-84733674D01*
X89566432Y-84733674D01*
G37*
G36*
X98260577Y-83379808D02*
X98560577Y-82860192D01*
X99166795Y-83210192D01*
X98866795Y-83729808D01*
X98260577Y-83379808D01*
X98260577Y-83379808D01*
G37*
G36*
X99213205Y-83929808D02*
X99513205Y-83410192D01*
X100119423Y-83760192D01*
X99819423Y-84279808D01*
X99213205Y-83929808D01*
X99213205Y-83929808D01*
G37*
D23*
X96500000Y-106200000D03*
X100400000Y-88900000D03*
D24*
G36*
X97116259Y-83306641D02*
X96393323Y-85666221D01*
X94023741Y-84953338D01*
X94746677Y-82603799D01*
X97116259Y-83306641D01*
X97116259Y-83306641D01*
G37*
X97116259Y-83306641D02*
X96393323Y-85666221D01*
X94023741Y-84953338D01*
X94746677Y-82603799D01*
X97116259Y-83306641D01*
G36*
X79176129Y-92296474D02*
X78933526Y-93196129D01*
X78033871Y-92953526D01*
X78276474Y-92053871D01*
X79176129Y-92296474D01*
X79176129Y-92296474D01*
G37*
X79176129Y-92296474D02*
X78933526Y-93196129D01*
X78033871Y-92953526D01*
X78276474Y-92053871D01*
X79176129Y-92296474D01*
M02*
