G04 #@! TF.FileFunction,Profile,NP*
%FSLAX46Y46*%
G04 Gerber Fmt 4.6, Leading zero omitted, Abs format (unit mm)*
G04 Created by KiCad (PCBNEW 0.201503110816+5502~22~ubuntu14.04.1-product) date ថ្ងៃ​អង្គារ ថ្ងៃ 31 ខែ មិនា ឆ្នាំ  2015, 09 ម៉ោង m នាទី 59 វិនាទី​*
%MOMM*%
G01*
G04 APERTURE LIST*
%ADD10C,0.020000*%
%ADD11C,0.050000*%
G04 APERTURE END LIST*
D10*
D11*
X99420000Y-100970000D02*
X101250000Y-100000000D01*
X99150000Y-103150000D02*
X99420000Y-100970000D01*
X84550000Y-100910000D02*
X84850000Y-103150000D01*
X82700000Y-99950000D02*
X84550000Y-100910000D01*
X92000000Y-87070000D02*
X94000000Y-86100000D01*
X90000000Y-86100000D02*
X92000000Y-87070000D01*
X93000000Y-106460000D02*
X93350000Y-106410000D01*
X90640000Y-106410000D02*
X91000000Y-106460000D01*
X90360000Y-106060000D02*
X90370000Y-106100000D01*
X90340000Y-106020000D02*
X90360000Y-106060000D01*
X90300000Y-105980000D02*
X90340000Y-106020000D01*
X90260000Y-105960000D02*
X90300000Y-105980000D01*
X90370000Y-106100000D02*
X90390000Y-106170000D01*
X90600000Y-106400000D02*
X90640000Y-106410000D01*
X90520000Y-106360000D02*
X90600000Y-106400000D01*
X90460000Y-106300000D02*
X90520000Y-106360000D01*
X90420000Y-106240000D02*
X90460000Y-106300000D01*
X90390000Y-106170000D02*
X90420000Y-106240000D01*
X93430000Y-106390000D02*
X93350000Y-106410000D01*
X93510000Y-106340000D02*
X93430000Y-106390000D01*
X93570000Y-106260000D02*
X93510000Y-106340000D01*
X93620000Y-106140000D02*
X93570000Y-106260000D01*
X93750000Y-105960000D02*
X94000000Y-105900000D01*
X93690000Y-106000000D02*
X93750000Y-105960000D01*
X93650000Y-106040000D02*
X93690000Y-106000000D01*
X93620000Y-106120000D02*
X93650000Y-106040000D01*
X91000000Y-106460000D02*
X93000000Y-106460000D01*
X90000000Y-105900000D02*
X90260000Y-105960000D01*
X99150000Y-103150000D02*
X98300000Y-103900000D01*
X101400000Y-99700000D02*
X101250000Y-100000000D01*
X84850000Y-103150000D02*
X85000000Y-103300000D01*
X82600000Y-99700000D02*
X82700000Y-99950000D01*
X96400000Y-86900000D02*
X95700000Y-86600000D01*
X97300000Y-87400000D02*
X96400000Y-86900000D01*
X98300000Y-88100000D02*
X97300000Y-87400000D01*
X99100000Y-88800000D02*
X98300000Y-88100000D01*
X99900000Y-89700000D02*
X99100000Y-88800000D01*
X100600000Y-90700000D02*
X99900000Y-89700000D01*
X101200000Y-91800000D02*
X100600000Y-90700000D01*
X101700000Y-93100000D02*
X101200000Y-91800000D01*
X102000000Y-94500000D02*
X101700000Y-93100000D01*
X102100000Y-95600000D02*
X102000000Y-94500000D01*
X102100000Y-96500000D02*
X102100000Y-95600000D01*
X102000000Y-97500000D02*
X102100000Y-96500000D01*
X101700000Y-98800000D02*
X102000000Y-97500000D01*
X101400000Y-99700000D02*
X101700000Y-98800000D01*
X97300000Y-104600000D02*
X98300000Y-103900000D01*
X96000000Y-105300000D02*
X97300000Y-104600000D01*
X94800000Y-105700000D02*
X96000000Y-105300000D01*
X94000000Y-105900000D02*
X94800000Y-105700000D01*
X88900000Y-105600000D02*
X90000000Y-105900000D01*
X87600000Y-105100000D02*
X88900000Y-105600000D01*
X86700000Y-104600000D02*
X87600000Y-105100000D01*
X85800000Y-104000000D02*
X86700000Y-104600000D01*
X85000000Y-103300000D02*
X85800000Y-104000000D01*
X82200000Y-98500000D02*
X82600000Y-99700000D01*
X82000000Y-97400000D02*
X82200000Y-98500000D01*
X81900000Y-96400000D02*
X82000000Y-97400000D01*
X81900000Y-95600000D02*
X81900000Y-96400000D01*
X82000000Y-94600000D02*
X81900000Y-95600000D01*
X82100000Y-94000000D02*
X82000000Y-94600000D01*
X82300000Y-93200000D02*
X82100000Y-94000000D01*
X82600000Y-92300000D02*
X82300000Y-93200000D01*
X82900000Y-91600000D02*
X82600000Y-92300000D01*
X83100000Y-91200000D02*
X82900000Y-91600000D01*
X83600000Y-90400000D02*
X83100000Y-91200000D01*
X84100000Y-89700000D02*
X83600000Y-90400000D01*
X84900000Y-88800000D02*
X84100000Y-89700000D01*
X85700000Y-88100000D02*
X84900000Y-88800000D01*
X86400000Y-87600000D02*
X85700000Y-88100000D01*
X87200000Y-87100000D02*
X86400000Y-87600000D01*
X88300000Y-86600000D02*
X87200000Y-87100000D01*
X89200000Y-86300000D02*
X88300000Y-86600000D01*
X90000000Y-86100000D02*
X89200000Y-86300000D01*
X94800000Y-86300000D02*
X94000000Y-86100000D01*
X95700000Y-86600000D02*
X94800000Y-86300000D01*
X107000000Y-96000000D02*
G75*
G03X107000000Y-96000000I-15000000J0D01*
G01*
M02*
