G04 #@! TF.FileFunction,Soldermask,Bot*
%FSLAX46Y46*%
G04 Gerber Fmt 4.6, Leading zero omitted, Abs format (unit mm)*
G04 Created by KiCad (PCBNEW 0.201503110816+5502~22~ubuntu14.04.1-product) date ថ្ងៃ​អាទិត្យ ថ្ងៃ 29 ខែ មិនា ឆ្នាំ  2015, 13 ម៉ោង m នាទី 44 វិនាទី​*
%MOMM*%
G01*
G04 APERTURE LIST*
%ADD10C,0.020000*%
%ADD11C,1.700000*%
%ADD12O,5.500000X1.700000*%
%ADD13O,2.500000X1.700000*%
%ADD14C,1.400000*%
G04 APERTURE END LIST*
D10*
D11*
X100845913Y-99563789D02*
X98754087Y-102736211D01*
D12*
X92000000Y-86650000D03*
D11*
X85243143Y-102738034D02*
X83156857Y-99561966D01*
D13*
X92000000Y-106500000D03*
D14*
X85650000Y-108320000D03*
X90730000Y-108320000D03*
X88190000Y-108320000D03*
X93270000Y-108320000D03*
X85400000Y-86200000D03*
X98600000Y-105800000D03*
X98350000Y-108320000D03*
X95820000Y-108320000D03*
X89460000Y-106920000D03*
X94550000Y-106920000D03*
D10*
G36*
X82266299Y-85171107D02*
X81618893Y-85796299D01*
X80993701Y-85148893D01*
X81641107Y-84523701D01*
X82266299Y-85171107D01*
X82266299Y-85171107D01*
G37*
G36*
X87386771Y-82198953D02*
X86541047Y-82506771D01*
X86233229Y-81661047D01*
X87078953Y-81353229D01*
X87386771Y-82198953D01*
X87386771Y-82198953D01*
G37*
G36*
X86278017Y-82607660D02*
X85462340Y-82988017D01*
X85081983Y-82172340D01*
X85897660Y-81791983D01*
X86278017Y-82607660D01*
X86278017Y-82607660D01*
G37*
G36*
X85214711Y-83114711D02*
X84435289Y-83564711D01*
X83985289Y-82785289D01*
X84764711Y-82335289D01*
X85214711Y-83114711D01*
X85214711Y-83114711D01*
G37*
G36*
X80638561Y-86880446D02*
X80109554Y-87608561D01*
X79381439Y-87079554D01*
X79910446Y-86351439D01*
X80638561Y-86880446D01*
X80638561Y-86880446D01*
G37*
G36*
X81415524Y-85996694D02*
X80813306Y-86665524D01*
X80144476Y-86063306D01*
X80746694Y-85394476D01*
X81415524Y-85996694D01*
X81415524Y-85996694D01*
G37*
G36*
X84196728Y-83710509D02*
X83459491Y-84226728D01*
X82943272Y-83489491D01*
X83680509Y-82973272D01*
X84196728Y-83710509D01*
X84196728Y-83710509D01*
G37*
G36*
X78331989Y-91021022D02*
X78038978Y-91871989D01*
X77188011Y-91578978D01*
X77481022Y-90728011D01*
X78331989Y-91021022D01*
X78331989Y-91021022D01*
G37*
G36*
X78791706Y-89935727D02*
X78434273Y-90761706D01*
X77608294Y-90404273D01*
X77965727Y-89578294D01*
X78791706Y-89935727D01*
X78791706Y-89935727D01*
G37*
G36*
X79318589Y-88873936D02*
X78896064Y-89668589D01*
X78101411Y-89246064D01*
X78523936Y-88451411D01*
X79318589Y-88873936D01*
X79318589Y-88873936D01*
G37*
G36*
X77965498Y-92142232D02*
X77747768Y-93015498D01*
X76874502Y-92797768D01*
X77092232Y-91924502D01*
X77965498Y-92142232D01*
X77965498Y-92142232D01*
G37*
M02*
