G04 #@! TF.FileFunction,Copper,L2,Inr,Signal*
%FSLAX46Y46*%
G04 Gerber Fmt 4.6, Leading zero omitted, Abs format (unit mm)*
G04 Created by KiCad (PCBNEW 0.201503110816+5502~22~ubuntu14.04.1-product) date ថ្ងៃ​អាទិត្យ ថ្ងៃ 29 ខែ មិនា ឆ្នាំ  2015, 13 ម៉ោង m នាទី 44 វិនាទី​*
%MOMM*%
G01*
G04 APERTURE LIST*
%ADD10C,0.020000*%
%ADD11C,1.600000*%
%ADD12O,5.400000X1.600000*%
%ADD13O,2.400000X1.600000*%
%ADD14C,1.300000*%
%ADD15C,0.250000*%
%ADD16C,0.500000*%
%ADD17C,0.100000*%
%ADD18C,0.150000*%
%ADD19C,0.500000*%
%ADD20C,0.200000*%
%ADD21C,0.400000*%
G04 APERTURE END LIST*
D10*
D11*
X100845913Y-99563789D02*
X98754087Y-102736211D01*
D12*
X92000000Y-86650000D03*
D11*
X85243143Y-102738034D02*
X83156857Y-99561966D01*
D13*
X92000000Y-106500000D03*
D14*
X85650000Y-108320000D03*
X90730000Y-108320000D03*
X88190000Y-108320000D03*
X93270000Y-108320000D03*
X85400000Y-86200000D03*
X98600000Y-105800000D03*
X98350000Y-108320000D03*
X95820000Y-108320000D03*
X89460000Y-106920000D03*
X94550000Y-106920000D03*
D10*
G36*
X82195599Y-85169873D02*
X81620127Y-85725599D01*
X81064401Y-85150127D01*
X81639873Y-84594401D01*
X82195599Y-85169873D01*
X82195599Y-85169873D01*
G37*
G36*
X87322685Y-82169069D02*
X86570931Y-82442685D01*
X86297315Y-81690931D01*
X87049069Y-81417315D01*
X87322685Y-82169069D01*
X87322685Y-82169069D01*
G37*
G36*
X86211570Y-82583476D02*
X85486524Y-82921570D01*
X85148430Y-82196524D01*
X85873476Y-81858430D01*
X86211570Y-82583476D01*
X86211570Y-82583476D01*
G37*
G36*
X85146410Y-83096410D02*
X84453590Y-83496410D01*
X84053590Y-82803590D01*
X84746410Y-82403590D01*
X85146410Y-83096410D01*
X85146410Y-83096410D01*
G37*
G36*
X80568721Y-86891507D02*
X80098493Y-87538721D01*
X79451279Y-87068493D01*
X79921507Y-86421279D01*
X80568721Y-86891507D01*
X80568721Y-86891507D01*
G37*
G36*
X81344910Y-86000394D02*
X80809606Y-86594910D01*
X80215090Y-86059606D01*
X80750394Y-85465090D01*
X81344910Y-86000394D01*
X81344910Y-86000394D01*
G37*
G36*
X84127091Y-83698230D02*
X83471770Y-84157091D01*
X83012909Y-83501770D01*
X83668230Y-83042909D01*
X84127091Y-83698230D01*
X84127091Y-83698230D01*
G37*
G36*
X78268435Y-91052020D02*
X78007980Y-91808435D01*
X77251565Y-91547980D01*
X77512020Y-90791565D01*
X78268435Y-91052020D01*
X78268435Y-91052020D01*
G37*
G36*
X78725961Y-89961757D02*
X78408243Y-90695961D01*
X77674039Y-90378243D01*
X77991757Y-89644039D01*
X78725961Y-89961757D01*
X78725961Y-89961757D01*
G37*
G36*
X79250968Y-88894610D02*
X78875390Y-89600968D01*
X78169032Y-89225390D01*
X78544610Y-88519032D01*
X79250968Y-88894610D01*
X79250968Y-88894610D01*
G37*
G36*
X77904887Y-92178650D02*
X77711350Y-92954887D01*
X76935113Y-92761350D01*
X77128650Y-91985113D01*
X77904887Y-92178650D01*
X77904887Y-92178650D01*
G37*
D15*
X87900467Y-82552931D03*
X88029584Y-82926690D03*
X88162853Y-83312469D03*
X85986426Y-106481456D03*
D16*
X91990000Y-83360000D03*
D15*
X90250000Y-82930000D03*
X90250000Y-83390000D03*
X90250000Y-83890000D03*
X90201626Y-84338869D03*
X89818019Y-84409197D03*
X89530505Y-84651581D03*
X88951866Y-84788004D03*
X88714075Y-84565642D03*
X88344046Y-84068497D03*
X88212878Y-83715217D03*
D16*
X88030000Y-82150000D03*
X93060000Y-83590000D03*
X97410000Y-83270000D03*
D15*
X89080000Y-83720000D03*
X91080000Y-82220000D03*
D16*
X90310000Y-82230000D03*
D15*
X96584779Y-84231111D03*
X79500000Y-96000000D03*
X79500000Y-97450000D03*
X83984029Y-85117556D03*
X89280105Y-85094945D03*
X84230685Y-104631495D03*
X83810887Y-104202811D03*
X82069315Y-105068505D03*
X80649466Y-103815467D03*
X79851970Y-102303711D03*
X86003296Y-83716042D03*
X81351973Y-87204899D03*
X78751421Y-92854949D03*
X81570013Y-91090750D03*
X81311867Y-91687290D03*
X82514715Y-89344533D03*
X81543574Y-89918544D03*
X80786426Y-89101456D03*
D16*
X94740000Y-82360000D03*
X98630000Y-86340000D03*
X97940000Y-85040000D03*
D15*
X96085309Y-84496684D03*
X97865000Y-86526314D03*
X95819735Y-83997213D03*
X83894732Y-87084986D03*
X82785285Y-86075467D03*
D16*
X98660000Y-84080000D03*
D15*
X78854949Y-92468579D03*
X84895971Y-84502444D03*
X86610000Y-84050000D03*
D16*
X82270000Y-102630000D03*
X84780000Y-105100000D03*
X83050000Y-87390000D03*
X80090000Y-93730000D03*
D15*
X87480000Y-106090000D03*
X85710000Y-104850000D03*
D16*
X99120000Y-87930000D03*
X86980000Y-85250000D03*
X82210000Y-88190000D03*
X96020000Y-86070000D03*
D15*
X87870000Y-83950000D03*
X83524916Y-86748480D03*
X95968360Y-84879206D03*
D16*
X97570000Y-85600000D03*
D15*
X85820000Y-84490000D03*
X82920000Y-86840000D03*
D16*
X96970000Y-86020000D03*
D15*
X95585838Y-84762257D03*
X86650000Y-82830000D03*
D16*
X95380000Y-85830000D03*
X80440000Y-89870000D03*
X88220000Y-84800000D03*
X94750000Y-85630000D03*
X82760000Y-88540000D03*
D15*
X86947898Y-86030719D03*
X83290000Y-88960000D03*
D16*
X94130000Y-85420000D03*
X84920000Y-87210000D03*
D15*
X79568133Y-90932710D03*
D16*
X81290000Y-90530000D03*
X84250000Y-105970000D03*
D15*
X94820794Y-84528360D03*
D16*
X93500000Y-85150000D03*
D15*
X80090000Y-99360000D03*
X80170000Y-98500000D03*
X79010000Y-89920000D03*
D16*
X81510000Y-92730000D03*
D15*
X95171640Y-83380794D03*
D16*
X91110000Y-85000000D03*
X81840000Y-100390000D03*
X83470000Y-103050000D03*
D15*
X82288470Y-104399012D03*
D16*
X81130000Y-97580000D03*
D15*
X80948030Y-99696289D03*
X80040000Y-97950000D03*
D16*
X81960000Y-91600000D03*
D15*
X95554162Y-83497743D03*
D16*
X92550000Y-85020000D03*
X83134786Y-104823552D03*
X95630000Y-82560000D03*
X96260000Y-82730000D03*
D15*
X87810000Y-105800000D03*
X90870000Y-109960000D03*
D16*
X91770000Y-85000000D03*
D15*
X95054691Y-83763316D03*
D16*
X92440000Y-109550000D03*
X99810000Y-87700000D03*
X88220000Y-106560000D03*
D15*
X95203316Y-84645309D03*
D16*
X97990000Y-82900000D03*
X93210000Y-82150000D03*
D17*
X78751421Y-92854949D02*
X78670000Y-93200000D01*
X78670000Y-93200000D02*
X78500000Y-93300000D01*
X78500000Y-93300000D02*
X77780000Y-93100000D01*
X77780000Y-93100000D02*
X77420000Y-92470000D01*
D18*
X87900467Y-82552931D02*
X87900000Y-82550000D01*
X88029584Y-82926690D02*
X88030000Y-82930000D01*
X88162853Y-83312469D02*
X88160000Y-83310000D01*
D17*
X85986426Y-106481456D02*
X85980000Y-106480000D01*
D18*
X91990161Y-81516383D02*
X91990000Y-83360000D01*
X90201626Y-84338869D02*
X90200000Y-84340000D01*
X89818019Y-84409197D02*
X89820000Y-84410000D01*
X89530505Y-84651581D02*
X89530000Y-84650000D01*
X88951866Y-84788004D02*
X88950000Y-84790000D01*
X88714075Y-84565642D02*
X88710000Y-84570000D01*
X88344046Y-84068497D02*
X88350000Y-84070000D01*
X88212878Y-83715217D02*
X88210000Y-83710000D01*
X94750000Y-82940000D02*
X95650000Y-83090000D01*
X93670000Y-82760000D02*
X93240000Y-83160000D01*
X93240000Y-83160000D02*
X93210000Y-83380000D01*
X93210000Y-83380000D02*
X93060000Y-83590000D01*
X93828577Y-81599687D02*
X94190000Y-81630000D01*
X92640000Y-81500000D02*
X93828577Y-81599687D01*
X92478843Y-81504063D02*
X92640000Y-81500000D01*
X91450000Y-81530000D02*
X91990161Y-81516383D01*
X91990161Y-81516383D02*
X92478843Y-81504063D01*
X90100000Y-81590000D02*
X91450000Y-81530000D01*
X89080000Y-81720000D02*
X90100000Y-81590000D01*
X88220000Y-81920000D02*
X89080000Y-81720000D01*
X88030000Y-82150000D02*
X88220000Y-81920000D01*
X95220000Y-81850000D02*
X95600000Y-81950000D01*
X94190000Y-81630000D02*
X95220000Y-81850000D01*
X93704054Y-82765676D02*
X93670000Y-82760000D01*
X94750000Y-82940000D02*
X93704054Y-82765676D01*
X97410000Y-83270000D02*
X97460000Y-82670000D01*
X97430000Y-82550000D02*
X97460000Y-82670000D01*
X96910000Y-82340000D02*
X97430000Y-82550000D01*
X96565672Y-82225224D02*
X96910000Y-82340000D01*
X96460000Y-82190000D02*
X96565672Y-82225224D01*
X95600000Y-81950000D02*
X96460000Y-82190000D01*
X96390000Y-83290000D02*
X97410000Y-83270000D01*
X96380681Y-83287481D02*
X96390000Y-83290000D01*
X95650000Y-83090000D02*
X96380681Y-83287481D01*
D17*
X96584779Y-84231111D02*
X96580000Y-84230000D01*
X83984029Y-85117556D02*
X83990000Y-85120000D01*
X89280105Y-85094945D02*
X89280000Y-85090000D01*
X84230685Y-104631495D02*
X84230000Y-104630000D01*
X83810887Y-104202811D02*
X83810000Y-104200000D01*
X82069315Y-105068505D02*
X82070000Y-105060000D01*
X80649466Y-103815467D02*
X80650000Y-103820000D01*
X79851970Y-102303711D02*
X79850000Y-102300000D01*
X86003296Y-83716042D02*
X86000000Y-83720000D01*
X81351973Y-87204899D02*
X81350000Y-87200000D01*
X78751421Y-92854949D02*
X78750000Y-92850000D01*
X81570013Y-91090750D02*
X81570000Y-91090000D01*
X81311867Y-91687290D02*
X81310000Y-91690000D01*
X82514715Y-89344533D02*
X82510000Y-89350000D01*
X81543574Y-89918544D02*
X81540000Y-89920000D01*
X80786426Y-89101456D02*
X80790000Y-89100000D01*
D19*
X93270000Y-108320000D02*
X91790000Y-108310000D01*
D20*
X96085309Y-84496684D02*
X96080000Y-84500000D01*
D17*
X97865000Y-86526314D02*
X97870000Y-86530000D01*
X95819735Y-83997213D02*
X95820000Y-84000000D01*
X83894732Y-87084986D02*
X83900000Y-87090000D01*
X82785285Y-86075467D02*
X82780000Y-86080000D01*
D21*
X86740000Y-106960000D02*
X85986426Y-106481456D01*
X87070000Y-107830000D02*
X86740000Y-106960000D01*
X86750000Y-108680000D02*
X87070000Y-107830000D01*
X87210000Y-109420000D02*
X86750000Y-108680000D01*
X88850000Y-109870000D02*
X87210000Y-109420000D01*
X89510000Y-109280000D02*
X88850000Y-109870000D01*
X90350000Y-109370000D02*
X89510000Y-109280000D01*
X91350000Y-109410000D02*
X90350000Y-109370000D01*
X91770000Y-109000000D02*
X91350000Y-109410000D01*
X91798603Y-108310058D02*
X91770000Y-109000000D01*
X91750000Y-107500000D02*
X91798603Y-108310058D01*
D19*
X92000000Y-106500000D02*
X91750000Y-107500000D01*
D17*
X78854949Y-92468579D02*
X78890000Y-92250000D01*
X78710000Y-89060000D02*
X79160000Y-89280000D01*
X79160000Y-89280000D02*
X79420000Y-89790000D01*
X79420000Y-89790000D02*
X79000000Y-90790000D01*
X79000000Y-90790000D02*
X78670000Y-91750000D01*
X78670000Y-91750000D02*
X78890000Y-92250000D01*
X84895971Y-84502444D02*
X85630000Y-84100000D01*
X85630000Y-84100000D02*
X85730000Y-84040000D01*
X85730000Y-84040000D02*
X86230000Y-84220000D01*
X86230000Y-84220000D02*
X86610000Y-84050000D01*
X87480000Y-106090000D02*
X87450000Y-105890000D01*
X87450000Y-105890000D02*
X86220000Y-105190000D01*
X86220000Y-105190000D02*
X85710000Y-104850000D01*
X87360000Y-84140000D02*
X87870000Y-83950000D01*
X86170000Y-84710000D02*
X87360000Y-84140000D01*
X85070000Y-85360000D02*
X86170000Y-84710000D01*
X84350000Y-85950000D02*
X85070000Y-85360000D01*
X83524916Y-86748480D02*
X84350000Y-85950000D01*
X97570000Y-85600000D02*
X97410000Y-85550000D01*
X96740000Y-85220000D02*
X97410000Y-85550000D01*
X95968360Y-84879206D02*
X96740000Y-85220000D01*
X85880000Y-84590000D02*
X85820000Y-84490000D01*
X83000000Y-86750000D02*
X83570000Y-86170000D01*
X83570000Y-86170000D02*
X83740000Y-86170000D01*
X83740000Y-86170000D02*
X84250000Y-85680000D01*
X84250000Y-85680000D02*
X84880000Y-85170000D01*
X84880000Y-85170000D02*
X85640000Y-84720000D01*
X85640000Y-84720000D02*
X85880000Y-84590000D01*
X82920000Y-86840000D02*
X83000000Y-86750000D01*
X95585838Y-84762257D02*
X95520000Y-84990000D01*
X95520000Y-84990000D02*
X95590000Y-85120000D01*
X95590000Y-85120000D02*
X96100000Y-85290000D01*
X96100000Y-85290000D02*
X96430000Y-85430000D01*
X96430000Y-85430000D02*
X96540000Y-85470000D01*
X96540000Y-85470000D02*
X96650000Y-85520000D01*
X96970000Y-86020000D02*
X96650000Y-85520000D01*
X86650000Y-82830000D02*
X85950000Y-83130000D01*
X85950000Y-83130000D02*
X85490000Y-83360000D01*
X85490000Y-83360000D02*
X85180000Y-83270000D01*
X85180000Y-83270000D02*
X85110000Y-83150000D01*
X85110000Y-83150000D02*
X84600000Y-82950000D01*
X86947898Y-86030719D02*
X86800000Y-86530000D01*
X86800000Y-86530000D02*
X86000000Y-86990000D01*
X86000000Y-86990000D02*
X85010000Y-87770000D01*
X85010000Y-87770000D02*
X84020000Y-88730000D01*
X84020000Y-88730000D02*
X83680000Y-89120000D01*
X83680000Y-89120000D02*
X83390000Y-89090000D01*
X83390000Y-89090000D02*
X83290000Y-88960000D01*
X79568133Y-90932710D02*
X80360000Y-91270000D01*
X80360000Y-91270000D02*
X81000000Y-91080000D01*
X81000000Y-91080000D02*
X81290000Y-90530000D01*
X93500000Y-85150000D02*
X93630000Y-84940000D01*
X94280000Y-84350000D02*
X93630000Y-84940000D01*
X94820794Y-84528360D02*
X94280000Y-84350000D01*
X80090000Y-99360000D02*
X79960000Y-98680000D01*
X79960000Y-98680000D02*
X80170000Y-98500000D01*
X79010000Y-89920000D02*
X78620000Y-90780000D01*
X78620000Y-90780000D02*
X78500000Y-91050000D01*
X78500000Y-91050000D02*
X77760000Y-91300000D01*
X91110000Y-85000000D02*
X91460000Y-84560000D01*
X92010000Y-84540000D02*
X91460000Y-84560000D01*
X92340000Y-84040000D02*
X92010000Y-84540000D01*
X92600000Y-84040000D02*
X92340000Y-84040000D01*
X93360000Y-84090000D02*
X92600000Y-84040000D01*
X93470000Y-83990000D02*
X93360000Y-84090000D01*
X93560000Y-83330000D02*
X93470000Y-83990000D01*
X93830000Y-83100000D02*
X93560000Y-83330000D01*
X94400000Y-83180000D02*
X93830000Y-83100000D01*
X95171640Y-83380794D02*
X94400000Y-83180000D01*
X83360000Y-103450000D02*
X82288470Y-104399012D01*
X83360000Y-103450000D02*
X83470000Y-103050000D01*
X81130000Y-97580000D02*
X80593208Y-98342243D01*
X80593208Y-98342243D02*
X80593208Y-98342242D01*
X80948030Y-99696289D02*
X80593208Y-98342242D01*
X80593208Y-98342242D02*
X80590000Y-98330000D01*
X80590000Y-98330000D02*
X80040000Y-97950000D01*
X95554162Y-83497743D02*
X95390000Y-84000000D01*
X95390000Y-84000000D02*
X95100000Y-84150000D01*
X95100000Y-84150000D02*
X94460000Y-83990000D01*
X94460000Y-83990000D02*
X94080000Y-83930000D01*
X94080000Y-83930000D02*
X94010000Y-83970000D01*
X94010000Y-83970000D02*
X93950000Y-84250000D01*
X93950000Y-84250000D02*
X93940000Y-84270000D01*
X93940000Y-84270000D02*
X93490000Y-84690000D01*
X93490000Y-84690000D02*
X92760000Y-84620000D01*
X92550000Y-85020000D02*
X92760000Y-84620000D01*
X81470000Y-95860000D02*
X81590000Y-97570000D01*
X81590000Y-97570000D02*
X81910000Y-99080000D01*
X86630000Y-105090000D02*
X87810000Y-105800000D01*
X90870000Y-109960000D02*
X92480000Y-110020000D01*
X92480000Y-110020000D02*
X94110000Y-109850000D01*
X94110000Y-109850000D02*
X95270000Y-109630000D01*
X95270000Y-109630000D02*
X95820000Y-108320000D01*
X91770000Y-85000000D02*
X91440000Y-85460000D01*
X91440000Y-85460000D02*
X90540000Y-85540000D01*
X90540000Y-85540000D02*
X89830000Y-85660000D01*
X89830000Y-85660000D02*
X88720000Y-85970000D01*
X88720000Y-85970000D02*
X87260000Y-86610000D01*
X87260000Y-86610000D02*
X85950000Y-87370000D01*
X85950000Y-87370000D02*
X84700000Y-88430000D01*
X84700000Y-88430000D02*
X83820000Y-89410000D01*
X83820000Y-89410000D02*
X82920000Y-90610000D01*
X82920000Y-90610000D02*
X82290000Y-91970000D01*
X82290000Y-91970000D02*
X81830000Y-93220000D01*
X81830000Y-93220000D02*
X81520000Y-94910000D01*
X81520000Y-94910000D02*
X81470000Y-95860000D01*
X81910000Y-99080000D02*
X82240000Y-100090000D01*
X82240000Y-100090000D02*
X82820000Y-101240000D01*
X82820000Y-101240000D02*
X84000000Y-102920000D01*
X84000000Y-102920000D02*
X84920000Y-103910000D01*
X84920000Y-103910000D02*
X86630000Y-105090000D01*
X94460000Y-83580000D02*
X95054691Y-83763316D01*
X94460000Y-83580000D02*
X93950000Y-83500000D01*
X93950000Y-83500000D02*
X93790000Y-83630000D01*
X93790000Y-83630000D02*
X93720000Y-84120000D01*
X93720000Y-84120000D02*
X93440000Y-84380000D01*
X93440000Y-84380000D02*
X92480000Y-84300000D01*
X92480000Y-84300000D02*
X92050000Y-84960000D01*
X92050000Y-84960000D02*
X91780000Y-84960000D01*
X91770000Y-85000000D02*
X91780000Y-84960000D01*
X97950000Y-87200000D02*
X98500000Y-87600000D01*
X98500000Y-87600000D02*
X99380000Y-87350000D01*
X99380000Y-87350000D02*
X99810000Y-87700000D01*
X97260000Y-86760000D02*
X97950000Y-87200000D01*
X96550000Y-86380000D02*
X97260000Y-86760000D01*
X96450000Y-85720000D02*
X96550000Y-86380000D01*
X95380000Y-85320000D02*
X96450000Y-85720000D01*
X95370000Y-85300000D02*
X95380000Y-85320000D01*
X95140000Y-84840000D02*
X95370000Y-85300000D01*
X95140000Y-84840000D02*
X95203316Y-84645309D01*
G36*
X100203387Y-83922147D02*
X98104872Y-87003509D01*
X98097043Y-86997816D01*
X98091946Y-86994822D01*
X98087347Y-86991108D01*
X98084416Y-86989211D01*
X97394416Y-86549211D01*
X97387468Y-86545682D01*
X97381036Y-86541252D01*
X97377969Y-86539584D01*
X97166569Y-86426440D01*
X97173876Y-86423607D01*
X97248388Y-86376320D01*
X97312296Y-86315462D01*
X97363166Y-86243349D01*
X97399060Y-86162729D01*
X97418611Y-86076673D01*
X97419329Y-86025266D01*
X97430270Y-86030046D01*
X97516460Y-86048996D01*
X97604691Y-86050844D01*
X97691599Y-86035520D01*
X97773876Y-86003607D01*
X97848388Y-85956320D01*
X97912296Y-85895462D01*
X97963166Y-85823349D01*
X97999060Y-85742729D01*
X98018611Y-85656673D01*
X98020019Y-85555875D01*
X98002878Y-85469306D01*
X97969249Y-85387716D01*
X97920412Y-85314211D01*
X97858228Y-85251592D01*
X97785066Y-85202243D01*
X97703712Y-85168045D01*
X97617265Y-85150300D01*
X97529018Y-85149684D01*
X97442332Y-85166220D01*
X97360508Y-85199279D01*
X97318948Y-85226474D01*
X96850462Y-84995728D01*
X96847200Y-84994500D01*
X96844184Y-84992743D01*
X96841000Y-84991310D01*
X96710019Y-84933462D01*
X96710019Y-82685875D01*
X96692878Y-82599306D01*
X96659249Y-82517716D01*
X96610412Y-82444211D01*
X96548228Y-82381592D01*
X96475066Y-82332243D01*
X96393712Y-82298045D01*
X96307265Y-82280300D01*
X96219018Y-82279684D01*
X96132332Y-82296220D01*
X96050508Y-82329279D01*
X96027153Y-82344561D01*
X95980412Y-82274211D01*
X95918228Y-82211592D01*
X95845066Y-82162243D01*
X95763712Y-82128045D01*
X95677265Y-82110300D01*
X95589018Y-82109684D01*
X95502332Y-82126220D01*
X95420508Y-82159279D01*
X95346664Y-82207601D01*
X95283612Y-82269346D01*
X95233754Y-82342162D01*
X95198989Y-82423275D01*
X95180641Y-82509596D01*
X95179409Y-82597837D01*
X95195340Y-82684637D01*
X95227826Y-82766689D01*
X95275632Y-82840869D01*
X95336935Y-82904350D01*
X95409401Y-82954715D01*
X95490270Y-82990046D01*
X95576460Y-83008996D01*
X95664691Y-83010844D01*
X95751599Y-82995520D01*
X95833876Y-82963607D01*
X95863186Y-82945006D01*
X95905632Y-83010869D01*
X95966935Y-83074350D01*
X96039401Y-83124715D01*
X96120270Y-83160046D01*
X96206460Y-83178996D01*
X96294691Y-83180844D01*
X96381599Y-83165520D01*
X96463876Y-83133607D01*
X96538388Y-83086320D01*
X96602296Y-83025462D01*
X96653166Y-82953349D01*
X96689060Y-82872729D01*
X96708611Y-82786673D01*
X96710019Y-82685875D01*
X96710019Y-84933462D01*
X96260420Y-84734897D01*
X96256707Y-84725889D01*
X96221436Y-84672802D01*
X96176525Y-84627577D01*
X96123686Y-84591937D01*
X96064930Y-84567238D01*
X96002496Y-84554422D01*
X95938762Y-84553977D01*
X95876155Y-84565920D01*
X95852068Y-84575651D01*
X95838914Y-84555853D01*
X95794003Y-84510628D01*
X95741164Y-84474988D01*
X95682408Y-84450289D01*
X95619974Y-84437473D01*
X95556240Y-84437028D01*
X95493633Y-84448971D01*
X95469545Y-84458702D01*
X95456392Y-84438905D01*
X95411481Y-84393680D01*
X95358642Y-84358040D01*
X95299886Y-84333341D01*
X95292594Y-84331844D01*
X95504856Y-84222054D01*
X95523433Y-84210012D01*
X95542190Y-84198338D01*
X95543866Y-84196769D01*
X95545800Y-84195516D01*
X95561687Y-84180092D01*
X95577817Y-84165000D01*
X95579158Y-84163133D01*
X95580809Y-84161531D01*
X95593389Y-84143327D01*
X95606288Y-84125377D01*
X95607241Y-84123284D01*
X95608549Y-84121393D01*
X95617345Y-84101114D01*
X95626522Y-84080980D01*
X95627629Y-84077669D01*
X95727266Y-83772825D01*
X95755220Y-83755086D01*
X95801376Y-83711133D01*
X95838116Y-83659051D01*
X95864039Y-83600825D01*
X95878160Y-83538673D01*
X95879176Y-83465875D01*
X95866797Y-83403353D01*
X95842509Y-83344426D01*
X95807238Y-83291339D01*
X95762327Y-83246114D01*
X95709488Y-83210474D01*
X95650732Y-83185775D01*
X95588298Y-83172959D01*
X95524564Y-83172514D01*
X95461957Y-83184457D01*
X95437870Y-83194188D01*
X95424716Y-83174390D01*
X95379805Y-83129165D01*
X95326966Y-83093525D01*
X95268210Y-83068826D01*
X95205776Y-83056010D01*
X95142042Y-83055565D01*
X95079435Y-83067508D01*
X95032815Y-83086343D01*
X94462958Y-82938057D01*
X94450455Y-82936079D01*
X94438201Y-82932936D01*
X94434747Y-82932427D01*
X93864747Y-82852427D01*
X93858595Y-82852170D01*
X93852545Y-82851019D01*
X93834274Y-82851154D01*
X93815998Y-82850392D01*
X93809905Y-82851336D01*
X93803755Y-82851382D01*
X93785868Y-82855061D01*
X93767782Y-82857865D01*
X93761990Y-82859974D01*
X93755964Y-82861214D01*
X93739121Y-82868303D01*
X93721936Y-82874562D01*
X93716667Y-82877753D01*
X93710994Y-82880142D01*
X93695847Y-82890368D01*
X93680206Y-82899845D01*
X93675659Y-82903998D01*
X93670556Y-82907444D01*
X93667883Y-82909689D01*
X93660019Y-82916387D01*
X93660019Y-82105875D01*
X93642878Y-82019306D01*
X93609249Y-81937716D01*
X93560412Y-81864211D01*
X93498228Y-81801592D01*
X93425066Y-81752243D01*
X93343712Y-81718045D01*
X93257265Y-81700300D01*
X93169018Y-81699684D01*
X93082332Y-81716220D01*
X93000508Y-81749279D01*
X92926664Y-81797601D01*
X92863612Y-81859346D01*
X92813754Y-81932162D01*
X92778989Y-82013275D01*
X92760641Y-82099596D01*
X92759409Y-82187837D01*
X92775340Y-82274637D01*
X92807826Y-82356689D01*
X92855632Y-82430869D01*
X92916935Y-82494350D01*
X92989401Y-82544715D01*
X93070270Y-82580046D01*
X93156460Y-82598996D01*
X93244691Y-82600844D01*
X93331599Y-82585520D01*
X93413876Y-82553607D01*
X93488388Y-82506320D01*
X93552296Y-82445462D01*
X93603166Y-82373349D01*
X93639060Y-82292729D01*
X93658611Y-82206673D01*
X93660019Y-82105875D01*
X93660019Y-82916387D01*
X93397883Y-83139689D01*
X93386657Y-83151323D01*
X93374697Y-83162182D01*
X93369760Y-83168837D01*
X93364006Y-83174802D01*
X93355254Y-83188395D01*
X93345630Y-83201371D01*
X93342082Y-83208854D01*
X93337593Y-83215827D01*
X93331647Y-83230862D01*
X93324728Y-83245459D01*
X93322700Y-83253492D01*
X93319653Y-83261200D01*
X93316742Y-83277096D01*
X93312788Y-83292766D01*
X93312292Y-83296222D01*
X93239297Y-83831518D01*
X92616412Y-83790539D01*
X92609933Y-83790746D01*
X92603491Y-83790024D01*
X92600000Y-83790000D01*
X92340000Y-83790000D01*
X92316238Y-83792329D01*
X92292404Y-83794572D01*
X92291930Y-83794713D01*
X92291441Y-83794761D01*
X92268532Y-83801677D01*
X92245641Y-83808491D01*
X92245206Y-83808719D01*
X92244732Y-83808863D01*
X92223630Y-83820083D01*
X92202470Y-83831228D01*
X92202084Y-83831540D01*
X92201652Y-83831770D01*
X92183166Y-83846846D01*
X92164539Y-83861917D01*
X92164224Y-83862294D01*
X92163841Y-83862607D01*
X92148623Y-83881002D01*
X92133291Y-83899389D01*
X92132768Y-83900168D01*
X92132741Y-83900202D01*
X92132718Y-83900242D01*
X92131348Y-83902289D01*
X91872262Y-84294843D01*
X91450915Y-84310165D01*
X91442646Y-84311280D01*
X91434305Y-84311324D01*
X91418523Y-84314534D01*
X91402561Y-84316688D01*
X91394666Y-84319388D01*
X91386493Y-84321051D01*
X91371638Y-84327264D01*
X91356395Y-84332478D01*
X91349175Y-84336660D01*
X91341480Y-84339879D01*
X91328111Y-84348862D01*
X91314176Y-84356935D01*
X91307905Y-84362439D01*
X91300983Y-84367092D01*
X91289617Y-84378496D01*
X91277511Y-84389126D01*
X91272430Y-84395743D01*
X91266542Y-84401652D01*
X91264350Y-84404369D01*
X91148318Y-84550237D01*
X91069018Y-84549684D01*
X90982332Y-84566220D01*
X90900508Y-84599279D01*
X90826664Y-84647601D01*
X90763612Y-84709346D01*
X90713754Y-84782162D01*
X90678989Y-84863275D01*
X90660641Y-84949596D01*
X90659409Y-85037837D01*
X90675340Y-85124637D01*
X90707826Y-85206689D01*
X90748913Y-85270444D01*
X90517865Y-85290982D01*
X90509890Y-85292485D01*
X90501783Y-85292938D01*
X90498337Y-85293496D01*
X89788337Y-85413496D01*
X89777357Y-85416477D01*
X89766123Y-85418298D01*
X89762754Y-85419214D01*
X88670019Y-85724391D01*
X88670019Y-84755875D01*
X88652878Y-84669306D01*
X88619249Y-84587716D01*
X88570412Y-84514211D01*
X88508228Y-84451592D01*
X88435066Y-84402243D01*
X88353712Y-84368045D01*
X88267265Y-84350300D01*
X88195014Y-84349795D01*
X88179018Y-84349684D01*
X88092332Y-84366220D01*
X88010508Y-84399279D01*
X87936664Y-84447601D01*
X87873612Y-84509346D01*
X87823754Y-84582162D01*
X87788989Y-84663275D01*
X87770641Y-84749596D01*
X87769409Y-84837837D01*
X87785340Y-84924637D01*
X87817826Y-85006689D01*
X87865632Y-85080869D01*
X87926935Y-85144350D01*
X87999401Y-85194715D01*
X88080270Y-85230046D01*
X88166460Y-85248996D01*
X88254691Y-85250844D01*
X88341599Y-85235520D01*
X88423876Y-85203607D01*
X88498388Y-85156320D01*
X88562296Y-85095462D01*
X88613166Y-85023349D01*
X88649060Y-84942729D01*
X88668611Y-84856673D01*
X88670019Y-84755875D01*
X88670019Y-85724391D01*
X88652753Y-85729214D01*
X88637976Y-85734946D01*
X88622838Y-85739653D01*
X88619631Y-85741033D01*
X87430019Y-86262506D01*
X87430019Y-85205875D01*
X87412878Y-85119306D01*
X87379249Y-85037716D01*
X87330412Y-84964211D01*
X87268228Y-84901592D01*
X87195066Y-84852243D01*
X87113712Y-84818045D01*
X87027265Y-84800300D01*
X86939018Y-84799684D01*
X86852332Y-84816220D01*
X86770508Y-84849279D01*
X86696664Y-84897601D01*
X86633612Y-84959346D01*
X86583754Y-85032162D01*
X86548989Y-85113275D01*
X86530641Y-85199596D01*
X86529409Y-85287837D01*
X86545340Y-85374637D01*
X86577826Y-85456689D01*
X86625632Y-85530869D01*
X86686935Y-85594350D01*
X86759401Y-85644715D01*
X86840270Y-85680046D01*
X86926460Y-85698996D01*
X87014691Y-85700844D01*
X87101599Y-85685520D01*
X87183876Y-85653607D01*
X87258388Y-85606320D01*
X87322296Y-85545462D01*
X87373166Y-85473349D01*
X87409060Y-85392729D01*
X87428611Y-85306673D01*
X87430019Y-85205875D01*
X87430019Y-86262506D01*
X87159631Y-86381033D01*
X87148877Y-86387060D01*
X87137578Y-86392025D01*
X87134546Y-86393756D01*
X87094154Y-86417189D01*
X87128572Y-86300997D01*
X87148956Y-86288062D01*
X87195112Y-86244109D01*
X87231852Y-86192027D01*
X87257775Y-86133801D01*
X87271896Y-86071649D01*
X87272912Y-85998851D01*
X87260533Y-85936329D01*
X87236245Y-85877402D01*
X87200974Y-85824315D01*
X87156063Y-85779090D01*
X87103224Y-85743450D01*
X87044468Y-85718751D01*
X86982034Y-85705935D01*
X86918300Y-85705490D01*
X86855693Y-85717433D01*
X86796598Y-85741309D01*
X86743266Y-85776208D01*
X86697729Y-85820802D01*
X86661720Y-85873391D01*
X86636612Y-85931973D01*
X86623360Y-85994316D01*
X86622470Y-86058046D01*
X86633976Y-86120735D01*
X86649146Y-86159049D01*
X86588696Y-86363116D01*
X86137552Y-86622524D01*
X86177736Y-86553035D01*
X86231666Y-86394523D01*
X86253636Y-86228535D01*
X86242801Y-86061451D01*
X86199577Y-85899691D01*
X86125627Y-85749472D01*
X86093919Y-85702019D01*
X85972118Y-85634953D01*
X85407071Y-86200000D01*
X85421213Y-86214142D01*
X85414142Y-86221213D01*
X85400000Y-86207071D01*
X85385857Y-86221213D01*
X85378786Y-86214142D01*
X85392929Y-86200000D01*
X85378786Y-86185857D01*
X85385857Y-86178786D01*
X85400000Y-86192929D01*
X85965047Y-85627882D01*
X85897981Y-85506081D01*
X85753035Y-85422264D01*
X85594523Y-85368334D01*
X85555955Y-85363229D01*
X86287817Y-84930765D01*
X87457829Y-84370339D01*
X87761414Y-84257238D01*
X87769083Y-84260589D01*
X87831332Y-84274276D01*
X87895054Y-84275611D01*
X87957822Y-84264543D01*
X88017244Y-84241494D01*
X88071058Y-84207343D01*
X88117214Y-84163390D01*
X88153954Y-84111308D01*
X88179877Y-84053082D01*
X88193998Y-83990930D01*
X88195014Y-83918132D01*
X88182635Y-83855610D01*
X88158347Y-83796683D01*
X88123076Y-83743596D01*
X88078165Y-83698371D01*
X88025326Y-83662731D01*
X87966570Y-83638032D01*
X87904136Y-83625216D01*
X87840402Y-83624771D01*
X87777795Y-83636714D01*
X87718700Y-83660590D01*
X87665368Y-83695489D01*
X87619831Y-83740083D01*
X87586434Y-83788855D01*
X87272723Y-83905729D01*
X87264161Y-83909910D01*
X87255161Y-83913044D01*
X87252002Y-83914530D01*
X86934336Y-84066689D01*
X86935014Y-84018132D01*
X86922635Y-83955610D01*
X86898347Y-83896683D01*
X86863076Y-83843596D01*
X86818165Y-83798371D01*
X86765326Y-83762731D01*
X86706570Y-83738032D01*
X86644136Y-83725216D01*
X86580402Y-83724771D01*
X86517795Y-83736714D01*
X86458700Y-83760590D01*
X86405368Y-83795489D01*
X86359831Y-83840083D01*
X86323822Y-83892672D01*
X86317735Y-83906872D01*
X86219879Y-83950649D01*
X85814680Y-83804778D01*
X85803744Y-83802011D01*
X85793170Y-83798113D01*
X85780161Y-83796044D01*
X85767379Y-83792810D01*
X85756112Y-83792219D01*
X85744985Y-83790450D01*
X85731825Y-83790947D01*
X85718654Y-83790257D01*
X85707487Y-83791866D01*
X85696227Y-83792292D01*
X85683405Y-83795337D01*
X85670362Y-83797218D01*
X85659729Y-83800962D01*
X85648757Y-83803569D01*
X85636768Y-83809048D01*
X85624341Y-83813425D01*
X85614640Y-83819162D01*
X85604382Y-83823851D01*
X85601376Y-83825627D01*
X85505547Y-83883123D01*
X84957921Y-84183369D01*
X84930107Y-84177660D01*
X84866373Y-84177215D01*
X84803766Y-84189158D01*
X84744671Y-84213034D01*
X84691339Y-84247933D01*
X84645802Y-84292527D01*
X84609793Y-84345116D01*
X84584685Y-84403698D01*
X84571433Y-84466041D01*
X84570543Y-84529771D01*
X84582049Y-84592460D01*
X84605512Y-84651720D01*
X84640038Y-84705294D01*
X84684313Y-84751142D01*
X84736649Y-84787517D01*
X84795054Y-84813033D01*
X84857303Y-84826720D01*
X84921025Y-84828055D01*
X84983793Y-84816987D01*
X84988784Y-84815050D01*
X84752627Y-84954881D01*
X84739322Y-84964629D01*
X84725429Y-84973511D01*
X84722700Y-84975689D01*
X84092700Y-85485689D01*
X84086376Y-85491922D01*
X84079327Y-85497323D01*
X84076793Y-85499724D01*
X83639362Y-85920000D01*
X83570444Y-85920000D01*
X83570000Y-85920000D01*
X83546055Y-85922347D01*
X83521878Y-85924675D01*
X83521664Y-85924739D01*
X83521441Y-85924761D01*
X83497984Y-85931842D01*
X83475143Y-85938695D01*
X83474949Y-85938797D01*
X83474732Y-85938863D01*
X83453188Y-85950318D01*
X83432023Y-85961524D01*
X83431849Y-85961664D01*
X83431652Y-85961770D01*
X83412872Y-85977086D01*
X83394157Y-85992294D01*
X83393863Y-85992588D01*
X83393841Y-85992607D01*
X83393820Y-85992631D01*
X83391693Y-85994767D01*
X82878405Y-86517059D01*
X82827795Y-86526714D01*
X82768700Y-86550590D01*
X82715368Y-86585489D01*
X82669831Y-86630083D01*
X82633822Y-86682672D01*
X82608714Y-86741254D01*
X82595462Y-86803597D01*
X82594572Y-86867327D01*
X82606078Y-86930016D01*
X82629541Y-86989276D01*
X82664067Y-87042850D01*
X82708342Y-87088698D01*
X82711935Y-87091195D01*
X82703612Y-87099346D01*
X82653754Y-87172162D01*
X82618989Y-87253275D01*
X82600641Y-87339596D01*
X82599409Y-87427837D01*
X82615340Y-87514637D01*
X82647826Y-87596689D01*
X82695632Y-87670869D01*
X82756935Y-87734350D01*
X82829401Y-87784715D01*
X82910270Y-87820046D01*
X82996460Y-87838996D01*
X83084691Y-87840844D01*
X83171599Y-87825520D01*
X83253876Y-87793607D01*
X83328388Y-87746320D01*
X83392296Y-87685462D01*
X83443166Y-87613349D01*
X83479060Y-87532729D01*
X83498611Y-87446673D01*
X83500019Y-87345875D01*
X83482878Y-87259306D01*
X83449249Y-87177716D01*
X83400412Y-87104211D01*
X83338228Y-87041592D01*
X83265066Y-86992243D01*
X83216987Y-86972032D01*
X83229877Y-86943082D01*
X83238684Y-86904316D01*
X83268983Y-86951330D01*
X83313258Y-86997178D01*
X83365594Y-87033553D01*
X83423999Y-87059069D01*
X83486248Y-87072756D01*
X83549970Y-87074091D01*
X83612738Y-87063023D01*
X83672160Y-87039974D01*
X83725974Y-87005823D01*
X83772130Y-86961870D01*
X83808870Y-86909788D01*
X83834793Y-86851562D01*
X83848914Y-86789410D01*
X83849007Y-86782738D01*
X84516428Y-86136836D01*
X84555146Y-86105109D01*
X84546364Y-86171465D01*
X84557199Y-86338549D01*
X84600423Y-86500309D01*
X84674373Y-86650528D01*
X84706081Y-86697981D01*
X84827880Y-86765045D01*
X84822451Y-86770474D01*
X84792332Y-86776220D01*
X84710508Y-86809279D01*
X84636664Y-86857601D01*
X84573612Y-86919346D01*
X84523754Y-86992162D01*
X84488989Y-87073275D01*
X84470641Y-87159596D01*
X84469409Y-87247837D01*
X84485340Y-87334637D01*
X84517826Y-87416689D01*
X84565632Y-87490869D01*
X84626935Y-87554350D01*
X84699401Y-87604715D01*
X84780270Y-87640046D01*
X84784039Y-87640874D01*
X83845964Y-88550525D01*
X83840313Y-88557191D01*
X83833869Y-88563101D01*
X83831557Y-88565716D01*
X83592194Y-88840279D01*
X83578347Y-88806683D01*
X83543076Y-88753596D01*
X83498165Y-88708371D01*
X83445326Y-88672731D01*
X83386570Y-88648032D01*
X83324136Y-88635216D01*
X83260402Y-88634771D01*
X83197795Y-88646714D01*
X83197186Y-88646959D01*
X83208611Y-88596673D01*
X83210019Y-88495875D01*
X83192878Y-88409306D01*
X83159249Y-88327716D01*
X83110412Y-88254211D01*
X83048228Y-88191592D01*
X82975066Y-88142243D01*
X82893712Y-88108045D01*
X82807265Y-88090300D01*
X82719018Y-88089684D01*
X82651445Y-88102574D01*
X82642878Y-88059306D01*
X82609249Y-87977716D01*
X82560412Y-87904211D01*
X82498228Y-87841592D01*
X82425066Y-87792243D01*
X82343712Y-87758045D01*
X82257265Y-87740300D01*
X82169018Y-87739684D01*
X82082332Y-87756220D01*
X82000508Y-87789279D01*
X81926664Y-87837601D01*
X81863612Y-87899346D01*
X81813754Y-87972162D01*
X81778989Y-88053275D01*
X81760641Y-88139596D01*
X81759409Y-88227837D01*
X81775340Y-88314637D01*
X81807826Y-88396689D01*
X81855632Y-88470869D01*
X81916935Y-88534350D01*
X81989401Y-88584715D01*
X82070270Y-88620046D01*
X82156460Y-88638996D01*
X82244691Y-88640844D01*
X82318581Y-88627815D01*
X82325340Y-88664637D01*
X82357826Y-88746689D01*
X82405632Y-88820869D01*
X82466935Y-88884350D01*
X82539401Y-88934715D01*
X82620270Y-88970046D01*
X82706460Y-88988996D01*
X82794691Y-88990844D01*
X82881599Y-88975520D01*
X82963876Y-88943607D01*
X82965194Y-88942770D01*
X82964572Y-88987327D01*
X82976078Y-89050016D01*
X82999541Y-89109276D01*
X83034067Y-89162850D01*
X83078342Y-89208698D01*
X83130678Y-89245073D01*
X83189083Y-89270589D01*
X83226274Y-89278766D01*
X83226874Y-89279196D01*
X83228282Y-89280649D01*
X83246652Y-89293372D01*
X83264881Y-89306438D01*
X83266728Y-89307277D01*
X83268393Y-89308430D01*
X83288909Y-89317353D01*
X83309304Y-89326618D01*
X83311277Y-89327081D01*
X83313135Y-89327890D01*
X83335009Y-89332662D01*
X83356800Y-89337786D01*
X83358823Y-89337857D01*
X83360805Y-89338290D01*
X83364275Y-89338673D01*
X83546831Y-89357558D01*
X82720000Y-90460000D01*
X82719982Y-90460028D01*
X82719962Y-90460051D01*
X82707812Y-90480067D01*
X82694673Y-90501704D01*
X82694661Y-90501735D01*
X82694646Y-90501761D01*
X82693157Y-90504918D01*
X82315038Y-91321174D01*
X82310412Y-91314211D01*
X82248228Y-91251592D01*
X82175066Y-91202243D01*
X82093712Y-91168045D01*
X82007265Y-91150300D01*
X81919018Y-91149684D01*
X81832332Y-91166220D01*
X81750508Y-91199279D01*
X81740019Y-91206142D01*
X81740019Y-90485875D01*
X81722878Y-90399306D01*
X81689249Y-90317716D01*
X81640412Y-90244211D01*
X81578228Y-90181592D01*
X81505066Y-90132243D01*
X81423712Y-90098045D01*
X81337265Y-90080300D01*
X81249018Y-90079684D01*
X81162332Y-90096220D01*
X81080508Y-90129279D01*
X81006664Y-90177601D01*
X80943612Y-90239346D01*
X80893754Y-90312162D01*
X80890019Y-90320876D01*
X80890019Y-89825875D01*
X80872878Y-89739306D01*
X80839249Y-89657716D01*
X80790412Y-89584211D01*
X80728228Y-89521592D01*
X80655066Y-89472243D01*
X80573712Y-89438045D01*
X80487265Y-89420300D01*
X80399018Y-89419684D01*
X80312332Y-89436220D01*
X80230508Y-89469279D01*
X80156664Y-89517601D01*
X80093612Y-89579346D01*
X80043754Y-89652162D01*
X80008989Y-89733275D01*
X79990641Y-89819596D01*
X79989409Y-89907837D01*
X80005340Y-89994637D01*
X80037826Y-90076689D01*
X80085632Y-90150869D01*
X80146935Y-90214350D01*
X80219401Y-90264715D01*
X80300270Y-90300046D01*
X80386460Y-90318996D01*
X80474691Y-90320844D01*
X80561599Y-90305520D01*
X80643876Y-90273607D01*
X80718388Y-90226320D01*
X80782296Y-90165462D01*
X80833166Y-90093349D01*
X80869060Y-90012729D01*
X80888611Y-89926673D01*
X80890019Y-89825875D01*
X80890019Y-90320876D01*
X80858989Y-90393275D01*
X80840641Y-90479596D01*
X80839409Y-90567837D01*
X80855340Y-90654637D01*
X80887826Y-90736689D01*
X80893639Y-90745709D01*
X80827949Y-90870293D01*
X80375148Y-91004718D01*
X79858680Y-90784732D01*
X79856480Y-90779393D01*
X79821209Y-90726306D01*
X79776298Y-90681081D01*
X79723459Y-90645441D01*
X79664703Y-90620742D01*
X79602269Y-90607926D01*
X79538535Y-90607481D01*
X79475928Y-90619424D01*
X79416833Y-90643300D01*
X79363501Y-90678199D01*
X79317964Y-90722793D01*
X79281955Y-90775382D01*
X79256847Y-90833964D01*
X79243595Y-90896307D01*
X79242705Y-90960037D01*
X79254211Y-91022726D01*
X79277674Y-91081986D01*
X79312200Y-91135560D01*
X79356475Y-91181408D01*
X79408811Y-91217783D01*
X79467216Y-91243299D01*
X79529465Y-91256986D01*
X79593187Y-91258321D01*
X79655955Y-91247253D01*
X79662592Y-91244678D01*
X80262031Y-91500005D01*
X80272881Y-91503420D01*
X80283305Y-91507945D01*
X80296080Y-91510722D01*
X80308572Y-91514654D01*
X80319885Y-91515897D01*
X80330984Y-91518310D01*
X80344050Y-91518552D01*
X80357072Y-91519984D01*
X80368411Y-91519005D01*
X80379766Y-91519217D01*
X80392638Y-91516916D01*
X80405683Y-91515791D01*
X80416607Y-91512631D01*
X80427796Y-91510632D01*
X80431150Y-91509662D01*
X81071150Y-91319662D01*
X81071283Y-91319607D01*
X81071416Y-91319582D01*
X81093175Y-91310702D01*
X81116346Y-91301278D01*
X81116466Y-91301198D01*
X81116591Y-91301148D01*
X81136087Y-91288293D01*
X81157110Y-91274466D01*
X81157213Y-91274364D01*
X81157326Y-91274290D01*
X81174387Y-91257465D01*
X81191889Y-91240245D01*
X81191966Y-91240130D01*
X81192067Y-91240032D01*
X81205707Y-91219962D01*
X81219360Y-91199923D01*
X81219415Y-91199793D01*
X81219493Y-91199679D01*
X81221142Y-91196602D01*
X81335952Y-90978858D01*
X81411599Y-90965520D01*
X81493876Y-90933607D01*
X81568388Y-90886320D01*
X81632296Y-90825462D01*
X81683166Y-90753349D01*
X81719060Y-90672729D01*
X81738611Y-90586673D01*
X81740019Y-90485875D01*
X81740019Y-91206142D01*
X81676664Y-91247601D01*
X81613612Y-91309346D01*
X81563754Y-91382162D01*
X81528989Y-91463275D01*
X81510641Y-91549596D01*
X81509409Y-91637837D01*
X81525340Y-91724637D01*
X81557826Y-91806689D01*
X81605632Y-91880869D01*
X81666935Y-91944350D01*
X81739401Y-91994715D01*
X81820270Y-92030046D01*
X81906460Y-92048996D01*
X81993865Y-92050826D01*
X81852158Y-92435899D01*
X81798228Y-92381592D01*
X81725066Y-92332243D01*
X81643712Y-92298045D01*
X81557265Y-92280300D01*
X81469018Y-92279684D01*
X81382332Y-92296220D01*
X81300508Y-92329279D01*
X81226664Y-92377601D01*
X81163612Y-92439346D01*
X81113754Y-92512162D01*
X81078989Y-92593275D01*
X81060641Y-92679596D01*
X81059409Y-92767837D01*
X81075340Y-92854637D01*
X81107826Y-92936689D01*
X81155632Y-93010869D01*
X81216935Y-93074350D01*
X81289401Y-93124715D01*
X81370270Y-93160046D01*
X81456460Y-93178996D01*
X81544691Y-93180844D01*
X81584299Y-93173859D01*
X81584103Y-93174894D01*
X81274103Y-94864895D01*
X81272902Y-94879201D01*
X81270553Y-94893375D01*
X81270346Y-94896860D01*
X81220346Y-95846860D01*
X81220959Y-95860430D01*
X81220393Y-95874017D01*
X81220613Y-95877501D01*
X81311174Y-97167996D01*
X81263712Y-97148045D01*
X81177265Y-97130300D01*
X81089018Y-97129684D01*
X81002332Y-97146220D01*
X80920508Y-97179279D01*
X80846664Y-97227601D01*
X80783612Y-97289346D01*
X80733754Y-97362162D01*
X80698989Y-97443275D01*
X80680641Y-97529596D01*
X80679409Y-97617837D01*
X80695340Y-97704637D01*
X80710136Y-97742010D01*
X80540019Y-97983576D01*
X80540019Y-93685875D01*
X80522878Y-93599306D01*
X80489249Y-93517716D01*
X80440412Y-93444211D01*
X80378228Y-93381592D01*
X80305066Y-93332243D01*
X80223712Y-93298045D01*
X80137265Y-93280300D01*
X80049018Y-93279684D01*
X79962332Y-93296220D01*
X79880508Y-93329279D01*
X79806664Y-93377601D01*
X79743612Y-93439346D01*
X79693754Y-93512162D01*
X79658989Y-93593275D01*
X79640641Y-93679596D01*
X79639409Y-93767837D01*
X79655340Y-93854637D01*
X79687826Y-93936689D01*
X79735632Y-94010869D01*
X79796935Y-94074350D01*
X79869401Y-94124715D01*
X79950270Y-94160046D01*
X80036460Y-94178996D01*
X80124691Y-94180844D01*
X80211599Y-94165520D01*
X80293876Y-94133607D01*
X80368388Y-94086320D01*
X80432296Y-94025462D01*
X80483166Y-93953349D01*
X80519060Y-93872729D01*
X80538611Y-93786673D01*
X80540019Y-93685875D01*
X80540019Y-97983576D01*
X80536217Y-97988975D01*
X80354131Y-97863170D01*
X80352635Y-97855610D01*
X80328347Y-97796683D01*
X80293076Y-97743596D01*
X80248165Y-97698371D01*
X80195326Y-97662731D01*
X80136570Y-97638032D01*
X80074136Y-97625216D01*
X80010402Y-97624771D01*
X79947795Y-97636714D01*
X79888700Y-97660590D01*
X79835368Y-97695489D01*
X79789831Y-97740083D01*
X79753822Y-97792672D01*
X79728714Y-97851254D01*
X79715462Y-97913597D01*
X79714572Y-97977327D01*
X79726078Y-98040016D01*
X79749541Y-98099276D01*
X79784067Y-98152850D01*
X79828342Y-98198698D01*
X79880678Y-98235073D01*
X79939083Y-98260589D01*
X79947956Y-98262540D01*
X79919831Y-98290083D01*
X79883822Y-98342672D01*
X79858714Y-98401254D01*
X79849280Y-98445632D01*
X79797302Y-98490186D01*
X79792123Y-98495585D01*
X79786263Y-98500235D01*
X79775275Y-98513156D01*
X79763532Y-98525402D01*
X79759500Y-98531705D01*
X79754655Y-98537404D01*
X79746387Y-98552211D01*
X79737245Y-98566507D01*
X79734514Y-98573474D01*
X79730869Y-98580004D01*
X79725632Y-98596142D01*
X79719444Y-98611936D01*
X79718119Y-98619297D01*
X79715810Y-98626415D01*
X79713809Y-98643253D01*
X79710804Y-98659956D01*
X79710935Y-98667441D01*
X79710053Y-98674865D01*
X79711361Y-98691779D01*
X79711658Y-98708740D01*
X79713237Y-98716046D01*
X79713815Y-98723511D01*
X79714447Y-98726944D01*
X79805051Y-99200876D01*
X79803822Y-99202672D01*
X79778714Y-99261254D01*
X79765462Y-99323597D01*
X79764572Y-99387327D01*
X79776078Y-99450016D01*
X79799541Y-99509276D01*
X79834067Y-99562850D01*
X79878342Y-99608698D01*
X79930678Y-99645073D01*
X79989083Y-99670589D01*
X80051332Y-99684276D01*
X80115054Y-99685611D01*
X80177822Y-99674543D01*
X80237244Y-99651494D01*
X80291058Y-99617343D01*
X80337214Y-99573390D01*
X80373954Y-99521308D01*
X80399877Y-99463082D01*
X80413998Y-99400930D01*
X80415014Y-99328132D01*
X80402635Y-99265610D01*
X80378347Y-99206683D01*
X80343076Y-99153596D01*
X80298165Y-99108371D01*
X80296164Y-99107021D01*
X80240822Y-98817540D01*
X80257822Y-98814543D01*
X80317244Y-98791494D01*
X80371058Y-98757343D01*
X80417214Y-98713390D01*
X80428012Y-98698081D01*
X80653480Y-99558494D01*
X80636744Y-99597543D01*
X80623492Y-99659886D01*
X80622602Y-99723616D01*
X80634108Y-99786305D01*
X80657571Y-99845565D01*
X80692097Y-99899139D01*
X80736372Y-99944987D01*
X80788708Y-99981362D01*
X80847113Y-100006878D01*
X80909362Y-100020565D01*
X80973084Y-100021900D01*
X81035852Y-100010832D01*
X81095274Y-99987783D01*
X81149088Y-99953632D01*
X81195244Y-99909679D01*
X81231984Y-99857597D01*
X81257907Y-99799371D01*
X81272028Y-99737219D01*
X81273044Y-99664421D01*
X81260665Y-99601899D01*
X81236377Y-99542972D01*
X81201106Y-99489885D01*
X81156195Y-99444660D01*
X81137170Y-99431827D01*
X80864484Y-98391224D01*
X81118949Y-98029885D01*
X81164691Y-98030844D01*
X81251599Y-98015520D01*
X81333876Y-97983607D01*
X81408388Y-97936320D01*
X81411459Y-97933395D01*
X81665432Y-99131829D01*
X81668941Y-99142915D01*
X81671301Y-99154318D01*
X81672363Y-99157644D01*
X81931016Y-99949280D01*
X81887265Y-99940300D01*
X81799018Y-99939684D01*
X81712332Y-99956220D01*
X81630508Y-99989279D01*
X81556664Y-100037601D01*
X81493612Y-100099346D01*
X81443754Y-100172162D01*
X81408989Y-100253275D01*
X81390641Y-100339596D01*
X81389409Y-100427837D01*
X81405340Y-100514637D01*
X81437826Y-100596689D01*
X81485632Y-100670869D01*
X81546935Y-100734350D01*
X81619401Y-100784715D01*
X81700270Y-100820046D01*
X81786460Y-100838996D01*
X81874691Y-100840844D01*
X81961599Y-100825520D01*
X82043876Y-100793607D01*
X82118388Y-100746320D01*
X82182296Y-100685462D01*
X82227794Y-100620963D01*
X82596783Y-101352579D01*
X82605555Y-101366422D01*
X82613434Y-101380822D01*
X82615421Y-101383692D01*
X83469710Y-102599968D01*
X83429018Y-102599684D01*
X83342332Y-102616220D01*
X83260508Y-102649279D01*
X83186664Y-102697601D01*
X83123612Y-102759346D01*
X83073754Y-102832162D01*
X83038989Y-102913275D01*
X83020641Y-102999596D01*
X83019409Y-103087837D01*
X83035340Y-103174637D01*
X83067826Y-103256689D01*
X83115632Y-103330869D01*
X83116467Y-103331734D01*
X82720019Y-103682852D01*
X82720019Y-102585875D01*
X82702878Y-102499306D01*
X82669249Y-102417716D01*
X82620412Y-102344211D01*
X82558228Y-102281592D01*
X82485066Y-102232243D01*
X82403712Y-102198045D01*
X82317265Y-102180300D01*
X82229018Y-102179684D01*
X82142332Y-102196220D01*
X82060508Y-102229279D01*
X81986664Y-102277601D01*
X81923612Y-102339346D01*
X81873754Y-102412162D01*
X81838989Y-102493275D01*
X81820641Y-102579596D01*
X81819409Y-102667837D01*
X81835340Y-102754637D01*
X81867826Y-102836689D01*
X81915632Y-102910869D01*
X81976935Y-102974350D01*
X82049401Y-103024715D01*
X82130270Y-103060046D01*
X82216460Y-103078996D01*
X82304691Y-103080844D01*
X82391599Y-103065520D01*
X82473876Y-103033607D01*
X82548388Y-102986320D01*
X82612296Y-102925462D01*
X82663166Y-102853349D01*
X82699060Y-102772729D01*
X82718611Y-102686673D01*
X82720019Y-102585875D01*
X82720019Y-103682852D01*
X82278465Y-104073919D01*
X82258872Y-104073783D01*
X82196265Y-104085726D01*
X82137170Y-104109602D01*
X82083838Y-104144501D01*
X82038301Y-104189095D01*
X82002292Y-104241684D01*
X81977184Y-104300266D01*
X81963932Y-104362609D01*
X81963042Y-104426339D01*
X81974548Y-104489028D01*
X81998011Y-104548288D01*
X82032537Y-104601862D01*
X82076812Y-104647710D01*
X82129148Y-104684085D01*
X82187553Y-104709601D01*
X82249802Y-104723288D01*
X82313524Y-104724623D01*
X82376292Y-104713555D01*
X82435714Y-104690506D01*
X82489528Y-104656355D01*
X82535684Y-104612402D01*
X82572424Y-104560320D01*
X82598347Y-104502094D01*
X82610741Y-104447541D01*
X83525753Y-103637152D01*
X83540435Y-103621335D01*
X83555445Y-103605888D01*
X83556999Y-103603491D01*
X83558948Y-103601393D01*
X83570271Y-103583036D01*
X83582002Y-103564958D01*
X83583063Y-103562301D01*
X83584565Y-103559867D01*
X83592097Y-103539687D01*
X83600103Y-103519649D01*
X83601051Y-103516289D01*
X83611651Y-103477742D01*
X83673876Y-103453607D01*
X83748388Y-103406320D01*
X83812296Y-103345462D01*
X83863166Y-103273349D01*
X83899060Y-103192729D01*
X83901633Y-103181399D01*
X84736868Y-104080184D01*
X84737670Y-104080894D01*
X84738332Y-104081747D01*
X84755964Y-104097078D01*
X84773411Y-104112514D01*
X84774340Y-104113056D01*
X84775151Y-104113762D01*
X84778011Y-104115764D01*
X85492072Y-104608508D01*
X85459831Y-104640083D01*
X85423822Y-104692672D01*
X85398714Y-104751254D01*
X85385462Y-104813597D01*
X85384572Y-104877327D01*
X85396078Y-104940016D01*
X85419541Y-104999276D01*
X85454067Y-105052850D01*
X85498342Y-105098698D01*
X85550678Y-105135073D01*
X85609083Y-105160589D01*
X85671332Y-105174276D01*
X85735054Y-105175611D01*
X85745072Y-105173844D01*
X86081325Y-105398013D01*
X86087587Y-105401355D01*
X86093324Y-105405530D01*
X86096346Y-105407278D01*
X87163723Y-106014729D01*
X87155462Y-106053597D01*
X87154572Y-106117327D01*
X87166078Y-106180016D01*
X87189541Y-106239276D01*
X87224067Y-106292850D01*
X87268342Y-106338698D01*
X87320678Y-106375073D01*
X87379083Y-106400589D01*
X87441332Y-106414276D01*
X87505054Y-106415611D01*
X87567822Y-106404543D01*
X87627244Y-106381494D01*
X87681058Y-106347343D01*
X87727214Y-106303390D01*
X87763954Y-106251308D01*
X87789877Y-106193082D01*
X87803998Y-106130930D01*
X87804081Y-106124962D01*
X87835054Y-106125611D01*
X87897822Y-106114543D01*
X87957244Y-106091494D01*
X88011058Y-106057343D01*
X88057214Y-106013390D01*
X88093954Y-105961308D01*
X88119877Y-105903082D01*
X88133998Y-105840930D01*
X88135014Y-105768132D01*
X88122635Y-105705610D01*
X88120762Y-105701066D01*
X88253291Y-105757223D01*
X89357885Y-106074114D01*
X89218848Y-106100637D01*
X89064293Y-106163082D01*
X88924810Y-106254357D01*
X88805711Y-106370987D01*
X88711535Y-106508528D01*
X88668726Y-106608407D01*
X88670019Y-106515875D01*
X88652878Y-106429306D01*
X88619249Y-106347716D01*
X88570412Y-106274211D01*
X88508228Y-106211592D01*
X88435066Y-106162243D01*
X88353712Y-106128045D01*
X88267265Y-106110300D01*
X88179018Y-106109684D01*
X88092332Y-106126220D01*
X88010508Y-106159279D01*
X87936664Y-106207601D01*
X87873612Y-106269346D01*
X87823754Y-106342162D01*
X87788989Y-106423275D01*
X87770641Y-106509596D01*
X87769409Y-106597837D01*
X87785340Y-106684637D01*
X87817826Y-106766689D01*
X87865632Y-106840869D01*
X87926935Y-106904350D01*
X87999401Y-106954715D01*
X88080270Y-106990046D01*
X88166460Y-107008996D01*
X88254691Y-107010844D01*
X88341599Y-106995520D01*
X88423876Y-106963607D01*
X88498388Y-106916320D01*
X88562296Y-106855462D01*
X88613166Y-106783349D01*
X88626279Y-106753895D01*
X88611210Y-106824793D01*
X88608882Y-106991470D01*
X88638974Y-107155425D01*
X88700338Y-107310413D01*
X88790637Y-107450530D01*
X88906432Y-107570440D01*
X89043313Y-107665574D01*
X89196065Y-107732310D01*
X89358870Y-107768105D01*
X89525527Y-107771596D01*
X89689688Y-107742650D01*
X89845100Y-107682369D01*
X89985844Y-107593050D01*
X90106559Y-107478095D01*
X90202647Y-107341882D01*
X90270447Y-107189600D01*
X90307378Y-107027049D01*
X90310037Y-106836653D01*
X90277659Y-106673134D01*
X90214137Y-106519018D01*
X90121890Y-106380176D01*
X90004432Y-106261895D01*
X89886600Y-106182416D01*
X90174691Y-106234433D01*
X90178311Y-106243601D01*
X90181975Y-106255736D01*
X90183192Y-106258632D01*
X90213192Y-106328632D01*
X90222363Y-106345316D01*
X90231065Y-106362182D01*
X90232789Y-106364808D01*
X90272789Y-106424808D01*
X90285864Y-106440788D01*
X90298696Y-106456862D01*
X90300574Y-106458767D01*
X90300596Y-106458794D01*
X90300619Y-106458813D01*
X90300901Y-106459099D01*
X90360901Y-106519099D01*
X90370671Y-106527124D01*
X90379735Y-106535928D01*
X90387594Y-106541025D01*
X90394834Y-106546972D01*
X90405973Y-106552944D01*
X90416577Y-106559822D01*
X90419377Y-106561246D01*
X90499377Y-106601246D01*
X90500352Y-106601619D01*
X90501239Y-106602166D01*
X90520832Y-106609466D01*
X90540383Y-106616958D01*
X90541410Y-106617134D01*
X90542388Y-106617499D01*
X90545429Y-106618282D01*
X90585429Y-106628282D01*
X90595791Y-106629819D01*
X90605939Y-106632407D01*
X90609047Y-106632861D01*
X90619493Y-106634311D01*
X90613107Y-106661371D01*
X90618239Y-106690186D01*
X90674207Y-106878064D01*
X90765752Y-107051413D01*
X90889357Y-107203571D01*
X91040272Y-107328692D01*
X91212697Y-107421966D01*
X91400006Y-107479810D01*
X91595000Y-107500000D01*
X91950000Y-107500000D01*
X91950000Y-109750074D01*
X91580037Y-109736286D01*
X91580037Y-108236653D01*
X91547659Y-108073134D01*
X91484137Y-107919018D01*
X91391890Y-107780176D01*
X91274432Y-107661895D01*
X91136237Y-107568681D01*
X90982568Y-107504084D01*
X90819279Y-107470566D01*
X90652590Y-107469402D01*
X90488848Y-107500637D01*
X90334293Y-107563082D01*
X90194810Y-107654357D01*
X90075711Y-107770987D01*
X89981535Y-107908528D01*
X89915867Y-108061742D01*
X89881210Y-108224793D01*
X89878882Y-108391470D01*
X89908974Y-108555425D01*
X89970338Y-108710413D01*
X90060637Y-108850530D01*
X90176432Y-108970440D01*
X90313313Y-109065574D01*
X90466065Y-109132310D01*
X90628870Y-109168105D01*
X90795527Y-109171596D01*
X90959688Y-109142650D01*
X91115100Y-109082369D01*
X91255844Y-108993050D01*
X91376559Y-108878095D01*
X91472647Y-108741882D01*
X91540447Y-108589600D01*
X91577378Y-108427049D01*
X91580037Y-108236653D01*
X91580037Y-109736286D01*
X91087665Y-109717937D01*
X91078165Y-109708371D01*
X91025326Y-109672731D01*
X90966570Y-109648032D01*
X90904136Y-109635216D01*
X90840402Y-109634771D01*
X90777795Y-109646714D01*
X90718700Y-109670590D01*
X90665368Y-109705489D01*
X90619831Y-109750083D01*
X90583822Y-109802672D01*
X90558714Y-109861254D01*
X90545462Y-109923597D01*
X90544572Y-109987327D01*
X90556078Y-110050016D01*
X90579541Y-110109276D01*
X90614067Y-110162850D01*
X90658342Y-110208698D01*
X90710678Y-110245073D01*
X90769083Y-110270589D01*
X90831332Y-110284276D01*
X90895054Y-110285611D01*
X90957822Y-110274543D01*
X91017244Y-110251494D01*
X91070576Y-110217648D01*
X91950000Y-110250422D01*
X91950000Y-110568652D01*
X89837286Y-110460308D01*
X89040037Y-110265272D01*
X89040037Y-108236653D01*
X89007659Y-108073134D01*
X88944137Y-107919018D01*
X88851890Y-107780176D01*
X88734432Y-107661895D01*
X88596237Y-107568681D01*
X88442568Y-107504084D01*
X88279279Y-107470566D01*
X88112590Y-107469402D01*
X87948848Y-107500637D01*
X87794293Y-107563082D01*
X87654810Y-107654357D01*
X87535711Y-107770987D01*
X87441535Y-107908528D01*
X87375867Y-108061742D01*
X87341210Y-108224793D01*
X87338882Y-108391470D01*
X87368974Y-108555425D01*
X87430338Y-108710413D01*
X87520637Y-108850530D01*
X87636432Y-108970440D01*
X87773313Y-109065574D01*
X87926065Y-109132310D01*
X88088870Y-109168105D01*
X88255527Y-109171596D01*
X88419688Y-109142650D01*
X88575100Y-109082369D01*
X88715844Y-108993050D01*
X88836559Y-108878095D01*
X88932647Y-108741882D01*
X89000447Y-108589600D01*
X89037378Y-108427049D01*
X89040037Y-108236653D01*
X89040037Y-110265272D01*
X87516059Y-109892454D01*
X85821614Y-109152889D01*
X85879688Y-109142650D01*
X86035100Y-109082369D01*
X86175844Y-108993050D01*
X86296559Y-108878095D01*
X86392647Y-108741882D01*
X86460447Y-108589600D01*
X86497378Y-108427049D01*
X86500037Y-108236653D01*
X86467659Y-108073134D01*
X86404137Y-107919018D01*
X86311890Y-107780176D01*
X86194432Y-107661895D01*
X86056237Y-107568681D01*
X85902568Y-107504084D01*
X85739279Y-107470566D01*
X85572590Y-107469402D01*
X85408848Y-107500637D01*
X85254293Y-107563082D01*
X85230019Y-107578966D01*
X85230019Y-105055875D01*
X85212878Y-104969306D01*
X85179249Y-104887716D01*
X85130412Y-104814211D01*
X85068228Y-104751592D01*
X84995066Y-104702243D01*
X84913712Y-104668045D01*
X84827265Y-104650300D01*
X84739018Y-104649684D01*
X84652332Y-104666220D01*
X84570508Y-104699279D01*
X84496664Y-104747601D01*
X84433612Y-104809346D01*
X84383754Y-104882162D01*
X84348989Y-104963275D01*
X84330641Y-105049596D01*
X84329409Y-105137837D01*
X84345340Y-105224637D01*
X84377826Y-105306689D01*
X84425632Y-105380869D01*
X84486935Y-105444350D01*
X84559401Y-105494715D01*
X84640270Y-105530046D01*
X84726460Y-105548996D01*
X84814691Y-105550844D01*
X84901599Y-105535520D01*
X84983876Y-105503607D01*
X85058388Y-105456320D01*
X85122296Y-105395462D01*
X85173166Y-105323349D01*
X85209060Y-105242729D01*
X85228611Y-105156673D01*
X85230019Y-105055875D01*
X85230019Y-107578966D01*
X85114810Y-107654357D01*
X84995711Y-107770987D01*
X84901535Y-107908528D01*
X84835867Y-108061742D01*
X84801210Y-108224793D01*
X84798882Y-108391470D01*
X84828974Y-108555425D01*
X84844390Y-108594363D01*
X84700019Y-108509403D01*
X84700019Y-105925875D01*
X84682878Y-105839306D01*
X84649249Y-105757716D01*
X84600412Y-105684211D01*
X84538228Y-105621592D01*
X84465066Y-105572243D01*
X84383712Y-105538045D01*
X84297265Y-105520300D01*
X84209018Y-105519684D01*
X84122332Y-105536220D01*
X84040508Y-105569279D01*
X83966664Y-105617601D01*
X83903612Y-105679346D01*
X83853754Y-105752162D01*
X83818989Y-105833275D01*
X83800641Y-105919596D01*
X83799409Y-106007837D01*
X83815340Y-106094637D01*
X83847826Y-106176689D01*
X83895632Y-106250869D01*
X83956935Y-106314350D01*
X84029401Y-106364715D01*
X84110270Y-106400046D01*
X84196460Y-106418996D01*
X84284691Y-106420844D01*
X84371599Y-106405520D01*
X84453876Y-106373607D01*
X84528388Y-106326320D01*
X84592296Y-106265462D01*
X84643166Y-106193349D01*
X84679060Y-106112729D01*
X84698611Y-106026673D01*
X84700019Y-105925875D01*
X84700019Y-108509403D01*
X83584805Y-107853125D01*
X83584805Y-104779427D01*
X83567664Y-104692858D01*
X83534035Y-104611268D01*
X83485198Y-104537763D01*
X83423014Y-104475144D01*
X83349852Y-104425795D01*
X83268498Y-104391597D01*
X83182051Y-104373852D01*
X83093804Y-104373236D01*
X83007118Y-104389772D01*
X82925294Y-104422831D01*
X82851450Y-104471153D01*
X82788398Y-104532898D01*
X82738540Y-104605714D01*
X82703775Y-104686827D01*
X82685427Y-104773148D01*
X82684195Y-104861389D01*
X82700126Y-104948189D01*
X82732612Y-105030241D01*
X82780418Y-105104421D01*
X82841721Y-105167902D01*
X82914187Y-105218267D01*
X82995056Y-105253598D01*
X83081246Y-105272548D01*
X83169477Y-105274396D01*
X83256385Y-105259072D01*
X83338662Y-105227159D01*
X83413174Y-105179872D01*
X83477082Y-105119014D01*
X83527952Y-105046901D01*
X83563846Y-104966281D01*
X83583397Y-104880225D01*
X83584805Y-104779427D01*
X83584805Y-107853125D01*
X83288754Y-107678906D01*
X81705494Y-106374459D01*
X80001111Y-104311258D01*
X78774929Y-102217776D01*
X78187623Y-100784352D01*
X77649416Y-98641491D01*
X77450074Y-96548404D01*
X77529875Y-93994776D01*
X77665994Y-93149701D01*
X77682078Y-93153712D01*
X77721430Y-93155602D01*
X77760393Y-93149779D01*
X77797472Y-93136466D01*
X77831242Y-93116176D01*
X77860404Y-93089687D01*
X77883838Y-93058017D01*
X77900643Y-93022385D01*
X77910174Y-92984159D01*
X77988872Y-92668519D01*
X77952453Y-92607909D01*
X77760953Y-92560162D01*
X77762549Y-92550254D01*
X77954872Y-92598206D01*
X78015483Y-92561787D01*
X78094181Y-92246148D01*
X78103712Y-92207921D01*
X78105602Y-92168570D01*
X78099779Y-92129606D01*
X78086466Y-92092527D01*
X78066175Y-92058758D01*
X78039686Y-92029596D01*
X78009890Y-92007548D01*
X78030503Y-92008137D01*
X78085133Y-91994003D01*
X78133681Y-91965238D01*
X78172318Y-91924111D01*
X78197999Y-91873864D01*
X78376443Y-91355623D01*
X78562856Y-91292646D01*
X78433578Y-91668730D01*
X78429381Y-91686385D01*
X78424307Y-91703795D01*
X78423752Y-91710065D01*
X78422295Y-91716199D01*
X78421607Y-91734346D01*
X78420012Y-91752398D01*
X78420685Y-91758653D01*
X78420447Y-91764956D01*
X78423295Y-91782877D01*
X78425238Y-91800908D01*
X78427117Y-91806925D01*
X78428106Y-91813142D01*
X78434372Y-91830148D01*
X78439787Y-91847480D01*
X78441171Y-91850685D01*
X78615892Y-92247779D01*
X78604780Y-92258662D01*
X78568771Y-92311251D01*
X78543663Y-92369833D01*
X78530411Y-92432176D01*
X78529521Y-92495906D01*
X78541027Y-92558595D01*
X78564490Y-92617855D01*
X78599016Y-92671429D01*
X78643291Y-92717277D01*
X78695627Y-92753652D01*
X78754032Y-92779168D01*
X78816281Y-92792855D01*
X78880003Y-92794190D01*
X78942771Y-92783122D01*
X79002193Y-92760073D01*
X79056007Y-92725922D01*
X79102163Y-92681969D01*
X79138903Y-92629887D01*
X79164826Y-92571661D01*
X79178947Y-92509509D01*
X79179963Y-92436711D01*
X79167584Y-92374189D01*
X79143296Y-92315262D01*
X79134782Y-92302448D01*
X79136846Y-92289583D01*
X79138135Y-92268563D01*
X79139988Y-92247602D01*
X79139627Y-92244253D01*
X79139834Y-92240883D01*
X79137013Y-92219994D01*
X79134762Y-92199092D01*
X79133757Y-92195877D01*
X79133306Y-92192531D01*
X79126488Y-92172606D01*
X79120213Y-92152520D01*
X79118829Y-92149315D01*
X78938205Y-91738807D01*
X79233717Y-90879138D01*
X79650496Y-89886808D01*
X79653205Y-89878046D01*
X79656960Y-89869687D01*
X79660393Y-89854800D01*
X79664910Y-89840194D01*
X79665865Y-89831073D01*
X79667925Y-89822145D01*
X79668401Y-89806873D01*
X79669995Y-89791668D01*
X79669161Y-89782537D01*
X79669447Y-89773376D01*
X79666946Y-89758295D01*
X79665557Y-89743079D01*
X79662966Y-89734286D01*
X79661467Y-89725242D01*
X79656088Y-89710941D01*
X79651768Y-89696277D01*
X79647517Y-89688153D01*
X79644291Y-89679574D01*
X79642727Y-89676453D01*
X79382727Y-89166453D01*
X79379737Y-89161780D01*
X79377489Y-89156718D01*
X79366617Y-89141275D01*
X79356430Y-89125354D01*
X79356082Y-89124991D01*
X79428412Y-88988959D01*
X79441319Y-88959065D01*
X79451734Y-88903605D01*
X79446321Y-88847436D01*
X79425505Y-88794986D01*
X79390928Y-88750391D01*
X79345317Y-88717166D01*
X79325091Y-88706412D01*
X79652302Y-88146711D01*
X79963606Y-87689130D01*
X79980367Y-87701307D01*
X80008174Y-87718250D01*
X80061645Y-87736282D01*
X80118021Y-87738738D01*
X80172857Y-87725424D01*
X80221830Y-87697390D01*
X80261079Y-87656847D01*
X80731307Y-87009633D01*
X80748250Y-86981826D01*
X80766282Y-86928355D01*
X80768738Y-86871979D01*
X80755424Y-86817143D01*
X80733552Y-86778935D01*
X80752309Y-86787537D01*
X80808119Y-86795872D01*
X80864047Y-86788363D01*
X80915682Y-86765602D01*
X80958954Y-86729384D01*
X81494258Y-86134868D01*
X81514014Y-86108984D01*
X81537537Y-86057691D01*
X81545872Y-86001881D01*
X81538363Y-85945953D01*
X81516133Y-85895522D01*
X81549532Y-85913760D01*
X81604625Y-85925968D01*
X81660940Y-85922379D01*
X81714038Y-85903275D01*
X81759731Y-85870163D01*
X82335203Y-85314437D01*
X82356716Y-85289995D01*
X82383760Y-85240468D01*
X82395968Y-85185375D01*
X82392379Y-85129060D01*
X82373275Y-85075962D01*
X82340163Y-85030269D01*
X82324841Y-85014403D01*
X82392984Y-84947681D01*
X83289553Y-84247235D01*
X83307147Y-84272361D01*
X83327923Y-84297434D01*
X83372610Y-84331892D01*
X83425115Y-84352568D01*
X83481298Y-84357833D01*
X83536730Y-84347270D01*
X83587040Y-84321714D01*
X84242361Y-83862853D01*
X84267434Y-83842077D01*
X84301892Y-83797390D01*
X84322568Y-83744885D01*
X84327833Y-83688702D01*
X84319141Y-83643092D01*
X84339572Y-83661903D01*
X84390075Y-83687077D01*
X84445586Y-83697218D01*
X84501727Y-83691527D01*
X84554074Y-83670453D01*
X84982920Y-83422857D01*
X84986846Y-83428719D01*
X84990012Y-83431884D01*
X84992635Y-83435513D01*
X85007242Y-83449108D01*
X85021354Y-83463214D01*
X85025074Y-83465703D01*
X85028351Y-83468753D01*
X85045318Y-83479249D01*
X85061904Y-83490348D01*
X85066038Y-83492068D01*
X85069845Y-83494423D01*
X85088524Y-83501423D01*
X85106952Y-83509090D01*
X85110297Y-83510087D01*
X85420297Y-83600086D01*
X85438201Y-83603433D01*
X85455920Y-83607666D01*
X85462137Y-83607908D01*
X85468258Y-83609053D01*
X85486479Y-83608858D01*
X85504675Y-83609569D01*
X85510821Y-83608599D01*
X85517047Y-83608533D01*
X85534876Y-83604804D01*
X85552870Y-83601966D01*
X85558715Y-83599819D01*
X85564805Y-83598546D01*
X85581563Y-83591428D01*
X85598670Y-83585147D01*
X85601803Y-83583607D01*
X86055241Y-83356888D01*
X86556258Y-83142166D01*
X86611332Y-83154276D01*
X86675054Y-83155611D01*
X86737822Y-83144543D01*
X86797244Y-83121494D01*
X86851058Y-83087343D01*
X86897214Y-83043390D01*
X86933954Y-82991308D01*
X86959877Y-82933082D01*
X86973998Y-82870930D01*
X86975014Y-82798132D01*
X86962635Y-82735610D01*
X86938347Y-82676683D01*
X86903076Y-82623596D01*
X86858165Y-82578371D01*
X86832776Y-82561246D01*
X87391420Y-82357917D01*
X87421015Y-82344338D01*
X87465865Y-82310092D01*
X87499426Y-82264728D01*
X87519053Y-82211822D01*
X87523197Y-82155545D01*
X87511533Y-82100334D01*
X87505015Y-82082426D01*
X87545027Y-82067746D01*
X89318871Y-81599371D01*
X91052983Y-81429947D01*
X92417863Y-81400059D01*
X94640505Y-81639267D01*
X96595275Y-82187799D01*
X97696357Y-82557694D01*
X97643612Y-82609346D01*
X97593754Y-82682162D01*
X97558989Y-82763275D01*
X97540641Y-82849596D01*
X97539409Y-82937837D01*
X97555340Y-83024637D01*
X97587826Y-83106689D01*
X97635632Y-83180869D01*
X97696935Y-83244350D01*
X97769401Y-83294715D01*
X97850270Y-83330046D01*
X97936460Y-83348996D01*
X98024691Y-83350844D01*
X98111599Y-83335520D01*
X98193876Y-83303607D01*
X98268388Y-83256320D01*
X98332296Y-83195462D01*
X98383166Y-83123349D01*
X98419060Y-83042729D01*
X98438611Y-82956673D01*
X98439045Y-82925600D01*
X99115542Y-83293615D01*
X100203387Y-83922147D01*
X100203387Y-83922147D01*
G37*
X100203387Y-83922147D02*
X98104872Y-87003509D01*
X98097043Y-86997816D01*
X98091946Y-86994822D01*
X98087347Y-86991108D01*
X98084416Y-86989211D01*
X97394416Y-86549211D01*
X97387468Y-86545682D01*
X97381036Y-86541252D01*
X97377969Y-86539584D01*
X97166569Y-86426440D01*
X97173876Y-86423607D01*
X97248388Y-86376320D01*
X97312296Y-86315462D01*
X97363166Y-86243349D01*
X97399060Y-86162729D01*
X97418611Y-86076673D01*
X97419329Y-86025266D01*
X97430270Y-86030046D01*
X97516460Y-86048996D01*
X97604691Y-86050844D01*
X97691599Y-86035520D01*
X97773876Y-86003607D01*
X97848388Y-85956320D01*
X97912296Y-85895462D01*
X97963166Y-85823349D01*
X97999060Y-85742729D01*
X98018611Y-85656673D01*
X98020019Y-85555875D01*
X98002878Y-85469306D01*
X97969249Y-85387716D01*
X97920412Y-85314211D01*
X97858228Y-85251592D01*
X97785066Y-85202243D01*
X97703712Y-85168045D01*
X97617265Y-85150300D01*
X97529018Y-85149684D01*
X97442332Y-85166220D01*
X97360508Y-85199279D01*
X97318948Y-85226474D01*
X96850462Y-84995728D01*
X96847200Y-84994500D01*
X96844184Y-84992743D01*
X96841000Y-84991310D01*
X96710019Y-84933462D01*
X96710019Y-82685875D01*
X96692878Y-82599306D01*
X96659249Y-82517716D01*
X96610412Y-82444211D01*
X96548228Y-82381592D01*
X96475066Y-82332243D01*
X96393712Y-82298045D01*
X96307265Y-82280300D01*
X96219018Y-82279684D01*
X96132332Y-82296220D01*
X96050508Y-82329279D01*
X96027153Y-82344561D01*
X95980412Y-82274211D01*
X95918228Y-82211592D01*
X95845066Y-82162243D01*
X95763712Y-82128045D01*
X95677265Y-82110300D01*
X95589018Y-82109684D01*
X95502332Y-82126220D01*
X95420508Y-82159279D01*
X95346664Y-82207601D01*
X95283612Y-82269346D01*
X95233754Y-82342162D01*
X95198989Y-82423275D01*
X95180641Y-82509596D01*
X95179409Y-82597837D01*
X95195340Y-82684637D01*
X95227826Y-82766689D01*
X95275632Y-82840869D01*
X95336935Y-82904350D01*
X95409401Y-82954715D01*
X95490270Y-82990046D01*
X95576460Y-83008996D01*
X95664691Y-83010844D01*
X95751599Y-82995520D01*
X95833876Y-82963607D01*
X95863186Y-82945006D01*
X95905632Y-83010869D01*
X95966935Y-83074350D01*
X96039401Y-83124715D01*
X96120270Y-83160046D01*
X96206460Y-83178996D01*
X96294691Y-83180844D01*
X96381599Y-83165520D01*
X96463876Y-83133607D01*
X96538388Y-83086320D01*
X96602296Y-83025462D01*
X96653166Y-82953349D01*
X96689060Y-82872729D01*
X96708611Y-82786673D01*
X96710019Y-82685875D01*
X96710019Y-84933462D01*
X96260420Y-84734897D01*
X96256707Y-84725889D01*
X96221436Y-84672802D01*
X96176525Y-84627577D01*
X96123686Y-84591937D01*
X96064930Y-84567238D01*
X96002496Y-84554422D01*
X95938762Y-84553977D01*
X95876155Y-84565920D01*
X95852068Y-84575651D01*
X95838914Y-84555853D01*
X95794003Y-84510628D01*
X95741164Y-84474988D01*
X95682408Y-84450289D01*
X95619974Y-84437473D01*
X95556240Y-84437028D01*
X95493633Y-84448971D01*
X95469545Y-84458702D01*
X95456392Y-84438905D01*
X95411481Y-84393680D01*
X95358642Y-84358040D01*
X95299886Y-84333341D01*
X95292594Y-84331844D01*
X95504856Y-84222054D01*
X95523433Y-84210012D01*
X95542190Y-84198338D01*
X95543866Y-84196769D01*
X95545800Y-84195516D01*
X95561687Y-84180092D01*
X95577817Y-84165000D01*
X95579158Y-84163133D01*
X95580809Y-84161531D01*
X95593389Y-84143327D01*
X95606288Y-84125377D01*
X95607241Y-84123284D01*
X95608549Y-84121393D01*
X95617345Y-84101114D01*
X95626522Y-84080980D01*
X95627629Y-84077669D01*
X95727266Y-83772825D01*
X95755220Y-83755086D01*
X95801376Y-83711133D01*
X95838116Y-83659051D01*
X95864039Y-83600825D01*
X95878160Y-83538673D01*
X95879176Y-83465875D01*
X95866797Y-83403353D01*
X95842509Y-83344426D01*
X95807238Y-83291339D01*
X95762327Y-83246114D01*
X95709488Y-83210474D01*
X95650732Y-83185775D01*
X95588298Y-83172959D01*
X95524564Y-83172514D01*
X95461957Y-83184457D01*
X95437870Y-83194188D01*
X95424716Y-83174390D01*
X95379805Y-83129165D01*
X95326966Y-83093525D01*
X95268210Y-83068826D01*
X95205776Y-83056010D01*
X95142042Y-83055565D01*
X95079435Y-83067508D01*
X95032815Y-83086343D01*
X94462958Y-82938057D01*
X94450455Y-82936079D01*
X94438201Y-82932936D01*
X94434747Y-82932427D01*
X93864747Y-82852427D01*
X93858595Y-82852170D01*
X93852545Y-82851019D01*
X93834274Y-82851154D01*
X93815998Y-82850392D01*
X93809905Y-82851336D01*
X93803755Y-82851382D01*
X93785868Y-82855061D01*
X93767782Y-82857865D01*
X93761990Y-82859974D01*
X93755964Y-82861214D01*
X93739121Y-82868303D01*
X93721936Y-82874562D01*
X93716667Y-82877753D01*
X93710994Y-82880142D01*
X93695847Y-82890368D01*
X93680206Y-82899845D01*
X93675659Y-82903998D01*
X93670556Y-82907444D01*
X93667883Y-82909689D01*
X93660019Y-82916387D01*
X93660019Y-82105875D01*
X93642878Y-82019306D01*
X93609249Y-81937716D01*
X93560412Y-81864211D01*
X93498228Y-81801592D01*
X93425066Y-81752243D01*
X93343712Y-81718045D01*
X93257265Y-81700300D01*
X93169018Y-81699684D01*
X93082332Y-81716220D01*
X93000508Y-81749279D01*
X92926664Y-81797601D01*
X92863612Y-81859346D01*
X92813754Y-81932162D01*
X92778989Y-82013275D01*
X92760641Y-82099596D01*
X92759409Y-82187837D01*
X92775340Y-82274637D01*
X92807826Y-82356689D01*
X92855632Y-82430869D01*
X92916935Y-82494350D01*
X92989401Y-82544715D01*
X93070270Y-82580046D01*
X93156460Y-82598996D01*
X93244691Y-82600844D01*
X93331599Y-82585520D01*
X93413876Y-82553607D01*
X93488388Y-82506320D01*
X93552296Y-82445462D01*
X93603166Y-82373349D01*
X93639060Y-82292729D01*
X93658611Y-82206673D01*
X93660019Y-82105875D01*
X93660019Y-82916387D01*
X93397883Y-83139689D01*
X93386657Y-83151323D01*
X93374697Y-83162182D01*
X93369760Y-83168837D01*
X93364006Y-83174802D01*
X93355254Y-83188395D01*
X93345630Y-83201371D01*
X93342082Y-83208854D01*
X93337593Y-83215827D01*
X93331647Y-83230862D01*
X93324728Y-83245459D01*
X93322700Y-83253492D01*
X93319653Y-83261200D01*
X93316742Y-83277096D01*
X93312788Y-83292766D01*
X93312292Y-83296222D01*
X93239297Y-83831518D01*
X92616412Y-83790539D01*
X92609933Y-83790746D01*
X92603491Y-83790024D01*
X92600000Y-83790000D01*
X92340000Y-83790000D01*
X92316238Y-83792329D01*
X92292404Y-83794572D01*
X92291930Y-83794713D01*
X92291441Y-83794761D01*
X92268532Y-83801677D01*
X92245641Y-83808491D01*
X92245206Y-83808719D01*
X92244732Y-83808863D01*
X92223630Y-83820083D01*
X92202470Y-83831228D01*
X92202084Y-83831540D01*
X92201652Y-83831770D01*
X92183166Y-83846846D01*
X92164539Y-83861917D01*
X92164224Y-83862294D01*
X92163841Y-83862607D01*
X92148623Y-83881002D01*
X92133291Y-83899389D01*
X92132768Y-83900168D01*
X92132741Y-83900202D01*
X92132718Y-83900242D01*
X92131348Y-83902289D01*
X91872262Y-84294843D01*
X91450915Y-84310165D01*
X91442646Y-84311280D01*
X91434305Y-84311324D01*
X91418523Y-84314534D01*
X91402561Y-84316688D01*
X91394666Y-84319388D01*
X91386493Y-84321051D01*
X91371638Y-84327264D01*
X91356395Y-84332478D01*
X91349175Y-84336660D01*
X91341480Y-84339879D01*
X91328111Y-84348862D01*
X91314176Y-84356935D01*
X91307905Y-84362439D01*
X91300983Y-84367092D01*
X91289617Y-84378496D01*
X91277511Y-84389126D01*
X91272430Y-84395743D01*
X91266542Y-84401652D01*
X91264350Y-84404369D01*
X91148318Y-84550237D01*
X91069018Y-84549684D01*
X90982332Y-84566220D01*
X90900508Y-84599279D01*
X90826664Y-84647601D01*
X90763612Y-84709346D01*
X90713754Y-84782162D01*
X90678989Y-84863275D01*
X90660641Y-84949596D01*
X90659409Y-85037837D01*
X90675340Y-85124637D01*
X90707826Y-85206689D01*
X90748913Y-85270444D01*
X90517865Y-85290982D01*
X90509890Y-85292485D01*
X90501783Y-85292938D01*
X90498337Y-85293496D01*
X89788337Y-85413496D01*
X89777357Y-85416477D01*
X89766123Y-85418298D01*
X89762754Y-85419214D01*
X88670019Y-85724391D01*
X88670019Y-84755875D01*
X88652878Y-84669306D01*
X88619249Y-84587716D01*
X88570412Y-84514211D01*
X88508228Y-84451592D01*
X88435066Y-84402243D01*
X88353712Y-84368045D01*
X88267265Y-84350300D01*
X88195014Y-84349795D01*
X88179018Y-84349684D01*
X88092332Y-84366220D01*
X88010508Y-84399279D01*
X87936664Y-84447601D01*
X87873612Y-84509346D01*
X87823754Y-84582162D01*
X87788989Y-84663275D01*
X87770641Y-84749596D01*
X87769409Y-84837837D01*
X87785340Y-84924637D01*
X87817826Y-85006689D01*
X87865632Y-85080869D01*
X87926935Y-85144350D01*
X87999401Y-85194715D01*
X88080270Y-85230046D01*
X88166460Y-85248996D01*
X88254691Y-85250844D01*
X88341599Y-85235520D01*
X88423876Y-85203607D01*
X88498388Y-85156320D01*
X88562296Y-85095462D01*
X88613166Y-85023349D01*
X88649060Y-84942729D01*
X88668611Y-84856673D01*
X88670019Y-84755875D01*
X88670019Y-85724391D01*
X88652753Y-85729214D01*
X88637976Y-85734946D01*
X88622838Y-85739653D01*
X88619631Y-85741033D01*
X87430019Y-86262506D01*
X87430019Y-85205875D01*
X87412878Y-85119306D01*
X87379249Y-85037716D01*
X87330412Y-84964211D01*
X87268228Y-84901592D01*
X87195066Y-84852243D01*
X87113712Y-84818045D01*
X87027265Y-84800300D01*
X86939018Y-84799684D01*
X86852332Y-84816220D01*
X86770508Y-84849279D01*
X86696664Y-84897601D01*
X86633612Y-84959346D01*
X86583754Y-85032162D01*
X86548989Y-85113275D01*
X86530641Y-85199596D01*
X86529409Y-85287837D01*
X86545340Y-85374637D01*
X86577826Y-85456689D01*
X86625632Y-85530869D01*
X86686935Y-85594350D01*
X86759401Y-85644715D01*
X86840270Y-85680046D01*
X86926460Y-85698996D01*
X87014691Y-85700844D01*
X87101599Y-85685520D01*
X87183876Y-85653607D01*
X87258388Y-85606320D01*
X87322296Y-85545462D01*
X87373166Y-85473349D01*
X87409060Y-85392729D01*
X87428611Y-85306673D01*
X87430019Y-85205875D01*
X87430019Y-86262506D01*
X87159631Y-86381033D01*
X87148877Y-86387060D01*
X87137578Y-86392025D01*
X87134546Y-86393756D01*
X87094154Y-86417189D01*
X87128572Y-86300997D01*
X87148956Y-86288062D01*
X87195112Y-86244109D01*
X87231852Y-86192027D01*
X87257775Y-86133801D01*
X87271896Y-86071649D01*
X87272912Y-85998851D01*
X87260533Y-85936329D01*
X87236245Y-85877402D01*
X87200974Y-85824315D01*
X87156063Y-85779090D01*
X87103224Y-85743450D01*
X87044468Y-85718751D01*
X86982034Y-85705935D01*
X86918300Y-85705490D01*
X86855693Y-85717433D01*
X86796598Y-85741309D01*
X86743266Y-85776208D01*
X86697729Y-85820802D01*
X86661720Y-85873391D01*
X86636612Y-85931973D01*
X86623360Y-85994316D01*
X86622470Y-86058046D01*
X86633976Y-86120735D01*
X86649146Y-86159049D01*
X86588696Y-86363116D01*
X86137552Y-86622524D01*
X86177736Y-86553035D01*
X86231666Y-86394523D01*
X86253636Y-86228535D01*
X86242801Y-86061451D01*
X86199577Y-85899691D01*
X86125627Y-85749472D01*
X86093919Y-85702019D01*
X85972118Y-85634953D01*
X85407071Y-86200000D01*
X85421213Y-86214142D01*
X85414142Y-86221213D01*
X85400000Y-86207071D01*
X85385857Y-86221213D01*
X85378786Y-86214142D01*
X85392929Y-86200000D01*
X85378786Y-86185857D01*
X85385857Y-86178786D01*
X85400000Y-86192929D01*
X85965047Y-85627882D01*
X85897981Y-85506081D01*
X85753035Y-85422264D01*
X85594523Y-85368334D01*
X85555955Y-85363229D01*
X86287817Y-84930765D01*
X87457829Y-84370339D01*
X87761414Y-84257238D01*
X87769083Y-84260589D01*
X87831332Y-84274276D01*
X87895054Y-84275611D01*
X87957822Y-84264543D01*
X88017244Y-84241494D01*
X88071058Y-84207343D01*
X88117214Y-84163390D01*
X88153954Y-84111308D01*
X88179877Y-84053082D01*
X88193998Y-83990930D01*
X88195014Y-83918132D01*
X88182635Y-83855610D01*
X88158347Y-83796683D01*
X88123076Y-83743596D01*
X88078165Y-83698371D01*
X88025326Y-83662731D01*
X87966570Y-83638032D01*
X87904136Y-83625216D01*
X87840402Y-83624771D01*
X87777795Y-83636714D01*
X87718700Y-83660590D01*
X87665368Y-83695489D01*
X87619831Y-83740083D01*
X87586434Y-83788855D01*
X87272723Y-83905729D01*
X87264161Y-83909910D01*
X87255161Y-83913044D01*
X87252002Y-83914530D01*
X86934336Y-84066689D01*
X86935014Y-84018132D01*
X86922635Y-83955610D01*
X86898347Y-83896683D01*
X86863076Y-83843596D01*
X86818165Y-83798371D01*
X86765326Y-83762731D01*
X86706570Y-83738032D01*
X86644136Y-83725216D01*
X86580402Y-83724771D01*
X86517795Y-83736714D01*
X86458700Y-83760590D01*
X86405368Y-83795489D01*
X86359831Y-83840083D01*
X86323822Y-83892672D01*
X86317735Y-83906872D01*
X86219879Y-83950649D01*
X85814680Y-83804778D01*
X85803744Y-83802011D01*
X85793170Y-83798113D01*
X85780161Y-83796044D01*
X85767379Y-83792810D01*
X85756112Y-83792219D01*
X85744985Y-83790450D01*
X85731825Y-83790947D01*
X85718654Y-83790257D01*
X85707487Y-83791866D01*
X85696227Y-83792292D01*
X85683405Y-83795337D01*
X85670362Y-83797218D01*
X85659729Y-83800962D01*
X85648757Y-83803569D01*
X85636768Y-83809048D01*
X85624341Y-83813425D01*
X85614640Y-83819162D01*
X85604382Y-83823851D01*
X85601376Y-83825627D01*
X85505547Y-83883123D01*
X84957921Y-84183369D01*
X84930107Y-84177660D01*
X84866373Y-84177215D01*
X84803766Y-84189158D01*
X84744671Y-84213034D01*
X84691339Y-84247933D01*
X84645802Y-84292527D01*
X84609793Y-84345116D01*
X84584685Y-84403698D01*
X84571433Y-84466041D01*
X84570543Y-84529771D01*
X84582049Y-84592460D01*
X84605512Y-84651720D01*
X84640038Y-84705294D01*
X84684313Y-84751142D01*
X84736649Y-84787517D01*
X84795054Y-84813033D01*
X84857303Y-84826720D01*
X84921025Y-84828055D01*
X84983793Y-84816987D01*
X84988784Y-84815050D01*
X84752627Y-84954881D01*
X84739322Y-84964629D01*
X84725429Y-84973511D01*
X84722700Y-84975689D01*
X84092700Y-85485689D01*
X84086376Y-85491922D01*
X84079327Y-85497323D01*
X84076793Y-85499724D01*
X83639362Y-85920000D01*
X83570444Y-85920000D01*
X83570000Y-85920000D01*
X83546055Y-85922347D01*
X83521878Y-85924675D01*
X83521664Y-85924739D01*
X83521441Y-85924761D01*
X83497984Y-85931842D01*
X83475143Y-85938695D01*
X83474949Y-85938797D01*
X83474732Y-85938863D01*
X83453188Y-85950318D01*
X83432023Y-85961524D01*
X83431849Y-85961664D01*
X83431652Y-85961770D01*
X83412872Y-85977086D01*
X83394157Y-85992294D01*
X83393863Y-85992588D01*
X83393841Y-85992607D01*
X83393820Y-85992631D01*
X83391693Y-85994767D01*
X82878405Y-86517059D01*
X82827795Y-86526714D01*
X82768700Y-86550590D01*
X82715368Y-86585489D01*
X82669831Y-86630083D01*
X82633822Y-86682672D01*
X82608714Y-86741254D01*
X82595462Y-86803597D01*
X82594572Y-86867327D01*
X82606078Y-86930016D01*
X82629541Y-86989276D01*
X82664067Y-87042850D01*
X82708342Y-87088698D01*
X82711935Y-87091195D01*
X82703612Y-87099346D01*
X82653754Y-87172162D01*
X82618989Y-87253275D01*
X82600641Y-87339596D01*
X82599409Y-87427837D01*
X82615340Y-87514637D01*
X82647826Y-87596689D01*
X82695632Y-87670869D01*
X82756935Y-87734350D01*
X82829401Y-87784715D01*
X82910270Y-87820046D01*
X82996460Y-87838996D01*
X83084691Y-87840844D01*
X83171599Y-87825520D01*
X83253876Y-87793607D01*
X83328388Y-87746320D01*
X83392296Y-87685462D01*
X83443166Y-87613349D01*
X83479060Y-87532729D01*
X83498611Y-87446673D01*
X83500019Y-87345875D01*
X83482878Y-87259306D01*
X83449249Y-87177716D01*
X83400412Y-87104211D01*
X83338228Y-87041592D01*
X83265066Y-86992243D01*
X83216987Y-86972032D01*
X83229877Y-86943082D01*
X83238684Y-86904316D01*
X83268983Y-86951330D01*
X83313258Y-86997178D01*
X83365594Y-87033553D01*
X83423999Y-87059069D01*
X83486248Y-87072756D01*
X83549970Y-87074091D01*
X83612738Y-87063023D01*
X83672160Y-87039974D01*
X83725974Y-87005823D01*
X83772130Y-86961870D01*
X83808870Y-86909788D01*
X83834793Y-86851562D01*
X83848914Y-86789410D01*
X83849007Y-86782738D01*
X84516428Y-86136836D01*
X84555146Y-86105109D01*
X84546364Y-86171465D01*
X84557199Y-86338549D01*
X84600423Y-86500309D01*
X84674373Y-86650528D01*
X84706081Y-86697981D01*
X84827880Y-86765045D01*
X84822451Y-86770474D01*
X84792332Y-86776220D01*
X84710508Y-86809279D01*
X84636664Y-86857601D01*
X84573612Y-86919346D01*
X84523754Y-86992162D01*
X84488989Y-87073275D01*
X84470641Y-87159596D01*
X84469409Y-87247837D01*
X84485340Y-87334637D01*
X84517826Y-87416689D01*
X84565632Y-87490869D01*
X84626935Y-87554350D01*
X84699401Y-87604715D01*
X84780270Y-87640046D01*
X84784039Y-87640874D01*
X83845964Y-88550525D01*
X83840313Y-88557191D01*
X83833869Y-88563101D01*
X83831557Y-88565716D01*
X83592194Y-88840279D01*
X83578347Y-88806683D01*
X83543076Y-88753596D01*
X83498165Y-88708371D01*
X83445326Y-88672731D01*
X83386570Y-88648032D01*
X83324136Y-88635216D01*
X83260402Y-88634771D01*
X83197795Y-88646714D01*
X83197186Y-88646959D01*
X83208611Y-88596673D01*
X83210019Y-88495875D01*
X83192878Y-88409306D01*
X83159249Y-88327716D01*
X83110412Y-88254211D01*
X83048228Y-88191592D01*
X82975066Y-88142243D01*
X82893712Y-88108045D01*
X82807265Y-88090300D01*
X82719018Y-88089684D01*
X82651445Y-88102574D01*
X82642878Y-88059306D01*
X82609249Y-87977716D01*
X82560412Y-87904211D01*
X82498228Y-87841592D01*
X82425066Y-87792243D01*
X82343712Y-87758045D01*
X82257265Y-87740300D01*
X82169018Y-87739684D01*
X82082332Y-87756220D01*
X82000508Y-87789279D01*
X81926664Y-87837601D01*
X81863612Y-87899346D01*
X81813754Y-87972162D01*
X81778989Y-88053275D01*
X81760641Y-88139596D01*
X81759409Y-88227837D01*
X81775340Y-88314637D01*
X81807826Y-88396689D01*
X81855632Y-88470869D01*
X81916935Y-88534350D01*
X81989401Y-88584715D01*
X82070270Y-88620046D01*
X82156460Y-88638996D01*
X82244691Y-88640844D01*
X82318581Y-88627815D01*
X82325340Y-88664637D01*
X82357826Y-88746689D01*
X82405632Y-88820869D01*
X82466935Y-88884350D01*
X82539401Y-88934715D01*
X82620270Y-88970046D01*
X82706460Y-88988996D01*
X82794691Y-88990844D01*
X82881599Y-88975520D01*
X82963876Y-88943607D01*
X82965194Y-88942770D01*
X82964572Y-88987327D01*
X82976078Y-89050016D01*
X82999541Y-89109276D01*
X83034067Y-89162850D01*
X83078342Y-89208698D01*
X83130678Y-89245073D01*
X83189083Y-89270589D01*
X83226274Y-89278766D01*
X83226874Y-89279196D01*
X83228282Y-89280649D01*
X83246652Y-89293372D01*
X83264881Y-89306438D01*
X83266728Y-89307277D01*
X83268393Y-89308430D01*
X83288909Y-89317353D01*
X83309304Y-89326618D01*
X83311277Y-89327081D01*
X83313135Y-89327890D01*
X83335009Y-89332662D01*
X83356800Y-89337786D01*
X83358823Y-89337857D01*
X83360805Y-89338290D01*
X83364275Y-89338673D01*
X83546831Y-89357558D01*
X82720000Y-90460000D01*
X82719982Y-90460028D01*
X82719962Y-90460051D01*
X82707812Y-90480067D01*
X82694673Y-90501704D01*
X82694661Y-90501735D01*
X82694646Y-90501761D01*
X82693157Y-90504918D01*
X82315038Y-91321174D01*
X82310412Y-91314211D01*
X82248228Y-91251592D01*
X82175066Y-91202243D01*
X82093712Y-91168045D01*
X82007265Y-91150300D01*
X81919018Y-91149684D01*
X81832332Y-91166220D01*
X81750508Y-91199279D01*
X81740019Y-91206142D01*
X81740019Y-90485875D01*
X81722878Y-90399306D01*
X81689249Y-90317716D01*
X81640412Y-90244211D01*
X81578228Y-90181592D01*
X81505066Y-90132243D01*
X81423712Y-90098045D01*
X81337265Y-90080300D01*
X81249018Y-90079684D01*
X81162332Y-90096220D01*
X81080508Y-90129279D01*
X81006664Y-90177601D01*
X80943612Y-90239346D01*
X80893754Y-90312162D01*
X80890019Y-90320876D01*
X80890019Y-89825875D01*
X80872878Y-89739306D01*
X80839249Y-89657716D01*
X80790412Y-89584211D01*
X80728228Y-89521592D01*
X80655066Y-89472243D01*
X80573712Y-89438045D01*
X80487265Y-89420300D01*
X80399018Y-89419684D01*
X80312332Y-89436220D01*
X80230508Y-89469279D01*
X80156664Y-89517601D01*
X80093612Y-89579346D01*
X80043754Y-89652162D01*
X80008989Y-89733275D01*
X79990641Y-89819596D01*
X79989409Y-89907837D01*
X80005340Y-89994637D01*
X80037826Y-90076689D01*
X80085632Y-90150869D01*
X80146935Y-90214350D01*
X80219401Y-90264715D01*
X80300270Y-90300046D01*
X80386460Y-90318996D01*
X80474691Y-90320844D01*
X80561599Y-90305520D01*
X80643876Y-90273607D01*
X80718388Y-90226320D01*
X80782296Y-90165462D01*
X80833166Y-90093349D01*
X80869060Y-90012729D01*
X80888611Y-89926673D01*
X80890019Y-89825875D01*
X80890019Y-90320876D01*
X80858989Y-90393275D01*
X80840641Y-90479596D01*
X80839409Y-90567837D01*
X80855340Y-90654637D01*
X80887826Y-90736689D01*
X80893639Y-90745709D01*
X80827949Y-90870293D01*
X80375148Y-91004718D01*
X79858680Y-90784732D01*
X79856480Y-90779393D01*
X79821209Y-90726306D01*
X79776298Y-90681081D01*
X79723459Y-90645441D01*
X79664703Y-90620742D01*
X79602269Y-90607926D01*
X79538535Y-90607481D01*
X79475928Y-90619424D01*
X79416833Y-90643300D01*
X79363501Y-90678199D01*
X79317964Y-90722793D01*
X79281955Y-90775382D01*
X79256847Y-90833964D01*
X79243595Y-90896307D01*
X79242705Y-90960037D01*
X79254211Y-91022726D01*
X79277674Y-91081986D01*
X79312200Y-91135560D01*
X79356475Y-91181408D01*
X79408811Y-91217783D01*
X79467216Y-91243299D01*
X79529465Y-91256986D01*
X79593187Y-91258321D01*
X79655955Y-91247253D01*
X79662592Y-91244678D01*
X80262031Y-91500005D01*
X80272881Y-91503420D01*
X80283305Y-91507945D01*
X80296080Y-91510722D01*
X80308572Y-91514654D01*
X80319885Y-91515897D01*
X80330984Y-91518310D01*
X80344050Y-91518552D01*
X80357072Y-91519984D01*
X80368411Y-91519005D01*
X80379766Y-91519217D01*
X80392638Y-91516916D01*
X80405683Y-91515791D01*
X80416607Y-91512631D01*
X80427796Y-91510632D01*
X80431150Y-91509662D01*
X81071150Y-91319662D01*
X81071283Y-91319607D01*
X81071416Y-91319582D01*
X81093175Y-91310702D01*
X81116346Y-91301278D01*
X81116466Y-91301198D01*
X81116591Y-91301148D01*
X81136087Y-91288293D01*
X81157110Y-91274466D01*
X81157213Y-91274364D01*
X81157326Y-91274290D01*
X81174387Y-91257465D01*
X81191889Y-91240245D01*
X81191966Y-91240130D01*
X81192067Y-91240032D01*
X81205707Y-91219962D01*
X81219360Y-91199923D01*
X81219415Y-91199793D01*
X81219493Y-91199679D01*
X81221142Y-91196602D01*
X81335952Y-90978858D01*
X81411599Y-90965520D01*
X81493876Y-90933607D01*
X81568388Y-90886320D01*
X81632296Y-90825462D01*
X81683166Y-90753349D01*
X81719060Y-90672729D01*
X81738611Y-90586673D01*
X81740019Y-90485875D01*
X81740019Y-91206142D01*
X81676664Y-91247601D01*
X81613612Y-91309346D01*
X81563754Y-91382162D01*
X81528989Y-91463275D01*
X81510641Y-91549596D01*
X81509409Y-91637837D01*
X81525340Y-91724637D01*
X81557826Y-91806689D01*
X81605632Y-91880869D01*
X81666935Y-91944350D01*
X81739401Y-91994715D01*
X81820270Y-92030046D01*
X81906460Y-92048996D01*
X81993865Y-92050826D01*
X81852158Y-92435899D01*
X81798228Y-92381592D01*
X81725066Y-92332243D01*
X81643712Y-92298045D01*
X81557265Y-92280300D01*
X81469018Y-92279684D01*
X81382332Y-92296220D01*
X81300508Y-92329279D01*
X81226664Y-92377601D01*
X81163612Y-92439346D01*
X81113754Y-92512162D01*
X81078989Y-92593275D01*
X81060641Y-92679596D01*
X81059409Y-92767837D01*
X81075340Y-92854637D01*
X81107826Y-92936689D01*
X81155632Y-93010869D01*
X81216935Y-93074350D01*
X81289401Y-93124715D01*
X81370270Y-93160046D01*
X81456460Y-93178996D01*
X81544691Y-93180844D01*
X81584299Y-93173859D01*
X81584103Y-93174894D01*
X81274103Y-94864895D01*
X81272902Y-94879201D01*
X81270553Y-94893375D01*
X81270346Y-94896860D01*
X81220346Y-95846860D01*
X81220959Y-95860430D01*
X81220393Y-95874017D01*
X81220613Y-95877501D01*
X81311174Y-97167996D01*
X81263712Y-97148045D01*
X81177265Y-97130300D01*
X81089018Y-97129684D01*
X81002332Y-97146220D01*
X80920508Y-97179279D01*
X80846664Y-97227601D01*
X80783612Y-97289346D01*
X80733754Y-97362162D01*
X80698989Y-97443275D01*
X80680641Y-97529596D01*
X80679409Y-97617837D01*
X80695340Y-97704637D01*
X80710136Y-97742010D01*
X80540019Y-97983576D01*
X80540019Y-93685875D01*
X80522878Y-93599306D01*
X80489249Y-93517716D01*
X80440412Y-93444211D01*
X80378228Y-93381592D01*
X80305066Y-93332243D01*
X80223712Y-93298045D01*
X80137265Y-93280300D01*
X80049018Y-93279684D01*
X79962332Y-93296220D01*
X79880508Y-93329279D01*
X79806664Y-93377601D01*
X79743612Y-93439346D01*
X79693754Y-93512162D01*
X79658989Y-93593275D01*
X79640641Y-93679596D01*
X79639409Y-93767837D01*
X79655340Y-93854637D01*
X79687826Y-93936689D01*
X79735632Y-94010869D01*
X79796935Y-94074350D01*
X79869401Y-94124715D01*
X79950270Y-94160046D01*
X80036460Y-94178996D01*
X80124691Y-94180844D01*
X80211599Y-94165520D01*
X80293876Y-94133607D01*
X80368388Y-94086320D01*
X80432296Y-94025462D01*
X80483166Y-93953349D01*
X80519060Y-93872729D01*
X80538611Y-93786673D01*
X80540019Y-93685875D01*
X80540019Y-97983576D01*
X80536217Y-97988975D01*
X80354131Y-97863170D01*
X80352635Y-97855610D01*
X80328347Y-97796683D01*
X80293076Y-97743596D01*
X80248165Y-97698371D01*
X80195326Y-97662731D01*
X80136570Y-97638032D01*
X80074136Y-97625216D01*
X80010402Y-97624771D01*
X79947795Y-97636714D01*
X79888700Y-97660590D01*
X79835368Y-97695489D01*
X79789831Y-97740083D01*
X79753822Y-97792672D01*
X79728714Y-97851254D01*
X79715462Y-97913597D01*
X79714572Y-97977327D01*
X79726078Y-98040016D01*
X79749541Y-98099276D01*
X79784067Y-98152850D01*
X79828342Y-98198698D01*
X79880678Y-98235073D01*
X79939083Y-98260589D01*
X79947956Y-98262540D01*
X79919831Y-98290083D01*
X79883822Y-98342672D01*
X79858714Y-98401254D01*
X79849280Y-98445632D01*
X79797302Y-98490186D01*
X79792123Y-98495585D01*
X79786263Y-98500235D01*
X79775275Y-98513156D01*
X79763532Y-98525402D01*
X79759500Y-98531705D01*
X79754655Y-98537404D01*
X79746387Y-98552211D01*
X79737245Y-98566507D01*
X79734514Y-98573474D01*
X79730869Y-98580004D01*
X79725632Y-98596142D01*
X79719444Y-98611936D01*
X79718119Y-98619297D01*
X79715810Y-98626415D01*
X79713809Y-98643253D01*
X79710804Y-98659956D01*
X79710935Y-98667441D01*
X79710053Y-98674865D01*
X79711361Y-98691779D01*
X79711658Y-98708740D01*
X79713237Y-98716046D01*
X79713815Y-98723511D01*
X79714447Y-98726944D01*
X79805051Y-99200876D01*
X79803822Y-99202672D01*
X79778714Y-99261254D01*
X79765462Y-99323597D01*
X79764572Y-99387327D01*
X79776078Y-99450016D01*
X79799541Y-99509276D01*
X79834067Y-99562850D01*
X79878342Y-99608698D01*
X79930678Y-99645073D01*
X79989083Y-99670589D01*
X80051332Y-99684276D01*
X80115054Y-99685611D01*
X80177822Y-99674543D01*
X80237244Y-99651494D01*
X80291058Y-99617343D01*
X80337214Y-99573390D01*
X80373954Y-99521308D01*
X80399877Y-99463082D01*
X80413998Y-99400930D01*
X80415014Y-99328132D01*
X80402635Y-99265610D01*
X80378347Y-99206683D01*
X80343076Y-99153596D01*
X80298165Y-99108371D01*
X80296164Y-99107021D01*
X80240822Y-98817540D01*
X80257822Y-98814543D01*
X80317244Y-98791494D01*
X80371058Y-98757343D01*
X80417214Y-98713390D01*
X80428012Y-98698081D01*
X80653480Y-99558494D01*
X80636744Y-99597543D01*
X80623492Y-99659886D01*
X80622602Y-99723616D01*
X80634108Y-99786305D01*
X80657571Y-99845565D01*
X80692097Y-99899139D01*
X80736372Y-99944987D01*
X80788708Y-99981362D01*
X80847113Y-100006878D01*
X80909362Y-100020565D01*
X80973084Y-100021900D01*
X81035852Y-100010832D01*
X81095274Y-99987783D01*
X81149088Y-99953632D01*
X81195244Y-99909679D01*
X81231984Y-99857597D01*
X81257907Y-99799371D01*
X81272028Y-99737219D01*
X81273044Y-99664421D01*
X81260665Y-99601899D01*
X81236377Y-99542972D01*
X81201106Y-99489885D01*
X81156195Y-99444660D01*
X81137170Y-99431827D01*
X80864484Y-98391224D01*
X81118949Y-98029885D01*
X81164691Y-98030844D01*
X81251599Y-98015520D01*
X81333876Y-97983607D01*
X81408388Y-97936320D01*
X81411459Y-97933395D01*
X81665432Y-99131829D01*
X81668941Y-99142915D01*
X81671301Y-99154318D01*
X81672363Y-99157644D01*
X81931016Y-99949280D01*
X81887265Y-99940300D01*
X81799018Y-99939684D01*
X81712332Y-99956220D01*
X81630508Y-99989279D01*
X81556664Y-100037601D01*
X81493612Y-100099346D01*
X81443754Y-100172162D01*
X81408989Y-100253275D01*
X81390641Y-100339596D01*
X81389409Y-100427837D01*
X81405340Y-100514637D01*
X81437826Y-100596689D01*
X81485632Y-100670869D01*
X81546935Y-100734350D01*
X81619401Y-100784715D01*
X81700270Y-100820046D01*
X81786460Y-100838996D01*
X81874691Y-100840844D01*
X81961599Y-100825520D01*
X82043876Y-100793607D01*
X82118388Y-100746320D01*
X82182296Y-100685462D01*
X82227794Y-100620963D01*
X82596783Y-101352579D01*
X82605555Y-101366422D01*
X82613434Y-101380822D01*
X82615421Y-101383692D01*
X83469710Y-102599968D01*
X83429018Y-102599684D01*
X83342332Y-102616220D01*
X83260508Y-102649279D01*
X83186664Y-102697601D01*
X83123612Y-102759346D01*
X83073754Y-102832162D01*
X83038989Y-102913275D01*
X83020641Y-102999596D01*
X83019409Y-103087837D01*
X83035340Y-103174637D01*
X83067826Y-103256689D01*
X83115632Y-103330869D01*
X83116467Y-103331734D01*
X82720019Y-103682852D01*
X82720019Y-102585875D01*
X82702878Y-102499306D01*
X82669249Y-102417716D01*
X82620412Y-102344211D01*
X82558228Y-102281592D01*
X82485066Y-102232243D01*
X82403712Y-102198045D01*
X82317265Y-102180300D01*
X82229018Y-102179684D01*
X82142332Y-102196220D01*
X82060508Y-102229279D01*
X81986664Y-102277601D01*
X81923612Y-102339346D01*
X81873754Y-102412162D01*
X81838989Y-102493275D01*
X81820641Y-102579596D01*
X81819409Y-102667837D01*
X81835340Y-102754637D01*
X81867826Y-102836689D01*
X81915632Y-102910869D01*
X81976935Y-102974350D01*
X82049401Y-103024715D01*
X82130270Y-103060046D01*
X82216460Y-103078996D01*
X82304691Y-103080844D01*
X82391599Y-103065520D01*
X82473876Y-103033607D01*
X82548388Y-102986320D01*
X82612296Y-102925462D01*
X82663166Y-102853349D01*
X82699060Y-102772729D01*
X82718611Y-102686673D01*
X82720019Y-102585875D01*
X82720019Y-103682852D01*
X82278465Y-104073919D01*
X82258872Y-104073783D01*
X82196265Y-104085726D01*
X82137170Y-104109602D01*
X82083838Y-104144501D01*
X82038301Y-104189095D01*
X82002292Y-104241684D01*
X81977184Y-104300266D01*
X81963932Y-104362609D01*
X81963042Y-104426339D01*
X81974548Y-104489028D01*
X81998011Y-104548288D01*
X82032537Y-104601862D01*
X82076812Y-104647710D01*
X82129148Y-104684085D01*
X82187553Y-104709601D01*
X82249802Y-104723288D01*
X82313524Y-104724623D01*
X82376292Y-104713555D01*
X82435714Y-104690506D01*
X82489528Y-104656355D01*
X82535684Y-104612402D01*
X82572424Y-104560320D01*
X82598347Y-104502094D01*
X82610741Y-104447541D01*
X83525753Y-103637152D01*
X83540435Y-103621335D01*
X83555445Y-103605888D01*
X83556999Y-103603491D01*
X83558948Y-103601393D01*
X83570271Y-103583036D01*
X83582002Y-103564958D01*
X83583063Y-103562301D01*
X83584565Y-103559867D01*
X83592097Y-103539687D01*
X83600103Y-103519649D01*
X83601051Y-103516289D01*
X83611651Y-103477742D01*
X83673876Y-103453607D01*
X83748388Y-103406320D01*
X83812296Y-103345462D01*
X83863166Y-103273349D01*
X83899060Y-103192729D01*
X83901633Y-103181399D01*
X84736868Y-104080184D01*
X84737670Y-104080894D01*
X84738332Y-104081747D01*
X84755964Y-104097078D01*
X84773411Y-104112514D01*
X84774340Y-104113056D01*
X84775151Y-104113762D01*
X84778011Y-104115764D01*
X85492072Y-104608508D01*
X85459831Y-104640083D01*
X85423822Y-104692672D01*
X85398714Y-104751254D01*
X85385462Y-104813597D01*
X85384572Y-104877327D01*
X85396078Y-104940016D01*
X85419541Y-104999276D01*
X85454067Y-105052850D01*
X85498342Y-105098698D01*
X85550678Y-105135073D01*
X85609083Y-105160589D01*
X85671332Y-105174276D01*
X85735054Y-105175611D01*
X85745072Y-105173844D01*
X86081325Y-105398013D01*
X86087587Y-105401355D01*
X86093324Y-105405530D01*
X86096346Y-105407278D01*
X87163723Y-106014729D01*
X87155462Y-106053597D01*
X87154572Y-106117327D01*
X87166078Y-106180016D01*
X87189541Y-106239276D01*
X87224067Y-106292850D01*
X87268342Y-106338698D01*
X87320678Y-106375073D01*
X87379083Y-106400589D01*
X87441332Y-106414276D01*
X87505054Y-106415611D01*
X87567822Y-106404543D01*
X87627244Y-106381494D01*
X87681058Y-106347343D01*
X87727214Y-106303390D01*
X87763954Y-106251308D01*
X87789877Y-106193082D01*
X87803998Y-106130930D01*
X87804081Y-106124962D01*
X87835054Y-106125611D01*
X87897822Y-106114543D01*
X87957244Y-106091494D01*
X88011058Y-106057343D01*
X88057214Y-106013390D01*
X88093954Y-105961308D01*
X88119877Y-105903082D01*
X88133998Y-105840930D01*
X88135014Y-105768132D01*
X88122635Y-105705610D01*
X88120762Y-105701066D01*
X88253291Y-105757223D01*
X89357885Y-106074114D01*
X89218848Y-106100637D01*
X89064293Y-106163082D01*
X88924810Y-106254357D01*
X88805711Y-106370987D01*
X88711535Y-106508528D01*
X88668726Y-106608407D01*
X88670019Y-106515875D01*
X88652878Y-106429306D01*
X88619249Y-106347716D01*
X88570412Y-106274211D01*
X88508228Y-106211592D01*
X88435066Y-106162243D01*
X88353712Y-106128045D01*
X88267265Y-106110300D01*
X88179018Y-106109684D01*
X88092332Y-106126220D01*
X88010508Y-106159279D01*
X87936664Y-106207601D01*
X87873612Y-106269346D01*
X87823754Y-106342162D01*
X87788989Y-106423275D01*
X87770641Y-106509596D01*
X87769409Y-106597837D01*
X87785340Y-106684637D01*
X87817826Y-106766689D01*
X87865632Y-106840869D01*
X87926935Y-106904350D01*
X87999401Y-106954715D01*
X88080270Y-106990046D01*
X88166460Y-107008996D01*
X88254691Y-107010844D01*
X88341599Y-106995520D01*
X88423876Y-106963607D01*
X88498388Y-106916320D01*
X88562296Y-106855462D01*
X88613166Y-106783349D01*
X88626279Y-106753895D01*
X88611210Y-106824793D01*
X88608882Y-106991470D01*
X88638974Y-107155425D01*
X88700338Y-107310413D01*
X88790637Y-107450530D01*
X88906432Y-107570440D01*
X89043313Y-107665574D01*
X89196065Y-107732310D01*
X89358870Y-107768105D01*
X89525527Y-107771596D01*
X89689688Y-107742650D01*
X89845100Y-107682369D01*
X89985844Y-107593050D01*
X90106559Y-107478095D01*
X90202647Y-107341882D01*
X90270447Y-107189600D01*
X90307378Y-107027049D01*
X90310037Y-106836653D01*
X90277659Y-106673134D01*
X90214137Y-106519018D01*
X90121890Y-106380176D01*
X90004432Y-106261895D01*
X89886600Y-106182416D01*
X90174691Y-106234433D01*
X90178311Y-106243601D01*
X90181975Y-106255736D01*
X90183192Y-106258632D01*
X90213192Y-106328632D01*
X90222363Y-106345316D01*
X90231065Y-106362182D01*
X90232789Y-106364808D01*
X90272789Y-106424808D01*
X90285864Y-106440788D01*
X90298696Y-106456862D01*
X90300574Y-106458767D01*
X90300596Y-106458794D01*
X90300619Y-106458813D01*
X90300901Y-106459099D01*
X90360901Y-106519099D01*
X90370671Y-106527124D01*
X90379735Y-106535928D01*
X90387594Y-106541025D01*
X90394834Y-106546972D01*
X90405973Y-106552944D01*
X90416577Y-106559822D01*
X90419377Y-106561246D01*
X90499377Y-106601246D01*
X90500352Y-106601619D01*
X90501239Y-106602166D01*
X90520832Y-106609466D01*
X90540383Y-106616958D01*
X90541410Y-106617134D01*
X90542388Y-106617499D01*
X90545429Y-106618282D01*
X90585429Y-106628282D01*
X90595791Y-106629819D01*
X90605939Y-106632407D01*
X90609047Y-106632861D01*
X90619493Y-106634311D01*
X90613107Y-106661371D01*
X90618239Y-106690186D01*
X90674207Y-106878064D01*
X90765752Y-107051413D01*
X90889357Y-107203571D01*
X91040272Y-107328692D01*
X91212697Y-107421966D01*
X91400006Y-107479810D01*
X91595000Y-107500000D01*
X91950000Y-107500000D01*
X91950000Y-109750074D01*
X91580037Y-109736286D01*
X91580037Y-108236653D01*
X91547659Y-108073134D01*
X91484137Y-107919018D01*
X91391890Y-107780176D01*
X91274432Y-107661895D01*
X91136237Y-107568681D01*
X90982568Y-107504084D01*
X90819279Y-107470566D01*
X90652590Y-107469402D01*
X90488848Y-107500637D01*
X90334293Y-107563082D01*
X90194810Y-107654357D01*
X90075711Y-107770987D01*
X89981535Y-107908528D01*
X89915867Y-108061742D01*
X89881210Y-108224793D01*
X89878882Y-108391470D01*
X89908974Y-108555425D01*
X89970338Y-108710413D01*
X90060637Y-108850530D01*
X90176432Y-108970440D01*
X90313313Y-109065574D01*
X90466065Y-109132310D01*
X90628870Y-109168105D01*
X90795527Y-109171596D01*
X90959688Y-109142650D01*
X91115100Y-109082369D01*
X91255844Y-108993050D01*
X91376559Y-108878095D01*
X91472647Y-108741882D01*
X91540447Y-108589600D01*
X91577378Y-108427049D01*
X91580037Y-108236653D01*
X91580037Y-109736286D01*
X91087665Y-109717937D01*
X91078165Y-109708371D01*
X91025326Y-109672731D01*
X90966570Y-109648032D01*
X90904136Y-109635216D01*
X90840402Y-109634771D01*
X90777795Y-109646714D01*
X90718700Y-109670590D01*
X90665368Y-109705489D01*
X90619831Y-109750083D01*
X90583822Y-109802672D01*
X90558714Y-109861254D01*
X90545462Y-109923597D01*
X90544572Y-109987327D01*
X90556078Y-110050016D01*
X90579541Y-110109276D01*
X90614067Y-110162850D01*
X90658342Y-110208698D01*
X90710678Y-110245073D01*
X90769083Y-110270589D01*
X90831332Y-110284276D01*
X90895054Y-110285611D01*
X90957822Y-110274543D01*
X91017244Y-110251494D01*
X91070576Y-110217648D01*
X91950000Y-110250422D01*
X91950000Y-110568652D01*
X89837286Y-110460308D01*
X89040037Y-110265272D01*
X89040037Y-108236653D01*
X89007659Y-108073134D01*
X88944137Y-107919018D01*
X88851890Y-107780176D01*
X88734432Y-107661895D01*
X88596237Y-107568681D01*
X88442568Y-107504084D01*
X88279279Y-107470566D01*
X88112590Y-107469402D01*
X87948848Y-107500637D01*
X87794293Y-107563082D01*
X87654810Y-107654357D01*
X87535711Y-107770987D01*
X87441535Y-107908528D01*
X87375867Y-108061742D01*
X87341210Y-108224793D01*
X87338882Y-108391470D01*
X87368974Y-108555425D01*
X87430338Y-108710413D01*
X87520637Y-108850530D01*
X87636432Y-108970440D01*
X87773313Y-109065574D01*
X87926065Y-109132310D01*
X88088870Y-109168105D01*
X88255527Y-109171596D01*
X88419688Y-109142650D01*
X88575100Y-109082369D01*
X88715844Y-108993050D01*
X88836559Y-108878095D01*
X88932647Y-108741882D01*
X89000447Y-108589600D01*
X89037378Y-108427049D01*
X89040037Y-108236653D01*
X89040037Y-110265272D01*
X87516059Y-109892454D01*
X85821614Y-109152889D01*
X85879688Y-109142650D01*
X86035100Y-109082369D01*
X86175844Y-108993050D01*
X86296559Y-108878095D01*
X86392647Y-108741882D01*
X86460447Y-108589600D01*
X86497378Y-108427049D01*
X86500037Y-108236653D01*
X86467659Y-108073134D01*
X86404137Y-107919018D01*
X86311890Y-107780176D01*
X86194432Y-107661895D01*
X86056237Y-107568681D01*
X85902568Y-107504084D01*
X85739279Y-107470566D01*
X85572590Y-107469402D01*
X85408848Y-107500637D01*
X85254293Y-107563082D01*
X85230019Y-107578966D01*
X85230019Y-105055875D01*
X85212878Y-104969306D01*
X85179249Y-104887716D01*
X85130412Y-104814211D01*
X85068228Y-104751592D01*
X84995066Y-104702243D01*
X84913712Y-104668045D01*
X84827265Y-104650300D01*
X84739018Y-104649684D01*
X84652332Y-104666220D01*
X84570508Y-104699279D01*
X84496664Y-104747601D01*
X84433612Y-104809346D01*
X84383754Y-104882162D01*
X84348989Y-104963275D01*
X84330641Y-105049596D01*
X84329409Y-105137837D01*
X84345340Y-105224637D01*
X84377826Y-105306689D01*
X84425632Y-105380869D01*
X84486935Y-105444350D01*
X84559401Y-105494715D01*
X84640270Y-105530046D01*
X84726460Y-105548996D01*
X84814691Y-105550844D01*
X84901599Y-105535520D01*
X84983876Y-105503607D01*
X85058388Y-105456320D01*
X85122296Y-105395462D01*
X85173166Y-105323349D01*
X85209060Y-105242729D01*
X85228611Y-105156673D01*
X85230019Y-105055875D01*
X85230019Y-107578966D01*
X85114810Y-107654357D01*
X84995711Y-107770987D01*
X84901535Y-107908528D01*
X84835867Y-108061742D01*
X84801210Y-108224793D01*
X84798882Y-108391470D01*
X84828974Y-108555425D01*
X84844390Y-108594363D01*
X84700019Y-108509403D01*
X84700019Y-105925875D01*
X84682878Y-105839306D01*
X84649249Y-105757716D01*
X84600412Y-105684211D01*
X84538228Y-105621592D01*
X84465066Y-105572243D01*
X84383712Y-105538045D01*
X84297265Y-105520300D01*
X84209018Y-105519684D01*
X84122332Y-105536220D01*
X84040508Y-105569279D01*
X83966664Y-105617601D01*
X83903612Y-105679346D01*
X83853754Y-105752162D01*
X83818989Y-105833275D01*
X83800641Y-105919596D01*
X83799409Y-106007837D01*
X83815340Y-106094637D01*
X83847826Y-106176689D01*
X83895632Y-106250869D01*
X83956935Y-106314350D01*
X84029401Y-106364715D01*
X84110270Y-106400046D01*
X84196460Y-106418996D01*
X84284691Y-106420844D01*
X84371599Y-106405520D01*
X84453876Y-106373607D01*
X84528388Y-106326320D01*
X84592296Y-106265462D01*
X84643166Y-106193349D01*
X84679060Y-106112729D01*
X84698611Y-106026673D01*
X84700019Y-105925875D01*
X84700019Y-108509403D01*
X83584805Y-107853125D01*
X83584805Y-104779427D01*
X83567664Y-104692858D01*
X83534035Y-104611268D01*
X83485198Y-104537763D01*
X83423014Y-104475144D01*
X83349852Y-104425795D01*
X83268498Y-104391597D01*
X83182051Y-104373852D01*
X83093804Y-104373236D01*
X83007118Y-104389772D01*
X82925294Y-104422831D01*
X82851450Y-104471153D01*
X82788398Y-104532898D01*
X82738540Y-104605714D01*
X82703775Y-104686827D01*
X82685427Y-104773148D01*
X82684195Y-104861389D01*
X82700126Y-104948189D01*
X82732612Y-105030241D01*
X82780418Y-105104421D01*
X82841721Y-105167902D01*
X82914187Y-105218267D01*
X82995056Y-105253598D01*
X83081246Y-105272548D01*
X83169477Y-105274396D01*
X83256385Y-105259072D01*
X83338662Y-105227159D01*
X83413174Y-105179872D01*
X83477082Y-105119014D01*
X83527952Y-105046901D01*
X83563846Y-104966281D01*
X83583397Y-104880225D01*
X83584805Y-104779427D01*
X83584805Y-107853125D01*
X83288754Y-107678906D01*
X81705494Y-106374459D01*
X80001111Y-104311258D01*
X78774929Y-102217776D01*
X78187623Y-100784352D01*
X77649416Y-98641491D01*
X77450074Y-96548404D01*
X77529875Y-93994776D01*
X77665994Y-93149701D01*
X77682078Y-93153712D01*
X77721430Y-93155602D01*
X77760393Y-93149779D01*
X77797472Y-93136466D01*
X77831242Y-93116176D01*
X77860404Y-93089687D01*
X77883838Y-93058017D01*
X77900643Y-93022385D01*
X77910174Y-92984159D01*
X77988872Y-92668519D01*
X77952453Y-92607909D01*
X77760953Y-92560162D01*
X77762549Y-92550254D01*
X77954872Y-92598206D01*
X78015483Y-92561787D01*
X78094181Y-92246148D01*
X78103712Y-92207921D01*
X78105602Y-92168570D01*
X78099779Y-92129606D01*
X78086466Y-92092527D01*
X78066175Y-92058758D01*
X78039686Y-92029596D01*
X78009890Y-92007548D01*
X78030503Y-92008137D01*
X78085133Y-91994003D01*
X78133681Y-91965238D01*
X78172318Y-91924111D01*
X78197999Y-91873864D01*
X78376443Y-91355623D01*
X78562856Y-91292646D01*
X78433578Y-91668730D01*
X78429381Y-91686385D01*
X78424307Y-91703795D01*
X78423752Y-91710065D01*
X78422295Y-91716199D01*
X78421607Y-91734346D01*
X78420012Y-91752398D01*
X78420685Y-91758653D01*
X78420447Y-91764956D01*
X78423295Y-91782877D01*
X78425238Y-91800908D01*
X78427117Y-91806925D01*
X78428106Y-91813142D01*
X78434372Y-91830148D01*
X78439787Y-91847480D01*
X78441171Y-91850685D01*
X78615892Y-92247779D01*
X78604780Y-92258662D01*
X78568771Y-92311251D01*
X78543663Y-92369833D01*
X78530411Y-92432176D01*
X78529521Y-92495906D01*
X78541027Y-92558595D01*
X78564490Y-92617855D01*
X78599016Y-92671429D01*
X78643291Y-92717277D01*
X78695627Y-92753652D01*
X78754032Y-92779168D01*
X78816281Y-92792855D01*
X78880003Y-92794190D01*
X78942771Y-92783122D01*
X79002193Y-92760073D01*
X79056007Y-92725922D01*
X79102163Y-92681969D01*
X79138903Y-92629887D01*
X79164826Y-92571661D01*
X79178947Y-92509509D01*
X79179963Y-92436711D01*
X79167584Y-92374189D01*
X79143296Y-92315262D01*
X79134782Y-92302448D01*
X79136846Y-92289583D01*
X79138135Y-92268563D01*
X79139988Y-92247602D01*
X79139627Y-92244253D01*
X79139834Y-92240883D01*
X79137013Y-92219994D01*
X79134762Y-92199092D01*
X79133757Y-92195877D01*
X79133306Y-92192531D01*
X79126488Y-92172606D01*
X79120213Y-92152520D01*
X79118829Y-92149315D01*
X78938205Y-91738807D01*
X79233717Y-90879138D01*
X79650496Y-89886808D01*
X79653205Y-89878046D01*
X79656960Y-89869687D01*
X79660393Y-89854800D01*
X79664910Y-89840194D01*
X79665865Y-89831073D01*
X79667925Y-89822145D01*
X79668401Y-89806873D01*
X79669995Y-89791668D01*
X79669161Y-89782537D01*
X79669447Y-89773376D01*
X79666946Y-89758295D01*
X79665557Y-89743079D01*
X79662966Y-89734286D01*
X79661467Y-89725242D01*
X79656088Y-89710941D01*
X79651768Y-89696277D01*
X79647517Y-89688153D01*
X79644291Y-89679574D01*
X79642727Y-89676453D01*
X79382727Y-89166453D01*
X79379737Y-89161780D01*
X79377489Y-89156718D01*
X79366617Y-89141275D01*
X79356430Y-89125354D01*
X79356082Y-89124991D01*
X79428412Y-88988959D01*
X79441319Y-88959065D01*
X79451734Y-88903605D01*
X79446321Y-88847436D01*
X79425505Y-88794986D01*
X79390928Y-88750391D01*
X79345317Y-88717166D01*
X79325091Y-88706412D01*
X79652302Y-88146711D01*
X79963606Y-87689130D01*
X79980367Y-87701307D01*
X80008174Y-87718250D01*
X80061645Y-87736282D01*
X80118021Y-87738738D01*
X80172857Y-87725424D01*
X80221830Y-87697390D01*
X80261079Y-87656847D01*
X80731307Y-87009633D01*
X80748250Y-86981826D01*
X80766282Y-86928355D01*
X80768738Y-86871979D01*
X80755424Y-86817143D01*
X80733552Y-86778935D01*
X80752309Y-86787537D01*
X80808119Y-86795872D01*
X80864047Y-86788363D01*
X80915682Y-86765602D01*
X80958954Y-86729384D01*
X81494258Y-86134868D01*
X81514014Y-86108984D01*
X81537537Y-86057691D01*
X81545872Y-86001881D01*
X81538363Y-85945953D01*
X81516133Y-85895522D01*
X81549532Y-85913760D01*
X81604625Y-85925968D01*
X81660940Y-85922379D01*
X81714038Y-85903275D01*
X81759731Y-85870163D01*
X82335203Y-85314437D01*
X82356716Y-85289995D01*
X82383760Y-85240468D01*
X82395968Y-85185375D01*
X82392379Y-85129060D01*
X82373275Y-85075962D01*
X82340163Y-85030269D01*
X82324841Y-85014403D01*
X82392984Y-84947681D01*
X83289553Y-84247235D01*
X83307147Y-84272361D01*
X83327923Y-84297434D01*
X83372610Y-84331892D01*
X83425115Y-84352568D01*
X83481298Y-84357833D01*
X83536730Y-84347270D01*
X83587040Y-84321714D01*
X84242361Y-83862853D01*
X84267434Y-83842077D01*
X84301892Y-83797390D01*
X84322568Y-83744885D01*
X84327833Y-83688702D01*
X84319141Y-83643092D01*
X84339572Y-83661903D01*
X84390075Y-83687077D01*
X84445586Y-83697218D01*
X84501727Y-83691527D01*
X84554074Y-83670453D01*
X84982920Y-83422857D01*
X84986846Y-83428719D01*
X84990012Y-83431884D01*
X84992635Y-83435513D01*
X85007242Y-83449108D01*
X85021354Y-83463214D01*
X85025074Y-83465703D01*
X85028351Y-83468753D01*
X85045318Y-83479249D01*
X85061904Y-83490348D01*
X85066038Y-83492068D01*
X85069845Y-83494423D01*
X85088524Y-83501423D01*
X85106952Y-83509090D01*
X85110297Y-83510087D01*
X85420297Y-83600086D01*
X85438201Y-83603433D01*
X85455920Y-83607666D01*
X85462137Y-83607908D01*
X85468258Y-83609053D01*
X85486479Y-83608858D01*
X85504675Y-83609569D01*
X85510821Y-83608599D01*
X85517047Y-83608533D01*
X85534876Y-83604804D01*
X85552870Y-83601966D01*
X85558715Y-83599819D01*
X85564805Y-83598546D01*
X85581563Y-83591428D01*
X85598670Y-83585147D01*
X85601803Y-83583607D01*
X86055241Y-83356888D01*
X86556258Y-83142166D01*
X86611332Y-83154276D01*
X86675054Y-83155611D01*
X86737822Y-83144543D01*
X86797244Y-83121494D01*
X86851058Y-83087343D01*
X86897214Y-83043390D01*
X86933954Y-82991308D01*
X86959877Y-82933082D01*
X86973998Y-82870930D01*
X86975014Y-82798132D01*
X86962635Y-82735610D01*
X86938347Y-82676683D01*
X86903076Y-82623596D01*
X86858165Y-82578371D01*
X86832776Y-82561246D01*
X87391420Y-82357917D01*
X87421015Y-82344338D01*
X87465865Y-82310092D01*
X87499426Y-82264728D01*
X87519053Y-82211822D01*
X87523197Y-82155545D01*
X87511533Y-82100334D01*
X87505015Y-82082426D01*
X87545027Y-82067746D01*
X89318871Y-81599371D01*
X91052983Y-81429947D01*
X92417863Y-81400059D01*
X94640505Y-81639267D01*
X96595275Y-82187799D01*
X97696357Y-82557694D01*
X97643612Y-82609346D01*
X97593754Y-82682162D01*
X97558989Y-82763275D01*
X97540641Y-82849596D01*
X97539409Y-82937837D01*
X97555340Y-83024637D01*
X97587826Y-83106689D01*
X97635632Y-83180869D01*
X97696935Y-83244350D01*
X97769401Y-83294715D01*
X97850270Y-83330046D01*
X97936460Y-83348996D01*
X98024691Y-83350844D01*
X98111599Y-83335520D01*
X98193876Y-83303607D01*
X98268388Y-83256320D01*
X98332296Y-83195462D01*
X98383166Y-83123349D01*
X98419060Y-83042729D01*
X98438611Y-82956673D01*
X98439045Y-82925600D01*
X99115542Y-83293615D01*
X100203387Y-83922147D01*
M02*
