G04 #@! TF.FileFunction,Copper,L1,Top,Signal*
%FSLAX46Y46*%
G04 Gerber Fmt 4.6, Leading zero omitted, Abs format (unit mm)*
G04 Created by KiCad (PCBNEW 0.201503110816+5502~22~ubuntu14.04.1-product) date ថ្ងៃ​អាទិត្យ ថ្ងៃ 29 ខែ មិនា ឆ្នាំ  2015, 13 ម៉ោង m នាទី 44 វិនាទី​*
%MOMM*%
G01*
G04 APERTURE LIST*
%ADD10C,0.020000*%
%ADD11C,0.250000*%
%ADD12O,0.450000X0.850000*%
%ADD13R,2.400000X1.500000*%
%ADD14C,0.250000*%
%ADD15R,0.500000X0.500000*%
%ADD16C,1.600000*%
%ADD17O,5.400000X1.600000*%
%ADD18O,2.400000X1.600000*%
%ADD19C,1.300000*%
%ADD20R,1.000000X0.800000*%
%ADD21R,0.600000X0.500000*%
%ADD22C,1.000000*%
%ADD23C,0.500000*%
%ADD24C,0.400000*%
%ADD25C,0.150000*%
%ADD26C,0.300000*%
%ADD27C,0.100000*%
%ADD28C,0.200000*%
%ADD29C,0.800000*%
%ADD30C,0.500000*%
G04 APERTURE END LIST*
D10*
D11*
X96818676Y-83466067D03*
X96701728Y-83848589D03*
X96584779Y-84231111D03*
X96467830Y-84613633D03*
X96350882Y-84996155D03*
X96233933Y-85378676D03*
X96436155Y-83349118D03*
X96319206Y-83731640D03*
X96085309Y-84496684D03*
X95968360Y-84879206D03*
X95851411Y-85261728D03*
X96053633Y-83232170D03*
X95936684Y-83614691D03*
X95819735Y-83997213D03*
X95585838Y-84762257D03*
X95468889Y-85144779D03*
X95671111Y-83115221D03*
X95554162Y-83497743D03*
X95437213Y-83880265D03*
X95320265Y-84262787D03*
X95203316Y-84645309D03*
X95086367Y-85027830D03*
X95288589Y-82998272D03*
X95171640Y-83380794D03*
X95054691Y-83763316D03*
X94937743Y-84145838D03*
X94820794Y-84528360D03*
X94703845Y-84910882D03*
X94906067Y-82881324D03*
X94789118Y-83263845D03*
X94672170Y-83646367D03*
X94555221Y-84028889D03*
X94438272Y-84411411D03*
X94321324Y-84793933D03*
D10*
G36*
X87200800Y-83011337D02*
X87432268Y-82916877D01*
X87583404Y-83287225D01*
X87351936Y-83381685D01*
X87200800Y-83011337D01*
X87200800Y-83011337D01*
G37*
G36*
X86737865Y-83200258D02*
X86969333Y-83105798D01*
X87120469Y-83476146D01*
X86889001Y-83570606D01*
X86737865Y-83200258D01*
X86737865Y-83200258D01*
G37*
G36*
X86274929Y-83389178D02*
X86506397Y-83294718D01*
X86657533Y-83665066D01*
X86426065Y-83759526D01*
X86274929Y-83389178D01*
X86274929Y-83389178D01*
G37*
G36*
X85811994Y-83578098D02*
X86043462Y-83483638D01*
X86194598Y-83853986D01*
X85963130Y-83948446D01*
X85811994Y-83578098D01*
X85811994Y-83578098D01*
G37*
G36*
X86756596Y-85892775D02*
X86988064Y-85798315D01*
X87139200Y-86168663D01*
X86907732Y-86263123D01*
X86756596Y-85892775D01*
X86756596Y-85892775D01*
G37*
G36*
X87219531Y-85703854D02*
X87450999Y-85609394D01*
X87602135Y-85979742D01*
X87370667Y-86074202D01*
X87219531Y-85703854D01*
X87219531Y-85703854D01*
G37*
G36*
X87682467Y-85514934D02*
X87913935Y-85420474D01*
X88065071Y-85790822D01*
X87833603Y-85885282D01*
X87682467Y-85514934D01*
X87682467Y-85514934D01*
G37*
G36*
X88145402Y-85326014D02*
X88376870Y-85231554D01*
X88528006Y-85601902D01*
X88296538Y-85696362D01*
X88145402Y-85326014D01*
X88145402Y-85326014D01*
G37*
G36*
X80993304Y-88230561D02*
X80808397Y-88062308D01*
X81077602Y-87766455D01*
X81262509Y-87934708D01*
X80993304Y-88230561D01*
X80993304Y-88230561D01*
G37*
G36*
X81363119Y-88567067D02*
X81178212Y-88398814D01*
X81447417Y-88102961D01*
X81632324Y-88271214D01*
X81363119Y-88567067D01*
X81363119Y-88567067D01*
G37*
G36*
X81732935Y-88903573D02*
X81548028Y-88735320D01*
X81817233Y-88439467D01*
X82002140Y-88607720D01*
X81732935Y-88903573D01*
X81732935Y-88903573D01*
G37*
G36*
X82102750Y-89240080D02*
X81917843Y-89071827D01*
X82187048Y-88775974D01*
X82371955Y-88944227D01*
X82102750Y-89240080D01*
X82102750Y-89240080D01*
G37*
G36*
X82472566Y-89576586D02*
X82287659Y-89408333D01*
X82556864Y-89112480D01*
X82741771Y-89280733D01*
X82472566Y-89576586D01*
X82472566Y-89576586D01*
G37*
G36*
X83507067Y-88996881D02*
X83338814Y-89181788D01*
X83042961Y-88912583D01*
X83211214Y-88727676D01*
X83507067Y-88996881D01*
X83507067Y-88996881D01*
G37*
G36*
X83843573Y-88627065D02*
X83675320Y-88811972D01*
X83379467Y-88542767D01*
X83547720Y-88357860D01*
X83843573Y-88627065D01*
X83843573Y-88627065D01*
G37*
G36*
X84180080Y-88257250D02*
X84011827Y-88442157D01*
X83715974Y-88172952D01*
X83884227Y-87988045D01*
X84180080Y-88257250D01*
X84180080Y-88257250D01*
G37*
G36*
X84222398Y-87653545D02*
X84037491Y-87485292D01*
X84306696Y-87189439D01*
X84491603Y-87357692D01*
X84222398Y-87653545D01*
X84222398Y-87653545D01*
G37*
G36*
X83852583Y-87317039D02*
X83667676Y-87148786D01*
X83936881Y-86852933D01*
X84121788Y-87021186D01*
X83852583Y-87317039D01*
X83852583Y-87317039D01*
G37*
G36*
X83482767Y-86980533D02*
X83297860Y-86812280D01*
X83567065Y-86516427D01*
X83751972Y-86684680D01*
X83482767Y-86980533D01*
X83482767Y-86980533D01*
G37*
G36*
X83112952Y-86644026D02*
X82928045Y-86475773D01*
X83197250Y-86179920D01*
X83382157Y-86348173D01*
X83112952Y-86644026D01*
X83112952Y-86644026D01*
G37*
G36*
X82743136Y-86307520D02*
X82558229Y-86139267D01*
X82827434Y-85843414D01*
X83012341Y-86011667D01*
X82743136Y-86307520D01*
X82743136Y-86307520D01*
G37*
G36*
X82257039Y-86507417D02*
X82088786Y-86692324D01*
X81792933Y-86423119D01*
X81961186Y-86238212D01*
X82257039Y-86507417D01*
X82257039Y-86507417D01*
G37*
G36*
X81920533Y-86877233D02*
X81752280Y-87062140D01*
X81456427Y-86792935D01*
X81624680Y-86608028D01*
X81920533Y-86877233D01*
X81920533Y-86877233D01*
G37*
G36*
X81584026Y-87247048D02*
X81415773Y-87431955D01*
X81119920Y-87162750D01*
X81288173Y-86977843D01*
X81584026Y-87247048D01*
X81584026Y-87247048D01*
G37*
D11*
X78854949Y-92468579D03*
X78751421Y-92854949D03*
X78468579Y-92365051D03*
X78365051Y-92751421D03*
D12*
X78500000Y-97450000D03*
X79500000Y-97450000D03*
X80500000Y-97450000D03*
X80500000Y-94550000D03*
X79500000Y-94550000D03*
X78500000Y-94550000D03*
D13*
X79500000Y-96000000D03*
D14*
X81168440Y-92333474D02*
X80939002Y-92234188D01*
X81426586Y-91736933D02*
X81197148Y-91637647D01*
X81684732Y-91140393D02*
X81455294Y-91041107D01*
X79940998Y-90385812D02*
X79711560Y-90286526D01*
X79682852Y-90982353D02*
X79453414Y-90883067D01*
X79424706Y-91578893D02*
X79195268Y-91479607D01*
D10*
G36*
X81006345Y-90819589D02*
X80470195Y-92058557D01*
X79873655Y-91800411D01*
X80409805Y-90561443D01*
X81006345Y-90819589D01*
X81006345Y-90819589D01*
G37*
G36*
X82452558Y-103923407D02*
X82666900Y-103713508D01*
X82981748Y-104035021D01*
X82767406Y-104244920D01*
X82452558Y-103923407D01*
X82452558Y-103923407D01*
G37*
G36*
X82023875Y-104343205D02*
X82238217Y-104133306D01*
X82553065Y-104454819D01*
X82338723Y-104664718D01*
X82023875Y-104343205D01*
X82023875Y-104343205D01*
G37*
G36*
X82013508Y-105333100D02*
X81803609Y-105118758D01*
X82125122Y-104803910D01*
X82335021Y-105018252D01*
X82013508Y-105333100D01*
X82013508Y-105333100D01*
G37*
G36*
X82433306Y-105761784D02*
X82223407Y-105547442D01*
X82544920Y-105232594D01*
X82754819Y-105446936D01*
X82433306Y-105761784D01*
X82433306Y-105761784D01*
G37*
G36*
X82853104Y-106190467D02*
X82643205Y-105976125D01*
X82964718Y-105661277D01*
X83174617Y-105875619D01*
X82853104Y-106190467D01*
X82853104Y-106190467D01*
G37*
G36*
X83318252Y-105664979D02*
X83532594Y-105455080D01*
X83847442Y-105776593D01*
X83633100Y-105986492D01*
X83318252Y-105664979D01*
X83318252Y-105664979D01*
G37*
G36*
X83746935Y-105245181D02*
X83961277Y-105035282D01*
X84276125Y-105356795D01*
X84061783Y-105566694D01*
X83746935Y-105245181D01*
X83746935Y-105245181D01*
G37*
G36*
X84174878Y-104896090D02*
X83964979Y-104681748D01*
X84286492Y-104366900D01*
X84496391Y-104581242D01*
X84174878Y-104896090D01*
X84174878Y-104896090D01*
G37*
G36*
X83755080Y-104467406D02*
X83545181Y-104253064D01*
X83866694Y-103938216D01*
X84076593Y-104152558D01*
X83755080Y-104467406D01*
X83755080Y-104467406D01*
G37*
G36*
X83335282Y-104038723D02*
X83125383Y-103824381D01*
X83446896Y-103509533D01*
X83656795Y-103723875D01*
X83335282Y-104038723D01*
X83335282Y-104038723D01*
G37*
G36*
X94241057Y-82338678D02*
X94171332Y-83135634D01*
X93573615Y-83083340D01*
X93643340Y-82286384D01*
X94241057Y-82338678D01*
X94241057Y-82338678D01*
G37*
G36*
X92846385Y-82216660D02*
X92776660Y-83013616D01*
X92178943Y-82961322D01*
X92248668Y-82164366D01*
X92846385Y-82216660D01*
X92846385Y-82216660D01*
G37*
D15*
X92450000Y-110250000D03*
X91550000Y-110250000D03*
D16*
X100845913Y-99563789D02*
X98754087Y-102736211D01*
D17*
X92000000Y-86650000D03*
D16*
X85243143Y-102738034D02*
X83156857Y-99561966D01*
D18*
X92000000Y-106500000D03*
D19*
X85650000Y-108320000D03*
X90730000Y-108320000D03*
X88190000Y-108320000D03*
X93270000Y-108320000D03*
X85400000Y-86200000D03*
X98600000Y-105800000D03*
X98350000Y-108320000D03*
X95820000Y-108320000D03*
X89460000Y-106920000D03*
X94550000Y-106920000D03*
D10*
G36*
X82195599Y-85169873D02*
X81620127Y-85725599D01*
X81064401Y-85150127D01*
X81639873Y-84594401D01*
X82195599Y-85169873D01*
X82195599Y-85169873D01*
G37*
G36*
X87322685Y-82169069D02*
X86570931Y-82442685D01*
X86297315Y-81690931D01*
X87049069Y-81417315D01*
X87322685Y-82169069D01*
X87322685Y-82169069D01*
G37*
G36*
X86211570Y-82583476D02*
X85486524Y-82921570D01*
X85148430Y-82196524D01*
X85873476Y-81858430D01*
X86211570Y-82583476D01*
X86211570Y-82583476D01*
G37*
G36*
X85146410Y-83096410D02*
X84453590Y-83496410D01*
X84053590Y-82803590D01*
X84746410Y-82403590D01*
X85146410Y-83096410D01*
X85146410Y-83096410D01*
G37*
G36*
X80568721Y-86891507D02*
X80098493Y-87538721D01*
X79451279Y-87068493D01*
X79921507Y-86421279D01*
X80568721Y-86891507D01*
X80568721Y-86891507D01*
G37*
G36*
X81344910Y-86000394D02*
X80809606Y-86594910D01*
X80215090Y-86059606D01*
X80750394Y-85465090D01*
X81344910Y-86000394D01*
X81344910Y-86000394D01*
G37*
G36*
X84127091Y-83698230D02*
X83471770Y-84157091D01*
X83012909Y-83501770D01*
X83668230Y-83042909D01*
X84127091Y-83698230D01*
X84127091Y-83698230D01*
G37*
G36*
X78268435Y-91052020D02*
X78007980Y-91808435D01*
X77251565Y-91547980D01*
X77512020Y-90791565D01*
X78268435Y-91052020D01*
X78268435Y-91052020D01*
G37*
G36*
X78725961Y-89961757D02*
X78408243Y-90695961D01*
X77674039Y-90378243D01*
X77991757Y-89644039D01*
X78725961Y-89961757D01*
X78725961Y-89961757D01*
G37*
G36*
X79250968Y-88894610D02*
X78875390Y-89600968D01*
X78169032Y-89225390D01*
X78544610Y-88519032D01*
X79250968Y-88894610D01*
X79250968Y-88894610D01*
G37*
G36*
X77904887Y-92178650D02*
X77711350Y-92954887D01*
X76935113Y-92761350D01*
X77128650Y-91985113D01*
X77904887Y-92178650D01*
X77904887Y-92178650D01*
G37*
G36*
X81922923Y-101026545D02*
X82225196Y-101767242D01*
X81484499Y-102069515D01*
X81182226Y-101328818D01*
X81922923Y-101026545D01*
X81922923Y-101026545D01*
G37*
G36*
X81167242Y-99174804D02*
X81469515Y-99915501D01*
X80728818Y-100217774D01*
X80426545Y-99477077D01*
X81167242Y-99174804D01*
X81167242Y-99174804D01*
G37*
G36*
X79315501Y-99930485D02*
X79617774Y-100671182D01*
X78877077Y-100973455D01*
X78574804Y-100232758D01*
X79315501Y-99930485D01*
X79315501Y-99930485D01*
G37*
G36*
X80071182Y-101782226D02*
X80373455Y-102522923D01*
X79632758Y-102825196D01*
X79330485Y-102084499D01*
X80071182Y-101782226D01*
X80071182Y-101782226D01*
G37*
D20*
X89080000Y-82220000D03*
X89080000Y-83720000D03*
X91080000Y-83720000D03*
X91080000Y-82220000D03*
D10*
G36*
X99401884Y-85860706D02*
X99801201Y-86161613D01*
X99440112Y-86640794D01*
X99040795Y-86339887D01*
X99401884Y-85860706D01*
X99401884Y-85860706D01*
G37*
G36*
X98739888Y-86739206D02*
X99139205Y-87040113D01*
X98778116Y-87519294D01*
X98378799Y-87218387D01*
X98739888Y-86739206D01*
X98739888Y-86739206D01*
G37*
G36*
X98640326Y-84827248D02*
X98927114Y-84417672D01*
X99418606Y-84761818D01*
X99131818Y-85171394D01*
X98640326Y-84827248D01*
X98640326Y-84827248D01*
G37*
G36*
X99541394Y-85458182D02*
X99828182Y-85048606D01*
X100319674Y-85392752D01*
X100032886Y-85802328D01*
X99541394Y-85458182D01*
X99541394Y-85458182D01*
G37*
G36*
X77774032Y-99218967D02*
X77677771Y-98728320D01*
X78266546Y-98612807D01*
X78362807Y-99103454D01*
X77774032Y-99218967D01*
X77774032Y-99218967D01*
G37*
G36*
X78853454Y-99007193D02*
X78757193Y-98516546D01*
X79345968Y-98401033D01*
X79442229Y-98891680D01*
X78853454Y-99007193D01*
X78853454Y-99007193D01*
G37*
G36*
X79924032Y-98798967D02*
X79827771Y-98308320D01*
X80416546Y-98192807D01*
X80512807Y-98683454D01*
X79924032Y-98798967D01*
X79924032Y-98798967D01*
G37*
G36*
X81003454Y-98587193D02*
X80907193Y-98096546D01*
X81495968Y-97981033D01*
X81592229Y-98471680D01*
X81003454Y-98587193D01*
X81003454Y-98587193D01*
G37*
G36*
X85296680Y-105021580D02*
X85561639Y-104597556D01*
X86070468Y-104915508D01*
X85805509Y-105339532D01*
X85296680Y-105021580D01*
X85296680Y-105021580D01*
G37*
G36*
X86229532Y-105604492D02*
X86494491Y-105180468D01*
X87003320Y-105498420D01*
X86738361Y-105922444D01*
X86229532Y-105604492D01*
X86229532Y-105604492D01*
G37*
G36*
X100208166Y-84515142D02*
X100529560Y-84132120D01*
X100989186Y-84517792D01*
X100667792Y-84900814D01*
X100208166Y-84515142D01*
X100208166Y-84515142D01*
G37*
G36*
X101050814Y-85222208D02*
X101372208Y-84839186D01*
X101831834Y-85224858D01*
X101510440Y-85607880D01*
X101050814Y-85222208D01*
X101050814Y-85222208D01*
G37*
G36*
X97931506Y-86911122D02*
X97498494Y-86661122D01*
X97798494Y-86141506D01*
X98231506Y-86391506D01*
X97931506Y-86911122D01*
X97931506Y-86911122D01*
G37*
G36*
X98481506Y-85958494D02*
X98048494Y-85708494D01*
X98348494Y-85188878D01*
X98781506Y-85438878D01*
X98481506Y-85958494D01*
X98481506Y-85958494D01*
G37*
D21*
X93510000Y-84370000D03*
X92410000Y-84370000D03*
D10*
G36*
X84666680Y-105951580D02*
X84931639Y-105527556D01*
X85440468Y-105845508D01*
X85175509Y-106269532D01*
X84666680Y-105951580D01*
X84666680Y-105951580D01*
G37*
G36*
X85599532Y-106534492D02*
X85864491Y-106110468D01*
X86373320Y-106428420D01*
X86108361Y-106852444D01*
X85599532Y-106534492D01*
X85599532Y-106534492D01*
G37*
G36*
X79466680Y-88571580D02*
X79731639Y-88147556D01*
X80240468Y-88465508D01*
X79975509Y-88889532D01*
X79466680Y-88571580D01*
X79466680Y-88571580D01*
G37*
G36*
X80399532Y-89154492D02*
X80664491Y-88730468D01*
X81173320Y-89048420D01*
X80908361Y-89472444D01*
X80399532Y-89154492D01*
X80399532Y-89154492D01*
G37*
G36*
X100896860Y-85717849D02*
X101262537Y-86058848D01*
X100853338Y-86497661D01*
X100487661Y-86156662D01*
X100896860Y-85717849D01*
X100896860Y-85717849D01*
G37*
G36*
X100146662Y-86522339D02*
X100512339Y-86863338D01*
X100103140Y-87302151D01*
X99737463Y-86961152D01*
X100146662Y-86522339D01*
X100146662Y-86522339D01*
G37*
G36*
X81652886Y-102807672D02*
X81939674Y-103217248D01*
X81448182Y-103561394D01*
X81161394Y-103151818D01*
X81652886Y-102807672D01*
X81652886Y-102807672D01*
G37*
G36*
X80751818Y-103438606D02*
X81038606Y-103848182D01*
X80547114Y-104192328D01*
X80260326Y-103782752D01*
X80751818Y-103438606D01*
X80751818Y-103438606D01*
G37*
G36*
X82863320Y-90448420D02*
X82598361Y-90872444D01*
X82089532Y-90554492D01*
X82354491Y-90130468D01*
X82863320Y-90448420D01*
X82863320Y-90448420D01*
G37*
G36*
X81930468Y-89865508D02*
X81665509Y-90289532D01*
X81156680Y-89971580D01*
X81421639Y-89547556D01*
X81930468Y-89865508D01*
X81930468Y-89865508D01*
G37*
G36*
X79634258Y-93161486D02*
X79763668Y-92678523D01*
X80343224Y-92833814D01*
X80213814Y-93316777D01*
X79634258Y-93161486D01*
X79634258Y-93161486D01*
G37*
G36*
X80696776Y-93446186D02*
X80826186Y-92963223D01*
X81405742Y-93118514D01*
X81276332Y-93601477D01*
X80696776Y-93446186D01*
X80696776Y-93446186D01*
G37*
G36*
X85004884Y-84127427D02*
X85284480Y-84541946D01*
X84787058Y-84877461D01*
X84507462Y-84462942D01*
X85004884Y-84127427D01*
X85004884Y-84127427D01*
G37*
G36*
X84092942Y-84742539D02*
X84372538Y-85157058D01*
X83875116Y-85492573D01*
X83595520Y-85078054D01*
X84092942Y-84742539D01*
X84092942Y-84742539D01*
G37*
G36*
X90606681Y-84582406D02*
X90702085Y-85073219D01*
X90113109Y-85187704D01*
X90017705Y-84696891D01*
X90606681Y-84582406D01*
X90606681Y-84582406D01*
G37*
G36*
X89526891Y-84792296D02*
X89622295Y-85283109D01*
X89033319Y-85397594D01*
X88937915Y-84906781D01*
X89526891Y-84792296D01*
X89526891Y-84792296D01*
G37*
G36*
X98328878Y-83361506D02*
X98578878Y-82928494D01*
X99098494Y-83228494D01*
X98848494Y-83661506D01*
X98328878Y-83361506D01*
X98328878Y-83361506D01*
G37*
G36*
X99281506Y-83911506D02*
X99531506Y-83478494D01*
X100051122Y-83778494D01*
X99801122Y-84211506D01*
X99281506Y-83911506D01*
X99281506Y-83911506D01*
G37*
D22*
X96500000Y-106200000D03*
X100400000Y-88900000D03*
D11*
X87900467Y-82552931D03*
X88029584Y-82926690D03*
X88162853Y-83312469D03*
X85986426Y-106481456D03*
D23*
X91990000Y-83360000D03*
D11*
X90250000Y-82930000D03*
X90250000Y-83390000D03*
X90250000Y-83890000D03*
X90201626Y-84338869D03*
X89818019Y-84409197D03*
X89530505Y-84651581D03*
X88951866Y-84788004D03*
X88714075Y-84565642D03*
X88344046Y-84068497D03*
X88212878Y-83715217D03*
D23*
X88030000Y-82150000D03*
X93060000Y-83590000D03*
X97410000Y-83270000D03*
D11*
X89080000Y-83720000D03*
X91080000Y-82220000D03*
D23*
X90310000Y-82230000D03*
D11*
X96584779Y-84231111D03*
X79500000Y-96000000D03*
X79500000Y-97450000D03*
X83984029Y-85117556D03*
X89280105Y-85094945D03*
X84230685Y-104631495D03*
X83810887Y-104202811D03*
X82069315Y-105068505D03*
X80649466Y-103815467D03*
X79851970Y-102303711D03*
X86003296Y-83716042D03*
X81351973Y-87204899D03*
X78751421Y-92854949D03*
X81570013Y-91090750D03*
X81311867Y-91687290D03*
X82514715Y-89344533D03*
X81543574Y-89918544D03*
X80786426Y-89101456D03*
D23*
X94740000Y-82360000D03*
X98630000Y-86340000D03*
X97940000Y-85040000D03*
D11*
X96085309Y-84496684D03*
X97865000Y-86526314D03*
X95819735Y-83997213D03*
X83894732Y-87084986D03*
X82785285Y-86075467D03*
D23*
X98660000Y-84080000D03*
D11*
X78854949Y-92468579D03*
X84895971Y-84502444D03*
X86610000Y-84050000D03*
D23*
X82270000Y-102630000D03*
X84780000Y-105100000D03*
X83050000Y-87390000D03*
X80090000Y-93730000D03*
D11*
X87480000Y-106090000D03*
X85710000Y-104850000D03*
D23*
X99120000Y-87930000D03*
X86980000Y-85250000D03*
X82210000Y-88190000D03*
X96020000Y-86070000D03*
D11*
X87870000Y-83950000D03*
X83524916Y-86748480D03*
X95968360Y-84879206D03*
D23*
X97570000Y-85600000D03*
D11*
X85820000Y-84490000D03*
X82920000Y-86840000D03*
D23*
X96970000Y-86020000D03*
D11*
X95585838Y-84762257D03*
X86650000Y-82830000D03*
D23*
X95380000Y-85830000D03*
X80440000Y-89870000D03*
X88220000Y-84800000D03*
X94750000Y-85630000D03*
X82760000Y-88540000D03*
D11*
X86947898Y-86030719D03*
X83290000Y-88960000D03*
D23*
X94130000Y-85420000D03*
X84920000Y-87210000D03*
D11*
X79568133Y-90932710D03*
D23*
X81290000Y-90530000D03*
X84250000Y-105970000D03*
D11*
X94820794Y-84528360D03*
D23*
X93500000Y-85150000D03*
D11*
X80090000Y-99360000D03*
X80170000Y-98500000D03*
X79010000Y-89920000D03*
D23*
X81510000Y-92730000D03*
D11*
X95171640Y-83380794D03*
D23*
X91110000Y-85000000D03*
X81840000Y-100390000D03*
X83470000Y-103050000D03*
D11*
X82288470Y-104399012D03*
D23*
X81130000Y-97580000D03*
D11*
X80948030Y-99696289D03*
X80040000Y-97950000D03*
D23*
X81960000Y-91600000D03*
D11*
X95554162Y-83497743D03*
D23*
X92550000Y-85020000D03*
X83134786Y-104823552D03*
X95630000Y-82560000D03*
X96260000Y-82730000D03*
D11*
X87810000Y-105800000D03*
X90870000Y-109960000D03*
D23*
X91770000Y-85000000D03*
D11*
X95054691Y-83763316D03*
D23*
X92440000Y-109550000D03*
X99810000Y-87700000D03*
X88220000Y-106560000D03*
D11*
X95203316Y-84645309D03*
D23*
X97990000Y-82900000D03*
X93210000Y-82150000D03*
D24*
X93270000Y-108320000D02*
X92000000Y-106500000D01*
D25*
X88212878Y-83715217D02*
X88200000Y-83420000D01*
X88200000Y-83420000D02*
X88162853Y-83312469D01*
X88162853Y-83312469D02*
X88029584Y-82926690D01*
X88029584Y-82926690D02*
X87900467Y-82552931D01*
X87900467Y-82552931D02*
X87820000Y-82320000D01*
X87820000Y-82320000D02*
X88030000Y-82150000D01*
D26*
X98759002Y-87129250D02*
X100124901Y-86912245D01*
D27*
X86616426Y-105551456D02*
X85986426Y-106481456D01*
D25*
X89280105Y-85094945D02*
X89530505Y-84651581D01*
X89530505Y-84651581D02*
X89650000Y-84440000D01*
X89650000Y-84440000D02*
X89818019Y-84409197D01*
X89818019Y-84409197D02*
X90201626Y-84338869D01*
X90201626Y-84338869D02*
X90250000Y-84330000D01*
X90250000Y-84330000D02*
X90250000Y-83890000D01*
X90250000Y-83890000D02*
X90250000Y-83390000D01*
X90250000Y-83390000D02*
X90250000Y-82930000D01*
X90250000Y-82930000D02*
X90250000Y-82480000D01*
X90250000Y-82480000D02*
X90310000Y-82230000D01*
X88212878Y-83715217D02*
X88344046Y-84068497D01*
X88344046Y-84068497D02*
X88430000Y-84300000D01*
X88430000Y-84300000D02*
X88714075Y-84565642D01*
X88714075Y-84565642D02*
X88951866Y-84788004D01*
X88951866Y-84788004D02*
X89280105Y-85094945D01*
X88290000Y-82660000D02*
X88290000Y-82180000D01*
X88290000Y-82180000D02*
X88030000Y-82150000D01*
X88290000Y-82660000D02*
X89080000Y-83720000D01*
D27*
X91080000Y-82220000D02*
X90310000Y-82230000D01*
X81311867Y-91687290D02*
X80440000Y-91310000D01*
X95288589Y-82998272D02*
X95180000Y-82650000D01*
X94930000Y-82520000D02*
X94740000Y-82360000D01*
X95180000Y-82650000D02*
X94930000Y-82520000D01*
D26*
X98630000Y-86340000D02*
X98759002Y-87129250D01*
X97865000Y-86526314D02*
X98630000Y-86340000D01*
D28*
X96670000Y-85080000D02*
X96970000Y-85110000D01*
X96970000Y-85110000D02*
X97200000Y-85080000D01*
X97200000Y-85080000D02*
X97530000Y-84990000D01*
X97530000Y-84990000D02*
X97750000Y-84930000D01*
X97750000Y-84930000D02*
X97940000Y-85040000D01*
X96350882Y-84996155D02*
X96670000Y-85080000D01*
D27*
X95437213Y-83880265D02*
X95819735Y-83997213D01*
X95437213Y-83880265D02*
X95320265Y-84262787D01*
X96217922Y-84118951D02*
X96584779Y-84231111D01*
X95819735Y-83997213D02*
X96217922Y-84118951D01*
X96085309Y-84496684D02*
X96217922Y-84118951D01*
X94280000Y-83720000D02*
X93400000Y-83600000D01*
X94440000Y-83580000D02*
X94280000Y-83720000D01*
X94440000Y-83580000D02*
X94672170Y-83646367D01*
X93400000Y-83600000D02*
X93060000Y-83590000D01*
X92410000Y-84370000D02*
X93060000Y-83590000D01*
D28*
X96820000Y-84340000D02*
X96584779Y-84231111D01*
X96820000Y-84340000D02*
X97030000Y-84350000D01*
X97030000Y-84350000D02*
X97300000Y-84290000D01*
X97300000Y-84290000D02*
X97580000Y-84180000D01*
X97580000Y-84180000D02*
X97830000Y-84100000D01*
X97830000Y-84100000D02*
X98150000Y-84080000D01*
X98150000Y-84080000D02*
X98460000Y-84170000D01*
X98460000Y-84170000D02*
X98660000Y-84080000D01*
D27*
X99666314Y-83845000D02*
X98660000Y-84080000D01*
D24*
X91820000Y-107430000D02*
X91780000Y-108860000D01*
X92000000Y-106500000D02*
X91820000Y-107430000D01*
X97100000Y-107600000D02*
X97700000Y-107300000D01*
X97700000Y-107300000D02*
X98500000Y-106800000D01*
X98500000Y-106800000D02*
X98600000Y-105800000D01*
X93270000Y-108320000D02*
X94580000Y-109970000D01*
X95010000Y-109880000D02*
X94580000Y-109970000D01*
X96070000Y-109630000D02*
X95010000Y-109880000D01*
X97010000Y-109250000D02*
X96070000Y-109630000D01*
X97010000Y-109250000D02*
X97100000Y-107600000D01*
X84200000Y-101150000D02*
X82270000Y-102630000D01*
D27*
X81053721Y-92283831D02*
X82270000Y-92060000D01*
X82270000Y-92060000D02*
X82530000Y-91440000D01*
X82530000Y-91440000D02*
X82660000Y-91160000D01*
X82660000Y-91160000D02*
X82476426Y-90501456D01*
X78860000Y-92470000D02*
X78854949Y-92468579D01*
X86610000Y-84050000D02*
X86672438Y-84004629D01*
X86672438Y-84004629D02*
X86672438Y-84004630D01*
X86466231Y-83527122D02*
X86672438Y-84004630D01*
X86672438Y-84004630D02*
X86990000Y-84740000D01*
X86990000Y-84740000D02*
X87580000Y-84990000D01*
X87580000Y-84990000D02*
X87873769Y-85652878D01*
X87300000Y-105420000D02*
X87320000Y-105560000D01*
X87320000Y-105560000D02*
X86170000Y-107870000D01*
X86170000Y-107870000D02*
X85650000Y-108320000D01*
X82270000Y-102630000D02*
X81910000Y-102080000D01*
X81910000Y-102080000D02*
X81703711Y-101548030D01*
X81550534Y-103184533D02*
X82270000Y-102630000D01*
X84410000Y-103400000D02*
X85160000Y-104070000D01*
X85160000Y-104070000D02*
X85970000Y-104600000D01*
X85970000Y-104600000D02*
X87170000Y-105330000D01*
X87170000Y-105330000D02*
X87300000Y-105420000D01*
X85053574Y-105898544D02*
X84780000Y-105100000D01*
X83582847Y-105720786D02*
X83780000Y-105920000D01*
X83780000Y-105920000D02*
X83860000Y-106340000D01*
X83860000Y-106340000D02*
X84200000Y-106570000D01*
X84200000Y-106570000D02*
X84710000Y-106430000D01*
X84710000Y-106430000D02*
X85053574Y-105898544D01*
X78020289Y-98915887D02*
X78660000Y-99330000D01*
X78660000Y-99330000D02*
X79550000Y-99140000D01*
X79550000Y-99140000D02*
X81060000Y-98830000D01*
X81060000Y-98830000D02*
X81249711Y-98284113D01*
X79853574Y-88518544D02*
X79480000Y-88620000D01*
X79480000Y-88620000D02*
X79380000Y-88780000D01*
X79380000Y-88780000D02*
X79320000Y-88860000D01*
X79320000Y-88860000D02*
X78710000Y-89060000D01*
X81035453Y-87998508D02*
X80700000Y-88420000D01*
X80700000Y-88420000D02*
X79853574Y-88518544D01*
X82476426Y-90501456D02*
X83100000Y-90370000D01*
X83100000Y-90370000D02*
X83580000Y-89700000D01*
X83580000Y-89700000D02*
X84220000Y-88920000D01*
X84220000Y-88920000D02*
X84930000Y-88190000D01*
D25*
X88336704Y-85463958D02*
X87873769Y-85652878D01*
D27*
X94937743Y-84145838D02*
X94555221Y-84028889D01*
X93940000Y-83930000D02*
X93510000Y-84370000D01*
X94555221Y-84028889D02*
X93940000Y-83930000D01*
X82310000Y-86730000D02*
X81980859Y-87108162D01*
X81980859Y-87108162D02*
X81370000Y-87810000D01*
X81370000Y-87810000D02*
X81035453Y-87998508D01*
X82024986Y-86465268D02*
X82310000Y-86730000D01*
X81688480Y-86835084D02*
X81980859Y-87108162D01*
X79600000Y-93770000D02*
X79700000Y-93290000D01*
X79700000Y-93290000D02*
X79720000Y-93200000D01*
X79720000Y-93200000D02*
X79988741Y-92997650D01*
X79500000Y-94550000D02*
X79600000Y-93770000D01*
X81053721Y-92283831D02*
X79988741Y-92997650D01*
X79740000Y-92720000D02*
X79988741Y-92997650D01*
X78854949Y-92468579D02*
X79740000Y-92720000D01*
X81980000Y-103250000D02*
X82330000Y-103700000D01*
X82330000Y-103700000D02*
X82460000Y-103870000D01*
X82460000Y-103870000D02*
X82717153Y-103979214D01*
X81550534Y-103184533D02*
X81980000Y-103250000D01*
X88450000Y-85760000D02*
X88830000Y-85940000D01*
X88848737Y-85935281D02*
X90180000Y-85600000D01*
X88830000Y-85940000D02*
X88848737Y-85935281D01*
X88336704Y-85463958D02*
X88450000Y-85760000D01*
X87810000Y-86340000D02*
X88848737Y-85935281D01*
X83780000Y-87590000D02*
X83240000Y-87570000D01*
X84500000Y-88210000D02*
X83780000Y-87590000D01*
X84930000Y-88190000D02*
X84500000Y-88210000D01*
X85780000Y-87500000D02*
X84930000Y-88190000D01*
X86800000Y-86850000D02*
X85780000Y-87500000D01*
X87810000Y-86340000D02*
X86800000Y-86850000D01*
X83050000Y-87390000D02*
X83240000Y-87570000D01*
X79988741Y-93628741D02*
X80090000Y-93730000D01*
X79988741Y-92997650D02*
X79988741Y-93628741D01*
X84147325Y-103075519D02*
X84410000Y-103400000D01*
X84070000Y-102980000D02*
X84147325Y-103075519D01*
X83520000Y-102280000D02*
X84070000Y-102980000D01*
X82950000Y-101410000D02*
X83520000Y-102280000D01*
X82520000Y-100600000D02*
X82950000Y-101410000D01*
X82190968Y-99970968D02*
X82520000Y-100600000D01*
X82180000Y-99950000D02*
X82190968Y-99970968D01*
X83391089Y-103774128D02*
X84147325Y-103075519D01*
X82190967Y-99970965D02*
X82190968Y-99970968D01*
X82040000Y-99460000D02*
X82190967Y-99970965D01*
X81820000Y-98660000D02*
X82040000Y-99460000D01*
X81249711Y-98284113D02*
X81820000Y-98660000D01*
X92020000Y-85680000D02*
X92000000Y-86650000D01*
X91930000Y-85550000D02*
X92020000Y-85680000D01*
X91290000Y-85530000D02*
X91930000Y-85550000D01*
X90180000Y-85600000D02*
X91290000Y-85530000D01*
D25*
X92003636Y-85656364D02*
X92000000Y-86650000D01*
X92140000Y-85520000D02*
X92003636Y-85656364D01*
X92790000Y-85530000D02*
X92140000Y-85520000D01*
X92990000Y-85320000D02*
X92790000Y-85530000D01*
X93070000Y-84790000D02*
X92990000Y-85320000D01*
X93510000Y-84370000D02*
X93070000Y-84790000D01*
D27*
X91550000Y-110250000D02*
X91260000Y-110380000D01*
X91260000Y-110380000D02*
X90770000Y-110330000D01*
X90770000Y-110330000D02*
X90590000Y-110190000D01*
X90590000Y-110190000D02*
X89860000Y-110100000D01*
X89860000Y-110100000D02*
X88730000Y-109890000D01*
X88730000Y-109890000D02*
X88210000Y-109780000D01*
X88210000Y-109780000D02*
X87310000Y-109510000D01*
X87310000Y-109510000D02*
X87230000Y-109510000D01*
X87230000Y-109510000D02*
X86620000Y-108490000D01*
X86620000Y-108490000D02*
X87530000Y-106200000D01*
X87530000Y-106200000D02*
X87480000Y-106090000D01*
X85710000Y-104850000D02*
X85683574Y-104968544D01*
X96233933Y-85378676D02*
X96470000Y-85780000D01*
X98800000Y-87870000D02*
X99120000Y-87930000D01*
X98610000Y-87680000D02*
X98800000Y-87870000D01*
X97890000Y-87170000D02*
X98610000Y-87680000D01*
X97240000Y-86750000D02*
X97890000Y-87170000D01*
X96540000Y-86380000D02*
X97240000Y-86750000D01*
X96470000Y-85780000D02*
X96540000Y-86380000D01*
D26*
X98800000Y-84950000D02*
X99029466Y-84794533D01*
X98415000Y-85573686D02*
X98800000Y-84950000D01*
D28*
X96760000Y-84710000D02*
X96910000Y-84730000D01*
X96910000Y-84730000D02*
X97160000Y-84710000D01*
X97160000Y-84710000D02*
X97410000Y-84640000D01*
X97410000Y-84640000D02*
X97630000Y-84540000D01*
X97630000Y-84540000D02*
X97850000Y-84470000D01*
X97850000Y-84470000D02*
X98000000Y-84450000D01*
X98000000Y-84450000D02*
X98200000Y-84470000D01*
X98200000Y-84470000D02*
X98390000Y-84520000D01*
X98390000Y-84520000D02*
X98580000Y-84620000D01*
X98580000Y-84620000D02*
X98700000Y-84710000D01*
X98700000Y-84710000D02*
X99029466Y-84794533D01*
X96467830Y-84613633D02*
X96760000Y-84710000D01*
D25*
X94906067Y-82881324D02*
X93907336Y-82711009D01*
D27*
X87410833Y-85841798D02*
X86980000Y-85250000D01*
X82210000Y-88190000D02*
X82330000Y-88710000D01*
X82330000Y-88710000D02*
X82230000Y-88800000D01*
X82230000Y-88800000D02*
X82144899Y-89008027D01*
X95851411Y-85261728D02*
X96020000Y-86070000D01*
X87870000Y-83950000D02*
X87720000Y-83560000D01*
X87720000Y-83560000D02*
X87800000Y-83330000D01*
X87800000Y-83330000D02*
X87810000Y-83300000D01*
X87810000Y-83300000D02*
X87460000Y-82430000D01*
X87460000Y-82430000D02*
X86810000Y-81930000D01*
X85820000Y-84490000D02*
X85410000Y-83620000D01*
X85410000Y-83620000D02*
X85530000Y-82940000D01*
X85530000Y-82940000D02*
X85680000Y-82390000D01*
X83948027Y-88215101D02*
X83560000Y-87860000D01*
X83560000Y-87860000D02*
X83000000Y-87940000D01*
X83000000Y-87940000D02*
X82990000Y-87940000D01*
X82990000Y-87940000D02*
X82970000Y-87940000D01*
X82970000Y-87940000D02*
X82440000Y-87420000D01*
X82440000Y-87420000D02*
X82440000Y-87360000D01*
X82440000Y-87360000D02*
X82760000Y-87000000D01*
X82760000Y-87000000D02*
X82920000Y-86840000D01*
X87392102Y-83149281D02*
X87300000Y-82960000D01*
X87300000Y-82960000D02*
X86650000Y-82830000D01*
X95468889Y-85144779D02*
X95380000Y-85830000D01*
X86929167Y-83338202D02*
X86930000Y-83570000D01*
X86930000Y-83570000D02*
X86880000Y-83820000D01*
X86880000Y-83820000D02*
X87160000Y-84490000D01*
X87160000Y-84490000D02*
X87970000Y-84830000D01*
X87970000Y-84830000D02*
X88220000Y-84800000D01*
X81010000Y-89760000D02*
X80440000Y-89870000D01*
X81300000Y-89260000D02*
X81010000Y-89760000D01*
X81500000Y-89240000D02*
X81300000Y-89260000D01*
X82510000Y-89920000D02*
X81500000Y-89240000D01*
X83200000Y-89790000D02*
X82510000Y-89920000D01*
X83810000Y-88960000D02*
X83200000Y-89790000D01*
X83790000Y-88750000D02*
X83810000Y-88960000D01*
X83611520Y-88584916D02*
X83790000Y-88750000D01*
X95086367Y-85027830D02*
X94750000Y-85630000D01*
X82760000Y-88540000D02*
X82780000Y-88550000D01*
X83290000Y-88960000D02*
X83275014Y-88954732D01*
X82780000Y-88550000D02*
X83275014Y-88954732D01*
X94703845Y-84910882D02*
X94340000Y-85250000D01*
X94340000Y-85250000D02*
X94130000Y-85420000D01*
X82710000Y-88050000D02*
X82180000Y-87520000D01*
X82180000Y-87520000D02*
X82180000Y-87270000D01*
X82180000Y-87270000D02*
X82580000Y-86810000D01*
X82580000Y-86810000D02*
X82590000Y-86520000D01*
X82060000Y-86010000D02*
X80780000Y-86030000D01*
X82490000Y-86400000D02*
X82590000Y-86520000D01*
X82060000Y-86010000D02*
X82490000Y-86400000D01*
X82780000Y-88550000D02*
X82710000Y-88050000D01*
X84450000Y-87210000D02*
X84920000Y-87210000D01*
X84250000Y-105970000D02*
X84310000Y-105630000D01*
X84310000Y-105630000D02*
X84011530Y-105300988D01*
X84450000Y-87210000D02*
X84490000Y-86910000D01*
X84490000Y-86910000D02*
X83110000Y-85150000D01*
X83110000Y-85150000D02*
X83570000Y-83600000D01*
X84264547Y-87421492D02*
X84450000Y-87210000D01*
X77760000Y-91300000D02*
X78140000Y-92150000D01*
X78140000Y-92150000D02*
X78040000Y-92590000D01*
X78040000Y-92590000D02*
X78110000Y-92700000D01*
X78110000Y-92700000D02*
X78365051Y-92751421D01*
X80668768Y-100856910D02*
X80180000Y-99700000D01*
X80180000Y-99700000D02*
X80090000Y-99360000D01*
X80170000Y-98500000D02*
X80170289Y-98495887D01*
X79826279Y-90336169D02*
X79010000Y-89920000D01*
X78200000Y-93560000D02*
X78120000Y-94200000D01*
X78365051Y-92751421D02*
X78200000Y-93560000D01*
X78120000Y-94200000D02*
X78500000Y-94550000D01*
X81840000Y-100390000D02*
X80668768Y-100856910D01*
X80668768Y-100856910D02*
X80360000Y-100980000D01*
X80360000Y-100980000D02*
X79096289Y-100451970D01*
X78500000Y-97450000D02*
X78660000Y-98440000D01*
X78660000Y-98440000D02*
X79099711Y-98704113D01*
X80040000Y-97950000D02*
X79960000Y-98070000D01*
X79960000Y-98070000D02*
X79450000Y-98180000D01*
X79450000Y-98180000D02*
X79099711Y-98704113D01*
X78832302Y-91186810D02*
X78200000Y-90170000D01*
X78940000Y-91360000D02*
X78832302Y-91186810D01*
X79309987Y-91529250D02*
X78940000Y-91360000D01*
X78630000Y-91760000D02*
X78832302Y-91186810D01*
X78468579Y-92365051D02*
X78630000Y-91760000D01*
X83134786Y-104823552D02*
X82489113Y-105497189D01*
X95671111Y-83115221D02*
X95630000Y-82560000D01*
X96053633Y-83232170D02*
X96260000Y-82730000D01*
X87810000Y-105800000D02*
X87890000Y-106040000D01*
X87890000Y-106040000D02*
X86970000Y-108540000D01*
X86970000Y-108540000D02*
X87400000Y-109270000D01*
X87400000Y-109270000D02*
X88410000Y-109550000D01*
X88410000Y-109550000D02*
X90110000Y-109870000D01*
X90110000Y-109870000D02*
X90870000Y-109960000D01*
X96990000Y-82220000D02*
X97070000Y-82280000D01*
X96990000Y-82220000D02*
X96210000Y-81970000D01*
X96210000Y-81970000D02*
X95200000Y-81710000D01*
X95200000Y-81710000D02*
X94180000Y-81500000D01*
X94180000Y-81500000D02*
X92970000Y-81400000D01*
X92970000Y-81400000D02*
X91900000Y-81370000D01*
X91900000Y-81370000D02*
X90910000Y-81410000D01*
X90910000Y-81410000D02*
X89830000Y-81520000D01*
X89830000Y-81520000D02*
X89650000Y-81620000D01*
X89650000Y-81620000D02*
X89560000Y-81730000D01*
X89540000Y-81820000D02*
X89560000Y-81730000D01*
X97140000Y-82520000D02*
X97130000Y-82600000D01*
X97140000Y-82430000D02*
X97140000Y-82520000D01*
X97120000Y-82360000D02*
X97140000Y-82430000D01*
X97070000Y-82280000D02*
X97120000Y-82360000D01*
X96818676Y-83466067D02*
X97130000Y-82600000D01*
X89540000Y-81820000D02*
X89080000Y-82220000D01*
X96710000Y-82400000D02*
X96770000Y-82450000D01*
X96710000Y-82400000D02*
X96170000Y-82220000D01*
X96170000Y-82220000D02*
X95150000Y-81960000D01*
X95150000Y-81960000D02*
X94150000Y-81750000D01*
X94150000Y-81750000D02*
X92810000Y-81650000D01*
X92810000Y-81650000D02*
X92350000Y-81650000D01*
X92350000Y-81650000D02*
X92140000Y-81680000D01*
X92140000Y-81680000D02*
X92050000Y-81750000D01*
X92050000Y-81750000D02*
X91980000Y-81840000D01*
X91980000Y-81840000D02*
X91910000Y-81940000D01*
X91910000Y-81940000D02*
X91860000Y-82070000D01*
X91860000Y-82070000D02*
X91850000Y-82250000D01*
X91850000Y-82250000D02*
X91830000Y-82610000D01*
X91830000Y-82610000D02*
X91800000Y-82750000D01*
X91800000Y-82750000D02*
X91730000Y-82910000D01*
X91730000Y-82910000D02*
X91660000Y-83020000D01*
X91660000Y-83020000D02*
X91480000Y-83300000D01*
X91080000Y-83720000D02*
X91480000Y-83300000D01*
X96540000Y-83270000D02*
X96436155Y-83349118D01*
X96560000Y-83230000D02*
X96540000Y-83270000D01*
X96590000Y-83160000D02*
X96560000Y-83230000D01*
X96790000Y-82600000D02*
X96590000Y-83160000D01*
X96800000Y-82530000D02*
X96790000Y-82600000D01*
X96770000Y-82450000D02*
X96800000Y-82530000D01*
X92440000Y-109550000D02*
X92450000Y-110250000D01*
X99810000Y-87700000D02*
X99810000Y-87690000D01*
X88220000Y-106560000D02*
X88450000Y-107200000D01*
X88450000Y-107200000D02*
X89380000Y-108230000D01*
X89380000Y-108230000D02*
X90000000Y-108330000D01*
X90000000Y-108330000D02*
X90730000Y-108320000D01*
D29*
X102090000Y-85910000D02*
X103800000Y-87970000D01*
X103800000Y-87970000D02*
X102760000Y-88690000D01*
X102760000Y-88690000D02*
X103950000Y-90880000D01*
X103950000Y-90880000D02*
X105100000Y-90370000D01*
X105100000Y-90370000D02*
X105960000Y-93120000D01*
X105960000Y-93120000D02*
X104730000Y-93380000D01*
X104730000Y-93380000D02*
X105000000Y-96000000D01*
X105000000Y-96000000D02*
X106260000Y-95990000D01*
X106260000Y-95990000D02*
X105970000Y-98880000D01*
X105970000Y-98880000D02*
X104720000Y-98620000D01*
X104720000Y-98620000D02*
X103940000Y-101120000D01*
X103940000Y-101120000D02*
X105120000Y-101620000D01*
X105120000Y-101620000D02*
X103800000Y-104000000D01*
X103800000Y-104000000D02*
X102760000Y-103280000D01*
X102760000Y-103280000D02*
X101190000Y-105180000D01*
X101190000Y-105180000D02*
X102080000Y-106090000D01*
D30*
X101441324Y-85223533D02*
X102090000Y-85910000D01*
D26*
X101380000Y-85560000D02*
X101441324Y-85223533D01*
X100875099Y-86107755D02*
X101380000Y-85560000D01*
D28*
X92512664Y-82588991D02*
X92920000Y-82220000D01*
X98713686Y-83295000D02*
X97990000Y-82900000D01*
X92920000Y-82220000D02*
X93210000Y-82150000D01*
D25*
X94480000Y-83200000D02*
X94210000Y-83400000D01*
X94789118Y-83263845D02*
X94480000Y-83200000D01*
X92810000Y-82800000D02*
X92512664Y-82588991D01*
X92940000Y-82790000D02*
X92810000Y-82800000D01*
X93470000Y-83310000D02*
X92940000Y-82790000D01*
X94210000Y-83400000D02*
X93470000Y-83310000D01*
D28*
X91850000Y-84220000D02*
X91850000Y-83920000D01*
X91640000Y-84460000D02*
X91850000Y-84220000D01*
X90660000Y-84530000D02*
X91150000Y-84490000D01*
X91150000Y-84490000D02*
X91640000Y-84460000D01*
X92550000Y-83550000D02*
X92600000Y-83000000D01*
X92512664Y-82588991D02*
X92600000Y-83000000D01*
X90660000Y-84530000D02*
X90359895Y-84885055D01*
X92250000Y-83860000D02*
X92550000Y-83550000D01*
X91920000Y-83860000D02*
X92250000Y-83860000D01*
X91850000Y-83920000D02*
X91920000Y-83860000D01*
X96940000Y-83940000D02*
X97040000Y-83940000D01*
X97040000Y-83940000D02*
X97190000Y-83920000D01*
X97190000Y-83920000D02*
X97350000Y-83860000D01*
X97350000Y-83860000D02*
X97600000Y-83760000D01*
X97600000Y-83760000D02*
X97810000Y-83710000D01*
X97810000Y-83710000D02*
X98060000Y-83710000D01*
X98060000Y-83710000D02*
X98210000Y-83710000D01*
X98210000Y-83710000D02*
X98290000Y-83720000D01*
X98290000Y-83720000D02*
X98450000Y-83450000D01*
X98450000Y-83450000D02*
X98713686Y-83295000D01*
X96701728Y-83848589D02*
X96940000Y-83940000D01*
D26*
X99930534Y-85425467D02*
X100598676Y-84516467D01*
X99860000Y-85690000D02*
X99930534Y-85425467D01*
X99420998Y-86250750D02*
X99860000Y-85690000D01*
D27*
G36*
X81532037Y-88992483D02*
X81527388Y-88991505D01*
X81514424Y-88991348D01*
X81501532Y-88990005D01*
X81490095Y-88991055D01*
X81478601Y-88990917D01*
X81475125Y-88991241D01*
X81367857Y-89001967D01*
X81363763Y-88984236D01*
X81347582Y-88948315D01*
X81324705Y-88916243D01*
X81296009Y-88889248D01*
X81071532Y-88748980D01*
X81002634Y-88764886D01*
X80793316Y-89099865D01*
X80810277Y-89110463D01*
X80804978Y-89118944D01*
X80788017Y-89108346D01*
X80777418Y-89125307D01*
X80768937Y-89120007D01*
X80779536Y-89103047D01*
X80402155Y-88867233D01*
X80333256Y-88883139D01*
X80240360Y-89031804D01*
X80219483Y-89065214D01*
X80205526Y-89102055D01*
X80199023Y-89140911D01*
X80200226Y-89180289D01*
X80209089Y-89218676D01*
X80225270Y-89254597D01*
X80248147Y-89286669D01*
X80276843Y-89313664D01*
X80447047Y-89420019D01*
X80399018Y-89419684D01*
X80312332Y-89436220D01*
X80230508Y-89469279D01*
X80156664Y-89517601D01*
X80093612Y-89579346D01*
X80043754Y-89652162D01*
X80008989Y-89733275D01*
X79990641Y-89819596D01*
X79989409Y-89907837D01*
X80005340Y-89994637D01*
X80036344Y-90072947D01*
X79838635Y-89987391D01*
X79778243Y-89968001D01*
X79715234Y-89960711D01*
X79652010Y-89965798D01*
X79650867Y-89966121D01*
X79308632Y-89791636D01*
X79298347Y-89766683D01*
X79263076Y-89713596D01*
X79218165Y-89668371D01*
X79165326Y-89632731D01*
X79106570Y-89608032D01*
X79099965Y-89606676D01*
X79364922Y-89108365D01*
X79397888Y-89097557D01*
X79399047Y-89097046D01*
X79400277Y-89096760D01*
X79421307Y-89087250D01*
X79442546Y-89077905D01*
X79443586Y-89077177D01*
X79444736Y-89076658D01*
X79463562Y-89063215D01*
X79482537Y-89049952D01*
X79483411Y-89049041D01*
X79484443Y-89048305D01*
X79500340Y-89031416D01*
X79516336Y-89014764D01*
X79517016Y-89013701D01*
X79517886Y-89012778D01*
X79520000Y-89010000D01*
X79580000Y-88930000D01*
X79584610Y-88922408D01*
X79590129Y-88915447D01*
X79592000Y-88912500D01*
X79603521Y-88894065D01*
X79869012Y-89059962D01*
X79897933Y-89074924D01*
X79952532Y-89089182D01*
X80008942Y-89087699D01*
X80062716Y-89070593D01*
X80109614Y-89039211D01*
X80145939Y-88996028D01*
X80321038Y-88715808D01*
X80446977Y-88701146D01*
X80391548Y-88789854D01*
X80407454Y-88858752D01*
X80784835Y-89094566D01*
X80994153Y-88759587D01*
X80978247Y-88690689D01*
X80856495Y-88614609D01*
X80858968Y-88612949D01*
X80860139Y-88611773D01*
X80861500Y-88610834D01*
X80877332Y-88594530D01*
X80893418Y-88578397D01*
X80895484Y-88575837D01*
X80895491Y-88575831D01*
X80895495Y-88575823D01*
X80895611Y-88575681D01*
X80987787Y-88459861D01*
X81006966Y-88503995D01*
X81042958Y-88547456D01*
X81227865Y-88715709D01*
X81253645Y-88735600D01*
X81304814Y-88759391D01*
X81351437Y-88766604D01*
X81354292Y-88788747D01*
X81376782Y-88840501D01*
X81412774Y-88883962D01*
X81532037Y-88992483D01*
X81532037Y-88992483D01*
G37*
X81532037Y-88992483D02*
X81527388Y-88991505D01*
X81514424Y-88991348D01*
X81501532Y-88990005D01*
X81490095Y-88991055D01*
X81478601Y-88990917D01*
X81475125Y-88991241D01*
X81367857Y-89001967D01*
X81363763Y-88984236D01*
X81347582Y-88948315D01*
X81324705Y-88916243D01*
X81296009Y-88889248D01*
X81071532Y-88748980D01*
X81002634Y-88764886D01*
X80793316Y-89099865D01*
X80810277Y-89110463D01*
X80804978Y-89118944D01*
X80788017Y-89108346D01*
X80777418Y-89125307D01*
X80768937Y-89120007D01*
X80779536Y-89103047D01*
X80402155Y-88867233D01*
X80333256Y-88883139D01*
X80240360Y-89031804D01*
X80219483Y-89065214D01*
X80205526Y-89102055D01*
X80199023Y-89140911D01*
X80200226Y-89180289D01*
X80209089Y-89218676D01*
X80225270Y-89254597D01*
X80248147Y-89286669D01*
X80276843Y-89313664D01*
X80447047Y-89420019D01*
X80399018Y-89419684D01*
X80312332Y-89436220D01*
X80230508Y-89469279D01*
X80156664Y-89517601D01*
X80093612Y-89579346D01*
X80043754Y-89652162D01*
X80008989Y-89733275D01*
X79990641Y-89819596D01*
X79989409Y-89907837D01*
X80005340Y-89994637D01*
X80036344Y-90072947D01*
X79838635Y-89987391D01*
X79778243Y-89968001D01*
X79715234Y-89960711D01*
X79652010Y-89965798D01*
X79650867Y-89966121D01*
X79308632Y-89791636D01*
X79298347Y-89766683D01*
X79263076Y-89713596D01*
X79218165Y-89668371D01*
X79165326Y-89632731D01*
X79106570Y-89608032D01*
X79099965Y-89606676D01*
X79364922Y-89108365D01*
X79397888Y-89097557D01*
X79399047Y-89097046D01*
X79400277Y-89096760D01*
X79421307Y-89087250D01*
X79442546Y-89077905D01*
X79443586Y-89077177D01*
X79444736Y-89076658D01*
X79463562Y-89063215D01*
X79482537Y-89049952D01*
X79483411Y-89049041D01*
X79484443Y-89048305D01*
X79500340Y-89031416D01*
X79516336Y-89014764D01*
X79517016Y-89013701D01*
X79517886Y-89012778D01*
X79520000Y-89010000D01*
X79580000Y-88930000D01*
X79584610Y-88922408D01*
X79590129Y-88915447D01*
X79592000Y-88912500D01*
X79603521Y-88894065D01*
X79869012Y-89059962D01*
X79897933Y-89074924D01*
X79952532Y-89089182D01*
X80008942Y-89087699D01*
X80062716Y-89070593D01*
X80109614Y-89039211D01*
X80145939Y-88996028D01*
X80321038Y-88715808D01*
X80446977Y-88701146D01*
X80391548Y-88789854D01*
X80407454Y-88858752D01*
X80784835Y-89094566D01*
X80994153Y-88759587D01*
X80978247Y-88690689D01*
X80856495Y-88614609D01*
X80858968Y-88612949D01*
X80860139Y-88611773D01*
X80861500Y-88610834D01*
X80877332Y-88594530D01*
X80893418Y-88578397D01*
X80895484Y-88575837D01*
X80895491Y-88575831D01*
X80895495Y-88575823D01*
X80895611Y-88575681D01*
X80987787Y-88459861D01*
X81006966Y-88503995D01*
X81042958Y-88547456D01*
X81227865Y-88715709D01*
X81253645Y-88735600D01*
X81304814Y-88759391D01*
X81351437Y-88766604D01*
X81354292Y-88788747D01*
X81376782Y-88840501D01*
X81412774Y-88883962D01*
X81532037Y-88992483D01*
G36*
X81663988Y-86266217D02*
X81644291Y-86287865D01*
X81624400Y-86313645D01*
X81600609Y-86364814D01*
X81593395Y-86411437D01*
X81571253Y-86414292D01*
X81519499Y-86436782D01*
X81476038Y-86472774D01*
X81307785Y-86657681D01*
X81287894Y-86683461D01*
X81264103Y-86734630D01*
X81257165Y-86779466D01*
X81220841Y-86788490D01*
X81185194Y-86805264D01*
X81153505Y-86828670D01*
X81126990Y-86857809D01*
X81093136Y-86895014D01*
X81096467Y-86965646D01*
X81351640Y-87197836D01*
X81365100Y-87183043D01*
X81372496Y-87189773D01*
X81359036Y-87204566D01*
X81373828Y-87218026D01*
X81367098Y-87225422D01*
X81352306Y-87211962D01*
X81344910Y-87220090D01*
X81344910Y-87205232D01*
X81089737Y-86973043D01*
X81019105Y-86976374D01*
X80985251Y-87013579D01*
X80958736Y-87042718D01*
X80938417Y-87076469D01*
X80925071Y-87113537D01*
X80919214Y-87152496D01*
X80921071Y-87191848D01*
X80930568Y-87230083D01*
X80947342Y-87265730D01*
X80970748Y-87297420D01*
X81092564Y-87408263D01*
X81163196Y-87404932D01*
X81344910Y-87205232D01*
X81344910Y-87220090D01*
X81170593Y-87411663D01*
X81173924Y-87482295D01*
X81257557Y-87558396D01*
X81209721Y-87613356D01*
X81208195Y-87614216D01*
X81187076Y-87597922D01*
X81135907Y-87574131D01*
X81080141Y-87565503D01*
X81024175Y-87572719D01*
X80972421Y-87595210D01*
X80928960Y-87631201D01*
X80659755Y-87927054D01*
X80639864Y-87952834D01*
X80616073Y-88004003D01*
X80607445Y-88059769D01*
X80614661Y-88115735D01*
X80617479Y-88122222D01*
X80568626Y-88183606D01*
X80231403Y-88222866D01*
X79838136Y-87977126D01*
X79809215Y-87962164D01*
X79782585Y-87955209D01*
X79963606Y-87689130D01*
X79980367Y-87701307D01*
X80008174Y-87718250D01*
X80061645Y-87736282D01*
X80118021Y-87738738D01*
X80172857Y-87725424D01*
X80221830Y-87697390D01*
X80261079Y-87656847D01*
X80731307Y-87009633D01*
X80748250Y-86981826D01*
X80766282Y-86928355D01*
X80768738Y-86871979D01*
X80755424Y-86817143D01*
X80733552Y-86778935D01*
X80752309Y-86787537D01*
X80808119Y-86795872D01*
X80864047Y-86788363D01*
X80915682Y-86765602D01*
X80958954Y-86729384D01*
X81371880Y-86270781D01*
X81663988Y-86266217D01*
X81663988Y-86266217D01*
G37*
X81663988Y-86266217D02*
X81644291Y-86287865D01*
X81624400Y-86313645D01*
X81600609Y-86364814D01*
X81593395Y-86411437D01*
X81571253Y-86414292D01*
X81519499Y-86436782D01*
X81476038Y-86472774D01*
X81307785Y-86657681D01*
X81287894Y-86683461D01*
X81264103Y-86734630D01*
X81257165Y-86779466D01*
X81220841Y-86788490D01*
X81185194Y-86805264D01*
X81153505Y-86828670D01*
X81126990Y-86857809D01*
X81093136Y-86895014D01*
X81096467Y-86965646D01*
X81351640Y-87197836D01*
X81365100Y-87183043D01*
X81372496Y-87189773D01*
X81359036Y-87204566D01*
X81373828Y-87218026D01*
X81367098Y-87225422D01*
X81352306Y-87211962D01*
X81344910Y-87220090D01*
X81344910Y-87205232D01*
X81089737Y-86973043D01*
X81019105Y-86976374D01*
X80985251Y-87013579D01*
X80958736Y-87042718D01*
X80938417Y-87076469D01*
X80925071Y-87113537D01*
X80919214Y-87152496D01*
X80921071Y-87191848D01*
X80930568Y-87230083D01*
X80947342Y-87265730D01*
X80970748Y-87297420D01*
X81092564Y-87408263D01*
X81163196Y-87404932D01*
X81344910Y-87205232D01*
X81344910Y-87220090D01*
X81170593Y-87411663D01*
X81173924Y-87482295D01*
X81257557Y-87558396D01*
X81209721Y-87613356D01*
X81208195Y-87614216D01*
X81187076Y-87597922D01*
X81135907Y-87574131D01*
X81080141Y-87565503D01*
X81024175Y-87572719D01*
X80972421Y-87595210D01*
X80928960Y-87631201D01*
X80659755Y-87927054D01*
X80639864Y-87952834D01*
X80616073Y-88004003D01*
X80607445Y-88059769D01*
X80614661Y-88115735D01*
X80617479Y-88122222D01*
X80568626Y-88183606D01*
X80231403Y-88222866D01*
X79838136Y-87977126D01*
X79809215Y-87962164D01*
X79782585Y-87955209D01*
X79963606Y-87689130D01*
X79980367Y-87701307D01*
X80008174Y-87718250D01*
X80061645Y-87736282D01*
X80118021Y-87738738D01*
X80172857Y-87725424D01*
X80221830Y-87697390D01*
X80261079Y-87656847D01*
X80731307Y-87009633D01*
X80748250Y-86981826D01*
X80766282Y-86928355D01*
X80768738Y-86871979D01*
X80755424Y-86817143D01*
X80733552Y-86778935D01*
X80752309Y-86787537D01*
X80808119Y-86795872D01*
X80864047Y-86788363D01*
X80915682Y-86765602D01*
X80958954Y-86729384D01*
X81371880Y-86270781D01*
X81663988Y-86266217D01*
G36*
X82234746Y-92320685D02*
X82072797Y-92693169D01*
X81740837Y-93870117D01*
X81559895Y-95347805D01*
X81620129Y-97104617D01*
X81809363Y-98353569D01*
X81768581Y-98326689D01*
X81693176Y-97942342D01*
X81684339Y-97911003D01*
X81657445Y-97861395D01*
X81617819Y-97821219D01*
X81568586Y-97793644D01*
X81531348Y-97784970D01*
X81559060Y-97722729D01*
X81578611Y-97636673D01*
X81580019Y-97535875D01*
X81562878Y-97449306D01*
X81529249Y-97367716D01*
X81519987Y-97353775D01*
X81519987Y-93464885D01*
X81484632Y-93403648D01*
X81054795Y-93288474D01*
X81045135Y-93324525D01*
X81045135Y-93285886D01*
X80615298Y-93170711D01*
X80554061Y-93206066D01*
X80508690Y-93375395D01*
X80498493Y-93413450D01*
X80495916Y-93452761D01*
X80501058Y-93491821D01*
X80513722Y-93529127D01*
X80533421Y-93563245D01*
X80559397Y-93592865D01*
X80590652Y-93616848D01*
X80625986Y-93634273D01*
X80881665Y-93702782D01*
X80942902Y-93667426D01*
X81045135Y-93285886D01*
X81045135Y-93324525D01*
X80952561Y-93670014D01*
X80987916Y-93731252D01*
X81243595Y-93799761D01*
X81282908Y-93802337D01*
X81321966Y-93797195D01*
X81359272Y-93784531D01*
X81393391Y-93764833D01*
X81423011Y-93738858D01*
X81446994Y-93707602D01*
X81464419Y-93672269D01*
X81474615Y-93634214D01*
X81519987Y-93464885D01*
X81519987Y-97353775D01*
X81480412Y-97294211D01*
X81418228Y-97231592D01*
X81345066Y-97182243D01*
X81263712Y-97148045D01*
X81177265Y-97130300D01*
X81089018Y-97129684D01*
X81002332Y-97146220D01*
X80920508Y-97179279D01*
X80918491Y-97180598D01*
X80916906Y-97164426D01*
X80892932Y-97085021D01*
X80853992Y-97011785D01*
X80801568Y-96947506D01*
X80782962Y-96932114D01*
X80794736Y-96927238D01*
X80827493Y-96905350D01*
X80855350Y-96877492D01*
X80877238Y-96844735D01*
X80892314Y-96808338D01*
X80900000Y-96769698D01*
X80900000Y-96055000D01*
X80850000Y-96005000D01*
X79505000Y-96005000D01*
X79505000Y-96875033D01*
X79505000Y-96900000D01*
X79505000Y-97445000D01*
X79925000Y-97445000D01*
X79925000Y-97245000D01*
X79915858Y-97162183D01*
X79890735Y-97082741D01*
X79850597Y-97009726D01*
X79800393Y-96950000D01*
X80197042Y-96950000D01*
X80149327Y-97006865D01*
X80109367Y-97079551D01*
X80084287Y-97158614D01*
X80075041Y-97241042D01*
X80075000Y-97246976D01*
X80075000Y-97625393D01*
X80074136Y-97625216D01*
X80010402Y-97624771D01*
X79947795Y-97636714D01*
X79925000Y-97645923D01*
X79925000Y-97455000D01*
X79505000Y-97455000D01*
X79505000Y-97475000D01*
X79495000Y-97475000D01*
X79495000Y-97455000D01*
X79075000Y-97455000D01*
X79075000Y-97655000D01*
X79084142Y-97737817D01*
X79109265Y-97817259D01*
X79149403Y-97890274D01*
X79203015Y-97954055D01*
X79268040Y-98006152D01*
X79269731Y-98007030D01*
X79257718Y-98022063D01*
X79244108Y-98038194D01*
X79242149Y-98041083D01*
X79107137Y-98243090D01*
X78888962Y-98285894D01*
X78888271Y-98285479D01*
X78829030Y-97918927D01*
X78850673Y-97893135D01*
X78890633Y-97820449D01*
X78915713Y-97741386D01*
X78924959Y-97658958D01*
X78925000Y-97653024D01*
X78925000Y-97246976D01*
X78916906Y-97164426D01*
X78892932Y-97085021D01*
X78853992Y-97011785D01*
X78803602Y-96950000D01*
X79199606Y-96950000D01*
X79149403Y-97009726D01*
X79109265Y-97082741D01*
X79084142Y-97162183D01*
X79075000Y-97245000D01*
X79075000Y-97445000D01*
X79495000Y-97445000D01*
X79495000Y-96900000D01*
X79495000Y-96875033D01*
X79495000Y-96005000D01*
X78150000Y-96005000D01*
X78100000Y-96055000D01*
X78100000Y-96769698D01*
X78107686Y-96808338D01*
X78122762Y-96844735D01*
X78144650Y-96877492D01*
X78172507Y-96905350D01*
X78205264Y-96927238D01*
X78216739Y-96931991D01*
X78202643Y-96943325D01*
X78149327Y-97006865D01*
X78109367Y-97079551D01*
X78084287Y-97158614D01*
X78075041Y-97241042D01*
X78075000Y-97246976D01*
X78075000Y-97653024D01*
X78083094Y-97735574D01*
X78107068Y-97814979D01*
X78146008Y-97888215D01*
X78198432Y-97952494D01*
X78262343Y-98005365D01*
X78335306Y-98044816D01*
X78343286Y-98047286D01*
X78412864Y-98477800D01*
X78388397Y-98452993D01*
X78339164Y-98425418D01*
X78284206Y-98412617D01*
X78227855Y-98415599D01*
X77639080Y-98531112D01*
X77638908Y-98531160D01*
X77450074Y-96548404D01*
X77529875Y-93994776D01*
X77665994Y-93149701D01*
X77682078Y-93153712D01*
X77721430Y-93155602D01*
X77760393Y-93149779D01*
X77797472Y-93136466D01*
X77831242Y-93116176D01*
X77860404Y-93089687D01*
X77883838Y-93058017D01*
X77899123Y-93025607D01*
X78045991Y-93064484D01*
X77955051Y-93510000D01*
X77954234Y-93517848D01*
X77952387Y-93525530D01*
X77951931Y-93528991D01*
X77871931Y-94168991D01*
X77871415Y-94188328D01*
X77870117Y-94207649D01*
X77870767Y-94212687D01*
X77870632Y-94217766D01*
X77873886Y-94236858D01*
X77876362Y-94256039D01*
X77877976Y-94260848D01*
X77878831Y-94265863D01*
X77885734Y-94283965D01*
X77891887Y-94302295D01*
X77894407Y-94306703D01*
X77896218Y-94311452D01*
X77906499Y-94327858D01*
X77916100Y-94344654D01*
X77919427Y-94348488D01*
X77922127Y-94352796D01*
X77935397Y-94366890D01*
X77948080Y-94381504D01*
X77950631Y-94383886D01*
X78075000Y-94498436D01*
X78075000Y-94753024D01*
X78083094Y-94835574D01*
X78107068Y-94914979D01*
X78146008Y-94988215D01*
X78198432Y-95052494D01*
X78217037Y-95067885D01*
X78205264Y-95072762D01*
X78172507Y-95094650D01*
X78144650Y-95122508D01*
X78122762Y-95155265D01*
X78107686Y-95191662D01*
X78100000Y-95230302D01*
X78100000Y-95945000D01*
X78150000Y-95995000D01*
X79495000Y-95995000D01*
X79495000Y-95975000D01*
X79505000Y-95975000D01*
X79505000Y-95995000D01*
X80850000Y-95995000D01*
X80900000Y-95945000D01*
X80900000Y-95230302D01*
X80892314Y-95191662D01*
X80877238Y-95155265D01*
X80855350Y-95122508D01*
X80827493Y-95094650D01*
X80794736Y-95072762D01*
X80783260Y-95068008D01*
X80797357Y-95056675D01*
X80850673Y-94993135D01*
X80890633Y-94920449D01*
X80915713Y-94841386D01*
X80924959Y-94758958D01*
X80925000Y-94753024D01*
X80925000Y-94346976D01*
X80916906Y-94264426D01*
X80892932Y-94185021D01*
X80853992Y-94111785D01*
X80801568Y-94047506D01*
X80737657Y-93994635D01*
X80664694Y-93955184D01*
X80585458Y-93930657D01*
X80502967Y-93921986D01*
X80496883Y-93922539D01*
X80519060Y-93872729D01*
X80538611Y-93786673D01*
X80540019Y-93685875D01*
X80522878Y-93599306D01*
X80489249Y-93517716D01*
X80440412Y-93444211D01*
X80395201Y-93398684D01*
X80407934Y-93368791D01*
X80522622Y-92940770D01*
X80664065Y-92845965D01*
X80655524Y-92857098D01*
X80638099Y-92892431D01*
X80627903Y-92930486D01*
X80582531Y-93099815D01*
X80617886Y-93161052D01*
X81047723Y-93276226D01*
X81052899Y-93256907D01*
X81062559Y-93259495D01*
X81057383Y-93278814D01*
X81487220Y-93393989D01*
X81548457Y-93358634D01*
X81593828Y-93189305D01*
X81598644Y-93171330D01*
X81631599Y-93165520D01*
X81713876Y-93133607D01*
X81788388Y-93086320D01*
X81852296Y-93025462D01*
X81903166Y-92953349D01*
X81939060Y-92872729D01*
X81958611Y-92786673D01*
X81960019Y-92685875D01*
X81942878Y-92599306D01*
X81909249Y-92517716D01*
X81860412Y-92444211D01*
X81814538Y-92398016D01*
X82234746Y-92320685D01*
X82234746Y-92320685D01*
G37*
X82234746Y-92320685D02*
X82072797Y-92693169D01*
X81740837Y-93870117D01*
X81559895Y-95347805D01*
X81620129Y-97104617D01*
X81809363Y-98353569D01*
X81768581Y-98326689D01*
X81693176Y-97942342D01*
X81684339Y-97911003D01*
X81657445Y-97861395D01*
X81617819Y-97821219D01*
X81568586Y-97793644D01*
X81531348Y-97784970D01*
X81559060Y-97722729D01*
X81578611Y-97636673D01*
X81580019Y-97535875D01*
X81562878Y-97449306D01*
X81529249Y-97367716D01*
X81519987Y-97353775D01*
X81519987Y-93464885D01*
X81484632Y-93403648D01*
X81054795Y-93288474D01*
X81045135Y-93324525D01*
X81045135Y-93285886D01*
X80615298Y-93170711D01*
X80554061Y-93206066D01*
X80508690Y-93375395D01*
X80498493Y-93413450D01*
X80495916Y-93452761D01*
X80501058Y-93491821D01*
X80513722Y-93529127D01*
X80533421Y-93563245D01*
X80559397Y-93592865D01*
X80590652Y-93616848D01*
X80625986Y-93634273D01*
X80881665Y-93702782D01*
X80942902Y-93667426D01*
X81045135Y-93285886D01*
X81045135Y-93324525D01*
X80952561Y-93670014D01*
X80987916Y-93731252D01*
X81243595Y-93799761D01*
X81282908Y-93802337D01*
X81321966Y-93797195D01*
X81359272Y-93784531D01*
X81393391Y-93764833D01*
X81423011Y-93738858D01*
X81446994Y-93707602D01*
X81464419Y-93672269D01*
X81474615Y-93634214D01*
X81519987Y-93464885D01*
X81519987Y-97353775D01*
X81480412Y-97294211D01*
X81418228Y-97231592D01*
X81345066Y-97182243D01*
X81263712Y-97148045D01*
X81177265Y-97130300D01*
X81089018Y-97129684D01*
X81002332Y-97146220D01*
X80920508Y-97179279D01*
X80918491Y-97180598D01*
X80916906Y-97164426D01*
X80892932Y-97085021D01*
X80853992Y-97011785D01*
X80801568Y-96947506D01*
X80782962Y-96932114D01*
X80794736Y-96927238D01*
X80827493Y-96905350D01*
X80855350Y-96877492D01*
X80877238Y-96844735D01*
X80892314Y-96808338D01*
X80900000Y-96769698D01*
X80900000Y-96055000D01*
X80850000Y-96005000D01*
X79505000Y-96005000D01*
X79505000Y-96875033D01*
X79505000Y-96900000D01*
X79505000Y-97445000D01*
X79925000Y-97445000D01*
X79925000Y-97245000D01*
X79915858Y-97162183D01*
X79890735Y-97082741D01*
X79850597Y-97009726D01*
X79800393Y-96950000D01*
X80197042Y-96950000D01*
X80149327Y-97006865D01*
X80109367Y-97079551D01*
X80084287Y-97158614D01*
X80075041Y-97241042D01*
X80075000Y-97246976D01*
X80075000Y-97625393D01*
X80074136Y-97625216D01*
X80010402Y-97624771D01*
X79947795Y-97636714D01*
X79925000Y-97645923D01*
X79925000Y-97455000D01*
X79505000Y-97455000D01*
X79505000Y-97475000D01*
X79495000Y-97475000D01*
X79495000Y-97455000D01*
X79075000Y-97455000D01*
X79075000Y-97655000D01*
X79084142Y-97737817D01*
X79109265Y-97817259D01*
X79149403Y-97890274D01*
X79203015Y-97954055D01*
X79268040Y-98006152D01*
X79269731Y-98007030D01*
X79257718Y-98022063D01*
X79244108Y-98038194D01*
X79242149Y-98041083D01*
X79107137Y-98243090D01*
X78888962Y-98285894D01*
X78888271Y-98285479D01*
X78829030Y-97918927D01*
X78850673Y-97893135D01*
X78890633Y-97820449D01*
X78915713Y-97741386D01*
X78924959Y-97658958D01*
X78925000Y-97653024D01*
X78925000Y-97246976D01*
X78916906Y-97164426D01*
X78892932Y-97085021D01*
X78853992Y-97011785D01*
X78803602Y-96950000D01*
X79199606Y-96950000D01*
X79149403Y-97009726D01*
X79109265Y-97082741D01*
X79084142Y-97162183D01*
X79075000Y-97245000D01*
X79075000Y-97445000D01*
X79495000Y-97445000D01*
X79495000Y-96900000D01*
X79495000Y-96875033D01*
X79495000Y-96005000D01*
X78150000Y-96005000D01*
X78100000Y-96055000D01*
X78100000Y-96769698D01*
X78107686Y-96808338D01*
X78122762Y-96844735D01*
X78144650Y-96877492D01*
X78172507Y-96905350D01*
X78205264Y-96927238D01*
X78216739Y-96931991D01*
X78202643Y-96943325D01*
X78149327Y-97006865D01*
X78109367Y-97079551D01*
X78084287Y-97158614D01*
X78075041Y-97241042D01*
X78075000Y-97246976D01*
X78075000Y-97653024D01*
X78083094Y-97735574D01*
X78107068Y-97814979D01*
X78146008Y-97888215D01*
X78198432Y-97952494D01*
X78262343Y-98005365D01*
X78335306Y-98044816D01*
X78343286Y-98047286D01*
X78412864Y-98477800D01*
X78388397Y-98452993D01*
X78339164Y-98425418D01*
X78284206Y-98412617D01*
X78227855Y-98415599D01*
X77639080Y-98531112D01*
X77638908Y-98531160D01*
X77450074Y-96548404D01*
X77529875Y-93994776D01*
X77665994Y-93149701D01*
X77682078Y-93153712D01*
X77721430Y-93155602D01*
X77760393Y-93149779D01*
X77797472Y-93136466D01*
X77831242Y-93116176D01*
X77860404Y-93089687D01*
X77883838Y-93058017D01*
X77899123Y-93025607D01*
X78045991Y-93064484D01*
X77955051Y-93510000D01*
X77954234Y-93517848D01*
X77952387Y-93525530D01*
X77951931Y-93528991D01*
X77871931Y-94168991D01*
X77871415Y-94188328D01*
X77870117Y-94207649D01*
X77870767Y-94212687D01*
X77870632Y-94217766D01*
X77873886Y-94236858D01*
X77876362Y-94256039D01*
X77877976Y-94260848D01*
X77878831Y-94265863D01*
X77885734Y-94283965D01*
X77891887Y-94302295D01*
X77894407Y-94306703D01*
X77896218Y-94311452D01*
X77906499Y-94327858D01*
X77916100Y-94344654D01*
X77919427Y-94348488D01*
X77922127Y-94352796D01*
X77935397Y-94366890D01*
X77948080Y-94381504D01*
X77950631Y-94383886D01*
X78075000Y-94498436D01*
X78075000Y-94753024D01*
X78083094Y-94835574D01*
X78107068Y-94914979D01*
X78146008Y-94988215D01*
X78198432Y-95052494D01*
X78217037Y-95067885D01*
X78205264Y-95072762D01*
X78172507Y-95094650D01*
X78144650Y-95122508D01*
X78122762Y-95155265D01*
X78107686Y-95191662D01*
X78100000Y-95230302D01*
X78100000Y-95945000D01*
X78150000Y-95995000D01*
X79495000Y-95995000D01*
X79495000Y-95975000D01*
X79505000Y-95975000D01*
X79505000Y-95995000D01*
X80850000Y-95995000D01*
X80900000Y-95945000D01*
X80900000Y-95230302D01*
X80892314Y-95191662D01*
X80877238Y-95155265D01*
X80855350Y-95122508D01*
X80827493Y-95094650D01*
X80794736Y-95072762D01*
X80783260Y-95068008D01*
X80797357Y-95056675D01*
X80850673Y-94993135D01*
X80890633Y-94920449D01*
X80915713Y-94841386D01*
X80924959Y-94758958D01*
X80925000Y-94753024D01*
X80925000Y-94346976D01*
X80916906Y-94264426D01*
X80892932Y-94185021D01*
X80853992Y-94111785D01*
X80801568Y-94047506D01*
X80737657Y-93994635D01*
X80664694Y-93955184D01*
X80585458Y-93930657D01*
X80502967Y-93921986D01*
X80496883Y-93922539D01*
X80519060Y-93872729D01*
X80538611Y-93786673D01*
X80540019Y-93685875D01*
X80522878Y-93599306D01*
X80489249Y-93517716D01*
X80440412Y-93444211D01*
X80395201Y-93398684D01*
X80407934Y-93368791D01*
X80522622Y-92940770D01*
X80664065Y-92845965D01*
X80655524Y-92857098D01*
X80638099Y-92892431D01*
X80627903Y-92930486D01*
X80582531Y-93099815D01*
X80617886Y-93161052D01*
X81047723Y-93276226D01*
X81052899Y-93256907D01*
X81062559Y-93259495D01*
X81057383Y-93278814D01*
X81487220Y-93393989D01*
X81548457Y-93358634D01*
X81593828Y-93189305D01*
X81598644Y-93171330D01*
X81631599Y-93165520D01*
X81713876Y-93133607D01*
X81788388Y-93086320D01*
X81852296Y-93025462D01*
X81903166Y-92953349D01*
X81939060Y-92872729D01*
X81958611Y-92786673D01*
X81960019Y-92685875D01*
X81942878Y-92599306D01*
X81909249Y-92517716D01*
X81860412Y-92444211D01*
X81814538Y-92398016D01*
X82234746Y-92320685D01*
G36*
X82394428Y-91138332D02*
X82311800Y-91316301D01*
X82310412Y-91314211D01*
X82248228Y-91251592D01*
X82175066Y-91202243D01*
X82093712Y-91168045D01*
X82009577Y-91150774D01*
X82009614Y-91150496D01*
X82005342Y-91086921D01*
X81988750Y-91025401D01*
X81960474Y-90968300D01*
X81921603Y-90917812D01*
X81873628Y-90875878D01*
X81818394Y-90844109D01*
X81703675Y-90794465D01*
X81576588Y-91088147D01*
X81594942Y-91096089D01*
X81590970Y-91105267D01*
X81572616Y-91097325D01*
X81445529Y-91391005D01*
X81318442Y-91684687D01*
X81336796Y-91692629D01*
X81332824Y-91701807D01*
X81314470Y-91693865D01*
X81187383Y-91987546D01*
X81178205Y-91983575D01*
X81305292Y-91689893D01*
X80942821Y-91533037D01*
X80894611Y-91555424D01*
X80873948Y-91503234D01*
X80442603Y-91316575D01*
X80116942Y-92069133D01*
X80142972Y-92134878D01*
X80408844Y-92249931D01*
X80447358Y-92258223D01*
X80486749Y-92258842D01*
X80525505Y-92251764D01*
X80562135Y-92237262D01*
X80595232Y-92215892D01*
X80615701Y-92196055D01*
X80612101Y-92225382D01*
X80615845Y-92276361D01*
X80165580Y-92578157D01*
X79832471Y-92488901D01*
X79829988Y-92487990D01*
X79811667Y-92480492D01*
X79808315Y-92479515D01*
X79278184Y-92328917D01*
X79311013Y-92204899D01*
X78806964Y-92066532D01*
X78869015Y-91833948D01*
X78928566Y-91665218D01*
X78957133Y-91702045D01*
X79005004Y-91743659D01*
X79060045Y-91775181D01*
X79064197Y-91777012D01*
X79297630Y-91878028D01*
X79358023Y-91897418D01*
X79421032Y-91904708D01*
X79484256Y-91899621D01*
X79545289Y-91882351D01*
X79601804Y-91853555D01*
X79651650Y-91814331D01*
X79673817Y-91788466D01*
X79673370Y-91816966D01*
X79680448Y-91855722D01*
X79694952Y-91892351D01*
X79716322Y-91925448D01*
X79743738Y-91953740D01*
X79776147Y-91976139D01*
X80042019Y-92091192D01*
X80107764Y-92065162D01*
X80433425Y-91312603D01*
X80415070Y-91304660D01*
X80419042Y-91295482D01*
X80437397Y-91303425D01*
X80763058Y-90550867D01*
X80737028Y-90485122D01*
X80471156Y-90370069D01*
X80432642Y-90361777D01*
X80393251Y-90361158D01*
X80354495Y-90368236D01*
X80317865Y-90382738D01*
X80284768Y-90404108D01*
X80264297Y-90423945D01*
X80267899Y-90394618D01*
X80263253Y-90331359D01*
X80248385Y-90277377D01*
X80300270Y-90300046D01*
X80386460Y-90318996D01*
X80474691Y-90320844D01*
X80561599Y-90305520D01*
X80643876Y-90273607D01*
X80718388Y-90226320D01*
X80782296Y-90165462D01*
X80833166Y-90093349D01*
X80854894Y-90044545D01*
X80963428Y-90023600D01*
X80966237Y-90035764D01*
X80982418Y-90071685D01*
X81005295Y-90103757D01*
X81033991Y-90130752D01*
X81056634Y-90144901D01*
X81006664Y-90177601D01*
X80943612Y-90239346D01*
X80893754Y-90312162D01*
X80858989Y-90393275D01*
X80840641Y-90479596D01*
X80839942Y-90529656D01*
X80837981Y-90528808D01*
X80772236Y-90554838D01*
X80446575Y-91307397D01*
X80877919Y-91494056D01*
X80930109Y-91473392D01*
X80946792Y-91523860D01*
X81309264Y-91680715D01*
X81436350Y-91387034D01*
X81436351Y-91387035D01*
X81436351Y-91387034D01*
X81563438Y-91093353D01*
X81545083Y-91085410D01*
X81549055Y-91076232D01*
X81567410Y-91084175D01*
X81694497Y-90790494D01*
X81665741Y-90778050D01*
X81683166Y-90753349D01*
X81719060Y-90672729D01*
X81738611Y-90586673D01*
X81740019Y-90485875D01*
X81738100Y-90476187D01*
X81765613Y-90463794D01*
X81797686Y-90440916D01*
X81824679Y-90412221D01*
X81845557Y-90378811D01*
X81938452Y-90230146D01*
X81922546Y-90161248D01*
X81545165Y-89925434D01*
X81534566Y-89942395D01*
X81526085Y-89937095D01*
X81536684Y-89920135D01*
X81519722Y-89909536D01*
X81525022Y-89901055D01*
X81541983Y-89911654D01*
X81552581Y-89894692D01*
X81561062Y-89899991D01*
X81550464Y-89916953D01*
X81927845Y-90152767D01*
X81996744Y-90136861D01*
X82089640Y-89988196D01*
X82110517Y-89954786D01*
X82111230Y-89952902D01*
X82195894Y-90009904D01*
X82184061Y-90023972D01*
X81919102Y-90447996D01*
X81904141Y-90476916D01*
X81889882Y-90531514D01*
X81891365Y-90587924D01*
X81908471Y-90641698D01*
X81939853Y-90688597D01*
X81983035Y-90724922D01*
X82341654Y-90949012D01*
X82394428Y-91138332D01*
X82394428Y-91138332D01*
G37*
X82394428Y-91138332D02*
X82311800Y-91316301D01*
X82310412Y-91314211D01*
X82248228Y-91251592D01*
X82175066Y-91202243D01*
X82093712Y-91168045D01*
X82009577Y-91150774D01*
X82009614Y-91150496D01*
X82005342Y-91086921D01*
X81988750Y-91025401D01*
X81960474Y-90968300D01*
X81921603Y-90917812D01*
X81873628Y-90875878D01*
X81818394Y-90844109D01*
X81703675Y-90794465D01*
X81576588Y-91088147D01*
X81594942Y-91096089D01*
X81590970Y-91105267D01*
X81572616Y-91097325D01*
X81445529Y-91391005D01*
X81318442Y-91684687D01*
X81336796Y-91692629D01*
X81332824Y-91701807D01*
X81314470Y-91693865D01*
X81187383Y-91987546D01*
X81178205Y-91983575D01*
X81305292Y-91689893D01*
X80942821Y-91533037D01*
X80894611Y-91555424D01*
X80873948Y-91503234D01*
X80442603Y-91316575D01*
X80116942Y-92069133D01*
X80142972Y-92134878D01*
X80408844Y-92249931D01*
X80447358Y-92258223D01*
X80486749Y-92258842D01*
X80525505Y-92251764D01*
X80562135Y-92237262D01*
X80595232Y-92215892D01*
X80615701Y-92196055D01*
X80612101Y-92225382D01*
X80615845Y-92276361D01*
X80165580Y-92578157D01*
X79832471Y-92488901D01*
X79829988Y-92487990D01*
X79811667Y-92480492D01*
X79808315Y-92479515D01*
X79278184Y-92328917D01*
X79311013Y-92204899D01*
X78806964Y-92066532D01*
X78869015Y-91833948D01*
X78928566Y-91665218D01*
X78957133Y-91702045D01*
X79005004Y-91743659D01*
X79060045Y-91775181D01*
X79064197Y-91777012D01*
X79297630Y-91878028D01*
X79358023Y-91897418D01*
X79421032Y-91904708D01*
X79484256Y-91899621D01*
X79545289Y-91882351D01*
X79601804Y-91853555D01*
X79651650Y-91814331D01*
X79673817Y-91788466D01*
X79673370Y-91816966D01*
X79680448Y-91855722D01*
X79694952Y-91892351D01*
X79716322Y-91925448D01*
X79743738Y-91953740D01*
X79776147Y-91976139D01*
X80042019Y-92091192D01*
X80107764Y-92065162D01*
X80433425Y-91312603D01*
X80415070Y-91304660D01*
X80419042Y-91295482D01*
X80437397Y-91303425D01*
X80763058Y-90550867D01*
X80737028Y-90485122D01*
X80471156Y-90370069D01*
X80432642Y-90361777D01*
X80393251Y-90361158D01*
X80354495Y-90368236D01*
X80317865Y-90382738D01*
X80284768Y-90404108D01*
X80264297Y-90423945D01*
X80267899Y-90394618D01*
X80263253Y-90331359D01*
X80248385Y-90277377D01*
X80300270Y-90300046D01*
X80386460Y-90318996D01*
X80474691Y-90320844D01*
X80561599Y-90305520D01*
X80643876Y-90273607D01*
X80718388Y-90226320D01*
X80782296Y-90165462D01*
X80833166Y-90093349D01*
X80854894Y-90044545D01*
X80963428Y-90023600D01*
X80966237Y-90035764D01*
X80982418Y-90071685D01*
X81005295Y-90103757D01*
X81033991Y-90130752D01*
X81056634Y-90144901D01*
X81006664Y-90177601D01*
X80943612Y-90239346D01*
X80893754Y-90312162D01*
X80858989Y-90393275D01*
X80840641Y-90479596D01*
X80839942Y-90529656D01*
X80837981Y-90528808D01*
X80772236Y-90554838D01*
X80446575Y-91307397D01*
X80877919Y-91494056D01*
X80930109Y-91473392D01*
X80946792Y-91523860D01*
X81309264Y-91680715D01*
X81436350Y-91387034D01*
X81436351Y-91387035D01*
X81436351Y-91387034D01*
X81563438Y-91093353D01*
X81545083Y-91085410D01*
X81549055Y-91076232D01*
X81567410Y-91084175D01*
X81694497Y-90790494D01*
X81665741Y-90778050D01*
X81683166Y-90753349D01*
X81719060Y-90672729D01*
X81738611Y-90586673D01*
X81740019Y-90485875D01*
X81738100Y-90476187D01*
X81765613Y-90463794D01*
X81797686Y-90440916D01*
X81824679Y-90412221D01*
X81845557Y-90378811D01*
X81938452Y-90230146D01*
X81922546Y-90161248D01*
X81545165Y-89925434D01*
X81534566Y-89942395D01*
X81526085Y-89937095D01*
X81536684Y-89920135D01*
X81519722Y-89909536D01*
X81525022Y-89901055D01*
X81541983Y-89911654D01*
X81552581Y-89894692D01*
X81561062Y-89899991D01*
X81550464Y-89916953D01*
X81927845Y-90152767D01*
X81996744Y-90136861D01*
X82089640Y-89988196D01*
X82110517Y-89954786D01*
X82111230Y-89952902D01*
X82195894Y-90009904D01*
X82184061Y-90023972D01*
X81919102Y-90447996D01*
X81904141Y-90476916D01*
X81889882Y-90531514D01*
X81891365Y-90587924D01*
X81908471Y-90641698D01*
X81939853Y-90688597D01*
X81983035Y-90724922D01*
X82341654Y-90949012D01*
X82394428Y-91138332D01*
G36*
X83218837Y-89342217D02*
X83056897Y-89562562D01*
X82942477Y-89584119D01*
X82942477Y-89290989D01*
X82940622Y-89251636D01*
X82931124Y-89213401D01*
X82914350Y-89177754D01*
X82890944Y-89146065D01*
X82861805Y-89119550D01*
X82824600Y-89085696D01*
X82753968Y-89089027D01*
X82521778Y-89344200D01*
X82721479Y-89525913D01*
X82792111Y-89522582D01*
X82902955Y-89400767D01*
X82923275Y-89367014D01*
X82936620Y-89329948D01*
X82942477Y-89290989D01*
X82942477Y-89584119D01*
X82693418Y-89631044D01*
X82718079Y-89603942D01*
X82714748Y-89533310D01*
X82515048Y-89351596D01*
X82501587Y-89366388D01*
X82494191Y-89359658D01*
X82507652Y-89344866D01*
X82492859Y-89331405D01*
X82499589Y-89324009D01*
X82514382Y-89337470D01*
X82746571Y-89082297D01*
X82743240Y-89011665D01*
X82718606Y-88989250D01*
X82794691Y-88990844D01*
X82855367Y-88980145D01*
X82871716Y-89017764D01*
X82907707Y-89061225D01*
X83203560Y-89330430D01*
X83218837Y-89342217D01*
X83218837Y-89342217D01*
G37*
X83218837Y-89342217D02*
X83056897Y-89562562D01*
X82942477Y-89584119D01*
X82942477Y-89290989D01*
X82940622Y-89251636D01*
X82931124Y-89213401D01*
X82914350Y-89177754D01*
X82890944Y-89146065D01*
X82861805Y-89119550D01*
X82824600Y-89085696D01*
X82753968Y-89089027D01*
X82521778Y-89344200D01*
X82721479Y-89525913D01*
X82792111Y-89522582D01*
X82902955Y-89400767D01*
X82923275Y-89367014D01*
X82936620Y-89329948D01*
X82942477Y-89290989D01*
X82942477Y-89584119D01*
X82693418Y-89631044D01*
X82718079Y-89603942D01*
X82714748Y-89533310D01*
X82515048Y-89351596D01*
X82501587Y-89366388D01*
X82494191Y-89359658D01*
X82507652Y-89344866D01*
X82492859Y-89331405D01*
X82499589Y-89324009D01*
X82514382Y-89337470D01*
X82746571Y-89082297D01*
X82743240Y-89011665D01*
X82718606Y-88989250D01*
X82794691Y-88990844D01*
X82855367Y-88980145D01*
X82871716Y-89017764D01*
X82907707Y-89061225D01*
X83203560Y-89330430D01*
X83218837Y-89342217D01*
G36*
X83858839Y-86510208D02*
X83702319Y-86367785D01*
X83676539Y-86347894D01*
X83625370Y-86324103D01*
X83580533Y-86317165D01*
X83571510Y-86280841D01*
X83554736Y-86245194D01*
X83531330Y-86213505D01*
X83502191Y-86186990D01*
X83464986Y-86153136D01*
X83394354Y-86156467D01*
X83386957Y-86164596D01*
X83386957Y-86149737D01*
X83383626Y-86079105D01*
X83346421Y-86045251D01*
X83317282Y-86018736D01*
X83283531Y-85998417D01*
X83246463Y-85985071D01*
X83210469Y-85979659D01*
X83201694Y-85944335D01*
X83184920Y-85908688D01*
X83161514Y-85876999D01*
X83132375Y-85850484D01*
X83095170Y-85816630D01*
X83024538Y-85819961D01*
X83017141Y-85828090D01*
X83017141Y-85813231D01*
X83013810Y-85742599D01*
X82976605Y-85708745D01*
X82947466Y-85682230D01*
X82913715Y-85661911D01*
X82876647Y-85648565D01*
X82837688Y-85642708D01*
X82798336Y-85644565D01*
X82760101Y-85654062D01*
X82724454Y-85670836D01*
X82692764Y-85694242D01*
X82581921Y-85816058D01*
X82585252Y-85886690D01*
X82784952Y-86068404D01*
X83017141Y-85813231D01*
X83017141Y-85828090D01*
X82792348Y-86075134D01*
X82992049Y-86256847D01*
X83154768Y-86404910D01*
X83386957Y-86149737D01*
X83386957Y-86164596D01*
X83162164Y-86411640D01*
X83176956Y-86425100D01*
X83170226Y-86432496D01*
X83155434Y-86419036D01*
X83141973Y-86433828D01*
X83134577Y-86427098D01*
X83148038Y-86412306D01*
X82948337Y-86230593D01*
X82948336Y-86230593D01*
X82785618Y-86082530D01*
X82772157Y-86097322D01*
X82764761Y-86090592D01*
X82778222Y-86075800D01*
X82578521Y-85894087D01*
X82507889Y-85897418D01*
X82417509Y-85996742D01*
X82227954Y-85824820D01*
X82212707Y-85813493D01*
X82198002Y-85801541D01*
X82193179Y-85798986D01*
X82188787Y-85795724D01*
X82171637Y-85787578D01*
X82154883Y-85778705D01*
X82149650Y-85777134D01*
X82144714Y-85774790D01*
X82126321Y-85770133D01*
X82108151Y-85764681D01*
X82102710Y-85764156D01*
X82097415Y-85762816D01*
X82078470Y-85761820D01*
X82059585Y-85760000D01*
X82056094Y-85760031D01*
X81870777Y-85762926D01*
X82335203Y-85314437D01*
X82356716Y-85289995D01*
X82383760Y-85240468D01*
X82395968Y-85185375D01*
X82392379Y-85129060D01*
X82373275Y-85075962D01*
X82340163Y-85030269D01*
X82324841Y-85014403D01*
X82392984Y-84947681D01*
X83065099Y-84422590D01*
X82870332Y-85078873D01*
X82866598Y-85098202D01*
X82862139Y-85117367D01*
X82861981Y-85122110D01*
X82861080Y-85126779D01*
X82861172Y-85146484D01*
X82860521Y-85166131D01*
X82861287Y-85170812D01*
X82861310Y-85175570D01*
X82865228Y-85194880D01*
X82868406Y-85214282D01*
X82870068Y-85218729D01*
X82871014Y-85223387D01*
X82878599Y-85241548D01*
X82885492Y-85259984D01*
X82887988Y-85264025D01*
X82889819Y-85268409D01*
X82900784Y-85284744D01*
X82911130Y-85301496D01*
X82913265Y-85304258D01*
X83858839Y-86510208D01*
X83858839Y-86510208D01*
G37*
X83858839Y-86510208D02*
X83702319Y-86367785D01*
X83676539Y-86347894D01*
X83625370Y-86324103D01*
X83580533Y-86317165D01*
X83571510Y-86280841D01*
X83554736Y-86245194D01*
X83531330Y-86213505D01*
X83502191Y-86186990D01*
X83464986Y-86153136D01*
X83394354Y-86156467D01*
X83386957Y-86164596D01*
X83386957Y-86149737D01*
X83383626Y-86079105D01*
X83346421Y-86045251D01*
X83317282Y-86018736D01*
X83283531Y-85998417D01*
X83246463Y-85985071D01*
X83210469Y-85979659D01*
X83201694Y-85944335D01*
X83184920Y-85908688D01*
X83161514Y-85876999D01*
X83132375Y-85850484D01*
X83095170Y-85816630D01*
X83024538Y-85819961D01*
X83017141Y-85828090D01*
X83017141Y-85813231D01*
X83013810Y-85742599D01*
X82976605Y-85708745D01*
X82947466Y-85682230D01*
X82913715Y-85661911D01*
X82876647Y-85648565D01*
X82837688Y-85642708D01*
X82798336Y-85644565D01*
X82760101Y-85654062D01*
X82724454Y-85670836D01*
X82692764Y-85694242D01*
X82581921Y-85816058D01*
X82585252Y-85886690D01*
X82784952Y-86068404D01*
X83017141Y-85813231D01*
X83017141Y-85828090D01*
X82792348Y-86075134D01*
X82992049Y-86256847D01*
X83154768Y-86404910D01*
X83386957Y-86149737D01*
X83386957Y-86164596D01*
X83162164Y-86411640D01*
X83176956Y-86425100D01*
X83170226Y-86432496D01*
X83155434Y-86419036D01*
X83141973Y-86433828D01*
X83134577Y-86427098D01*
X83148038Y-86412306D01*
X82948337Y-86230593D01*
X82948336Y-86230593D01*
X82785618Y-86082530D01*
X82772157Y-86097322D01*
X82764761Y-86090592D01*
X82778222Y-86075800D01*
X82578521Y-85894087D01*
X82507889Y-85897418D01*
X82417509Y-85996742D01*
X82227954Y-85824820D01*
X82212707Y-85813493D01*
X82198002Y-85801541D01*
X82193179Y-85798986D01*
X82188787Y-85795724D01*
X82171637Y-85787578D01*
X82154883Y-85778705D01*
X82149650Y-85777134D01*
X82144714Y-85774790D01*
X82126321Y-85770133D01*
X82108151Y-85764681D01*
X82102710Y-85764156D01*
X82097415Y-85762816D01*
X82078470Y-85761820D01*
X82059585Y-85760000D01*
X82056094Y-85760031D01*
X81870777Y-85762926D01*
X82335203Y-85314437D01*
X82356716Y-85289995D01*
X82383760Y-85240468D01*
X82395968Y-85185375D01*
X82392379Y-85129060D01*
X82373275Y-85075962D01*
X82340163Y-85030269D01*
X82324841Y-85014403D01*
X82392984Y-84947681D01*
X83065099Y-84422590D01*
X82870332Y-85078873D01*
X82866598Y-85098202D01*
X82862139Y-85117367D01*
X82861981Y-85122110D01*
X82861080Y-85126779D01*
X82861172Y-85146484D01*
X82860521Y-85166131D01*
X82861287Y-85170812D01*
X82861310Y-85175570D01*
X82865228Y-85194880D01*
X82868406Y-85214282D01*
X82870068Y-85218729D01*
X82871014Y-85223387D01*
X82878599Y-85241548D01*
X82885492Y-85259984D01*
X82887988Y-85264025D01*
X82889819Y-85268409D01*
X82900784Y-85284744D01*
X82911130Y-85301496D01*
X82913265Y-85304258D01*
X83858839Y-86510208D01*
G36*
X83916587Y-87098113D02*
X83909857Y-87105509D01*
X83895065Y-87092049D01*
X83881604Y-87106841D01*
X83874208Y-87100111D01*
X83887669Y-87085319D01*
X83872876Y-87071858D01*
X83879606Y-87064462D01*
X83894399Y-87077923D01*
X83907859Y-87063130D01*
X83915255Y-87069860D01*
X83901795Y-87084653D01*
X83916587Y-87098113D01*
X83916587Y-87098113D01*
G37*
X83916587Y-87098113D02*
X83909857Y-87105509D01*
X83895065Y-87092049D01*
X83881604Y-87106841D01*
X83874208Y-87100111D01*
X83887669Y-87085319D01*
X83872876Y-87071858D01*
X83879606Y-87064462D01*
X83894399Y-87077923D01*
X83907859Y-87063130D01*
X83915255Y-87069860D01*
X83901795Y-87084653D01*
X83916587Y-87098113D01*
G36*
X85378352Y-104511634D02*
X85160749Y-104859872D01*
X85130412Y-104814211D01*
X85068228Y-104751592D01*
X84995066Y-104702243D01*
X84913712Y-104668045D01*
X84827265Y-104650300D01*
X84739018Y-104649684D01*
X84679814Y-104660977D01*
X84688083Y-104641591D01*
X84696173Y-104603034D01*
X84696586Y-104563639D01*
X84689306Y-104524921D01*
X84674611Y-104488368D01*
X84653068Y-104455383D01*
X84625503Y-104427235D01*
X84572817Y-104373434D01*
X84502111Y-104372694D01*
X84495854Y-104378821D01*
X84495854Y-104294842D01*
X84443168Y-104241041D01*
X84415604Y-104212893D01*
X84383078Y-104190664D01*
X84346840Y-104175207D01*
X84308283Y-104167117D01*
X84276454Y-104166784D01*
X84276788Y-104134955D01*
X84269508Y-104096237D01*
X84254813Y-104059684D01*
X84233270Y-104026699D01*
X84205705Y-103998551D01*
X84153019Y-103944750D01*
X84082313Y-103944010D01*
X83817958Y-104202885D01*
X84024358Y-104413654D01*
X84024358Y-104413655D01*
X84230759Y-104624424D01*
X84495114Y-104365549D01*
X84495854Y-104294842D01*
X84495854Y-104378821D01*
X84237756Y-104631569D01*
X84251748Y-104645858D01*
X84244604Y-104652855D01*
X84230611Y-104638566D01*
X84216321Y-104652558D01*
X84209324Y-104645414D01*
X84223614Y-104631421D01*
X84017214Y-104420652D01*
X84017213Y-104420651D01*
X84017214Y-104420651D01*
X83810813Y-104209882D01*
X83546458Y-104468757D01*
X83545718Y-104539464D01*
X83598404Y-104593265D01*
X83625968Y-104621413D01*
X83658494Y-104643642D01*
X83694732Y-104659099D01*
X83733289Y-104667189D01*
X83765117Y-104667521D01*
X83764784Y-104699351D01*
X83772064Y-104738069D01*
X83786759Y-104774622D01*
X83808302Y-104807607D01*
X83835867Y-104835755D01*
X83861351Y-104861778D01*
X83820667Y-104891696D01*
X83606325Y-105101595D01*
X83584983Y-105126187D01*
X83558286Y-105175901D01*
X83546463Y-105231078D01*
X83548149Y-105254919D01*
X83546697Y-105254608D01*
X83490408Y-105258590D01*
X83437445Y-105278064D01*
X83391984Y-105311494D01*
X83177642Y-105521393D01*
X83156300Y-105545985D01*
X83148082Y-105561287D01*
X83108304Y-105520667D01*
X83083712Y-105499325D01*
X83033998Y-105472628D01*
X82978821Y-105460805D01*
X82954979Y-105462491D01*
X82955291Y-105461039D01*
X82951309Y-105404750D01*
X82943739Y-105384163D01*
X83056034Y-105267004D01*
X83081246Y-105272548D01*
X83169477Y-105274396D01*
X83256385Y-105259072D01*
X83338662Y-105227159D01*
X83413174Y-105179872D01*
X83477082Y-105119014D01*
X83527952Y-105046901D01*
X83563846Y-104966281D01*
X83583397Y-104880225D01*
X83584805Y-104779427D01*
X83567664Y-104692858D01*
X83534035Y-104611268D01*
X83485198Y-104537763D01*
X83423014Y-104475144D01*
X83349852Y-104425795D01*
X83268498Y-104391597D01*
X83182051Y-104373852D01*
X83093804Y-104373236D01*
X83007118Y-104389772D01*
X82925294Y-104422831D01*
X82851450Y-104471153D01*
X82788398Y-104532898D01*
X82738540Y-104605714D01*
X82703775Y-104686827D01*
X82685427Y-104773148D01*
X82684195Y-104861389D01*
X82695128Y-104920960D01*
X82583545Y-105037376D01*
X82559023Y-105032122D01*
X82534868Y-105033830D01*
X82535216Y-105000649D01*
X82527936Y-104961931D01*
X82513241Y-104925378D01*
X82491698Y-104892393D01*
X82464133Y-104864245D01*
X82438648Y-104838221D01*
X82479333Y-104808304D01*
X82693675Y-104598405D01*
X82715017Y-104573813D01*
X82741714Y-104524099D01*
X82753537Y-104468922D01*
X82751850Y-104445080D01*
X82753303Y-104445392D01*
X82809592Y-104441410D01*
X82862555Y-104421936D01*
X82908016Y-104388506D01*
X83122358Y-104178607D01*
X83143700Y-104154015D01*
X83151917Y-104138712D01*
X83191696Y-104179333D01*
X83216288Y-104200675D01*
X83266002Y-104227372D01*
X83321179Y-104239195D01*
X83345333Y-104237486D01*
X83344986Y-104270667D01*
X83352266Y-104309385D01*
X83366961Y-104345938D01*
X83388504Y-104378923D01*
X83416069Y-104407071D01*
X83468755Y-104460872D01*
X83539461Y-104461612D01*
X83803816Y-104202737D01*
X83789823Y-104188447D01*
X83796967Y-104181450D01*
X83810961Y-104195740D01*
X84075316Y-103936865D01*
X84076056Y-103866158D01*
X84023370Y-103812357D01*
X83995806Y-103784209D01*
X83963280Y-103761980D01*
X83927042Y-103746523D01*
X83888485Y-103738433D01*
X83857239Y-103738106D01*
X83857267Y-103737978D01*
X83853670Y-103687144D01*
X84120933Y-103440248D01*
X84215689Y-103557300D01*
X84228589Y-103570385D01*
X84240859Y-103584097D01*
X84243447Y-103586440D01*
X84993447Y-104256440D01*
X85007135Y-104266449D01*
X85020210Y-104277265D01*
X85023118Y-104279197D01*
X85378352Y-104511634D01*
X85378352Y-104511634D01*
G37*
X85378352Y-104511634D02*
X85160749Y-104859872D01*
X85130412Y-104814211D01*
X85068228Y-104751592D01*
X84995066Y-104702243D01*
X84913712Y-104668045D01*
X84827265Y-104650300D01*
X84739018Y-104649684D01*
X84679814Y-104660977D01*
X84688083Y-104641591D01*
X84696173Y-104603034D01*
X84696586Y-104563639D01*
X84689306Y-104524921D01*
X84674611Y-104488368D01*
X84653068Y-104455383D01*
X84625503Y-104427235D01*
X84572817Y-104373434D01*
X84502111Y-104372694D01*
X84495854Y-104378821D01*
X84495854Y-104294842D01*
X84443168Y-104241041D01*
X84415604Y-104212893D01*
X84383078Y-104190664D01*
X84346840Y-104175207D01*
X84308283Y-104167117D01*
X84276454Y-104166784D01*
X84276788Y-104134955D01*
X84269508Y-104096237D01*
X84254813Y-104059684D01*
X84233270Y-104026699D01*
X84205705Y-103998551D01*
X84153019Y-103944750D01*
X84082313Y-103944010D01*
X83817958Y-104202885D01*
X84024358Y-104413654D01*
X84024358Y-104413655D01*
X84230759Y-104624424D01*
X84495114Y-104365549D01*
X84495854Y-104294842D01*
X84495854Y-104378821D01*
X84237756Y-104631569D01*
X84251748Y-104645858D01*
X84244604Y-104652855D01*
X84230611Y-104638566D01*
X84216321Y-104652558D01*
X84209324Y-104645414D01*
X84223614Y-104631421D01*
X84017214Y-104420652D01*
X84017213Y-104420651D01*
X84017214Y-104420651D01*
X83810813Y-104209882D01*
X83546458Y-104468757D01*
X83545718Y-104539464D01*
X83598404Y-104593265D01*
X83625968Y-104621413D01*
X83658494Y-104643642D01*
X83694732Y-104659099D01*
X83733289Y-104667189D01*
X83765117Y-104667521D01*
X83764784Y-104699351D01*
X83772064Y-104738069D01*
X83786759Y-104774622D01*
X83808302Y-104807607D01*
X83835867Y-104835755D01*
X83861351Y-104861778D01*
X83820667Y-104891696D01*
X83606325Y-105101595D01*
X83584983Y-105126187D01*
X83558286Y-105175901D01*
X83546463Y-105231078D01*
X83548149Y-105254919D01*
X83546697Y-105254608D01*
X83490408Y-105258590D01*
X83437445Y-105278064D01*
X83391984Y-105311494D01*
X83177642Y-105521393D01*
X83156300Y-105545985D01*
X83148082Y-105561287D01*
X83108304Y-105520667D01*
X83083712Y-105499325D01*
X83033998Y-105472628D01*
X82978821Y-105460805D01*
X82954979Y-105462491D01*
X82955291Y-105461039D01*
X82951309Y-105404750D01*
X82943739Y-105384163D01*
X83056034Y-105267004D01*
X83081246Y-105272548D01*
X83169477Y-105274396D01*
X83256385Y-105259072D01*
X83338662Y-105227159D01*
X83413174Y-105179872D01*
X83477082Y-105119014D01*
X83527952Y-105046901D01*
X83563846Y-104966281D01*
X83583397Y-104880225D01*
X83584805Y-104779427D01*
X83567664Y-104692858D01*
X83534035Y-104611268D01*
X83485198Y-104537763D01*
X83423014Y-104475144D01*
X83349852Y-104425795D01*
X83268498Y-104391597D01*
X83182051Y-104373852D01*
X83093804Y-104373236D01*
X83007118Y-104389772D01*
X82925294Y-104422831D01*
X82851450Y-104471153D01*
X82788398Y-104532898D01*
X82738540Y-104605714D01*
X82703775Y-104686827D01*
X82685427Y-104773148D01*
X82684195Y-104861389D01*
X82695128Y-104920960D01*
X82583545Y-105037376D01*
X82559023Y-105032122D01*
X82534868Y-105033830D01*
X82535216Y-105000649D01*
X82527936Y-104961931D01*
X82513241Y-104925378D01*
X82491698Y-104892393D01*
X82464133Y-104864245D01*
X82438648Y-104838221D01*
X82479333Y-104808304D01*
X82693675Y-104598405D01*
X82715017Y-104573813D01*
X82741714Y-104524099D01*
X82753537Y-104468922D01*
X82751850Y-104445080D01*
X82753303Y-104445392D01*
X82809592Y-104441410D01*
X82862555Y-104421936D01*
X82908016Y-104388506D01*
X83122358Y-104178607D01*
X83143700Y-104154015D01*
X83151917Y-104138712D01*
X83191696Y-104179333D01*
X83216288Y-104200675D01*
X83266002Y-104227372D01*
X83321179Y-104239195D01*
X83345333Y-104237486D01*
X83344986Y-104270667D01*
X83352266Y-104309385D01*
X83366961Y-104345938D01*
X83388504Y-104378923D01*
X83416069Y-104407071D01*
X83468755Y-104460872D01*
X83539461Y-104461612D01*
X83803816Y-104202737D01*
X83789823Y-104188447D01*
X83796967Y-104181450D01*
X83810961Y-104195740D01*
X84075316Y-103936865D01*
X84076056Y-103866158D01*
X84023370Y-103812357D01*
X83995806Y-103784209D01*
X83963280Y-103761980D01*
X83927042Y-103746523D01*
X83888485Y-103738433D01*
X83857239Y-103738106D01*
X83857267Y-103737978D01*
X83853670Y-103687144D01*
X84120933Y-103440248D01*
X84215689Y-103557300D01*
X84228589Y-103570385D01*
X84240859Y-103584097D01*
X84243447Y-103586440D01*
X84993447Y-104256440D01*
X85007135Y-104266449D01*
X85020210Y-104277265D01*
X85023118Y-104279197D01*
X85378352Y-104511634D01*
G36*
X86761027Y-106121844D02*
X86573829Y-106497867D01*
X86573829Y-106442001D01*
X86572626Y-106402623D01*
X86563763Y-106364236D01*
X86547582Y-106328315D01*
X86524705Y-106296243D01*
X86496009Y-106269248D01*
X86271532Y-106128980D01*
X86202634Y-106144886D01*
X86194153Y-106158458D01*
X86194153Y-106139587D01*
X86178247Y-106070689D01*
X85953770Y-105930420D01*
X85916929Y-105916462D01*
X85878073Y-105909960D01*
X85838695Y-105911163D01*
X85800308Y-105920025D01*
X85764387Y-105936206D01*
X85732314Y-105959084D01*
X85705321Y-105987779D01*
X85684443Y-106021189D01*
X85591548Y-106169854D01*
X85607454Y-106238752D01*
X85984835Y-106474566D01*
X86194153Y-106139587D01*
X86194153Y-106158458D01*
X85993316Y-106479865D01*
X86370697Y-106715679D01*
X86439596Y-106699773D01*
X86532492Y-106551108D01*
X86553369Y-106517698D01*
X86567326Y-106480857D01*
X86573829Y-106442001D01*
X86573829Y-106497867D01*
X86381304Y-106884591D01*
X86381304Y-106793058D01*
X86365398Y-106724160D01*
X85988017Y-106488346D01*
X85979536Y-106501918D01*
X85979536Y-106483047D01*
X85602155Y-106247233D01*
X85533256Y-106263139D01*
X85440360Y-106411804D01*
X85419483Y-106445214D01*
X85405526Y-106482055D01*
X85399023Y-106520911D01*
X85400226Y-106560289D01*
X85409089Y-106598676D01*
X85425270Y-106634597D01*
X85448147Y-106666669D01*
X85476843Y-106693664D01*
X85701320Y-106833932D01*
X85770218Y-106818026D01*
X85979536Y-106483047D01*
X85979536Y-106501918D01*
X85778699Y-106823325D01*
X85794605Y-106892223D01*
X86019082Y-107032492D01*
X86055923Y-107046450D01*
X86094779Y-107052952D01*
X86134157Y-107051749D01*
X86172544Y-107042887D01*
X86208465Y-107026706D01*
X86240538Y-107003828D01*
X86267531Y-106975133D01*
X86288409Y-106941723D01*
X86381304Y-106793058D01*
X86381304Y-106884591D01*
X86043422Y-107563294D01*
X85902568Y-107504084D01*
X85739279Y-107470566D01*
X85572590Y-107469402D01*
X85408848Y-107500637D01*
X85254293Y-107563082D01*
X85114810Y-107654357D01*
X84995711Y-107770987D01*
X84901535Y-107908528D01*
X84835867Y-108061742D01*
X84801210Y-108224793D01*
X84798882Y-108391470D01*
X84828974Y-108555425D01*
X84844390Y-108594363D01*
X83288754Y-107678906D01*
X81705494Y-106374459D01*
X81238988Y-105809741D01*
X81238988Y-103863513D01*
X81238129Y-103824126D01*
X81229601Y-103785663D01*
X81213735Y-103749603D01*
X81191138Y-103717331D01*
X81090589Y-103573732D01*
X81027495Y-103562606D01*
X81027495Y-103483625D01*
X80926946Y-103340026D01*
X80904349Y-103307754D01*
X80875891Y-103280512D01*
X80842664Y-103259343D01*
X80805946Y-103245065D01*
X80767148Y-103238224D01*
X80727760Y-103239083D01*
X80689298Y-103247610D01*
X80653238Y-103263477D01*
X80573555Y-103319271D01*
X80573555Y-102504272D01*
X80566072Y-102465593D01*
X80551186Y-102429117D01*
X80428274Y-102127929D01*
X80386711Y-102110457D01*
X80386711Y-102026084D01*
X80263799Y-101724896D01*
X80248913Y-101688420D01*
X80227197Y-101655549D01*
X80199486Y-101627545D01*
X80166844Y-101605487D01*
X80130525Y-101590221D01*
X80091927Y-101582332D01*
X80052531Y-101582126D01*
X80013852Y-101589610D01*
X79676188Y-101727407D01*
X79648787Y-101792593D01*
X79854710Y-102297192D01*
X80359310Y-102091269D01*
X80386711Y-102026084D01*
X80386711Y-102110457D01*
X80363088Y-102100528D01*
X79858489Y-102306451D01*
X80064412Y-102811051D01*
X80129597Y-102838452D01*
X80467261Y-102700654D01*
X80500132Y-102678938D01*
X80528135Y-102651228D01*
X80550193Y-102618585D01*
X80565461Y-102582267D01*
X80573349Y-102543668D01*
X80573555Y-102504272D01*
X80573555Y-103319271D01*
X80436410Y-103415302D01*
X80424131Y-103484938D01*
X80650694Y-103808503D01*
X81015217Y-103553262D01*
X81027495Y-103483625D01*
X81027495Y-103562606D01*
X81020952Y-103561453D01*
X80656430Y-103816695D01*
X80882992Y-104140260D01*
X80952629Y-104152539D01*
X81169457Y-104000714D01*
X81196700Y-103972255D01*
X81217868Y-103939029D01*
X81232146Y-103902311D01*
X81238988Y-103863513D01*
X81238988Y-105809741D01*
X80874801Y-105368883D01*
X80874801Y-104145996D01*
X80648238Y-103822431D01*
X80642502Y-103826447D01*
X80642502Y-103814239D01*
X80415940Y-103490674D01*
X80346303Y-103478395D01*
X80129475Y-103630220D01*
X80102232Y-103658679D01*
X80081064Y-103691905D01*
X80066786Y-103728623D01*
X80059944Y-103767421D01*
X80060803Y-103806808D01*
X80069331Y-103845271D01*
X80085197Y-103881331D01*
X80107794Y-103913603D01*
X80208343Y-104057202D01*
X80277980Y-104069481D01*
X80642502Y-103814239D01*
X80642502Y-103826447D01*
X80283715Y-104077672D01*
X80271437Y-104147309D01*
X80371986Y-104290908D01*
X80394583Y-104323180D01*
X80423041Y-104350422D01*
X80456268Y-104371591D01*
X80492986Y-104385869D01*
X80531784Y-104392710D01*
X80571172Y-104391851D01*
X80609634Y-104383324D01*
X80645694Y-104367457D01*
X80862522Y-104215632D01*
X80874801Y-104145996D01*
X80874801Y-105368883D01*
X80055153Y-104376677D01*
X80055153Y-102814829D01*
X79849230Y-102310230D01*
X79845451Y-102311772D01*
X79845451Y-102300971D01*
X79639528Y-101796371D01*
X79574343Y-101768970D01*
X79236679Y-101906768D01*
X79203808Y-101928484D01*
X79175805Y-101956194D01*
X79153747Y-101988837D01*
X79138479Y-102025155D01*
X79130591Y-102063754D01*
X79130385Y-102103150D01*
X79137868Y-102141829D01*
X79152754Y-102178305D01*
X79275666Y-102479493D01*
X79340852Y-102506894D01*
X79845451Y-102300971D01*
X79845451Y-102311772D01*
X79344630Y-102516153D01*
X79317229Y-102581338D01*
X79440141Y-102882526D01*
X79455027Y-102919002D01*
X79476743Y-102951873D01*
X79504454Y-102979877D01*
X79537096Y-103001935D01*
X79573415Y-103017201D01*
X79612013Y-103025090D01*
X79651409Y-103025296D01*
X79690088Y-103017812D01*
X80027752Y-102880015D01*
X80055153Y-102814829D01*
X80055153Y-104376677D01*
X80001111Y-104311258D01*
X78774929Y-102217776D01*
X78187623Y-100784352D01*
X77842519Y-99410329D01*
X78212047Y-99337830D01*
X78524145Y-99539865D01*
X78544598Y-99550429D01*
X78564937Y-99561221D01*
X78566262Y-99561619D01*
X78567496Y-99562257D01*
X78589641Y-99568655D01*
X78611659Y-99575282D01*
X78613037Y-99575415D01*
X78614370Y-99575801D01*
X78637306Y-99577773D01*
X78660222Y-99580000D01*
X78661602Y-99579863D01*
X78662982Y-99579982D01*
X78685867Y-99577462D01*
X78708776Y-99575196D01*
X78711432Y-99574648D01*
X78711480Y-99574643D01*
X78711521Y-99574629D01*
X78712195Y-99574491D01*
X79601335Y-99384674D01*
X79765078Y-99351058D01*
X79764572Y-99387327D01*
X79776078Y-99450016D01*
X79799541Y-99509276D01*
X79834067Y-99562850D01*
X79878342Y-99608698D01*
X79901478Y-99624778D01*
X79938324Y-99763973D01*
X79943861Y-99778842D01*
X79948372Y-99794068D01*
X79949709Y-99797293D01*
X80329527Y-100696320D01*
X79745504Y-100452292D01*
X79501571Y-99854551D01*
X79486866Y-99825499D01*
X79450924Y-99781997D01*
X79404305Y-99750202D01*
X79350684Y-99732621D01*
X79294289Y-99730640D01*
X79239567Y-99744415D01*
X78498870Y-100046688D01*
X78469818Y-100061393D01*
X78426316Y-100097335D01*
X78394521Y-100143954D01*
X78376940Y-100197575D01*
X78374959Y-100253970D01*
X78388734Y-100308692D01*
X78691007Y-101049389D01*
X78705712Y-101078441D01*
X78741654Y-101121943D01*
X78788273Y-101153738D01*
X78841894Y-101171319D01*
X78898289Y-101173300D01*
X78953011Y-101159525D01*
X79554119Y-100914216D01*
X80263616Y-101210673D01*
X80284474Y-101217081D01*
X80305186Y-101223917D01*
X80307764Y-101224236D01*
X80310256Y-101225002D01*
X80332003Y-101227240D01*
X80353607Y-101229918D01*
X80356195Y-101229730D01*
X80358791Y-101229998D01*
X80380557Y-101227969D01*
X80402271Y-101226400D01*
X80404777Y-101225712D01*
X80407372Y-101225471D01*
X80428296Y-101219263D01*
X80449325Y-101213498D01*
X80452577Y-101212227D01*
X80761345Y-101089137D01*
X81584983Y-100760794D01*
X81619401Y-100784715D01*
X81700270Y-100820046D01*
X81786460Y-100838996D01*
X81847763Y-100840280D01*
X81846989Y-100840475D01*
X81106292Y-101142748D01*
X81077240Y-101157453D01*
X81033738Y-101193395D01*
X81001943Y-101240014D01*
X80984362Y-101293635D01*
X80982381Y-101350030D01*
X80996156Y-101404752D01*
X81298429Y-102145449D01*
X81313134Y-102174501D01*
X81349076Y-102218003D01*
X81395695Y-102249798D01*
X81449316Y-102267379D01*
X81505711Y-102269360D01*
X81560433Y-102255585D01*
X81692682Y-102201614D01*
X81698907Y-102213940D01*
X81698921Y-102213959D01*
X81698933Y-102213981D01*
X81700825Y-102216915D01*
X81855895Y-102453828D01*
X81838989Y-102493275D01*
X81820641Y-102579596D01*
X81819496Y-102661587D01*
X81802701Y-102674532D01*
X81796733Y-102667330D01*
X81752046Y-102632871D01*
X81699542Y-102612195D01*
X81643358Y-102606930D01*
X81587926Y-102617492D01*
X81537616Y-102643049D01*
X81046124Y-102987195D01*
X81021052Y-103007971D01*
X80986593Y-103052658D01*
X80965917Y-103105162D01*
X80960652Y-103161346D01*
X80971214Y-103216778D01*
X80996771Y-103267088D01*
X81283559Y-103676664D01*
X81304335Y-103701736D01*
X81349022Y-103736195D01*
X81401526Y-103756871D01*
X81457710Y-103762136D01*
X81513142Y-103751574D01*
X81563452Y-103726017D01*
X81867781Y-103512923D01*
X82132028Y-103852670D01*
X82196357Y-103936792D01*
X82196031Y-103936816D01*
X82143068Y-103956290D01*
X82097607Y-103989720D01*
X81883265Y-104199619D01*
X81861923Y-104224211D01*
X81835226Y-104273925D01*
X81823403Y-104329102D01*
X81827385Y-104385391D01*
X81846859Y-104438354D01*
X81880289Y-104483815D01*
X82024303Y-104630878D01*
X81999263Y-104647233D01*
X81863729Y-104779958D01*
X81862988Y-104850665D01*
X82069389Y-105061434D01*
X82083678Y-105047441D01*
X82090675Y-105054585D01*
X82076386Y-105068579D01*
X82090378Y-105082868D01*
X82083234Y-105089865D01*
X82069241Y-105075576D01*
X82062244Y-105082427D01*
X82062244Y-105068431D01*
X81855844Y-104857662D01*
X81785137Y-104856921D01*
X81649603Y-104989646D01*
X81627373Y-105022172D01*
X81611917Y-105058409D01*
X81603827Y-105096966D01*
X81603414Y-105136361D01*
X81610694Y-105175079D01*
X81625389Y-105211632D01*
X81646932Y-105244617D01*
X81674497Y-105272765D01*
X81727183Y-105326566D01*
X81797889Y-105327306D01*
X82062244Y-105068431D01*
X82062244Y-105082427D01*
X81804886Y-105334451D01*
X81804146Y-105405158D01*
X81856832Y-105458959D01*
X81884396Y-105487107D01*
X81916922Y-105509336D01*
X81953160Y-105524793D01*
X81991717Y-105532883D01*
X82022962Y-105533209D01*
X82022935Y-105533339D01*
X82026917Y-105589628D01*
X82046391Y-105642591D01*
X82079821Y-105688052D01*
X82289720Y-105902394D01*
X82314312Y-105923736D01*
X82364026Y-105950433D01*
X82419203Y-105962256D01*
X82443044Y-105960569D01*
X82442733Y-105962022D01*
X82446715Y-106018311D01*
X82466189Y-106071274D01*
X82499619Y-106116735D01*
X82709518Y-106331077D01*
X82734110Y-106352419D01*
X82783824Y-106379116D01*
X82839001Y-106390939D01*
X82895290Y-106386957D01*
X82948253Y-106367483D01*
X82993714Y-106334053D01*
X83315227Y-106019205D01*
X83336569Y-105994613D01*
X83344786Y-105979310D01*
X83489514Y-106127102D01*
X83514106Y-106148444D01*
X83563821Y-106175141D01*
X83574540Y-106177437D01*
X83614415Y-106386778D01*
X83621033Y-106409286D01*
X83627432Y-106431717D01*
X83627891Y-106432614D01*
X83628178Y-106433588D01*
X83639039Y-106454378D01*
X83649676Y-106475144D01*
X83650301Y-106475935D01*
X83650771Y-106476834D01*
X83665440Y-106495088D01*
X83679931Y-106513422D01*
X83680700Y-106514078D01*
X83681334Y-106514867D01*
X83699273Y-106529928D01*
X83717045Y-106545095D01*
X83718648Y-106546196D01*
X83718701Y-106546240D01*
X83718759Y-106546272D01*
X83719923Y-106547071D01*
X84059923Y-106777071D01*
X84067277Y-106781060D01*
X84074057Y-106785959D01*
X84088664Y-106792661D01*
X84102811Y-106800336D01*
X84110808Y-106802823D01*
X84118402Y-106806308D01*
X84134022Y-106810043D01*
X84149401Y-106814827D01*
X84157729Y-106815713D01*
X84165856Y-106817657D01*
X84181922Y-106818288D01*
X84197919Y-106819991D01*
X84206248Y-106819244D01*
X84214609Y-106819573D01*
X84230499Y-106817070D01*
X84246515Y-106815635D01*
X84254540Y-106813284D01*
X84262806Y-106811983D01*
X84266179Y-106811082D01*
X84776180Y-106671081D01*
X84791188Y-106665335D01*
X84806550Y-106660604D01*
X84813922Y-106656631D01*
X84821746Y-106653636D01*
X84835361Y-106645078D01*
X84849503Y-106637458D01*
X84855959Y-106632132D01*
X84863056Y-106627672D01*
X84874745Y-106616636D01*
X84887141Y-106606412D01*
X84892446Y-106599926D01*
X84898535Y-106594178D01*
X84907854Y-106581088D01*
X84918033Y-106568645D01*
X84919948Y-106565727D01*
X85020748Y-106409803D01*
X85069012Y-106439962D01*
X85097933Y-106454924D01*
X85152532Y-106469182D01*
X85208942Y-106467699D01*
X85262716Y-106450593D01*
X85309614Y-106419211D01*
X85345939Y-106376028D01*
X85610898Y-105952004D01*
X85625859Y-105923084D01*
X85640118Y-105868486D01*
X85638635Y-105812076D01*
X85621529Y-105758302D01*
X85590147Y-105711403D01*
X85546965Y-105675078D01*
X85158017Y-105432036D01*
X85137905Y-105373333D01*
X85173166Y-105323349D01*
X85209060Y-105242729D01*
X85216803Y-105208644D01*
X85699012Y-105509962D01*
X85727933Y-105524924D01*
X85782532Y-105539182D01*
X85838942Y-105537699D01*
X85892716Y-105520593D01*
X85939614Y-105489211D01*
X85975939Y-105446028D01*
X86224862Y-105047666D01*
X86309475Y-105099138D01*
X86221548Y-105239854D01*
X86237454Y-105308752D01*
X86614835Y-105544566D01*
X86625433Y-105527604D01*
X86633914Y-105532903D01*
X86623316Y-105549865D01*
X86640277Y-105560463D01*
X86634978Y-105568944D01*
X86618017Y-105558346D01*
X86609536Y-105571918D01*
X86609536Y-105553047D01*
X86232155Y-105317233D01*
X86163256Y-105333139D01*
X86070360Y-105481804D01*
X86049483Y-105515214D01*
X86035526Y-105552055D01*
X86029023Y-105590911D01*
X86030226Y-105630289D01*
X86039089Y-105668676D01*
X86055270Y-105704597D01*
X86078147Y-105736669D01*
X86106843Y-105763664D01*
X86331320Y-105903932D01*
X86400218Y-105888026D01*
X86609536Y-105553047D01*
X86609536Y-105571918D01*
X86408699Y-105893325D01*
X86424605Y-105962223D01*
X86649082Y-106102492D01*
X86685923Y-106116450D01*
X86724779Y-106122952D01*
X86761027Y-106121844D01*
X86761027Y-106121844D01*
G37*
X86761027Y-106121844D02*
X86573829Y-106497867D01*
X86573829Y-106442001D01*
X86572626Y-106402623D01*
X86563763Y-106364236D01*
X86547582Y-106328315D01*
X86524705Y-106296243D01*
X86496009Y-106269248D01*
X86271532Y-106128980D01*
X86202634Y-106144886D01*
X86194153Y-106158458D01*
X86194153Y-106139587D01*
X86178247Y-106070689D01*
X85953770Y-105930420D01*
X85916929Y-105916462D01*
X85878073Y-105909960D01*
X85838695Y-105911163D01*
X85800308Y-105920025D01*
X85764387Y-105936206D01*
X85732314Y-105959084D01*
X85705321Y-105987779D01*
X85684443Y-106021189D01*
X85591548Y-106169854D01*
X85607454Y-106238752D01*
X85984835Y-106474566D01*
X86194153Y-106139587D01*
X86194153Y-106158458D01*
X85993316Y-106479865D01*
X86370697Y-106715679D01*
X86439596Y-106699773D01*
X86532492Y-106551108D01*
X86553369Y-106517698D01*
X86567326Y-106480857D01*
X86573829Y-106442001D01*
X86573829Y-106497867D01*
X86381304Y-106884591D01*
X86381304Y-106793058D01*
X86365398Y-106724160D01*
X85988017Y-106488346D01*
X85979536Y-106501918D01*
X85979536Y-106483047D01*
X85602155Y-106247233D01*
X85533256Y-106263139D01*
X85440360Y-106411804D01*
X85419483Y-106445214D01*
X85405526Y-106482055D01*
X85399023Y-106520911D01*
X85400226Y-106560289D01*
X85409089Y-106598676D01*
X85425270Y-106634597D01*
X85448147Y-106666669D01*
X85476843Y-106693664D01*
X85701320Y-106833932D01*
X85770218Y-106818026D01*
X85979536Y-106483047D01*
X85979536Y-106501918D01*
X85778699Y-106823325D01*
X85794605Y-106892223D01*
X86019082Y-107032492D01*
X86055923Y-107046450D01*
X86094779Y-107052952D01*
X86134157Y-107051749D01*
X86172544Y-107042887D01*
X86208465Y-107026706D01*
X86240538Y-107003828D01*
X86267531Y-106975133D01*
X86288409Y-106941723D01*
X86381304Y-106793058D01*
X86381304Y-106884591D01*
X86043422Y-107563294D01*
X85902568Y-107504084D01*
X85739279Y-107470566D01*
X85572590Y-107469402D01*
X85408848Y-107500637D01*
X85254293Y-107563082D01*
X85114810Y-107654357D01*
X84995711Y-107770987D01*
X84901535Y-107908528D01*
X84835867Y-108061742D01*
X84801210Y-108224793D01*
X84798882Y-108391470D01*
X84828974Y-108555425D01*
X84844390Y-108594363D01*
X83288754Y-107678906D01*
X81705494Y-106374459D01*
X81238988Y-105809741D01*
X81238988Y-103863513D01*
X81238129Y-103824126D01*
X81229601Y-103785663D01*
X81213735Y-103749603D01*
X81191138Y-103717331D01*
X81090589Y-103573732D01*
X81027495Y-103562606D01*
X81027495Y-103483625D01*
X80926946Y-103340026D01*
X80904349Y-103307754D01*
X80875891Y-103280512D01*
X80842664Y-103259343D01*
X80805946Y-103245065D01*
X80767148Y-103238224D01*
X80727760Y-103239083D01*
X80689298Y-103247610D01*
X80653238Y-103263477D01*
X80573555Y-103319271D01*
X80573555Y-102504272D01*
X80566072Y-102465593D01*
X80551186Y-102429117D01*
X80428274Y-102127929D01*
X80386711Y-102110457D01*
X80386711Y-102026084D01*
X80263799Y-101724896D01*
X80248913Y-101688420D01*
X80227197Y-101655549D01*
X80199486Y-101627545D01*
X80166844Y-101605487D01*
X80130525Y-101590221D01*
X80091927Y-101582332D01*
X80052531Y-101582126D01*
X80013852Y-101589610D01*
X79676188Y-101727407D01*
X79648787Y-101792593D01*
X79854710Y-102297192D01*
X80359310Y-102091269D01*
X80386711Y-102026084D01*
X80386711Y-102110457D01*
X80363088Y-102100528D01*
X79858489Y-102306451D01*
X80064412Y-102811051D01*
X80129597Y-102838452D01*
X80467261Y-102700654D01*
X80500132Y-102678938D01*
X80528135Y-102651228D01*
X80550193Y-102618585D01*
X80565461Y-102582267D01*
X80573349Y-102543668D01*
X80573555Y-102504272D01*
X80573555Y-103319271D01*
X80436410Y-103415302D01*
X80424131Y-103484938D01*
X80650694Y-103808503D01*
X81015217Y-103553262D01*
X81027495Y-103483625D01*
X81027495Y-103562606D01*
X81020952Y-103561453D01*
X80656430Y-103816695D01*
X80882992Y-104140260D01*
X80952629Y-104152539D01*
X81169457Y-104000714D01*
X81196700Y-103972255D01*
X81217868Y-103939029D01*
X81232146Y-103902311D01*
X81238988Y-103863513D01*
X81238988Y-105809741D01*
X80874801Y-105368883D01*
X80874801Y-104145996D01*
X80648238Y-103822431D01*
X80642502Y-103826447D01*
X80642502Y-103814239D01*
X80415940Y-103490674D01*
X80346303Y-103478395D01*
X80129475Y-103630220D01*
X80102232Y-103658679D01*
X80081064Y-103691905D01*
X80066786Y-103728623D01*
X80059944Y-103767421D01*
X80060803Y-103806808D01*
X80069331Y-103845271D01*
X80085197Y-103881331D01*
X80107794Y-103913603D01*
X80208343Y-104057202D01*
X80277980Y-104069481D01*
X80642502Y-103814239D01*
X80642502Y-103826447D01*
X80283715Y-104077672D01*
X80271437Y-104147309D01*
X80371986Y-104290908D01*
X80394583Y-104323180D01*
X80423041Y-104350422D01*
X80456268Y-104371591D01*
X80492986Y-104385869D01*
X80531784Y-104392710D01*
X80571172Y-104391851D01*
X80609634Y-104383324D01*
X80645694Y-104367457D01*
X80862522Y-104215632D01*
X80874801Y-104145996D01*
X80874801Y-105368883D01*
X80055153Y-104376677D01*
X80055153Y-102814829D01*
X79849230Y-102310230D01*
X79845451Y-102311772D01*
X79845451Y-102300971D01*
X79639528Y-101796371D01*
X79574343Y-101768970D01*
X79236679Y-101906768D01*
X79203808Y-101928484D01*
X79175805Y-101956194D01*
X79153747Y-101988837D01*
X79138479Y-102025155D01*
X79130591Y-102063754D01*
X79130385Y-102103150D01*
X79137868Y-102141829D01*
X79152754Y-102178305D01*
X79275666Y-102479493D01*
X79340852Y-102506894D01*
X79845451Y-102300971D01*
X79845451Y-102311772D01*
X79344630Y-102516153D01*
X79317229Y-102581338D01*
X79440141Y-102882526D01*
X79455027Y-102919002D01*
X79476743Y-102951873D01*
X79504454Y-102979877D01*
X79537096Y-103001935D01*
X79573415Y-103017201D01*
X79612013Y-103025090D01*
X79651409Y-103025296D01*
X79690088Y-103017812D01*
X80027752Y-102880015D01*
X80055153Y-102814829D01*
X80055153Y-104376677D01*
X80001111Y-104311258D01*
X78774929Y-102217776D01*
X78187623Y-100784352D01*
X77842519Y-99410329D01*
X78212047Y-99337830D01*
X78524145Y-99539865D01*
X78544598Y-99550429D01*
X78564937Y-99561221D01*
X78566262Y-99561619D01*
X78567496Y-99562257D01*
X78589641Y-99568655D01*
X78611659Y-99575282D01*
X78613037Y-99575415D01*
X78614370Y-99575801D01*
X78637306Y-99577773D01*
X78660222Y-99580000D01*
X78661602Y-99579863D01*
X78662982Y-99579982D01*
X78685867Y-99577462D01*
X78708776Y-99575196D01*
X78711432Y-99574648D01*
X78711480Y-99574643D01*
X78711521Y-99574629D01*
X78712195Y-99574491D01*
X79601335Y-99384674D01*
X79765078Y-99351058D01*
X79764572Y-99387327D01*
X79776078Y-99450016D01*
X79799541Y-99509276D01*
X79834067Y-99562850D01*
X79878342Y-99608698D01*
X79901478Y-99624778D01*
X79938324Y-99763973D01*
X79943861Y-99778842D01*
X79948372Y-99794068D01*
X79949709Y-99797293D01*
X80329527Y-100696320D01*
X79745504Y-100452292D01*
X79501571Y-99854551D01*
X79486866Y-99825499D01*
X79450924Y-99781997D01*
X79404305Y-99750202D01*
X79350684Y-99732621D01*
X79294289Y-99730640D01*
X79239567Y-99744415D01*
X78498870Y-100046688D01*
X78469818Y-100061393D01*
X78426316Y-100097335D01*
X78394521Y-100143954D01*
X78376940Y-100197575D01*
X78374959Y-100253970D01*
X78388734Y-100308692D01*
X78691007Y-101049389D01*
X78705712Y-101078441D01*
X78741654Y-101121943D01*
X78788273Y-101153738D01*
X78841894Y-101171319D01*
X78898289Y-101173300D01*
X78953011Y-101159525D01*
X79554119Y-100914216D01*
X80263616Y-101210673D01*
X80284474Y-101217081D01*
X80305186Y-101223917D01*
X80307764Y-101224236D01*
X80310256Y-101225002D01*
X80332003Y-101227240D01*
X80353607Y-101229918D01*
X80356195Y-101229730D01*
X80358791Y-101229998D01*
X80380557Y-101227969D01*
X80402271Y-101226400D01*
X80404777Y-101225712D01*
X80407372Y-101225471D01*
X80428296Y-101219263D01*
X80449325Y-101213498D01*
X80452577Y-101212227D01*
X80761345Y-101089137D01*
X81584983Y-100760794D01*
X81619401Y-100784715D01*
X81700270Y-100820046D01*
X81786460Y-100838996D01*
X81847763Y-100840280D01*
X81846989Y-100840475D01*
X81106292Y-101142748D01*
X81077240Y-101157453D01*
X81033738Y-101193395D01*
X81001943Y-101240014D01*
X80984362Y-101293635D01*
X80982381Y-101350030D01*
X80996156Y-101404752D01*
X81298429Y-102145449D01*
X81313134Y-102174501D01*
X81349076Y-102218003D01*
X81395695Y-102249798D01*
X81449316Y-102267379D01*
X81505711Y-102269360D01*
X81560433Y-102255585D01*
X81692682Y-102201614D01*
X81698907Y-102213940D01*
X81698921Y-102213959D01*
X81698933Y-102213981D01*
X81700825Y-102216915D01*
X81855895Y-102453828D01*
X81838989Y-102493275D01*
X81820641Y-102579596D01*
X81819496Y-102661587D01*
X81802701Y-102674532D01*
X81796733Y-102667330D01*
X81752046Y-102632871D01*
X81699542Y-102612195D01*
X81643358Y-102606930D01*
X81587926Y-102617492D01*
X81537616Y-102643049D01*
X81046124Y-102987195D01*
X81021052Y-103007971D01*
X80986593Y-103052658D01*
X80965917Y-103105162D01*
X80960652Y-103161346D01*
X80971214Y-103216778D01*
X80996771Y-103267088D01*
X81283559Y-103676664D01*
X81304335Y-103701736D01*
X81349022Y-103736195D01*
X81401526Y-103756871D01*
X81457710Y-103762136D01*
X81513142Y-103751574D01*
X81563452Y-103726017D01*
X81867781Y-103512923D01*
X82132028Y-103852670D01*
X82196357Y-103936792D01*
X82196031Y-103936816D01*
X82143068Y-103956290D01*
X82097607Y-103989720D01*
X81883265Y-104199619D01*
X81861923Y-104224211D01*
X81835226Y-104273925D01*
X81823403Y-104329102D01*
X81827385Y-104385391D01*
X81846859Y-104438354D01*
X81880289Y-104483815D01*
X82024303Y-104630878D01*
X81999263Y-104647233D01*
X81863729Y-104779958D01*
X81862988Y-104850665D01*
X82069389Y-105061434D01*
X82083678Y-105047441D01*
X82090675Y-105054585D01*
X82076386Y-105068579D01*
X82090378Y-105082868D01*
X82083234Y-105089865D01*
X82069241Y-105075576D01*
X82062244Y-105082427D01*
X82062244Y-105068431D01*
X81855844Y-104857662D01*
X81785137Y-104856921D01*
X81649603Y-104989646D01*
X81627373Y-105022172D01*
X81611917Y-105058409D01*
X81603827Y-105096966D01*
X81603414Y-105136361D01*
X81610694Y-105175079D01*
X81625389Y-105211632D01*
X81646932Y-105244617D01*
X81674497Y-105272765D01*
X81727183Y-105326566D01*
X81797889Y-105327306D01*
X82062244Y-105068431D01*
X82062244Y-105082427D01*
X81804886Y-105334451D01*
X81804146Y-105405158D01*
X81856832Y-105458959D01*
X81884396Y-105487107D01*
X81916922Y-105509336D01*
X81953160Y-105524793D01*
X81991717Y-105532883D01*
X82022962Y-105533209D01*
X82022935Y-105533339D01*
X82026917Y-105589628D01*
X82046391Y-105642591D01*
X82079821Y-105688052D01*
X82289720Y-105902394D01*
X82314312Y-105923736D01*
X82364026Y-105950433D01*
X82419203Y-105962256D01*
X82443044Y-105960569D01*
X82442733Y-105962022D01*
X82446715Y-106018311D01*
X82466189Y-106071274D01*
X82499619Y-106116735D01*
X82709518Y-106331077D01*
X82734110Y-106352419D01*
X82783824Y-106379116D01*
X82839001Y-106390939D01*
X82895290Y-106386957D01*
X82948253Y-106367483D01*
X82993714Y-106334053D01*
X83315227Y-106019205D01*
X83336569Y-105994613D01*
X83344786Y-105979310D01*
X83489514Y-106127102D01*
X83514106Y-106148444D01*
X83563821Y-106175141D01*
X83574540Y-106177437D01*
X83614415Y-106386778D01*
X83621033Y-106409286D01*
X83627432Y-106431717D01*
X83627891Y-106432614D01*
X83628178Y-106433588D01*
X83639039Y-106454378D01*
X83649676Y-106475144D01*
X83650301Y-106475935D01*
X83650771Y-106476834D01*
X83665440Y-106495088D01*
X83679931Y-106513422D01*
X83680700Y-106514078D01*
X83681334Y-106514867D01*
X83699273Y-106529928D01*
X83717045Y-106545095D01*
X83718648Y-106546196D01*
X83718701Y-106546240D01*
X83718759Y-106546272D01*
X83719923Y-106547071D01*
X84059923Y-106777071D01*
X84067277Y-106781060D01*
X84074057Y-106785959D01*
X84088664Y-106792661D01*
X84102811Y-106800336D01*
X84110808Y-106802823D01*
X84118402Y-106806308D01*
X84134022Y-106810043D01*
X84149401Y-106814827D01*
X84157729Y-106815713D01*
X84165856Y-106817657D01*
X84181922Y-106818288D01*
X84197919Y-106819991D01*
X84206248Y-106819244D01*
X84214609Y-106819573D01*
X84230499Y-106817070D01*
X84246515Y-106815635D01*
X84254540Y-106813284D01*
X84262806Y-106811983D01*
X84266179Y-106811082D01*
X84776180Y-106671081D01*
X84791188Y-106665335D01*
X84806550Y-106660604D01*
X84813922Y-106656631D01*
X84821746Y-106653636D01*
X84835361Y-106645078D01*
X84849503Y-106637458D01*
X84855959Y-106632132D01*
X84863056Y-106627672D01*
X84874745Y-106616636D01*
X84887141Y-106606412D01*
X84892446Y-106599926D01*
X84898535Y-106594178D01*
X84907854Y-106581088D01*
X84918033Y-106568645D01*
X84919948Y-106565727D01*
X85020748Y-106409803D01*
X85069012Y-106439962D01*
X85097933Y-106454924D01*
X85152532Y-106469182D01*
X85208942Y-106467699D01*
X85262716Y-106450593D01*
X85309614Y-106419211D01*
X85345939Y-106376028D01*
X85610898Y-105952004D01*
X85625859Y-105923084D01*
X85640118Y-105868486D01*
X85638635Y-105812076D01*
X85621529Y-105758302D01*
X85590147Y-105711403D01*
X85546965Y-105675078D01*
X85158017Y-105432036D01*
X85137905Y-105373333D01*
X85173166Y-105323349D01*
X85209060Y-105242729D01*
X85216803Y-105208644D01*
X85699012Y-105509962D01*
X85727933Y-105524924D01*
X85782532Y-105539182D01*
X85838942Y-105537699D01*
X85892716Y-105520593D01*
X85939614Y-105489211D01*
X85975939Y-105446028D01*
X86224862Y-105047666D01*
X86309475Y-105099138D01*
X86221548Y-105239854D01*
X86237454Y-105308752D01*
X86614835Y-105544566D01*
X86625433Y-105527604D01*
X86633914Y-105532903D01*
X86623316Y-105549865D01*
X86640277Y-105560463D01*
X86634978Y-105568944D01*
X86618017Y-105558346D01*
X86609536Y-105571918D01*
X86609536Y-105553047D01*
X86232155Y-105317233D01*
X86163256Y-105333139D01*
X86070360Y-105481804D01*
X86049483Y-105515214D01*
X86035526Y-105552055D01*
X86029023Y-105590911D01*
X86030226Y-105630289D01*
X86039089Y-105668676D01*
X86055270Y-105704597D01*
X86078147Y-105736669D01*
X86106843Y-105763664D01*
X86331320Y-105903932D01*
X86400218Y-105888026D01*
X86609536Y-105553047D01*
X86609536Y-105571918D01*
X86408699Y-105893325D01*
X86424605Y-105962223D01*
X86649082Y-106102492D01*
X86685923Y-106116450D01*
X86724779Y-106122952D01*
X86761027Y-106121844D01*
G36*
X87386359Y-86273853D02*
X86687314Y-86626837D01*
X86678252Y-86632585D01*
X86668604Y-86637314D01*
X86665647Y-86639170D01*
X86253636Y-86901726D01*
X86253636Y-86228535D01*
X86242801Y-86061451D01*
X86199577Y-85899691D01*
X86125627Y-85749472D01*
X86093919Y-85702019D01*
X85972118Y-85634953D01*
X85965047Y-85642024D01*
X85965047Y-85627882D01*
X85897981Y-85506081D01*
X85753035Y-85422264D01*
X85594523Y-85368334D01*
X85485357Y-85353884D01*
X85485357Y-84535923D01*
X85475764Y-84480315D01*
X85451090Y-84429566D01*
X85171494Y-84015047D01*
X85151159Y-83989616D01*
X85107080Y-83954384D01*
X85054944Y-83932794D01*
X84998861Y-83926550D01*
X84943253Y-83936143D01*
X84892504Y-83960817D01*
X84395082Y-84296332D01*
X84369652Y-84316667D01*
X84334419Y-84360746D01*
X84312829Y-84412882D01*
X84306585Y-84468965D01*
X84316178Y-84524573D01*
X84340852Y-84575322D01*
X84620448Y-84989841D01*
X84640783Y-85015272D01*
X84684862Y-85050504D01*
X84736998Y-85072094D01*
X84793081Y-85078338D01*
X84848689Y-85068745D01*
X84899438Y-85044071D01*
X85396860Y-84708556D01*
X85422290Y-84688221D01*
X85457523Y-84644142D01*
X85479113Y-84592006D01*
X85485357Y-84535923D01*
X85485357Y-85353884D01*
X85428535Y-85346364D01*
X85261451Y-85357199D01*
X85099691Y-85400423D01*
X84949472Y-85474373D01*
X84902019Y-85506081D01*
X84834953Y-85627882D01*
X85400000Y-86192929D01*
X85965047Y-85627882D01*
X85965047Y-85642024D01*
X85407071Y-86200000D01*
X85972118Y-86765047D01*
X86093919Y-86697981D01*
X86177736Y-86553035D01*
X86231666Y-86394523D01*
X86253636Y-86228535D01*
X86253636Y-86901726D01*
X85645647Y-87289170D01*
X85635754Y-87296928D01*
X85625163Y-87303720D01*
X85622438Y-87305902D01*
X84836264Y-87944089D01*
X84587751Y-87955648D01*
X84381123Y-87777717D01*
X84605020Y-87531657D01*
X84626935Y-87554350D01*
X84699401Y-87604715D01*
X84780270Y-87640046D01*
X84866460Y-87658996D01*
X84954691Y-87660844D01*
X85041599Y-87645520D01*
X85123876Y-87613607D01*
X85198388Y-87566320D01*
X85262296Y-87505462D01*
X85313166Y-87433349D01*
X85349060Y-87352729D01*
X85368611Y-87266673D01*
X85370019Y-87165875D01*
X85352878Y-87079306D01*
X85340614Y-87049552D01*
X85371465Y-87053636D01*
X85538549Y-87042801D01*
X85700309Y-86999577D01*
X85850528Y-86925627D01*
X85897981Y-86893919D01*
X85965047Y-86772118D01*
X85400000Y-86207071D01*
X85392929Y-86214141D01*
X85385857Y-86221213D01*
X85378786Y-86214142D01*
X85392929Y-86200000D01*
X84827882Y-85634953D01*
X84706081Y-85702019D01*
X84622264Y-85846965D01*
X84572623Y-85992870D01*
X84572623Y-85175883D01*
X84572451Y-85136487D01*
X84564596Y-85097881D01*
X84549362Y-85061550D01*
X84527331Y-85028889D01*
X84429303Y-84883557D01*
X84367792Y-84871599D01*
X84367792Y-84792362D01*
X84269765Y-84647031D01*
X84247734Y-84614369D01*
X84219755Y-84586634D01*
X84186903Y-84564889D01*
X84150440Y-84549972D01*
X84111767Y-84542455D01*
X84072371Y-84542627D01*
X84033766Y-84550481D01*
X83997434Y-84565716D01*
X83777989Y-84713733D01*
X83764497Y-84783145D01*
X83985378Y-85110615D01*
X84354300Y-84861774D01*
X84367792Y-84792362D01*
X84367792Y-84871599D01*
X84359892Y-84870064D01*
X83990970Y-85118905D01*
X84211851Y-85446375D01*
X84281263Y-85459867D01*
X84500707Y-85311850D01*
X84528444Y-85283871D01*
X84550188Y-85251019D01*
X84565105Y-85214556D01*
X84572623Y-85175883D01*
X84572623Y-85992870D01*
X84568334Y-86005477D01*
X84546364Y-86171465D01*
X84557199Y-86338549D01*
X84600423Y-86500309D01*
X84674373Y-86650528D01*
X84706081Y-86697981D01*
X84827880Y-86765045D01*
X84822451Y-86770474D01*
X84792332Y-86776220D01*
X84717017Y-86806648D01*
X84714688Y-86800386D01*
X84714581Y-86800213D01*
X84714508Y-86800016D01*
X84701706Y-86779288D01*
X84689119Y-86758831D01*
X84688977Y-86758678D01*
X84688870Y-86758504D01*
X84686735Y-86755742D01*
X83852620Y-85691943D01*
X83856291Y-85692657D01*
X83895687Y-85692485D01*
X83934292Y-85684631D01*
X83970624Y-85669396D01*
X84190069Y-85521379D01*
X84203561Y-85451967D01*
X83982680Y-85124497D01*
X83966098Y-85135681D01*
X83960507Y-85127390D01*
X83977088Y-85116207D01*
X83756207Y-84788737D01*
X83686795Y-84775245D01*
X83467351Y-84923262D01*
X83439614Y-84951241D01*
X83421755Y-84978221D01*
X83624342Y-84295594D01*
X84242361Y-83862853D01*
X84267434Y-83842077D01*
X84301892Y-83797390D01*
X84322568Y-83744885D01*
X84327833Y-83688702D01*
X84319141Y-83643092D01*
X84339572Y-83661903D01*
X84390075Y-83687077D01*
X84445586Y-83697218D01*
X84501727Y-83691527D01*
X84554074Y-83670453D01*
X85214523Y-83289141D01*
X85163804Y-83576554D01*
X85163662Y-83578390D01*
X85163193Y-83580171D01*
X85161788Y-83602703D01*
X85160054Y-83625201D01*
X85160271Y-83627029D01*
X85160157Y-83628869D01*
X85163154Y-83651233D01*
X85165824Y-83673650D01*
X85166393Y-83675404D01*
X85166638Y-83677227D01*
X85173924Y-83698589D01*
X85180896Y-83720056D01*
X85181793Y-83721661D01*
X85182388Y-83723406D01*
X85183854Y-83726574D01*
X85505101Y-84408246D01*
X85495462Y-84453597D01*
X85494572Y-84517327D01*
X85506078Y-84580016D01*
X85529541Y-84639276D01*
X85564067Y-84692850D01*
X85608342Y-84738698D01*
X85660678Y-84775073D01*
X85719083Y-84800589D01*
X85781332Y-84814276D01*
X85845054Y-84815611D01*
X85907822Y-84804543D01*
X85967244Y-84781494D01*
X86021058Y-84747343D01*
X86067214Y-84703390D01*
X86103954Y-84651308D01*
X86129877Y-84593082D01*
X86143998Y-84530930D01*
X86145014Y-84458132D01*
X86132635Y-84395610D01*
X86108347Y-84336683D01*
X86073076Y-84283596D01*
X86028165Y-84238371D01*
X85975326Y-84202731D01*
X85957449Y-84195216D01*
X85934610Y-84146751D01*
X85942385Y-84148341D01*
X85981781Y-84148547D01*
X86020460Y-84141063D01*
X86056936Y-84126178D01*
X86103509Y-84107171D01*
X86130911Y-84041986D01*
X86000556Y-83722561D01*
X85982038Y-83730117D01*
X85978259Y-83720858D01*
X85996777Y-83713302D01*
X85866422Y-83393876D01*
X85801237Y-83366475D01*
X85754664Y-83385481D01*
X85718187Y-83400367D01*
X85700567Y-83412007D01*
X85771428Y-83010460D01*
X86296503Y-82765615D01*
X86324801Y-82749508D01*
X86337246Y-82738158D01*
X86325462Y-82793597D01*
X86324572Y-82857327D01*
X86336078Y-82920016D01*
X86359541Y-82979276D01*
X86394067Y-83032850D01*
X86438342Y-83078698D01*
X86467881Y-83099228D01*
X86430463Y-83108648D01*
X86198995Y-83203108D01*
X86169943Y-83217813D01*
X86126441Y-83253755D01*
X86100877Y-83291237D01*
X86064207Y-83283743D01*
X86024811Y-83283537D01*
X85986132Y-83291021D01*
X85949656Y-83305906D01*
X85903083Y-83324913D01*
X85875681Y-83390098D01*
X86006036Y-83709523D01*
X86024553Y-83701966D01*
X86028332Y-83711225D01*
X86009815Y-83718782D01*
X86140170Y-84038208D01*
X86205355Y-84065609D01*
X86251928Y-84046603D01*
X86285190Y-84033028D01*
X86284572Y-84077327D01*
X86296078Y-84140016D01*
X86319541Y-84199276D01*
X86354067Y-84252850D01*
X86398342Y-84298698D01*
X86450678Y-84335073D01*
X86509083Y-84360589D01*
X86558535Y-84371462D01*
X86760486Y-84839114D01*
X86767279Y-84851391D01*
X86696664Y-84897601D01*
X86633612Y-84959346D01*
X86583754Y-85032162D01*
X86548989Y-85113275D01*
X86530641Y-85199596D01*
X86529409Y-85287837D01*
X86545340Y-85374637D01*
X86577826Y-85456689D01*
X86625632Y-85530869D01*
X86686935Y-85594350D01*
X86759401Y-85644715D01*
X86794735Y-85660152D01*
X86680662Y-85706705D01*
X86651610Y-85721410D01*
X86608108Y-85757352D01*
X86576313Y-85803971D01*
X86558732Y-85857592D01*
X86556751Y-85913986D01*
X86570526Y-85968709D01*
X86721662Y-86339057D01*
X86736367Y-86368109D01*
X86772309Y-86411611D01*
X86818928Y-86443406D01*
X86872549Y-86460987D01*
X86928943Y-86462968D01*
X86983666Y-86449193D01*
X87215134Y-86354733D01*
X87244186Y-86340028D01*
X87287688Y-86304086D01*
X87314270Y-86265110D01*
X87335484Y-86272066D01*
X87386359Y-86273853D01*
X87386359Y-86273853D01*
G37*
X87386359Y-86273853D02*
X86687314Y-86626837D01*
X86678252Y-86632585D01*
X86668604Y-86637314D01*
X86665647Y-86639170D01*
X86253636Y-86901726D01*
X86253636Y-86228535D01*
X86242801Y-86061451D01*
X86199577Y-85899691D01*
X86125627Y-85749472D01*
X86093919Y-85702019D01*
X85972118Y-85634953D01*
X85965047Y-85642024D01*
X85965047Y-85627882D01*
X85897981Y-85506081D01*
X85753035Y-85422264D01*
X85594523Y-85368334D01*
X85485357Y-85353884D01*
X85485357Y-84535923D01*
X85475764Y-84480315D01*
X85451090Y-84429566D01*
X85171494Y-84015047D01*
X85151159Y-83989616D01*
X85107080Y-83954384D01*
X85054944Y-83932794D01*
X84998861Y-83926550D01*
X84943253Y-83936143D01*
X84892504Y-83960817D01*
X84395082Y-84296332D01*
X84369652Y-84316667D01*
X84334419Y-84360746D01*
X84312829Y-84412882D01*
X84306585Y-84468965D01*
X84316178Y-84524573D01*
X84340852Y-84575322D01*
X84620448Y-84989841D01*
X84640783Y-85015272D01*
X84684862Y-85050504D01*
X84736998Y-85072094D01*
X84793081Y-85078338D01*
X84848689Y-85068745D01*
X84899438Y-85044071D01*
X85396860Y-84708556D01*
X85422290Y-84688221D01*
X85457523Y-84644142D01*
X85479113Y-84592006D01*
X85485357Y-84535923D01*
X85485357Y-85353884D01*
X85428535Y-85346364D01*
X85261451Y-85357199D01*
X85099691Y-85400423D01*
X84949472Y-85474373D01*
X84902019Y-85506081D01*
X84834953Y-85627882D01*
X85400000Y-86192929D01*
X85965047Y-85627882D01*
X85965047Y-85642024D01*
X85407071Y-86200000D01*
X85972118Y-86765047D01*
X86093919Y-86697981D01*
X86177736Y-86553035D01*
X86231666Y-86394523D01*
X86253636Y-86228535D01*
X86253636Y-86901726D01*
X85645647Y-87289170D01*
X85635754Y-87296928D01*
X85625163Y-87303720D01*
X85622438Y-87305902D01*
X84836264Y-87944089D01*
X84587751Y-87955648D01*
X84381123Y-87777717D01*
X84605020Y-87531657D01*
X84626935Y-87554350D01*
X84699401Y-87604715D01*
X84780270Y-87640046D01*
X84866460Y-87658996D01*
X84954691Y-87660844D01*
X85041599Y-87645520D01*
X85123876Y-87613607D01*
X85198388Y-87566320D01*
X85262296Y-87505462D01*
X85313166Y-87433349D01*
X85349060Y-87352729D01*
X85368611Y-87266673D01*
X85370019Y-87165875D01*
X85352878Y-87079306D01*
X85340614Y-87049552D01*
X85371465Y-87053636D01*
X85538549Y-87042801D01*
X85700309Y-86999577D01*
X85850528Y-86925627D01*
X85897981Y-86893919D01*
X85965047Y-86772118D01*
X85400000Y-86207071D01*
X85392929Y-86214141D01*
X85385857Y-86221213D01*
X85378786Y-86214142D01*
X85392929Y-86200000D01*
X84827882Y-85634953D01*
X84706081Y-85702019D01*
X84622264Y-85846965D01*
X84572623Y-85992870D01*
X84572623Y-85175883D01*
X84572451Y-85136487D01*
X84564596Y-85097881D01*
X84549362Y-85061550D01*
X84527331Y-85028889D01*
X84429303Y-84883557D01*
X84367792Y-84871599D01*
X84367792Y-84792362D01*
X84269765Y-84647031D01*
X84247734Y-84614369D01*
X84219755Y-84586634D01*
X84186903Y-84564889D01*
X84150440Y-84549972D01*
X84111767Y-84542455D01*
X84072371Y-84542627D01*
X84033766Y-84550481D01*
X83997434Y-84565716D01*
X83777989Y-84713733D01*
X83764497Y-84783145D01*
X83985378Y-85110615D01*
X84354300Y-84861774D01*
X84367792Y-84792362D01*
X84367792Y-84871599D01*
X84359892Y-84870064D01*
X83990970Y-85118905D01*
X84211851Y-85446375D01*
X84281263Y-85459867D01*
X84500707Y-85311850D01*
X84528444Y-85283871D01*
X84550188Y-85251019D01*
X84565105Y-85214556D01*
X84572623Y-85175883D01*
X84572623Y-85992870D01*
X84568334Y-86005477D01*
X84546364Y-86171465D01*
X84557199Y-86338549D01*
X84600423Y-86500309D01*
X84674373Y-86650528D01*
X84706081Y-86697981D01*
X84827880Y-86765045D01*
X84822451Y-86770474D01*
X84792332Y-86776220D01*
X84717017Y-86806648D01*
X84714688Y-86800386D01*
X84714581Y-86800213D01*
X84714508Y-86800016D01*
X84701706Y-86779288D01*
X84689119Y-86758831D01*
X84688977Y-86758678D01*
X84688870Y-86758504D01*
X84686735Y-86755742D01*
X83852620Y-85691943D01*
X83856291Y-85692657D01*
X83895687Y-85692485D01*
X83934292Y-85684631D01*
X83970624Y-85669396D01*
X84190069Y-85521379D01*
X84203561Y-85451967D01*
X83982680Y-85124497D01*
X83966098Y-85135681D01*
X83960507Y-85127390D01*
X83977088Y-85116207D01*
X83756207Y-84788737D01*
X83686795Y-84775245D01*
X83467351Y-84923262D01*
X83439614Y-84951241D01*
X83421755Y-84978221D01*
X83624342Y-84295594D01*
X84242361Y-83862853D01*
X84267434Y-83842077D01*
X84301892Y-83797390D01*
X84322568Y-83744885D01*
X84327833Y-83688702D01*
X84319141Y-83643092D01*
X84339572Y-83661903D01*
X84390075Y-83687077D01*
X84445586Y-83697218D01*
X84501727Y-83691527D01*
X84554074Y-83670453D01*
X85214523Y-83289141D01*
X85163804Y-83576554D01*
X85163662Y-83578390D01*
X85163193Y-83580171D01*
X85161788Y-83602703D01*
X85160054Y-83625201D01*
X85160271Y-83627029D01*
X85160157Y-83628869D01*
X85163154Y-83651233D01*
X85165824Y-83673650D01*
X85166393Y-83675404D01*
X85166638Y-83677227D01*
X85173924Y-83698589D01*
X85180896Y-83720056D01*
X85181793Y-83721661D01*
X85182388Y-83723406D01*
X85183854Y-83726574D01*
X85505101Y-84408246D01*
X85495462Y-84453597D01*
X85494572Y-84517327D01*
X85506078Y-84580016D01*
X85529541Y-84639276D01*
X85564067Y-84692850D01*
X85608342Y-84738698D01*
X85660678Y-84775073D01*
X85719083Y-84800589D01*
X85781332Y-84814276D01*
X85845054Y-84815611D01*
X85907822Y-84804543D01*
X85967244Y-84781494D01*
X86021058Y-84747343D01*
X86067214Y-84703390D01*
X86103954Y-84651308D01*
X86129877Y-84593082D01*
X86143998Y-84530930D01*
X86145014Y-84458132D01*
X86132635Y-84395610D01*
X86108347Y-84336683D01*
X86073076Y-84283596D01*
X86028165Y-84238371D01*
X85975326Y-84202731D01*
X85957449Y-84195216D01*
X85934610Y-84146751D01*
X85942385Y-84148341D01*
X85981781Y-84148547D01*
X86020460Y-84141063D01*
X86056936Y-84126178D01*
X86103509Y-84107171D01*
X86130911Y-84041986D01*
X86000556Y-83722561D01*
X85982038Y-83730117D01*
X85978259Y-83720858D01*
X85996777Y-83713302D01*
X85866422Y-83393876D01*
X85801237Y-83366475D01*
X85754664Y-83385481D01*
X85718187Y-83400367D01*
X85700567Y-83412007D01*
X85771428Y-83010460D01*
X86296503Y-82765615D01*
X86324801Y-82749508D01*
X86337246Y-82738158D01*
X86325462Y-82793597D01*
X86324572Y-82857327D01*
X86336078Y-82920016D01*
X86359541Y-82979276D01*
X86394067Y-83032850D01*
X86438342Y-83078698D01*
X86467881Y-83099228D01*
X86430463Y-83108648D01*
X86198995Y-83203108D01*
X86169943Y-83217813D01*
X86126441Y-83253755D01*
X86100877Y-83291237D01*
X86064207Y-83283743D01*
X86024811Y-83283537D01*
X85986132Y-83291021D01*
X85949656Y-83305906D01*
X85903083Y-83324913D01*
X85875681Y-83390098D01*
X86006036Y-83709523D01*
X86024553Y-83701966D01*
X86028332Y-83711225D01*
X86009815Y-83718782D01*
X86140170Y-84038208D01*
X86205355Y-84065609D01*
X86251928Y-84046603D01*
X86285190Y-84033028D01*
X86284572Y-84077327D01*
X86296078Y-84140016D01*
X86319541Y-84199276D01*
X86354067Y-84252850D01*
X86398342Y-84298698D01*
X86450678Y-84335073D01*
X86509083Y-84360589D01*
X86558535Y-84371462D01*
X86760486Y-84839114D01*
X86767279Y-84851391D01*
X86696664Y-84897601D01*
X86633612Y-84959346D01*
X86583754Y-85032162D01*
X86548989Y-85113275D01*
X86530641Y-85199596D01*
X86529409Y-85287837D01*
X86545340Y-85374637D01*
X86577826Y-85456689D01*
X86625632Y-85530869D01*
X86686935Y-85594350D01*
X86759401Y-85644715D01*
X86794735Y-85660152D01*
X86680662Y-85706705D01*
X86651610Y-85721410D01*
X86608108Y-85757352D01*
X86576313Y-85803971D01*
X86558732Y-85857592D01*
X86556751Y-85913986D01*
X86570526Y-85968709D01*
X86721662Y-86339057D01*
X86736367Y-86368109D01*
X86772309Y-86411611D01*
X86818928Y-86443406D01*
X86872549Y-86460987D01*
X86928943Y-86462968D01*
X86983666Y-86449193D01*
X87215134Y-86354733D01*
X87244186Y-86340028D01*
X87287688Y-86304086D01*
X87314270Y-86265110D01*
X87335484Y-86272066D01*
X87386359Y-86273853D01*
G36*
X91490945Y-82820000D02*
X91449435Y-82885231D01*
X91299134Y-83119032D01*
X91075000Y-83119032D01*
X91075000Y-82770000D01*
X91075000Y-82225000D01*
X90430000Y-82225000D01*
X90380000Y-82275000D01*
X90380000Y-82600302D01*
X90380000Y-82639699D01*
X90387686Y-82678338D01*
X90402762Y-82714736D01*
X90424650Y-82747493D01*
X90452508Y-82775350D01*
X90485265Y-82797238D01*
X90521662Y-82812314D01*
X90560302Y-82820000D01*
X91025000Y-82820000D01*
X91075000Y-82770000D01*
X91075000Y-83119032D01*
X90580000Y-83119032D01*
X90547546Y-83121670D01*
X90493688Y-83138511D01*
X90446635Y-83169661D01*
X90410097Y-83212664D01*
X90386955Y-83264130D01*
X90379032Y-83320000D01*
X90379032Y-84120000D01*
X90381670Y-84152454D01*
X90398511Y-84206312D01*
X90429661Y-84253365D01*
X90472664Y-84289903D01*
X90477508Y-84292081D01*
X90476152Y-84292935D01*
X90475247Y-84293790D01*
X90474203Y-84294460D01*
X90454033Y-84313847D01*
X90433607Y-84333159D01*
X90432043Y-84334983D01*
X90431991Y-84335034D01*
X90431950Y-84335092D01*
X90430881Y-84336340D01*
X90354510Y-84426694D01*
X89979359Y-84499616D01*
X89948004Y-84508398D01*
X89898349Y-84535206D01*
X89858104Y-84574761D01*
X89830443Y-84623946D01*
X89817546Y-84678882D01*
X89820430Y-84735237D01*
X89915834Y-85226050D01*
X89924616Y-85257405D01*
X89951424Y-85307060D01*
X89990979Y-85347305D01*
X90040164Y-85374966D01*
X90045187Y-85376145D01*
X89720575Y-85457899D01*
X89749108Y-85439014D01*
X89777087Y-85411278D01*
X89799118Y-85378618D01*
X89814354Y-85342286D01*
X89822207Y-85303680D01*
X89822380Y-85264284D01*
X89814862Y-85225611D01*
X89781413Y-85053530D01*
X89780000Y-85052576D01*
X89780000Y-84139699D01*
X89780000Y-84100302D01*
X89780000Y-83775000D01*
X89780000Y-83665000D01*
X89780000Y-83339698D01*
X89780000Y-83300301D01*
X89772314Y-83261662D01*
X89757238Y-83225264D01*
X89735350Y-83192507D01*
X89707492Y-83164650D01*
X89674735Y-83142762D01*
X89638338Y-83127686D01*
X89599698Y-83120000D01*
X89135000Y-83120000D01*
X89085000Y-83170000D01*
X89085000Y-83715000D01*
X89730000Y-83715000D01*
X89780000Y-83665000D01*
X89780000Y-83775000D01*
X89730000Y-83725000D01*
X89085000Y-83725000D01*
X89085000Y-84270000D01*
X89135000Y-84320000D01*
X89599698Y-84320000D01*
X89638338Y-84312314D01*
X89674735Y-84297238D01*
X89707492Y-84275350D01*
X89735350Y-84247493D01*
X89757238Y-84214736D01*
X89772314Y-84178338D01*
X89780000Y-84139699D01*
X89780000Y-85052576D01*
X89760424Y-85039372D01*
X89760424Y-84945551D01*
X89726975Y-84773470D01*
X89719458Y-84734797D01*
X89704540Y-84698334D01*
X89682796Y-84665481D01*
X89655060Y-84637503D01*
X89622398Y-84615473D01*
X89586067Y-84600238D01*
X89547462Y-84592383D01*
X89508065Y-84592212D01*
X89248230Y-84642718D01*
X89208690Y-84701340D01*
X89284059Y-85089083D01*
X89720883Y-85004173D01*
X89760424Y-84945551D01*
X89760424Y-85039372D01*
X89722791Y-85013989D01*
X89285967Y-85098899D01*
X89361337Y-85486642D01*
X89419959Y-85526183D01*
X89549200Y-85501060D01*
X89351520Y-85550846D01*
X89351520Y-85488550D01*
X89276151Y-85100807D01*
X89274243Y-85101177D01*
X89274243Y-85090991D01*
X89198873Y-84703248D01*
X89140251Y-84663707D01*
X89075000Y-84676390D01*
X89075000Y-84270000D01*
X89075000Y-83725000D01*
X89075000Y-83715000D01*
X89075000Y-83170000D01*
X89025000Y-83120000D01*
X88560302Y-83120000D01*
X88521662Y-83127686D01*
X88485265Y-83142762D01*
X88452508Y-83164650D01*
X88424650Y-83192507D01*
X88402762Y-83225264D01*
X88387686Y-83261662D01*
X88380000Y-83300301D01*
X88380000Y-83339698D01*
X88380000Y-83665000D01*
X88430000Y-83715000D01*
X89075000Y-83715000D01*
X89075000Y-83725000D01*
X88430000Y-83725000D01*
X88380000Y-83775000D01*
X88380000Y-84100302D01*
X88380000Y-84139699D01*
X88387686Y-84178338D01*
X88402762Y-84214736D01*
X88424650Y-84247493D01*
X88452508Y-84275350D01*
X88485265Y-84297238D01*
X88521662Y-84312314D01*
X88560302Y-84320000D01*
X89025000Y-84320000D01*
X89075000Y-84270000D01*
X89075000Y-84676390D01*
X88880417Y-84714214D01*
X88843953Y-84729132D01*
X88811102Y-84750876D01*
X88783123Y-84778612D01*
X88761092Y-84811272D01*
X88745856Y-84847604D01*
X88738003Y-84886210D01*
X88737830Y-84925606D01*
X88745348Y-84964279D01*
X88778797Y-85136360D01*
X88837419Y-85175901D01*
X89274243Y-85090991D01*
X89274243Y-85101177D01*
X88839327Y-85185717D01*
X88799786Y-85244339D01*
X88833235Y-85416420D01*
X88840752Y-85455093D01*
X88855670Y-85491556D01*
X88877414Y-85524409D01*
X88905150Y-85552387D01*
X88937812Y-85574417D01*
X88974143Y-85589652D01*
X89012748Y-85597507D01*
X89052145Y-85597678D01*
X89311980Y-85547172D01*
X89351520Y-85488550D01*
X89351520Y-85550846D01*
X88855941Y-85675659D01*
X88726666Y-85614423D01*
X88727851Y-85580691D01*
X88714076Y-85525968D01*
X88562940Y-85155620D01*
X88548235Y-85126568D01*
X88540043Y-85116652D01*
X88562296Y-85095462D01*
X88613166Y-85023349D01*
X88649060Y-84942729D01*
X88668611Y-84856673D01*
X88670019Y-84755875D01*
X88652878Y-84669306D01*
X88619249Y-84587716D01*
X88570412Y-84514211D01*
X88508228Y-84451592D01*
X88435066Y-84402243D01*
X88353712Y-84368045D01*
X88267265Y-84350300D01*
X88179018Y-84349684D01*
X88092332Y-84366220D01*
X88010508Y-84399279D01*
X87936664Y-84447601D01*
X87873612Y-84509346D01*
X87868791Y-84516386D01*
X87351180Y-84299117D01*
X87140130Y-83794103D01*
X87163850Y-83675500D01*
X87196403Y-83662216D01*
X87225455Y-83647511D01*
X87268957Y-83611569D01*
X87295539Y-83572593D01*
X87316753Y-83579549D01*
X87373147Y-83581530D01*
X87427870Y-83567755D01*
X87470189Y-83550484D01*
X87470178Y-83550567D01*
X87470882Y-83562295D01*
X87470394Y-83574047D01*
X87472341Y-83586597D01*
X87473103Y-83599270D01*
X87476074Y-83610646D01*
X87477877Y-83622261D01*
X87482223Y-83634189D01*
X87485433Y-83646478D01*
X87486664Y-83649745D01*
X87561588Y-83844547D01*
X87558714Y-83851254D01*
X87545462Y-83913597D01*
X87544572Y-83977327D01*
X87556078Y-84040016D01*
X87579541Y-84099276D01*
X87614067Y-84152850D01*
X87658342Y-84198698D01*
X87710678Y-84235073D01*
X87769083Y-84260589D01*
X87831332Y-84274276D01*
X87895054Y-84275611D01*
X87957822Y-84264543D01*
X88017244Y-84241494D01*
X88071058Y-84207343D01*
X88117214Y-84163390D01*
X88153954Y-84111308D01*
X88179877Y-84053082D01*
X88193998Y-83990930D01*
X88195014Y-83918132D01*
X88182635Y-83855610D01*
X88158347Y-83796683D01*
X88123076Y-83743596D01*
X88078165Y-83698371D01*
X88028079Y-83664588D01*
X87986192Y-83555682D01*
X88036042Y-83412364D01*
X88036044Y-83412361D01*
X88036061Y-83412309D01*
X88036124Y-83412130D01*
X88036126Y-83412117D01*
X88037171Y-83409057D01*
X88047171Y-83379057D01*
X88050056Y-83366391D01*
X88054088Y-83354047D01*
X88055462Y-83342666D01*
X88058010Y-83331484D01*
X88058380Y-83318494D01*
X88059937Y-83305606D01*
X88059074Y-83294178D01*
X88059402Y-83282713D01*
X88057242Y-83269900D01*
X88056266Y-83256954D01*
X88053199Y-83245908D01*
X88051294Y-83234599D01*
X88046688Y-83222451D01*
X88043215Y-83209940D01*
X88041935Y-83206693D01*
X87691935Y-82336693D01*
X87684559Y-82322534D01*
X87678163Y-82307915D01*
X87673315Y-82300948D01*
X87669394Y-82293420D01*
X87659410Y-82280964D01*
X87650296Y-82267866D01*
X87644189Y-82261975D01*
X87638878Y-82255349D01*
X87626662Y-82245068D01*
X87615180Y-82233992D01*
X87612428Y-82231844D01*
X87522663Y-82162794D01*
X87523197Y-82155545D01*
X87511533Y-82100334D01*
X87505015Y-82082426D01*
X87545027Y-82067746D01*
X88379032Y-81847530D01*
X88379032Y-82620000D01*
X88381670Y-82652454D01*
X88398511Y-82706312D01*
X88429661Y-82753365D01*
X88472664Y-82789903D01*
X88524130Y-82813045D01*
X88580000Y-82820968D01*
X89580000Y-82820968D01*
X89612454Y-82818330D01*
X89666312Y-82801489D01*
X89713365Y-82770339D01*
X89749903Y-82727336D01*
X89773045Y-82675870D01*
X89780968Y-82620000D01*
X89780968Y-81886523D01*
X89781034Y-81886351D01*
X89781800Y-81881906D01*
X89783266Y-81877635D01*
X89784047Y-81874233D01*
X89791146Y-81842283D01*
X89813210Y-81815317D01*
X89906473Y-81763504D01*
X90411586Y-81712057D01*
X90402762Y-81725264D01*
X90387686Y-81761662D01*
X90380000Y-81800301D01*
X90380000Y-81839698D01*
X90380000Y-82165000D01*
X90430000Y-82215000D01*
X91075000Y-82215000D01*
X91075000Y-82195000D01*
X91085000Y-82195000D01*
X91085000Y-82215000D01*
X91105000Y-82215000D01*
X91105000Y-82225000D01*
X91085000Y-82225000D01*
X91085000Y-82770000D01*
X91135000Y-82820000D01*
X91490945Y-82820000D01*
X91490945Y-82820000D01*
G37*
X91490945Y-82820000D02*
X91449435Y-82885231D01*
X91299134Y-83119032D01*
X91075000Y-83119032D01*
X91075000Y-82770000D01*
X91075000Y-82225000D01*
X90430000Y-82225000D01*
X90380000Y-82275000D01*
X90380000Y-82600302D01*
X90380000Y-82639699D01*
X90387686Y-82678338D01*
X90402762Y-82714736D01*
X90424650Y-82747493D01*
X90452508Y-82775350D01*
X90485265Y-82797238D01*
X90521662Y-82812314D01*
X90560302Y-82820000D01*
X91025000Y-82820000D01*
X91075000Y-82770000D01*
X91075000Y-83119032D01*
X90580000Y-83119032D01*
X90547546Y-83121670D01*
X90493688Y-83138511D01*
X90446635Y-83169661D01*
X90410097Y-83212664D01*
X90386955Y-83264130D01*
X90379032Y-83320000D01*
X90379032Y-84120000D01*
X90381670Y-84152454D01*
X90398511Y-84206312D01*
X90429661Y-84253365D01*
X90472664Y-84289903D01*
X90477508Y-84292081D01*
X90476152Y-84292935D01*
X90475247Y-84293790D01*
X90474203Y-84294460D01*
X90454033Y-84313847D01*
X90433607Y-84333159D01*
X90432043Y-84334983D01*
X90431991Y-84335034D01*
X90431950Y-84335092D01*
X90430881Y-84336340D01*
X90354510Y-84426694D01*
X89979359Y-84499616D01*
X89948004Y-84508398D01*
X89898349Y-84535206D01*
X89858104Y-84574761D01*
X89830443Y-84623946D01*
X89817546Y-84678882D01*
X89820430Y-84735237D01*
X89915834Y-85226050D01*
X89924616Y-85257405D01*
X89951424Y-85307060D01*
X89990979Y-85347305D01*
X90040164Y-85374966D01*
X90045187Y-85376145D01*
X89720575Y-85457899D01*
X89749108Y-85439014D01*
X89777087Y-85411278D01*
X89799118Y-85378618D01*
X89814354Y-85342286D01*
X89822207Y-85303680D01*
X89822380Y-85264284D01*
X89814862Y-85225611D01*
X89781413Y-85053530D01*
X89780000Y-85052576D01*
X89780000Y-84139699D01*
X89780000Y-84100302D01*
X89780000Y-83775000D01*
X89780000Y-83665000D01*
X89780000Y-83339698D01*
X89780000Y-83300301D01*
X89772314Y-83261662D01*
X89757238Y-83225264D01*
X89735350Y-83192507D01*
X89707492Y-83164650D01*
X89674735Y-83142762D01*
X89638338Y-83127686D01*
X89599698Y-83120000D01*
X89135000Y-83120000D01*
X89085000Y-83170000D01*
X89085000Y-83715000D01*
X89730000Y-83715000D01*
X89780000Y-83665000D01*
X89780000Y-83775000D01*
X89730000Y-83725000D01*
X89085000Y-83725000D01*
X89085000Y-84270000D01*
X89135000Y-84320000D01*
X89599698Y-84320000D01*
X89638338Y-84312314D01*
X89674735Y-84297238D01*
X89707492Y-84275350D01*
X89735350Y-84247493D01*
X89757238Y-84214736D01*
X89772314Y-84178338D01*
X89780000Y-84139699D01*
X89780000Y-85052576D01*
X89760424Y-85039372D01*
X89760424Y-84945551D01*
X89726975Y-84773470D01*
X89719458Y-84734797D01*
X89704540Y-84698334D01*
X89682796Y-84665481D01*
X89655060Y-84637503D01*
X89622398Y-84615473D01*
X89586067Y-84600238D01*
X89547462Y-84592383D01*
X89508065Y-84592212D01*
X89248230Y-84642718D01*
X89208690Y-84701340D01*
X89284059Y-85089083D01*
X89720883Y-85004173D01*
X89760424Y-84945551D01*
X89760424Y-85039372D01*
X89722791Y-85013989D01*
X89285967Y-85098899D01*
X89361337Y-85486642D01*
X89419959Y-85526183D01*
X89549200Y-85501060D01*
X89351520Y-85550846D01*
X89351520Y-85488550D01*
X89276151Y-85100807D01*
X89274243Y-85101177D01*
X89274243Y-85090991D01*
X89198873Y-84703248D01*
X89140251Y-84663707D01*
X89075000Y-84676390D01*
X89075000Y-84270000D01*
X89075000Y-83725000D01*
X89075000Y-83715000D01*
X89075000Y-83170000D01*
X89025000Y-83120000D01*
X88560302Y-83120000D01*
X88521662Y-83127686D01*
X88485265Y-83142762D01*
X88452508Y-83164650D01*
X88424650Y-83192507D01*
X88402762Y-83225264D01*
X88387686Y-83261662D01*
X88380000Y-83300301D01*
X88380000Y-83339698D01*
X88380000Y-83665000D01*
X88430000Y-83715000D01*
X89075000Y-83715000D01*
X89075000Y-83725000D01*
X88430000Y-83725000D01*
X88380000Y-83775000D01*
X88380000Y-84100302D01*
X88380000Y-84139699D01*
X88387686Y-84178338D01*
X88402762Y-84214736D01*
X88424650Y-84247493D01*
X88452508Y-84275350D01*
X88485265Y-84297238D01*
X88521662Y-84312314D01*
X88560302Y-84320000D01*
X89025000Y-84320000D01*
X89075000Y-84270000D01*
X89075000Y-84676390D01*
X88880417Y-84714214D01*
X88843953Y-84729132D01*
X88811102Y-84750876D01*
X88783123Y-84778612D01*
X88761092Y-84811272D01*
X88745856Y-84847604D01*
X88738003Y-84886210D01*
X88737830Y-84925606D01*
X88745348Y-84964279D01*
X88778797Y-85136360D01*
X88837419Y-85175901D01*
X89274243Y-85090991D01*
X89274243Y-85101177D01*
X88839327Y-85185717D01*
X88799786Y-85244339D01*
X88833235Y-85416420D01*
X88840752Y-85455093D01*
X88855670Y-85491556D01*
X88877414Y-85524409D01*
X88905150Y-85552387D01*
X88937812Y-85574417D01*
X88974143Y-85589652D01*
X89012748Y-85597507D01*
X89052145Y-85597678D01*
X89311980Y-85547172D01*
X89351520Y-85488550D01*
X89351520Y-85550846D01*
X88855941Y-85675659D01*
X88726666Y-85614423D01*
X88727851Y-85580691D01*
X88714076Y-85525968D01*
X88562940Y-85155620D01*
X88548235Y-85126568D01*
X88540043Y-85116652D01*
X88562296Y-85095462D01*
X88613166Y-85023349D01*
X88649060Y-84942729D01*
X88668611Y-84856673D01*
X88670019Y-84755875D01*
X88652878Y-84669306D01*
X88619249Y-84587716D01*
X88570412Y-84514211D01*
X88508228Y-84451592D01*
X88435066Y-84402243D01*
X88353712Y-84368045D01*
X88267265Y-84350300D01*
X88179018Y-84349684D01*
X88092332Y-84366220D01*
X88010508Y-84399279D01*
X87936664Y-84447601D01*
X87873612Y-84509346D01*
X87868791Y-84516386D01*
X87351180Y-84299117D01*
X87140130Y-83794103D01*
X87163850Y-83675500D01*
X87196403Y-83662216D01*
X87225455Y-83647511D01*
X87268957Y-83611569D01*
X87295539Y-83572593D01*
X87316753Y-83579549D01*
X87373147Y-83581530D01*
X87427870Y-83567755D01*
X87470189Y-83550484D01*
X87470178Y-83550567D01*
X87470882Y-83562295D01*
X87470394Y-83574047D01*
X87472341Y-83586597D01*
X87473103Y-83599270D01*
X87476074Y-83610646D01*
X87477877Y-83622261D01*
X87482223Y-83634189D01*
X87485433Y-83646478D01*
X87486664Y-83649745D01*
X87561588Y-83844547D01*
X87558714Y-83851254D01*
X87545462Y-83913597D01*
X87544572Y-83977327D01*
X87556078Y-84040016D01*
X87579541Y-84099276D01*
X87614067Y-84152850D01*
X87658342Y-84198698D01*
X87710678Y-84235073D01*
X87769083Y-84260589D01*
X87831332Y-84274276D01*
X87895054Y-84275611D01*
X87957822Y-84264543D01*
X88017244Y-84241494D01*
X88071058Y-84207343D01*
X88117214Y-84163390D01*
X88153954Y-84111308D01*
X88179877Y-84053082D01*
X88193998Y-83990930D01*
X88195014Y-83918132D01*
X88182635Y-83855610D01*
X88158347Y-83796683D01*
X88123076Y-83743596D01*
X88078165Y-83698371D01*
X88028079Y-83664588D01*
X87986192Y-83555682D01*
X88036042Y-83412364D01*
X88036044Y-83412361D01*
X88036061Y-83412309D01*
X88036124Y-83412130D01*
X88036126Y-83412117D01*
X88037171Y-83409057D01*
X88047171Y-83379057D01*
X88050056Y-83366391D01*
X88054088Y-83354047D01*
X88055462Y-83342666D01*
X88058010Y-83331484D01*
X88058380Y-83318494D01*
X88059937Y-83305606D01*
X88059074Y-83294178D01*
X88059402Y-83282713D01*
X88057242Y-83269900D01*
X88056266Y-83256954D01*
X88053199Y-83245908D01*
X88051294Y-83234599D01*
X88046688Y-83222451D01*
X88043215Y-83209940D01*
X88041935Y-83206693D01*
X87691935Y-82336693D01*
X87684559Y-82322534D01*
X87678163Y-82307915D01*
X87673315Y-82300948D01*
X87669394Y-82293420D01*
X87659410Y-82280964D01*
X87650296Y-82267866D01*
X87644189Y-82261975D01*
X87638878Y-82255349D01*
X87626662Y-82245068D01*
X87615180Y-82233992D01*
X87612428Y-82231844D01*
X87522663Y-82162794D01*
X87523197Y-82155545D01*
X87511533Y-82100334D01*
X87505015Y-82082426D01*
X87545027Y-82067746D01*
X88379032Y-81847530D01*
X88379032Y-82620000D01*
X88381670Y-82652454D01*
X88398511Y-82706312D01*
X88429661Y-82753365D01*
X88472664Y-82789903D01*
X88524130Y-82813045D01*
X88580000Y-82820968D01*
X89580000Y-82820968D01*
X89612454Y-82818330D01*
X89666312Y-82801489D01*
X89713365Y-82770339D01*
X89749903Y-82727336D01*
X89773045Y-82675870D01*
X89780968Y-82620000D01*
X89780968Y-81886523D01*
X89781034Y-81886351D01*
X89781800Y-81881906D01*
X89783266Y-81877635D01*
X89784047Y-81874233D01*
X89791146Y-81842283D01*
X89813210Y-81815317D01*
X89906473Y-81763504D01*
X90411586Y-81712057D01*
X90402762Y-81725264D01*
X90387686Y-81761662D01*
X90380000Y-81800301D01*
X90380000Y-81839698D01*
X90380000Y-82165000D01*
X90430000Y-82215000D01*
X91075000Y-82215000D01*
X91075000Y-82195000D01*
X91085000Y-82195000D01*
X91085000Y-82215000D01*
X91105000Y-82215000D01*
X91105000Y-82225000D01*
X91085000Y-82225000D01*
X91085000Y-82770000D01*
X91135000Y-82820000D01*
X91490945Y-82820000D01*
G36*
X91950000Y-109866346D02*
X91907336Y-109830097D01*
X91855870Y-109806955D01*
X91800000Y-109799032D01*
X91300000Y-109799032D01*
X91267546Y-109801670D01*
X91213688Y-109818511D01*
X91174040Y-109844758D01*
X91158347Y-109806683D01*
X91123076Y-109753596D01*
X91078165Y-109708371D01*
X91025326Y-109672731D01*
X90966570Y-109648032D01*
X90904136Y-109635216D01*
X90840402Y-109634771D01*
X90777795Y-109646714D01*
X90718700Y-109670590D01*
X90693148Y-109687310D01*
X90147865Y-109622737D01*
X88466613Y-109306266D01*
X87564136Y-109056073D01*
X87245525Y-108515176D01*
X87340769Y-108256363D01*
X87338882Y-108391470D01*
X87368974Y-108555425D01*
X87430338Y-108710413D01*
X87520637Y-108850530D01*
X87636432Y-108970440D01*
X87773313Y-109065574D01*
X87926065Y-109132310D01*
X88088870Y-109168105D01*
X88255527Y-109171596D01*
X88419688Y-109142650D01*
X88575100Y-109082369D01*
X88715844Y-108993050D01*
X88836559Y-108878095D01*
X88932647Y-108741882D01*
X89000447Y-108589600D01*
X89037378Y-108427049D01*
X89040037Y-108236653D01*
X89037469Y-108223685D01*
X89194445Y-108397540D01*
X89201490Y-108403955D01*
X89207714Y-108411156D01*
X89219479Y-108420335D01*
X89230521Y-108430390D01*
X89238675Y-108435313D01*
X89246182Y-108441170D01*
X89259506Y-108447889D01*
X89272291Y-108455608D01*
X89281247Y-108458853D01*
X89289747Y-108463140D01*
X89304132Y-108467146D01*
X89318163Y-108472231D01*
X89327568Y-108473673D01*
X89336749Y-108476231D01*
X89340192Y-108476810D01*
X89914524Y-108569444D01*
X89970338Y-108710413D01*
X90060637Y-108850530D01*
X90176432Y-108970440D01*
X90313313Y-109065574D01*
X90466065Y-109132310D01*
X90628870Y-109168105D01*
X90795527Y-109171596D01*
X90959688Y-109142650D01*
X91115100Y-109082369D01*
X91255844Y-108993050D01*
X91376559Y-108878095D01*
X91472647Y-108741882D01*
X91540447Y-108589600D01*
X91577378Y-108427049D01*
X91580037Y-108236653D01*
X91547659Y-108073134D01*
X91484137Y-107919018D01*
X91391890Y-107780176D01*
X91274432Y-107661895D01*
X91136237Y-107568681D01*
X90982568Y-107504084D01*
X90819279Y-107470566D01*
X90652590Y-107469402D01*
X90488848Y-107500637D01*
X90334293Y-107563082D01*
X90194810Y-107654357D01*
X90075711Y-107770987D01*
X89981535Y-107908528D01*
X89915867Y-108061742D01*
X89915567Y-108063151D01*
X89506624Y-107997192D01*
X89285141Y-107751894D01*
X89358870Y-107768105D01*
X89525527Y-107771596D01*
X89689688Y-107742650D01*
X89845100Y-107682369D01*
X89985844Y-107593050D01*
X90106559Y-107478095D01*
X90202647Y-107341882D01*
X90270447Y-107189600D01*
X90307378Y-107027049D01*
X90310037Y-106836653D01*
X90277659Y-106673134D01*
X90214137Y-106519018D01*
X90121890Y-106380176D01*
X90004432Y-106261895D01*
X89886600Y-106182416D01*
X90174691Y-106234433D01*
X90178311Y-106243601D01*
X90181975Y-106255736D01*
X90183192Y-106258632D01*
X90213192Y-106328632D01*
X90222363Y-106345316D01*
X90231065Y-106362182D01*
X90232789Y-106364808D01*
X90272789Y-106424808D01*
X90285864Y-106440788D01*
X90298696Y-106456862D01*
X90300574Y-106458767D01*
X90300596Y-106458794D01*
X90300619Y-106458813D01*
X90300901Y-106459099D01*
X90360901Y-106519099D01*
X90370671Y-106527124D01*
X90379735Y-106535928D01*
X90387594Y-106541025D01*
X90394834Y-106546972D01*
X90405973Y-106552944D01*
X90416577Y-106559822D01*
X90419377Y-106561246D01*
X90499377Y-106601246D01*
X90500352Y-106601619D01*
X90501239Y-106602166D01*
X90520832Y-106609466D01*
X90540383Y-106616958D01*
X90541410Y-106617134D01*
X90542388Y-106617499D01*
X90545429Y-106618282D01*
X90585429Y-106628282D01*
X90595791Y-106629819D01*
X90605939Y-106632407D01*
X90609047Y-106632861D01*
X90619493Y-106634311D01*
X90613107Y-106661371D01*
X90618239Y-106690186D01*
X90674207Y-106878064D01*
X90765752Y-107051413D01*
X90889357Y-107203571D01*
X91040272Y-107328692D01*
X91212697Y-107421966D01*
X91400006Y-107479810D01*
X91595000Y-107500000D01*
X91950000Y-107500000D01*
X91950000Y-109866346D01*
X91950000Y-109866346D01*
G37*
X91950000Y-109866346D02*
X91907336Y-109830097D01*
X91855870Y-109806955D01*
X91800000Y-109799032D01*
X91300000Y-109799032D01*
X91267546Y-109801670D01*
X91213688Y-109818511D01*
X91174040Y-109844758D01*
X91158347Y-109806683D01*
X91123076Y-109753596D01*
X91078165Y-109708371D01*
X91025326Y-109672731D01*
X90966570Y-109648032D01*
X90904136Y-109635216D01*
X90840402Y-109634771D01*
X90777795Y-109646714D01*
X90718700Y-109670590D01*
X90693148Y-109687310D01*
X90147865Y-109622737D01*
X88466613Y-109306266D01*
X87564136Y-109056073D01*
X87245525Y-108515176D01*
X87340769Y-108256363D01*
X87338882Y-108391470D01*
X87368974Y-108555425D01*
X87430338Y-108710413D01*
X87520637Y-108850530D01*
X87636432Y-108970440D01*
X87773313Y-109065574D01*
X87926065Y-109132310D01*
X88088870Y-109168105D01*
X88255527Y-109171596D01*
X88419688Y-109142650D01*
X88575100Y-109082369D01*
X88715844Y-108993050D01*
X88836559Y-108878095D01*
X88932647Y-108741882D01*
X89000447Y-108589600D01*
X89037378Y-108427049D01*
X89040037Y-108236653D01*
X89037469Y-108223685D01*
X89194445Y-108397540D01*
X89201490Y-108403955D01*
X89207714Y-108411156D01*
X89219479Y-108420335D01*
X89230521Y-108430390D01*
X89238675Y-108435313D01*
X89246182Y-108441170D01*
X89259506Y-108447889D01*
X89272291Y-108455608D01*
X89281247Y-108458853D01*
X89289747Y-108463140D01*
X89304132Y-108467146D01*
X89318163Y-108472231D01*
X89327568Y-108473673D01*
X89336749Y-108476231D01*
X89340192Y-108476810D01*
X89914524Y-108569444D01*
X89970338Y-108710413D01*
X90060637Y-108850530D01*
X90176432Y-108970440D01*
X90313313Y-109065574D01*
X90466065Y-109132310D01*
X90628870Y-109168105D01*
X90795527Y-109171596D01*
X90959688Y-109142650D01*
X91115100Y-109082369D01*
X91255844Y-108993050D01*
X91376559Y-108878095D01*
X91472647Y-108741882D01*
X91540447Y-108589600D01*
X91577378Y-108427049D01*
X91580037Y-108236653D01*
X91547659Y-108073134D01*
X91484137Y-107919018D01*
X91391890Y-107780176D01*
X91274432Y-107661895D01*
X91136237Y-107568681D01*
X90982568Y-107504084D01*
X90819279Y-107470566D01*
X90652590Y-107469402D01*
X90488848Y-107500637D01*
X90334293Y-107563082D01*
X90194810Y-107654357D01*
X90075711Y-107770987D01*
X89981535Y-107908528D01*
X89915867Y-108061742D01*
X89915567Y-108063151D01*
X89506624Y-107997192D01*
X89285141Y-107751894D01*
X89358870Y-107768105D01*
X89525527Y-107771596D01*
X89689688Y-107742650D01*
X89845100Y-107682369D01*
X89985844Y-107593050D01*
X90106559Y-107478095D01*
X90202647Y-107341882D01*
X90270447Y-107189600D01*
X90307378Y-107027049D01*
X90310037Y-106836653D01*
X90277659Y-106673134D01*
X90214137Y-106519018D01*
X90121890Y-106380176D01*
X90004432Y-106261895D01*
X89886600Y-106182416D01*
X90174691Y-106234433D01*
X90178311Y-106243601D01*
X90181975Y-106255736D01*
X90183192Y-106258632D01*
X90213192Y-106328632D01*
X90222363Y-106345316D01*
X90231065Y-106362182D01*
X90232789Y-106364808D01*
X90272789Y-106424808D01*
X90285864Y-106440788D01*
X90298696Y-106456862D01*
X90300574Y-106458767D01*
X90300596Y-106458794D01*
X90300619Y-106458813D01*
X90300901Y-106459099D01*
X90360901Y-106519099D01*
X90370671Y-106527124D01*
X90379735Y-106535928D01*
X90387594Y-106541025D01*
X90394834Y-106546972D01*
X90405973Y-106552944D01*
X90416577Y-106559822D01*
X90419377Y-106561246D01*
X90499377Y-106601246D01*
X90500352Y-106601619D01*
X90501239Y-106602166D01*
X90520832Y-106609466D01*
X90540383Y-106616958D01*
X90541410Y-106617134D01*
X90542388Y-106617499D01*
X90545429Y-106618282D01*
X90585429Y-106628282D01*
X90595791Y-106629819D01*
X90605939Y-106632407D01*
X90609047Y-106632861D01*
X90619493Y-106634311D01*
X90613107Y-106661371D01*
X90618239Y-106690186D01*
X90674207Y-106878064D01*
X90765752Y-107051413D01*
X90889357Y-107203571D01*
X91040272Y-107328692D01*
X91212697Y-107421966D01*
X91400006Y-107479810D01*
X91595000Y-107500000D01*
X91950000Y-107500000D01*
X91950000Y-109866346D01*
G36*
X92283110Y-83172171D02*
X92260814Y-83417432D01*
X92122845Y-83560000D01*
X91920000Y-83560000D01*
X91903829Y-83561585D01*
X91887593Y-83561756D01*
X91874774Y-83564434D01*
X91861730Y-83565713D01*
X91846175Y-83570409D01*
X91830281Y-83573730D01*
X91818224Y-83578848D01*
X91805679Y-83582636D01*
X91791332Y-83590264D01*
X91780968Y-83594664D01*
X91780968Y-83320000D01*
X91779102Y-83297044D01*
X91870294Y-83155190D01*
X91870317Y-83155143D01*
X91870915Y-83154219D01*
X91940915Y-83044219D01*
X91948838Y-83028581D01*
X91957618Y-83013393D01*
X91959039Y-83010205D01*
X91978606Y-82965479D01*
X91978539Y-82976367D01*
X91990622Y-83031488D01*
X92017552Y-83081076D01*
X92057207Y-83121223D01*
X92106460Y-83148763D01*
X92161427Y-83161525D01*
X92283110Y-83172171D01*
X92283110Y-83172171D01*
G37*
X92283110Y-83172171D02*
X92260814Y-83417432D01*
X92122845Y-83560000D01*
X91920000Y-83560000D01*
X91903829Y-83561585D01*
X91887593Y-83561756D01*
X91874774Y-83564434D01*
X91861730Y-83565713D01*
X91846175Y-83570409D01*
X91830281Y-83573730D01*
X91818224Y-83578848D01*
X91805679Y-83582636D01*
X91791332Y-83590264D01*
X91780968Y-83594664D01*
X91780968Y-83320000D01*
X91779102Y-83297044D01*
X91870294Y-83155190D01*
X91870317Y-83155143D01*
X91870915Y-83154219D01*
X91940915Y-83044219D01*
X91948838Y-83028581D01*
X91957618Y-83013393D01*
X91959039Y-83010205D01*
X91978606Y-82965479D01*
X91978539Y-82976367D01*
X91990622Y-83031488D01*
X92017552Y-83081076D01*
X92057207Y-83121223D01*
X92106460Y-83148763D01*
X92161427Y-83161525D01*
X92283110Y-83172171D01*
G36*
X94314806Y-83653391D02*
X94291334Y-83733263D01*
X93979675Y-83683168D01*
X93959689Y-83681934D01*
X93939745Y-83680000D01*
X93935366Y-83680433D01*
X93930976Y-83680163D01*
X93911114Y-83682836D01*
X93891192Y-83684811D01*
X93886987Y-83686085D01*
X93882621Y-83686673D01*
X93863650Y-83693156D01*
X93844496Y-83698961D01*
X93840614Y-83701030D01*
X93836451Y-83702453D01*
X93819111Y-83712491D01*
X93801440Y-83721911D01*
X93798034Y-83724693D01*
X93794226Y-83726899D01*
X93779182Y-83740100D01*
X93763661Y-83752786D01*
X93761204Y-83755266D01*
X93601159Y-83919032D01*
X93210000Y-83919032D01*
X93177546Y-83921670D01*
X93123688Y-83938511D01*
X93076635Y-83969661D01*
X93040097Y-84012664D01*
X93016955Y-84064130D01*
X93009032Y-84120000D01*
X93009032Y-84468023D01*
X92910000Y-84562554D01*
X92910000Y-84425000D01*
X92860000Y-84375000D01*
X92415000Y-84375000D01*
X92415000Y-84395000D01*
X92405000Y-84395000D01*
X92405000Y-84375000D01*
X92385000Y-84375000D01*
X92385000Y-84365000D01*
X92405000Y-84365000D01*
X92405000Y-84345000D01*
X92415000Y-84345000D01*
X92415000Y-84365000D01*
X92860000Y-84365000D01*
X92910000Y-84315000D01*
X92910000Y-84139698D01*
X92910000Y-84100301D01*
X92902314Y-84061662D01*
X92887238Y-84025264D01*
X92865350Y-83992507D01*
X92837492Y-83964650D01*
X92804735Y-83942762D01*
X92768338Y-83927686D01*
X92729698Y-83920000D01*
X92609412Y-83920000D01*
X92765581Y-83758626D01*
X92772862Y-83749458D01*
X92781173Y-83741205D01*
X92791033Y-83726583D01*
X92801997Y-83712781D01*
X92807359Y-83702373D01*
X92813909Y-83692662D01*
X92820739Y-83676407D01*
X92828816Y-83660734D01*
X92832055Y-83649479D01*
X92836592Y-83638685D01*
X92840137Y-83621406D01*
X92845013Y-83604469D01*
X92846004Y-83592809D01*
X92848360Y-83581330D01*
X92848768Y-83577161D01*
X92884751Y-83181339D01*
X92896414Y-83175006D01*
X92918006Y-83153678D01*
X93277406Y-83506298D01*
X93283254Y-83511009D01*
X93288376Y-83516489D01*
X93304107Y-83527807D01*
X93319202Y-83539967D01*
X93325848Y-83543449D01*
X93331942Y-83547834D01*
X93349573Y-83555881D01*
X93366741Y-83564878D01*
X93373939Y-83567003D01*
X93380766Y-83570120D01*
X93399627Y-83574590D01*
X93418215Y-83580080D01*
X93425687Y-83580767D01*
X93432990Y-83582498D01*
X93436799Y-83582988D01*
X94176799Y-83672988D01*
X94198535Y-83673494D01*
X94220215Y-83674810D01*
X94225306Y-83674118D01*
X94230454Y-83674239D01*
X94251877Y-83670512D01*
X94273398Y-83667592D01*
X94278264Y-83665923D01*
X94283331Y-83665042D01*
X94303603Y-83657233D01*
X94314806Y-83653391D01*
X94314806Y-83653391D01*
G37*
X94314806Y-83653391D02*
X94291334Y-83733263D01*
X93979675Y-83683168D01*
X93959689Y-83681934D01*
X93939745Y-83680000D01*
X93935366Y-83680433D01*
X93930976Y-83680163D01*
X93911114Y-83682836D01*
X93891192Y-83684811D01*
X93886987Y-83686085D01*
X93882621Y-83686673D01*
X93863650Y-83693156D01*
X93844496Y-83698961D01*
X93840614Y-83701030D01*
X93836451Y-83702453D01*
X93819111Y-83712491D01*
X93801440Y-83721911D01*
X93798034Y-83724693D01*
X93794226Y-83726899D01*
X93779182Y-83740100D01*
X93763661Y-83752786D01*
X93761204Y-83755266D01*
X93601159Y-83919032D01*
X93210000Y-83919032D01*
X93177546Y-83921670D01*
X93123688Y-83938511D01*
X93076635Y-83969661D01*
X93040097Y-84012664D01*
X93016955Y-84064130D01*
X93009032Y-84120000D01*
X93009032Y-84468023D01*
X92910000Y-84562554D01*
X92910000Y-84425000D01*
X92860000Y-84375000D01*
X92415000Y-84375000D01*
X92415000Y-84395000D01*
X92405000Y-84395000D01*
X92405000Y-84375000D01*
X92385000Y-84375000D01*
X92385000Y-84365000D01*
X92405000Y-84365000D01*
X92405000Y-84345000D01*
X92415000Y-84345000D01*
X92415000Y-84365000D01*
X92860000Y-84365000D01*
X92910000Y-84315000D01*
X92910000Y-84139698D01*
X92910000Y-84100301D01*
X92902314Y-84061662D01*
X92887238Y-84025264D01*
X92865350Y-83992507D01*
X92837492Y-83964650D01*
X92804735Y-83942762D01*
X92768338Y-83927686D01*
X92729698Y-83920000D01*
X92609412Y-83920000D01*
X92765581Y-83758626D01*
X92772862Y-83749458D01*
X92781173Y-83741205D01*
X92791033Y-83726583D01*
X92801997Y-83712781D01*
X92807359Y-83702373D01*
X92813909Y-83692662D01*
X92820739Y-83676407D01*
X92828816Y-83660734D01*
X92832055Y-83649479D01*
X92836592Y-83638685D01*
X92840137Y-83621406D01*
X92845013Y-83604469D01*
X92846004Y-83592809D01*
X92848360Y-83581330D01*
X92848768Y-83577161D01*
X92884751Y-83181339D01*
X92896414Y-83175006D01*
X92918006Y-83153678D01*
X93277406Y-83506298D01*
X93283254Y-83511009D01*
X93288376Y-83516489D01*
X93304107Y-83527807D01*
X93319202Y-83539967D01*
X93325848Y-83543449D01*
X93331942Y-83547834D01*
X93349573Y-83555881D01*
X93366741Y-83564878D01*
X93373939Y-83567003D01*
X93380766Y-83570120D01*
X93399627Y-83574590D01*
X93418215Y-83580080D01*
X93425687Y-83580767D01*
X93432990Y-83582498D01*
X93436799Y-83582988D01*
X94176799Y-83672988D01*
X94198535Y-83673494D01*
X94220215Y-83674810D01*
X94225306Y-83674118D01*
X94230454Y-83674239D01*
X94251877Y-83670512D01*
X94273398Y-83667592D01*
X94278264Y-83665923D01*
X94283331Y-83665042D01*
X94303603Y-83657233D01*
X94314806Y-83653391D01*
G36*
X95297624Y-82255624D02*
X95283612Y-82269346D01*
X95233754Y-82342162D01*
X95198989Y-82423275D01*
X95180641Y-82509596D01*
X95179409Y-82597837D01*
X95182417Y-82614229D01*
X94666253Y-82457499D01*
X94637159Y-82556496D01*
X94426873Y-82520635D01*
X94441260Y-82356194D01*
X94441461Y-82323633D01*
X94429378Y-82268512D01*
X94402448Y-82218924D01*
X94362793Y-82178777D01*
X94313540Y-82151237D01*
X94258573Y-82138475D01*
X93660856Y-82086181D01*
X93656113Y-82086151D01*
X93642878Y-82019306D01*
X93618870Y-81961058D01*
X94114858Y-81998072D01*
X95093390Y-82203564D01*
X95297624Y-82255624D01*
X95297624Y-82255624D01*
G37*
X95297624Y-82255624D02*
X95283612Y-82269346D01*
X95233754Y-82342162D01*
X95198989Y-82423275D01*
X95180641Y-82509596D01*
X95179409Y-82597837D01*
X95182417Y-82614229D01*
X94666253Y-82457499D01*
X94637159Y-82556496D01*
X94426873Y-82520635D01*
X94441260Y-82356194D01*
X94441461Y-82323633D01*
X94429378Y-82268512D01*
X94402448Y-82218924D01*
X94362793Y-82178777D01*
X94313540Y-82151237D01*
X94258573Y-82138475D01*
X93660856Y-82086181D01*
X93656113Y-82086151D01*
X93642878Y-82019306D01*
X93618870Y-81961058D01*
X94114858Y-81998072D01*
X95093390Y-82203564D01*
X95297624Y-82255624D01*
G36*
X98132615Y-83327368D02*
X98128548Y-83345510D01*
X98131794Y-83398508D01*
X98124984Y-83410000D01*
X98060000Y-83410000D01*
X97810000Y-83410000D01*
X97806356Y-83410357D01*
X97802710Y-83410089D01*
X97777265Y-83413209D01*
X97751730Y-83415713D01*
X97748227Y-83416770D01*
X97744595Y-83417216D01*
X97740514Y-83418158D01*
X97530514Y-83468158D01*
X97511682Y-83474639D01*
X97492483Y-83479928D01*
X97488583Y-83481457D01*
X97241623Y-83580241D01*
X97117693Y-83626714D01*
X97231891Y-83236539D01*
X97173247Y-83218732D01*
X97365262Y-82684569D01*
X97365608Y-82683196D01*
X97366202Y-82681908D01*
X97371583Y-82659536D01*
X97377208Y-82637263D01*
X97377281Y-82635848D01*
X97377613Y-82634470D01*
X97378069Y-82631009D01*
X97388070Y-82551008D01*
X97388437Y-82537208D01*
X97389976Y-82523491D01*
X97390000Y-82520000D01*
X97390000Y-82454777D01*
X97696357Y-82557694D01*
X97643612Y-82609346D01*
X97593754Y-82682162D01*
X97558989Y-82763275D01*
X97540641Y-82849596D01*
X97539409Y-82937837D01*
X97555340Y-83024637D01*
X97587826Y-83106689D01*
X97635632Y-83180869D01*
X97696935Y-83244350D01*
X97769401Y-83294715D01*
X97850270Y-83330046D01*
X97936460Y-83348996D01*
X98024691Y-83350844D01*
X98111599Y-83335520D01*
X98132615Y-83327368D01*
X98132615Y-83327368D01*
G37*
X98132615Y-83327368D02*
X98128548Y-83345510D01*
X98131794Y-83398508D01*
X98124984Y-83410000D01*
X98060000Y-83410000D01*
X97810000Y-83410000D01*
X97806356Y-83410357D01*
X97802710Y-83410089D01*
X97777265Y-83413209D01*
X97751730Y-83415713D01*
X97748227Y-83416770D01*
X97744595Y-83417216D01*
X97740514Y-83418158D01*
X97530514Y-83468158D01*
X97511682Y-83474639D01*
X97492483Y-83479928D01*
X97488583Y-83481457D01*
X97241623Y-83580241D01*
X97117693Y-83626714D01*
X97231891Y-83236539D01*
X97173247Y-83218732D01*
X97365262Y-82684569D01*
X97365608Y-82683196D01*
X97366202Y-82681908D01*
X97371583Y-82659536D01*
X97377208Y-82637263D01*
X97377281Y-82635848D01*
X97377613Y-82634470D01*
X97378069Y-82631009D01*
X97388070Y-82551008D01*
X97388437Y-82537208D01*
X97389976Y-82523491D01*
X97390000Y-82520000D01*
X97390000Y-82454777D01*
X97696357Y-82557694D01*
X97643612Y-82609346D01*
X97593754Y-82682162D01*
X97558989Y-82763275D01*
X97540641Y-82849596D01*
X97539409Y-82937837D01*
X97555340Y-83024637D01*
X97587826Y-83106689D01*
X97635632Y-83180869D01*
X97696935Y-83244350D01*
X97769401Y-83294715D01*
X97850270Y-83330046D01*
X97936460Y-83348996D01*
X98024691Y-83350844D01*
X98111599Y-83335520D01*
X98132615Y-83327368D01*
G36*
X98388656Y-86136154D02*
X98332385Y-86218809D01*
X98314447Y-86208452D01*
X98162631Y-86120801D01*
X98094330Y-86139103D01*
X97871830Y-86524484D01*
X97889150Y-86534484D01*
X97884151Y-86543144D01*
X97866830Y-86533144D01*
X97856829Y-86550464D01*
X97848169Y-86545464D01*
X97858170Y-86528144D01*
X97516090Y-86330644D01*
X97447789Y-86348945D01*
X97346883Y-86523719D01*
X97164419Y-86427274D01*
X97173876Y-86423607D01*
X97248388Y-86376320D01*
X97312296Y-86315462D01*
X97363166Y-86243349D01*
X97399060Y-86162729D01*
X97418611Y-86076673D01*
X97419329Y-86025266D01*
X97430270Y-86030046D01*
X97516460Y-86048996D01*
X97604691Y-86050844D01*
X97621621Y-86047858D01*
X97502789Y-86253683D01*
X97521090Y-86321984D01*
X97863170Y-86519484D01*
X98085670Y-86134103D01*
X98067369Y-86065801D01*
X97915553Y-85978150D01*
X97881434Y-85958452D01*
X97855421Y-85949622D01*
X97912296Y-85895462D01*
X97930879Y-85869118D01*
X97948010Y-85882537D01*
X98381022Y-86132537D01*
X98388656Y-86136154D01*
X98388656Y-86136154D01*
G37*
X98388656Y-86136154D02*
X98332385Y-86218809D01*
X98314447Y-86208452D01*
X98162631Y-86120801D01*
X98094330Y-86139103D01*
X97871830Y-86524484D01*
X97889150Y-86534484D01*
X97884151Y-86543144D01*
X97866830Y-86533144D01*
X97856829Y-86550464D01*
X97848169Y-86545464D01*
X97858170Y-86528144D01*
X97516090Y-86330644D01*
X97447789Y-86348945D01*
X97346883Y-86523719D01*
X97164419Y-86427274D01*
X97173876Y-86423607D01*
X97248388Y-86376320D01*
X97312296Y-86315462D01*
X97363166Y-86243349D01*
X97399060Y-86162729D01*
X97418611Y-86076673D01*
X97419329Y-86025266D01*
X97430270Y-86030046D01*
X97516460Y-86048996D01*
X97604691Y-86050844D01*
X97621621Y-86047858D01*
X97502789Y-86253683D01*
X97521090Y-86321984D01*
X97863170Y-86519484D01*
X98085670Y-86134103D01*
X98067369Y-86065801D01*
X97915553Y-85978150D01*
X97881434Y-85958452D01*
X97855421Y-85949622D01*
X97912296Y-85895462D01*
X97930879Y-85869118D01*
X97948010Y-85882537D01*
X98381022Y-86132537D01*
X98388656Y-86136154D01*
G36*
X98430241Y-84882680D02*
X98364841Y-84988626D01*
X98364490Y-84988548D01*
X98308166Y-84991998D01*
X98255022Y-85010971D01*
X98209247Y-85043970D01*
X98174451Y-85088394D01*
X97982740Y-85420447D01*
X97969249Y-85387716D01*
X97920412Y-85314211D01*
X97858228Y-85251592D01*
X97785066Y-85202243D01*
X97703712Y-85168045D01*
X97617265Y-85150300D01*
X97529018Y-85149684D01*
X97442332Y-85166220D01*
X97360508Y-85199279D01*
X97286664Y-85247601D01*
X97223612Y-85309346D01*
X97173754Y-85382162D01*
X97138989Y-85463275D01*
X97120641Y-85549596D01*
X97120008Y-85594895D01*
X97103712Y-85588045D01*
X97017265Y-85570300D01*
X96929018Y-85569684D01*
X96842332Y-85586220D01*
X96760508Y-85619279D01*
X96691170Y-85664652D01*
X96688540Y-85658589D01*
X96687777Y-85657486D01*
X96687234Y-85656269D01*
X96685485Y-85653248D01*
X96578028Y-85470567D01*
X96713935Y-85006220D01*
X96716202Y-85006786D01*
X96720351Y-85007368D01*
X96870350Y-85027368D01*
X96870794Y-85027383D01*
X96871225Y-85027483D01*
X96899937Y-85028399D01*
X96928864Y-85029407D01*
X96929302Y-85029335D01*
X96929746Y-85029350D01*
X96933924Y-85029045D01*
X97183924Y-85009045D01*
X97210368Y-85004299D01*
X97236847Y-84999991D01*
X97240889Y-84998889D01*
X97241553Y-84998703D01*
X97490889Y-84928889D01*
X97510402Y-84921303D01*
X97530315Y-84914817D01*
X97534141Y-84913110D01*
X97737929Y-84820479D01*
X97915813Y-84763879D01*
X98004964Y-84751992D01*
X98146570Y-84766153D01*
X98280558Y-84801413D01*
X98419121Y-84874340D01*
X98430241Y-84882680D01*
X98430241Y-84882680D01*
G37*
X98430241Y-84882680D02*
X98364841Y-84988626D01*
X98364490Y-84988548D01*
X98308166Y-84991998D01*
X98255022Y-85010971D01*
X98209247Y-85043970D01*
X98174451Y-85088394D01*
X97982740Y-85420447D01*
X97969249Y-85387716D01*
X97920412Y-85314211D01*
X97858228Y-85251592D01*
X97785066Y-85202243D01*
X97703712Y-85168045D01*
X97617265Y-85150300D01*
X97529018Y-85149684D01*
X97442332Y-85166220D01*
X97360508Y-85199279D01*
X97286664Y-85247601D01*
X97223612Y-85309346D01*
X97173754Y-85382162D01*
X97138989Y-85463275D01*
X97120641Y-85549596D01*
X97120008Y-85594895D01*
X97103712Y-85588045D01*
X97017265Y-85570300D01*
X96929018Y-85569684D01*
X96842332Y-85586220D01*
X96760508Y-85619279D01*
X96691170Y-85664652D01*
X96688540Y-85658589D01*
X96687777Y-85657486D01*
X96687234Y-85656269D01*
X96685485Y-85653248D01*
X96578028Y-85470567D01*
X96713935Y-85006220D01*
X96716202Y-85006786D01*
X96720351Y-85007368D01*
X96870350Y-85027368D01*
X96870794Y-85027383D01*
X96871225Y-85027483D01*
X96899937Y-85028399D01*
X96928864Y-85029407D01*
X96929302Y-85029335D01*
X96929746Y-85029350D01*
X96933924Y-85029045D01*
X97183924Y-85009045D01*
X97210368Y-85004299D01*
X97236847Y-84999991D01*
X97240889Y-84998889D01*
X97241553Y-84998703D01*
X97490889Y-84928889D01*
X97510402Y-84921303D01*
X97530315Y-84914817D01*
X97534141Y-84913110D01*
X97737929Y-84820479D01*
X97915813Y-84763879D01*
X98004964Y-84751992D01*
X98146570Y-84766153D01*
X98280558Y-84801413D01*
X98419121Y-84874340D01*
X98430241Y-84882680D01*
G36*
X99690464Y-83853170D02*
X99685465Y-83861830D01*
X99668144Y-83851830D01*
X99659484Y-83866829D01*
X99659484Y-83846830D01*
X99274103Y-83624330D01*
X99205801Y-83642631D01*
X99118150Y-83794447D01*
X99098452Y-83828566D01*
X99085789Y-83865872D01*
X99080646Y-83904931D01*
X99083223Y-83944244D01*
X99093420Y-83982297D01*
X99110844Y-84017631D01*
X99134827Y-84048886D01*
X99164447Y-84074862D01*
X99393683Y-84207211D01*
X99461984Y-84188910D01*
X99659484Y-83846830D01*
X99659484Y-83866829D01*
X99470644Y-84193910D01*
X99488945Y-84262211D01*
X99614909Y-84334936D01*
X99467843Y-84550958D01*
X99042384Y-84253049D01*
X99014286Y-84236595D01*
X98960509Y-84219498D01*
X98904099Y-84218027D01*
X98849503Y-84232295D01*
X98801026Y-84261179D01*
X98762491Y-84302402D01*
X98724226Y-84357050D01*
X98723417Y-84356501D01*
X98719724Y-84354524D01*
X98529724Y-84254525D01*
X98527252Y-84253518D01*
X98525000Y-84252092D01*
X98500178Y-84242492D01*
X98475499Y-84232441D01*
X98472878Y-84231933D01*
X98470392Y-84230972D01*
X98466348Y-84229878D01*
X98276348Y-84179878D01*
X98255075Y-84176453D01*
X98234017Y-84171935D01*
X98229852Y-84171489D01*
X98029851Y-84151489D01*
X98026418Y-84151482D01*
X98023044Y-84150887D01*
X97997208Y-84151425D01*
X97971302Y-84151375D01*
X97967931Y-84152035D01*
X97964507Y-84152107D01*
X97960350Y-84152632D01*
X97810351Y-84172632D01*
X97786778Y-84178158D01*
X97763040Y-84182880D01*
X97759039Y-84184122D01*
X97539039Y-84254122D01*
X97524610Y-84260320D01*
X97509685Y-84265183D01*
X97505859Y-84266890D01*
X97306876Y-84357336D01*
X97107104Y-84413272D01*
X96917948Y-84428405D01*
X96884362Y-84423927D01*
X96938198Y-84239987D01*
X96940000Y-84240000D01*
X97040000Y-84240000D01*
X97057710Y-84238263D01*
X97075493Y-84237893D01*
X97079649Y-84237368D01*
X97229649Y-84217368D01*
X97232108Y-84216791D01*
X97234632Y-84216661D01*
X97260586Y-84210115D01*
X97286652Y-84204004D01*
X97288953Y-84202960D01*
X97291405Y-84202342D01*
X97295337Y-84200899D01*
X97455337Y-84140899D01*
X97456387Y-84140383D01*
X97457517Y-84140072D01*
X97461417Y-84138543D01*
X97690939Y-84046734D01*
X97845222Y-84010000D01*
X98060000Y-84010000D01*
X98191326Y-84010000D01*
X98252790Y-84017683D01*
X98278082Y-84018356D01*
X98303344Y-84019703D01*
X98307309Y-84019135D01*
X98311319Y-84019242D01*
X98336264Y-84014989D01*
X98361302Y-84011404D01*
X98365084Y-84010075D01*
X98369036Y-84009402D01*
X98392671Y-84000387D01*
X98416545Y-83992004D01*
X98419998Y-83989965D01*
X98423742Y-83988538D01*
X98445164Y-83975112D01*
X98466968Y-83962245D01*
X98469959Y-83959574D01*
X98473355Y-83957447D01*
X98491775Y-83940103D01*
X98510649Y-83923258D01*
X98513063Y-83920059D01*
X98515983Y-83917311D01*
X98530682Y-83896721D01*
X98545927Y-83876530D01*
X98548087Y-83872941D01*
X98615560Y-83759079D01*
X98748010Y-83835549D01*
X98777435Y-83849492D01*
X98832498Y-83861836D01*
X98888822Y-83858386D01*
X98941966Y-83839413D01*
X98987741Y-83806414D01*
X99022537Y-83761990D01*
X99249305Y-83369215D01*
X99335522Y-83417947D01*
X99260801Y-83547369D01*
X99279103Y-83615670D01*
X99664484Y-83838170D01*
X99674484Y-83820849D01*
X99683144Y-83825848D01*
X99673144Y-83843170D01*
X99690464Y-83853170D01*
X99690464Y-83853170D01*
G37*
X99690464Y-83853170D02*
X99685465Y-83861830D01*
X99668144Y-83851830D01*
X99659484Y-83866829D01*
X99659484Y-83846830D01*
X99274103Y-83624330D01*
X99205801Y-83642631D01*
X99118150Y-83794447D01*
X99098452Y-83828566D01*
X99085789Y-83865872D01*
X99080646Y-83904931D01*
X99083223Y-83944244D01*
X99093420Y-83982297D01*
X99110844Y-84017631D01*
X99134827Y-84048886D01*
X99164447Y-84074862D01*
X99393683Y-84207211D01*
X99461984Y-84188910D01*
X99659484Y-83846830D01*
X99659484Y-83866829D01*
X99470644Y-84193910D01*
X99488945Y-84262211D01*
X99614909Y-84334936D01*
X99467843Y-84550958D01*
X99042384Y-84253049D01*
X99014286Y-84236595D01*
X98960509Y-84219498D01*
X98904099Y-84218027D01*
X98849503Y-84232295D01*
X98801026Y-84261179D01*
X98762491Y-84302402D01*
X98724226Y-84357050D01*
X98723417Y-84356501D01*
X98719724Y-84354524D01*
X98529724Y-84254525D01*
X98527252Y-84253518D01*
X98525000Y-84252092D01*
X98500178Y-84242492D01*
X98475499Y-84232441D01*
X98472878Y-84231933D01*
X98470392Y-84230972D01*
X98466348Y-84229878D01*
X98276348Y-84179878D01*
X98255075Y-84176453D01*
X98234017Y-84171935D01*
X98229852Y-84171489D01*
X98029851Y-84151489D01*
X98026418Y-84151482D01*
X98023044Y-84150887D01*
X97997208Y-84151425D01*
X97971302Y-84151375D01*
X97967931Y-84152035D01*
X97964507Y-84152107D01*
X97960350Y-84152632D01*
X97810351Y-84172632D01*
X97786778Y-84178158D01*
X97763040Y-84182880D01*
X97759039Y-84184122D01*
X97539039Y-84254122D01*
X97524610Y-84260320D01*
X97509685Y-84265183D01*
X97505859Y-84266890D01*
X97306876Y-84357336D01*
X97107104Y-84413272D01*
X96917948Y-84428405D01*
X96884362Y-84423927D01*
X96938198Y-84239987D01*
X96940000Y-84240000D01*
X97040000Y-84240000D01*
X97057710Y-84238263D01*
X97075493Y-84237893D01*
X97079649Y-84237368D01*
X97229649Y-84217368D01*
X97232108Y-84216791D01*
X97234632Y-84216661D01*
X97260586Y-84210115D01*
X97286652Y-84204004D01*
X97288953Y-84202960D01*
X97291405Y-84202342D01*
X97295337Y-84200899D01*
X97455337Y-84140899D01*
X97456387Y-84140383D01*
X97457517Y-84140072D01*
X97461417Y-84138543D01*
X97690939Y-84046734D01*
X97845222Y-84010000D01*
X98060000Y-84010000D01*
X98191326Y-84010000D01*
X98252790Y-84017683D01*
X98278082Y-84018356D01*
X98303344Y-84019703D01*
X98307309Y-84019135D01*
X98311319Y-84019242D01*
X98336264Y-84014989D01*
X98361302Y-84011404D01*
X98365084Y-84010075D01*
X98369036Y-84009402D01*
X98392671Y-84000387D01*
X98416545Y-83992004D01*
X98419998Y-83989965D01*
X98423742Y-83988538D01*
X98445164Y-83975112D01*
X98466968Y-83962245D01*
X98469959Y-83959574D01*
X98473355Y-83957447D01*
X98491775Y-83940103D01*
X98510649Y-83923258D01*
X98513063Y-83920059D01*
X98515983Y-83917311D01*
X98530682Y-83896721D01*
X98545927Y-83876530D01*
X98548087Y-83872941D01*
X98615560Y-83759079D01*
X98748010Y-83835549D01*
X98777435Y-83849492D01*
X98832498Y-83861836D01*
X98888822Y-83858386D01*
X98941966Y-83839413D01*
X98987741Y-83806414D01*
X99022537Y-83761990D01*
X99249305Y-83369215D01*
X99335522Y-83417947D01*
X99260801Y-83547369D01*
X99279103Y-83615670D01*
X99664484Y-83838170D01*
X99674484Y-83820849D01*
X99683144Y-83825848D01*
X99673144Y-83843170D01*
X99690464Y-83853170D01*
M02*
