<?xml version="1.0" encoding="UTF-8" standalone="no"?>
<!-- Created with Inkscape (http://www.inkscape.org/) -->

<svg
   xmlns:dc="http://purl.org/dc/elements/1.1/"
   xmlns:cc="http://creativecommons.org/ns#"
   xmlns:rdf="http://www.w3.org/1999/02/22-rdf-syntax-ns#"
   xmlns:svg="http://www.w3.org/2000/svg"
   xmlns="http://www.w3.org/2000/svg"
   xmlns:xlink="http://www.w3.org/1999/xlink"
   xmlns:sodipodi="http://sodipodi.sourceforge.net/DTD/sodipodi-0.dtd"
   xmlns:inkscape="http://www.inkscape.org/namespaces/inkscape"
   width="52.029404mm"
   height="52.029404mm"
   viewBox="0 0 184.35615 184.35615"
   id="svg2"
   version="1.1"
   inkscape:version="0.91 r13725"
   sodipodi:docname="logo-bending.svg">
  <defs
     id="defs4">
    <inkscape:path-effect
       effect="bend_path"
       id="path-effect4941"
       is_visible="true"
       bendpath="m -0.01177858,86.336078 c 0,0 143.76809858,-43.428486 260.50499858,-43.428486 116.7369,0 260.63578,43.428486 260.63578,43.428486"
       prop_scale="1"
       scale_y_rel="false"
       vertical="false"
       bendpath-nodetypes="czc" />
    <inkscape:path-effect
       effect="bend_path"
       id="path-effect4205"
       is_visible="true"
       bendpath="m 123.60696,679.66773 c 3.89737,6.02488 20.55309,31.89773 54.21342,31.89438 33.66033,-0.003 50.31387,-25.8695 54.21044,-31.89532"
       prop_scale="1"
       scale_y_rel="false"
       vertical="false"
       bendpath-nodetypes="czc" />
    <color-profile
       id="color-profile5846"
       xlink:href="/System/Library/ColorSync/Profiles/Generic CMYK Profile.icc"
       name="Generic-CMYK-Profile" />
  </defs>
  <sodipodi:namedview
     id="base"
     pagecolor="#ffffff"
     bordercolor="#666666"
     borderopacity="1.0"
     inkscape:pageopacity="0.0"
     inkscape:pageshadow="2"
     inkscape:zoom="4"
     inkscape:cx="2.9292771"
     inkscape:cy="-57.538245"
     inkscape:document-units="mm"
     inkscape:current-layer="g4275"
     showgrid="true"
     inkscape:window-width="1436"
     inkscape:window-height="855"
     inkscape:window-x="4"
     inkscape:window-y="0"
     inkscape:window-maximized="1"
     fit-margin-top="0"
     fit-margin-left="0"
     fit-margin-right="0"
     fit-margin-bottom="0"
     gridtolerance="10">
    <inkscape:grid
       type="xygrid"
       id="grid4307"
       units="mm"
       spacingx="0.3543307"
       spacingy="0.3543307"
       color="#3f3fff"
       opacity="0.07058824"
       empcolor="#3f3fff"
       empopacity="0.11372549"
       originx="0"
       originy="0" />
  </sodipodi:namedview>
  <metadata
     id="metadata7">
    <rdf:RDF>
      <cc:Work
         rdf:about="">
        <dc:format>image/svg+xml</dc:format>
        <dc:type
           rdf:resource="http://purl.org/dc/dcmitype/StillImage" />
        <dc:title />
        <cc:license
           rdf:resource="http://creativecommons.org/licenses/by-sa/3.0/" />
      </cc:Work>
      <cc:License
         rdf:about="http://creativecommons.org/licenses/by-sa/3.0/">
        <cc:permits
           rdf:resource="http://creativecommons.org/ns#Reproduction" />
        <cc:permits
           rdf:resource="http://creativecommons.org/ns#Distribution" />
        <cc:requires
           rdf:resource="http://creativecommons.org/ns#Notice" />
        <cc:requires
           rdf:resource="http://creativecommons.org/ns#Attribution" />
        <cc:permits
           rdf:resource="http://creativecommons.org/ns#DerivativeWorks" />
        <cc:requires
           rdf:resource="http://creativecommons.org/ns#ShareAlike" />
      </cc:License>
    </rdf:RDF>
  </metadata>
  <g
     inkscape:label="Layer 1"
     inkscape:groupmode="layer"
     id="layer1"
     transform="translate(-177.81929,-465.19472)">
    <g
       id="g4153">
      <g
         id="g4243">
        <g
           id="g4234" />
        <g
           id="g4275"
           style="opacity:0.5">
          <g
             id="g4212"
             transform="translate(-94.712334,92.380689)">
            <g
               id="g4258" />
          </g>
          <g
             id="g4337"
             transform="translate(-0.0114647,0.06772255)">
            <path
               style="fill:none;fill-rule:evenodd;stroke:#b2b2b2;stroke-width:0.35433072;stroke-linecap:butt;stroke-linejoin:miter;stroke-miterlimit:4;stroke-dasharray:2.12598431, 2.12598431;stroke-dashoffset:0;stroke-opacity:1"
               d="M 243.01017,584.37105 112.65069,714.73054 Z"
               id="path4180-9-5"
               inkscape:connector-curvature="0" />
            <g
               id="g4326">
              <g
                 transform="translate(-94.71233,92.38069)"
                 style="opacity:0.5"
                 id="g4309">
                <g
                   id="g4176"
                   transform="translate(-1.9689027,-6.3947143)">
                  <g
                     style="opacity:1"
                     id="g4254">
                    <circle
                       r="79.547234"
                       cy="563.56482"
                       cx="274.51166"
                       id="path4136"
                       style="color:#000000;clip-rule:nonzero;display:inline;overflow:visible;visibility:visible;opacity:1;isolation:auto;mix-blend-mode:normal;color-interpolation:sRGB;color-interpolation-filters:linearRGB;solid-color:#000000;solid-opacity:1;fill:none;fill-opacity:1;fill-rule:nonzero;stroke:#b2b2b2;stroke-width:0.35434726;stroke-linecap:butt;stroke-linejoin:miter;stroke-miterlimit:4;stroke-dasharray:none;stroke-dashoffset:99.19411469;stroke-opacity:1;color-rendering:auto;image-rendering:auto;shape-rendering:auto;text-rendering:auto;enable-background:accumulate" />
                    <circle
                       cy="563.56482"
                       cx="274.51166"
                       id="path4136-5"
                       style="color:#000000;clip-rule:nonzero;display:inline;overflow:visible;visibility:visible;opacity:1;isolation:auto;mix-blend-mode:normal;color-interpolation:sRGB;color-interpolation-filters:linearRGB;solid-color:#000000;solid-opacity:1;fill:none;fill-opacity:1;fill-rule:nonzero;stroke:#b2b2b2;stroke-width:0.35434213;stroke-linecap:butt;stroke-linejoin:miter;stroke-miterlimit:4;stroke-dasharray:none;stroke-dashoffset:99.19411469;stroke-opacity:1;color-rendering:auto;image-rendering:auto;shape-rendering:auto;text-rendering:auto;enable-background:accumulate"
                       r="44.114166" />
                  </g>
                </g>
                <path
                   style="fill:none;fill-rule:evenodd;stroke:#b2b2b2;stroke-width:0.35433072;stroke-linecap:butt;stroke-linejoin:miter;stroke-miterlimit:4;stroke-dasharray:2.12598431, 2.12598431;stroke-dashoffset:0;stroke-opacity:1"
                   d="m 180.36468,557.1701 184.35615,0 z"
                   id="path4180"
                   inkscape:connector-curvature="0" />
                <path
                   style="fill:none;fill-rule:evenodd;stroke:#b2b2b2;stroke-width:0.35433072;stroke-linecap:butt;stroke-linejoin:miter;stroke-miterlimit:4;stroke-dasharray:2.12598431, 2.12598431;stroke-dashoffset:0;stroke-opacity:1"
                   d="m 272.54275,464.99203 0,184.35615 z"
                   id="path4180-9"
                   inkscape:connector-curvature="0" />
              </g>
              <path
                 style="fill:none;fill-rule:evenodd;stroke:#b2b2b2;stroke-width:0.35433072;stroke-linecap:butt;stroke-linejoin:miter;stroke-miterlimit:4;stroke-dasharray:2.12598431, 2.12598431;stroke-dashoffset:0;stroke-opacity:1"
                 d="M 112.65068,584.37106 243.01017,714.73053 Z"
                 id="path4180-9-5-1"
                 inkscape:connector-curvature="0" />
            </g>
          </g>
          <text
             xml:space="preserve"
             style="font-style:normal;font-variant:normal;font-weight:normal;font-stretch:normal;font-size:6.3445549px;line-height:125%;font-family:Lato;-inkscape-font-specification:'Lato, Normal';text-align:start;letter-spacing:0px;word-spacing:0px;writing-mode:lr-tb;text-anchor:start;opacity:0.5;fill:#000000;fill-opacity:1;stroke:none;stroke-width:1px;stroke-linecap:butt;stroke-linejoin:miter;stroke-opacity:1"
             x="389.70239"
             y="563.92926"
             id="text4171-5"
             sodipodi:linespacing="125%"><tspan
               sodipodi:role="line"
               id="tspan4173-3"
               x="389.70239"
               y="563.92926">Path</tspan></text>
          <text
             xml:space="preserve"
             style="font-style:normal;font-variant:normal;font-weight:normal;font-stretch:normal;font-size:12.5px;line-height:125%;font-family:Lato;-inkscape-font-specification:'Lato, Normal';text-align:start;letter-spacing:0px;word-spacing:0px;writing-mode:lr-tb;text-anchor:start;fill:#000000;fill-opacity:1;stroke:none;stroke-width:1px;stroke-linecap:butt;stroke-linejoin:miter;stroke-opacity:1"
             x="251.93898"
             y="624.80988"
             id="text4193"
             sodipodi:linespacing="125%"><tspan
               sodipodi:role="line"
               id="tspan4195"
               x="251.93898"
               y="624.80988" /></text>
          <g
             transform="matrix(0.16694112,0,0,-0.16694112,134.33226,715.51989)"
             inkscape:label="Logo"
             id="g4870"
             inkscape:path-effect="#path-effect4941">
            <g
               id="g4872">
              <path
                 inkscape:connector-curvature="0"
                 id="path4874"
                 style="fill:#ffffff;fill-opacity:1;fill-rule:nonzero;stroke:none"
                 d="m 515.49401,84.96645 c 0.91011,-3.177176 1.50515,-6.367191 1.79641,-9.551742 1.15708,-12.651916 -2.52232,-25.012339 -10.0104,-35.270073 -7.743,-10.607077 -19.54282,-18.771962 -33.8632,-22.149515 -9.9603,-2.349201 -19.87468,-2.080215 -28.90897,0.337688 -19.72837,5.27405 -34.79974,20.524092 -38.65217,40.727667 -3.82984,20.085127 4.2797,39.913369 18.66693,52.359195 6.69184,5.79131 14.80748,10.08548 23.97222,12.24681 13.14482,3.09996 26.34041,1.30705 37.70059,-4.20854 10.87905,-5.28109 20.18715,-14.14417 25.78568,-25.430665 1.41816,-2.858905 2.60389,-5.887442 3.51291,-9.060825 z"
                 inkscape:original-d="M 515.43,61.142 C 515.43,31.161 490.613,6.857 460,6.857 c -30.613,0 -55.43,24.304 -55.43,54.285 0,29.98 24.817,54.285 55.43,54.285 30.613,0 55.43,-24.305 55.43,-54.285 z" />
              <path
                 inkscape:connector-curvature="0"
                 id="path4876"
                 style="fill:#333333;fill-opacity:1;fill-rule:nonzero;stroke:none"
                 d="m 447.2774,129.88512 c -9.10956,-2.15014 -17.26471,-6.29124 -24.16754,-11.88517 -16.91147,-13.69767 -26.7528,-36.775213 -22.39994,-60.175334 4.38415,-23.568325 22.22048,-41.270097 45.3213,-46.587332 9.24272,-2.1306712 19.22158,-2.2179607 29.21901,0.142033 13.96517,3.296616 25.75707,10.841972 34.15166,20.783522 l 0,0 c 6.36338,7.535812 10.80773,16.398665 12.84918,25.861625 l 0,0 c 0.99647,4.620307 1.43672,9.33434 1.25288,14.124628 l 0,0 c -0.0911,2.372413 -0.32616,4.730641 -0.7234,7.110065 l 0,0 c 0,0 0,5e-6 0,5e-6 -0.19605,1.186255 -0.42845,2.358351 -0.70425,3.54009 l 0,0 0,4e-6 c -0.13625,0.583438 -0.28363,1.171396 -0.441,1.759186 -0.0786,0.29347 -0.15948,0.586346 -0.2428,0.879033 -0.0856,0.300865 -0.17348,0.600287 -0.26408,0.900515 -0.0906,0.300142 -0.1831,0.598335 -0.27799,0.896325 -0.0922,0.289734 -0.18669,0.579063 -0.28291,0.866957 -0.19169,0.573561 -0.39425,1.152739 -0.59938,1.711611 l 0,4e-6 0,0 c -0.41344,1.130657 -0.8606,2.258067 -1.33023,3.353022 0,0 0,5e-6 0,5e-6 l 0,0 c -0.9474,2.197456 -2.01817,4.343791 -3.18484,6.382143 l 0,0 c -2.35855,4.120883 -5.15871,7.951533 -8.28872,11.365013 l 0,0 c -6.42568,7.00845 -14.31197,12.50505 -22.9556,16.01809 l 0,0 c -11.44974,4.65463 -24.22993,5.95189 -36.93135,2.95396 z m 2.63666,-11.17008 c 13.53088,3.19375 27.13085,0.50712 38.19722,-6.46395 10.14022,-6.38696 18.28408,-16.552982 21.79794,-29.136046 3.53838,-12.670906 1.71421,-25.454032 -4.41063,-36.269265 -6.61962,-11.688886 -18.23621,-20.834315 -32.88593,-24.29249 -10.21015,-2.410182 -20.35671,-1.688432 -29.33713,1.51939 -15.82019,5.646833 -27.74435,18.819303 -31.1036,35.94275 -3.34349,17.043101 2.54604,33.824303 13.69289,45.152501 6.39964,6.50579 14.58922,11.31423 24.04924,13.54711 z"
                 inkscape:original-d="m 460.25,121.759 c -33.555,0 -60.879,-27.324 -60.879,-60.879 0,-33.555 27.324,-60.883 60.879,-60.883 33.555,0 60.879,27.328 60.879,60.883 0,33.555 -27.324,60.879 -60.879,60.879 z m 0,-11.477 c 27.352,0 49.398,-22.05 49.398,-49.402 0,-27.351 -22.046,-49.402 -49.398,-49.402 -27.352,0 -49.402,22.051 -49.402,49.402 0,27.352 22.05,49.402 49.402,49.402 z" />
              <path
                 inkscape:connector-curvature="0"
                 id="path4878"
                 style="fill:#333333;fill-opacity:1;fill-rule:nonzero;stroke:none"
                 d="m 481.40678,42.595696 c 9.41302,3.249353 16.71061,10.367596 20.05324,19.441843 0.13096,0.355514 0.25587,0.714009 0.37464,1.075379 0.80144,2.435183 1.41303,5.988319 1.48522,8.559 0.16282,6.150043 -1.69073,12.637722 -4.99286,17.765873 -1.60981,2.503977 -3.66376,4.842343 -5.97514,6.861581 -2.42679,2.120142 -5.14238,3.895028 -7.93802,5.148388 -9.06001,4.06044 -19.34479,3.80519 -28.06831,-0.69084 -0.72757,-0.3733 -1.36205,-0.70039 -1.40647,-0.72614 -0.0456,-0.0272 0.19273,-0.396299 0.53646,-0.816405 1.19482,-1.491093 2.2895,-3.363922 3.05849,-5.264752 0.50407,-1.24093 1.23359,-4.299196 1.35966,-5.707297 0.65922,-7.320778 -2.751,-14.618853 -8.88341,-18.787756 -2.91149,-1.975294 -6.93008,-3.389651 -10.15233,-3.569229 -0.61471,-0.03471 -1.19579,-0.07782 -1.28795,-0.09797 -0.14395,-0.03148 -0.0956,-0.3249 0.28467,-1.769024 2.69189,-10.245694 10.41858,-18.415492 20.85378,-21.716318 4.81145,-1.522499 9.69117,-1.879127 15.1673,-1.10073 1.02463,0.145323 4.32172,0.977504 5.52699,1.393398 0,0 0.004,9.96e-4 0.004,9.96e-4 z"
                 inkscape:original-d="m 472.891,28.9 c 9.875,0.937 18.675,6.359 24.019,14.804 1.356,2.141 2.832,5.426 3.551,7.883 1.715,5.895 1.644,12.641 -0.195,18.453 -1.836,5.817 -5.661,11.426 -10.34,15.172 -7.77,6.219 -17.922,8.473 -27.528,6.113 -0.8,-0.195 -1.496,-0.367 -1.546,-0.382 -0.051,-0.016 0.097,-0.43 0.336,-0.918 0.824,-1.727 1.457,-3.801 1.765,-5.829 0.203,-1.324 0.203,-4.468 0,-5.867 -1.051,-7.269 -6.012,-13.586 -12.793,-16.281 -3.222,-1.277 -7.387,-1.781 -10.515,-1.266 -0.598,0.098 -1.165,0.18 -1.258,0.18 -0.145,0 -0.16,-0.297 -0.098,-1.789 0.434,-10.578 6.106,-20.211 15.168,-25.758 4.191,-2.566 8.668,-4.027 13.957,-4.558 0.973,-0.098 4.27,-0.071 5.473,0.043 l 0.004,0 z" />
              <path
                 inkscape:connector-curvature="0"
                 id="path4880"
                 style="fill:#333333;fill-opacity:1;fill-rule:nonzero;stroke:none"
                 d="M 298.05719,-0.02120954 C 297.30392,1.1715982 287.98566,19.539991 279.18695,39.308261 270.28348,59.311907 263.31949,77.649106 262.9486,79.05002 c -0.77615,2.689366 -0.41193,4.609838 -0.0279,5.999424 1.11543,4.043482 4.57159,7.469261 8.52583,8.512598 2.64315,0.699598 6.03037,0.409033 8.22044,-0.719452 1.30641,-0.671027 3.071,-2.391231 4.00835,-3.908599 2.57573,-4.181719 -1.22803,1.772205 13.11526,-28.749333 5.02184,-10.690735 9.42932,-19.31064 9.48205,-19.237298 0.078,0.08317 3.58671,11.187502 7.45163,24.777036 5.07887,17.840266 6.71845,24.698268 7.35995,26.165267 1.22044,2.818882 3.40141,4.940437 5.98904,5.838943 1.85958,0.643479 5.13702,0.869548 6.91987,0.475295 2.09071,-0.461672 3.7025,-1.261533 5.54695,-2.741095 1.74863,-1.409477 2.67232,-2.603057 3.40515,-4.430775 0.50525,-1.254236 1.1023,-2.788274 0.74836,-5.579378 C 343.60832,84.561781 338.88009,64.536209 333.2659,43.94348 327.51187,22.837821 321.49651,3.6970247 320.71759,1.8083132 316.78975,-9.3367902 302.60747,-8.4045456 298.05744,-0.02520109 Z M -3.8295051,33.859071 c -1.2759836,0.487377 -2.5279787,1.206731 -3.6294504,2.053295 -1.425122,1.095502 -2.6250065,2.411871 -3.2913995,3.706428 -0.246896,0.478704 -0.478615,1.122463 -0.671342,1.826564 0,0 0,1e-6 0,1e-6 -0.284997,1.041525 -0.509177,2.23087 -0.56367,3.201537 0,0 0,0 0,0 -0.0061,0.136806 -0.0095,0.269465 -0.0095,0.397161 0.02356,0.477891 0.05908,0.887573 0.194026,1.54416 0,0 0,10e-7 0,10e-7 0.108523,0.528011 0.280556,1.211954 0.560663,2.216682 0,0 10e-7,0 10e-7,0 0.850082,3.000851 2.7688339,9.281403 6.8930249,23.026201 1.8448784,6.148474 3.3011728,10.988924 4.43580921,14.741543 0,0 1.31e-6,5e-6 1.31e-6,5e-6 1.43046408,4.718029 2.37539988,7.782574 2.99476568,9.711376 0,0 3e-7,10e-7 3e-7,10e-7 0.4880383,1.519828 0.7785442,2.34915 0.9545622,2.754022 0.1860044,0.428505 0.3769016,0.852472 0.5724399,1.270402 0.8469734,1.82047 1.7837333,3.56141 2.805035,5.18716 2.128603,3.38856 4.6427795,6.39234 7.5550305,8.97861 1.943576,1.72628 4.063072,3.28274 6.363225,4.67658 4.867949,2.94725 9.846107,4.86549 15.023658,5.74764 5.244686,0.89406 10.660703,0.73594 16.325533,-0.46078 3.089274,-0.65057 4.510412,-1.18466 6.134814,-2.30853 2.490111,-1.73227 4.270024,-4.64586 4.770913,-7.8352 0.242808,-1.5483 0.0085,-4.03732 -0.563059,-5.88395 -1.547475,-5.02627 -4.539587,-7.74196 -9.20398,-8.30323 -1.69416,-0.203252 -3.024835,-0.168158 -5.705121,0.16347 -3.716958,0.46524 -5.619325,0.41482 -8.530989,-0.24181 -3.87416,-0.871336 -7.35748,-2.844404 -9.742116,-5.537261 -0.631605,-0.716168 -1.540397,-2.041507 -2.361985,-3.450616 -0.130075,-0.288195 -0.264441,-0.630388 -0.413917,-1.059686 0,0 0,0 0,0 C 26.150376,87.347093 24.686731,81.515894 20.187798,64.884468 14.270449,42.108685 13.869029,40.343517 12.555119,38.207207 10.668067,35.114757 8.1780836,33.385313 4.6614,32.75215 2.3991371,32.350579 -1.0325589,32.792518 -3.8295051,33.859071 Z M 200.74823,-5.6286101 c -12.52094,1.7067585 -22.70051,7.6555077 -29.67552,17.0844531 -1.90266,2.571208 -3.44718,5.207478 -4.64958,7.925564 -2.02254,4.560645 -3.08278,9.357376 -3.25473,14.498271 -0.13627,4.110358 0.22336,7.059 3.90654,32.491599 3.95771,27.311697 3.20578,24.333383 5.35146,27.816983 1.12909,1.723535 2.7688,3.058137 4.71324,3.885518 0,0 0,0 0,0 0.95472,0.406054 1.98312,0.690821 3.0618,0.84029 1.73589,0.24192 5.26115,-0.264693 6.92332,-0.988548 3.82723,-1.66257 6.28193,-4.980487 6.90508,-9.366271 0.14603,-1.024849 -0.0997,-3.431915 -2.71745,-27.070154 -0.95724,-8.650305 -1.9134,-17.300731 -2.86849,-25.95128 -0.31158,-5.421407 2.58332,-10.307012 6.27198,-13.082477 5.70065,-4.773199 14.64184,-5.414164 21.39612,-2.243599 5.60934,3.014202 9.0143,7.839413 9.99946,13.200037 0.17511,0.991495 0.83893,10.744768 1.78228,26.182162 1.67171,27.29152 1.51869,25.847701 2.81757,28.290906 1.5498,2.93892 4.2093,4.992919 7.43496,5.775022 1.47749,0.360951 5.21174,0.210732 6.63582,-0.260965 1.73639,-0.576686 3.31501,-1.4946 4.67057,-2.947826 1.9237,-2.039483 2.88278,-4.454745 3.01383,-6.215242 L 252.00395,57.178677 C 251.48502,26.822701 251.58688,28.320301 250.03,22.956021 247.62562,14.626797 242.47758,7.3843866 234.77384,1.8599816 c -9.37096,-6.7178684 -20.88121,-9.2810651 -34.02995,-7.4881882 0,0 0.004,-4.035e-4 0.004,-4.035e-4 z m 177.98354,7.4432795 c -3.10947,-0.2000687 -6.58042,0.7599994 -8.58117,2.361957 -2.042,1.8042503 -2.57077,2.9010477 -3.23321,4.4254075 -0.67209,1.7235281 -0.70907,2.5469141 -3.54394,21.8803881 -3.4012,23.19582 -3.08594,21.060257 -2.30772,24.624586 0.593,1.822624 2.23408,4.058858 3.82621,5.21645 2.27015,1.650397 5.10097,2.562368 8.40311,2.711663 6.51714,0.293362 9.99985,-2.20395 11.68641,-8.517023 0.34304,-1.277678 1.66533,-8.725666 3.77295,-21.238523 3.21309,-19.153767 3.06236,-18.283532 3.0678,-20.660176 -0.43392,-3.5884413 -2.01234,-6.2563839 -4.92869,-8.278678 -1.88818,-1.3067223 -5.18909,-2.3323464 -8.15753,-2.5253882 0,0 -0.004,-6.634e-4 -0.004,-6.634e-4 z"
                 inkscape:original-d="m 294.738,16.72 c -0.855,1.703 -31.226,78.789 -31.64,80.297 -0.809,2.699 -0.418,4.605 0.004,6 1.222,4.047 4.996,7.441 9.339,8.398 2.899,0.641 6.551,0.239 8.868,-0.98 1.386,-0.727 3.187,-2.516 4.113,-4.082 0.797,-1.352 0.691,-1.09 11.867,-29.465 4.332,-11.004 7.93,-19.953 7.988,-19.883 0.071,0.066 4.348,10.883 9.52,24.035 6.629,16.844 9.648,24.317 10.226,25.285 1.582,2.672 4.098,4.539 6.899,5.133 2.019,0.426 5.433,0.258 7.23,-0.355 2.098,-0.715 3.657,-1.715 5.348,-3.418 1.602,-1.621 2.383,-2.93 2.879,-4.836 0.344,-1.313 0.738,-2.906 0,-5.629 -0.34,-1.43 -30.516,-78.113 -31.664,-80.457 -4.582,-10.672 -17.313,-8.645 -20.977,-0.047 l 0,0.004 z M 10.328,9.396 c -2.906,0.285 -6,1.765 -7.605,3.636 C 1.82,14.083 0.715,16.31 0.312,17.884 -0.105,19.868 0,20.775 0,45.739 c 0,20.848 0.047,27.028 0.227,28.469 1.183,9.516 4.906,17.457 11.296,24.106 8.032,8.351 17.789,12.695 29.555,13.144 3.223,0.125 4.777,-0.054 6.66,-0.754 2.899,-1.086 5.364,-3.496 6.621,-6.48 0.61,-1.449 0.969,-3.922 0.844,-5.852 C 54.871,93.122 52.578,89.786 48.168,88.126 46.559,87.521 45.266,87.239 42.57,86.907 38.848,86.454 36.992,85.927 34.34,84.568 30.797,82.755 27.934,79.962 26.324,76.747 25.898,75.892 25.363,74.38 24.934,72.806 24.57,70.591 24.695,65.689 24.617,45.654 24.754,22.126 24.812,20.31 24.129,17.911 23.152,14.435 21.297,12.126 18.262,10.591 16.312,9.611 13.098,9.126 10.328,9.396 Z m 196.035,0.008 c -11.566,0.539 -21.578,5.207 -29.273,13.648 -5.621,6.164 -9.008,13.062 -10.383,21.148 -0.687,4.047 -0.75,7.024 -0.687,32.719 0.07,27.582 -0.262,24.559 1.421,28.293 1.348,2.777 3.989,4.852 7.301,5.731 1.758,0.468 5.446,0.414 7.266,-0.102 4.176,-1.18 7.117,-4.191 8.277,-8.477 0.27,-0.996 0.305,-3.425 0.395,-27.195 l 0.101,-26.101 c 0.297,-5.411 3.606,-9.95 7.367,-12.317 5.864,-4.14 14.317,-3.965 20.454,-0.312 5.078,3.418 8.054,8.441 8.687,13.851 0.109,0.989 0.176,10.789 0.176,26.246 0.004,27.34 -0.067,25.903 1.152,28.414 1.457,3.028 4.172,5.231 7.61,6.164 1.589,0.434 5.593,0.434 7.171,0.004 1.899,-0.519 3.637,-1.394 5.137,-2.816 2.129,-1.996 3.199,-4.398 3.371,-6.156 l 0,-27.067 c 0,-30.398 0.067,-28.836 -1.316,-34.261 -2.121,-8.368 -6.758,-15.739 -13.574,-21.586 -8.313,-7.129 -18.5,-10.395 -30.657,-9.828 l 0.004,0 z m 163.09,-0.008 c -2.902,0.285 -5.984,1.758 -7.617,3.636 -1.648,2.09 -1.988,3.243 -2.398,4.852 -0.391,1.805 -0.313,2.621 -0.313,22.164 0,23.438 0,21.293 1.273,24.699 0.844,1.719 2.774,3.684 4.512,4.59 2.473,1.289 5.395,1.754 8.656,1.375 6.442,-0.75 9.422,-3.82 10.008,-10.32 0.121,-1.324 0.164,-8.875 0.129,-21.571 -0.066,-19.429 -0.066,-18.531 -0.441,-20.882 -0.977,-3.465 -2.864,-5.828 -5.875,-7.348 -1.946,-0.98 -5.16,-1.465 -7.93,-1.195 l -0.004,0 z" />
              <path
                 inkscape:connector-curvature="0"
                 id="path4882"
                 style="fill:#333333;fill-opacity:1;fill-rule:nonzero;stroke:none"
                 d="m 96.943388,9.688439 c -7.839348,1.912881 -14.583435,5.5073 -19.989572,10.581985 -2.815465,2.641933 -5.270531,5.684918 -7.334804,9.103739 -4.402802,7.294714 -6.280542,14.809141 -5.849362,23.000899 0.220669,4.105096 0.825865,7.014552 6.661756,32.041368 6.261408,26.87307 5.257814,23.97999 7.712759,27.25807 1.913012,2.41383 4.897037,3.85749 8.255709,4.00578 1.7719,0.0828 5.295858,-0.74726 6.922569,-1.6269 1.258708,-0.6815 2.34192,-1.53405 3.234707,-2.534 1.762164,-1.97302 2.783479,-4.52401 2.938352,-7.46343 0.05745,-1.03335 -0.414504,-3.40668 -5.233601,-26.690155 -1.762457,-8.52058 -3.524248,-17.041302 -5.285372,-25.562168 -0.818985,-5.362294 1.578703,-10.496635 4.929643,-13.604864 5.129386,-5.285873 13.808438,-6.812302 20.757318,-4.388499 3.30387,1.15121 6.2029,3.285132 8.3532,6.136144 1.43339,1.903218 2.27649,3.57242 2.96955,5.876003 0.28316,0.959519 2.07291,10.578934 4.79745,25.800529 4.82166,26.915139 4.50116,25.505536 6.11514,27.77166 1.93108,2.7311 4.91731,4.44095 8.35381,4.7997 1.58341,0.16722 5.42623,-0.47596 6.85508,-1.1427 1.72983,-0.80909 3.25685,-1.94054 4.46759,-3.572098 1.72714,-2.29426 2.38995,-4.827159 2.28656,-6.589446 L 154.71495,66.143889 C 150.0602,36.122489 150.36896,37.621582 148.11697,32.502065 144.64915,24.567846 138.70874,18.048069 130.61768,13.48367 120.77034,7.9259536 109.47432,6.6311766 96.939231,9.6892617 c 0,0 0.0042,-8.227e-4 0.0042,-8.227e-4 z"
                 inkscape:original-d="M 108.301,9.2 C 96.734,9.739 86.723,14.407 79.027,22.849 73.406,29.017 70.02,35.915 68.645,43.997 c -0.684,4.047 -0.75,7.024 -0.684,32.719 0.066,27.582 -0.266,24.559 1.418,28.293 1.348,2.781 3.988,4.852 7.305,5.73 1.754,0.469 5.441,0.418 7.261,-0.097 4.176,-1.184 7.117,-4.196 8.278,-8.481 0.273,-0.996 0.304,-3.422 0.394,-27.195 l 0.102,-26.102 c 0.297,-5.41 3.605,-9.949 7.367,-12.316 5.863,-4.141 14.316,-3.965 20.453,-0.312 2.922,1.738 5.305,4.359 6.863,7.546 1.039,2.129 1.559,3.918 1.828,6.309 0.106,0.988 0.172,10.785 0.172,26.242 0.004,27.34 -0.066,25.903 1.153,28.414 1.457,3.028 4.175,5.231 7.609,6.164 1.59,0.434 5.594,0.434 7.172,0.004 1.898,-0.519 3.641,-1.394 5.137,-2.816 2.129,-1.996 3.199,-4.399 3.371,-6.156 l 0,-27.067 c 0,-30.398 0.07,-28.836 -1.317,-34.258 C 150.406,32.247 145.773,24.876 138.953,19.029 130.641,11.9 120.457,8.634 108.297,9.2 l 0.004,0 z" />
              <path
                 inkscape:connector-curvature="0"
                 id="path4884"
                 style="fill:#333333;fill-opacity:1;fill-rule:nonzero;stroke:none"
                 d="m 381.76611,90.749043 c 1.46128,-8.392229 -4.09199,-16.384934 -12.5318,-17.727068 -8.44222,-1.342517 -16.17105,4.540752 -17.37736,12.974976 -1.20648,8.435371 4.45663,16.211349 12.53248,17.495919 8.08413,1.28588 15.91456,-4.346781 17.37668,-12.743827 z"
                 inkscape:original-d="m 386.57,96.642 c 0,-8.52 -6.906,-15.426 -15.429,-15.426 -8.52,0 -15.426,6.906 -15.426,15.426 0,8.523 6.906,15.429 15.426,15.429 8.523,0 15.429,-6.906 15.429,-15.429 z" />
            </g>
          </g>
        </g>
      </g>
    </g>
  </g>
</svg>
