<?xml version="1.0" encoding="UTF-8" standalone="no"?>
<!-- Created with Inkscape (http://www.inkscape.org/) -->

<svg
   xmlns:dc="http://purl.org/dc/elements/1.1/"
   xmlns:cc="http://creativecommons.org/ns#"
   xmlns:rdf="http://www.w3.org/1999/02/22-rdf-syntax-ns#"
   xmlns:svg="http://www.w3.org/2000/svg"
   xmlns="http://www.w3.org/2000/svg"
   xmlns:sodipodi="http://sodipodi.sourceforge.net/DTD/sodipodi-0.dtd"
   xmlns:inkscape="http://www.inkscape.org/namespaces/inkscape"
   width="52.029404mm"
   height="52.029404mm"
   viewBox="0 0 184.35615 184.35615"
   id="svg2"
   version="1.1"
   inkscape:version="0.91 r13725"
   sodipodi:docname="nfc-antenna.svg">
  <defs
     id="defs4">
    <inkscape:path-effect
       effect="bend_path"
       id="path-effect4205"
       is_visible="true"
       bendpath="m 123.60696,679.66773 c 3.89737,6.02488 20.55309,31.89773 54.21342,31.89438 33.66033,-0.003 50.31387,-25.8695 54.21044,-31.89532"
       prop_scale="1"
       scale_y_rel="false"
       vertical="false"
       bendpath-nodetypes="czc" />
  </defs>
  <sodipodi:namedview
     id="base"
     pagecolor="#ffffff"
     bordercolor="#666666"
     borderopacity="1.0"
     inkscape:pageopacity="0.0"
     inkscape:pageshadow="2"
     inkscape:zoom="5.6568543"
     inkscape:cx="6.8943307"
     inkscape:cy="-43.857316"
     inkscape:document-units="mm"
     inkscape:current-layer="g4275"
     showgrid="true"
     inkscape:window-width="1436"
     inkscape:window-height="855"
     inkscape:window-x="4"
     inkscape:window-y="0"
     inkscape:window-maximized="1"
     fit-margin-top="0"
     fit-margin-left="0"
     fit-margin-right="0"
     fit-margin-bottom="0">
    <inkscape:grid
       type="xygrid"
       id="grid4307"
       units="mm"
       spacingx="0.3543307"
       spacingy="0.3543307"
       color="#3f3fff"
       opacity="0.07058824"
       empcolor="#3f3fff"
       empopacity="0.11372549"
       originx="0"
       originy="0" />
  </sodipodi:namedview>
  <metadata
     id="metadata7">
    <rdf:RDF>
      <cc:Work
         rdf:about="">
        <dc:format>image/svg+xml</dc:format>
        <dc:type
           rdf:resource="http://purl.org/dc/dcmitype/StillImage" />
        <dc:title></dc:title>
        <cc:license
           rdf:resource="http://creativecommons.org/licenses/by-sa/3.0/" />
      </cc:Work>
      <cc:License
         rdf:about="http://creativecommons.org/licenses/by-sa/3.0/">
        <cc:permits
           rdf:resource="http://creativecommons.org/ns#Reproduction" />
        <cc:permits
           rdf:resource="http://creativecommons.org/ns#Distribution" />
        <cc:requires
           rdf:resource="http://creativecommons.org/ns#Notice" />
        <cc:requires
           rdf:resource="http://creativecommons.org/ns#Attribution" />
        <cc:permits
           rdf:resource="http://creativecommons.org/ns#DerivativeWorks" />
        <cc:requires
           rdf:resource="http://creativecommons.org/ns#ShareAlike" />
      </cc:License>
    </rdf:RDF>
  </metadata>
  <g
     inkscape:label="Layer 1"
     inkscape:groupmode="layer"
     id="layer1"
     transform="translate(-177.81929,-465.19472)">
    <g
       id="g4153">
      <g
         id="g4243">
        <g
           id="g4234" />
        <g
           id="g4275"
           style="opacity:0.5">
          <g
             id="g4212"
             transform="translate(-94.712334,92.380689)">
            <g
               id="g4258" />
          </g>
          <g
             id="g4337"
             transform="translate(-0.0114647,0.06772255)">
            <path
               style="fill:none;fill-rule:evenodd;stroke:#b2b2b2;stroke-width:0.35433072;stroke-linecap:butt;stroke-linejoin:miter;stroke-miterlimit:4;stroke-dasharray:2.12598431, 2.12598431;stroke-dashoffset:0;stroke-opacity:1"
               d="M 243.01017,584.37105 112.65069,714.73054 Z"
               id="path4180-9-5"
               inkscape:connector-curvature="0" />
            <g
               id="g4326">
              <g
                 transform="translate(-94.71233,92.38069)"
                 style="opacity:0.5"
                 id="g4309">
                <g
                   id="g4176"
                   transform="translate(-1.9689027,-6.3947143)">
                  <g
                     style="opacity:1"
                     id="g4254">
                    <circle
                       r="79.547234"
                       cy="563.56482"
                       cx="274.51166"
                       id="path4136"
                       style="color:#000000;clip-rule:nonzero;display:inline;overflow:visible;visibility:visible;opacity:1;isolation:auto;mix-blend-mode:normal;color-interpolation:sRGB;color-interpolation-filters:linearRGB;solid-color:#000000;solid-opacity:1;fill:none;fill-opacity:1;fill-rule:nonzero;stroke:#b2b2b2;stroke-width:0.35434726;stroke-linecap:butt;stroke-linejoin:miter;stroke-miterlimit:4;stroke-dasharray:none;stroke-dashoffset:99.19411469;stroke-opacity:1;color-rendering:auto;image-rendering:auto;shape-rendering:auto;text-rendering:auto;enable-background:accumulate" />
                    <circle
                       cy="563.56482"
                       cx="274.51166"
                       id="path4136-5"
                       style="color:#000000;clip-rule:nonzero;display:inline;overflow:visible;visibility:visible;opacity:1;isolation:auto;mix-blend-mode:normal;color-interpolation:sRGB;color-interpolation-filters:linearRGB;solid-color:#000000;solid-opacity:1;fill:none;fill-opacity:1;fill-rule:nonzero;stroke:#b2b2b2;stroke-width:0.35434213;stroke-linecap:butt;stroke-linejoin:miter;stroke-miterlimit:4;stroke-dasharray:none;stroke-dashoffset:99.19411469;stroke-opacity:1;color-rendering:auto;image-rendering:auto;shape-rendering:auto;text-rendering:auto;enable-background:accumulate"
                       r="44.114166" />
                    <path
                       inkscape:connector-curvature="0"
                       id="path4291"
                       d="m 312.42306,593.67861 c 7.49459,3.59936 14.17997,8.94996 19.14214,15.63745 1.31875,6.0115 -3.70818,10.78415 -7.91424,14.23181 -15.07593,13.3241 -36.02014,17.20907 -55.58178,16.85796 -16.3744,-0.44948 -33.44466,-5.92173 -44.67114,-18.34513 -4.04239,-2.76803 -9.16558,-9.66487 -3.32855,-13.33321 4.76461,-3.40685 7.99105,-8.35946 12.11267,-12.35848 5.13313,-4.54872 9.88045,1.14121 12.94428,4.94429 6.47184,6.15585 15.71071,8.19302 24.33787,9.03212 12.75943,0.8413 26.11885,-2.59978 36.18664,-10.6314 0.98683,-1.53433 6.1616,-5.89482 3.27458,-1.76627 -6.55237,8.56228 -17.20651,12.91343 -27.54055,14.83008 -10.67664,1.80718 -22.13371,0.87171 -31.87903,-4.05679 -4.89175,-2.88365 -8.50551,-7.55024 -13.29657,-10.48367 -6.08569,-1.34638 -9.23225,5.30183 -12.26853,9.30369 -1.40062,2.27938 -8.22403,4.34949 -3.38839,6.3504 3.89887,3.90141 7.05964,8.56913 11.79143,11.59834 16.00542,11.6005 36.95962,13.4185 56.00869,10.65734 14.98926,-2.22654 30.23251,-8.06387 40.50472,-19.59743 2.71469,-5.99469 -4.66221,-10.12898 -8.29496,-13.65922 -3.12919,-2.3281 -9.94171,-4.35816 -8.1393,-9.2119 l 0,0 z"
                       style="color:#000000;clip-rule:nonzero;display:inline;overflow:visible;visibility:visible;opacity:0.34500002;isolation:auto;mix-blend-mode:normal;color-interpolation:sRGB;color-interpolation-filters:linearRGB;solid-color:#000000;solid-opacity:1;fill:#00ff00;fill-opacity:1;fill-rule:nonzero;stroke:none;stroke-width:0.35433072;stroke-linecap:butt;stroke-linejoin:miter;stroke-miterlimit:4;stroke-dasharray:8.50393724, 0.35433072;stroke-dashoffset:0;stroke-opacity:1;color-rendering:auto;image-rendering:auto;shape-rendering:auto;text-rendering:auto;enable-background:accumulate" />
                  </g>
                </g>
                <path
                   style="fill:none;fill-rule:evenodd;stroke:#b2b2b2;stroke-width:0.35433072;stroke-linecap:butt;stroke-linejoin:miter;stroke-miterlimit:4;stroke-dasharray:2.12598431, 2.12598431;stroke-dashoffset:0;stroke-opacity:1"
                   d="m 180.36468,557.1701 184.35615,0 z"
                   id="path4180"
                   inkscape:connector-curvature="0" />
                <path
                   style="fill:none;fill-rule:evenodd;stroke:#b2b2b2;stroke-width:0.35433072;stroke-linecap:butt;stroke-linejoin:miter;stroke-miterlimit:4;stroke-dasharray:2.12598431, 2.12598431;stroke-dashoffset:0;stroke-opacity:1"
                   d="m 272.54275,464.99203 0,184.35615 z"
                   id="path4180-9"
                   inkscape:connector-curvature="0" />
              </g>
              <path
                 style="fill:none;fill-rule:evenodd;stroke:#b2b2b2;stroke-width:0.35433072;stroke-linecap:butt;stroke-linejoin:miter;stroke-miterlimit:4;stroke-dasharray:2.12598431, 2.12598431;stroke-dashoffset:0;stroke-opacity:1"
                 d="M 112.65068,584.37106 243.01017,714.73053 Z"
                 id="path4180-9-5-1"
                 inkscape:connector-curvature="0" />
            </g>
          </g>
          <path
             style="fill:none;fill-rule:evenodd;stroke:#000000;stroke-width:0.70866144;stroke-linecap:butt;stroke-linejoin:miter;stroke-miterlimit:4;stroke-dasharray:none;stroke-opacity:1;opacity:0.063"
             d="m 177.81929,649.90521 134.29134,0 0,29.40945 -133.93701,0 0,-27.99213 132.51969,0 0,26.5748 -131.10237,0 0,-25.15748 129.68504,0 0,23.74016 -128.26771,0 0,-22.32284 126.85039,0 0,20.90552 -125.43307,0 0,-19.49096 124.01575,0 0,18.07363 -122.59843,0 0,-16.65354 121.18111,0 0,15.23622 -119.76379,0 0,-13.8189 118.34646,0 0,12.40158 -116.92913,0 0,-10.98425 115.51181,0 0,9.56693 -114.09449,0 0,-8.14961"
             id="path4350"
             inkscape:connector-curvature="0"
             sodipodi:nodetypes="ccccccccccccccccccccccccccccccccc" />
          <path
             style="color:#000000;font-style:normal;font-variant:normal;font-weight:normal;font-stretch:normal;font-size:medium;line-height:normal;font-family:sans-serif;text-indent:0;text-align:start;text-decoration:none;text-decoration-line:none;text-decoration-style:solid;text-decoration-color:#000000;letter-spacing:normal;word-spacing:normal;text-transform:none;direction:ltr;block-progression:tb;writing-mode:lr-tb;baseline-shift:baseline;text-anchor:start;white-space:normal;clip-rule:nonzero;display:inline;overflow:visible;visibility:visible;opacity:1;isolation:auto;mix-blend-mode:normal;color-interpolation:sRGB;color-interpolation-filters:linearRGB;solid-color:#000000;solid-opacity:1;fill:#000000;fill-opacity:1;fill-rule:evenodd;stroke:none;stroke-width:0.70866144;stroke-linecap:butt;stroke-linejoin:miter;stroke-miterlimit:4;stroke-dasharray:none;stroke-dashoffset:0;stroke-opacity:1;color-rendering:auto;image-rendering:auto;shape-rendering:auto;text-rendering:auto;enable-background:accumulate"
             d="m 136.25156,671.4882 -0.59529,0.38508 c 1.4933,2.29741 2.97303,4.42717 4.50936,6.31952 2.56935,3.17883 5.39468,6.07603 8.45388,8.55933 3.80837,3.08668 7.99162,5.61992 12.36549,7.33431 l 10e-6,10e-6 c 5.20812,2.09231 11.00466,3.11029 16.83402,3.12508 5.83006,-0.0159 11.62702,-1.03466 16.83564,-3.12749 l 1e-5,0 c 4.374,-1.71476 8.55727,-4.24796 12.36549,-7.33451 3.05891,-2.48303 5.88392,-5.37973 8.45274,-8.55797 1.42131,-1.75077 2.79379,-3.70394 4.17255,-5.80456 l 24.01516,15.72095 c -1.74816,2.67602 -3.67426,5.38928 -5.83341,8.0848 -3.7237,4.63597 -7.95558,8.94793 -12.67336,12.80374 -5.92305,4.84549 -12.62516,8.85674 -19.92201,11.76864 -8.82368,3.46999 -18.14545,5.16212 -27.41011,5.14757 -9.26532,0.0163 -18.58799,-1.67486 -27.41244,-5.14459 l -1e-5,0 c -7.29776,-2.91185 -14.00041,-6.9234 -19.92368,-11.76922 -4.71822,-3.85628 -8.95032,-8.16864 -12.67419,-12.8048 -2.15943,-2.69593 -4.08527,-5.40888 -5.83308,-8.0836 l 22.82666,-14.94741 c 1.3982,2.1302 2.79843,4.12163 4.25625,5.91906 2.62638,3.25083 5.52122,6.21795 8.66238,8.76907 3.91285,3.17359 8.22057,5.77987 12.7389,7.55342 l 0,0 c 5.38679,2.16037 11.35753,3.21161 17.35664,3.22486 5.99975,-0.0144 11.97084,-1.06642 17.35807,-3.22729 l 1e-5,0 c 4.5184,-1.77391 8.82611,-4.38013 12.73882,-7.55357 3.14086,-2.55086 6.03537,-5.51748 8.66125,-8.76773 1.22222,-1.50702 2.40373,-3.14992 3.57699,-4.89628 l 21.46788,14.43196 c -1.49735,2.22623 -3.11965,4.46597 -4.89938,6.68683 -3.66664,4.56395 -7.82901,8.80599 -12.46484,12.59398 -5.81856,4.75859 -12.39623,8.69681 -19.54868,11.54957 l 0,10e-6 c -8.64508,3.40194 -17.79271,5.0608 -26.88768,5.04776 -9.09557,0.0148 -18.24404,-1.64314 -26.88982,-5.04481 -7.15332,-2.8527 -13.7315,-6.79121 -19.55028,-11.55012 -4.63626,-3.78845 -8.79886,-8.03089 -12.46568,-12.59506 -1.77951,-2.22063 -3.40133,-4.45968 -4.89816,-6.68462 l 20.29114,-13.64406 c 1.19145,1.7729 2.39706,3.44848 3.64955,4.99421 2.68335,3.32272 5.64759,6.35966 8.8706,8.97852 4.0172,3.26038 8.44922,5.9396 13.1118,7.77223 l 0,0 c 5.56521,2.22832 11.70991,3.31277 17.87854,3.32449 6.1692,-0.0129 12.3142,-1.09814 17.87978,-3.32695 l 1e-5,-10e-6 c 4.66261,-1.83296 9.09459,-4.5121 13.11163,-7.77233 3.22271,-2.61858 6.18663,-5.65503 8.86949,-8.9772 1.01099,-1.24774 1.9913,-2.57981 2.95801,-3.97916 l 18.93702,13.1097 c -1.23196,1.77662 -2.54522,3.5538 -3.95683,5.31451 -3.60959,4.49193 -7.70246,8.66405 -12.25632,12.38421 -5.71409,4.6717 -12.16731,8.5369 -19.17536,11.33052 -8.46648,3.33391 -17.43997,4.9595 -26.36525,4.94796 -8.92582,0.0132 -17.90008,-1.61141 -26.3672,-4.94504 l -1e-5,0 c -7.00886,-2.79354 -13.46257,-6.65901 -19.17686,-11.33101 -4.5543,-3.72062 -8.6474,-7.89315 -12.25718,-12.38531 -1.41138,-1.76045 -2.72426,-3.53709 -3.95581,-5.31285 l 17.77024,-12.30384 c 0.98319,1.4226 1.98389,2.78193 3.0193,4.0609 2.74039,3.39473 5.77413,6.50158 9.0791,9.18828 4.12168,3.34729 8.67818,6.09954 13.48521,7.99133 l 0,0 c 5.74387,2.29637 12.06278,3.41408 18.40117,3.42426 6.33888,-0.0114 12.65802,-1.12991 18.4022,-3.42675 l 1e-5,-1e-5 c 4.80701,-1.89211 9.36343,-4.64427 13.48496,-7.9914 3.30466,-2.6864 6.33809,-5.79277 9.078,-9.18696 0.78801,-0.97341 1.55585,-1.99322 2.31103,-3.05192 l 16.42977,11.74409 c -0.95377,1.33209 -1.95456,2.65973 -3.00989,3.97542 -3.55261,4.42001 -7.57606,8.52231 -12.04809,12.17474 -5.60975,4.58492 -11.9387,8.3772 -18.80254,11.11175 l -1e-5,0 c -8.28812,3.26597 -17.08771,4.85834 -25.84354,4.8483 -8.7563,0.0117 -17.55659,-1.57974 -25.84529,-4.84541 l -1e-5,0 c -6.8646,-2.73445 -13.19401,-6.52699 -18.80396,-11.1122 -4.47245,-3.65288 -8.49614,-7.75559 -12.04897,-12.17586 -1.05554,-1.31596 -2.05642,-2.64375 -3.01024,-3.97583 l 15.27923,-10.9222 c 0.76936,1.07818 1.55367,2.11979 2.36051,3.11727 2.79726,3.46652 5.90031,6.6431 9.28702,9.39744 4.22588,3.43396 8.9065,6.25904 13.85759,8.20983 5.92204,2.36423 12.41468,3.51511 18.92235,3.52376 6.5081,-0.01 13.0009,-1.16158 18.92319,-3.52628 l 1e-5,0 c 4.95101,-1.9511 9.63153,-4.77608 13.85725,-8.20987 3.3864,-2.75404 6.48914,-5.93013 9.28595,-9.39614 0.55355,-0.68436 1.09646,-1.38943 1.63117,-2.11278 l 13.95653,10.32742 c -0.66459,0.89739 -1.3513,1.79044 -2.06255,2.67672 -3.49555,4.348 -7.4495,8.38037 -11.83957,11.96499 -5.50526,4.49801 -11.70977,8.21727 -18.42922,10.89268 -8.10952,3.19793 -16.73497,4.75703 -25.32112,4.7485 -8.58655,0.0101 -17.21263,-1.54801 -25.32268,-4.74563 l 0,-1e-5 c -6.72015,-2.67529 -12.9251,-6.3948 -18.43056,-10.8931 -4.39048,-3.58504 -8.34468,-7.61784 -11.84047,-11.96611 -0.71099,-0.88597 -1.39742,-1.77866 -2.06173,-2.67562 l 12.81506,-9.4833 c 0.54518,0.73734 1.09965,1.4575 1.66586,2.15807 2.85438,3.53862 6.02702,6.78521 9.49581,9.60747 4.33051,3.52099 9.13577,6.41921 14.23151,8.42924 6.10095,2.43238 12.76804,3.61655 19.44569,3.62367 6.67802,-0.008 13.34521,-1.19339 19.44634,-3.62622 l 1e-5,0 c 5.09561,-2.01032 9.90075,-4.90843 14.23109,-8.42923 3.46846,-2.82196 6.64081,-6.06807 9.49476,-9.6062 0.307,-0.37986 0.61054,-0.76547 0.91102,-1.15644 l 11.51908,8.84707 c -0.36514,0.47567 -0.73677,0.94941 -1.11528,1.42083 -3.4385,4.27598 -7.32294,8.23843 -11.63106,11.75523 -5.40078,4.41111 -11.48085,8.05735 -18.05589,10.67361 l -1e-5,0 c -7.93092,3.12989 -16.38222,4.65573 -24.79868,4.6487 -8.4168,0.009 -16.86868,-1.51629 -24.80006,-4.64586 -6.5757,-2.61614 -12.65617,-6.26261 -18.05715,-10.674 -4.30852,-3.51722 -8.19322,-7.4801 -11.63197,-11.75636 -0.37824,-0.4711 -0.74962,-0.94451 -1.1145,-1.41983 l 10.39458,-7.98373 c 0.30658,0.39896 0.61655,0.79289 0.93031,1.18139 2.91142,3.61063 6.15356,6.92713 9.70432,9.81722 4.43499,3.6079 9.36472,6.57916 14.60491,8.64834 l 1e-5,10e-6 c 6.27961,2.50043 13.1209,3.71786 19.96831,3.72344 6.8477,-0.007 13.68903,-1.22515 19.96876,-3.72602 l 1e-5,0 c 5.24002,-2.06947 10.16959,-5.04059 14.60442,-8.6483 3.55042,-2.88978 6.79227,-6.20581 9.70327,-9.81595 0.0486,-0.0602 0.0972,-0.12061 0.14567,-0.18111 l 9.13409,7.29994 c -0.0572,0.0718 -0.11466,0.14351 -0.17223,0.21516 -3.38152,4.20406 -7.19655,8.09669 -11.42282,11.54576 -5.29645,4.32433 -11.25224,7.89764 -17.68308,10.45484 -7.75257,3.06195 -16.02997,4.55457 -24.27699,4.54904 -8.24728,0.007 -16.52518,-1.48461 -24.27815,-4.54623 l 0,0 c -6.43144,-2.55705 -12.38762,-6.13059 -17.68426,-10.45519 -4.22667,-3.44948 -8.04195,-7.34254 -11.42374,-11.54691 -0.0577,-0.0719 -0.11531,-0.1438 -0.17273,-0.21579 l 8.0265,-6.41467 c 0.0497,0.062 0.0995,0.12397 0.14932,0.18577 2.96846,3.68262 6.28011,7.06904 9.91283,10.02697 4.53948,3.69481 9.59368,6.73909 14.97833,8.86744 6.45827,2.56848 13.47377,3.81918 20.49093,3.82322 l 1e-5,0 c 7.01738,-0.005 14.03285,-1.25692 20.49119,-3.82582 5.38442,-2.12861 10.43844,-5.17276 14.97775,-8.86737 3.35974,-2.73561 6.44484,-5.83768 9.23768,-9.20167 l 6.81715,5.6564 c -3.13329,3.77826 -6.62537,7.2834 -10.45863,10.41086 -5.19196,4.23744 -11.02332,7.73773 -17.30975,10.23579 -7.57397,2.9939 -15.67723,4.45325 -23.75456,4.44923 l 0,0 c -8.07753,0.006 -16.18123,-1.45289 -23.75553,-4.44645 l 0,-10e-6 c -6.28699,-2.49789 -12.11869,-5.99839 -17.31085,-10.23608 -3.83333,-3.1276 -7.32542,-6.63285 -10.45879,-10.4111 l 5.99933,-4.97796 c -0.14103,-0.16989 -0.28132,-0.34043 -0.42086,-0.51161 l -6.5933,5.37129 c 3.27981,4.02942 6.96178,7.76276 11.02567,11.07893 5.2444,4.28114 11.13834,7.81816 17.49755,10.34564 l 1e-5,0 c 7.66363,3.02759 15.85443,4.50265 24.01683,4.49634 8.16218,0.005 16.35251,-1.47121 24.01578,-4.49914 6.35864,-2.52763 12.25221,-6.06443 17.49642,-10.34531 4.06328,-3.3156 7.74482,-7.04828 11.02424,-11.07715 l -7.96674,-6.49026 c -2.8729,3.52305 -6.06289,6.76426 -9.54959,9.60271 -4.48707,3.65116 -9.47887,6.6588 -14.79109,8.75784 -6.36904,2.53488 -13.29744,3.7698 -20.22998,3.77592 l 0,0 c -6.93229,-0.005 -13.86069,-1.23888 -20.22963,-3.77333 l -1e-5,0 c -5.31242,-2.09877 -10.30438,-5.10654 -14.79162,-8.7579 -3.59173,-2.92401 -6.86863,-6.27547 -9.80857,-9.92209 -0.18347,-0.22727 -0.36562,-0.45629 -0.54652,-0.687 l -9.20454,7.20901 c 0.21233,0.27145 0.42682,0.54216 0.64356,0.81203 3.41031,4.24037 7.26035,8.16839 11.528,11.65178 5.34888,4.36805 11.36729,7.97811 17.87096,10.56475 l 1e-5,0 c 7.84229,3.09564 16.2073,4.60396 24.53946,4.59611 8.33185,0.006 16.69633,-1.50297 24.53819,-4.59893 l 10e-6,-1e-5 c 6.50304,-2.58677 12.52106,-6.19659 17.86975,-10.56438 4.26724,-3.48298 8.11703,-7.41056 11.52708,-11.65063 0.21657,-0.26966 0.4309,-0.54015 0.64306,-0.81139 l -10.32065,-8.08328 c -0.17695,0.22559 -0.35505,0.44939 -0.53435,0.67133 -2.88247,3.57414 -6.08957,6.85521 -9.59901,9.71107 -4.38259,3.56426 -9.24994,6.49888 -14.41776,8.53877 -6.19044,2.46685 -12.9447,3.66849 -19.70756,3.67612 -6.76253,-0.006 -13.51672,-1.20715 -19.707,-3.67356 l -1e-5,0 c -5.16796,-2.03961 -10.03546,-4.97434 -14.41821,-8.53879 -3.50977,-2.85618 -6.71717,-6.13772 -9.60007,-9.71235 -0.44145,-0.54642 -0.87559,-1.10415 -1.30354,-1.67208 l -11.59901,8.74177 c 0.51574,0.68419 1.04463,1.36517 1.58778,2.04182 3.46727,4.31226 7.38671,8.3101 11.73621,11.86123 5.45322,4.45485 11.59593,8.13784 18.24386,10.78355 l 0,0 c 8.02071,3.1636 16.55969,4.70513 25.06136,4.69575 8.50131,0.008 17.03968,-1.53469 25.0599,-4.6986 l 1e-5,0 c 6.64724,-2.64584 12.78953,-6.32858 18.24255,-10.78315 4.34909,-3.5507 8.26829,-7.54811 11.73532,-11.8601 0.5434,-0.67696 1.07255,-1.35829 1.58857,-2.04287 l -12.73138,-9.59476 c -0.41956,0.55684 -0.84465,1.10282 -1.27641,1.63684 -2.82542,3.50212 -5.96301,6.71327 -9.3905,9.50131 -4.2781,3.47736 -9.02102,6.33895 -14.04443,8.3197 -6.01184,2.39881 -12.59195,3.56719 -19.18513,3.57632 -6.59278,-0.008 -13.17276,-1.17543 -19.18438,-3.57379 l -1e-5,0 c -5.02351,-1.98045 -9.76654,-4.84215 -14.0448,-8.31968 -3.42781,-2.78835 -6.5657,-5.99998 -9.39157,-9.5026 -0.68801,-0.85093 -1.35915,-1.73234 -2.01796,-2.63971 l -14.04163,10.20937 c 0.8104,1.1131 1.65423,2.22145 2.53602,3.32053 3.5243,4.38427 7.51325,8.45202 11.94471,12.07098 5.55771,4.54176 11.82489,8.29778 18.61727,11.00266 l 0,0 c 8.19937,3.23165 16.91256,4.80644 25.58399,4.79552 8.67098,0.009 17.3835,-1.56645 25.58232,-4.7984 l 1e-5,0 c 6.79164,-2.70498 13.05838,-6.46075 18.61588,-11.00221 4.43105,-3.61853 8.41975,-7.68586 11.94383,-12.06987 0.88159,-1.09882 1.72529,-2.20698 2.5356,-3.32001 l -15.19005,-11.04409 c -0.64618,0.89025 -1.30305,1.75288 -1.9751,2.5834 -2.76828,3.43 -5.83627,6.57114 -9.18169,9.29127 -4.17347,3.39033 -8.79178,6.17881 -13.67059,8.10033 -5.83299,2.33068 -12.23873,3.46574 -18.66199,3.47638 -6.42279,-0.009 -12.82833,-1.14367 -18.66103,-3.47388 l -1e-5,0 c -4.87886,-1.9212 -9.49724,-4.70977 -13.67088,-8.10028 -3.34573,-2.72042 -6.41403,-5.86204 -9.18278,-9.29256 -0.92274,-1.14029 -1.81693,-2.34128 -2.69433,-3.59131 l -16.52363,11.62062 c 1.09439,1.55334 2.25183,3.10417 3.48407,4.6408 3.58134,4.45626 7.63979,8.59393 12.15322,12.28073 5.66219,4.62866 12.05384,8.45772 18.99067,11.22176 l 0,0 c 8.37804,3.29969 17.26543,4.90774 26.10661,4.89529 8.84067,0.0108 17.72733,-1.59822 26.10475,-4.8982 l 1e-5,0 c 6.93605,-2.76413 13.32722,-6.59292 18.98921,-11.22128 4.513,-3.68635 8.57121,-7.8236 12.15235,-12.27963 1.23201,-1.53633 2.38939,-3.08704 3.48377,-4.64052 l -17.68071,-12.43341 c -0.86183,1.22833 -1.73741,2.40453 -2.63838,3.517 -2.71139,3.35818 -5.71006,6.42958 -8.97375,9.08208 -4.06928,3.30367 -8.56348,6.01932 -13.29829,7.88186 l -1e-5,1e-5 c -5.65488,2.26282 -11.88695,3.36471 -18.14099,3.37685 -6.25351,-0.0109 -12.48531,-1.11203 -18.13985,-3.37438 -4.73481,-1.86221 -9.22907,-4.57794 -13.29851,-7.88177 -3.26399,-2.65279 -6.26298,-5.72468 -8.97484,-9.0834 -1.14543,-1.41424 -2.24997,-2.93184 -3.33774,-4.52881 l -19.02813,12.97897 c 1.3659,2 2.83376,4.00632 4.42773,5.99497 3.6383,4.52816 7.76616,8.73565 12.36144,12.49018 5.76653,4.71545 12.28247,8.61745 19.36356,11.44056 l 0,0 c 8.55646,3.36766 17.61782,5.00892 26.62851,4.99493 9.01013,0.0123 18.07069,-1.62994 26.62647,-4.99786 7.08025,-2.82319 13.59569,-6.7249 19.36202,-11.44005 4.59484,-3.75407 8.72246,-7.96115 12.36058,-12.48909 1.59419,-1.9889 3.06249,-3.99583 4.42883,-5.99689 L 220.3986,675.0856 c -1.07032,1.57196 -2.15254,3.05951 -3.2706,4.43875 -2.65433,3.28616 -5.5835,6.28765 -8.76523,8.87232 -3.9648,3.21678 -8.33456,5.85941 -12.92497,7.66281 -5.47628,2.19479 -11.53421,3.26341 -17.61857,3.27705 -6.08376,-0.0125 -12.14136,-1.08031 -17.61724,-3.27461 l 0,0 c -4.59035,-1.80305 -8.96014,-4.44574 -12.92509,-7.66267 -3.18203,-2.58495 -6.11152,-5.58693 -8.76635,-8.87365 -1.3566,-1.67344 -2.66071,-3.50688 -3.95545,-5.45745 l -21.55821,14.3002 c 1.6242,2.45002 3.39874,4.92467 5.36673,7.38106 3.69534,4.60017 7.89269,8.87757 12.56994,12.69993 5.87102,4.80237 12.51143,8.77739 19.73697,11.65967 l 0,0 c 8.73512,3.4357 17.97069,5.11022 27.15114,5.0947 9.1798,0.0138 18.41451,-1.6617 27.14888,-5.09766 l 1e-5,-10e-6 c 7.22465,-2.88233 13.86454,-6.85706 19.73534,-11.65911 4.6768,-3.82189 8.87393,-8.09889 12.5691,-12.69885 1.96773,-2.45601 3.74243,-4.93086 5.3669,-7.38186 l -22.74004,-15.08046 c -1.27568,1.92217 -2.55367,3.71989 -3.87675,5.35047 -2.59735,3.21425 -5.45711,6.14591 -8.55699,8.66285 -3.86047,3.13 -8.10596,5.6997 -12.55216,7.44404 l -1e-5,0 c -5.29792,2.12685 -11.18195,3.16225 -17.09686,3.17739 -5.91423,-0.014 -11.79787,-1.04863 -17.09533,-3.17497 l 0,0 c -4.4461,-1.74397 -8.69159,-4.31373 -12.5522,-7.44387 -3.10018,-2.51721 -5.96026,-5.44937 -8.55813,-8.6642 -1.55603,-1.91758 -3.05013,-4.06721 -4.55245,-6.37911 l -24.09862,15.5889 c 1.86747,2.8985 3.94304,5.85226 6.29686,8.7915 3.75238,4.67216 8.01923,9.01948 12.77844,12.90968 5.9755,4.88927 12.74039,8.93733 20.11038,11.87877 l 1e-5,0 c 8.91377,3.50375 18.32355,5.21153 27.67375,5.19447 9.34949,0.0153 18.75834,-1.69346 27.67132,-5.19747 7.36905,-2.94147 14.13338,-6.98923 20.10867,-11.87817 4.75876,-3.88972 9.02539,-8.23664 12.77762,-12.90862 2.35352,-2.93881 4.42945,-5.89301 6.29736,-8.79318 l -25.2919,-16.3549 c -1.48272,2.28139 -2.94758,4.39037 -4.46416,6.25755 -2.5403,3.14223 -5.33055,6.00397 -8.34848,8.45309 -3.75598,3.0431 -7.87703,5.53978 -12.17883,7.22497 -5.11933,2.05881 -10.82922,3.06094 -16.57444,3.07759 -5.74448,-0.0156 -11.45391,-1.01691 -16.57271,-3.0752 l 0,0 c -4.30164,-1.68481 -8.42266,-4.18154 -12.17879,-7.22476 -3.01821,-2.44938 -5.8088,-5.31163 -8.34963,-8.45445 -1.51662,-1.86712 -2.98199,-3.97701 -4.46627,-6.25993 z"
             id="path4161"
             inkscape:connector-curvature="0"
             inkscape:path-effect="#path-effect4205"
             inkscape:original-d="m 110.50465,695.86575 0,0.70899 133.9375,0 0,28.70117 -133.22852,0 0,-27.28321 131.8125,0 0,25.86524 -130.39453,0 0,-24.44922 128.97657,0 0,23.03125 -127.5586,0 0,-21.61328 126.14063,0 0,20.19726 -124.72461,0 0,-18.7832 123.30859,0 0,17.36524 -121.89062,0 0,-15.94532 120.47265,0 0,14.52735 -119.05469,0 0,-13.10938 117.63672,0 0,11.69336 -116.2207,0 0,-10.27539 114.80469,0 0,8.85742 -113.38672,0 0,-7.79492 -0.70899,0 0,8.50391 114.80274,0 0,-10.27539 -116.2207,0 0,11.69336 117.63867,0 0,-13.11133 -119.05469,0 0,14.52734 120.47266,0 0,-15.94531 -121.89063,0 0,17.36328 123.30664,0 0,-18.7832 -124.72461,0 0,20.20117 126.14258,0 0,-21.61524 -127.55859,0 0,23.03125 128.97656,0 0,-24.44921 -130.39453,0 0,25.86718 131.81055,0 0,-27.2832 -133.22852,0 0,28.70117 134.64648,0 0,-30.11914 -134.64648,0 z" />
          <text
             xml:space="preserve"
             style="font-style:normal;font-variant:normal;font-weight:normal;font-stretch:normal;font-size:6.3445549px;line-height:125%;font-family:Lato;-inkscape-font-specification:'Lato, Normal';text-align:start;letter-spacing:0px;word-spacing:0px;writing-mode:lr-tb;text-anchor:start;fill:#000000;fill-opacity:1;stroke:none;stroke-width:1px;stroke-linecap:butt;stroke-linejoin:miter;stroke-opacity:1"
             x="223.16696"
             y="666.68518"
             id="text4171"
             sodipodi:linespacing="125%"><tspan
               sodipodi:role="line"
               id="tspan4173"
               x="223.16696"
               y="666.68518">Original Stroke</tspan></text>
          <text
             xml:space="preserve"
             style="font-style:normal;font-variant:normal;font-weight:normal;font-stretch:normal;font-size:6.3445549px;line-height:125%;font-family:Lato;-inkscape-font-specification:'Lato, Normal';text-align:start;letter-spacing:0px;word-spacing:0px;writing-mode:lr-tb;text-anchor:start;opacity:0.5;fill:#000000;fill-opacity:1;stroke:none;stroke-width:1px;stroke-linecap:butt;stroke-linejoin:miter;stroke-opacity:1"
             x="389.70239"
             y="563.92926"
             id="text4171-5"
             sodipodi:linespacing="125%"><tspan
               sodipodi:role="line"
               id="tspan4173-3"
               x="389.70239"
               y="563.92926">Path</tspan></text>
          <text
             xml:space="preserve"
             style="font-style:normal;font-variant:normal;font-weight:normal;font-stretch:normal;font-size:12.5px;line-height:125%;font-family:Lato;-inkscape-font-specification:'Lato, Normal';text-align:start;letter-spacing:0px;word-spacing:0px;writing-mode:lr-tb;text-anchor:start;fill:#000000;fill-opacity:1;stroke:none;stroke-width:1px;stroke-linecap:butt;stroke-linejoin:miter;stroke-opacity:1"
             x="251.93898"
             y="624.80988"
             id="text4193"
             sodipodi:linespacing="125%"><tspan
               sodipodi:role="line"
               id="tspan4195"
               x="251.93898"
               y="624.80988"></tspan></text>
          <text
             xml:space="preserve"
             style="font-style:normal;font-variant:normal;font-weight:normal;font-stretch:normal;font-size:6.3445549px;line-height:125%;font-family:Lato;-inkscape-font-specification:'Lato, Normal';text-align:start;letter-spacing:0px;word-spacing:0px;writing-mode:lr-tb;text-anchor:start;opacity:0.5;fill:#000000;fill-opacity:1;stroke:none;stroke-width:1px;stroke-linecap:butt;stroke-linejoin:miter;stroke-opacity:1"
             x="240.15306"
             y="620.28418"
             id="text4171-2"
             sodipodi:linespacing="125%"><tspan
               sodipodi:role="line"
               id="tspan4173-1"
               x="240.15306"
               y="620.28418">Place where to curve</tspan></text>
        </g>
      </g>
    </g>
  </g>
</svg>
