<?xml version="1.0" encoding="UTF-8" standalone="no"?>
<!-- Created with Inkscape (http://www.inkscape.org/) -->

<svg
   xmlns:dc="http://purl.org/dc/elements/1.1/"
   xmlns:cc="http://creativecommons.org/ns#"
   xmlns:rdf="http://www.w3.org/1999/02/22-rdf-syntax-ns#"
   xmlns:svg="http://www.w3.org/2000/svg"
   xmlns="http://www.w3.org/2000/svg"
   xmlns:sodipodi="http://sodipodi.sourceforge.net/DTD/sodipodi-0.dtd"
   xmlns:inkscape="http://www.inkscape.org/namespaces/inkscape"
   width="52.029404mm"
   height="52.029404mm"
   viewBox="0 0 184.35615 184.35615"
   id="svg2"
   version="1.1"
   inkscape:version="0.91 r13725"
   sodipodi:docname="nfc-antenna.svg">
  <defs
     id="defs4">
    <inkscape:path-effect
       effect="bend_path"
       id="path-effect4205"
       is_visible="true"
       bendpath="m 123.60696,679.66773 c 3.54304,4.96189 20.55309,31.89773 54.21342,31.89438 33.66033,-0.003 50.6682,-26.93249 54.21044,-31.89532"
       prop_scale="1"
       scale_y_rel="false"
       vertical="false"
       bendpath-nodetypes="czc" />
  </defs>
  <sodipodi:namedview
     id="base"
     pagecolor="#ffffff"
     bordercolor="#666666"
     borderopacity="1.0"
     inkscape:pageopacity="0.0"
     inkscape:pageshadow="2"
     inkscape:zoom="5.6568543"
     inkscape:cx="6.9352816"
     inkscape:cy="-48.768178"
     inkscape:document-units="mm"
     inkscape:current-layer="g4275"
     showgrid="true"
     inkscape:window-width="1436"
     inkscape:window-height="855"
     inkscape:window-x="4"
     inkscape:window-y="0"
     inkscape:window-maximized="1"
     fit-margin-top="0"
     fit-margin-left="0"
     fit-margin-right="0"
     fit-margin-bottom="0">
    <inkscape:grid
       type="xygrid"
       id="grid4307"
       units="mm"
       spacingx="0.3543307"
       spacingy="0.3543307"
       color="#3f3fff"
       opacity="0.07058824"
       empcolor="#3f3fff"
       empopacity="0.11372549"
       originx="0"
       originy="0" />
  </sodipodi:namedview>
  <metadata
     id="metadata7">
    <rdf:RDF>
      <cc:Work
         rdf:about="">
        <dc:format>image/svg+xml</dc:format>
        <dc:type
           rdf:resource="http://purl.org/dc/dcmitype/StillImage" />
        <dc:title></dc:title>
        <cc:license
           rdf:resource="http://creativecommons.org/licenses/by-sa/3.0/" />
      </cc:Work>
      <cc:License
         rdf:about="http://creativecommons.org/licenses/by-sa/3.0/">
        <cc:permits
           rdf:resource="http://creativecommons.org/ns#Reproduction" />
        <cc:permits
           rdf:resource="http://creativecommons.org/ns#Distribution" />
        <cc:requires
           rdf:resource="http://creativecommons.org/ns#Notice" />
        <cc:requires
           rdf:resource="http://creativecommons.org/ns#Attribution" />
        <cc:permits
           rdf:resource="http://creativecommons.org/ns#DerivativeWorks" />
        <cc:requires
           rdf:resource="http://creativecommons.org/ns#ShareAlike" />
      </cc:License>
    </rdf:RDF>
  </metadata>
  <g
     inkscape:label="Layer 1"
     inkscape:groupmode="layer"
     id="layer1"
     transform="translate(-177.81929,-465.19472)">
    <g
       id="g4153">
      <g
         id="g4243">
        <g
           id="g4234" />
        <g
           id="g4275"
           style="opacity:0.5">
          <g
             id="g4212"
             transform="translate(-94.712334,92.380689)">
            <g
               id="g4258" />
          </g>
          <g
             id="g4337"
             transform="translate(-0.0114647,0.06772255)">
            <path
               style="fill:none;fill-rule:evenodd;stroke:#b2b2b2;stroke-width:0.35433072;stroke-linecap:butt;stroke-linejoin:miter;stroke-miterlimit:4;stroke-dasharray:2.12598431, 2.12598431;stroke-dashoffset:0;stroke-opacity:1"
               d="M 243.01017,584.37105 112.65069,714.73054 Z"
               id="path4180-9-5"
               inkscape:connector-curvature="0" />
            <g
               id="g4326">
              <g
                 transform="translate(-94.71233,92.38069)"
                 style="opacity:0.5"
                 id="g4309">
                <g
                   id="g4176"
                   transform="translate(-1.9689027,-6.3947143)">
                  <g
                     style="opacity:1"
                     id="g4254">
                    <circle
                       r="79.547234"
                       cy="563.56482"
                       cx="274.51166"
                       id="path4136"
                       style="color:#000000;clip-rule:nonzero;display:inline;overflow:visible;visibility:visible;opacity:1;isolation:auto;mix-blend-mode:normal;color-interpolation:sRGB;color-interpolation-filters:linearRGB;solid-color:#000000;solid-opacity:1;fill:none;fill-opacity:1;fill-rule:nonzero;stroke:#b2b2b2;stroke-width:0.35434726;stroke-linecap:butt;stroke-linejoin:miter;stroke-miterlimit:4;stroke-dasharray:none;stroke-dashoffset:99.19411469;stroke-opacity:1;color-rendering:auto;image-rendering:auto;shape-rendering:auto;text-rendering:auto;enable-background:accumulate" />
                    <circle
                       cy="563.56482"
                       cx="274.51166"
                       id="path4136-5"
                       style="color:#000000;clip-rule:nonzero;display:inline;overflow:visible;visibility:visible;opacity:1;isolation:auto;mix-blend-mode:normal;color-interpolation:sRGB;color-interpolation-filters:linearRGB;solid-color:#000000;solid-opacity:1;fill:none;fill-opacity:1;fill-rule:nonzero;stroke:#b2b2b2;stroke-width:0.35434213;stroke-linecap:butt;stroke-linejoin:miter;stroke-miterlimit:4;stroke-dasharray:none;stroke-dashoffset:99.19411469;stroke-opacity:1;color-rendering:auto;image-rendering:auto;shape-rendering:auto;text-rendering:auto;enable-background:accumulate"
                       r="44.114166" />
                    <path
                       inkscape:connector-curvature="0"
                       id="path4291"
                       d="m 312.42306,593.67861 c 7.49459,3.59936 14.17997,8.94996 19.14214,15.63745 1.31875,6.0115 -3.70818,10.78415 -7.91424,14.23181 -15.07593,13.3241 -36.02014,17.20907 -55.58178,16.85796 -16.3744,-0.44948 -33.44466,-5.92173 -44.67114,-18.34513 -4.04239,-2.76803 -9.16558,-9.66487 -3.32855,-13.33321 4.76461,-3.40685 7.99105,-8.35946 12.11267,-12.35848 5.13313,-4.54872 9.88045,1.14121 12.94428,4.94429 6.47184,6.15585 15.71071,8.19302 24.33787,9.03212 12.75943,0.8413 26.11885,-2.59978 36.18664,-10.6314 0.98683,-1.53433 6.1616,-5.89482 3.27458,-1.76627 -6.55237,8.56228 -17.20651,12.91343 -27.54055,14.83008 -10.67664,1.80718 -22.13371,0.87171 -31.87903,-4.05679 -4.89175,-2.88365 -8.50551,-7.55024 -13.29657,-10.48367 -6.08569,-1.34638 -9.23225,5.30183 -12.26853,9.30369 -1.40062,2.27938 -8.22403,4.34949 -3.38839,6.3504 3.89887,3.90141 7.05964,8.56913 11.79143,11.59834 16.00542,11.6005 36.95962,13.4185 56.00869,10.65734 14.98926,-2.22654 30.23251,-8.06387 40.50472,-19.59743 2.71469,-5.99469 -4.66221,-10.12898 -8.29496,-13.65922 -3.12919,-2.3281 -9.94171,-4.35816 -8.1393,-9.2119 l 0,0 z"
                       style="color:#000000;clip-rule:nonzero;display:inline;overflow:visible;visibility:visible;opacity:0.34500002;isolation:auto;mix-blend-mode:normal;color-interpolation:sRGB;color-interpolation-filters:linearRGB;solid-color:#000000;solid-opacity:1;fill:#00ff00;fill-opacity:1;fill-rule:nonzero;stroke:none;stroke-width:0.35433072;stroke-linecap:butt;stroke-linejoin:miter;stroke-miterlimit:4;stroke-dasharray:8.50393724, 0.35433072;stroke-dashoffset:0;stroke-opacity:1;color-rendering:auto;image-rendering:auto;shape-rendering:auto;text-rendering:auto;enable-background:accumulate" />
                  </g>
                </g>
                <path
                   style="fill:none;fill-rule:evenodd;stroke:#b2b2b2;stroke-width:0.35433072;stroke-linecap:butt;stroke-linejoin:miter;stroke-miterlimit:4;stroke-dasharray:2.12598431, 2.12598431;stroke-dashoffset:0;stroke-opacity:1"
                   d="m 180.36468,557.1701 184.35615,0 z"
                   id="path4180"
                   inkscape:connector-curvature="0" />
                <path
                   style="fill:none;fill-rule:evenodd;stroke:#b2b2b2;stroke-width:0.35433072;stroke-linecap:butt;stroke-linejoin:miter;stroke-miterlimit:4;stroke-dasharray:2.12598431, 2.12598431;stroke-dashoffset:0;stroke-opacity:1"
                   d="m 272.54275,464.99203 0,184.35615 z"
                   id="path4180-9"
                   inkscape:connector-curvature="0" />
              </g>
              <path
                 style="fill:none;fill-rule:evenodd;stroke:#b2b2b2;stroke-width:0.35433072;stroke-linecap:butt;stroke-linejoin:miter;stroke-miterlimit:4;stroke-dasharray:2.12598431, 2.12598431;stroke-dashoffset:0;stroke-opacity:1"
                 d="M 112.65068,584.37106 243.01017,714.73053 Z"
                 id="path4180-9-5-1"
                 inkscape:connector-curvature="0" />
            </g>
          </g>
          <path
             style="fill:none;fill-rule:evenodd;stroke:#000000;stroke-width:0.70866144;stroke-linecap:butt;stroke-linejoin:miter;stroke-miterlimit:4;stroke-dasharray:none;stroke-opacity:1;opacity:0.063"
             d="m 177.81929,649.90521 134.29134,0 0,29.40945 -133.93701,0 0,-27.99213 132.51969,0 0,26.5748 -131.10237,0 0,-25.15748 129.68504,0 0,23.74016 -128.26771,0 0,-22.32284 126.85039,0 0,20.90552 -125.43307,0 0,-19.49096 124.01575,0 0,18.07363 -122.59843,0 0,-16.65354 121.18111,0 0,15.23622 -119.76379,0 0,-13.8189 118.34646,0 0,12.40158 -116.92913,0 0,-10.98425 115.51181,0 0,9.56693 -114.09449,0 0,-8.14961"
             id="path4350"
             inkscape:connector-curvature="0"
             sodipodi:nodetypes="ccccccccccccccccccccccccccccccccc" />
          <path
             style="color:#000000;font-style:normal;font-variant:normal;font-weight:normal;font-stretch:normal;font-size:medium;line-height:normal;font-family:sans-serif;text-indent:0;text-align:start;text-decoration:none;text-decoration-line:none;text-decoration-style:solid;text-decoration-color:#000000;letter-spacing:normal;word-spacing:normal;text-transform:none;direction:ltr;block-progression:tb;writing-mode:lr-tb;baseline-shift:baseline;text-anchor:start;white-space:normal;clip-rule:nonzero;display:inline;overflow:visible;visibility:visible;opacity:1;isolation:auto;mix-blend-mode:normal;color-interpolation:sRGB;color-interpolation-filters:linearRGB;solid-color:#000000;solid-opacity:1;fill:#000000;fill-opacity:1;fill-rule:evenodd;stroke:none;stroke-width:0.70866144;stroke-linecap:butt;stroke-linejoin:miter;stroke-miterlimit:4;stroke-dasharray:none;stroke-dashoffset:0;stroke-opacity:1;color-rendering:auto;image-rendering:auto;shape-rendering:auto;text-rendering:auto;enable-background:accumulate"
             d="m 135.8628,670.91644 -0.57699,0.412 c 0.79455,1.11437 1.42671,2.04672 1.94356,2.7637 0.89825,1.24949 1.81172,2.45349 2.74697,3.60301 2.63567,3.23036 5.4976,6.18128 8.58236,8.71749 3.87516,3.1779 8.09703,5.80273 12.5059,7.57635 5.20359,2.14314 10.97985,3.21456 16.75443,3.22254 5.7753,-0.009 11.55197,-1.08128 16.75606,-3.22494 l 1e-5,0 c 4.40898,-1.77399 8.63087,-4.39878 12.50588,-7.57654 l 0,0 c 3.08447,-2.53595 5.94607,-5.48637 8.58122,-8.71614 l 10e-6,-10e-6 c 0.93507,-1.14931 1.84828,-2.353 2.74617,-3.60211 0.41227,-0.57194 0.8976,-1.28051 1.47983,-2.10884 l 23.48654,16.49652 c -0.46227,0.65875 -1.00533,1.44865 -1.65302,2.35283 -1.19629,1.66732 -2.45573,3.32404 -3.78485,4.96122 -3.71047,4.5796 -7.90436,8.87305 -12.57808,12.74521 -5.90646,4.90152 -12.60895,9.00909 -19.94772,12.02489 l -1e-5,0 c -8.82573,3.57657 -18.2135,5.35681 -27.58934,5.34908 -9.37651,0.009 -18.76519,-1.76977 -27.59169,-5.3461 -7.33967,-3.01575 -14.0427,-7.12362 -19.94937,-12.02545 l 0,-10e-6 c -4.67417,-3.87263 -8.86829,-8.16649 -12.57893,-12.74629 -1.3292,-1.63726 -2.58866,-3.29397 -3.78495,-4.96112 -0.6478,-0.90423 -1.19067,-1.69379 -1.65251,-2.35175 l 22.32401,-15.68464 c 0.57694,0.82062 1.06542,1.53357 1.48934,2.12191 0.91297,1.27012 1.84353,2.49649 2.79825,3.6701 2.68878,3.29703 5.61652,6.3143 8.77981,8.91653 l 0,0 c 3.97552,3.26307 8.31998,5.96117 12.87363,7.79616 5.38258,2.21395 11.33731,3.32033 17.28984,3.32745 5.95318,-0.008 11.90826,-1.11543 17.29128,-3.32988 l 0,0 c 4.55373,-1.83535 8.89817,-4.53339 12.87354,-7.79631 l 0,0 c 3.16299,-2.60196 6.09041,-5.61874 8.77869,-8.9152 l 0,0 c 0.95454,-1.17341 1.88486,-2.39949 2.79749,-3.66926 0.20915,-0.29029 0.43395,-0.61083 0.67727,-0.95959 l 21.20687,14.80836 c -0.27003,0.38639 -0.56052,0.79961 -0.87435,1.23763 -1.18155,1.64666 -2.42388,3.281 -3.73354,4.89407 -3.65735,4.51292 -7.78542,8.74002 -12.38062,12.54616 -5.80609,4.81636 -12.38604,8.85067 -19.58006,11.80512 l -1e-5,0 c -8.6468,3.50578 -17.85617,5.25104 -27.05412,5.24414 -9.19857,0.009 -18.40877,-1.73567 -27.05628,-5.24118 -7.19488,-2.95439 -13.77533,-6.98899 -19.58163,-11.80565 l 0,-10e-6 c -4.59565,-3.80661 -8.72395,-8.03412 -12.38149,-12.54725 -1.30973,-1.61316 -2.5521,-3.2475 -3.73366,-4.89402 -0.31346,-0.43746 -0.60358,-0.85009 -0.87323,-1.23588 l 20.04487,-13.99913 c 0.24454,0.35043 0.47268,0.67564 0.68728,0.97361 0.92768,1.29073 1.87531,2.53943 2.84947,3.73711 2.74181,3.3636 5.73528,6.44713 8.97698,9.1153 l 0,0 c 4.07575,3.34812 8.54262,6.11939 13.24087,8.01566 5.56133,2.28465 11.69428,3.42596 17.82451,3.43222 6.13082,-0.007 12.26407,-1.14953 17.82576,-3.43468 4.69828,-1.89661 9.1651,-4.66781 13.2407,-8.01577 3.24139,-2.66789 6.23455,-5.75093 8.97588,-9.11398 0.96713,-1.18907 1.90806,-2.42836 2.82917,-3.7091 l 18.70274,13.4405 c -1.15942,1.61436 -2.37649,3.21483 -3.6576,4.79263 -3.60423,4.44623 -7.66647,8.60697 -12.18316,12.3471 -5.70573,4.7312 -12.16312,8.69225 -19.2124,11.58535 -8.46788,3.43499 -17.49884,5.14527 -26.51891,5.1392 -9.02062,0.008 -18.05235,-1.70156 -26.52087,-5.13627 l -1e-5,0 c -7.05008,-2.89302 -13.50795,-6.85435 -19.21388,-11.58585 -4.51713,-3.74058 -8.57961,-7.90174 -12.18404,-12.34821 -1.28078,-1.57738 -2.49751,-3.17733 -3.65663,-4.79105 l 17.55047,-12.61412 c 0.9358,1.30113 1.89364,2.56249 2.87995,3.77528 2.79492,3.43027 5.8542,6.58014 9.17443,9.31434 4.17612,3.43329 8.76556,6.27783 13.60861,8.23546 l 1e-5,0 c 5.74031,2.35547 12.05173,3.53175 18.35992,3.53714 6.3087,-0.007 12.62035,-1.18368 18.36096,-3.53962 l 1e-5,0 c 4.84302,-1.95796 9.43239,-4.80242 13.60835,-8.23554 3.31992,-2.7339 6.37889,-5.88329 9.17335,-9.31304 0.73138,-0.89934 1.44708,-1.82535 2.14969,-2.77447 l 16.2326,12.01846 c -0.87028,1.1753 -1.77188,2.34078 -2.70741,3.49286 -3.55117,4.37964 -7.54769,8.47412 -11.98597,12.14833 -5.6055,4.64615 -11.94051,8.53405 -18.84524,11.36588 l 0,0 c -8.2892,3.36429 -17.142,5.03964 -25.98444,5.0344 -8.8429,0.007 -17.69641,-1.6675 -25.98619,-5.0315 l -1e-5,0 c -6.90548,-2.83174 -13.24094,-6.7199 -18.84665,-11.36635 -4.4387,-3.67464 -8.43546,-7.76955 -11.98685,-12.14944 -0.93567,-1.15225 -1.83739,-2.31786 -2.70777,-3.49323 l 15.09581,-11.17742 c 0.71459,0.96522 1.4435,1.90824 2.18935,2.82548 2.84789,3.49676 5.97281,6.7128 9.37134,9.51283 4.27621,3.51823 8.9879,6.43584 13.97534,8.45467 5.91881,2.42607 12.40821,3.63723 18.89386,3.64176 6.4861,-0.006 12.97565,-1.21774 18.8947,-3.64428 l 1e-5,0 c 4.98736,-2.01914 9.69896,-4.93665 13.975,-8.4547 3.39822,-2.79973 6.52283,-6.01529 9.37027,-9.51154 0.48596,-0.59764 0.96473,-1.20622 1.437,-1.82475 l 13.80017,10.5406 c -0.57335,0.75045 -1.15984,1.4958 -1.76019,2.23506 -3.49805,4.31295 -7.42874,8.34109 -11.78851,11.94928 -5.50514,4.56099 -11.71759,8.37563 -18.47758,11.14611 -8.11028,3.2935 -16.78468,4.93387 -25.44923,4.92946 -8.66496,0.006 -17.34,-1.63339 -25.45079,-4.92659 l -1e-5,0 c -6.76069,-2.77037 -12.97357,-6.58527 -18.47891,-11.14654 -4.36018,-3.60862 -8.29112,-7.63718 -11.7894,-11.9504 -0.60007,-0.73891 -1.18628,-1.48387 -1.75936,-2.23391 l 12.67143,-9.67915 c 0.48038,0.62905 0.96776,1.24856 1.46288,1.85753 2.90107,3.56352 6.09189,6.84599 9.56906,9.71214 4.37671,3.60352 9.21115,6.5945 14.34359,8.67478 l 0,0 c 6.09804,2.49698 12.76616,3.74315 19.43,3.74682 6.66423,-0.005 13.33244,-1.25193 19.43066,-3.74936 l 0,0 c 5.13231,-2.08058 9.96663,-5.07144 14.34317,-8.67478 3.47684,-2.86584 6.66737,-6.14784 9.568,-9.71087 0.23025,-0.28319 0.45882,-0.56867 0.68579,-0.85632 l 11.40437,8.99869 c -0.26905,0.34097 -0.5409,0.68064 -0.81563,1.01891 -3.44492,4.24626 -7.3098,8.20804 -11.59105,11.75022 -5.40478,4.47583 -11.49467,8.21721 -18.10992,10.92635 -7.93135,3.2227 -16.42735,4.82809 -24.91401,4.82451 -8.48701,0.005 -16.98358,-1.59928 -24.91538,-4.82167 l -1e-5,-10e-6 c -6.61589,-2.709 -12.70619,-6.45063 -18.11117,-10.92673 -4.28166,-3.54259 -8.14678,-7.50481 -11.59195,-11.75136 -0.27447,-0.33793 -0.54605,-0.67726 -0.81484,-1.01789 l 10.29102,-8.12059 c 0.23088,0.29258 0.46346,0.58307 0.69784,0.87137 2.95417,3.63018 6.21081,6.97901 9.7665,9.91118 4.47708,3.68869 9.4341,6.75294 14.71133,8.89459 6.27703,2.56778 13.12362,3.84892 19.96542,3.85173 l 0,0 c 6.84211,-0.004 13.68872,-1.28608 19.96587,-3.85431 5.27705,-2.14192 10.23392,-5.20604 14.71083,-8.89454 3.51256,-2.89657 6.73327,-6.19966 9.65868,-9.77898 l 9.05922,7.39395 c -3.36072,4.12258 -7.11894,7.96623 -11.27119,11.40064 -5.30456,4.39079 -11.27207,8.05902 -17.74277,10.70688 -7.75267,3.15202 -16.0705,4.72247 -24.37953,4.71972 l -1e-5,0 c -8.30929,0.004 -16.62764,-1.56522 -24.3807,-4.7169 -6.4713,-2.64773 -12.43919,-6.31619 -17.74394,-10.70723 -4.15287,-3.435 -7.91151,-7.2793 -11.27264,-11.40243 l 7.96072,-6.49729 c 2.9787,3.64585 6.26504,7.01516 9.85569,9.97742 4.57744,3.77386 9.65705,6.91137 15.07908,9.11439 l 0,10e-6 c 6.45601,2.63858 13.48107,3.9547 20.50082,3.95664 l 1e-5,0 c 7.01999,-0.003 14.045,-1.32023 20.50108,-3.95925 5.4218,-2.20328 10.50122,-5.34065 15.07849,-9.11431 3.25767,-2.68751 6.26484,-5.71002 9.01892,-8.97017 l 6.76853,5.715 c -3.0663,3.6332 -6.44941,7.02708 -10.14676,10.08426 -5.20419,4.30563 -11.04915,7.9006 -17.37511,10.48712 -7.57374,3.08122 -15.71317,4.61669 -23.84432,4.61477 l 0,0 c -8.13134,0.003 -16.27122,-1.53111 -23.8453,-4.61199 -6.3265,-2.58635 -12.17181,-6.18155 -17.37619,-10.48742 -3.69743,-3.05733 -7.08057,-6.45131 -10.14694,-10.08452 l 5.95655,-5.02952 c -0.14264,-0.16888 -0.28461,-0.33837 -0.4259,-0.50848 l -6.54379,5.43208 c 3.21474,3.87568 6.78522,7.49242 10.70857,10.73706 5.25456,4.34847 11.16116,7.98029 17.56006,10.59733 7.66357,3.11628 15.89269,4.66833 24.113,4.66445 l 1e-5,0 c 8.22009,0.002 16.44872,-1.55063 24.11193,-4.66725 6.39832,-2.61718 12.30456,-6.24879 17.55893,-10.59699 3.92275,-3.24408 7.49278,-6.86017 10.70711,-10.73527 l -7.90689,-6.56373 c -2.84159,3.42006 -5.95723,6.58328 -9.34391,9.37664 -4.52709,3.73108 -9.54524,6.83183 -14.89466,9.00443 -6.36662,2.60362 -13.30243,3.90309 -20.23348,3.90678 l 0,0 c -6.93078,-0.002 -13.8666,-1.301 -20.23313,-3.90419 l 0,0 c -5.34963,-2.17234 -10.36794,-5.27322 -14.8952,-9.00449 -3.59495,-2.96519 -6.8845,-6.34718 -9.86523,-10.0107 -0.10063,-0.12379 -0.20092,-0.24797 -0.30088,-0.37252 l -9.12018,7.31802 c 0.11483,0.14313 0.23015,0.28601 0.34599,0.42863 3.41869,4.21331 7.251,8.14244 11.49351,11.65211 5.35493,4.43364 11.38411,8.13873 17.9278,10.81714 l 1e-5,0 c 7.84255,3.18708 16.25014,4.77411 24.64841,4.76936 8.39797,0.003 16.80501,-1.58478 24.64715,-4.77219 6.54307,-2.67854 12.57186,-6.3834 17.92659,-10.81676 4.2421,-3.50926 8.07416,-7.43796 11.49259,-11.65097 0.11567,-0.14242 0.23083,-0.28509 0.3455,-0.42802 l -10.2261,-8.20545 c -0.098,0.12212 -0.19633,0.24384 -0.29497,0.36517 -2.9272,3.59637 -6.15063,6.91155 -9.66673,9.81039 -4.42673,3.64592 -9.32232,6.67341 -14.527,8.78466 -6.18769,2.53283 -12.9451,3.79732 -19.69827,3.80184 -6.75282,-0.003 -13.51017,-1.2669 -19.69771,-3.79927 -5.20484,-2.11097 -10.10057,-5.13858 -14.52746,-8.78469 -3.51643,-2.89916 -6.74017,-6.21481 -9.66778,-9.81166 -0.366,-0.45018 -0.7277,-0.90591 -1.0854,-1.36679 l -11.47556,8.9078 c 0.42173,0.5432 0.85046,1.08343 1.28648,1.6203 3.47172,4.27989 7.36976,8.27527 11.69068,11.85088 5.45515,4.51869 11.60675,8.29695 18.29504,11.03664 8.0213,3.25779 16.6071,4.87974 25.18308,4.87413 8.57561,0.004 17.16081,-1.61888 25.18162,-4.87698 l 0,-10e-6 c 6.68762,-2.7398 12.83879,-6.51782 18.29375,-11.03623 4.32051,-3.57518 8.21829,-7.57014 11.68978,-11.84974 0.43629,-0.53722 0.8653,-1.07781 1.28729,-1.62139 l -12.59594,-9.7769 c -0.35162,0.4531 -0.70698,0.90084 -1.06634,1.34281 -2.87407,3.52969 -6.03169,6.77851 -9.46927,9.61135 -4.32636,3.56075 -9.0994,6.51499 -14.15934,8.56489 l 0,0 c -6.00876,2.46203 -12.58777,3.69154 -19.16305,3.69689 -6.57488,-0.004 -13.15376,-1.23279 -19.1623,-3.69436 l -1e-5,0 c -5.06004,-2.0496 -9.83319,-5.00395 -14.15971,-8.56488 -3.43791,-2.83314 -6.59583,-6.08244 -9.47034,-9.61262 -0.62174,-0.76467 -1.2315,-1.54659 -1.83074,-2.34374 L 119.31864,689.808 c 0.72268,0.96086 1.4666,1.91432 2.23322,2.85835 3.52483,4.34655 7.48868,8.40829 11.88813,12.04992 5.55552,4.60386 11.82969,8.45539 18.66278,11.25644 l 0,10e-6 c 8.20029,3.3286 16.96457,4.98551 25.7185,4.97904 8.75349,0.005 17.51709,-1.65303 25.71682,-4.98193 l 10e-6,0 c 6.83236,-2.80115 13.10609,-6.65243 18.66141,-11.256 4.39902,-3.6412 8.36263,-7.70251 11.88724,-12.0488 0.76647,-0.94385 1.51025,-1.89715 2.23281,-2.85789 l -15.01299,-11.28819 c -0.58894,0.78352 -1.18754,1.55118 -1.79727,2.30097 -2.82087,3.46291 -5.91257,6.64529 -9.27153,9.41201 -4.22586,3.47548 -8.87618,6.35636 -13.79117,8.34482 l -1e-5,0 c -5.82958,2.39115 -12.22994,3.58563 -18.6271,3.59181 -6.39667,-0.005 -12.79684,-1.19863 -18.62615,-3.5893 -4.91505,-1.98815 -9.56545,-4.86913 -13.79147,-8.34477 -3.35927,-2.76702 -6.45129,-5.94989 -9.27262,-9.41331 -0.86747,-1.06674 -1.71247,-2.1697 -2.53924,-3.30304 l -16.32139,11.90422 c 1.01604,1.39329 2.07555,2.77463 3.18277,4.1382 3.57794,4.41322 7.60761,8.5413 12.08558,12.24896 5.65589,4.68903 12.05264,8.61383 19.03052,11.47625 l 1e-5,0 c 8.37927,3.39941 17.32202,5.09129 26.2539,5.08396 8.93137,0.006 17.87338,-1.68718 26.25204,-5.08687 l 1e-5,0 c 6.9771,-2.86251 13.37339,-6.78704 19.02907,-11.47577 4.47754,-3.70721 8.50697,-7.83487 12.0847,-12.24785 1.10708,-1.36341 2.16649,-2.74465 3.18245,-4.13792 l -17.46433,-12.7369 c -0.81322,1.11482 -1.64297,2.19801 -2.49348,3.24375 -2.76789,3.39641 -5.79396,6.51262 -9.07461,9.21351 -4.12578,3.39055 -8.65388,6.19837 -13.42453,8.12566 l 0,0 c -5.65116,2.32055 -11.8736,3.48014 -18.09336,3.48715 -6.21921,-0.006 -12.4414,-1.16462 -18.09221,-3.48468 -4.77065,-1.92695 -9.29881,-4.73485 -13.42474,-8.12556 l -1e-5,0 c -3.28096,-2.70118 -6.30734,-5.81788 -9.0757,-9.21482 -0.98389,-1.20973 -1.94006,-2.46961 -2.87511,-3.77066 -0.10553,-0.14655 -0.21399,-0.29916 -0.32572,-0.4576 l -18.81819,13.27765 c 0.14055,0.19911 0.28602,0.40393 0.43674,0.61424 1.1742,1.6362 2.40802,3.25936 3.70802,4.86047 3.63098,4.4798 7.72637,8.67414 12.28276,12.44773 l 0,0 c 5.75612,4.77408 12.27528,8.77205 19.39776,11.69575 8.55801,3.47012 17.67898,5.19693 26.78857,5.18873 9.10901,0.006 18.22918,-1.72128 26.78652,-5.19166 l 1e-5,-10e-6 c 7.12165,-2.92377 13.64031,-6.92146 19.39622,-11.69523 l 1e-5,-10e-6 c 4.55594,-3.77313 8.65109,-7.96705 12.28188,-12.44662 l 0,0 c 1.29992,-1.60102 2.5337,-3.22418 3.70788,-4.8605 0.1511,-0.21087 0.29695,-0.41625 0.43786,-0.6159 L 220.4542,674.88205 c -0.11024,0.15636 -0.2167,0.30617 -0.31973,0.44919 -0.91998,1.28007 -1.85882,2.5173 -2.82307,3.70274 l -1e-5,0 c -2.71476,3.32971 -5.67501,6.37957 -8.87715,9.01445 -4.02541,3.30539 -8.43096,6.03996 -13.05686,7.90589 l -10e-6,0 c -5.47222,2.24976 -11.51626,3.37437 -17.55814,3.38221 -6.04127,-0.007 -12.08498,-1.13051 -17.55681,-3.37977 -4.62586,-1.86558 -9.03143,-4.60022 -13.057,-7.90575 l 0,-10e-6 c -3.20244,-2.63515 -6.16301,-5.6855 -8.87826,-9.01577 -0.96443,-1.18563 -1.90351,-2.42315 -2.82383,-3.70356 -0.32073,-0.44523 -0.67497,-0.95642 -1.07267,-1.52652 l -21.21739,14.79703 c 0.37709,0.54089 0.80025,1.14923 1.2794,1.81799 1.18893,1.65684 2.43984,3.30236 3.7593,4.92757 3.68409,4.54647 7.8453,8.80715 12.48021,12.64677 l 0,0 c 5.85648,4.85925 12.49823,8.93049 19.7655,11.91556 8.73701,3.54092 18.03645,5.3027 27.32399,5.29364 9.28689,0.007 18.58546,-1.75543 27.32173,-5.29661 7.2664,-2.98513 13.90762,-7.05607 19.76389,-11.915 l 0,-1e-5 c 4.63447,-3.83915 8.79544,-8.09942 12.47935,-12.64568 1.31939,-1.62512 2.57028,-3.27066 3.7592,-4.92764 0.47906,-0.66871 0.90229,-1.27722 1.27959,-1.81851 l -22.38038,-15.60488 c -0.39845,0.57129 -0.74874,1.07694 -1.06078,1.50994 -0.90526,1.25943 -1.82702,2.47432 -2.77183,3.63568 l -10e-6,1e-5 c -2.66171,3.26311 -5.55622,6.24671 -8.67995,8.81567 -3.92519,3.22034 -8.20835,5.88175 -12.68971,7.68642 l -1e-5,0 c -5.29355,2.17906 -11.15943,3.26874 -17.02367,3.27741 -5.86355,-0.008 -11.72904,-1.09645 -17.02213,-3.275 -4.48126,-1.8043 -8.76443,-4.46577 -12.68977,-7.68625 -3.12402,-2.56922 -6.01886,-5.55332 -8.68108,-8.81701 -0.94498,-1.16157 -1.867,-2.37675 -2.77261,-3.63656 -0.52415,-0.72727 -1.15667,-1.66014 -1.94468,-2.76525 l -23.3577,16.67858 c 0.52284,0.73052 1.17041,1.6844 1.9898,2.82827 1.20365,1.67746 2.47166,3.34535 3.81059,4.99466 3.73719,4.61314 7.96422,8.94017 12.67765,12.84581 5.95685,4.94442 12.72117,9.08893 20.13325,12.13537 8.91599,3.61172 18.3939,5.40847 27.85939,5.39855 9.46478,0.008 18.94175,-1.78958 27.85695,-5.40155 7.41114,-3.04648 14.17491,-7.19068 20.13155,-12.13477 l 0,-1e-5 c 4.71298,-3.90516 8.93977,-8.23178 12.67681,-12.84473 l 0,-1e-5 c 1.33886,-1.64922 2.60685,-3.31714 3.81051,-4.99478 0.81926,-1.14381 1.4672,-2.09828 1.99076,-2.83016 l -24.51512,-17.49776 c -0.79996,1.12243 -1.43123,2.05363 -1.94078,2.76035 -0.89051,1.23877 -1.79517,2.43128 -2.72051,3.56854 l -1e-5,0 c -2.60858,3.19643 -5.43727,6.11368 -8.48249,8.61661 l 0,10e-6 c -3.82483,3.13518 -7.98544,5.72333 -12.32205,7.46665 -5.11462,2.10827 -10.8021,3.16297 -16.48846,3.17247 -5.6856,-0.008 -11.37262,-1.06234 -16.48672,-3.17008 -4.33647,-1.74294 -8.49705,-4.33114 -12.32202,-7.46645 l -1e-5,0 c -3.0455,-2.5032 -5.87452,-5.42095 -8.48363,-8.61797 -0.92552,-1.13747 -1.83044,-2.33029 -2.72133,-3.56946 -0.50956,-0.70669 -1.14134,-1.63852 -1.94245,-2.76214 z"
             id="path4161"
             inkscape:connector-curvature="0"
             inkscape:path-effect="#path-effect4205"
             inkscape:original-d="m 110.50465,695.86575 0,0.70899 133.9375,0 0,28.70117 -133.22852,0 0,-27.28321 131.8125,0 0,25.86524 -130.39453,0 0,-24.44922 128.97657,0 0,23.03125 -127.5586,0 0,-21.61328 126.14063,0 0,20.19726 -124.72461,0 0,-18.7832 123.30859,0 0,17.36524 -121.89062,0 0,-15.94532 120.47265,0 0,14.52735 -119.05469,0 0,-13.10938 117.63672,0 0,11.69336 -116.2207,0 0,-10.27539 114.80469,0 0,8.85742 -113.38672,0 0,-7.79492 -0.70899,0 0,8.50391 114.80274,0 0,-10.27539 -116.2207,0 0,11.69336 117.63867,0 0,-13.11133 -119.05469,0 0,14.52734 120.47266,0 0,-15.94531 -121.89063,0 0,17.36328 123.30664,0 0,-18.7832 -124.72461,0 0,20.20117 126.14258,0 0,-21.61524 -127.55859,0 0,23.03125 128.97656,0 0,-24.44921 -130.39453,0 0,25.86718 131.81055,0 0,-27.2832 -133.22852,0 0,28.70117 134.64648,0 0,-30.11914 -134.64648,0 z" />
          <text
             xml:space="preserve"
             style="font-style:normal;font-variant:normal;font-weight:normal;font-stretch:normal;font-size:6.3445549px;line-height:125%;font-family:Lato;-inkscape-font-specification:'Lato, Normal';text-align:start;letter-spacing:0px;word-spacing:0px;writing-mode:lr-tb;text-anchor:start;fill:#000000;fill-opacity:1;stroke:none;stroke-width:1px;stroke-linecap:butt;stroke-linejoin:miter;stroke-opacity:1"
             x="223.16696"
             y="666.68518"
             id="text4171"
             sodipodi:linespacing="125%"><tspan
               sodipodi:role="line"
               id="tspan4173"
               x="223.16696"
               y="666.68518">Original Stroke</tspan></text>
          <text
             xml:space="preserve"
             style="font-style:normal;font-variant:normal;font-weight:normal;font-stretch:normal;font-size:6.3445549px;line-height:125%;font-family:Lato;-inkscape-font-specification:'Lato, Normal';text-align:start;letter-spacing:0px;word-spacing:0px;writing-mode:lr-tb;text-anchor:start;opacity:0.5;fill:#000000;fill-opacity:1;stroke:none;stroke-width:1px;stroke-linecap:butt;stroke-linejoin:miter;stroke-opacity:1"
             x="389.70239"
             y="563.92926"
             id="text4171-5"
             sodipodi:linespacing="125%"><tspan
               sodipodi:role="line"
               id="tspan4173-3"
               x="389.70239"
               y="563.92926">Path</tspan></text>
          <text
             xml:space="preserve"
             style="font-style:normal;font-variant:normal;font-weight:normal;font-stretch:normal;font-size:12.5px;line-height:125%;font-family:Lato;-inkscape-font-specification:'Lato, Normal';text-align:start;letter-spacing:0px;word-spacing:0px;writing-mode:lr-tb;text-anchor:start;fill:#000000;fill-opacity:1;stroke:none;stroke-width:1px;stroke-linecap:butt;stroke-linejoin:miter;stroke-opacity:1"
             x="251.93898"
             y="624.80988"
             id="text4193"
             sodipodi:linespacing="125%"><tspan
               sodipodi:role="line"
               id="tspan4195"
               x="251.93898"
               y="624.80988"></tspan></text>
          <text
             xml:space="preserve"
             style="font-style:normal;font-variant:normal;font-weight:normal;font-stretch:normal;font-size:6.3445549px;line-height:125%;font-family:Lato;-inkscape-font-specification:'Lato, Normal';text-align:start;letter-spacing:0px;word-spacing:0px;writing-mode:lr-tb;text-anchor:start;opacity:0.5;fill:#000000;fill-opacity:1;stroke:none;stroke-width:1px;stroke-linecap:butt;stroke-linejoin:miter;stroke-opacity:1"
             x="240.15306"
             y="620.28418"
             id="text4171-2"
             sodipodi:linespacing="125%"><tspan
               sodipodi:role="line"
               id="tspan4173-1"
               x="240.15306"
               y="620.28418">Place where to curve</tspan></text>
        </g>
      </g>
    </g>
  </g>
</svg>
