<?xml version="1.0" encoding="UTF-8" standalone="no"?>
<!-- Created with Inkscape (http://www.inkscape.org/) -->

<svg
   xmlns:dc="http://purl.org/dc/elements/1.1/"
   xmlns:cc="http://creativecommons.org/ns#"
   xmlns:rdf="http://www.w3.org/1999/02/22-rdf-syntax-ns#"
   xmlns:svg="http://www.w3.org/2000/svg"
   xmlns="http://www.w3.org/2000/svg"
   xmlns:xlink="http://www.w3.org/1999/xlink"
   xmlns:sodipodi="http://sodipodi.sourceforge.net/DTD/sodipodi-0.dtd"
   xmlns:inkscape="http://www.inkscape.org/namespaces/inkscape"
   width="52.029404mm"
   height="52.029404mm"
   viewBox="0 0 184.35615 184.35615"
   id="svg2"
   version="1.1"
   inkscape:version="0.91 r13725"
   sodipodi:docname="logo-bending.svg">
  <defs
     id="defs4">
    <inkscape:path-effect
       effect="bend_path"
       id="path-effect4941"
       is_visible="true"
       bendpath="m -0.01177858,86.336078 c 0,0 143.76809858,-43.428486 260.50499858,-43.428486 116.7369,0 260.63578,43.428486 260.63578,43.428486"
       prop_scale="1"
       scale_y_rel="false"
       vertical="false"
       bendpath-nodetypes="czc" />
    <inkscape:path-effect
       effect="bend_path"
       id="path-effect4205"
       is_visible="true"
       bendpath="m 123.60696,679.66773 c 3.89737,6.02488 20.55309,31.89773 54.21342,31.89438 33.66033,-0.003 50.31387,-25.8695 54.21044,-31.89532"
       prop_scale="1"
       scale_y_rel="false"
       vertical="false"
       bendpath-nodetypes="czc" />
    <color-profile
       id="color-profile5846"
       xlink:href="/System/Library/ColorSync/Profiles/Generic CMYK Profile.icc"
       name="Generic-CMYK-Profile" />
  </defs>
  <sodipodi:namedview
     id="base"
     pagecolor="#ffffff"
     bordercolor="#666666"
     borderopacity="1.0"
     inkscape:pageopacity="0.0"
     inkscape:pageshadow="2"
     inkscape:zoom="5.6568542"
     inkscape:cx="27.009344"
     inkscape:cy="-33.091331"
     inkscape:document-units="mm"
     inkscape:current-layer="g4872"
     showgrid="true"
     inkscape:window-width="1436"
     inkscape:window-height="855"
     inkscape:window-x="4"
     inkscape:window-y="0"
     inkscape:window-maximized="1"
     fit-margin-top="0"
     fit-margin-left="0"
     fit-margin-right="0"
     fit-margin-bottom="0"
     gridtolerance="10">
    <inkscape:grid
       type="xygrid"
       id="grid4307"
       units="mm"
       spacingx="0.3543307"
       spacingy="0.3543307"
       color="#3f3fff"
       opacity="0.07058824"
       empcolor="#3f3fff"
       empopacity="0.11372549"
       originx="0"
       originy="0" />
  </sodipodi:namedview>
  <metadata
     id="metadata7">
    <rdf:RDF>
      <cc:Work
         rdf:about="">
        <dc:format>image/svg+xml</dc:format>
        <dc:type
           rdf:resource="http://purl.org/dc/dcmitype/StillImage" />
        <dc:title />
        <cc:license
           rdf:resource="http://creativecommons.org/licenses/by-sa/3.0/" />
      </cc:Work>
      <cc:License
         rdf:about="http://creativecommons.org/licenses/by-sa/3.0/">
        <cc:permits
           rdf:resource="http://creativecommons.org/ns#Reproduction" />
        <cc:permits
           rdf:resource="http://creativecommons.org/ns#Distribution" />
        <cc:requires
           rdf:resource="http://creativecommons.org/ns#Notice" />
        <cc:requires
           rdf:resource="http://creativecommons.org/ns#Attribution" />
        <cc:permits
           rdf:resource="http://creativecommons.org/ns#DerivativeWorks" />
        <cc:requires
           rdf:resource="http://creativecommons.org/ns#ShareAlike" />
      </cc:License>
    </rdf:RDF>
  </metadata>
  <g
     inkscape:label="Layer 1"
     inkscape:groupmode="layer"
     id="layer1"
     transform="translate(-177.81929,-465.19472)">
    <g
       id="g4153">
      <g
         id="g4243">
        <g
           id="g4234" />
        <g
           id="g4275"
           style="opacity:0.5">
          <g
             id="g4212"
             transform="translate(-94.712334,92.380689)">
            <g
               id="g4258" />
          </g>
          <g
             id="g4337"
             transform="translate(-0.0114647,0.06772255)">
            <path
               style="fill:none;fill-rule:evenodd;stroke:#b2b2b2;stroke-width:0.35433072;stroke-linecap:butt;stroke-linejoin:miter;stroke-miterlimit:4;stroke-dasharray:2.12598431, 2.12598431;stroke-dashoffset:0;stroke-opacity:1"
               d="M 243.01017,584.37105 112.65069,714.73054 Z"
               id="path4180-9-5"
               inkscape:connector-curvature="0" />
            <g
               id="g4326">
              <g
                 transform="translate(-94.71233,92.38069)"
                 style="opacity:0.5"
                 id="g4309">
                <g
                   id="g4176"
                   transform="translate(-1.9689027,-6.3947143)">
                  <g
                     style="opacity:1"
                     id="g4254">
                    <circle
                       r="79.547234"
                       cy="563.56482"
                       cx="274.51166"
                       id="path4136"
                       style="color:#000000;clip-rule:nonzero;display:inline;overflow:visible;visibility:visible;opacity:1;isolation:auto;mix-blend-mode:normal;color-interpolation:sRGB;color-interpolation-filters:linearRGB;solid-color:#000000;solid-opacity:1;fill:none;fill-opacity:1;fill-rule:nonzero;stroke:#b2b2b2;stroke-width:0.35434726;stroke-linecap:butt;stroke-linejoin:miter;stroke-miterlimit:4;stroke-dasharray:none;stroke-dashoffset:99.19411469;stroke-opacity:1;color-rendering:auto;image-rendering:auto;shape-rendering:auto;text-rendering:auto;enable-background:accumulate" />
                    <circle
                       cy="563.56482"
                       cx="274.51166"
                       id="path4136-5"
                       style="color:#000000;clip-rule:nonzero;display:inline;overflow:visible;visibility:visible;opacity:1;isolation:auto;mix-blend-mode:normal;color-interpolation:sRGB;color-interpolation-filters:linearRGB;solid-color:#000000;solid-opacity:1;fill:none;fill-opacity:1;fill-rule:nonzero;stroke:#b2b2b2;stroke-width:0.35434213;stroke-linecap:butt;stroke-linejoin:miter;stroke-miterlimit:4;stroke-dasharray:none;stroke-dashoffset:99.19411469;stroke-opacity:1;color-rendering:auto;image-rendering:auto;shape-rendering:auto;text-rendering:auto;enable-background:accumulate"
                       r="44.114166" />
                  </g>
                </g>
                <path
                   style="fill:none;fill-rule:evenodd;stroke:#b2b2b2;stroke-width:0.35433072;stroke-linecap:butt;stroke-linejoin:miter;stroke-miterlimit:4;stroke-dasharray:2.12598431, 2.12598431;stroke-dashoffset:0;stroke-opacity:1"
                   d="m 180.36468,557.1701 184.35615,0 z"
                   id="path4180"
                   inkscape:connector-curvature="0" />
                <path
                   style="fill:none;fill-rule:evenodd;stroke:#b2b2b2;stroke-width:0.35433072;stroke-linecap:butt;stroke-linejoin:miter;stroke-miterlimit:4;stroke-dasharray:2.12598431, 2.12598431;stroke-dashoffset:0;stroke-opacity:1"
                   d="m 272.54275,464.99203 0,184.35615 z"
                   id="path4180-9"
                   inkscape:connector-curvature="0" />
              </g>
              <path
                 style="fill:none;fill-rule:evenodd;stroke:#b2b2b2;stroke-width:0.35433072;stroke-linecap:butt;stroke-linejoin:miter;stroke-miterlimit:4;stroke-dasharray:2.12598431, 2.12598431;stroke-dashoffset:0;stroke-opacity:1"
                 d="M 112.65068,584.37106 243.01017,714.73053 Z"
                 id="path4180-9-5-1"
                 inkscape:connector-curvature="0" />
            </g>
          </g>
          <text
             xml:space="preserve"
             style="font-style:normal;font-variant:normal;font-weight:normal;font-stretch:normal;font-size:6.3445549px;line-height:125%;font-family:Lato;-inkscape-font-specification:'Lato, Normal';text-align:start;letter-spacing:0px;word-spacing:0px;writing-mode:lr-tb;text-anchor:start;opacity:0.5;fill:#000000;fill-opacity:1;stroke:none;stroke-width:1px;stroke-linecap:butt;stroke-linejoin:miter;stroke-opacity:1"
             x="389.70239"
             y="563.92926"
             id="text4171-5"
             sodipodi:linespacing="125%"><tspan
               sodipodi:role="line"
               id="tspan4173-3"
               x="389.70239"
               y="563.92926">Path</tspan></text>
          <text
             xml:space="preserve"
             style="font-style:normal;font-variant:normal;font-weight:normal;font-stretch:normal;font-size:12.5px;line-height:125%;font-family:Lato;-inkscape-font-specification:'Lato, Normal';text-align:start;letter-spacing:0px;word-spacing:0px;writing-mode:lr-tb;text-anchor:start;fill:#000000;fill-opacity:1;stroke:none;stroke-width:1px;stroke-linecap:butt;stroke-linejoin:miter;stroke-opacity:1"
             x="251.93898"
             y="624.80988"
             id="text4193"
             sodipodi:linespacing="125%"><tspan
               sodipodi:role="line"
               id="tspan4195"
               x="251.93898"
               y="624.80988" /></text>
          <g
             transform="matrix(0.16694112,0,0,-0.16694112,134.33226,715.51989)"
             inkscape:label="Logo"
             id="g4870"
             inkscape:path-effect="#path-effect4941">
            <g
               id="g4872">
              <path
                 inkscape:connector-curvature="0"
                 id="path4874"
                 style="fill:#333333;fill-opacity:1;fill-rule:nonzero;stroke:none"
                 d="m 521.12899,86.336076 c 0.0845,-0.279939 0.16622,-0.559151 0.24575,-0.839716 0.0774,-0.272957 0.15234,-0.546125 0.22498,-0.819837 0.14546,-0.548199 0.28107,-1.096913 0.4056,-1.641132 l 0,-4e-6 0,0 c 0.25218,-1.102556 0.46162,-2.196996 0.63454,-3.303918 0,0 0,-5e-6 0,-5e-6 l 0,0 c 0.35072,-2.221539 0.54079,-4.424941 0.58695,-6.639196 l 0,-10e-7 c 0.0933,-4.476712 -0.43371,-8.881685 -1.51284,-13.184912 l 0,0 c -2.21819,-8.843339 -6.82954,-17.079198 -13.3219,-23.945889 l 0,0 c -7.58534,-8.022972 -17.77531,-14.121051 -29.67798,-16.977417 -12.14632,-2.914839 -24.21676,-2.008457 -34.75197,1.890686 -17.22658,6.370774 -30.03636,20.522812 -33.59077,38.786829 -3.53584,18.168621 2.83311,36.18652 14.80784,48.699886 7.41011,7.74598 17.04018,13.51783 28.20131,16.19589 10.93838,2.62462 21.89693,1.93047 31.8385,-1.42643 l 0,0 c 8.47555,-2.86114 16.21252,-7.71521 22.48345,-14.1042 l 0,0 c 3.04476,-3.10174 5.75777,-6.61493 8.02892,-10.425759 l 0,0 c 1.12203,-1.882624 2.14662,-3.869546 3.04841,-5.911307 l 0,0 c 0,0 0,-4e-6 0,-4e-6 0.44682,-1.016831 0.87031,-2.064156 1.26052,-3.116804 l 0,0 0,-4e-6 c 0.19354,-0.520123 0.38405,-1.059094 0.56398,-1.593521 0.0903,-0.26816 0.17877,-0.537709 0.26508,-0.807735 0.0888,-0.277692 0.17518,-0.555644 0.25963,-0.8355 z"
                 inkscape:original-d="M 515.43,61.142 C 515.43,31.161 490.613,6.857 460,6.857 c -30.613,0 -55.43,24.304 -55.43,54.285 0,29.98 24.817,54.285 55.43,54.285 30.613,0 55.43,-24.305 55.43,-54.285 z" />
              <path
                 inkscape:connector-curvature="0"
                 id="path4878"
                 style="fill:#ffffff;fill-opacity:1;fill-rule:nonzero;stroke:none"
                 d="m 487.8795,37.839318 c 6.80774,2.368366 12.61909,6.560858 16.83028,11.973681 2.42533,3.117327 4.32363,6.634911 5.58352,10.44233 0.87799,2.649763 1.54057,6.503114 1.61174,9.290761 0.15925,6.665159 -1.90705,13.667213 -5.54396,19.183665 -3.62804,5.511741 -9.29242,10.276458 -15.25667,12.871635 -0.061,0.0265 -0.12196,0.0529 -0.18302,0.079 -9.87859,4.23276 -21.04693,3.8535 -30.53004,-1.03761 -0.79584,-0.40865 -1.49012,-0.766702 -1.53865,-0.794822 -0.0499,-0.02976 0.21099,-0.427931 0.58723,-0.880713 1.30779,-1.607167 2.50656,-3.628279 3.3489,-5.681539 0.55215,-1.340469 1.35176,-4.647288 1.49014,-6.171187 0.72356,-7.92321 -3.01197,-15.847798 -9.73906,-20.396697 -3.19367,-2.155266 -7.60011,-3.706721 -11.13334,-3.915967 -0.67389,-0.0404 -1.31101,-0.08968 -1.41205,-0.111903 -0.15785,-0.03472 -0.10535,-0.352214 0.30898,-1.914149 2.93315,-11.081673 11.39252,-19.89343 22.848,-23.403531 5.28056,-1.618628 10.64,-1.971663 16.65378,-1.08686 1.12734,0.165518 4.74422,1.091804 6.06978,1.552783 0,0 0.004,0.001 0.004,0.001 0,0 3.4e-4,8.5e-5 3.4e-4,8.5e-5 z"
                 inkscape:original-d="m 472.58503,22.987652 c 10.68549,1.013904 20.20775,6.880914 25.99036,16.019037 1.46729,2.316723 3.06443,5.871339 3.84245,8.529997 1.85575,6.378832 1.77893,13.67851 -0.21101,19.967529 -1.98669,6.294431 -6.12563,12.363789 -11.18865,16.417242 -8.40773,6.729424 -19.39295,9.168421 -29.78736,6.614724 -0.86566,-0.211005 -1.61879,-0.397121 -1.67289,-0.413353 -0.0552,-0.01731 0.10496,-0.465292 0.36358,-0.993344 0.89163,-1.868744 1.57658,-4.112967 1.90986,-6.307415 0.21966,-1.432668 0.21966,-4.834711 0,-6.348534 -1.13726,-7.865603 -6.50544,-14.701071 -13.84299,-17.617263 -3.48644,-1.381809 -7.99329,-1.927175 -11.37802,-1.369907 -0.64708,0.106044 -1.26061,0.194774 -1.36125,0.194774 -0.1569,0 -0.17313,-0.321376 -0.10604,-1.935832 0.46962,-11.446189 6.60715,-21.869817 16.41291,-27.872087 4.53498,-2.776604 9.37943,-4.357516 15.10252,-4.932098 1.05286,-0.106043 4.62046,-0.07683 5.9222,0.04653 l 0.004,0 z" />
              <path
                 inkscape:connector-curvature="0"
                 id="path4880"
                 style="fill:#333333;fill-opacity:1;fill-rule:nonzero;stroke:none"
                 d="m 301.61415,-0.0542255 c -0.76093,1.1801428 -10.26674,19.5117855 -19.26389,39.2188895 -9.10606,19.945682 -16.26847,38.247449 -16.65084,39.641172 -0.80154,2.684423 -0.44374,4.606733 -0.0626,5.998714 1.10686,4.050102 4.58949,7.49735 8.59188,8.565884 2.6751,0.716381 6.10983,0.447378 8.3351,-0.667263 1.32752,-0.662828 3.12409,-2.371816 4.08132,-3.883437 2.57524,-4.07858 -1.1942,1.677935 13.41475,-28.670295 5.12985,-10.661173 9.62229,-19.255608 9.67527,-19.181991 0.0786,0.08366 3.57962,11.210388 7.4415,24.82501 5.07059,17.857864 6.72533,24.756854 7.36405,26.212564 1.22779,2.826459 3.43163,4.96091 6.05164,5.874334 1.88294,0.654227 5.20361,0.898709 7.0114,0.51426 2.11973,-0.450127 3.75498,-1.241309 5.62697,-2.71098 0.40486,-0.319391 0.76632,-0.62784 1.09209,-0.935611 1.0988,-1.039624 1.78749,-2.069142 2.36197,-3.475322 0.51348,-1.251065 1.12071,-2.782121 0.77065,-5.575935 -0.0196,-0.208798 -0.45072,-2.14191 -1.18445,-5.260204 C 343.8548,70.198346 339.68026,53.441111 334.53342,35.137865 329.65237,17.779805 325.01908,3.1988578 324.48842,1.9091319 320.56671,-9.258525 306.2496,-8.4132896 301.61442,-0.05821587 Z M -3.7826729,33.571715 c -1.3165747,0.50118 -2.6086619,1.243905 -3.7402731,2.116516 -1.4131888,1.08993 -2.602408,2.390141 -3.269245,3.667759 -0.255427,0.488446 -0.495524,1.148039 -0.694566,1.868151 0,0 0,0 0,0 -0.287322,1.039834 -0.51371,2.221418 -0.569615,3.184608 0,0 0,10e-7 0,10e-7 -0.0061,0.131154 -0.0096,0.258441 -0.01005,0.381141 0.02253,0.482229 0.05749,0.894943 0.194525,1.561242 0,0 10e-7,2e-6 10e-7,2e-6 0.108845,0.529235 0.28129,1.214671 0.561318,2.219223 0,0 0,1e-6 0,1e-6 0.851583,3.006447 2.7718055,9.290961 6.8876111,23.007849 1.8285874,6.094196 3.2753915,10.903094 4.40563395,14.641246 0,0 1.43e-6,5e-6 1.43e-6,5e-6 1.43385692,4.729365 2.38366552,7.810001 3.00805012,9.755197 0,0 3e-7,0 3e-7,0 0.4992925,1.555487 0.7952591,2.400083 0.9740593,2.809718 0.1824636,0.418682 0.3696627,0.832995 0.5613604,1.241536 0.844121,1.80895 1.7780997,3.53896 2.7967025,5.15493 2.124362,3.37037 4.6351909,6.35874 7.5446239,8.93268 1.985701,1.75699 4.155733,3.33762 6.515118,4.74951 4.819296,2.88137 9.749337,4.77091 14.875296,5.66162 5.387832,0.93669 10.957273,0.78133 16.790968,-0.45155 3.124136,-0.6582 4.561819,-1.1957 6.207012,-2.32397 2.521866,-1.7389 4.329616,-4.6581 4.845536,-7.85046 0.250102,-1.54978 0.02088,-4.03984 -0.551187,-5.88641 -1.548692,-5.02608 -4.564505,-7.73734 -9.276772,-8.288709 -1.711426,-0.199632 -3.056595,-0.161574 -5.766196,0.176401 -3.757968,0.474108 -5.679937,0.428218 -8.620586,-0.22185 C 35.974177,98.815554 32.460099,96.849867 30.058479,94.16112 29.422384,93.446038 28.508022,92.122048 27.68204,90.714011 26.751019,88.659993 25.621422,83.907197 20.390672,64.557302 16.091571,47.990859 14.709452,42.545537 13.763908,39.977474 c 0,0 -1e-6,0 -1e-6,0 -0.353989,-0.96144 -0.645837,-1.516304 -1.005618,-2.097613 -1.897298,-3.08991 -4.4077747,-4.81443 -7.9587981,-5.438871 -2.284467,-0.395974 -5.75281487,0.05545 -8.5821638,1.130725 z M 203.20179,-6.1178239 c -12.68571,1.6795679 -23.01495,7.6183004 -30.10831,17.0443459 -2.83232,3.762507 -4.8883,7.666157 -6.21948,11.76567 -1.10677,3.400461 -1.71526,6.939917 -1.8542,10.66046 -0.1523,4.111275 0.201,7.060683 3.83591,32.500436 3.90592,27.319497 3.15612,24.339934 5.31296,27.825412 0.72495,1.101144 1.66092,2.043717 2.75329,2.796843 1.4597,1.005148 3.19883,1.674834 5.09179,1.935745 1.75213,0.242886 5.31522,-0.261409 6.99622,-0.983735 3.87134,-1.659375 6.36313,-4.974572 7.00921,-9.360127 0.1514,-1.024909 -0.0877,-3.432429 -2.64264,-27.077671 -0.93421,-8.652825 -1.86732,-17.305771 -2.79932,-25.958838 -0.29381,-5.422809 2.65407,-10.304799 6.39818,-13.074256 5.78868,-4.764259 14.83967,-5.384705 21.661,-2.193911 5.66268,3.030767 9.08429,7.868256 10.05462,13.232222 0.17233,0.9923 0.7959,10.747487 1.67439,26.188341 1.55706,27.297446 1.40948,25.852785 2.70963,28.300952 1.55113,2.944698 4.22698,5.009002 7.48039,5.805183 1.48945,0.36722 5.26275,0.234366 6.70263,-0.230032 1.75658,-0.568086 3.35578,-1.477788 4.73286,-2.923769 1.95412,-2.029204 2.93655,-4.438998 3.07884,-6.198884 l -0.31512,-27.060679 c -0.35352,-30.359416 -0.25882,-28.86229 -1.80444,-34.234246 -2.38691,-8.341765 -7.55884,-15.6099574 -15.33118,-21.165759 -9.454,-6.7557775 -21.10002,-9.3576116 -34.42162,-7.5933088 0,0 0.004,-3.941e-4 0.004,-3.941e-4 z m 179.8774,8.3576968 c -3.14093,-0.217623 -6.65006,0.7232392 -8.67557,2.3143777 -2.06773,1.7932782 -2.60474,2.887276 -3.27796,4.408299 -0.68347,1.7201664 -0.7229,2.5434614 -3.63614,21.8651954 -3.49521,23.181613 -3.17132,21.047526 -2.39304,24.617079 0.59521,1.826482 2.24925,4.072689 3.85652,5.239834 2.29167,1.663976 5.15217,2.592685 8.49085,2.761323 6.58944,0.331545 10.11576,-2.145979 11.83382,-8.451351 0.34947,-1.27621 1.7015,-8.718717 3.85797,-21.223527 3.28774,-19.141467 3.13355,-18.27158 3.14422,-20.649057 -0.43061,-3.5920271 -2.01937,-6.2698525 -4.96099,-8.3092773 -1.90461,-1.3178413 -5.23689,-2.3624043 -8.23542,-2.5722084 0,0 -0.004,-6.874e-4 -0.004,-6.874e-4 z"
                 inkscape:original-d="m 294.738,16.72 c -0.855,1.703 -31.226,78.789 -31.64,80.297 -0.809,2.699 -0.418,4.605 0.004,6 1.222,4.047 4.996,7.441 9.339,8.398 2.899,0.641 6.551,0.239 8.868,-0.98 1.386,-0.727 3.187,-2.516 4.113,-4.082 0.797,-1.352 0.691,-1.09 11.867,-29.465 4.332,-11.004 7.93,-19.953 7.988,-19.883 0.071,0.066 4.348,10.883 9.52,24.035 6.629,16.844 9.648,24.317 10.226,25.285 1.582,2.672 4.098,4.539 6.899,5.133 2.019,0.426 5.433,0.258 7.23,-0.355 2.098,-0.715 3.657,-1.715 5.348,-3.418 1.602,-1.621 2.383,-2.93 2.879,-4.836 0.344,-1.313 0.738,-2.906 0,-5.629 -0.34,-1.43 -30.516,-78.113 -31.664,-80.457 -4.582,-10.672 -17.313,-8.645 -20.977,-0.047 l 0,0.004 z M 10.328,9.396 c -2.906,0.285 -6,1.765 -7.605,3.636 C 1.82,14.083 0.715,16.31 0.312,17.884 -0.105,19.868 0,20.775 0,45.739 c 0,20.848 0.047,27.028 0.227,28.469 1.183,9.516 4.906,17.457 11.296,24.106 8.032,8.351 17.789,12.695 29.555,13.144 3.223,0.125 4.777,-0.054 6.66,-0.754 2.899,-1.086 5.364,-3.496 6.621,-6.48 0.61,-1.449 0.969,-3.922 0.844,-5.852 C 54.871,93.122 52.578,89.786 48.168,88.126 46.559,87.521 45.266,87.239 42.57,86.907 38.848,86.454 36.992,85.927 34.34,84.568 30.797,82.755 27.934,79.962 26.324,76.747 25.898,75.892 25.363,74.38 24.934,72.806 24.57,70.591 24.695,65.689 24.617,45.654 24.754,22.126 24.812,20.31 24.129,17.911 23.152,14.435 21.297,12.126 18.262,10.591 16.312,9.611 13.098,9.126 10.328,9.396 Z m 196.035,0.008 c -11.566,0.539 -21.578,5.207 -29.273,13.648 -5.621,6.164 -9.008,13.062 -10.383,21.148 -0.687,4.047 -0.75,7.024 -0.687,32.719 0.07,27.582 -0.262,24.559 1.421,28.293 1.348,2.777 3.989,4.852 7.301,5.731 1.758,0.468 5.446,0.414 7.266,-0.102 4.176,-1.18 7.117,-4.191 8.277,-8.477 0.27,-0.996 0.305,-3.425 0.395,-27.195 l 0.101,-26.101 c 0.297,-5.411 3.606,-9.95 7.367,-12.317 5.864,-4.14 14.317,-3.965 20.454,-0.312 5.078,3.418 8.054,8.441 8.687,13.851 0.109,0.989 0.176,10.789 0.176,26.246 0.004,27.34 -0.067,25.903 1.152,28.414 1.457,3.028 4.172,5.231 7.61,6.164 1.589,0.434 5.593,0.434 7.171,0.004 1.899,-0.519 3.637,-1.394 5.137,-2.816 2.129,-1.996 3.199,-4.398 3.371,-6.156 l 0,-27.067 c 0,-30.398 0.067,-28.836 -1.316,-34.261 -2.121,-8.368 -6.758,-15.739 -13.574,-21.586 -8.313,-7.129 -18.5,-10.395 -30.657,-9.828 l 0.004,0 z m 163.09,-0.008 c -2.902,0.285 -5.984,1.758 -7.617,3.636 -1.648,2.09 -1.988,3.243 -2.398,4.852 -0.391,1.805 -0.313,2.621 -0.313,22.164 0,23.438 0,21.293 1.273,24.699 0.844,1.719 2.774,3.684 4.512,4.59 2.473,1.289 5.395,1.754 8.656,1.375 6.442,-0.75 9.422,-3.82 10.008,-10.32 0.121,-1.324 0.164,-8.875 0.129,-21.571 -0.066,-19.429 -0.066,-18.531 -0.441,-20.882 -0.977,-3.465 -2.864,-5.828 -5.875,-7.348 -1.946,-0.98 -5.16,-1.465 -7.93,-1.195 l -0.004,0 z" />
              <path
                 inkscape:connector-curvature="0"
                 id="path4882"
                 style="fill:#333333;fill-opacity:1;fill-rule:nonzero;stroke:none"
                 d="M 98.137334,9.1836695 C 89.781756,11.209205 82.650897,15.101734 77.029876,20.624464 c -2.494541,2.450116 -4.693866,5.22105 -6.575867,8.294522 -4.472013,7.306028 -6.392568,14.828363 -5.981632,23.023847 0.210576,4.106992 0.81341,7.016966 6.635719,32.046944 6.246773,26.876483 5.24122,23.983643 7.712514,27.258963 1.926185,2.41161 4.93784,3.85053 8.332192,3.993 1.790569,0.0797 5.355271,-0.75684 7.002079,-1.63955 0.919426,-0.49343 1.746746,-1.07575 2.476326,-1.73809 0,0 0,0 0,0 2.277186,-2.06646 3.604153,-4.91773 3.792913,-8.27358 0.0612,-1.03395 -0.4086,-3.40769 -5.208377,-26.695282 -1.755374,-8.52208 -3.510071,-17.044304 -5.264091,-25.566672 -0.811387,-5.363712 1.628095,-10.504037 5.025316,-13.618187 5.202072,-5.295389 13.980802,-6.832127 20.998792,-4.413379 3.33655,1.148751 6.26062,3.28126 8.4253,6.131763 1.44296,1.902869 2.28989,3.572116 2.98305,5.876027 0.28314,0.959699 2.0611,10.58119 4.76583,25.806286 4.78667,26.921295 4.46726,25.511344 6.09124,27.777308 1.94296,2.730896 4.95559,4.439686 8.42768,4.797286 1.59951,0.16667 5.48616,-0.47782 6.93225,-1.14485 1.75105,-0.8096 3.29823,-1.94147 4.52746,-3.573479 1.75339,-2.294897 2.43192,-4.828324 2.33338,-6.591085 l -4.1013,-26.753201 C 151.75714,35.593872 152.06418,37.093122 149.80463,31.972431 146.32532,24.036305 140.34054,17.515165 132.1741,12.95284 122.23512,7.3977 110.8166,6.1104125 98.133128,9.1844975 c 0,0 0.0042,-8.28e-4 0.0042,-8.28e-4 z"
                 inkscape:original-d="M 108.301,9.2 C 96.734,9.739 86.723,14.407 79.027,22.849 73.406,29.017 70.02,35.915 68.645,43.997 c -0.684,4.047 -0.75,7.024 -0.684,32.719 0.066,27.582 -0.266,24.559 1.418,28.293 1.348,2.781 3.988,4.852 7.305,5.73 1.754,0.469 5.441,0.418 7.261,-0.097 4.176,-1.184 7.117,-4.196 8.278,-8.481 0.273,-0.996 0.304,-3.422 0.394,-27.195 l 0.102,-26.102 c 0.297,-5.41 3.605,-9.949 7.367,-12.316 5.863,-4.141 14.316,-3.965 20.453,-0.312 2.922,1.738 5.305,4.359 6.863,7.546 1.039,2.129 1.559,3.918 1.828,6.309 0.106,0.988 0.172,10.785 0.172,26.242 0.004,27.34 -0.066,25.903 1.153,28.414 1.457,3.028 4.175,5.231 7.609,6.164 1.59,0.434 5.594,0.434 7.172,0.004 1.898,-0.519 3.641,-1.394 5.137,-2.816 2.129,-1.996 3.199,-4.399 3.371,-6.156 l 0,-27.067 c 0,-30.398 0.07,-28.836 -1.317,-34.258 C 150.406,32.247 145.773,24.876 138.953,19.029 130.641,11.9 120.457,8.634 108.297,9.2 l 0.004,0 z" />
              <path
                 inkscape:connector-curvature="0"
                 id="path4884"
                 style="fill:#333333;fill-opacity:1;fill-rule:nonzero;stroke:none"
                 d="m 385.95429,91.219186 c 1.49415,-8.386539 -4.1071,-16.415261 -12.63877,-17.807161 -8.53415,-1.392306 -16.36613,4.447603 -17.60672,12.876727 -1.24076,8.430209 4.47022,16.241358 12.6399,17.574718 8.17811,1.33474 16.11056,-4.25287 17.60559,-12.644284 z"
                 inkscape:original-d="m 386.57,96.642 c 0,-8.52 -6.906,-15.426 -15.429,-15.426 -8.52,0 -15.426,6.906 -15.426,15.426 0,8.523 6.906,15.429 15.426,15.429 8.523,0 15.429,-6.906 15.429,-15.429 z" />
            </g>
          </g>
        </g>
      </g>
    </g>
  </g>
</svg>
